<svg id="Layer_1" data-name="Layer 1" xmlns="http://www.w3.org/2000/svg" viewBox="0 0 1024 170">
    <defs>
        <style>
            .cls-1,.cls-12,.cls-13,.cls-14,.cls-8,.cls-9{fill:none}.cls-2{clip-path:url(#clip-path)}.cls-3{fill:#f1f3f2}.cls-4{clip-path:url(#clip-path-2)}.cls-5{fill:#f63}.cls-10,.cls-11,.cls-6{fill:#fff}.cls-7{fill:#3cc}.cls-10,.cls-11,.cls-12,.cls-13,.cls-14,.cls-8,.cls-9{stroke:#3cc}.cls-13,.cls-8{stroke-miterlimit:10}.cls-8{stroke-width:1.61px}.cls-10,.cls-11,.cls-12,.cls-14,.cls-9{stroke-linecap:round;stroke-linejoin:round}.cls-9{stroke-width:16px}.cls-10{stroke-width:.73px}.cls-11{stroke-width:.72px}.cls-12{stroke-width:.71px}.cls-13{stroke-width:.3px}.cls-14{stroke-width:.75px}
        </style>
        <clipPath id="clip-path">
            <path class="cls-1" d="M0 0h1024v170H0z"/>
        </clipPath>
        <clipPath id="clip-path-2">
            <path class="cls-1" d="M0-.06h1027v170.94H0z"/>
        </clipPath>
    </defs>
    <title>
        header_hk
    </title>
    <g class="cls-2">
        <path class="cls-3" d="M0-.06h1147v170.94H0z"/>
        <g class="cls-4">
            <path class="cls-5" d="M613.44-.13h24.19v117.48h-24.19zm46.75 0h24.19v117.48h-24.19zm46.76 0h24.19v117.48h-24.19zm46.76 0h24.19v117.48h-24.19z"/>
            <circle class="cls-6" cx="777.89" cy="38.39" r="11.85"/>
            <circle class="cls-5" cx="802.6" cy="70.78" r="11.85"/>
            <circle class="cls-6" cx="848.36" cy="96.58" r="11.85"/>
            <circle class="cls-6" cx="894.4" cy="23.74" r="11.85"/>
            <path class="cls-3" d="M170.1 54.87h82.59v106.06H170.1z"/>
            <path class="cls-7" d="M163 174.86V33.76h88.36v25.87h-60.9v32.25h55.13v24.48h-55.13V149h60.9v25.87zm711.52-77.79h-51.34L812.65 126h-26L835.12-.46h28.53L911.79 126H885zm-43.15-22.46h34.95l-17.47-47.79z"/>
            <path class="cls-8" d="M928.57 112.68a11.36 11.36 0 0 1-2.17.24c-5.5 0-10.48-4.15-10.48-11.44 0-7 4.63-11.29 10.09-11.29 4.06 0 7.34 2.22 9.7 6.08l3.67 6a6.38 6.38 0 0 0 2.85 2.7V90H948v23.17c-5.5 0-10-1.78-13.37-7.39l-3.09-5.17c-1.59-2.65-3.23-3.71-5.41-3.71s-4.3 1.6-4.3 4.73c0 3.33 2.27 5 5.21 5a7.13 7.13 0 0 0 1.74-.24zm-7.38-28.92a11.85 11.85 0 0 1-5.26-10.34 11.7 11.7 0 0 1 5.26-10.28c3.23-2.12 7.14-2.8 11.15-2.8s7.92.68 11.15 2.8a11.7 11.7 0 0 1 5.26 10.28 11.85 11.85 0 0 1-5.26 10.34c-3.23 2.12-7.14 2.75-11.15 2.75s-7.92-.63-11.15-2.75zm19.12-5.6a5.23 5.23 0 0 0 2.56-4.73 5.09 5.09 0 0 0-2.56-4.68c-1.88-1.26-4.68-1.74-8-1.74s-6.08.48-8 1.74a5.09 5.09 0 0 0-2.56 4.68 5.23 5.23 0 0 0 2.56 4.73c1.88 1.21 4.68 1.69 8 1.69s6.11-.49 8-1.7zm7.69-28.3h-21v7.53h-4.49c0-4.58-2.61-7.78-5.89-8.4v-5.75H948zm-25.22-34.77a13.44 13.44 0 0 0-1.11 5.17c0 5.31 3.09 9.66 9 10.38a8.87 8.87 0 0 1-3.48-7.44c0-6.42 4.06-10.81 10.52-10.81s11 5.21 11 12.12-4.93 12.69-14.39 12.69c-11.25 0-18.39-7-18.39-17.38a13.65 13.65 0 0 1 1.45-6.57zm20.32 9.46a5.22 5.22 0 0 0-5.26-5.55c-3.23 0-5.21 2.51-5.21 5.55a5.17 5.17 0 0 0 5.21 5.5 5.3 5.3 0 0 0 5.27-5.5z"/>
            <path class="cls-7" d="M954.4 12.39h12.32v104.72H954.4z"/>
            <path class="cls-3" d="M453.24 24.01h108.35v93.01H453.24z"/>
            <path class="cls-7" d="M-1.56-6.81h54.7v179.82h-54.7z"/>
            <path class="cls-5" d="M163-.46h95.47v34.22H163z"/>
            <path class="cls-3" d="M410.14 134.83h51.59v56.37h-51.59z"/>
            <path class="cls-9" d="M480.51 114.94a28.39 28.39 0 0 1 56.73 0"/>
            <path class="cls-5" d="M453.24 117.02h452.28v8.94H453.24z"/>
            <path class="cls-6" d="M53.14 8H-.15v77.07L23.67 66a4.81 4.81 0 0 1 6 0l23.44 19z"/>
            <path class="cls-6" d="M53.29-.51H0v77.12l26.85-21.5 26.44 21.5V-.51z"/>
            <circle class="cls-3" cx="26.45" cy="85.37" r="6.61"/>
            <path class="cls-3" d="M455.21 134.81h449.85v36.9H455.21z"/>
            <path class="cls-6" d="M905.05 116.64h75.49v54.94h-75.49z"/>
            <path class="cls-6" d="M1024.73 105.44h-46v65.77l23.17-18.47 22.83 18.47v-65.77z"/>
            <path class="cls-5" d="M1024.7 89.07h-46.11v66.3l23.23-18.46 22.88 18.46v-66.3z"/>
            <path class="cls-6" d="M1024.73 72.44h-46v67.1l23.17-18.46 22.83 18.46v-67.1z"/>
            <path class="cls-5" d="M1024.7 57.41h-46.11v66.3l23.23-18.46 22.88 18.46v-66.3z"/>
            <path class="cls-6" d="M1024.73 42.44h-46v65.44l23.17-18.47 22.83 18.47V42.44z"/>
            <path class="cls-5" d="M1024.7 25.74h-46.11v66.3l23.23-18.46 22.88 18.46v-66.3z"/>
            <path class="cls-6" d="M1024.73 10.44h-46v65.77l23.17-18.46 22.83 18.46V10.44z"/>
            <path class="cls-5" d="M1024.7-5.92h-46.11v66.3l23.23-18.47 22.88 18.47v-66.3z"/>
            <path class="cls-7" d="M455.67 125.97h449.67v8.83H455.67z"/>
            <path class="cls-6" d="M882.14 116.57L862.48 139a7.55 7.55 0 0 0 0 9.9l19.7 22.85h-85.9v5.54h172.19v-60.72z"/>
            <circle class="cls-3" cx="886.22" cy="144.14" r="7.34"/>
            <path class="cls-7" d="M455.73 134.62l-17.84 18.54 18.05 18.55h-52.95l-.05-36.95 52.79-.14z"/>
            <path class="cls-5" d="M375.87 275.86V177l-40.6 98.91h-22.89l-40.6-98.11v98.11h-26.26V134.76h36.22l42.39 101.89 41.39-101.89h37.42v141.1z"/>
            <path class="cls-1" d="M0 .87h1027v170.84H0z"/>
            <path class="cls-6" d="M245.55-.46h210.12V134.8H245.55z"/>
        </g>
        <path class="cls-7" d="M602 13.1a16.28 16.28 0 1 1-16.46-16.29A16.27 16.27 0 0 1 602 13.1zM455.85 0h97.71v26.4h-97.71z"/>
    </g>
    <path class="cls-5" d="M133 85.4H84.59V155l22.24-17.67a3.41 3.41 0 0 1 4.26 0L133 155z"/>
    <circle class="cls-10" cx="109.13" cy="59.39" r="43.53"/>
    <path class="cls-11" d="M70.69 61.34v-1.71a38.84 38.84 0 0 1 74.62-15.12M71.83 71.13a38.85 38.85 0 0 0 74.05.49"/>
    <path class="cls-10" d="M76.56 73.29a35.36 35.36 0 0 0 31.69 21.48h1.1a35.31 35.31 0 0 0 32.15-21.48M73.78 61.22a35.33 35.33 0 0 1 30.7-36.74m32.66 13.68a35.28 35.28 0 0 1 7.13 23.06M109.3 24.11a35.09 35.09 0 0 1 7.43 1"/>
    <path class="cls-12" d="M91.51 77.38h-6.23m48.99.43h-6.22"/>
    <path class="cls-7" d="M96 79.72v-1.94h-2v1.94h-.91V75H94v1.88h2V75h1v4.68zm5.1-1.63a1.7 1.7 0 1 1-1.7-1.72 1.67 1.67 0 0 1 1.7 1.72zm-.88 0a.83.83 0 1 0-.83.92.83.83 0 0 0 .83-.92zm2.44 1.63h-.88v-3.25h.85v.4a1.08 1.08 0 0 1 .94-.49 1.14 1.14 0 0 1 1.18 1.29v2h-.88v-1.9a.57.57 0 0 0-.6-.65.61.61 0 0 0-.61.67zm3.54-.04a.73.73 0 0 0 .76.62c.56 0 .87-.28.87-.91v-.24a1 1 0 0 1-.91.42 1.5 1.5 0 0 1-1.51-1.57 1.53 1.53 0 0 1 1.51-1.58 1 1 0 0 1 .92.44v-.38h.85v2.9a1.57 1.57 0 0 1-1.7 1.7 1.5 1.5 0 0 1-1.58-1.18zm1.64-1.68a.77.77 0 1 0-.77.83.76.76 0 0 0 .77-.83zm4.93-.22l-.58.64v1.3h-.91V75h.91v2.12l1.88-2.12h1.2l-1.86 2 1.87 2.64h-1.14z"/>
    <path class="cls-7" d="M118.71 78.09a1.7 1.7 0 1 1-1.7-1.72 1.67 1.67 0 0 1 1.7 1.72zm-.88 0a.83.83 0 1 0-.83.91.83.83 0 0 0 .83-.91zm2.45 1.63h-.88v-3.25h.85v.4a1.08 1.08 0 0 1 .94-.49 1.14 1.14 0 0 1 1.18 1.29v2h-.88v-1.9a.57.57 0 0 0-.6-.65.61.61 0 0 0-.61.67zm3.54-.04a.73.73 0 0 0 .76.62c.56 0 .87-.28.87-.91v-.24a1 1 0 0 1-.91.42A1.5 1.5 0 0 1 123 78a1.53 1.53 0 0 1 1.51-1.58 1 1 0 0 1 .92.44v-.38h.85v2.9a1.57 1.57 0 0 1-1.7 1.7A1.5 1.5 0 0 1 123 79.9zm1.64-1.68a.77.77 0 1 0-.77.83.76.76 0 0 0 .77-.83zM85.64 40.59a1.72 1.72 0 1 1-1.72 1.74 1.72 1.72 0 0 1 1.72-1.74zM84.25 56V45.71H87V56zm5.99 0V41.16h9.32v2.73h-6.42v3.4H99v2.58h-5.86v3.44h6.42V56zm25.97 0V45.61L111.93 56h-2.41l-4.28-10.35V56h-2.77V41.16h3.82l4.47 10.75 4.37-10.75h3.95V56zm15.12-3.36h-6L124 56h-3l5.71-14.89h3.36L135.72 56h-3.15zM126.25 50h4.12l-2.06-5.63zm-41.68 8.46a.48.48 0 1 1-.48.49.48.48 0 0 1 .48-.49zm-.39 4.32v-2.89H85v2.89zm2.49-1.57v1.57h-.81v-4.17h1.56a1.3 1.3 0 1 1 0 2.6zm.65-.7a.6.6 0 1 0 0-1.19h-.64v1.19zm3.68.15h-.24c-.4 0-.75.19-.75.82v1.32h-.78v-2.91H90v.43a.86.86 0 0 1 .82-.45H91zm1-2.2a.48.48 0 1 1-.48.49.48.48 0 0 1 .48-.49zm-.39 4.32v-2.89h.78v2.89zm2.16-1.45a.74.74 0 0 0 .74.82.66.66 0 0 0 .66-.49l.69.23a1.34 1.34 0 0 1-1.35 1A1.5 1.5 0 0 1 93 61.33a1.48 1.48 0 0 1 1.5-1.53 1.32 1.32 0 0 1 1.36 1l-.7.24a.63.63 0 0 0-.64-.49.74.74 0 0 0-.75.78zM99 62a1.3 1.3 0 0 1-1.32.92 1.54 1.54 0 0 1-.07-3.07A1.35 1.35 0 0 1 99 61.3v.24h-2a.7.7 0 0 0 .73.66.64.64 0 0 0 .66-.44zm-.73-1a.58.58 0 0 0-.65-.57.63.63 0 0 0-.62.57zm2.89 1.78v-4.17h2.61v.76H102v1h1.63v.72H102v1h1.8v.76zm3.19-1.4v-.69h1.7v.69zm2.19-.68a2.1 2.1 0 0 1 2.12-2.17 1.83 1.83 0 0 1 1.91 1.38l-.76.24a1.09 1.09 0 0 0-1.15-.84 1.39 1.39 0 0 0 0 2.77 1.16 1.16 0 0 0 1.17-.85l.76.23a1.89 1.89 0 0 1-1.93 1.42 2.08 2.08 0 0 1-2.12-2.18zm7.39.63a1.52 1.52 0 1 1-1.52-1.53 1.48 1.48 0 0 1 1.52 1.53zm-.78 0a.74.74 0 1 0-.73.82.74.74 0 0 0 .73-.82zm1.39 1.45v-2.89h.75v.35a1 1 0 0 1 .85-.43.89.89 0 0 1 .86.48 1.07 1.07 0 0 1 2 .62v1.87h-.76v-1.72a.48.48 0 0 0-.51-.55.53.53 0 0 0-.53.57v1.69h-.78v-1.71a.49.49 0 0 0-.51-.55.53.53 0 0 0-.54.57v1.69zm5.2 0v-2.89h.75v.35a1 1 0 0 1 .85-.43.89.89 0 0 1 .86.48 1.07 1.07 0 0 1 2 .62v1.87h-.76v-1.72a.48.48 0 0 0-.51-.55.53.53 0 0 0-.53.57v1.69h-.78v-1.71a.49.49 0 0 0-.51-.55.53.53 0 0 0-.54.57v1.69zm7.79-.78a1.3 1.3 0 0 1-1.32.92 1.54 1.54 0 0 1-.07-3.07 1.35 1.35 0 0 1 1.43 1.5v.24h-2.07a.7.7 0 0 0 .73.66.64.64 0 0 0 .66-.44zm-.73-1a.58.58 0 0 0-.65-.57.63.63 0 0 0-.65.57zm3.14-.34h-.24c-.4 0-.75.19-.75.82v1.32h-.78v-2.91h.76v.43a.86.86 0 0 1 .82-.45h.18zm1.06.67a.74.74 0 0 0 .74.82.66.66 0 0 0 .66-.49l.69.23a1.34 1.34 0 0 1-1.35 1 1.5 1.5 0 0 1-1.52-1.53 1.48 1.48 0 0 1 1.5-1.53 1.32 1.32 0 0 1 1.36 1l-.7.24a.63.63 0 0 0-.64-.49.74.74 0 0 0-.74.75zm5.25.67a1.3 1.3 0 0 1-1.32.92 1.54 1.54 0 0 1-.07-3.07 1.35 1.35 0 0 1 1.43 1.5v.24h-2.07a.7.7 0 0 0 .73.66.64.64 0 0 0 .66-.44zm-.73-.95a.58.58 0 0 0-.65-.57.63.63 0 0 0-.65.57zm-53.19 8.47V66.6l-1.2 2.92h-.68l-1.2-2.9v2.9h-.78v-4.17h1.07l1.25 3 1.22-3h1.1v4.17zm4.26-.83a1.3 1.3 0 0 1-1.32.92 1.54 1.54 0 0 1-.07-3.07A1.35 1.35 0 0 1 86.63 68v.24h-2.08a.7.7 0 0 0 .73.66.64.64 0 0 0 .66-.44zm-.73-.95a.58.58 0 0 0-.65-.57.63.63 0 0 0-.65.57zM89 67.4h-.24c-.4 0-.75.19-.75.82v1.32h-.78v-2.91H88v.43a.86.86 0 0 1 .82-.45H89zm1.09.67a.74.74 0 0 0 .74.82.66.66 0 0 0 .66-.49l.69.23a1.34 1.34 0 0 1-1.35 1 1.5 1.5 0 0 1-1.52-1.53 1.48 1.48 0 0 1 1.5-1.53 1.32 1.32 0 0 1 1.36 1l-.7.24a.63.63 0 0 0-.64-.49.74.74 0 0 0-.74.75zm3.44 1.45h-.78v-4.26h.78v1.6a1.09 1.09 0 0 1 1.86.83v1.82h-.78v-1.68a.51.51 0 0 0-.53-.58.54.54 0 0 0-.54.56zm3.34-1.67l.71-.11c.16 0 .22-.11.22-.21s-.16-.38-.49-.38a.51.51 0 0 0-.55.47l-.69-.15a1.15 1.15 0 0 1 1.24-1c.92 0 1.26.52 1.26 1.1v1.42a3.24 3.24 0 0 0 0 .46h-.72a2 2 0 0 1 0-.35 1 1 0 0 1-.85.43.91.91 0 0 1-1-.87.89.89 0 0 1 .87-.81zm.93.49v-.13l-.65.1a.36.36 0 0 0-.36.36.34.34 0 0 0 .38.33.59.59 0 0 0 .62-.65zm2.32 1.18h-.78v-2.89h.76V67a1 1 0 0 1 .83-.44 1 1 0 0 1 1 1.15v1.82h-.78v-1.7a.51.51 0 0 0-.53-.58.54.54 0 0 0-.54.6zm3.61-2.89h.58v.69h-.58v1.21c0 .25.12.33.34.33h.24v.65a1.16 1.16 0 0 1-.44.07.84.84 0 0 1-.92-.89v-1.37h-.52v-.69h.15a.42.42 0 0 0 .45-.46v-.41h.7zm5.21 1.93h-1.69l-.35 1h-.9l1.6-4.17h.94l1.59 4.17h-.88zm-1.42-.74h1.15l-.58-1.57zm5.41-1.19l.62 1.86.53-1.86h.78l-.9 2.89h-.78l-.68-2-.66 2H111l-.92-2.89h.82l.53 1.86.63-1.86zm3.07 1.22l.71-.11c.16 0 .22-.11.22-.21s-.16-.38-.49-.38a.51.51 0 0 0-.55.47l-.69-.15a1.15 1.15 0 0 1 1.24-1c.92 0 1.26.52 1.26 1.1v1.42a3.24 3.24 0 0 0 0 .46h-.7a2 2 0 0 1 0-.35 1 1 0 0 1-.85.43.91.91 0 0 1-1-.87.89.89 0 0 1 .85-.81zm.93.49v-.13l-.65.1a.36.36 0 0 0-.36.36.34.34 0 0 0 .38.33.59.59 0 0 0 .64-.65zm3.32-.94h-.24c-.4 0-.75.19-.75.82v1.32h-.78v-2.91h.76v.43a.86.86 0 0 1 .82-.45h.18zm3.28 1.6v.52h-.75a2 2 0 0 1 0-.33.91.91 0 0 1-.81.41 1.52 1.52 0 0 1 0-3 .87.87 0 0 1 .82.36v-1.7h.77zm-1.47-.11a.73.73 0 0 0 .71-.83.72.72 0 0 0-.71-.8.82.82 0 0 0 0 1.63zm2.73-.33a.48.48 0 0 0 .53.44c.26 0 .38-.13.38-.29s-.09-.24-.31-.28l-.38-.09c-.56-.12-.81-.46-.81-.86a1.14 1.14 0 0 1 2.21-.11l-.65.15a.44.44 0 0 0-.48-.39c-.21 0-.37.12-.37.29s.11.23.26.26l.41.09c.57.12.86.46.86.89a1 1 0 0 1-1.12 1 1.09 1.09 0 0 1-1.2-.89z"/>
    <path class="cls-13" d="M128.35 67.15a1.44 1.44 0 0 1 0-.26 1.29 1.29 0 0 1 1.39-1.27 1.26 1.26 0 0 1 1.37 1.23 1.37 1.37 0 0 1-.74 1.18l-.73.45a.78.78 0 0 0-.33.35h1.83v.7h-2.82a1.74 1.74 0 0 1 .9-1.63l.63-.38a.74.74 0 0 0 .45-.66.52.52 0 0 0-.58-.52.58.58 0 0 0-.6.63.83.83 0 0 0 0 .21zm3.52-.89a1.44 1.44 0 0 1 1.26-.64 1.42 1.42 0 0 1 1.25.64 2.87 2.87 0 0 1 0 2.71 1.42 1.42 0 0 1-1.25.64 1.44 1.44 0 0 1-1.26-.64 2.92 2.92 0 0 1 0-2.71zm.68 2.33a.64.64 0 0 0 .58.31.62.62 0 0 0 .57-.31 2.33 2.33 0 0 0 0-1.94.62.62 0 0 0-.57-.31.63.63 0 0 0-.58.31 2.39 2.39 0 0 0 0 1.94zm3.45.93V67h-.92v-.55a1 1 0 0 0 1-.72h.7v3.81zm4.21-3.07a1.63 1.63 0 0 0-.63-.13 1.19 1.19 0 0 0-1.26 1.09 1.08 1.08 0 0 1 .9-.42 1.22 1.22 0 0 1 1.32 1.28 1.37 1.37 0 0 1-1.47 1.34 1.56 1.56 0 0 1-1.55-1.75 2.05 2.05 0 0 1 2.12-2.24 1.66 1.66 0 0 1 .8.18zm-1.15 2.47a.64.64 0 1 0-.67-.64.64.64 0 0 0 .67.64z"/>
    <path class="cls-10" d="M70.66 64.94s-.82 12 12.84 24m62.7-41.39s4.49 14.7-1.88 28.09"/>
    <path class="cls-14" d="M120.78 26a33.58 33.58 0 0 1 14 9.21"/>
    <path class="cls-7" d="M263.78 33.69a1.68 1.68 0 1 1-1.68 1.7 1.68 1.68 0 0 1 1.68-1.7zm-1.35 15V38.68h2.72v10.06zm8.65-5.41v5.46h-2.82V34.25h5.42a4.52 4.52 0 1 1 0 9zm2.25-2.43a2.08 2.08 0 1 0 0-4.15h-2.23v4.15zm13 .53a4.11 4.11 0 0 0-.82-.08c-1.39 0-2.6.67-2.6 2.84v4.6h-2.71V38.68h2.64v1.49a3 3 0 0 1 2.86-1.57 6.21 6.21 0 0 1 .63 0zm3.27-7.69a1.68 1.68 0 1 1-1.68 1.7 1.68 1.68 0 0 1 1.68-1.7zm-1.35 15V38.68H291v10.06zm7.58-4.98a2.59 2.59 0 0 0 2.58 2.84 2.3 2.3 0 0 0 2.31-1.7l2.39.8a4.67 4.67 0 0 1-4.7 3.39 5.2 5.2 0 0 1-5.29-5.33 5.15 5.15 0 0 1 5.21-5.33 4.6 4.6 0 0 1 4.67 3.39l-2.43.82a2.19 2.19 0 0 0-2.23-1.7 2.56 2.56 0 0 0-2.51 2.82zM314 45.86a4.53 4.53 0 0 1-4.55 3.14 5.09 5.09 0 0 1-5.19-5.38 5 5 0 0 1 4.95-5.29c3.11 0 5 2 5 5.21v.84h-7.2a2.45 2.45 0 0 0 2.53 2.29 2.22 2.22 0 0 0 2.29-1.53zm-2.53-3.29a2 2 0 0 0-2.25-2 2.18 2.18 0 0 0-2.25 2zm10.1 6.17V34.25h9.08v2.65h-6.25v3.31h5.66v2.51h-5.66v3.35h6.25v2.66zm11.12-4.87v-2.41h5.93v2.41zm7.65-2.37a7.31 7.31 0 0 1 7.38-7.56c4 0 6.07 2.45 6.64 4.8l-2.66.84a3.79 3.79 0 0 0-4-2.92 4.46 4.46 0 0 0-4.46 4.84 4.47 4.47 0 0 0 4.5 4.78 4 4 0 0 0 4.07-3l2.64.8a6.59 6.59 0 0 1-6.7 4.93 7.24 7.24 0 0 1-7.41-7.51zm25.71 2.21a5.27 5.27 0 1 1-5.27-5.33 5.16 5.16 0 0 1 5.27 5.33zm-2.72 0a2.57 2.57 0 1 0-5.11 0 2.57 2.57 0 1 0 5.11 0zm4.87 5.03V38.68h2.6v1.23a3.46 3.46 0 0 1 2.94-1.51 3.11 3.11 0 0 1 3 1.68 3.72 3.72 0 0 1 6.83 2.15v6.52h-2.64v-6a1.68 1.68 0 0 0-1.78-1.9 1.85 1.85 0 0 0-1.86 2v5.89h-2.7v-6a1.69 1.69 0 0 0-1.78-1.9 1.84 1.84 0 0 0-1.88 2v5.89zm18.11 0V38.68h2.6v1.23a3.46 3.46 0 0 1 2.94-1.51 3.11 3.11 0 0 1 3 1.68 3.72 3.72 0 0 1 6.83 2.15v6.52H399v-6a1.68 1.68 0 0 0-1.78-1.9 1.85 1.85 0 0 0-1.86 2v5.89h-2.7v-6a1.69 1.69 0 0 0-1.78-1.9 1.84 1.84 0 0 0-1.88 2v5.89zm27.13-2.88a4.53 4.53 0 0 1-4.58 3.14 5.09 5.09 0 0 1-5.19-5.38 5 5 0 0 1 4.95-5.29c3.11 0 5 2 5 5.21v.84h-7.2a2.45 2.45 0 0 0 2.53 2.29 2.22 2.22 0 0 0 2.29-1.53zm-2.53-3.29a2 2 0 0 0-2.25-2 2.18 2.18 0 0 0-2.25 2zm10.95-1.19a4.11 4.11 0 0 0-.82-.08c-1.39 0-2.6.67-2.6 2.84v4.6h-2.72V38.68h2.64v1.49a3 3 0 0 1 2.86-1.57 6.21 6.21 0 0 1 .63 0zm3.78 2.33a2.59 2.59 0 0 0 2.58 2.84 2.3 2.3 0 0 0 2.31-1.7l2.39.8a4.67 4.67 0 0 1-4.7 3.39 5.2 5.2 0 0 1-5.29-5.33 5.15 5.15 0 0 1 5.21-5.33 4.6 4.6 0 0 1 4.72 3.39l-2.43.82a2.19 2.19 0 0 0-2.23-1.7 2.56 2.56 0 0 0-2.56 2.82zm18.2 2.15a4.53 4.53 0 0 1-4.58 3.14 5.09 5.09 0 0 1-5.19-5.38 5 5 0 0 1 4.93-5.25c3.11 0 5 2 5 5.21v.84h-7.2a2.45 2.45 0 0 0 2.53 2.29 2.22 2.22 0 0 0 2.29-1.53zm-2.53-3.29a2 2 0 0 0-2.25-2 2.18 2.18 0 0 0-2.25 2zM276 68.72V58.56l-4.17 10.16h-2.33l-4.17-10.08v10.08h-2.7v-14.5h3.72l4.35 10.47 4.3-10.47h3.84v14.5zm14.87-2.89a4.53 4.53 0 0 1-4.58 3.17 5.34 5.34 0 0 1-.29-10.65c3.11 0 5 2 5 5.21v.84h-7.2a2.45 2.45 0 0 0 2.53 2.29 2.22 2.22 0 0 0 2.29-1.53zm-2.53-3.29a2 2 0 0 0-2.25-2 2.18 2.18 0 0 0-2.25 2zm10.95-1.18a4.11 4.11 0 0 0-.82-.08c-1.39 0-2.6.67-2.6 2.84v4.6h-2.72V58.66h2.64v1.49a3 3 0 0 1 2.86-1.57 6.21 6.21 0 0 1 .63 0zm3.78 2.33a2.59 2.59 0 0 0 2.58 2.84 2.3 2.3 0 0 0 2.31-1.7l2.39.8a4.67 4.67 0 0 1-4.7 3.39 5.2 5.2 0 0 1-5.29-5.33 5.15 5.15 0 0 1 5.21-5.33 4.6 4.6 0 0 1 4.72 3.39l-2.43.82a2.19 2.19 0 0 0-2.23-1.7 2.56 2.56 0 0 0-2.56 2.82zm12 5.03h-2.72v-14.8h2.72v5.58a3.59 3.59 0 0 1 2.72-1.1c2.55 0 3.74 1.78 3.74 4v6.34h-2.72v-5.89a1.77 1.77 0 0 0-1.86-2 1.88 1.88 0 0 0-1.88 2zm11.61-5.79l2.47-.37c.57-.08.76-.37.76-.72 0-.72-.55-1.31-1.7-1.31a1.79 1.79 0 0 0-1.92 1.64l-2.41-.51c.16-1.57 1.61-3.31 4.31-3.31 3.19 0 4.37 1.8 4.37 3.82v4.95a11.3 11.3 0 0 0 .12 1.59h-2.48a6.8 6.8 0 0 1-.1-1.21 3.36 3.36 0 0 1-3 1.49 3.18 3.18 0 0 1-3.45-3c.03-1.81 1.35-2.81 3.03-3.06zm3.23 1.72v-.45l-2.27.35a1.27 1.27 0 0 0-1.25 1.27A1.18 1.18 0 0 0 327.7 67a2 2 0 0 0 2.21-2.35zm8.09 4.07h-2.72V58.66h2.64v1.25a3.34 3.34 0 0 1 2.9-1.51c2.49 0 3.64 1.78 3.64 4v6.34h-2.72v-5.89a1.77 1.77 0 0 0-1.86-2 1.89 1.89 0 0 0-1.88 2.08zm12.6-10.06h2v2.41h-2v4.21c0 .88.41 1.17 1.19 1.17a4 4 0 0 0 .84-.08v2.25a4 4 0 0 1-1.53.25 2.91 2.91 0 0 1-3.19-3.11v-4.69h-1.82v-2.41h.51a1.45 1.45 0 0 0 1.55-1.59v-1.42h2.45zm-79.34 26.72h-5.89l-1.21 3.31h-3l5.56-14.49H270l5.52 14.49h-3.07zm-4.95-2.58h4l-2-5.48zm18.83-4.16l2.17 6.48 1.86-6.48h2.7l-3.15 10.06H286l-2.35-6.87-2.31 6.87h-2.76l-3.21-10.06h2.86l1.86 6.46 2.19-6.46zm10.78 4.27l2.47-.37c.57-.08.76-.37.76-.72 0-.72-.55-1.31-1.7-1.31a1.79 1.79 0 0 0-1.92 1.64l-2.41-.51c.16-1.57 1.61-3.31 4.31-3.31 3.19 0 4.37 1.8 4.37 3.82v4.95a11.3 11.3 0 0 0 .12 1.59h-2.49a6.8 6.8 0 0 1-.1-1.21 3.36 3.36 0 0 1-3 1.49 3.18 3.18 0 0 1-3.45-3c.03-1.81 1.36-2.81 3.04-3.06zm3.23 1.72v-.45l-2.27.35a1.27 1.27 0 0 0-1.25 1.27 1.18 1.18 0 0 0 1.31 1.2 2 2 0 0 0 2.2-2.37zm11.52-3.29a4.11 4.11 0 0 0-.82-.08c-1.39 0-2.6.67-2.6 2.84v4.6h-2.72V78.64h2.64v1.49a3 3 0 0 1 2.83-1.57 6.21 6.21 0 0 1 .63 0zm11.41 5.54c0 .67 0 1.41.08 1.82h-2.6a7 7 0 0 1-.1-1.16 3.15 3.15 0 0 1-2.82 1.41c-2.86 0-4.91-2.25-4.91-5.29s2-5.25 4.82-5.25c1.74 0 2.55.72 2.84 1.25V73.9h2.68zm-5.08-.37c1.39 0 2.47-1.06 2.47-2.88a2.49 2.49 0 0 0-2.47-2.8 2.52 2.52 0 0 0-2.49 2.82c-.03 1.79 1.03 2.86 2.49 2.86zm9.5-1.13a1.67 1.67 0 0 0 1.84 1.53c.9 0 1.33-.47 1.33-1s-.31-.82-1.08-1l-1.33-.31c-1.94-.43-2.82-1.59-2.82-3a3.51 3.51 0 0 1 3.76-3.29c2.86 0 3.82 1.82 3.95 2.9l-2.27.51a1.53 1.53 0 0 0-1.66-1.35 1.16 1.16 0 0 0-1.29 1c0 .49.37.8.92.9l1.43.31c2 .41 3 1.61 3 3.09 0 1.64-1.27 3.31-3.9 3.31-3 0-4.07-2-4.19-3.11zm12.41-4.9a5 5 0 0 1-.1-.92c0-2.33 1.76-4.44 4.84-4.44s4.78 2 4.78 4.27a4.76 4.76 0 0 1-2.58 4.11l-2.56 1.55a2.7 2.7 0 0 0-1.14 1.21h6.36v2.43h-9.81a6.06 6.06 0 0 1 3.13-5.69l2.17-1.28a2.59 2.59 0 0 0 1.57-2.29 1.81 1.81 0 0 0-2-1.82 2 2 0 0 0-2.11 2.21 2.9 2.9 0 0 0 .1.74zm12.24-3.13a5 5 0 0 1 4.37-2.23 5 5 0 0 1 4.35 2.23 10 10 0 0 1 0 9.44 5 5 0 0 1-4.34 2.21 5 5 0 0 1-4.37-2.23 8.46 8.46 0 0 1-1.16-4.7 8.46 8.46 0 0 1 1.15-4.72zm2.37 8.09a2.21 2.21 0 0 0 2 1.08 2.16 2.16 0 0 0 2-1.08 6.21 6.21 0 0 0 .74-3.37 6.21 6.21 0 0 0-.74-3.37 2.16 2.16 0 0 0-2-1.08 2.21 2.21 0 0 0-2 1.08 8.31 8.31 0 0 0 0 6.75zm11.98 3.25v-8.87h-3.19v-1.9a3.39 3.39 0 0 0 3.56-2.49h2.43v13.26zM380.22 78a5.67 5.67 0 0 0-2.19-.47 4.16 4.16 0 0 0-4.39 3.8 3.75 3.75 0 0 1 3.15-1.47 4.25 4.25 0 0 1 4.58 4.46c0 2.72-2.21 4.66-5.13 4.66s-5.38-2.08-5.38-6.09c0-4.76 3-7.79 7.36-7.79a5.77 5.77 0 0 1 2.78.61zm-4 8.61a2.22 2.22 0 1 0 0-4.44 2.19 2.19 0 0 0-2.33 2.21 2.24 2.24 0 0 0 2.32 2.25z"/>
    <path class="cls-5" d="M269.38 105.64V101h-4.92v4.68h-2.2V94.36h2.2v4.54h4.92v-4.54h2.21v11.29zm12.21-3.91a4.11 4.11 0 1 1-4.11-4.15 4 4 0 0 1 4.11 4.15zm-2.12 0a2 2 0 1 0-2 2.23 2 2 0 0 0 2.01-2.23zm5.91 3.91h-2.12v-7.83h2.05v1a2.6 2.6 0 0 1 2.26-1.18c1.94 0 2.83 1.38 2.83 3.1v4.93h-2.1v-4.57a1.38 1.38 0 0 0-1.45-1.56 1.47 1.47 0 0 0-1.46 1.62zm8.54-.08a1.75 1.75 0 0 0 1.83 1.48c1.34 0 2.09-.67 2.09-2.18v-.57a2.49 2.49 0 0 1-2.18 1 3.62 3.62 0 0 1-3.65-3.8 3.67 3.67 0 0 1 3.65-3.82 2.37 2.37 0 0 1 2.23 1.07v-.92h2v7a3.79 3.79 0 0 1-4.11 4.11 3.61 3.61 0 0 1-3.8-2.83zm3.95-4.07a1.87 1.87 0 1 0-1.85 2 1.82 1.82 0 0 0 1.85-2zm11.89-.49l-1.4 1.54v3.14h-2.2V94.36h2.2v5.11l4.52-5.11h2.88l-4.47 4.92 4.5 6.37H313z"/>
    <path class="cls-5" d="M324.09 101.73a4.11 4.11 0 1 1-4.09-4.16 4 4 0 0 1 4.09 4.16zm-2.12 0a2 2 0 1 0-2 2.23 2 2 0 0 0 2.03-2.23zm5.91 3.91h-2.12v-7.83h2.05v1a2.6 2.6 0 0 1 2.26-1.18c1.94 0 2.83 1.38 2.83 3.1v4.93h-2.12v-4.57a1.38 1.38 0 0 0-1.45-1.56 1.47 1.47 0 0 0-1.46 1.62zm8.53-.08a1.75 1.75 0 0 0 1.83 1.48c1.34 0 2.09-.67 2.09-2.18v-.57a2.49 2.49 0 0 1-2.18 1 3.62 3.62 0 0 1-3.65-3.8 3.67 3.67 0 0 1 3.65-3.82 2.37 2.37 0 0 1 2.23 1.07v-.92h2v7a3.79 3.79 0 0 1-4.11 4.11 3.61 3.61 0 0 1-3.8-2.83zm3.95-4.07a1.87 1.87 0 1 0-1.85 2 1.82 1.82 0 0 0 1.85-2z"/>
</svg>
