<svg id="Layer_1" data-name="Layer 1" xmlns="http://www.w3.org/2000/svg" xmlns:xlink="http://www.w3.org/1999/xlink" viewBox="0 0 320 51.36"><defs><style>.cls-1{fill:none;}.cls-2{clip-path:url(#clip-path);}.cls-3{fill:#f1f3f2;}.cls-4{clip-path:url(#clip-path-2);}.cls-5{fill:#fff;}.cls-6{fill:#f63;}.cls-7{fill:#3cc;}</style><clipPath id="clip-path"><rect class="cls-1" y="-114.01" width="1160.24" height="73.52"/></clipPath><clipPath id="clip-path-2"><rect class="cls-1" width="810.9" height="51.36"/></clipPath></defs><title>iema_sg_mobile</title><g class="cls-2"><rect class="cls-1" x="118.52" y="-112.81" width="285.94" height="237.78"/></g><rect class="cls-3" width="320.64" height="51.36"/><g class="cls-4"><circle class="cls-5" cx="29.41" cy="41" r="3.99"/><circle class="cls-6" cx="49.09" cy="51.15" r="3.99"/><circle class="cls-5" cx="67.35" cy="51.15" r="3.99"/><path class="cls-7" d="M-5.34,51.36V24.6H11.42v4.91H-.13v6.11H10.32v4.64H-.13v6.19H11.42v4.91Z"/><polygon class="cls-7" points="9.67 11.24 4.84 7.01 0 11.29 0 0 9.64 0 9.67 11.24"/><path class="cls-5" d="M17.46,18.25a2.08,2.08,0,1,1-2.11-2.08,2.08,2.08,0,0,1,2.11,2.08S17.46,18.24,17.46,18.25ZM-1.22,16.58H11.27V20H-1.22Z"/><rect class="cls-1" x="83.15" y="0.84" width="199.76" height="166.11"/><rect class="cls-6" x="290.07" y="21.8" width="30.53" height="3.94"/><rect class="cls-6" x="295.02" y="29.42" width="25.57" height="3.94"/><rect class="cls-6" x="295.02" y="37.03" width="25.57" height="3.94"/><circle class="cls-5" cx="272.63" cy="22.3" r="2.51"/><circle class="cls-6" cx="277.14" cy="29.24" r="2.51"/><circle class="cls-5" cx="288.66" cy="34.72" r="2.51"/><circle class="cls-5" cx="297.22" cy="19.32" r="2.51"/><path class="cls-7" d="M292.41,34.82h-10.9L279.28,41h-5.52L284,14.13h6L300.32,41h-5.67ZM283.25,30h7.42L287,19.92Z"/></g><path class="cls-6" d="M37.1,23.17H35.45V15.25H40v1.38H37.1v2h2.69V20H37.1Z"/><path class="cls-6" d="M41.34,15.55q0-.81.9-.81t.9.81a.79.79,0,0,1-.22.6.94.94,0,0,1-.67.21Q41.34,16.36,41.34,15.55Zm1.72,7.62H41.41V17.11h1.65Z"/><path class="cls-6" d="M50.38,23.17H48.73V19.63a1.7,1.7,0,0,0-.23-1,.85.85,0,0,0-.74-.33,1.12,1.12,0,0,0-1,.46,2.87,2.87,0,0,0-.31,1.54v2.85H44.79V17.11h1.26l.22.77h.09a1.75,1.75,0,0,1,.76-.66,2.59,2.59,0,0,1,1.1-.22,2.12,2.12,0,0,1,1.6.57,2.29,2.29,0,0,1,.55,1.65Z"/><path class="cls-6" d="M54,23.27a2,2,0,0,1-1.68-.83,3.81,3.81,0,0,1-.61-2.3,3.81,3.81,0,0,1,.62-2.32A2,2,0,0,1,54,17a2,2,0,0,1,1.74.89h.05a6.75,6.75,0,0,1-.12-1.21V14.74h1.66v8.43H56.1l-.32-.79h-.07A1.89,1.89,0,0,1,54,23.27ZM54.58,22a1.12,1.12,0,0,0,.93-.37,2.14,2.14,0,0,0,.32-1.25v-.18a2.48,2.48,0,0,0-.3-1.4,1.12,1.12,0,0,0-1-.42,1,1,0,0,0-.86.47,2.5,2.5,0,0,0-.31,1.36,2.37,2.37,0,0,0,.31,1.34A1,1,0,0,0,54.58,22Z"/><path class="cls-6" d="M67.48,20.13a3.25,3.25,0,0,1-.78,2.31,2.83,2.83,0,0,1-2.17.83A3,3,0,0,1,63,22.89a2.54,2.54,0,0,1-1-1.1,3.68,3.68,0,0,1-.36-1.67,3.24,3.24,0,0,1,.77-2.31A2.84,2.84,0,0,1,64.56,17a3.05,3.05,0,0,1,1.54.38,2.53,2.53,0,0,1,1,1.09A3.65,3.65,0,0,1,67.48,20.13Zm-4.19,0a2.54,2.54,0,0,0,.3,1.36,1.06,1.06,0,0,0,1,.46,1,1,0,0,0,1-.46,2.58,2.58,0,0,0,.29-1.36,2.5,2.5,0,0,0-.29-1.35,1.24,1.24,0,0,0-1.91,0A2.5,2.5,0,0,0,63.29,20.13Z"/><path class="cls-6" d="M73.13,23.17l-.22-.77h-.09a1.74,1.74,0,0,1-.75.65,2.57,2.57,0,0,1-1.11.23,2.11,2.11,0,0,1-1.61-.57,2.3,2.3,0,0,1-.54-1.64V17.11h1.65v3.54a1.7,1.7,0,0,0,.23,1,.85.85,0,0,0,.74.33,1.12,1.12,0,0,0,1-.46A2.87,2.87,0,0,0,72.75,20V17.11H74.4v6.05Z"/><path class="cls-6" d="M78.69,22a3.58,3.58,0,0,0,1-.19V23a3.71,3.71,0,0,1-1.52.28,1.86,1.86,0,0,1-1.44-.5,2.18,2.18,0,0,1-.45-1.5V18.35h-.79v-.7l.91-.55.48-1.28H78v1.29h1.7v1.24H78v2.92a.64.64,0,0,0,.2.52A.78.78,0,0,0,78.69,22Z"/><path class="cls-6" d="M89.25,23.17H87.6V19.63a1.78,1.78,0,0,0-.22-1,.77.77,0,0,0-.69-.33,1,1,0,0,0-.92.47,3.05,3.05,0,0,0-.29,1.53v2.85H83.83V17.11h1.26l.22.77h.09a1.68,1.68,0,0,1,.7-.65A2.29,2.29,0,0,1,87.17,17a1.9,1.9,0,0,1,1.84.89h.15a1.64,1.64,0,0,1,.72-.66A2.39,2.39,0,0,1,90.94,17a2.11,2.11,0,0,1,1.56.53A2.32,2.32,0,0,1,93,19.22v3.95H91.37V19.63a1.78,1.78,0,0,0-.22-1,.77.77,0,0,0-.69-.33,1,1,0,0,0-.91.43,2.46,2.46,0,0,0-.3,1.38Z"/><path class="cls-6" d="M100.22,20.13a3.25,3.25,0,0,1-.78,2.31,2.83,2.83,0,0,1-2.17.83,3,3,0,0,1-1.54-.38,2.54,2.54,0,0,1-1-1.1,3.68,3.68,0,0,1-.36-1.67,3.24,3.24,0,0,1,.77-2.31A2.84,2.84,0,0,1,97.3,17a3.05,3.05,0,0,1,1.54.38,2.53,2.53,0,0,1,1,1.09A3.65,3.65,0,0,1,100.22,20.13Zm-4.19,0a2.54,2.54,0,0,0,.3,1.36,1.06,1.06,0,0,0,1,.46,1,1,0,0,0,1-.46,2.58,2.58,0,0,0,.29-1.36,2.5,2.5,0,0,0-.29-1.35,1.24,1.24,0,0,0-1.91,0A2.5,2.5,0,0,0,96,20.13Z"/><path class="cls-6" d="M105,17a2.66,2.66,0,0,1,.56,0l-.12,1.55a1.89,1.89,0,0,0-.49-.05,1.75,1.75,0,0,0-1.23.41,1.47,1.47,0,0,0-.44,1.14v3.08h-1.65V17.11h1.25l.24,1h.08a2.28,2.28,0,0,1,.76-.82A1.88,1.88,0,0,1,105,17Z"/><path class="cls-6" d="M109.26,23.27a3.12,3.12,0,0,1-2.29-.81,3.06,3.06,0,0,1-.82-2.29,3.36,3.36,0,0,1,.76-2.35A2.71,2.71,0,0,1,109,17a2.67,2.67,0,0,1,2,.73,2.77,2.77,0,0,1,.71,2v.8h-3.9a1.59,1.59,0,0,0,.42,1.1,1.47,1.47,0,0,0,1.09.4,4.54,4.54,0,0,0,1-.11,5.18,5.18,0,0,0,1-.36v1.28a3.88,3.88,0,0,1-.93.32A5.84,5.84,0,0,1,109.26,23.27Zm-.23-5.1a1,1,0,0,0-.82.33,1.54,1.54,0,0,0-.34.94h2.32a1.38,1.38,0,0,0-.32-.94A1.08,1.08,0,0,0,109,18.17Z"/><path class="cls-6" d="M119.79,23.17l-.32-.82h0a2.44,2.44,0,0,1-.86.73,2.77,2.77,0,0,1-1.15.2,1.86,1.86,0,0,1-1.37-.5,1.91,1.91,0,0,1-.5-1.42,1.6,1.6,0,0,1,.67-1.42,3.91,3.91,0,0,1,2-.51l1.05,0v-.27a.82.82,0,0,0-.94-.92,4.29,4.29,0,0,0-1.71.44l-.55-1.12a4.92,4.92,0,0,1,2.32-.55,2.89,2.89,0,0,1,1.87.53,2,2,0,0,1,.65,1.61v4Zm-.49-2.81-.64,0a2,2,0,0,0-1.07.26.82.82,0,0,0-.35.73q0,.7.8.7a1.27,1.27,0,0,0,.92-.33,1.16,1.16,0,0,0,.34-.88Z"/><path class="cls-6" d="M126,17a2,2,0,0,1,1.68.84,3.84,3.84,0,0,1,.61,2.29,3.77,3.77,0,0,1-.63,2.32,2.18,2.18,0,0,1-3.38,0h-.11l-.28.67h-1.26V14.74h1.65v2q0,.37-.06,1.2h.06A1.91,1.91,0,0,1,126,17Zm-.53,1.32a1,1,0,0,0-.89.38,2.16,2.16,0,0,0-.29,1.24v.18a2.55,2.55,0,0,0,.29,1.4,1,1,0,0,0,.92.42.92.92,0,0,0,.81-.47,2.54,2.54,0,0,0,.3-1.36,2.4,2.4,0,0,0-.3-1.34A1,1,0,0,0,125.49,18.32Z"/><path class="cls-6" d="M135.17,20.13a3.25,3.25,0,0,1-.78,2.31,2.83,2.83,0,0,1-2.17.83,3,3,0,0,1-1.54-.38,2.54,2.54,0,0,1-1-1.1,3.68,3.68,0,0,1-.36-1.67,3.24,3.24,0,0,1,.77-2.31,2.84,2.84,0,0,1,2.18-.82,3.05,3.05,0,0,1,1.54.38,2.53,2.53,0,0,1,1,1.09A3.65,3.65,0,0,1,135.17,20.13Zm-4.19,0a2.54,2.54,0,0,0,.3,1.36,1.06,1.06,0,0,0,1,.46,1,1,0,0,0,1-.46,2.58,2.58,0,0,0,.29-1.36,2.5,2.5,0,0,0-.29-1.35,1.24,1.24,0,0,0-1.91,0A2.5,2.5,0,0,0,131,20.13Z"/><path class="cls-6" d="M140.82,23.17l-.22-.77h-.09a1.74,1.74,0,0,1-.75.65,2.57,2.57,0,0,1-1.11.23A2.11,2.11,0,0,1,137,22.7a2.3,2.3,0,0,1-.54-1.64V17.11h1.65v3.54a1.7,1.7,0,0,0,.23,1,.85.85,0,0,0,.74.33,1.12,1.12,0,0,0,1-.46,2.87,2.87,0,0,0,.31-1.54V17.11h1.65v6.05Z"/><path class="cls-6" d="M146.37,22a3.58,3.58,0,0,0,1-.19V23a3.71,3.71,0,0,1-1.52.28,1.86,1.86,0,0,1-1.44-.5,2.18,2.18,0,0,1-.45-1.5V18.35h-.79v-.7l.91-.55.48-1.28h1.06v1.29h1.7v1.24h-1.7v2.92a.64.64,0,0,0,.2.52A.78.78,0,0,0,146.37,22Z"/><path class="cls-6" d="M154.07,22a3.58,3.58,0,0,0,1-.19V23a3.71,3.71,0,0,1-1.52.28,1.86,1.86,0,0,1-1.44-.5,2.18,2.18,0,0,1-.45-1.5V18.35h-.79v-.7l.91-.55.48-1.28h1.06v1.29H155v1.24h-1.7v2.92a.64.64,0,0,0,.2.52A.78.78,0,0,0,154.07,22Z"/><path class="cls-6" d="M161.92,23.17h-1.65V19.63q0-1.31-1-1.31a1.11,1.11,0,0,0-1,.47,2.88,2.88,0,0,0-.31,1.53v2.85h-1.65V14.74H158v1.72q0,.2,0,.94l0,.49H158a1.91,1.91,0,0,1,1.75-.89,2.15,2.15,0,0,1,1.62.57,2.28,2.28,0,0,1,.55,1.65Z"/><path class="cls-6" d="M166.36,23.27a3.12,3.12,0,0,1-2.29-.81,3.06,3.06,0,0,1-.82-2.29,3.36,3.36,0,0,1,.76-2.35,2.71,2.71,0,0,1,2.1-.83,2.67,2.67,0,0,1,2,.73,2.77,2.77,0,0,1,.71,2v.8h-3.9a1.59,1.59,0,0,0,.42,1.1,1.47,1.47,0,0,0,1.09.4,4.54,4.54,0,0,0,1-.11,5.18,5.18,0,0,0,1-.36v1.28a3.88,3.88,0,0,1-.93.32A5.84,5.84,0,0,1,166.36,23.27Zm-.23-5.1a1,1,0,0,0-.82.33,1.54,1.54,0,0,0-.34.94h2.32a1.38,1.38,0,0,0-.32-.94A1.08,1.08,0,0,0,166.13,18.17Z"/><path class="cls-6" d="M173,15.55q0-.81.9-.81t.9.81a.79.79,0,0,1-.22.6.94.94,0,0,1-.67.21Q173,16.36,173,15.55Zm1.72,7.62h-1.65V17.11h1.65Z"/><path class="cls-6" d="M182,17.72a2.42,2.42,0,0,1-.8,2,3.42,3.42,0,0,1-2.27.68h-.72v2.82h-1.68V15.25h2.53a3.36,3.36,0,0,1,2.19.62A2.26,2.26,0,0,1,182,17.72ZM178.25,19h.55a1.84,1.84,0,0,0,1.16-.31,1.07,1.07,0,0,0,.38-.89,1.1,1.1,0,0,0-.32-.87,1.51,1.51,0,0,0-1-.28h-.76Z"/><path class="cls-6" d="M186.78,17a2.66,2.66,0,0,1,.56,0l-.12,1.55a1.89,1.89,0,0,0-.49-.05,1.75,1.75,0,0,0-1.23.41,1.47,1.47,0,0,0-.44,1.14v3.08H183.4V17.11h1.25l.24,1H185a2.28,2.28,0,0,1,.76-.82A1.88,1.88,0,0,1,186.78,17Z"/><path class="cls-6" d="M188.37,15.55q0-.81.9-.81t.9.81a.79.79,0,0,1-.22.6.94.94,0,0,1-.67.21Q188.37,16.36,188.37,15.55Zm1.72,7.62h-1.65V17.11h1.65Z"/><path class="cls-6" d="M194.28,23.27q-2.83,0-2.83-3.1a3.31,3.31,0,0,1,.77-2.36,2.88,2.88,0,0,1,2.2-.82,4.2,4.2,0,0,1,1.88.41l-.49,1.28q-.39-.16-.73-.26a2.34,2.34,0,0,0-.67-.1q-1.29,0-1.29,1.83t1.29,1.78a2.94,2.94,0,0,0,.88-.13,3.19,3.19,0,0,0,.81-.4v1.41a2.66,2.66,0,0,1-.81.35A4.55,4.55,0,0,1,194.28,23.27Z"/><path class="cls-6" d="M200.27,23.27a3.12,3.12,0,0,1-2.29-.81,3.06,3.06,0,0,1-.82-2.29,3.36,3.36,0,0,1,.76-2.35A2.71,2.71,0,0,1,200,17a2.67,2.67,0,0,1,2,.73,2.77,2.77,0,0,1,.71,2v.8h-3.9a1.59,1.59,0,0,0,.42,1.1,1.47,1.47,0,0,0,1.09.4,4.54,4.54,0,0,0,1-.11,5.18,5.18,0,0,0,1-.36v1.28a3.88,3.88,0,0,1-.93.32A5.84,5.84,0,0,1,200.27,23.27Zm-.23-5.1a1,1,0,0,0-.82.33,1.54,1.54,0,0,0-.34.94h2.32a1.38,1.38,0,0,0-.32-.94A1.08,1.08,0,0,0,200,18.17Z"/><path class="cls-6" d="M40,36.47H35.45V28.56H40v1.38H37.13v1.74h2.68V33H37.13v2H40Z"/><path class="cls-6" d="M41,34.18V32.82H43.9v1.35Z"/><path class="cls-6" d="M48.59,29.84a1.71,1.71,0,0,0-1.47.71,3.31,3.31,0,0,0-.52,2q0,2.65,2,2.65a6.28,6.28,0,0,0,2-.42v1.41a5.61,5.61,0,0,1-2.18.41,3.32,3.32,0,0,1-2.64-1,4.44,4.44,0,0,1-.92-3,4.91,4.91,0,0,1,.45-2.16,3.25,3.25,0,0,1,1.29-1.42,3.82,3.82,0,0,1,2-.5,5.33,5.33,0,0,1,2.32.56l-.54,1.36a9,9,0,0,0-.89-.37A2.67,2.67,0,0,0,48.59,29.84Z"/><path class="cls-6" d="M57.67,33.44a3.25,3.25,0,0,1-.78,2.31,2.83,2.83,0,0,1-2.17.83,3,3,0,0,1-1.54-.38,2.54,2.54,0,0,1-1-1.1,3.68,3.68,0,0,1-.36-1.67,3.24,3.24,0,0,1,.77-2.31,2.84,2.84,0,0,1,2.18-.82,3.05,3.05,0,0,1,1.54.38,2.53,2.53,0,0,1,1,1.09A3.65,3.65,0,0,1,57.67,33.44Zm-4.19,0a2.54,2.54,0,0,0,.3,1.36,1.06,1.06,0,0,0,1,.46,1,1,0,0,0,1-.46A2.58,2.58,0,0,0,56,33.44a2.5,2.5,0,0,0-.29-1.35,1.24,1.24,0,0,0-1.91,0A2.5,2.5,0,0,0,53.48,33.44Z"/><path class="cls-6" d="M64.45,36.47H62.8V32.94a1.78,1.78,0,0,0-.22-1,.77.77,0,0,0-.69-.33,1,1,0,0,0-.92.47,3.05,3.05,0,0,0-.29,1.53v2.85H59V30.42h1.26l.22.77h.09a1.68,1.68,0,0,1,.7-.65,2.29,2.29,0,0,1,1.06-.24,1.9,1.9,0,0,1,1.84.89h.15a1.64,1.64,0,0,1,.72-.66,2.39,2.39,0,0,1,1.07-.23,2.11,2.11,0,0,1,1.56.53,2.32,2.32,0,0,1,.53,1.69v3.95H66.57V32.94a1.78,1.78,0,0,0-.22-1,.77.77,0,0,0-.69-.33,1,1,0,0,0-.91.43,2.46,2.46,0,0,0-.3,1.38Z"/><path class="cls-6" d="M75.34,36.47H73.69V32.94a1.78,1.78,0,0,0-.22-1,.77.77,0,0,0-.69-.33,1,1,0,0,0-.92.47,3.05,3.05,0,0,0-.29,1.53v2.85H69.92V30.42h1.26l.22.77h.09a1.68,1.68,0,0,1,.7-.65,2.29,2.29,0,0,1,1.06-.24,1.9,1.9,0,0,1,1.84.89h.15a1.64,1.64,0,0,1,.72-.66A2.39,2.39,0,0,1,77,30.31a2.11,2.11,0,0,1,1.56.53,2.32,2.32,0,0,1,.53,1.69v3.95H77.46V32.94a1.78,1.78,0,0,0-.22-1,.77.77,0,0,0-.69-.33,1,1,0,0,0-.91.43,2.46,2.46,0,0,0-.3,1.38Z"/><path class="cls-6" d="M83.55,36.58a3.12,3.12,0,0,1-2.29-.81,3.06,3.06,0,0,1-.82-2.29,3.36,3.36,0,0,1,.76-2.35,2.71,2.71,0,0,1,2.1-.83,2.67,2.67,0,0,1,2,.73,2.77,2.77,0,0,1,.71,2v.8h-3.9a1.59,1.59,0,0,0,.42,1.1,1.47,1.47,0,0,0,1.09.4,4.54,4.54,0,0,0,1-.11,5.18,5.18,0,0,0,1-.36v1.28a3.88,3.88,0,0,1-.93.32A5.84,5.84,0,0,1,83.55,36.58Zm-.23-5.1a1,1,0,0,0-.82.33,1.54,1.54,0,0,0-.34.94h2.32a1.38,1.38,0,0,0-.32-.94A1.08,1.08,0,0,0,83.32,31.48Z"/><path class="cls-6" d="M90.75,30.31a2.66,2.66,0,0,1,.56,0l-.12,1.55a1.89,1.89,0,0,0-.49-.05,1.75,1.75,0,0,0-1.23.41A1.47,1.47,0,0,0,89,33.39v3.08H87.37V30.42h1.25l.24,1h.08a2.28,2.28,0,0,1,.76-.82A1.88,1.88,0,0,1,90.75,30.31Z"/><path class="cls-6" d="M94.75,36.58q-2.83,0-2.83-3.1a3.31,3.31,0,0,1,.77-2.36,2.88,2.88,0,0,1,2.2-.82,4.2,4.2,0,0,1,1.88.41L96.3,32q-.39-.16-.73-.26a2.34,2.34,0,0,0-.67-.1q-1.29,0-1.29,1.83t1.29,1.78a2.94,2.94,0,0,0,.88-.13,3.19,3.19,0,0,0,.81-.4v1.41a2.66,2.66,0,0,1-.81.35A4.55,4.55,0,0,1,94.75,36.58Z"/><path class="cls-6" d="M100.74,36.58a3.12,3.12,0,0,1-2.29-.81,3.06,3.06,0,0,1-.82-2.29,3.36,3.36,0,0,1,.76-2.35,2.71,2.71,0,0,1,2.1-.83,2.67,2.67,0,0,1,2,.73,2.77,2.77,0,0,1,.71,2v.8H99.3a1.59,1.59,0,0,0,.42,1.1,1.47,1.47,0,0,0,1.09.4,4.54,4.54,0,0,0,1-.11,5.18,5.18,0,0,0,1-.36v1.28a3.88,3.88,0,0,1-.93.32A5.84,5.84,0,0,1,100.74,36.58Zm-.23-5.1a1,1,0,0,0-.82.33,1.54,1.54,0,0,0-.34.94h2.32a1.38,1.38,0,0,0-.32-.94A1.08,1.08,0,0,0,100.5,31.48Z"/><path class="cls-6" d="M110.91,36.47,109,30.26h0q.1,1.9.1,2.53v3.68h-1.5V28.56h2.29l1.87,6.05h0l2-6.05H116v7.92h-1.57V32.73q0-.27,0-.61t.07-1.84h0l-2,6.2Z"/><path class="cls-6" d="M120.63,36.58a3.12,3.12,0,0,1-2.29-.81,3.06,3.06,0,0,1-.82-2.29,3.36,3.36,0,0,1,.76-2.35,2.71,2.71,0,0,1,2.1-.83,2.67,2.67,0,0,1,2,.73,2.77,2.77,0,0,1,.71,2v.8h-3.9a1.59,1.59,0,0,0,.42,1.1,1.47,1.47,0,0,0,1.09.4,4.54,4.54,0,0,0,1-.11,5.18,5.18,0,0,0,1-.36v1.28a3.88,3.88,0,0,1-.93.32A5.84,5.84,0,0,1,120.63,36.58Zm-.23-5.1a1,1,0,0,0-.82.33,1.54,1.54,0,0,0-.34.94h2.32a1.38,1.38,0,0,0-.32-.94A1.08,1.08,0,0,0,120.4,31.48Z"/><path class="cls-6" d="M127.82,30.31a2.66,2.66,0,0,1,.56,0l-.12,1.55a1.89,1.89,0,0,0-.49-.05,1.75,1.75,0,0,0-1.23.41,1.47,1.47,0,0,0-.44,1.14v3.08h-1.65V30.42h1.25l.24,1H126a2.28,2.28,0,0,1,.76-.82A1.88,1.88,0,0,1,127.82,30.31Z"/><path class="cls-6" d="M131.83,36.58q-2.83,0-2.83-3.1a3.31,3.31,0,0,1,.77-2.36,2.88,2.88,0,0,1,2.2-.82,4.2,4.2,0,0,1,1.88.41L133.37,32q-.39-.16-.73-.26a2.34,2.34,0,0,0-.67-.1q-1.29,0-1.29,1.83T132,35.24a2.94,2.94,0,0,0,.88-.13,3.19,3.19,0,0,0,.81-.4v1.41a2.66,2.66,0,0,1-.81.35A4.55,4.55,0,0,1,131.83,36.58Z"/><path class="cls-6" d="M140.66,36.47H139V32.94q0-1.31-1-1.31a1.11,1.11,0,0,0-1,.47,2.88,2.88,0,0,0-.31,1.53v2.85h-1.65V28h1.65v1.72q0,.2,0,.94l0,.49h.09a1.91,1.91,0,0,1,1.75-.89,2.15,2.15,0,0,1,1.62.57,2.28,2.28,0,0,1,.55,1.65Z"/><path class="cls-6" d="M146.21,36.47l-.32-.82h0a2.44,2.44,0,0,1-.86.73,2.77,2.77,0,0,1-1.15.2,1.86,1.86,0,0,1-1.37-.5,1.91,1.91,0,0,1-.5-1.42,1.6,1.6,0,0,1,.67-1.42,3.91,3.91,0,0,1,2-.51l1.05,0v-.27a.82.82,0,0,0-.94-.92,4.29,4.29,0,0,0-1.71.44l-.55-1.12a4.92,4.92,0,0,1,2.32-.55,2.89,2.89,0,0,1,1.87.53,2,2,0,0,1,.65,1.61v4Zm-.49-2.81-.64,0A2,2,0,0,0,144,34a.82.82,0,0,0-.35.73q0,.7.8.7a1.27,1.27,0,0,0,.92-.33,1.16,1.16,0,0,0,.34-.88Z"/><path class="cls-6" d="M154.65,36.47H153V32.94a1.7,1.7,0,0,0-.23-1,.85.85,0,0,0-.74-.33,1.12,1.12,0,0,0-1,.46,2.87,2.87,0,0,0-.31,1.54v2.85h-1.65V30.42h1.26l.22.77h.09a1.75,1.75,0,0,1,.76-.66,2.59,2.59,0,0,1,1.1-.22,2.12,2.12,0,0,1,1.6.57,2.29,2.29,0,0,1,.55,1.65Z"/><path class="cls-6" d="M158.9,35.27a3.58,3.58,0,0,0,1-.19v1.23a3.71,3.71,0,0,1-1.52.28,1.86,1.86,0,0,1-1.44-.5,2.18,2.18,0,0,1-.45-1.5V31.66h-.79V31l.91-.55.48-1.28h1.06v1.29h1.7v1.24h-1.7v2.92a.64.64,0,0,0,.2.52A.78.78,0,0,0,158.9,35.27Z"/><path class="cls-6" d="M169,36.47l-.57-1.88h-2.89L165,36.47h-1.81L166,28.52H168l2.81,7.95Zm-1-3.29-.9-2.9q-.1-.34-.14-.53-.18.69-1,3.43Z"/><path class="cls-6" d="M176.67,36.47l-.47-2.12-.62-2.68h0l-1.1,4.79h-1.78l-1.72-6.05h1.65l.7,2.68q.12.48.33,2h0a11.13,11.13,0,0,1,.19-1.31l.09-.46.75-2.9h1.82l.71,2.9q.06.3.16.87a7.51,7.51,0,0,1,.11.89h0q.06-.48.17-1.1t.18-.89l.73-2.68h1.62l-1.74,6.05Z"/><path class="cls-6" d="M185,36.47l-.32-.82h0a2.44,2.44,0,0,1-.86.73,2.77,2.77,0,0,1-1.15.2,1.86,1.86,0,0,1-1.37-.5,1.91,1.91,0,0,1-.5-1.42,1.6,1.6,0,0,1,.67-1.42,3.91,3.91,0,0,1,2-.51l1.05,0v-.27a.82.82,0,0,0-.94-.92,4.29,4.29,0,0,0-1.71.44l-.55-1.12a4.92,4.92,0,0,1,2.32-.55,2.89,2.89,0,0,1,1.87.53,2,2,0,0,1,.65,1.61v4Zm-.49-2.81-.64,0a2,2,0,0,0-1.07.26.82.82,0,0,0-.35.73q0,.7.8.7a1.27,1.27,0,0,0,.92-.33,1.16,1.16,0,0,0,.34-.88Z"/><path class="cls-6" d="M191.27,30.31a2.66,2.66,0,0,1,.56,0l-.12,1.55a1.89,1.89,0,0,0-.49-.05,1.75,1.75,0,0,0-1.23.41,1.47,1.47,0,0,0-.44,1.14v3.08h-1.65V30.42h1.25l.24,1h.08a2.28,2.28,0,0,1,.76-.82A1.88,1.88,0,0,1,191.27,30.31Z"/><path class="cls-6" d="M194.73,36.58a2,2,0,0,1-1.68-.83,3.81,3.81,0,0,1-.61-2.3,3.81,3.81,0,0,1,.62-2.32,2,2,0,0,1,1.71-.83,2,2,0,0,1,1.74.89h.05a6.75,6.75,0,0,1-.12-1.21V28h1.66v8.43h-1.27l-.32-.79h-.07A1.89,1.89,0,0,1,194.73,36.58Zm.58-1.32a1.12,1.12,0,0,0,.93-.37,2.14,2.14,0,0,0,.32-1.25v-.18a2.48,2.48,0,0,0-.3-1.4,1.12,1.12,0,0,0-1-.42,1,1,0,0,0-.86.47,2.5,2.5,0,0,0-.31,1.36,2.37,2.37,0,0,0,.31,1.34A1,1,0,0,0,195.31,35.27Z"/><path class="cls-6" d="M204.06,34.68a1.67,1.67,0,0,1-.65,1.42,3.2,3.2,0,0,1-1.94.49,6.08,6.08,0,0,1-1.13-.09,4.26,4.26,0,0,1-.87-.26V34.87a5.76,5.76,0,0,0,1,.36,4.2,4.2,0,0,0,1,.15q.9,0,.9-.52a.43.43,0,0,0-.12-.32,1.73,1.73,0,0,0-.41-.28q-.29-.15-.78-.36a4.9,4.9,0,0,1-1-.54,1.52,1.52,0,0,1-.48-.57,1.89,1.89,0,0,1-.15-.79,1.44,1.44,0,0,1,.63-1.25,3,3,0,0,1,1.77-.44,5,5,0,0,1,2.13.48L203.5,32q-.45-.19-.85-.32a2.67,2.67,0,0,0-.81-.12q-.73,0-.73.4a.46.46,0,0,0,.24.38,6.41,6.41,0,0,0,1,.48,4.79,4.79,0,0,1,1,.54,1.59,1.59,0,0,1,.49.57A1.76,1.76,0,0,1,204.06,34.68Z"/><path class="cls-6" d="M213.34,36.47h-5.53V35.31l2-2q.88-.9,1.15-1.25a2.76,2.76,0,0,0,.39-.65,1.65,1.65,0,0,0,.12-.62.9.9,0,0,0-.26-.71,1,1,0,0,0-.7-.23,2,2,0,0,0-.89.21,4.61,4.61,0,0,0-.9.6l-.91-1.08a5.94,5.94,0,0,1,1-.7,3.56,3.56,0,0,1,.84-.32,4.3,4.3,0,0,1,1-.11,3,3,0,0,1,1.31.27,2.09,2.09,0,0,1,.88.76,2,2,0,0,1,.31,1.12,2.73,2.73,0,0,1-.19,1,3.94,3.94,0,0,1-.6,1A14.56,14.56,0,0,1,210.91,34l-1,1v.08h3.45Z"/><path class="cls-6" d="M219.64,32.52a5.52,5.52,0,0,1-.68,3.07,2.36,2.36,0,0,1-2.09,1,2.33,2.33,0,0,1-2.07-1,5.44,5.44,0,0,1-.7-3,5.57,5.57,0,0,1,.68-3.09,2.63,2.63,0,0,1,4.16,0A5.45,5.45,0,0,1,219.64,32.52Zm-3.87,0A6.16,6.16,0,0,0,216,34.6a.87.87,0,0,0,.85.63.88.88,0,0,0,.84-.64,6,6,0,0,0,.26-2.08,6,6,0,0,0-.26-2.09.88.88,0,0,0-1.69,0A6.15,6.15,0,0,0,215.77,32.52Z"/><path class="cls-6" d="M224.63,36.47H223V31.89l0-.75,0-.82q-.42.42-.58.55l-.91.73-.81-1,2.55-2h1.38Z"/><path class="cls-6" d="M226.78,33.11a5.24,5.24,0,0,1,1-3.5,3.72,3.72,0,0,1,3-1.15,5.4,5.4,0,0,1,1.06.08v1.34a4.34,4.34,0,0,0-1-.11,3.27,3.27,0,0,0-1.41.26,1.75,1.75,0,0,0-.82.77,3.53,3.53,0,0,0-.32,1.45h.07a1.84,1.84,0,0,1,1.72-.92,2.13,2.13,0,0,1,1.66.67,2.65,2.65,0,0,1,.6,1.84,2.76,2.76,0,0,1-.71,2,2.63,2.63,0,0,1-2,.74,2.84,2.84,0,0,1-1.53-.41,2.64,2.64,0,0,1-1-1.19A4.52,4.52,0,0,1,226.78,33.11Zm2.86,2.13a1,1,0,0,0,.82-.36,1.61,1.61,0,0,0,.29-1,1.42,1.42,0,0,0-.27-.91,1,1,0,0,0-.81-.33,1.24,1.24,0,0,0-.87.33,1,1,0,0,0-.36.77,1.74,1.74,0,0,0,.34,1.09A1,1,0,0,0,229.64,35.24Z"/><path class="cls-6" d="M242.06,36.47h-1.65V32.94q0-1.31-1-1.31a1.11,1.11,0,0,0-1,.47,2.88,2.88,0,0,0-.31,1.53v2.85h-1.65V28h1.65v1.72q0,.2,0,.94l0,.49h.09a1.91,1.91,0,0,1,1.75-.89,2.15,2.15,0,0,1,1.62.57,2.28,2.28,0,0,1,.55,1.65Z"/><path class="cls-6" d="M246.5,36.58a3.12,3.12,0,0,1-2.29-.81,3.06,3.06,0,0,1-.82-2.29,3.36,3.36,0,0,1,.76-2.35,2.71,2.71,0,0,1,2.1-.83,2.67,2.67,0,0,1,2,.73,2.77,2.77,0,0,1,.71,2v.8h-3.9a1.59,1.59,0,0,0,.42,1.1,1.47,1.47,0,0,0,1.09.4,4.54,4.54,0,0,0,1-.11,5.18,5.18,0,0,0,1-.36v1.28a3.88,3.88,0,0,1-.93.32A5.84,5.84,0,0,1,246.5,36.58Zm-.23-5.1a1,1,0,0,0-.82.33,1.54,1.54,0,0,0-.34.94h2.32a1.38,1.38,0,0,0-.32-.94A1.08,1.08,0,0,0,246.27,31.48Z"/><path class="cls-6" d="M253.7,30.31a2.66,2.66,0,0,1,.56,0l-.12,1.55a1.89,1.89,0,0,0-.49-.05,1.75,1.75,0,0,0-1.23.41,1.47,1.47,0,0,0-.44,1.14v3.08h-1.65V30.42h1.25l.24,1h.08a2.28,2.28,0,0,1,.76-.82A1.88,1.88,0,0,1,253.7,30.31Z"/><path class="cls-6" d="M258,36.58a3.12,3.12,0,0,1-2.29-.81,3.06,3.06,0,0,1-.82-2.29,3.36,3.36,0,0,1,.76-2.35,2.71,2.71,0,0,1,2.1-.83,2.67,2.67,0,0,1,2,.73,2.77,2.77,0,0,1,.71,2v.8h-3.9A1.59,1.59,0,0,0,257,35a1.47,1.47,0,0,0,1.09.4,4.54,4.54,0,0,0,1-.11,5.18,5.18,0,0,0,1-.36v1.28a3.88,3.88,0,0,1-.93.32A5.84,5.84,0,0,1,258,36.58Zm-.23-5.1a1,1,0,0,0-.82.33,1.54,1.54,0,0,0-.34.94h2.32a1.38,1.38,0,0,0-.32-.94A1.08,1.08,0,0,0,257.75,31.48Z"/><path class="cls-6" d="M261.56,35.7a.91.91,0,0,1,.24-.69,1,1,0,0,1,.71-.23,1,1,0,0,1,.7.24,1.05,1.05,0,0,1,0,1.36.94.94,0,0,1-.69.25,1,1,0,0,1-.7-.24A.9.9,0,0,1,261.56,35.7Zm1.62-1.85h-1.32l-.28-5.29h1.87Z"/></svg>