<svg id="Layer_1" data-name="Layer 1" xmlns="http://www.w3.org/2000/svg" xmlns:xlink="http://www.w3.org/1999/xlink" viewBox="0 0 1160 73.7"><defs><style>.cls-1{fill:none;}.cls-2{clip-path:url(#clip-path);}.cls-3{fill:#f1f3f2;}.cls-4{clip-path:url(#clip-path-2);}.cls-5{fill:#fff;}.cls-6{fill:#f63;}.cls-7{fill:#3cc;}</style><clipPath id="clip-path"><rect class="cls-1" x="-233.04" y="-265.56" width="1044.6" height="135.28"/></clipPath><clipPath id="clip-path-2"><rect class="cls-1" y="-0.04" width="1160.24" height="73.52"/></clipPath></defs><title>iema_sg_desktop</title><g class="cls-2"><rect class="cls-1" x="158.77" y="-490.98" width="696.35" height="583.93"/></g><rect class="cls-3" y="0.08" width="1161.06" height="73.5" transform="translate(-0.06 0.91) rotate(-0.09)"/><g class="cls-4"><circle class="cls-5" cx="60.8" cy="57.78" r="5.7"/><circle class="cls-6" cx="71.06" cy="73.54" r="5.7"/><circle class="cls-5" cx="97.19" cy="73.54" r="5.7"/><circle class="cls-5" cx="116.62" cy="51.02" r="5.7"/><path class="cls-7" d="M-16.14,112.83V54H20.68V64.81H-4.7V78.24h23v10.2h-23V102H20.68v10.78Z"/><polygon class="cls-7" points="21.06 24.66 10.43 15.35 -0.2 24.77 -0.2 -0.04 20.98 -0.04 21.06 24.66"/><path class="cls-5" d="M34.45,40.07a4.57,4.57,0,1,1,0-.06ZM-6.61,36.38H20.84V43.8H-6.61Z"/><rect class="cls-1" x="118.52" y="1.16" width="285.94" height="237.78"/><rect class="cls-6" x="1112.56" y="17.34" width="65.73" height="8.48"/><rect class="cls-6" x="1123.23" y="33.73" width="55.06" height="8.48"/><rect class="cls-6" x="1123.24" y="50.11" width="55.06" height="8.48"/><circle class="cls-5" cx="1075" cy="18.42" r="5.41"/><circle class="cls-6" cx="1084.73" cy="33.37" r="5.41"/><circle class="cls-5" cx="1109.53" cy="45.16" r="5.41"/><circle class="cls-5" cx="1127.97" cy="12" r="5.41"/><path class="cls-7" d="M1117.6,45.38h-23.46l-4.81,13.2h-11.89L1099.59.82h13l22,57.76H1122.4Zm-19.72-10.27h16l-8-21.83Z"/></g><path class="cls-7" d="M115.77,8.64a1.27,1.27,0,1,1-1.27,1.28,1.27,1.27,0,0,1,1.27-1.28Zm-1,11.39V12.41h2.06V20Z"/><path class="cls-7" d="M121.3,15.89V20h-2.13V9h4.1a3.36,3.36,0,0,1,3.59,3.11q0,.15,0,.31a3.35,3.35,0,0,1-3.27,3.43h-.33ZM123,14a1.58,1.58,0,1,0,0-3.14h-1.69V14Z"/><path class="cls-7" d="M132.84,14.45a3.11,3.11,0,0,0-.62-.06c-1.05,0-2,.51-2,2.15V20h-2V12.41h2v1.13a2.26,2.26,0,0,1,2.17-1.19h.48Z"/><path class="cls-7" d="M135.31,8.64a1.27,1.27,0,1,1-.05,0Zm-1,11.39V12.41h2.06V20Z"/><path class="cls-7" d="M140,16.22a2,2,0,0,0,1.84,2.14H142a1.74,1.74,0,0,0,1.75-1.28l1.81.6A3.53,3.53,0,0,1,142,20.25a3.94,3.94,0,0,1-4-3.88s0-.08,0-.12a3.9,3.9,0,0,1,3.8-4h.14a3.48,3.48,0,0,1,3.57,2.57l-1.84.62A1.66,1.66,0,0,0,142,14.08a1.94,1.94,0,0,0-2,2.14Z"/><path class="cls-7" d="M153.8,17.84a3.43,3.43,0,0,1-3.47,2.41,3.85,3.85,0,0,1-3.94-3.76q0-.15,0-.31a3.82,3.82,0,0,1,3.63-4h.11c2.35,0,3.76,1.5,3.76,3.94v.63h-5.45a1.85,1.85,0,0,0,1.92,1.73,1.68,1.68,0,0,0,1.73-1.16Zm-1.92-2.49a1.53,1.53,0,0,0-1.55-1.51h-.15a1.65,1.65,0,0,0-1.7,1.5Z"/><path class="cls-7" d="M159.51,20V9h6.87v2h-4.73v2.51h4.28v1.9h-4.28V18h4.73v2Z"/><path class="cls-7" d="M167.92,16.34V14.51h4.49v1.83Z"/><path class="cls-7" d="M173.71,14.55a5.54,5.54,0,0,1,5.36-5.72h.22a4.83,4.83,0,0,1,5,3.64l-2,.63a2.87,2.87,0,0,0-3-2.21,3.38,3.38,0,0,0-3.38,3.38q0,.15,0,.29a3.38,3.38,0,0,0,3.13,3.61h.27a3,3,0,0,0,3.08-2.24l2,.6a5,5,0,0,1-5.07,3.73,5.48,5.48,0,0,1-5.62-5.33Q173.7,14.74,173.71,14.55Z"/><path class="cls-7" d="M193.17,16.22a4,4,0,1,1-4-4A4,4,0,0,1,193.17,16.22Zm-2.06,0a2,2,0,1,0-3.87,0,2,2,0,1,0,3.87,0Z"/><path class="cls-7" d="M194.8,20V12.41h2v.93a2.62,2.62,0,0,1,2.2-1.15,2.36,2.36,0,0,1,2.26,1.27,2.82,2.82,0,0,1,5.17,1.62V20h-2V15.5a1.27,1.27,0,0,0-1.08-1.43h-.27a1.4,1.4,0,0,0-1.41,1.39s0,.08,0,.11V20h-2V15.5a1.28,1.28,0,0,0-1.11-1.43h-.24a1.39,1.39,0,0,0-1.42,1.5V20Z"/><path class="cls-7" d="M208.5,20V12.41h2v.93a2.62,2.62,0,0,1,2.23-1.14A2.36,2.36,0,0,1,215,13.46a2.82,2.82,0,0,1,5.17,1.62V20h-2V15.5a1.27,1.27,0,0,0-1.08-1.43h-.27a1.4,1.4,0,0,0-1.41,1.39s0,.08,0,.11V20h-2V15.5A1.28,1.28,0,0,0,212,14.07a1.39,1.39,0,0,0-1.42,1.5V20Z"/><path class="cls-7" d="M229,17.84a3.43,3.43,0,0,1-3.47,2.41,3.85,3.85,0,0,1-3.94-3.76q0-.15,0-.31a3.82,3.82,0,0,1,3.63-4h.11c2.35,0,3.76,1.5,3.76,3.94v.63h-5.45a1.85,1.85,0,0,0,1.92,1.73,1.68,1.68,0,0,0,1.73-1.16Zm-1.92-2.49a1.53,1.53,0,0,0-1.55-1.51h-.15a1.65,1.65,0,0,0-1.7,1.5Z"/><path class="cls-7" d="M235.41,14.45a3.11,3.11,0,0,0-.62-.06c-1.05,0-2,.51-2,2.15V20h-2.06V12.41h2v1.13a2.26,2.26,0,0,1,2.17-1.19h.48Z"/><path class="cls-7" d="M238.27,16.22a2,2,0,0,0,1.84,2.14h.11A1.74,1.74,0,0,0,242,17.08l1.81.6a3.53,3.53,0,0,1-3.56,2.57,3.94,3.94,0,0,1-4-3.88s0-.08,0-.12a3.9,3.9,0,0,1,3.8-4h.14a3.48,3.48,0,0,1,3.57,2.57l-1.84.62a1.66,1.66,0,0,0-1.69-1.28,1.94,1.94,0,0,0-2,1.92S238.27,16.17,238.27,16.22Z"/><path class="cls-7" d="M252,17.84a3.43,3.43,0,0,1-3.47,2.41,3.85,3.85,0,0,1-3.94-3.76q0-.15,0-.31a3.82,3.82,0,0,1,3.63-4h.11c2.35,0,3.76,1.5,3.76,3.94v.63h-5.45a1.85,1.85,0,0,0,1.92,1.73,1.68,1.68,0,0,0,1.73-1.16Zm-1.92-2.49a1.53,1.53,0,0,0-1.55-1.51h-.15a1.65,1.65,0,0,0-1.7,1.5Z"/><path class="cls-7" d="M125,35.14V27.45l-3.16,7.69H120.1l-3.16-7.63v7.63h-2v-11h2.82l3.24,8,3.22-7.92h2.91v11Z"/><path class="cls-7" d="M136.27,33a3.43,3.43,0,0,1-3.47,2.41,3.85,3.85,0,0,1-3.94-3.76q0-.15,0-.31a3.82,3.82,0,0,1,3.63-4h.11c2.35,0,3.76,1.5,3.76,3.94v.63H130.9a1.85,1.85,0,0,0,1.92,1.73,1.68,1.68,0,0,0,1.73-1.16Zm-1.92-2.49A1.53,1.53,0,0,0,132.8,29h-.15a1.65,1.65,0,0,0-1.7,1.5Z"/><path class="cls-7" d="M142.64,29.57a3.09,3.09,0,0,0-.62-.06c-1.05,0-2,.51-2,2.15v3.48h-2V27.53h2v1.13a2.26,2.26,0,0,1,2.17-1.19h.48Z"/><path class="cls-7" d="M145.51,31.34a2,2,0,0,0,1.84,2.14h.11a1.74,1.74,0,0,0,1.75-1.28l1.81.6a3.53,3.53,0,0,1-3.56,2.57,3.94,3.94,0,0,1-4-3.88s0-.08,0-.12a3.9,3.9,0,0,1,3.8-4h.14a3.48,3.48,0,0,1,3.6,2.49l-1.84.62a1.66,1.66,0,0,0-1.69-1.28,1.94,1.94,0,0,0-2,2.13Z"/><path class="cls-7" d="M154.59,35.14h-2.06V23.94h2.06v4.22a2.87,2.87,0,0,1,4.89,2.18v4.8h-2.06V30.7a1.34,1.34,0,0,0-1.16-1.5H156a1.42,1.42,0,0,0-1.42,1.42s0,0,0,.06Z"/><path class="cls-7" d="M163.38,30.76l1.87-.28c.43-.06.57-.28.57-.54,0-.54-.42-1-1.28-1a1.35,1.35,0,0,0-1.45,1.24l-1.83-.39a3,3,0,0,1,3.26-2.51c2.41,0,3.31,1.36,3.31,2.89v3.74a8.54,8.54,0,0,0,.09,1.21H166a5.14,5.14,0,0,1-.08-.91,2.54,2.54,0,0,1-2.24,1.13,2.4,2.4,0,0,1-2.6-2.18s0-.07,0-.11A2.35,2.35,0,0,1,163.38,30.76Zm2.44,1.3v-.34L164.1,32a1,1,0,0,0-.94,1,.89.89,0,0,0,.89.89h.11a1.55,1.55,0,0,0,1.66-1.82Z"/><path class="cls-7" d="M172,35.14h-2.1V27.53h2v.94a2.53,2.53,0,0,1,2.2-1.14c1.89,0,2.75,1.35,2.75,3v4.8h-2.06V30.7a1.34,1.34,0,0,0-1.14-1.51h-.27A1.43,1.43,0,0,0,172,30.65s0,.07,0,.11Z"/><path class="cls-7" d="M181.48,27.53H183v1.83h-1.53v3.19c0,.67.31.88.9.88a3,3,0,0,0,.63-.06v1.7a3.05,3.05,0,0,1-1.16.19,2.2,2.2,0,0,1-2.41-2.35V29.36H178V27.53h.39a1.1,1.1,0,0,0,1.18-1.21V25.26h1.86Z"/><path class="cls-7" d="M121.43,47.75H117l-.91,2.51h-2.26l4.21-11h2.48l4.18,11h-2.32Zm-3.74-2h3l-1.52-4.15Z"/><path class="cls-7" d="M131.94,42.65l1.64,4.9,1.41-4.9h2l-2.38,7.61h-2.06l-1.78-5.2L129,50.26h-2l-2.43-7.61h2.17l1.41,4.89,1.66-4.89Z"/><path class="cls-7" d="M140.09,45.88,142,45.6c.43-.06.57-.28.57-.54,0-.54-.42-1-1.28-1a1.35,1.35,0,0,0-1.45,1.24L138,44.92a3,3,0,0,1,3.26-2.51c2.41,0,3.31,1.36,3.31,2.89V49a8.56,8.56,0,0,0,.09,1.21h-1.89a5.15,5.15,0,0,1-.08-.91,2.54,2.54,0,0,1-2.24,1.13,2.4,2.4,0,0,1-2.6-2.18s0-.07,0-.11A2.35,2.35,0,0,1,140.09,45.88Zm2.44,1.3v-.34l-1.72.26a1,1,0,0,0-.94,1,.89.89,0,0,0,.89.89h.11a1.55,1.55,0,0,0,1.67-1.8Z"/><path class="cls-7" d="M151.26,44.69a3.13,3.13,0,0,0-.62-.06c-1.05,0-2,.51-2,2.15v3.48h-2.06V42.65h2v1.13a2.26,2.26,0,0,1,2.17-1.19h.48Z"/><path class="cls-7" d="M159.89,48.88a9.17,9.17,0,0,0,.06,1.38h-2a5.27,5.27,0,0,1-.08-.88,2.39,2.39,0,0,1-2.13,1.07A3.74,3.74,0,0,1,152,46.69q0-.12,0-.24a3.72,3.72,0,0,1,3.43-4h.22a2.28,2.28,0,0,1,2.15.94V39.06h2ZM156,48.61a1.93,1.93,0,0,0,1.87-2.18,1.89,1.89,0,0,0-1.63-2.11l-.24,0a1.91,1.91,0,0,0-1.89,2.13,1.92,1.92,0,0,0,1.64,2.16Z"/><path class="cls-7" d="M163.24,47.75a1.27,1.27,0,0,0,1.37,1.16h0c.68,0,1-.36,1-.76s-.23-.62-.82-.74l-1-.23a2.32,2.32,0,0,1-2.13-2.27,2.65,2.65,0,0,1,2.8-2.49h.05a2.71,2.71,0,0,1,3,2.2l-1.72.39a1.16,1.16,0,0,0-1.25-1,.87.87,0,0,0-1,.72v0c0,.37.28.6.7.68l1.08.23c1.5.31,2.26,1.22,2.26,2.34a2.74,2.74,0,0,1-3,2.51c-2.29,0-3.08-1.49-3.17-2.35Z"/><path class="cls-7" d="M172.63,44a3.81,3.81,0,0,1-.08-.7A3.39,3.39,0,0,1,176,40h.2a3.32,3.32,0,0,1,3.61,3q0,.11,0,.22a3.61,3.61,0,0,1-1.95,3.11L176,47.51a2,2,0,0,0-.87.91h4.81v1.84h-7.43A4.58,4.58,0,0,1,174.84,46l1.66-1a2,2,0,0,0,1.19-1.73,1.37,1.37,0,0,0-1.35-1.39h-.17a1.51,1.51,0,0,0-1.59,1.67,2.19,2.19,0,0,0,.08.56Z"/><path class="cls-7" d="M181.89,41.68A3.79,3.79,0,0,1,185.2,40a3.75,3.75,0,0,1,3.3,1.69,6.41,6.41,0,0,1,.9,3.57,6.42,6.42,0,0,1-.9,3.57,3.75,3.75,0,0,1-3.3,1.69,3.79,3.79,0,0,1-3.31-1.69,6.41,6.41,0,0,1-.88-3.57A6.4,6.4,0,0,1,181.89,41.68Zm1.79,6.13a1.68,1.68,0,0,0,1.52.82,1.63,1.63,0,0,0,1.5-.82,4.7,4.7,0,0,0,.56-2.55,4.7,4.7,0,0,0-.56-2.55,1.63,1.63,0,0,0-1.5-.82,1.68,1.68,0,0,0-1.52.82,4.85,4.85,0,0,0-.54,2.55,4.85,4.85,0,0,0,.55,2.54Z"/><path class="cls-7" d="M192.75,50.26V43.55h-2.41V42.11A2.56,2.56,0,0,0,193,40.22h1.84v10Z"/><path class="cls-7" d="M203.89,42.19a4.28,4.28,0,0,0-1.66-.36,3.15,3.15,0,0,0-3.33,2.88,2.84,2.84,0,0,1,2.38-1.11,3.22,3.22,0,0,1,3.48,3.4,3.61,3.61,0,0,1-3.68,3.54h-.2c-2.2,0-4.07-1.58-4.07-4.61,0-3.6,2.26-5.89,5.57-5.89a4.37,4.37,0,0,1,2.1.46Zm-3,6.51A1.68,1.68,0,1,0,199.1,47a1.7,1.7,0,0,0,1.7,1.7h.09Z"/><path class="cls-6" d="M118.88,57a1.46,1.46,0,0,0-1.55-1.2A1.21,1.21,0,0,0,116,56.88v0c0,.47.3.84.93,1l1.19.23a2.61,2.61,0,0,1,2.39,2.52,2.8,2.8,0,0,1-2.94,2.65h-.14a3.11,3.11,0,0,1-3.4-2.67l1.54-.41a1.71,1.71,0,0,0,1.81,1.6h.06c.89,0,1.39-.45,1.39-1s-.37-.88-1-1l-1.19-.24a2.49,2.49,0,0,1-2.3-2.59,3.1,3.1,0,0,1,6-.46Z"/><path class="cls-6" d="M122.56,54.22a1,1,0,1,1-1,1A1,1,0,0,1,122.56,54.22Zm-.8,8.87V57.16h1.6v5.93Z"/><path class="cls-6" d="M126.68,63.09h-1.6V57.16h1.55v.73a2,2,0,0,1,1.71-.89,2.09,2.09,0,0,1,2.14,2.35v3.73h-1.6V59.63a1,1,0,0,0-1.1-1.18,1.12,1.12,0,0,0-1.12,1.12s0,.07,0,.11Z"/><path class="cls-6" d="M133.13,63a1.33,1.33,0,0,0,1.39,1.12,1.43,1.43,0,0,0,1.58-1.65V62a1.88,1.88,0,0,1-1.65.76,2.74,2.74,0,0,1-2.76-2.72q0-.08,0-.16A2.78,2.78,0,0,1,134.33,57h.12a1.79,1.79,0,0,1,1.69.81v-.7h1.54V62.4a2.87,2.87,0,0,1-3.11,3.11,2.73,2.73,0,0,1-2.88-2.14Zm3-3.08a1.41,1.41,0,1,0-1.4,1.51,1.38,1.38,0,0,0,1.39-1.37s0-.08,0-.12Z"/><path class="cls-6" d="M140.65,59.68l1.46-.22a.4.4,0,0,0,.45-.42c0-.42-.33-.77-1-.77a1,1,0,0,0-1.13,1v0L139,59a2.36,2.36,0,0,1,2.54-2c1.88,0,2.58,1.06,2.58,2.25v2.92a6.64,6.64,0,0,0,.07.94h-1.47a4,4,0,0,1-.06-.71,2,2,0,0,1-1.75.88,1.87,1.87,0,0,1-2-1.73v0A1.83,1.83,0,0,1,140.65,59.68Zm1.9,1v-.27l-1.34.21a.75.75,0,0,0-.73.75.7.7,0,0,0,.71.69h.06a1.2,1.2,0,0,0,1.31-1.37Z"/><path class="cls-6" d="M145.74,65.37V57.16h1.55v.72a2.07,2.07,0,0,1,1.82-.86c1.73,0,2.73,1.33,2.73,3.08a2.85,2.85,0,0,1-2.56,3.12H149a2.08,2.08,0,0,1-1.71-.72v2.87Zm3.06-6.91a1.68,1.68,0,1,0,1.47,1.66,1.5,1.5,0,0,0-1.33-1.65Z"/><path class="cls-6" d="M158.88,60.12A3.11,3.11,0,1,1,155.77,57a3,3,0,0,1,3.11,2.89Q158.88,60,158.88,60.12Zm-1.6,0a1.52,1.52,0,1,0,0,.17A1.52,1.52,0,0,0,157.28,60.12Z"/><path class="cls-6" d="M163.76,58.75a2.39,2.39,0,0,0-.48,0c-.82,0-1.53.4-1.53,1.67v2.71h-1.6v-6h1.55V58a1.76,1.76,0,0,1,1.69-.93h.37Z"/><path class="cls-6" d="M170.15,61.39a2.67,2.67,0,0,1-2.7,1.88A3.15,3.15,0,0,1,167.3,57a2.77,2.77,0,0,1,2.93,3v.49H166a1.44,1.44,0,0,0,1.49,1.35,1.31,1.31,0,0,0,1.35-.9Zm-1.49-1.94a1.19,1.19,0,0,0-1.2-1.18h-.13A1.28,1.28,0,0,0,166,59.45Z"/><path class="cls-6" d="M299.45,44.35h-3V30h8.22V32.5h-5.23v3.7h4.86v2.48h-4.86Z"/><path class="cls-6" d="M307.12,30.55q0-1.46,1.63-1.46t1.63,1.46a1.42,1.42,0,0,1-.41,1.08,1.71,1.71,0,0,1-1.22.39Q307.12,32,307.12,30.55Zm3.12,13.8h-3v-11h3Z"/><path class="cls-6" d="M323.49,44.35h-3v-6.4a3.08,3.08,0,0,0-.42-1.78,1.53,1.53,0,0,0-1.34-.59,2,2,0,0,0-1.81.84,5.2,5.2,0,0,0-.56,2.78v5.16h-3v-11h2.28l.4,1.4h.17a3.16,3.16,0,0,1,1.38-1.2,4.69,4.69,0,0,1,2-.41,3.83,3.83,0,0,1,2.9,1,4.15,4.15,0,0,1,1,3Z"/><path class="cls-6" d="M330,44.54a3.56,3.56,0,0,1-3-1.5,6.9,6.9,0,0,1-1.1-4.16,6.9,6.9,0,0,1,1.12-4.2,3.65,3.65,0,0,1,3.09-1.51,3.58,3.58,0,0,1,3.16,1.61h.1a12.23,12.23,0,0,1-.23-2.19V29.09h3V44.35h-2.29l-.58-1.42h-.13A3.42,3.42,0,0,1,330,44.54Zm1-2.38a2,2,0,0,0,1.68-.67,3.88,3.88,0,0,0,.58-2.27V38.9a4.48,4.48,0,0,0-.54-2.53,2,2,0,0,0-1.77-.76,1.76,1.76,0,0,0-1.55.85,4.53,4.53,0,0,0-.55,2.47,4.29,4.29,0,0,0,.56,2.43A1.83,1.83,0,0,0,331.09,42.16Z"/><path class="cls-6" d="M354.46,38.85A5.89,5.89,0,0,1,353,43a5.12,5.12,0,0,1-3.93,1.51,5.5,5.5,0,0,1-2.78-.69,4.6,4.6,0,0,1-1.85-2,6.67,6.67,0,0,1-.65-3,5.86,5.86,0,0,1,1.4-4.18,5.15,5.15,0,0,1,3.94-1.49,5.53,5.53,0,0,1,2.78.69,4.58,4.58,0,0,1,1.85,2A6.61,6.61,0,0,1,354.46,38.85Zm-7.58,0a4.6,4.6,0,0,0,.53,2.46,1.91,1.91,0,0,0,1.74.83,1.88,1.88,0,0,0,1.72-.83,4.67,4.67,0,0,0,.52-2.47,4.53,4.53,0,0,0-.53-2.44,2.25,2.25,0,0,0-3.46,0A4.52,4.52,0,0,0,346.88,38.85Z"/><path class="cls-6" d="M364.7,44.35l-.4-1.4h-.16a3.16,3.16,0,0,1-1.36,1.18,4.65,4.65,0,0,1-2,.42,3.83,3.83,0,0,1-2.91-1,4.16,4.16,0,0,1-1-3V33.38h3v6.4a3.08,3.08,0,0,0,.42,1.78,1.53,1.53,0,0,0,1.34.59,2,2,0,0,0,1.81-.84,5.2,5.2,0,0,0,.56-2.78V33.38h3v11Z"/><path class="cls-6" d="M374.75,42.16a6.48,6.48,0,0,0,1.88-.34V44a6.71,6.71,0,0,1-2.75.5,3.36,3.36,0,0,1-2.61-.91,4,4,0,0,1-.82-2.72V35.63H369V34.36l1.65-1,.86-2.31h1.91v2.33h3.07v2.25h-3.07v5.29a1.17,1.17,0,0,0,.36.94A1.41,1.41,0,0,0,374.75,42.16Z"/><path class="cls-6" d="M393.88,44.35h-3v-6.4a3.23,3.23,0,0,0-.4-1.78,1.4,1.4,0,0,0-1.25-.59,1.81,1.81,0,0,0-1.67.84,5.53,5.53,0,0,0-.52,2.77v5.16h-3v-11h2.28l.4,1.4h.17a3,3,0,0,1,1.27-1.18,4.14,4.14,0,0,1,1.91-.43,3.44,3.44,0,0,1,3.33,1.61h.26A3,3,0,0,1,395,33.6a4.33,4.33,0,0,1,1.94-.42,3.82,3.82,0,0,1,2.82,1,4.2,4.2,0,0,1,1,3.06v7.15h-3v-6.4a3.23,3.23,0,0,0-.4-1.78,1.4,1.4,0,0,0-1.25-.59,1.87,1.87,0,0,0-1.64.78,4.45,4.45,0,0,0-.54,2.49Z"/><path class="cls-6" d="M413.74,38.85A5.89,5.89,0,0,1,412.33,43a5.12,5.12,0,0,1-3.93,1.51,5.5,5.5,0,0,1-2.78-.69,4.6,4.6,0,0,1-1.85-2,6.67,6.67,0,0,1-.65-3,5.86,5.86,0,0,1,1.4-4.18,5.15,5.15,0,0,1,3.94-1.49,5.53,5.53,0,0,1,2.78.69,4.58,4.58,0,0,1,1.85,2A6.61,6.61,0,0,1,413.74,38.85Zm-7.58,0a4.6,4.6,0,0,0,.53,2.46,1.91,1.91,0,0,0,1.74.83,1.88,1.88,0,0,0,1.72-.83,4.67,4.67,0,0,0,.52-2.47,4.53,4.53,0,0,0-.53-2.44,2.25,2.25,0,0,0-3.46,0A4.52,4.52,0,0,0,406.16,38.85Z"/><path class="cls-6" d="M422.33,33.18a4.82,4.82,0,0,1,1,.09l-.23,2.8a3.43,3.43,0,0,0-.88-.1,3.17,3.17,0,0,0-2.23.74,2.66,2.66,0,0,0-.8,2.06v5.58h-3v-11h2.27l.44,1.84h.15a4.12,4.12,0,0,1,1.38-1.49A3.4,3.4,0,0,1,422.33,33.18Z"/><path class="cls-6" d="M430.1,44.54A5.66,5.66,0,0,1,426,43.08a5.53,5.53,0,0,1-1.49-4.14,6.08,6.08,0,0,1,1.38-4.26,4.91,4.91,0,0,1,3.81-1.51,4.83,4.83,0,0,1,3.62,1.32,5,5,0,0,1,1.29,3.66v1.45H427.5a2.88,2.88,0,0,0,.76,2,2.66,2.66,0,0,0,2,.72,8.22,8.22,0,0,0,1.87-.21,9.37,9.37,0,0,0,1.84-.66v2.31a7,7,0,0,1-1.68.58A10.57,10.57,0,0,1,430.1,44.54Zm-.42-9.24a1.9,1.9,0,0,0-1.49.6,2.79,2.79,0,0,0-.62,1.71h4.2a2.49,2.49,0,0,0-.58-1.71A2,2,0,0,0,429.68,35.31Z"/><path class="cls-6" d="M449.18,44.35l-.58-1.49h-.08A4.42,4.42,0,0,1,447,44.17a5,5,0,0,1-2.08.37,3.37,3.37,0,0,1-2.49-.9,3.46,3.46,0,0,1-.91-2.57,2.89,2.89,0,0,1,1.22-2.57,7.07,7.07,0,0,1,3.68-.92l1.9-.06V37a1.49,1.49,0,0,0-1.71-1.67,7.77,7.77,0,0,0-3.09.79l-1-2a8.91,8.91,0,0,1,4.2-1,5.23,5.23,0,0,1,3.38,1A3.55,3.55,0,0,1,451.27,37v7.31Zm-.88-5.08-1.16,0a3.71,3.71,0,0,0-1.94.47,1.48,1.48,0,0,0-.64,1.31q0,1.26,1.45,1.26a2.3,2.3,0,0,0,1.66-.6,2.1,2.1,0,0,0,.62-1.59Z"/><path class="cls-6" d="M460.45,33.18a3.55,3.55,0,0,1,3,1.51,7,7,0,0,1,1.1,4.15,6.83,6.83,0,0,1-1.13,4.21,4,4,0,0,1-6.11.09h-.21l-.5,1.21h-2.28V29.09h3v3.55q0,.68-.12,2.17h.12A3.46,3.46,0,0,1,460.45,33.18Zm-1,2.39a1.89,1.89,0,0,0-1.62.68,3.91,3.91,0,0,0-.53,2.25v.32a4.62,4.62,0,0,0,.52,2.53,1.87,1.87,0,0,0,1.66.76,1.67,1.67,0,0,0,1.47-.85,4.59,4.59,0,0,0,.54-2.47,4.35,4.35,0,0,0-.55-2.43A1.72,1.72,0,0,0,459.48,35.57Z"/><path class="cls-6" d="M477,38.85A5.89,5.89,0,0,1,475.6,43a5.12,5.12,0,0,1-3.93,1.51,5.5,5.5,0,0,1-2.78-.69,4.6,4.6,0,0,1-1.85-2,6.67,6.67,0,0,1-.65-3,5.86,5.86,0,0,1,1.4-4.18,5.15,5.15,0,0,1,3.94-1.49,5.53,5.53,0,0,1,2.78.69,4.58,4.58,0,0,1,1.85,2A6.61,6.61,0,0,1,477,38.85Zm-7.58,0a4.6,4.6,0,0,0,.53,2.46,1.91,1.91,0,0,0,1.74.83,1.88,1.88,0,0,0,1.72-.83,4.67,4.67,0,0,0,.52-2.47,4.53,4.53,0,0,0-.53-2.44,2.25,2.25,0,0,0-3.46,0A4.52,4.52,0,0,0,469.44,38.85Z"/><path class="cls-6" d="M487.25,44.35l-.4-1.4h-.16a3.16,3.16,0,0,1-1.36,1.18,4.65,4.65,0,0,1-2,.42,3.83,3.83,0,0,1-2.91-1,4.16,4.16,0,0,1-1-3V33.38h3v6.4a3.08,3.08,0,0,0,.42,1.78,1.53,1.53,0,0,0,1.34.59,2,2,0,0,0,1.81-.84,5.2,5.2,0,0,0,.56-2.78V33.38h3v11Z"/><path class="cls-6" d="M497.3,42.16a6.48,6.48,0,0,0,1.88-.34V44a6.71,6.71,0,0,1-2.75.5,3.36,3.36,0,0,1-2.61-.91,4,4,0,0,1-.82-2.72V35.63h-1.43V34.36l1.65-1,.86-2.31H496v2.33h3.07v2.25H496v5.29a1.17,1.17,0,0,0,.36.94A1.41,1.41,0,0,0,497.3,42.16Z"/><path class="cls-6" d="M511.24,42.16a6.48,6.48,0,0,0,1.88-.34V44a6.71,6.71,0,0,1-2.75.5,3.36,3.36,0,0,1-2.61-.91,4,4,0,0,1-.82-2.72V35.63h-1.43V34.36l1.65-1,.86-2.31h1.91v2.33H513v2.25h-3.07v5.29a1.17,1.17,0,0,0,.36.94A1.41,1.41,0,0,0,511.24,42.16Z"/><path class="cls-6" d="M525.46,44.35h-3v-6.4q0-2.37-1.76-2.37a2,2,0,0,0-1.81.85,5.21,5.21,0,0,0-.56,2.77v5.16h-3V29.09h3V32.2q0,.36-.07,1.71l-.07.88h.16a3.46,3.46,0,0,1,3.18-1.61,3.88,3.88,0,0,1,2.93,1,4.13,4.13,0,0,1,1,3Z"/><path class="cls-6" d="M533.5,44.54a5.66,5.66,0,0,1-4.14-1.46,5.53,5.53,0,0,1-1.49-4.14,6.08,6.08,0,0,1,1.38-4.26,4.91,4.91,0,0,1,3.81-1.51,4.83,4.83,0,0,1,3.62,1.32A5,5,0,0,1,538,38.16v1.45H530.9a2.88,2.88,0,0,0,.76,2,2.66,2.66,0,0,0,2,.72,8.22,8.22,0,0,0,1.87-.21,9.37,9.37,0,0,0,1.84-.66v2.31a7,7,0,0,1-1.68.58A10.57,10.57,0,0,1,533.5,44.54Zm-.42-9.24a1.9,1.9,0,0,0-1.49.6,2.79,2.79,0,0,0-.62,1.71h4.2a2.49,2.49,0,0,0-.58-1.71A2,2,0,0,0,533.07,35.31Z"/><path class="cls-6" d="M545.49,30.55q0-1.46,1.63-1.46t1.63,1.46a1.42,1.42,0,0,1-.41,1.08,1.71,1.71,0,0,1-1.22.39Q545.49,32,545.49,30.55Zm3.12,13.8h-3v-11h3Z"/><path class="cls-6" d="M561.88,34.48A4.38,4.38,0,0,1,560.44,38a6.19,6.19,0,0,1-4.11,1.23H555v5.1h-3V30h4.58a6.09,6.09,0,0,1,4,1.12A4.09,4.09,0,0,1,561.88,34.48ZM555,36.76h1a3.33,3.33,0,0,0,2.1-.55,1.94,1.94,0,0,0,.7-1.61,2,2,0,0,0-.58-1.58,2.73,2.73,0,0,0-1.83-.51H555Z"/><path class="cls-6" d="M570.47,33.18a4.82,4.82,0,0,1,1,.09l-.23,2.8a3.43,3.43,0,0,0-.88-.1,3.17,3.17,0,0,0-2.23.74,2.66,2.66,0,0,0-.8,2.06v5.58h-3v-11h2.27l.44,1.84h.15a4.12,4.12,0,0,1,1.38-1.49A3.4,3.4,0,0,1,570.47,33.18Z"/><path class="cls-6" d="M573.35,30.55q0-1.46,1.63-1.46t1.63,1.46a1.42,1.42,0,0,1-.41,1.08A1.71,1.71,0,0,1,575,32Q573.35,32,573.35,30.55Zm3.12,13.8h-3v-11h3Z"/><path class="cls-6" d="M584.05,44.54q-5.12,0-5.12-5.62a6,6,0,0,1,1.39-4.27,5.22,5.22,0,0,1,4-1.48,7.61,7.61,0,0,1,3.41.75l-.88,2.31q-.71-.28-1.31-.47a4.23,4.23,0,0,0-1.22-.18q-2.33,0-2.33,3.31t2.33,3.22a5.32,5.32,0,0,0,1.6-.23,5.77,5.77,0,0,0,1.47-.72v2.56a4.82,4.82,0,0,1-1.47.64A8.24,8.24,0,0,1,584.05,44.54Z"/><path class="cls-6" d="M594.89,44.54a5.66,5.66,0,0,1-4.14-1.46,5.53,5.53,0,0,1-1.49-4.14,6.08,6.08,0,0,1,1.38-4.26,4.91,4.91,0,0,1,3.81-1.51,4.83,4.83,0,0,1,3.62,1.32,5,5,0,0,1,1.29,3.66v1.45h-7.07a2.88,2.88,0,0,0,.76,2,2.66,2.66,0,0,0,2,.72,8.22,8.22,0,0,0,1.87-.21,9.37,9.37,0,0,0,1.84-.66v2.31a7,7,0,0,1-1.68.58A10.57,10.57,0,0,1,594.89,44.54Zm-.42-9.24a1.9,1.9,0,0,0-1.49.6,2.79,2.79,0,0,0-.62,1.71h4.2a2.49,2.49,0,0,0-.58-1.71A2,2,0,0,0,594.47,35.31Z"/><path class="cls-6" d="M615.5,44.35h-8.26V30h8.26V32.5h-5.22v3.15h4.85v2.49h-4.85v3.7h5.22Z"/><path class="cls-6" d="M617.28,40.19V37.74h5.27v2.45Z"/><path class="cls-6" d="M631,32.33a3.1,3.1,0,0,0-2.66,1.29,6,6,0,0,0-.94,3.59q0,4.79,3.6,4.79a11.38,11.38,0,0,0,3.66-.76v2.55a10.16,10.16,0,0,1-3.94.74,6,6,0,0,1-4.79-1.9,8,8,0,0,1-1.66-5.45,8.89,8.89,0,0,1,.81-3.92,5.88,5.88,0,0,1,2.34-2.58,6.92,6.92,0,0,1,3.57-.9,9.65,9.65,0,0,1,4.2,1l-1,2.47a16.23,16.23,0,0,0-1.62-.67A4.83,4.83,0,0,0,631,32.33Z"/><path class="cls-6" d="M647.47,38.85A5.89,5.89,0,0,1,646.06,43a5.12,5.12,0,0,1-3.93,1.51,5.5,5.5,0,0,1-2.78-.69,4.6,4.6,0,0,1-1.85-2,6.67,6.67,0,0,1-.65-3,5.86,5.86,0,0,1,1.4-4.18,5.15,5.15,0,0,1,3.94-1.49,5.53,5.53,0,0,1,2.78.69,4.58,4.58,0,0,1,1.85,2A6.61,6.61,0,0,1,647.47,38.85Zm-7.58,0a4.6,4.6,0,0,0,.53,2.46,1.91,1.91,0,0,0,1.74.83,1.88,1.88,0,0,0,1.72-.83,4.67,4.67,0,0,0,.52-2.47,4.53,4.53,0,0,0-.53-2.44,2.25,2.25,0,0,0-3.46,0A4.52,4.52,0,0,0,639.89,38.85Z"/><path class="cls-6" d="M659.76,44.35h-3v-6.4a3.23,3.23,0,0,0-.4-1.78,1.4,1.4,0,0,0-1.25-.59,1.81,1.81,0,0,0-1.67.84,5.53,5.53,0,0,0-.52,2.77v5.16h-3v-11h2.28l.4,1.4h.17a3,3,0,0,1,1.27-1.18,4.14,4.14,0,0,1,1.91-.43,3.44,3.44,0,0,1,3.33,1.61h.26a3,3,0,0,1,1.3-1.19,4.33,4.33,0,0,1,1.94-.42,3.82,3.82,0,0,1,2.82,1,4.2,4.2,0,0,1,1,3.06v7.15h-3v-6.4a3.23,3.23,0,0,0-.4-1.78,1.4,1.4,0,0,0-1.25-.59,1.87,1.87,0,0,0-1.64.78,4.45,4.45,0,0,0-.54,2.49Z"/><path class="cls-6" d="M679.48,44.35h-3v-6.4a3.23,3.23,0,0,0-.4-1.78,1.4,1.4,0,0,0-1.25-.59,1.81,1.81,0,0,0-1.67.84,5.53,5.53,0,0,0-.52,2.77v5.16h-3v-11h2.28l.4,1.4h.17a3,3,0,0,1,1.27-1.18,4.14,4.14,0,0,1,1.91-.43A3.44,3.44,0,0,1,679,34.79h.26a3,3,0,0,1,1.3-1.19,4.33,4.33,0,0,1,1.94-.42,3.82,3.82,0,0,1,2.82,1,4.2,4.2,0,0,1,1,3.06v7.15h-3v-6.4a3.23,3.23,0,0,0-.4-1.78,1.4,1.4,0,0,0-1.25-.59,1.87,1.87,0,0,0-1.64.78,4.45,4.45,0,0,0-.54,2.49Z"/><path class="cls-6" d="M694.34,44.54a5.66,5.66,0,0,1-4.14-1.46,5.53,5.53,0,0,1-1.49-4.14,6.08,6.08,0,0,1,1.38-4.26,4.91,4.91,0,0,1,3.81-1.51,4.83,4.83,0,0,1,3.62,1.32,5,5,0,0,1,1.29,3.66v1.45h-7.07a2.88,2.88,0,0,0,.76,2,2.66,2.66,0,0,0,2,.72,8.22,8.22,0,0,0,1.87-.21,9.37,9.37,0,0,0,1.84-.66v2.31a7,7,0,0,1-1.68.58A10.57,10.57,0,0,1,694.34,44.54Zm-.42-9.24a1.9,1.9,0,0,0-1.49.6,2.79,2.79,0,0,0-.62,1.71H696a2.49,2.49,0,0,0-.58-1.71A2,2,0,0,0,693.92,35.31Z"/><path class="cls-6" d="M707.37,33.18a4.82,4.82,0,0,1,1,.09l-.23,2.8a3.43,3.43,0,0,0-.88-.1,3.17,3.17,0,0,0-2.23.74,2.66,2.66,0,0,0-.8,2.06v5.58h-3v-11h2.27l.44,1.84h.15a4.12,4.12,0,0,1,1.38-1.49A3.4,3.4,0,0,1,707.37,33.18Z"/><path class="cls-6" d="M714.62,44.54q-5.12,0-5.12-5.62a6,6,0,0,1,1.39-4.27,5.22,5.22,0,0,1,4-1.48,7.61,7.61,0,0,1,3.41.75l-.88,2.31q-.71-.28-1.31-.47a4.23,4.23,0,0,0-1.22-.18q-2.33,0-2.33,3.31t2.33,3.22a5.32,5.32,0,0,0,1.6-.23,5.77,5.77,0,0,0,1.47-.72v2.56a4.82,4.82,0,0,1-1.47.64A8.24,8.24,0,0,1,714.62,44.54Z"/><path class="cls-6" d="M725.46,44.54a5.66,5.66,0,0,1-4.14-1.46,5.53,5.53,0,0,1-1.49-4.14,6.08,6.08,0,0,1,1.38-4.26A4.91,4.91,0,0,1,725,33.18a4.83,4.83,0,0,1,3.62,1.32,5,5,0,0,1,1.29,3.66v1.45h-7.07a2.88,2.88,0,0,0,.76,2,2.66,2.66,0,0,0,2,.72,8.22,8.22,0,0,0,1.87-.21,9.37,9.37,0,0,0,1.84-.66v2.31a7,7,0,0,1-1.68.58A10.57,10.57,0,0,1,725.46,44.54ZM725,35.31a1.9,1.9,0,0,0-1.49.6,2.79,2.79,0,0,0-.62,1.71h4.2a2.49,2.49,0,0,0-.58-1.71A2,2,0,0,0,725,35.31Z"/><path class="cls-6" d="M743.88,44.35,740.43,33.1h-.09q.19,3.43.19,4.58v6.67h-2.72V30h4.14l3.39,11h.06L749,30h4.14V44.35H750.3V37.56q0-.48,0-1.11t.13-3.33h-.09l-3.7,11.23Z"/><path class="cls-6" d="M761.47,44.54a5.66,5.66,0,0,1-4.14-1.46,5.53,5.53,0,0,1-1.49-4.14,6.08,6.08,0,0,1,1.38-4.26A4.91,4.91,0,0,1,761,33.18a4.83,4.83,0,0,1,3.62,1.32,5,5,0,0,1,1.29,3.66v1.45h-7.07a2.88,2.88,0,0,0,.76,2,2.66,2.66,0,0,0,2,.72,8.22,8.22,0,0,0,1.87-.21,9.37,9.37,0,0,0,1.84-.66v2.31a7,7,0,0,1-1.68.58A10.57,10.57,0,0,1,761.47,44.54Zm-.42-9.24a1.9,1.9,0,0,0-1.49.6,2.79,2.79,0,0,0-.62,1.71h4.2a2.49,2.49,0,0,0-.58-1.71A2,2,0,0,0,761.05,35.31Z"/><path class="cls-6" d="M774.49,33.18a4.82,4.82,0,0,1,1,.09l-.23,2.8a3.43,3.43,0,0,0-.88-.1,3.17,3.17,0,0,0-2.23.74,2.66,2.66,0,0,0-.8,2.06v5.58h-3v-11h2.27l.44,1.84h.15a4.12,4.12,0,0,1,1.38-1.49A3.4,3.4,0,0,1,774.49,33.18Z"/><path class="cls-6" d="M781.75,44.54q-5.12,0-5.12-5.62A6,6,0,0,1,778,34.65a5.22,5.22,0,0,1,4-1.48,7.61,7.61,0,0,1,3.41.75l-.88,2.31q-.71-.28-1.31-.47a4.23,4.23,0,0,0-1.22-.18q-2.33,0-2.33,3.31T782,42.12a5.32,5.32,0,0,0,1.6-.23,5.77,5.77,0,0,0,1.47-.72v2.56a4.82,4.82,0,0,1-1.47.64A8.24,8.24,0,0,1,781.75,44.54Z"/><path class="cls-6" d="M797.74,44.35h-3v-6.4q0-2.37-1.76-2.37a2,2,0,0,0-1.81.85,5.21,5.21,0,0,0-.56,2.77v5.16h-3V29.09h3V32.2q0,.36-.07,1.71l-.07.88h.16a3.46,3.46,0,0,1,3.18-1.61,3.88,3.88,0,0,1,2.93,1,4.13,4.13,0,0,1,1,3Z"/><path class="cls-6" d="M807.78,44.35l-.58-1.49h-.08a4.42,4.42,0,0,1-1.55,1.32,5,5,0,0,1-2.08.37,3.37,3.37,0,0,1-2.49-.9,3.46,3.46,0,0,1-.91-2.57,2.89,2.89,0,0,1,1.22-2.57,7.07,7.07,0,0,1,3.68-.92l1.9-.06V37a1.49,1.49,0,0,0-1.71-1.67,7.77,7.77,0,0,0-3.09.79l-1-2a8.91,8.91,0,0,1,4.2-1,5.23,5.23,0,0,1,3.38,1A3.55,3.55,0,0,1,809.87,37v7.31Zm-.88-5.08-1.16,0a3.71,3.71,0,0,0-1.94.47,1.48,1.48,0,0,0-.64,1.31q0,1.26,1.45,1.26a2.3,2.3,0,0,0,1.66-.6,2.1,2.1,0,0,0,.62-1.59Z"/><path class="cls-6" d="M823.07,44.35h-3v-6.4a3.08,3.08,0,0,0-.42-1.78,1.53,1.53,0,0,0-1.34-.59,2,2,0,0,0-1.81.84,5.2,5.2,0,0,0-.56,2.78v5.16h-3v-11h2.28l.4,1.4h.17a3.16,3.16,0,0,1,1.38-1.2,4.69,4.69,0,0,1,2-.41,3.83,3.83,0,0,1,2.9,1,4.15,4.15,0,0,1,1,3Z"/><path class="cls-6" d="M830.77,42.16a6.48,6.48,0,0,0,1.88-.34V44a6.71,6.71,0,0,1-2.75.5,3.36,3.36,0,0,1-2.61-.91,4,4,0,0,1-.82-2.72V35.63H825V34.36l1.65-1,.86-2.31h1.91v2.33h3.07v2.25h-3.07v5.29a1.17,1.17,0,0,0,.36.94A1.41,1.41,0,0,0,830.77,42.16Z"/><path class="cls-6" d="M849.09,44.35l-1-3.41h-5.23l-1,3.41h-3.28L843.57,30h3.72l5.08,14.39Zm-1.76-6q-1.44-4.64-1.62-5.25t-.26-1q-.32,1.26-1.85,6.21Z"/><path class="cls-6" d="M862.95,44.35l-.84-3.83L861,35.67h-.09l-2,8.68h-3.22l-3.12-11h3l1.26,4.85q.22.86.6,3.6h.08a20.15,20.15,0,0,1,.34-2.36l.16-.83,1.35-5.26h3.29l1.28,5.26q.12.54.29,1.58a13.59,13.59,0,0,1,.19,1.61h.08q.11-.87.3-2t.33-1.61l1.31-4.85h2.93l-3.16,11Z"/><path class="cls-6" d="M878.09,44.35l-.58-1.49h-.08a4.42,4.42,0,0,1-1.55,1.32,5,5,0,0,1-2.08.37,3.37,3.37,0,0,1-2.49-.9,3.46,3.46,0,0,1-.91-2.57,2.89,2.89,0,0,1,1.22-2.57,7.07,7.07,0,0,1,3.68-.92l1.9-.06V37a1.49,1.49,0,0,0-1.71-1.67,7.77,7.77,0,0,0-3.09.79l-1-2a8.91,8.91,0,0,1,4.2-1,5.23,5.23,0,0,1,3.38,1A3.55,3.55,0,0,1,880.18,37v7.31Zm-.88-5.08-1.16,0a3.71,3.71,0,0,0-1.94.47,1.48,1.48,0,0,0-.64,1.31q0,1.26,1.45,1.26a2.3,2.3,0,0,0,1.66-.6,2.1,2.1,0,0,0,.62-1.59Z"/><path class="cls-6" d="M889.37,33.18a4.82,4.82,0,0,1,1,.09l-.23,2.8a3.43,3.43,0,0,0-.88-.1,3.17,3.17,0,0,0-2.23.74,2.66,2.66,0,0,0-.8,2.06v5.58h-3v-11h2.27l.44,1.84h.15a4.12,4.12,0,0,1,1.38-1.49A3.4,3.4,0,0,1,889.37,33.18Z"/><path class="cls-6" d="M895.65,44.54a3.56,3.56,0,0,1-3-1.5,6.9,6.9,0,0,1-1.1-4.16,6.9,6.9,0,0,1,1.12-4.2,3.65,3.65,0,0,1,3.09-1.51,3.58,3.58,0,0,1,3.16,1.61h.1a12.23,12.23,0,0,1-.23-2.19V29.09h3V44.35h-2.29l-.58-1.42h-.13A3.42,3.42,0,0,1,895.65,44.54Zm1-2.38a2,2,0,0,0,1.68-.67,3.88,3.88,0,0,0,.58-2.27V38.9a4.48,4.48,0,0,0-.54-2.53,2,2,0,0,0-1.77-.76,1.76,1.76,0,0,0-1.55.85,4.53,4.53,0,0,0-.55,2.47,4.29,4.29,0,0,0,.56,2.43A1.83,1.83,0,0,0,896.7,42.16Z"/><path class="cls-6" d="M912.53,41.09a3,3,0,0,1-1.17,2.57,5.79,5.79,0,0,1-3.51.88,11,11,0,0,1-2-.16,7.71,7.71,0,0,1-1.58-.48V41.43a10.43,10.43,0,0,0,1.88.66,7.6,7.6,0,0,0,1.84.26q1.63,0,1.63-.94a.79.79,0,0,0-.22-.57,3.13,3.13,0,0,0-.75-.5q-.53-.28-1.41-.65a8.87,8.87,0,0,1-1.86-1,2.76,2.76,0,0,1-.86-1,3.41,3.41,0,0,1-.27-1.44A2.6,2.6,0,0,1,905.35,34a5.52,5.52,0,0,1,3.21-.8,9.12,9.12,0,0,1,3.85.86l-.9,2.16q-.82-.35-1.54-.58a4.83,4.83,0,0,0-1.46-.23q-1.32,0-1.32.72a.84.84,0,0,0,.43.7,11.6,11.6,0,0,0,1.87.87,8.68,8.68,0,0,1,1.88,1,2.87,2.87,0,0,1,.88,1A3.19,3.19,0,0,1,912.53,41.09Z"/><path class="cls-6" d="M929.34,44.35h-10V42.24l3.6-3.64q1.6-1.64,2.09-2.27a5,5,0,0,0,.71-1.17,3,3,0,0,0,.22-1.12,1.63,1.63,0,0,0-.48-1.28,1.84,1.84,0,0,0-1.27-.42,3.65,3.65,0,0,0-1.62.38,8.35,8.35,0,0,0-1.64,1.09l-1.65-2A10.75,10.75,0,0,1,921,30.58a6.44,6.44,0,0,1,1.52-.57,7.79,7.79,0,0,1,1.84-.2,5.46,5.46,0,0,1,2.37.49,3.79,3.79,0,0,1,1.6,1.37,3.65,3.65,0,0,1,.57,2,4.94,4.94,0,0,1-.35,1.86,7.13,7.13,0,0,1-1.08,1.78,26.37,26.37,0,0,1-2.57,2.6l-1.84,1.74v.14h6.25Z"/><path class="cls-6" d="M940.74,37.18a10,10,0,0,1-1.23,5.56,4.27,4.27,0,0,1-3.79,1.8A4.22,4.22,0,0,1,932,42.68a9.85,9.85,0,0,1-1.26-5.5q0-3.79,1.23-5.59a4.77,4.77,0,0,1,7.53.08A9.87,9.87,0,0,1,940.74,37.18Zm-7,0a11.15,11.15,0,0,0,.46,3.78,1.58,1.58,0,0,0,1.53,1.14,1.6,1.6,0,0,0,1.53-1.16,10.84,10.84,0,0,0,.47-3.77,10.81,10.81,0,0,0-.48-3.79,1.59,1.59,0,0,0-3.05,0A11.13,11.13,0,0,0,933.73,37.18Z"/><path class="cls-6" d="M949.78,44.35h-3v-8.3l0-1.36,0-1.49q-.76.76-1,1l-1.65,1.32-1.46-1.82L947.28,30h2.49Z"/><path class="cls-6" d="M953.67,38.26q0-4.26,1.8-6.33a6.74,6.74,0,0,1,5.39-2.08,9.78,9.78,0,0,1,1.92.15v2.42a7.85,7.85,0,0,0-1.73-.2,5.92,5.92,0,0,0-2.54.47A3.16,3.16,0,0,0,957,34.08a6.39,6.39,0,0,0-.58,2.62h.13A3.33,3.33,0,0,1,959.69,35a3.85,3.85,0,0,1,3,1.21,4.8,4.8,0,0,1,1.09,3.33,5,5,0,0,1-1.29,3.63,4.76,4.76,0,0,1-3.59,1.34,5.13,5.13,0,0,1-2.77-.74,4.78,4.78,0,0,1-1.82-2.15A8.18,8.18,0,0,1,953.67,38.26Zm5.18,3.86a1.79,1.79,0,0,0,1.49-.65,2.92,2.92,0,0,0,.52-1.86,2.56,2.56,0,0,0-.49-1.65,1.77,1.77,0,0,0-1.47-.6,2.25,2.25,0,0,0-1.57.6,1.84,1.84,0,0,0-.65,1.39,3.16,3.16,0,0,0,.61,2A1.88,1.88,0,0,0,958.85,42.12Z"/><path class="cls-6" d="M981.35,44.35h-3v-6.4q0-2.37-1.76-2.37a2,2,0,0,0-1.81.85,5.21,5.21,0,0,0-.56,2.77v5.16h-3V29.09h3V32.2q0,.36-.07,1.71l-.07.88h.16a3.46,3.46,0,0,1,3.18-1.61,3.88,3.88,0,0,1,2.93,1,4.13,4.13,0,0,1,1,3Z"/><path class="cls-6" d="M989.39,44.54a5.66,5.66,0,0,1-4.14-1.46,5.53,5.53,0,0,1-1.49-4.14,6.08,6.08,0,0,1,1.38-4.26,4.91,4.91,0,0,1,3.81-1.51,4.83,4.83,0,0,1,3.62,1.32,5,5,0,0,1,1.29,3.66v1.45h-7.07a2.88,2.88,0,0,0,.76,2,2.66,2.66,0,0,0,2,.72,8.22,8.22,0,0,0,1.87-.21,9.37,9.37,0,0,0,1.84-.66v2.31a7,7,0,0,1-1.68.58A10.57,10.57,0,0,1,989.39,44.54ZM989,35.31a1.9,1.9,0,0,0-1.49.6,2.79,2.79,0,0,0-.62,1.71h4.2a2.49,2.49,0,0,0-.58-1.71A2,2,0,0,0,989,35.31Z"/><path class="cls-6" d="M1002.41,33.18a4.82,4.82,0,0,1,1,.09l-.23,2.8a3.43,3.43,0,0,0-.88-.1,3.17,3.17,0,0,0-2.23.74,2.66,2.66,0,0,0-.8,2.06v5.58h-3v-11h2.27l.44,1.84h.15a4.12,4.12,0,0,1,1.38-1.49A3.4,3.4,0,0,1,1002.41,33.18Z"/><path class="cls-6" d="M1010.18,44.54a5.66,5.66,0,0,1-4.14-1.46,5.53,5.53,0,0,1-1.49-4.14,6.08,6.08,0,0,1,1.38-4.26,4.91,4.91,0,0,1,3.81-1.51,4.83,4.83,0,0,1,3.62,1.32,5,5,0,0,1,1.29,3.66v1.45h-7.07a2.88,2.88,0,0,0,.76,2,2.66,2.66,0,0,0,2,.72,8.22,8.22,0,0,0,1.87-.21,9.37,9.37,0,0,0,1.84-.66v2.31a7,7,0,0,1-1.68.58A10.57,10.57,0,0,1,1010.18,44.54Zm-.42-9.24a1.9,1.9,0,0,0-1.49.6,2.79,2.79,0,0,0-.62,1.71h4.2a2.49,2.49,0,0,0-.58-1.71A2,2,0,0,0,1009.75,35.31Z"/><path class="cls-6" d="M1016.66,42.94a1.64,1.64,0,0,1,.44-1.25,1.79,1.79,0,0,1,1.28-.42,1.74,1.74,0,0,1,1.26.43,1.91,1.91,0,0,1,0,2.46,1.71,1.71,0,0,1-1.26.45,1.76,1.76,0,0,1-1.27-.44A1.63,1.63,0,0,1,1016.66,42.94Zm2.93-3.35h-2.39l-.5-9.58h3.39Z"/></svg>