<svg id="Layer_1" data-name="Layer 1" xmlns="http://www.w3.org/2000/svg" xmlns:xlink="http://www.w3.org/1999/xlink" viewBox="0 0 1024 170"><defs><style>.cls-1,.cls-14,.cls-15,.cls-8,.cls-9{fill:none;}.cls-2{clip-path:url(#clip-path);}.cls-3{fill:#f1f3f2;}.cls-4{clip-path:url(#clip-path-2);}.cls-5{fill:#f63;}.cls-10,.cls-11,.cls-12,.cls-13,.cls-6{fill:#fff;}.cls-7{fill:#3cc;}.cls-10,.cls-11,.cls-12,.cls-13,.cls-14,.cls-15,.cls-8,.cls-9{stroke:#3cc;}.cls-14,.cls-8{stroke-miterlimit:10;}.cls-8{stroke-width:1.61px;}.cls-10,.cls-11,.cls-12,.cls-13,.cls-15,.cls-9{stroke-linecap:round;stroke-linejoin:round;}.cls-9{stroke-width:16px;}.cls-10{stroke-width:0.73px;}.cls-11{stroke-width:0.72px;}.cls-12{stroke-width:0.73px;}.cls-13{stroke-width:0.78px;}.cls-14{stroke-width:0.3px;}.cls-15{stroke-width:0.75px;}</style><clipPath id="clip-path"><rect class="cls-1" y="-0.37" width="1024" height="170"/></clipPath><clipPath id="clip-path-2"><rect class="cls-1" y="-0.44" width="1027" height="170.94"/></clipPath></defs><title>header_id</title><g class="cls-2"><rect class="cls-3" y="-0.44" width="1147" height="170.94"/><g class="cls-4"><rect class="cls-5" x="613.44" y="-0.5" width="24.19" height="117.48"/><rect class="cls-5" x="660.19" y="-0.5" width="24.19" height="117.48"/><rect class="cls-5" x="706.95" y="-0.5" width="24.19" height="117.48"/><rect class="cls-5" x="753.71" y="-0.5" width="24.19" height="117.48"/><circle class="cls-6" cx="777.89" cy="38.01" r="11.85"/><circle class="cls-5" cx="802.6" cy="70.4" r="11.85"/><circle class="cls-6" cx="848.36" cy="96.21" r="11.85"/><circle class="cls-6" cx="894.4" cy="23.37" r="11.85"/><rect class="cls-3" x="170.1" y="54.5" width="82.59" height="106.06"/><path class="cls-7" d="M163,174.49V33.39h88.36V59.26h-60.9V91.5h55.13V116H190.46v32.64h60.9v25.87Z"/><path class="cls-7" d="M874.52,96.7H823.18l-10.52,28.88h-26L835.12-.83h28.53l48.14,126.41H885ZM831.37,74.23h34.95L848.85,26.45Z"/><path class="cls-8" d="M928.57,112.3a11.36,11.36,0,0,1-2.17.24c-5.5,0-10.48-4.15-10.48-11.44,0-7,4.63-11.29,10.09-11.29,4.06,0,7.34,2.22,9.7,6.08l3.67,6a6.38,6.38,0,0,0,2.85,2.7v-15H948v23.17c-5.5,0-10-1.78-13.37-7.39l-3.09-5.17c-1.59-2.65-3.23-3.71-5.41-3.71s-4.3,1.6-4.3,4.73c0,3.33,2.27,5,5.21,5a7.13,7.13,0,0,0,1.74-.24Z"/><path class="cls-8" d="M921.19,83.38A11.85,11.85,0,0,1,915.93,73a11.7,11.7,0,0,1,5.26-10.28c3.23-2.12,7.14-2.8,11.15-2.8s7.92.68,11.15,2.8A11.7,11.7,0,0,1,948.75,73a11.85,11.85,0,0,1-5.26,10.34c-3.23,2.12-7.14,2.75-11.15,2.75S924.42,85.51,921.19,83.38Zm19.12-5.6A5.23,5.23,0,0,0,942.86,73a5.09,5.09,0,0,0-2.56-4.68c-1.88-1.26-4.68-1.74-8-1.74s-6.08.48-8,1.74A5.09,5.09,0,0,0,921.82,73a5.23,5.23,0,0,0,2.56,4.73c1.88,1.21,4.68,1.69,8,1.69S938.42,79,940.31,77.78Z"/><path class="cls-8" d="M948,49.48H927V57h-4.49c0-4.58-2.61-7.78-5.89-8.4V42.86H948Z"/><path class="cls-8" d="M922.78,14.71a13.44,13.44,0,0,0-1.11,5.17c0,5.31,3.09,9.66,9,10.38a8.87,8.87,0,0,1-3.48-7.44c0-6.42,4.06-10.81,10.52-10.81s11,5.21,11,12.12-4.92,12.69-14.39,12.69c-11.25,0-18.39-7-18.39-17.38a13.65,13.65,0,0,1,1.45-6.57Zm20.32,9.46a5.22,5.22,0,0,0-5.26-5.55c-3.23,0-5.21,2.51-5.21,5.55a5.17,5.17,0,0,0,5.21,5.5A5.3,5.3,0,0,0,943.11,24.18Z"/><rect class="cls-7" x="954.4" y="12.01" width="12.32" height="104.72"/><rect class="cls-3" x="453.24" y="23.64" width="108.35" height="93.01"/><rect class="cls-7" x="-1.56" y="-7.18" width="54.7" height="179.82"/><rect class="cls-5" x="163" y="-0.83" width="95.47" height="34.22"/><rect class="cls-3" x="410.14" y="134.45" width="51.59" height="56.37"/><path class="cls-9" d="M480.51,114.57h0a28.39,28.39,0,0,1,56.73,0h0"/><rect class="cls-5" x="453.24" y="116.64" width="452.28" height="8.94"/><path class="cls-6" d="M53.14,7.58H-.15V84.7L23.67,65.62a4.81,4.81,0,0,1,6,0l23.44,19Z"/><polygon class="cls-6" points="53.29 -0.89 27.74 -0.89 26.51 -0.89 0 -0.89 0 76.23 26.85 54.73 53.29 76.23 53.29 -0.89"/><circle class="cls-3" cx="26.45" cy="85" r="6.61"/><rect class="cls-3" x="455.21" y="134.43" width="449.85" height="36.9"/><rect class="cls-6" x="905.05" y="116.27" width="75.49" height="54.94"/><polygon class="cls-6" points="1025.37 105.52 1002.33 105.52 1001.28 105.52 979.37 105.52 979.37 171.21 1002.54 152.74 1025.37 171.21 1025.37 105.52"/><polygon class="cls-5" points="1024.7 89.07 1002.33 89.07 1001.28 89.07 978.59 89.07 978.59 155.37 1001.82 136.91 1024.7 155.37 1024.7 89.07"/><polygon class="cls-6" points="1025.37 72.52 1002.33 72.52 1001.28 72.52 979.37 72.52 979.37 139.54 1002.54 121.08 1025.37 139.54 1025.37 72.52"/><polygon class="cls-5" points="1024.7 57.41 1002.33 57.41 1001.28 57.41 978.59 57.41 978.59 123.71 1001.82 105.25 1024.7 123.71 1024.7 57.41"/><polygon class="cls-6" points="1025.37 42.52 1002.33 42.52 1001.28 42.52 979.37 42.52 979.37 107.88 1002.54 89.41 1025.37 107.88 1025.37 42.52"/><polygon class="cls-5" points="1024.7 25.74 1002.33 25.74 1001.28 25.74 978.59 25.74 978.59 92.04 1001.82 73.58 1024.7 92.04 1024.7 25.74"/><polygon class="cls-6" points="1025.37 10.52 1002.33 10.52 1001.28 10.52 979.37 10.52 979.37 76.21 1002.54 57.75 1025.37 76.21 1025.37 10.52"/><polygon class="cls-5" points="1024.7 -5.92 1002.33 -5.92 1001.28 -5.92 978.59 -5.92 978.59 60.38 1001.82 41.91 1024.7 60.38 1024.7 -5.92"/><rect class="cls-7" x="455.67" y="125.6" width="449.67" height="8.83"/><path class="cls-6" d="M882.14,116.19l-19.66,22.47a7.55,7.55,0,0,0,0,9.9l19.7,22.85h-85.9V177H968.47V116.19Z"/><circle class="cls-3" cx="886.22" cy="143.76" r="7.34"/><polygon class="cls-7" points="455.73 134.25 437.89 152.79 455.94 171.34 402.99 171.34 402.94 134.38 455.73 134.25"/><path class="cls-5" d="M375.87,275.48V176.58l-40.6,98.91H312.38l-40.6-98.11v98.11H245.52V134.38h36.22l42.39,101.89,41.39-101.89h37.42v141.1Z"/><rect class="cls-1" y="0.5" width="1027" height="170.84"/><rect class="cls-6" x="245.55" y="-0.83" width="210.12" height="135.26"/></g><path class="cls-7" d="M602,12.72A16.28,16.28,0,1,1,585.54-3.56,16.27,16.27,0,0,1,602,12.72ZM455.85-.39h97.71V26H455.85Z"/></g><path class="cls-5" d="M132.66,85H84.28v69.56l22.24-17.67a3.41,3.41,0,0,1,4.26,0l21.89,17.66Z"/><circle class="cls-10" cx="108.82" cy="58.98" r="43.53"/><path class="cls-11" d="M70.38,60.93c0-.57,0-1.14,0-1.71A38.84,38.84,0,0,1,145,44.1"/><path class="cls-11" d="M71.51,70.72a38.85,38.85,0,0,0,74.05.49"/><path class="cls-10" d="M76.24,72.88a35.36,35.36,0,0,0,31.69,21.48H109a35.31,35.31,0,0,0,32.15-21.48"/><path class="cls-10" d="M73.47,60.81a35.33,35.33,0,0,1,30.7-36.74"/><path class="cls-10" d="M136.83,37.75A35.28,35.28,0,0,1,144,60.81"/><path class="cls-10" d="M109,23.7a35.09,35.09,0,0,1,7.43,1"/><line class="cls-12" x1="92.57" y1="76.97" x2="84.28" y2="76.97"/><line class="cls-13" x1="133.84" y1="77.28" x2="124.43" y2="77.28"/><path class="cls-7" d="M94.18,79.31V74.62h.92v4.68Z"/><path class="cls-7" d="M97,79.31h-.88V76.06H97v.4A1.08,1.08,0,0,1,97.9,76a1.14,1.14,0,0,1,1.18,1.29v2H98.2v-1.9a.57.57,0,0,0-.6-.65.61.61,0,0,0-.61.67Z"/><path class="cls-7" d="M103.06,78.72c0,.22,0,.46,0,.59h-.84a2.2,2.2,0,0,1,0-.38,1,1,0,0,1-.91.46,1.71,1.71,0,0,1,0-3.41,1,1,0,0,1,.92.4V74.52h.87Zm-1.65-.12a.83.83,0,0,0,.8-.93.81.81,0,0,0-.8-.91.93.93,0,0,0,0,1.84Z"/><path class="cls-7" d="M107.18,77.68a1.7,1.7,0,1,1-1.7-1.72A1.67,1.67,0,0,1,107.18,77.68Zm-.88,0a.83.83,0,1,0-.83.92A.83.83,0,0,0,106.3,77.68Z"/><path class="cls-7" d="M108.75,79.31h-.88V76.06h.85v.4a1.08,1.08,0,0,1,.94-.49,1.14,1.14,0,0,1,1.18,1.29v2H110v-1.9a.57.57,0,0,0-.6-.65.61.61,0,0,0-.61.67Z"/><path class="cls-7" d="M114.64,78.38a1.46,1.46,0,0,1-1.48,1,1.73,1.73,0,0,1-.08-3.45,1.52,1.52,0,0,1,1.61,1.68c0,.13,0,.26,0,.27h-2.33a.79.79,0,0,0,.82.74.72.72,0,0,0,.74-.5Zm-.82-1.06a.65.65,0,0,0-.73-.64.7.7,0,0,0-.73.64Z"/><path class="cls-7" d="M115.85,78.24a.54.54,0,0,0,.59.5c.29,0,.43-.15.43-.32s-.1-.26-.35-.32l-.43-.1a1,1,0,0,1-.91-1,1.28,1.28,0,0,1,2.49-.13l-.73.17a.5.5,0,0,0-.54-.44c-.23,0-.42.14-.42.32s.12.26.3.29l.46.1c.64.13,1,.52,1,1a1.12,1.12,0,0,1-1.26,1.07,1.22,1.22,0,0,1-1.35-1Z"/><path class="cls-7" d="M118.85,74.44a.54.54,0,1,1-.54.55A.54.54,0,0,1,118.85,74.44Zm-.44,4.86V76.06h.88v3.25Z"/><path class="cls-7" d="M121,77.44l.8-.12c.19,0,.24-.12.24-.23s-.18-.42-.55-.42a.58.58,0,0,0-.62.53L120.1,77A1.29,1.29,0,0,1,121.49,76c1,0,1.41.58,1.41,1.24v1.6a3.62,3.62,0,0,0,0,.52h-.81a2.23,2.23,0,0,1,0-.39,1.09,1.09,0,0,1-1,.48,1,1,0,0,1-1.12-1A1,1,0,0,1,121,77.44Zm1,.55v-.15l-.73.11a.41.41,0,0,0-.4.41.38.38,0,0,0,.42.38A.66.66,0,0,0,122,78Z"/><path class="cls-7" d="M85.33,40.18a1.72,1.72,0,1,1-1.72,1.74A1.72,1.72,0,0,1,85.33,40.18ZM83.94,55.63V45.3h2.79V55.63Z"/><path class="cls-7" d="M89.93,55.63V40.75h9.32v2.73H92.82v3.4h5.82v2.58H92.82V52.9h6.42v2.73Z"/><path class="cls-7" d="M115.9,55.63V45.2l-4.28,10.43H109.2l-4.28-10.35V55.63h-2.77V40.75H106l4.47,10.75,4.37-10.75h3.95V55.63Z"/><path class="cls-7" d="M131,52.23h-6l-1.24,3.4h-3.07l5.71-14.89h3.36l5.67,14.89h-3.15Zm-5.08-2.65h4.12L128,44Z"/><path class="cls-7" d="M84.26,58a.48.48,0,1,1-.48.49A.48.48,0,0,1,84.26,58Zm-.39,4.32V59.48h.78v2.89Z"/><path class="cls-7" d="M86.35,60.8v1.57h-.81V58.2H87.1a1.3,1.3,0,1,1,0,2.6Zm.65-.7a.6.6,0,1,0,0-1.19h-.64V60.1Z"/><path class="cls-7" d="M90.73,60.25l-.24,0c-.4,0-.75.19-.75.82v1.32H89V59.48h.76v.43a.86.86,0,0,1,.82-.45h.18Z"/><path class="cls-7" d="M91.67,58a.48.48,0,1,1-.48.49A.48.48,0,0,1,91.67,58Zm-.39,4.32V59.48h.78v2.89Z"/><path class="cls-7" d="M93.46,60.92a.74.74,0,0,0,.74.82.66.66,0,0,0,.66-.49l.69.23a1.34,1.34,0,0,1-1.35,1,1.5,1.5,0,0,1-1.52-1.53,1.48,1.48,0,0,1,1.5-1.53,1.32,1.32,0,0,1,1.36,1l-.7.24a.63.63,0,0,0-.64-.49A.74.74,0,0,0,93.46,60.92Z"/><path class="cls-7" d="M98.68,61.54a1.3,1.3,0,0,1-1.32.92,1.54,1.54,0,0,1-.07-3.07,1.35,1.35,0,0,1,1.43,1.5c0,.11,0,.23,0,.24H96.64a.7.7,0,0,0,.73.66.64.64,0,0,0,.66-.44ZM98,60.59a.58.58,0,0,0-.65-.57.63.63,0,0,0-.65.57Z"/><path class="cls-7" d="M100.84,62.37V58.2h2.61V59h-1.8v1h1.63v.72h-1.63v1h1.8v.76Z"/><path class="cls-7" d="M104,61v-.69h1.7V61Z"/><path class="cls-7" d="M106.23,60.29a2.1,2.1,0,0,1,2.12-2.17,1.83,1.83,0,0,1,1.91,1.38l-.76.24a1.09,1.09,0,0,0-1.15-.84,1.39,1.39,0,0,0,0,2.77,1.16,1.16,0,0,0,1.17-.85l.76.23a1.89,1.89,0,0,1-1.93,1.42A2.08,2.08,0,0,1,106.23,60.29Z"/><path class="cls-7" d="M113.61,60.92a1.52,1.52,0,1,1-1.52-1.53A1.48,1.48,0,0,1,113.61,60.92Zm-.78,0a.74.74,0,1,0-.73.82A.74.74,0,0,0,112.83,60.92Z"/><path class="cls-7" d="M114.23,62.37V59.48H115v.35a1,1,0,0,1,.85-.43.89.89,0,0,1,.86.48,1.07,1.07,0,0,1,2,.62v1.87h-.76V60.65a.48.48,0,0,0-.51-.55.53.53,0,0,0-.53.57v1.69h-.78V60.65a.49.49,0,0,0-.51-.55.53.53,0,0,0-.54.57v1.69Z"/><path class="cls-7" d="M119.42,62.37V59.48h.75v.35a1,1,0,0,1,.85-.43.89.89,0,0,1,.86.48,1.07,1.07,0,0,1,2,.62v1.87h-.76V60.65a.48.48,0,0,0-.51-.55.53.53,0,0,0-.53.57v1.69h-.78V60.65a.49.49,0,0,0-.51-.55.53.53,0,0,0-.54.57v1.69Z"/><path class="cls-7" d="M127.21,61.54a1.3,1.3,0,0,1-1.32.92,1.54,1.54,0,0,1-.07-3.07,1.35,1.35,0,0,1,1.43,1.5c0,.11,0,.23,0,.24h-2.07a.7.7,0,0,0,.73.66.64.64,0,0,0,.66-.44Zm-.73-.95a.58.58,0,0,0-.65-.57.63.63,0,0,0-.65.57Z"/><path class="cls-7" d="M129.63,60.25l-.24,0c-.4,0-.75.19-.75.82v1.32h-.78V59.48h.76v.43a.86.86,0,0,1,.82-.45h.18Z"/><path class="cls-7" d="M130.71,60.92a.74.74,0,0,0,.74.82.66.66,0,0,0,.66-.49l.69.23a1.34,1.34,0,0,1-1.35,1,1.5,1.5,0,0,1-1.52-1.53,1.48,1.48,0,0,1,1.5-1.53,1.32,1.32,0,0,1,1.36,1l-.7.24a.63.63,0,0,0-.64-.49A.74.74,0,0,0,130.71,60.92Z"/><path class="cls-7" d="M135.94,61.54a1.3,1.3,0,0,1-1.32.92,1.54,1.54,0,0,1-.07-3.07,1.35,1.35,0,0,1,1.43,1.5c0,.11,0,.23,0,.24H133.9a.7.7,0,0,0,.73.66.64.64,0,0,0,.66-.44Zm-.73-.95a.58.58,0,0,0-.65-.57.63.63,0,0,0-.65.57Z"/><path class="cls-7" d="M82,69.11V66.19l-1.2,2.92h-.68l-1.2-2.9v2.9h-.78V64.94h1.07l1.25,3,1.22-3h1.1v4.17Z"/><path class="cls-7" d="M86.27,68.28a1.3,1.3,0,0,1-1.32.92,1.54,1.54,0,0,1-.07-3.07,1.35,1.35,0,0,1,1.43,1.5c0,.11,0,.23,0,.24H84.24a.7.7,0,0,0,.73.66.64.64,0,0,0,.66-.44Zm-.73-.95a.58.58,0,0,0-.65-.57.63.63,0,0,0-.65.57Z"/><path class="cls-7" d="M88.69,67l-.24,0c-.4,0-.75.19-.75.82v1.32h-.78V66.22h.76v.43a.86.86,0,0,1,.82-.45h.18Z"/><path class="cls-7" d="M89.77,67.66a.74.74,0,0,0,.74.82.66.66,0,0,0,.66-.49l.69.23a1.34,1.34,0,0,1-1.35,1A1.5,1.5,0,0,1,89,67.66a1.48,1.48,0,0,1,1.5-1.53,1.32,1.32,0,0,1,1.36,1l-.7.24a.63.63,0,0,0-.64-.49A.74.74,0,0,0,89.77,67.66Z"/><path class="cls-7" d="M93.22,69.11h-.78V64.85h.78v1.6a1.09,1.09,0,0,1,1.86.83v1.82h-.78V67.42a.51.51,0,0,0-.53-.58.54.54,0,0,0-.54.56Z"/><path class="cls-7" d="M96.55,67.44l.71-.11c.16,0,.22-.11.22-.21s-.16-.38-.49-.38a.51.51,0,0,0-.55.47l-.69-.15a1.15,1.15,0,0,1,1.24-1c.92,0,1.26.52,1.26,1.1v1.42a3.24,3.24,0,0,0,0,.46h-.72a2,2,0,0,1,0-.35,1,1,0,0,1-.85.43.91.91,0,0,1-1-.87A.89.89,0,0,1,96.55,67.44Zm.93.49v-.13l-.65.1a.36.36,0,0,0-.36.36.34.34,0,0,0,.38.33A.59.59,0,0,0,97.48,67.94Z"/><path class="cls-7" d="M99.81,69.11H99V66.22h.76v.36a1,1,0,0,1,.83-.44,1,1,0,0,1,1,1.15v1.82h-.78V67.42a.51.51,0,0,0-.53-.58.54.54,0,0,0-.54.6Z"/><path class="cls-7" d="M103.42,66.22H104v.69h-.58v1.21c0,.25.12.33.34.33l.24,0v.65a1.16,1.16,0,0,1-.44.07.84.84,0,0,1-.92-.89V66.91h-.52v-.69h.15a.42.42,0,0,0,.45-.46v-.41h.7Z"/><path class="cls-7" d="M108.63,68.15h-1.69l-.35,1h-.86l1.6-4.17h.94l1.59,4.17H109Zm-1.42-.74h1.15l-.58-1.57Z"/><path class="cls-7" d="M112.61,66.22l.62,1.86.53-1.86h.78l-.9,2.89h-.78l-.68-2-.66,2h-.79l-.92-2.89h.82l.53,1.86.63-1.86Z"/><path class="cls-7" d="M115.7,67.44l.71-.11c.16,0,.22-.11.22-.21s-.16-.38-.49-.38a.51.51,0,0,0-.55.47l-.69-.15a1.15,1.15,0,0,1,1.24-1c.92,0,1.26.52,1.26,1.1v1.42a3.24,3.24,0,0,0,0,.46h-.72a2,2,0,0,1,0-.35,1,1,0,0,1-.85.43.91.91,0,0,1-1-.87A.89.89,0,0,1,115.7,67.44Zm.93.49v-.13l-.65.1a.36.36,0,0,0-.36.36.34.34,0,0,0,.38.33A.59.59,0,0,0,116.63,67.94Z"/><path class="cls-7" d="M119.94,67l-.24,0c-.4,0-.75.19-.75.82v1.32h-.78V66.22h.76v.43a.86.86,0,0,1,.82-.45h.18Z"/><path class="cls-7" d="M123.22,68.58c0,.19,0,.41,0,.52h-.75a2,2,0,0,1,0-.33.91.91,0,0,1-.81.41,1.52,1.52,0,0,1,0-3,.87.87,0,0,1,.82.36V64.85h.77Zm-1.47-.11a.73.73,0,0,0,.71-.83.72.72,0,0,0-.71-.8.82.82,0,0,0,0,1.63Z"/><path class="cls-7" d="M124.48,68.15a.48.48,0,0,0,.53.44c.26,0,.38-.13.38-.29s-.09-.24-.31-.28l-.38-.09c-.56-.12-.81-.46-.81-.86A1.14,1.14,0,0,1,126.1,67l-.65.15a.44.44,0,0,0-.48-.39c-.21,0-.37.12-.37.29s.11.23.26.26l.41.09c.57.12.86.46.86.89a1,1,0,0,1-1.12,1,1.09,1.09,0,0,1-1.2-.89Z"/><path class="cls-14" d="M128,66.74a1.44,1.44,0,0,1,0-.26,1.29,1.29,0,0,1,1.39-1.27,1.26,1.26,0,0,1,1.37,1.23,1.37,1.37,0,0,1-.74,1.18l-.73.45a.78.78,0,0,0-.33.35h1.83v.7H128a1.74,1.74,0,0,1,.9-1.63l.63-.38a.74.74,0,0,0,.45-.66.52.52,0,0,0-.58-.52.58.58,0,0,0-.6.63.83.83,0,0,0,0,.21Z"/><path class="cls-14" d="M131.55,65.85a1.44,1.44,0,0,1,1.26-.64,1.42,1.42,0,0,1,1.25.64,2.87,2.87,0,0,1,0,2.71,1.42,1.42,0,0,1-1.25.64,1.44,1.44,0,0,1-1.26-.64,2.92,2.92,0,0,1,0-2.71Zm.68,2.33a.64.64,0,0,0,.58.31.62.62,0,0,0,.57-.31,2.32,2.32,0,0,0,0-1.94.62.62,0,0,0-.57-.31.64.64,0,0,0-.58.31,2.39,2.39,0,0,0,0,1.94Z"/><path class="cls-14" d="M135.67,69.11V66.56h-.92V66a1,1,0,0,0,1-.72h.7v3.81Z"/><path class="cls-14" d="M139.9,66a1.63,1.63,0,0,0-.63-.13A1.19,1.19,0,0,0,138,67a1.08,1.08,0,0,1,.9-.42,1.22,1.22,0,0,1,1.32,1.28,1.37,1.37,0,0,1-1.47,1.34,1.56,1.56,0,0,1-1.54-1.75,2.05,2.05,0,0,1,2.12-2.24,1.66,1.66,0,0,1,.8.18Zm-1.15,2.47a.64.64,0,1,0-.67-.64A.64.64,0,0,0,138.75,68.51Z"/><path class="cls-10" d="M70.34,64.53s-.82,12,12.84,24"/><path class="cls-10" d="M145.89,47.14s4.49,14.7-1.88,28.09"/><path class="cls-15" d="M120.47,25.63a33.58,33.58,0,0,1,14,9.21"/><path class="cls-7" d="M263.92,33.25a1.68,1.68,0,1,1-1.68,1.7A1.68,1.68,0,0,1,263.92,33.25Zm-1.35,15V38.23h2.72V48.29Z"/><path class="cls-7" d="M271.22,42.83v5.46H268.4V33.8h5.42a4.52,4.52,0,1,1,0,9Zm2.25-2.43a2.08,2.08,0,1,0,0-4.15h-2.23V40.4Z"/><path class="cls-7" d="M286.47,40.93a4.11,4.11,0,0,0-.82-.08c-1.39,0-2.6.67-2.6,2.84v4.6h-2.72V38.23H283v1.49a3,3,0,0,1,2.86-1.57,6.21,6.21,0,0,1,.63,0Z"/><path class="cls-7" d="M289.74,33.25a1.68,1.68,0,1,1-1.68,1.7A1.68,1.68,0,0,1,289.74,33.25Zm-1.35,15V38.23h2.72V48.29Z"/><path class="cls-7" d="M296,43.26a2.59,2.59,0,0,0,2.57,2.84,2.3,2.3,0,0,0,2.31-1.7l2.39.8a4.67,4.67,0,0,1-4.7,3.39,5.2,5.2,0,0,1-5.29-5.33,5.15,5.15,0,0,1,5.21-5.33,4.6,4.6,0,0,1,4.72,3.39l-2.43.82a2.19,2.19,0,0,0-2.23-1.7A2.56,2.56,0,0,0,296,43.26Z"/><path class="cls-7" d="M314.17,45.41a4.53,4.53,0,0,1-4.58,3.19,5.09,5.09,0,0,1-5.19-5.38,5,5,0,0,1,4.95-5.29c3.11,0,5,2,5,5.21,0,.39,0,.8,0,.84h-7.19a2.45,2.45,0,0,0,2.53,2.29,2.22,2.22,0,0,0,2.29-1.53Zm-2.53-3.29a2,2,0,0,0-2.25-2,2.18,2.18,0,0,0-2.25,2Z"/><path class="cls-7" d="M321.72,48.29V33.8h9.08v2.66h-6.26v3.31h5.66v2.51h-5.66v3.35h6.26v2.66Z"/><path class="cls-7" d="M332.84,43.43V41h5.93v2.41Z"/><path class="cls-7" d="M340.48,41.06a7.31,7.31,0,0,1,7.38-7.56c4,0,6.07,2.45,6.64,4.8l-2.66.84a3.79,3.79,0,0,0-4-2.92,4.46,4.46,0,0,0-4.46,4.84,4.47,4.47,0,0,0,4.5,4.78,4,4,0,0,0,4.07-3l2.64.8a6.59,6.59,0,0,1-6.7,4.93A7.24,7.24,0,0,1,340.48,41.06Z"/><path class="cls-7" d="M366.2,43.26a5.27,5.27,0,1,1-5.27-5.33A5.16,5.16,0,0,1,366.2,43.26Zm-2.72,0a2.57,2.57,0,1,0-5.11,0,2.57,2.57,0,1,0,5.11,0Z"/><path class="cls-7" d="M368.35,48.29V38.23h2.6v1.23a3.46,3.46,0,0,1,2.94-1.51,3.11,3.11,0,0,1,3,1.68,3.72,3.72,0,0,1,6.83,2.15v6.52h-2.64v-6a1.68,1.68,0,0,0-1.78-1.9,1.85,1.85,0,0,0-1.86,2v5.89h-2.7v-6a1.69,1.69,0,0,0-1.78-1.9,1.84,1.84,0,0,0-1.88,2v5.89Z"/><path class="cls-7" d="M386.46,48.29V38.23h2.6v1.23A3.46,3.46,0,0,1,392,37.95a3.11,3.11,0,0,1,3,1.68,3.72,3.72,0,0,1,6.83,2.15v6.52h-2.64v-6a1.68,1.68,0,0,0-1.78-1.9,1.85,1.85,0,0,0-1.86,2v5.89h-2.7v-6a1.69,1.69,0,0,0-1.78-1.9,1.84,1.84,0,0,0-1.88,2v5.89Z"/><path class="cls-7" d="M413.58,45.41A4.53,4.53,0,0,1,409,48.6a5.09,5.09,0,0,1-5.19-5.38,5,5,0,0,1,4.95-5.29c3.11,0,5,2,5,5.21,0,.39,0,.8,0,.84h-7.19A2.45,2.45,0,0,0,409,46.27a2.22,2.22,0,0,0,2.29-1.53ZM411,42.12a2,2,0,0,0-2.25-2,2.18,2.18,0,0,0-2.25,2Z"/><path class="cls-7" d="M422,40.93a4.11,4.11,0,0,0-.82-.08c-1.39,0-2.6.67-2.6,2.84v4.6h-2.72V38.23h2.64v1.49a3,3,0,0,1,2.86-1.57,6.21,6.21,0,0,1,.63,0Z"/><path class="cls-7" d="M425.79,43.26a2.59,2.59,0,0,0,2.58,2.84,2.3,2.3,0,0,0,2.31-1.7l2.39.8a4.67,4.67,0,0,1-4.7,3.39,5.2,5.2,0,0,1-5.29-5.33,5.15,5.15,0,0,1,5.21-5.33A4.6,4.6,0,0,1,433,41.32l-2.43.82a2.19,2.19,0,0,0-2.23-1.7A2.56,2.56,0,0,0,425.79,43.26Z"/><path class="cls-7" d="M444,45.41a4.53,4.53,0,0,1-4.58,3.19,5.09,5.09,0,0,1-5.19-5.38,5,5,0,0,1,4.95-5.29c3.11,0,5,2,5,5.21,0,.39,0,.8,0,.84h-7.2a2.45,2.45,0,0,0,2.53,2.29,2.22,2.22,0,0,0,2.29-1.53Zm-2.53-3.29a2,2,0,0,0-2.25-2,2.18,2.18,0,0,0-2.25,2Z"/><path class="cls-7" d="M276.17,68.27V58.11L272,68.27h-2.35l-4.17-10.08V68.27h-2.7V53.78h3.72l4.35,10.47,4.25-10.47h3.84V68.27Z"/><path class="cls-7" d="M291,65.39a4.53,4.53,0,0,1-4.58,3.19,5.34,5.34,0,0,1-.25-10.67c3.11,0,5,2,5,5.21,0,.39,0,.8,0,.84h-7.2a2.45,2.45,0,0,0,2.53,2.29,2.22,2.22,0,0,0,2.29-1.53Zm-2.53-3.29a2,2,0,0,0-2.25-2,2.18,2.18,0,0,0-2.25,2Z"/><path class="cls-7" d="M299.43,60.91a4.11,4.11,0,0,0-.82-.08c-1.39,0-2.6.67-2.6,2.84v4.6H293.3V58.21h2.64V59.7a3,3,0,0,1,2.86-1.57,6.21,6.21,0,0,1,.63,0Z"/><path class="cls-7" d="M303.22,63.24a2.59,2.59,0,0,0,2.58,2.84,2.3,2.3,0,0,0,2.31-1.7l2.39.8a4.67,4.67,0,0,1-4.7,3.39,5.2,5.2,0,0,1-5.29-5.33,5.15,5.15,0,0,1,5.21-5.33,4.6,4.6,0,0,1,4.72,3.39l-2.43.82a2.19,2.19,0,0,0-2.23-1.7A2.56,2.56,0,0,0,303.22,63.24Z"/><path class="cls-7" d="M315.22,68.27H312.5V53.47h2.72v5.58a3.59,3.59,0,0,1,2.72-1.1c2.55,0,3.74,1.78,3.74,4v6.34H319V62.4a1.77,1.77,0,0,0-1.86-2,1.88,1.88,0,0,0-1.88,2Z"/><path class="cls-7" d="M326.83,62.48l2.47-.37c.57-.08.76-.37.76-.72,0-.72-.55-1.31-1.7-1.31a1.79,1.79,0,0,0-1.92,1.64L324,61.22c.16-1.57,1.61-3.31,4.31-3.31,3.19,0,4.37,1.8,4.37,3.82v4.95a11.24,11.24,0,0,0,.12,1.59h-2.49a6.8,6.8,0,0,1-.1-1.21,3.36,3.36,0,0,1-3,1.49,3.18,3.18,0,0,1-3.45-3C323.82,63.73,325.15,62.73,326.83,62.48Zm3.23,1.72v-.45l-2.27.35a1.27,1.27,0,0,0-1.25,1.27,1.18,1.18,0,0,0,1.31,1.16A2,2,0,0,0,330.06,64.2Z"/><path class="cls-7" d="M338.17,68.27h-2.72V58.21h2.64v1.25a3.34,3.34,0,0,1,2.9-1.51c2.49,0,3.64,1.78,3.64,4v6.34h-2.72V62.4a1.77,1.77,0,0,0-1.86-2,1.89,1.89,0,0,0-1.88,2.08Z"/><path class="cls-7" d="M350.74,58.21h2v2.41h-2v4.21c0,.88.41,1.17,1.19,1.17a4,4,0,0,0,.84-.08v2.25a4,4,0,0,1-1.53.25A2.91,2.91,0,0,1,348,65.31V60.62h-1.82V58.21h.51a1.45,1.45,0,0,0,1.55-1.59V55.21h2.45Z"/><path class="cls-7" d="M271.41,84.94h-5.89l-1.21,3.31h-3l5.56-14.49h3.27l5.52,14.49h-3.07Zm-4.95-2.58h4l-2-5.48Z"/><path class="cls-7" d="M285.29,78.19l2.17,6.48,1.86-6.48H292l-3.15,10.06h-2.72l-2.35-6.87-2.31,6.87h-2.76l-3.21-10.06h2.86l1.86,6.46,2.19-6.46Z"/><path class="cls-7" d="M296.06,82.46l2.47-.37c.57-.08.76-.37.76-.72,0-.72-.55-1.31-1.7-1.31a1.79,1.79,0,0,0-1.92,1.64l-2.41-.51c.16-1.57,1.61-3.31,4.31-3.31,3.19,0,4.37,1.8,4.37,3.82v4.95a11.24,11.24,0,0,0,.12,1.59h-2.49a6.8,6.8,0,0,1-.1-1.21,3.36,3.36,0,0,1-3,1.49,3.18,3.18,0,0,1-3.45-3C293.06,83.71,294.38,82.71,296.06,82.46Zm3.23,1.72v-.45l-2.27.35a1.27,1.27,0,0,0-1.25,1.27,1.18,1.18,0,0,0,1.31,1.16A2,2,0,0,0,299.29,84.18Z"/><path class="cls-7" d="M310.82,80.89a4.11,4.11,0,0,0-.82-.08c-1.39,0-2.6.67-2.6,2.84v4.6h-2.72V78.19h2.64v1.49a3,3,0,0,1,2.86-1.57,6.21,6.21,0,0,1,.63,0Z"/><path class="cls-7" d="M322.23,86.43c0,.67,0,1.41.08,1.82h-2.6a7,7,0,0,1-.1-1.16,3.15,3.15,0,0,1-2.82,1.41c-2.86,0-4.91-2.25-4.91-5.29s2-5.25,4.82-5.25c1.74,0,2.55.72,2.84,1.25V73.45h2.68Zm-5.11-.37c1.39,0,2.47-1.06,2.47-2.88a2.49,2.49,0,0,0-2.47-2.8,2.52,2.52,0,0,0-2.49,2.82C314.62,85,315.69,86.06,317.12,86.06Z"/><path class="cls-7" d="M326.64,84.94a1.67,1.67,0,0,0,1.84,1.53c.9,0,1.33-.47,1.33-1s-.31-.82-1.08-1l-1.33-.31c-1.94-.43-2.82-1.59-2.82-3a3.51,3.51,0,0,1,3.76-3.29c2.86,0,3.82,1.82,3.95,2.9L330,81.3a1.53,1.53,0,0,0-1.66-1.35,1.16,1.16,0,0,0-1.29,1c0,.49.37.8.92.9l1.43.31c2,.41,3,1.61,3,3.09,0,1.64-1.27,3.31-3.9,3.31-3,0-4.07-2-4.19-3.11Z"/><path class="cls-7" d="M339.05,80a5,5,0,0,1-.1-.92c0-2.33,1.76-4.44,4.84-4.44s4.78,2,4.78,4.27A4.76,4.76,0,0,1,346,83.06l-2.56,1.55a2.7,2.7,0,0,0-1.14,1.21h6.36v2.43h-9.81A6.06,6.06,0,0,1,342,82.59l2.19-1.31A2.59,2.59,0,0,0,345.74,79a1.81,1.81,0,0,0-2-1.82,2,2,0,0,0-2.11,2.21,2.9,2.9,0,0,0,.1.74Z"/><path class="cls-7" d="M351.3,76.9a5,5,0,0,1,4.37-2.23A5,5,0,0,1,360,76.9a10,10,0,0,1,0,9.44,5,5,0,0,1-4.35,2.23,5,5,0,0,1-4.37-2.23,8.46,8.46,0,0,1-1.17-4.72A8.46,8.46,0,0,1,351.3,76.9ZM353.67,85a2.21,2.21,0,0,0,2,1.08,2.16,2.16,0,0,0,2-1.08,6.21,6.21,0,0,0,.74-3.37,6.21,6.21,0,0,0-.74-3.37,2.16,2.16,0,0,0-2-1.08,2.21,2.21,0,0,0-2,1.08,8.3,8.3,0,0,0,0,6.75Z"/><path class="cls-7" d="M365.65,88.25V79.38h-3.19v-1.9A3.39,3.39,0,0,0,366,75h2.43V88.25Z"/><path class="cls-7" d="M380.37,77.58a5.67,5.67,0,0,0-2.19-.47,4.16,4.16,0,0,0-4.39,3.8,3.75,3.75,0,0,1,3.15-1.47,4.25,4.25,0,0,1,4.58,4.46c0,2.72-2.21,4.66-5.13,4.66S371,86.47,371,82.46c0-4.76,3-7.79,7.36-7.79a5.77,5.77,0,0,1,2.78.61Zm-4,8.61a2.22,2.22,0,1,0,0-4.44A2.19,2.19,0,0,0,374,84,2.24,2.24,0,0,0,376.36,86.18Z"/><path class="cls-5" d="M262.41,105.19V93.91h2.23v11.29Z"/><path class="cls-5" d="M269.18,105.19h-2.12V97.36h2.05v1a2.6,2.6,0,0,1,2.26-1.18c1.94,0,2.83,1.38,2.83,3.1v4.93h-2.12v-4.57a1.38,1.38,0,0,0-1.45-1.56,1.47,1.47,0,0,0-1.46,1.62Z"/><path class="cls-5" d="M283.83,103.78c0,.53,0,1.1.06,1.42h-2a5.4,5.4,0,0,1-.08-.91,2.46,2.46,0,0,1-2.2,1.1,4.12,4.12,0,0,1-.06-8.21,2.35,2.35,0,0,1,2.21,1V93.67h2.08Zm-4-.29a2,2,0,0,0,1.93-2.24,1.94,1.94,0,0,0-1.93-2.18,2.23,2.23,0,0,0,0,4.43Z"/><path class="cls-5" d="M293.74,101.28a4.11,4.11,0,1,1-4.11-4.15A4,4,0,0,1,293.74,101.28Zm-2.12,0a2,2,0,1,0-2,2.23A2,2,0,0,0,291.63,101.28Z"/><path class="cls-5" d="M297.53,105.19h-2.12V97.36h2.05v1a2.6,2.6,0,0,1,2.26-1.18c1.94,0,2.83,1.38,2.83,3.1v4.93h-2.12v-4.57A1.38,1.38,0,0,0,299,99.07a1.47,1.47,0,0,0-1.46,1.62Z"/><path class="cls-5" d="M311.73,103a3.53,3.53,0,0,1-3.57,2.48,4.16,4.16,0,0,1-.19-8.31c2.42,0,3.87,1.54,3.87,4.06,0,.3,0,.62,0,.65h-5.6a1.91,1.91,0,0,0,2,1.78,1.73,1.73,0,0,0,1.78-1.19Zm-2-2.56A1.57,1.57,0,0,0,308,98.84a1.69,1.69,0,0,0-1.75,1.54Z"/><path class="cls-5" d="M314.66,102.62a1.3,1.3,0,0,0,1.43,1.19c.7,0,1-.37,1-.78s-.24-.64-.84-.76l-1-.24c-1.51-.33-2.2-1.24-2.2-2.34A2.73,2.73,0,0,1,316,97.12c2.23,0,3,1.42,3.07,2.26l-1.77.4A1.19,1.19,0,0,0,316,98.73a.9.9,0,0,0-1,.78c0,.38.29.62.72.7l1.11.24c1.54.32,2.32,1.26,2.32,2.4s-1,2.58-3,2.58c-2.36,0-3.17-1.53-3.26-2.42Z"/><path class="cls-5" d="M321.91,93.48a1.31,1.31,0,1,1-1.31,1.32A1.3,1.3,0,0,1,321.91,93.48Zm-1.05,11.72V97.36H323v7.83Z"/><path class="cls-5" d="M327.1,100.69l1.93-.29c.45-.06.59-.29.59-.56,0-.56-.43-1-1.32-1a1.39,1.39,0,0,0-1.5,1.27l-1.88-.4a3.11,3.11,0,0,1,3.36-2.58c2.48,0,3.41,1.4,3.41,3V104a8.71,8.71,0,0,0,.1,1.24h-1.94a5.27,5.27,0,0,1-.08-.94,2.62,2.62,0,0,1-2.31,1.16,2.47,2.47,0,0,1-2.69-2.36A2.41,2.41,0,0,1,327.1,100.69Zm2.51,1.34v-.35l-1.77.27a1,1,0,0,0-1,1,.92.92,0,0,0,1,.91A1.59,1.59,0,0,0,329.61,102Z"/></svg>