<svg id="Layer_1" data-name="Layer 1" xmlns="http://www.w3.org/2000/svg" xmlns:xlink="http://www.w3.org/1999/xlink" viewBox="0 0 1160 73.7"><defs><style>.cls-1{fill:none;}.cls-2{fill:#f1f3f2;}.cls-3{fill:#f63;}.cls-4{clip-path:url(#clip-path);}.cls-5{fill:#fff;}.cls-6{fill:#3cc;}</style><clipPath id="clip-path"><rect class="cls-1" y="-0.04" width="1160.24" height="73.52"/></clipPath></defs><title>Artboard 68 copy 4</title><rect class="cls-2" y="0.11" width="1161.06" height="73.5" transform="translate(-0.06 0.88) rotate(-0.09)"/><path class="cls-3" d="M297.94,39.9q0,1.26-.42,1.59a3.12,3.12,0,0,1-1.75.33H292.2a3.1,3.1,0,0,1-1.74-.33q-.42-.33-.42-1.59V38a3,3,0,0,1,.55-1.9,1.86,1.86,0,0,1,1.56-.7,1.63,1.63,0,0,1,0,3.27,1.93,1.93,0,0,1-.58-.09V40c0,.37.17.56.5.56h3.83q.5,0,.5-.56v-4.9a2.52,2.52,0,0,0-.59-1.77,2.82,2.82,0,0,0-2.13-.65q-2.39,0-2.88,1.82l-1.5-.2q.66-3,4.63-3a4.44,4.44,0,0,1,3,.88,3.63,3.63,0,0,1,1,2.83Zm-5.8-2.28a.57.57,0,0,0,0-1.13.55.55,0,0,0-.4.17.54.54,0,0,0,0,.79A.55.55,0,0,0,292.15,37.61Z"/><path class="cls-3" d="M297.29,25.51h-1.1V22.22h1.1Z"/><path class="cls-3" d="M307.36,41.82h-1.54V35a2.6,2.6,0,0,0-.56-1.73,2,2,0,0,0-1.59-.66,2.23,2.23,0,0,0-2.32,1.82l-1.5-.2q.71-3,4.07-3T307.36,35Z"/><path class="cls-3" d="M313.18,41.82h-1.62V34.39a1.83,1.83,0,0,1-.57.09,1.59,1.59,0,0,1-1.16-.48,1.61,1.61,0,0,1,0-2.3,1.58,1.58,0,0,1,1.16-.48,1.88,1.88,0,0,1,1.55.68,3,3,0,0,1,.55,1.92v6.65a15.73,15.73,0,0,1,3.76-2.25V31.31h1.54V38.1a2.85,2.85,0,0,1,1.61.75,1.85,1.85,0,0,1,.6,1.36,1.73,1.73,0,0,1-.44,1.25,1.55,1.55,0,0,1-1.18.45q-2.13,0-2.13-2.62A14.75,14.75,0,0,0,313.18,41.82ZM311,32.28a.55.55,0,0,0-.4.17.54.54,0,0,0-.17.39.59.59,0,0,0,.58.58.54.54,0,0,0,.39-.17.55.55,0,0,0,.17-.4.59.59,0,0,0-.57-.57Zm7.4,6.86V40a1,1,0,0,0,.17.6.51.51,0,0,0,.43.22.49.49,0,0,0,.38-.19.68.68,0,0,0,.17-.45.93.93,0,0,0-.31-.68A1.5,1.5,0,0,0,318.4,39.14Z"/><path class="cls-3" d="M329.48,32.47a6.32,6.32,0,0,1-1.74.18l-2.61-.11a1.62,1.62,0,0,0-1.19.4,1.27,1.27,0,0,0-.4.92.83.83,0,0,0,0,.19,10.2,10.2,0,0,1,2.09-.2,4.64,4.64,0,0,1,2.76.65,3.17,3.17,0,0,1,.86,2.63v2.19a3,3,0,0,1-.55,1.92,1.89,1.89,0,0,1-1.56.68,1.63,1.63,0,0,1,0-3.27,1.93,1.93,0,0,1,.57.09V37.18a2.36,2.36,0,0,0-.42-1.52,2.11,2.11,0,0,0-1.68-.52,12.16,12.16,0,0,0-3.36.45,9.18,9.18,0,0,1-.07-1.14q0-3.25,2.9-3.25l2.61.12a6.51,6.51,0,0,0,1.6-.16Zm-2.32,8.39a.59.59,0,0,0,.57-.58.54.54,0,0,0-.17-.39.55.55,0,0,0-.4-.17.59.59,0,0,0-.57.57.55.55,0,0,0,.17.4A.54.54,0,0,0,327.16,40.85Z"/><path class="cls-3" d="M338.69,41.82h-1.54V35a2.6,2.6,0,0,0-.56-1.73,2,2,0,0,0-1.59-.66,2.23,2.23,0,0,0-2.32,1.82l-1.5-.2q.71-3,4.07-3T338.69,35Z"/><path class="cls-3" d="M349.87,39.9q0,1.26-.42,1.59a3.12,3.12,0,0,1-1.75.33h-4a3.1,3.1,0,0,1-1.74-.33q-.42-.33-.42-1.59V38.34A2,2,0,0,1,342,37a1.84,1.84,0,0,1,1.19-.64,1.8,1.8,0,0,1-1.61-2v-.57a3,3,0,0,1,.56-1.91,1.87,1.87,0,0,1,1.54-.7,1.63,1.63,0,0,1,0,3.27,1.93,1.93,0,0,1-.58-.09,1.37,1.37,0,0,0,.51,1.14,2.36,2.36,0,0,0,1.49.4v.87q-2,0-2,1.75V40c0,.37.17.56.5.56h4.25c.33,0,.5-.19.5-.56V31.31h1.54Zm-6.21-6.48a.54.54,0,0,0,.39-.17.55.55,0,0,0,.17-.4.59.59,0,0,0-.57-.57.55.55,0,0,0-.4.17.54.54,0,0,0-.17.39.59.59,0,0,0,.58.58Z"/><path class="cls-3" d="M360.77,41.82h-1.54v-2a6.32,6.32,0,0,0-1.36-2.39,2.62,2.62,0,0,0-1.92-1,1.72,1.72,0,0,0-1.34.49,2.12,2.12,0,0,0-.45,1.47v.28a1.87,1.87,0,0,1,.57-.09,1.63,1.63,0,0,1,0,3.27,1.9,1.9,0,0,1-1.56-.68,3,3,0,0,1-.55-1.92v-.88a3.19,3.19,0,0,1,.89-2.36,3.32,3.32,0,0,1,2.46-.89,3.28,3.28,0,0,1,1.93.62,3.89,3.89,0,0,1,1.34,1.66V35a2.49,2.49,0,0,0-.59-1.75,2.83,2.83,0,0,0-2.13-.64,3.58,3.58,0,0,0-1.92.45,2.21,2.21,0,0,0-1,1.36l-1.5-.2A3.46,3.46,0,0,1,353.61,32a5.7,5.7,0,0,1,3.15-.76,4.43,4.43,0,0,1,3,.88,3.64,3.64,0,0,1,1,2.83Zm-6-1a.54.54,0,0,0,.39-.17.55.55,0,0,0,.17-.4.59.59,0,0,0-.57-.57.55.55,0,0,0-.4.17.54.54,0,0,0-.17.39.59.59,0,0,0,.57.58Z"/><path class="cls-3" d="M370,32.55a4,4,0,0,1-1.42,2.4,4.24,4.24,0,0,1-2.7.84,3.51,3.51,0,0,1-2.15-.62,1.85,1.85,0,0,1-.84-1.53,1.46,1.46,0,0,1,.44-1.07,1.51,1.51,0,0,1,2.57,1,1.41,1.41,0,0,1-.48,1.1,1.32,1.32,0,0,0,.46.06,3.43,3.43,0,0,0,2-.56,2.77,2.77,0,0,0,1-1.68Zm0,5.08A4,4,0,0,1,368.61,40a4.24,4.24,0,0,1-2.7.84,3.51,3.51,0,0,1-2.15-.62,1.85,1.85,0,0,1-.84-1.53,1.47,1.47,0,0,1,.44-1.08,1.51,1.51,0,0,1,2.57,1.06,1.41,1.41,0,0,1-.48,1.1,1.32,1.32,0,0,0,.46.06,3.41,3.41,0,0,0,2-.56,2.79,2.79,0,0,0,1-1.68Zm-5.6-3.51a.47.47,0,0,0,.34-.15.48.48,0,0,0,.15-.35.49.49,0,0,0-1,0,.48.48,0,0,0,.15.35A.47.47,0,0,0,364.43,34.13Zm0,5.08a.48.48,0,0,0,.34-.14.47.47,0,0,0,.15-.35.49.49,0,0,0-1,0,.47.47,0,0,0,.15.35A.48.48,0,0,0,364.43,39.21Z"/><path class="cls-3" d="M375.85,40.28a1.65,1.65,0,0,1-1.63,1.63,1.89,1.89,0,0,1-1.56-.68,3,3,0,0,1-.55-1.92v-8h1.53v7.43a1.94,1.94,0,0,1,.58-.09,1.65,1.65,0,0,1,1.63,1.63Zm-1.07,0a.59.59,0,0,0-.57-.57.55.55,0,0,0-.4.17.54.54,0,0,0-.17.39.59.59,0,0,0,.58.58.54.54,0,0,0,.39-.17A.55.55,0,0,0,374.79,40.28Z"/><path class="cls-3" d="M385.75,39.9q0,1.26-.42,1.59a3.12,3.12,0,0,1-1.75.33H380a3.1,3.1,0,0,1-1.74-.33q-.42-.33-.42-1.59V38a3,3,0,0,1,.55-1.9,1.86,1.86,0,0,1,1.56-.7,1.63,1.63,0,0,1,0,3.27,1.93,1.93,0,0,1-.58-.09V40c0,.37.17.56.5.56h3.83q.5,0,.5-.56v-4.9a2.52,2.52,0,0,0-.59-1.77,2.82,2.82,0,0,0-2.13-.65q-2.39,0-2.88,1.82l-1.5-.2q.66-3,4.63-3a4.44,4.44,0,0,1,3,.88,3.63,3.63,0,0,1,1,2.83ZM380,37.61a.57.57,0,0,0,0-1.13.55.55,0,0,0-.4.17.54.54,0,0,0,0,.79A.55.55,0,0,0,380,37.61Z"/><path class="cls-3" d="M385.1,30.19h-7.3V30a2.75,2.75,0,0,1,3.1-2.9,4.15,4.15,0,0,1,3.1,1.33v-1.8h1.1Zm-1.72-1a2.84,2.84,0,0,0-2.49-1.09,2.45,2.45,0,0,0-1.29.3,1.2,1.2,0,0,0-.6.78Z"/><path class="cls-3" d="M396.92,39.9q0,1.26-.42,1.59a3.12,3.12,0,0,1-1.75.33h-4a3.1,3.1,0,0,1-1.74-.33q-.42-.33-.42-1.59V38.34A2,2,0,0,1,389,37a1.84,1.84,0,0,1,1.19-.64,1.8,1.8,0,0,1-1.61-2v-.57a3,3,0,0,1,.56-1.91,1.87,1.87,0,0,1,1.54-.7,1.63,1.63,0,0,1,0,3.27,1.93,1.93,0,0,1-.58-.09,1.37,1.37,0,0,0,.51,1.14,2.36,2.36,0,0,0,1.49.4v.87q-2,0-2,1.75V40c0,.37.17.56.5.56h4.25c.33,0,.5-.19.5-.56V31.31h1.54Zm-6.21-6.48a.54.54,0,0,0,.39-.17.55.55,0,0,0,.17-.4.59.59,0,0,0-.57-.57.55.55,0,0,0-.4.17.54.54,0,0,0-.17.39.59.59,0,0,0,.58.58Z"/><path class="cls-3" d="M408.41,41.82h-1.53V34.75a1.79,1.79,0,0,0-.86-1.5,3.49,3.49,0,0,0-2.07-.61,3.56,3.56,0,0,0-2.19.68,2.1,2.1,0,0,0-.9,1.75,11.67,11.67,0,0,0,.56,2.81,8.79,8.79,0,0,1,.4,1.86,8.14,8.14,0,0,1,.57-.71,9.12,9.12,0,0,0,.91-1.2,1.68,1.68,0,0,1-.85-.61,1.59,1.59,0,0,1-.32-1,1.63,1.63,0,0,1,3.27,0v.07a3,3,0,0,1-.38,1.39,9.5,9.5,0,0,1-1.75,2.06,8.49,8.49,0,0,0-1.2,1.33,1.4,1.4,0,0,0-.24.7h-1.54V40.28a12,12,0,0,0-.46-2.61,12.14,12.14,0,0,1-.47-2.67,3.52,3.52,0,0,1,1.22-2.64,4.73,4.73,0,0,1,3.36-1.14,5,5,0,0,1,3.28,1,3.09,3.09,0,0,1,1.22,2.5Zm-4.67-5a.59.59,0,0,0,.57-.57.54.54,0,0,0-.17-.4.55.55,0,0,0-.8,0,.54.54,0,0,0,0,.79A.55.55,0,0,0,403.74,36.84Z"/><path class="cls-3" d="M414.87,40.28a1.65,1.65,0,0,1-1.63,1.63,1.89,1.89,0,0,1-1.56-.68,3,3,0,0,1-.55-1.92v-8h1.53v7.43a1.94,1.94,0,0,1,.58-.09,1.65,1.65,0,0,1,1.63,1.63Zm-1.07,0a.59.59,0,0,0-.57-.57.55.55,0,0,0-.4.17.54.54,0,0,0-.17.39.59.59,0,0,0,.58.58.54.54,0,0,0,.39-.17A.55.55,0,0,0,413.81,40.28Z"/><path class="cls-3" d="M427.22,41.82h-1.77l-2.32-7.05q-.18-.53-.42-1.6-.25,1.09-.42,1.6L420,41.82h-1.74V34.39a1.83,1.83,0,0,1-.57.09,1.59,1.59,0,0,1-1.16-.48,1.61,1.61,0,0,1,0-2.3,1.58,1.58,0,0,1,1.16-.48,1.88,1.88,0,0,1,1.55.69,3,3,0,0,1,.56,1.92v5.6q.57-1.93.68-2.25l1.86-5.86h.84q2.29,7.15,2.55,8.1v-8.1h1.54Zm-9.57-8.4a.54.54,0,0,0,.39-.17.55.55,0,0,0,.17-.4.59.59,0,0,0-.57-.57.55.55,0,0,0-.4.17.54.54,0,0,0-.17.39.59.59,0,0,0,.58.58Z"/><path class="cls-3" d="M426.57,30.19h-7.3V30a2.75,2.75,0,0,1,3.1-2.9,4.12,4.12,0,0,1,2.48.8A5.22,5.22,0,0,1,426.57,30.19Zm-1.72-1a2.84,2.84,0,0,0-2.49-1.09,2.45,2.45,0,0,0-1.29.3,1.2,1.2,0,0,0-.6.78Z"/><path class="cls-3" d="M426.57,25.51h-1.1V22.22h1.1Z"/><path class="cls-3" d="M438.25,41.82h-1.61A14.76,14.76,0,0,0,433,39.29q0,2.62-2.12,2.62a1.57,1.57,0,0,1-1.19-.45,1.73,1.73,0,0,1-.44-1.25,1.85,1.85,0,0,1,.6-1.36,2.87,2.87,0,0,1,1.6-.75V34.37a1.56,1.56,0,0,1-.57.11,1.59,1.59,0,0,1-1.16-.48,1.61,1.61,0,0,1,0-2.3,1.58,1.58,0,0,1,1.16-.48,1.88,1.88,0,0,1,1.55.69,3,3,0,0,1,.56,1.92v4.41a15.75,15.75,0,0,1,3.76,2.25V31.31h1.54Zm-7.4-9.54a.55.55,0,0,0-.4.17.54.54,0,0,0-.17.39.59.59,0,0,0,.58.58.54.54,0,0,0,.39-.17.55.55,0,0,0,.17-.4.59.59,0,0,0-.57-.57Zm.57,7.75v-.89a1.5,1.5,0,0,0-.83.39.93.93,0,0,0-.32.68.68.68,0,0,0,.17.45.5.5,0,0,0,.81,0A1,1,0,0,0,431.42,40Z"/><path class="cls-3" d="M444.85,40.28a1.65,1.65,0,0,1-1.63,1.63,1.89,1.89,0,0,1-1.56-.68,3,3,0,0,1-.55-1.92v-8h1.53v7.43a1.94,1.94,0,0,1,.58-.09,1.65,1.65,0,0,1,1.63,1.63Zm-1.07,0a.59.59,0,0,0-.57-.57.55.55,0,0,0-.4.17.54.54,0,0,0-.17.39.59.59,0,0,0,.58.58.54.54,0,0,0,.39-.17A.55.55,0,0,0,443.78,40.28Z"/><path class="cls-3" d="M455.48,41.82H454V34.75a2.36,2.36,0,0,0-1.35-2.07L451,34l-1.58-1.35a2.46,2.46,0,0,0-1.52,2.47,10.73,10.73,0,0,0,.42,2.14,11.34,11.34,0,0,1,.44,2.3,5.47,5.47,0,0,1,.65-.7,5.57,5.57,0,0,0,.93-1.07,1.68,1.68,0,0,1-.85-.61,1.59,1.59,0,0,1-.32-1,1.63,1.63,0,0,1,3.27,0v.07a3,3,0,0,1-.38,1.39,9.48,9.48,0,0,1-1.73,2.06,8.27,8.27,0,0,0-1.2,1.33,1.42,1.42,0,0,0-.23.7h-1.58V40.3a11,11,0,0,0-.46-2.57,10.79,10.79,0,0,1-.47-2.58q0-2.8,3-4L451,32.55l1.58-1.37a5.24,5.24,0,0,1,2.09,1.45,3.13,3.13,0,0,1,.79,2.08Zm-4.67-5a.59.59,0,0,0,.57-.57.54.54,0,0,0-.17-.4.55.55,0,0,0-.8,0,.54.54,0,0,0,0,.79A.55.55,0,0,0,450.82,36.84Z"/><path class="cls-3" d="M454.84,30.19h-7.3V30a2.75,2.75,0,0,1,3.1-2.9,4.12,4.12,0,0,1,2.48.8A5.22,5.22,0,0,1,454.84,30.19Zm-1.72-1a2.84,2.84,0,0,0-2.49-1.09,2.45,2.45,0,0,0-1.29.3,1.2,1.2,0,0,0-.6.78Z"/><path class="cls-3" d="M466.52,41.82h-1.61a14.76,14.76,0,0,0-3.68-2.52q0,2.62-2.12,2.62a1.57,1.57,0,0,1-1.19-.45,1.73,1.73,0,0,1-.44-1.25,1.85,1.85,0,0,1,.6-1.36,2.87,2.87,0,0,1,1.6-.75V34.37a1.56,1.56,0,0,1-.57.11A1.59,1.59,0,0,1,458,34a1.61,1.61,0,0,1,0-2.3,1.58,1.58,0,0,1,1.16-.48,1.88,1.88,0,0,1,1.55.69,3,3,0,0,1,.56,1.92v4.41A15.75,15.75,0,0,1,465,40.47V31.31h1.54Zm-7.4-9.54a.55.55,0,0,0-.4.17.54.54,0,0,0-.17.39.59.59,0,0,0,.58.58.54.54,0,0,0,.39-.17.55.55,0,0,0,.17-.4.59.59,0,0,0-.57-.57Zm.57,7.75v-.89a1.5,1.5,0,0,0-.83.39.93.93,0,0,0-.32.68.68.68,0,0,0,.17.45.5.5,0,0,0,.81,0A1,1,0,0,0,459.68,40Z"/><path class="cls-3" d="M473.12,40.28a1.65,1.65,0,0,1-1.63,1.63,1.89,1.89,0,0,1-1.56-.68,3,3,0,0,1-.55-1.92v-8h1.53v7.43a1.94,1.94,0,0,1,.58-.09,1.65,1.65,0,0,1,1.63,1.63Zm-1.07,0a.59.59,0,0,0-.57-.57.55.55,0,0,0-.4.17.54.54,0,0,0-.17.39.59.59,0,0,0,.58.58.54.54,0,0,0,.39-.17A.55.55,0,0,0,472.05,40.28Z"/><path class="cls-3" d="M483.56,41.82H482V34.77a1.86,1.86,0,0,0-.82-1.48,3.23,3.23,0,0,0-2.07-.65,3.84,3.84,0,0,0-1.54.3,2.17,2.17,0,0,0-1,.77,2.44,2.44,0,0,1,1.94,1.42,2.39,2.39,0,0,0-1.32.73,1.87,1.87,0,0,0-.46,1.27v4.69h-1.54V37.18a2,2,0,0,1,1.48-2.05q-.25-.38-2-.38a3.16,3.16,0,0,1,1.22-2.51,4.82,4.82,0,0,1,3.21-1,4.92,4.92,0,0,1,3.21,1,3.06,3.06,0,0,1,1.22,2.47Z"/><path class="cls-3" d="M482.92,30.19h-7.3V30a2.75,2.75,0,0,1,3.1-2.9,4.15,4.15,0,0,1,3.1,1.33v-1.8h1.1Zm-1.72-1a2.84,2.84,0,0,0-2.49-1.09,2.45,2.45,0,0,0-1.29.3,1.2,1.2,0,0,0-.6.78Z"/><path class="cls-3" d="M482.92,25.51h-1.1V22.22h1.1Z"/><path class="cls-3" d="M494.74,39.9q0,1.26-.42,1.59a3.12,3.12,0,0,1-1.75.33h-4a3.1,3.1,0,0,1-1.74-.33q-.42-.33-.42-1.59V38.34a2,2,0,0,1,.43-1.33,1.84,1.84,0,0,1,1.19-.64,1.8,1.8,0,0,1-1.61-2v-.57a3,3,0,0,1,.56-1.91,1.87,1.87,0,0,1,1.54-.7,1.63,1.63,0,0,1,0,3.27,1.93,1.93,0,0,1-.58-.09,1.37,1.37,0,0,0,.51,1.14,2.36,2.36,0,0,0,1.49.4v.87q-2,0-2,1.75V40c0,.37.17.56.5.56h4.25c.33,0,.5-.19.5-.56V31.31h1.54Zm-6.21-6.48a.54.54,0,0,0,.39-.17.55.55,0,0,0,.17-.4.59.59,0,0,0-.57-.57.55.55,0,0,0-.4.17.54.54,0,0,0-.17.39.59.59,0,0,0,.58.58Z"/><path class="cls-3" d="M504.6,39.31a3,3,0,0,1-.55,1.92,1.89,1.89,0,0,1-1.56.68,1.63,1.63,0,0,1,0-3.27,1.84,1.84,0,0,1,.57.09V35a2.69,2.69,0,0,0-.52-1.75,2.89,2.89,0,0,0-4.5,1.18l-1.5-.2q.63-3,4.35-3t3.72,3.71Zm-2.11,1.54a.54.54,0,0,0,.39-.17.56.56,0,0,0,0-.8.57.57,0,0,0-1,.39.55.55,0,0,0,.17.4A.54.54,0,0,0,502.49,40.85Z"/><path class="cls-3" d="M515.9,41.82h-1.54V34.77a1.86,1.86,0,0,0-.82-1.48,3.23,3.23,0,0,0-2.07-.65,3.84,3.84,0,0,0-1.54.3,2.17,2.17,0,0,0-1,.77,2.44,2.44,0,0,1,1.94,1.42,2.39,2.39,0,0,0-1.32.73,1.87,1.87,0,0,0-.46,1.27v4.69h-1.54V37.18A2,2,0,0,1,509,35.13q-.25-.38-2-.38a3.16,3.16,0,0,1,1.22-2.51,4.82,4.82,0,0,1,3.21-1,4.92,4.92,0,0,1,3.21,1,3.06,3.06,0,0,1,1.22,2.47Z"/><path class="cls-3" d="M517.52,26.57a4,4,0,0,1-1.42,2.4,4.24,4.24,0,0,1-2.7.84,3.53,3.53,0,0,1-2.15-.62,1.84,1.84,0,0,1-.84-1.53,1.48,1.48,0,0,1,.44-1.08,1.51,1.51,0,0,1,2.57,1.06,1.38,1.38,0,0,1-.48,1.09,1.14,1.14,0,0,0,.46.06,2.8,2.8,0,0,0,3.09-2.25Zm-5.6,1.58a.51.51,0,0,0,.49-.49.48.48,0,0,0-.15-.35.47.47,0,0,0-.69,0,.49.49,0,0,0,0,.7A.47.47,0,0,0,511.91,28.15Z"/><path class="cls-3" d="M527.46,39.9a2.14,2.14,0,0,1-.4,1.56,2.91,2.91,0,0,1-1.77.36h-6.42V40.51h1.23V34.39a1.83,1.83,0,0,1-.57.09,1.59,1.59,0,0,1-1.16-.48,1.61,1.61,0,0,1,0-2.3,1.58,1.58,0,0,1,1.16-.48,1.88,1.88,0,0,1,1.55.69,3,3,0,0,1,.56,1.92v6.69h3.78q.5,0,.5-.56V31.31h1.54Zm-7.92-6.48a.54.54,0,0,0,.39-.17.55.55,0,0,0,.17-.4.59.59,0,0,0-.57-.57.55.55,0,0,0-.4.17.54.54,0,0,0-.17.39.59.59,0,0,0,.58.58Z"/><path class="cls-3" d="M535.52,28.76q0-1.38,1.54-1.38t1.54,1.38a1.35,1.35,0,0,1-.38,1,1.62,1.62,0,0,1-1.15.37Q535.52,30.16,535.52,28.76Zm3,13.05h-2.83V31.44h2.83Z"/><path class="cls-3" d="M551,32.48a4.15,4.15,0,0,1-1.37,3.35A5.85,5.85,0,0,1,545.78,37h-1.23v4.82h-2.88V28.25H546a5.76,5.76,0,0,1,3.75,1.06A3.87,3.87,0,0,1,551,32.48Zm-6.49,2.15h.95a3.15,3.15,0,0,0,2-.52,1.83,1.83,0,0,0,.66-1.53,1.88,1.88,0,0,0-.55-1.49,2.59,2.59,0,0,0-1.73-.48h-1.31Z"/><path class="cls-3" d="M559.16,31.25a4.55,4.55,0,0,1,1,.08L559.91,34a3.25,3.25,0,0,0-.83-.09,3,3,0,0,0-2.11.7,2.51,2.51,0,0,0-.76,1.95v5.28h-2.83V31.44h2.14l.42,1.74h.14a3.91,3.91,0,0,1,1.3-1.41A3.21,3.21,0,0,1,559.16,31.25Z"/><path class="cls-3" d="M561.88,28.76q0-1.38,1.54-1.38T565,28.76a1.35,1.35,0,0,1-.38,1,1.62,1.62,0,0,1-1.15.37Q561.88,30.16,561.88,28.76Zm3,13.05H562V31.44h2.83Z"/><path class="cls-3" d="M572,42q-4.84,0-4.84-5.32a5.67,5.67,0,0,1,1.32-4,4.94,4.94,0,0,1,3.78-1.4,7.21,7.21,0,0,1,3.23.71l-.84,2.19q-.67-.27-1.24-.44a4,4,0,0,0-1.15-.17q-2.21,0-2.21,3.14t2.21,3a5,5,0,0,0,1.51-.22,5.44,5.44,0,0,0,1.39-.68v2.42a4.56,4.56,0,0,1-1.39.6A7.81,7.81,0,0,1,572,42Z"/><path class="cls-3" d="M582.27,42a5.35,5.35,0,0,1-3.92-1.38,5.23,5.23,0,0,1-1.41-3.92,5.76,5.76,0,0,1,1.3-4,4.64,4.64,0,0,1,3.6-1.42,4.57,4.57,0,0,1,3.42,1.25A4.74,4.74,0,0,1,586.5,36v1.37h-6.69a2.72,2.72,0,0,0,.71,1.88,2.51,2.51,0,0,0,1.87.68,7.77,7.77,0,0,0,1.77-.19,8.84,8.84,0,0,0,1.74-.62v2.19a6.65,6.65,0,0,1-1.59.55A10,10,0,0,1,582.27,42Zm-.4-8.74a1.8,1.8,0,0,0-1.41.57,2.65,2.65,0,0,0-.58,1.62h4a2.37,2.37,0,0,0-.55-1.62A1.86,1.86,0,0,0,581.87,33.26Z"/><path class="cls-3" d="M601.77,41.82H594V28.25h7.81v2.36h-4.94v3h4.59v2.36h-4.59v3.5h4.94Z"/><path class="cls-3" d="M603.46,37.88V35.56h5v2.32Z"/><path class="cls-3" d="M616.47,30.45A2.93,2.93,0,0,0,614,31.67a5.67,5.67,0,0,0-.89,3.4q0,4.54,3.41,4.54a10.75,10.75,0,0,0,3.46-.71v2.41a9.61,9.61,0,0,1-3.73.7,5.69,5.69,0,0,1-4.53-1.79,7.6,7.6,0,0,1-1.57-5.15,8.41,8.41,0,0,1,.77-3.71,5.56,5.56,0,0,1,2.21-2.44,6.54,6.54,0,0,1,3.38-.85,9.14,9.14,0,0,1,4,1l-.93,2.34a15.47,15.47,0,0,0-1.53-.63A4.57,4.57,0,0,0,616.47,30.45Z"/><path class="cls-3" d="M632,36.61a5.57,5.57,0,0,1-1.34,4A4.84,4.84,0,0,1,627,42a5.2,5.2,0,0,1-2.63-.65,4.35,4.35,0,0,1-1.75-1.88,6.31,6.31,0,0,1-.61-2.86,5.55,5.55,0,0,1,1.33-4A4.87,4.87,0,0,1,627,31.25a5.24,5.24,0,0,1,2.63.65,4.34,4.34,0,0,1,1.75,1.86A6.26,6.26,0,0,1,632,36.61Zm-7.17,0a4.35,4.35,0,0,0,.51,2.33,1.81,1.81,0,0,0,1.65.79,1.78,1.78,0,0,0,1.63-.78,4.42,4.42,0,0,0,.5-2.33,4.29,4.29,0,0,0-.5-2.31,2.13,2.13,0,0,0-3.27,0A4.28,4.28,0,0,0,624.85,36.61Z"/><path class="cls-3" d="M643.65,41.82h-2.83V35.76a3,3,0,0,0-.38-1.68,1.32,1.32,0,0,0-1.18-.56,1.71,1.71,0,0,0-1.58.8,5.23,5.23,0,0,0-.49,2.63v4.88h-2.83V31.44h2.16l.38,1.33h.16a2.88,2.88,0,0,1,1.21-1.12,3.91,3.91,0,0,1,1.81-.4,3.26,3.26,0,0,1,3.15,1.52h.25a2.81,2.81,0,0,1,1.23-1.12,4.11,4.11,0,0,1,1.83-.4,3.62,3.62,0,0,1,2.67.9,4,4,0,0,1,.9,2.9v6.76h-2.84V35.76a3,3,0,0,0-.38-1.68,1.32,1.32,0,0,0-1.18-.56,1.76,1.76,0,0,0-1.55.74,4.21,4.21,0,0,0-.51,2.36Z"/><path class="cls-3" d="M662.3,41.82h-2.83V35.76a3,3,0,0,0-.38-1.68,1.32,1.32,0,0,0-1.18-.56,1.71,1.71,0,0,0-1.58.8,5.23,5.23,0,0,0-.49,2.63v4.88H653V31.44h2.16l.38,1.33h.16a2.88,2.88,0,0,1,1.21-1.12,3.91,3.91,0,0,1,1.81-.4,3.26,3.26,0,0,1,3.15,1.52h.25a2.81,2.81,0,0,1,1.23-1.12,4.11,4.11,0,0,1,1.83-.4,3.62,3.62,0,0,1,2.67.9,4,4,0,0,1,.9,2.9v6.76h-2.84V35.76a3,3,0,0,0-.38-1.68,1.32,1.32,0,0,0-1.18-.56,1.76,1.76,0,0,0-1.55.74,4.21,4.21,0,0,0-.51,2.36Z"/><path class="cls-3" d="M676.37,42a5.35,5.35,0,0,1-3.92-1.38A5.23,5.23,0,0,1,671,36.71a5.76,5.76,0,0,1,1.3-4,4.64,4.64,0,0,1,3.6-1.42,4.57,4.57,0,0,1,3.42,1.25A4.74,4.74,0,0,1,680.6,36v1.37h-6.69a2.72,2.72,0,0,0,.71,1.88,2.51,2.51,0,0,0,1.87.68,7.77,7.77,0,0,0,1.77-.19,8.84,8.84,0,0,0,1.74-.62v2.19a6.65,6.65,0,0,1-1.59.55A10,10,0,0,1,676.37,42Zm-.4-8.74a1.8,1.8,0,0,0-1.41.57,2.65,2.65,0,0,0-.58,1.62h4a2.37,2.37,0,0,0-.55-1.62A1.86,1.86,0,0,0,676,33.26Z"/><path class="cls-3" d="M688.69,31.25a4.55,4.55,0,0,1,1,.08L689.43,34a3.25,3.25,0,0,0-.83-.09,3,3,0,0,0-2.11.7,2.51,2.51,0,0,0-.76,1.95v5.28H682.9V31.44H685l.42,1.74h.14a3.91,3.91,0,0,1,1.3-1.41A3.21,3.21,0,0,1,688.69,31.25Z"/><path class="cls-3" d="M695.55,42q-4.84,0-4.84-5.32a5.67,5.67,0,0,1,1.32-4,4.94,4.94,0,0,1,3.78-1.4A7.21,7.21,0,0,1,699,32l-.84,2.19q-.67-.27-1.24-.44a4,4,0,0,0-1.15-.17q-2.21,0-2.21,3.14t2.21,3a5,5,0,0,0,1.51-.22,5.44,5.44,0,0,0,1.39-.68v2.42a4.56,4.56,0,0,1-1.39.6A7.81,7.81,0,0,1,695.55,42Z"/><path class="cls-3" d="M705.8,42a5.35,5.35,0,0,1-3.92-1.38,5.23,5.23,0,0,1-1.41-3.92,5.76,5.76,0,0,1,1.3-4,4.64,4.64,0,0,1,3.6-1.42,4.57,4.57,0,0,1,3.42,1.25A4.74,4.74,0,0,1,710,36v1.37h-6.69a2.72,2.72,0,0,0,.71,1.88,2.51,2.51,0,0,0,1.87.68,7.77,7.77,0,0,0,1.77-.19,8.84,8.84,0,0,0,1.74-.62v2.19a6.65,6.65,0,0,1-1.59.55A10,10,0,0,1,705.8,42Zm-.4-8.74a1.8,1.8,0,0,0-1.41.57,2.65,2.65,0,0,0-.58,1.62h4a2.37,2.37,0,0,0-.55-1.62A1.86,1.86,0,0,0,705.4,33.26Z"/><path class="cls-3" d="M723.23,41.82,720,31.18h-.08q.18,3.25.18,4.33v6.31h-2.57V28.25h3.92l3.21,10.37h.06l3.41-10.37H732V41.82h-2.68V35.4q0-.45,0-1t.13-3.15h-.08l-3.5,10.62Z"/><path class="cls-3" d="M739.88,42A5.35,5.35,0,0,1,736,40.62a5.23,5.23,0,0,1-1.41-3.92,5.76,5.76,0,0,1,1.3-4,4.64,4.64,0,0,1,3.6-1.42,4.57,4.57,0,0,1,3.42,1.25A4.74,4.74,0,0,1,744.11,36v1.37h-6.69a2.72,2.72,0,0,0,.71,1.88,2.51,2.51,0,0,0,1.87.68,7.77,7.77,0,0,0,1.77-.19,8.84,8.84,0,0,0,1.74-.62v2.19a6.65,6.65,0,0,1-1.59.55A10,10,0,0,1,739.88,42Zm-.4-8.74a1.8,1.8,0,0,0-1.41.57,2.65,2.65,0,0,0-.58,1.62h4a2.37,2.37,0,0,0-.55-1.62A1.86,1.86,0,0,0,739.48,33.26Z"/><path class="cls-3" d="M752.2,31.25a4.55,4.55,0,0,1,1,.08L752.94,34a3.25,3.25,0,0,0-.83-.09,3,3,0,0,0-2.11.7,2.51,2.51,0,0,0-.76,1.95v5.28h-2.83V31.44h2.14l.42,1.74h.14a3.91,3.91,0,0,1,1.3-1.41A3.21,3.21,0,0,1,752.2,31.25Z"/><path class="cls-3" d="M759.07,42q-4.84,0-4.84-5.32a5.67,5.67,0,0,1,1.32-4,4.94,4.94,0,0,1,3.78-1.4,7.21,7.21,0,0,1,3.23.71l-.84,2.19q-.67-.27-1.24-.44a4,4,0,0,0-1.15-.17q-2.21,0-2.21,3.14t2.21,3a5,5,0,0,0,1.51-.22,5.44,5.44,0,0,0,1.39-.68v2.42a4.56,4.56,0,0,1-1.39.6A7.81,7.81,0,0,1,759.07,42Z"/><path class="cls-3" d="M774.2,41.82h-2.83V35.76q0-2.24-1.67-2.25a1.9,1.9,0,0,0-1.72.81,4.93,4.93,0,0,0-.53,2.62v4.88h-2.83V27.38h2.83v2.94q0,.34-.07,1.61l-.07.83h.15a3.28,3.28,0,0,1,3-1.52,3.68,3.68,0,0,1,2.77,1,3.91,3.91,0,0,1,.95,2.82Z"/><path class="cls-3" d="M783.7,41.82l-.55-1.41h-.07a4.18,4.18,0,0,1-1.47,1.25,4.76,4.76,0,0,1-2,.35,3.18,3.18,0,0,1-2.35-.85,3.28,3.28,0,0,1-.86-2.43,2.74,2.74,0,0,1,1.16-2.44,6.69,6.69,0,0,1,3.48-.87l1.8-.06v-.45a1.41,1.41,0,0,0-1.61-1.58,7.36,7.36,0,0,0-2.92.75l-.94-1.91a8.43,8.43,0,0,1,4-.94,5,5,0,0,1,3.2.91,3.36,3.36,0,0,1,1.11,2.76v6.91ZM782.86,37l-1.09,0a3.51,3.51,0,0,0-1.84.45,1.4,1.4,0,0,0-.6,1.24q0,1.2,1.37,1.2a2.18,2.18,0,0,0,1.57-.57,2,2,0,0,0,.59-1.5Z"/><path class="cls-3" d="M798.16,41.82h-2.83V35.76a2.91,2.91,0,0,0-.4-1.68,1.45,1.45,0,0,0-1.27-.56,1.91,1.91,0,0,0-1.72.79,4.92,4.92,0,0,0-.53,2.63v4.88h-2.83V31.44h2.16l.38,1.33h.16a3,3,0,0,1,1.3-1.14,4.44,4.44,0,0,1,1.89-.39,3.62,3.62,0,0,1,2.75,1,3.93,3.93,0,0,1,.94,2.82Z"/><path class="cls-3" d="M805.44,39.75a6.12,6.12,0,0,0,1.78-.32v2.11a6.35,6.35,0,0,1-2.6.47,3.18,3.18,0,0,1-2.47-.86,3.73,3.73,0,0,1-.77-2.57v-5H800v-1.2l1.56-.95.82-2.19h1.81v2.21h2.9v2.12h-2.9v5a1.1,1.1,0,0,0,.34.89A1.33,1.33,0,0,0,805.44,39.75Z"/><path class="cls-3" d="M822.78,41.82l-1-3.23h-4.95l-1,3.23h-3.1l4.79-13.62h3.52l4.81,13.62Zm-1.67-5.64q-1.36-4.39-1.54-5t-.25-.91q-.3,1.19-1.75,5.87Z"/><path class="cls-3" d="M835.89,41.82l-.8-3.63L834,33.61H834l-1.89,8.21h-3l-3-10.37h2.82l1.2,4.59q.2.82.57,3.4h.07a18.89,18.89,0,0,1,.33-2.24l.15-.79,1.28-5h3.12l1.22,5q.11.51.27,1.5a12.7,12.7,0,0,1,.18,1.53h.07q.1-.83.29-1.88t.32-1.53l1.24-4.59H842l-3,10.37Z"/><path class="cls-3" d="M850.22,41.82l-.55-1.41h-.07a4.18,4.18,0,0,1-1.47,1.25,4.76,4.76,0,0,1-2,.35,3.18,3.18,0,0,1-2.35-.85,3.28,3.28,0,0,1-.86-2.43,2.74,2.74,0,0,1,1.16-2.44,6.69,6.69,0,0,1,3.48-.87l1.8-.06v-.45a1.41,1.41,0,0,0-1.61-1.58,7.36,7.36,0,0,0-2.92.75l-.94-1.91a8.43,8.43,0,0,1,4-.94,5,5,0,0,1,3.2.91,3.36,3.36,0,0,1,1.11,2.76v6.91ZM849.38,37l-1.09,0a3.51,3.51,0,0,0-1.84.45,1.4,1.4,0,0,0-.6,1.24q0,1.2,1.37,1.2a2.18,2.18,0,0,0,1.57-.57,2,2,0,0,0,.59-1.5Z"/><path class="cls-3" d="M860.89,31.25a4.55,4.55,0,0,1,1,.08L861.64,34a3.25,3.25,0,0,0-.83-.09,3,3,0,0,0-2.11.7,2.51,2.51,0,0,0-.76,1.95v5.28h-2.83V31.44h2.14l.42,1.74h.14a3.91,3.91,0,0,1,1.3-1.41A3.21,3.21,0,0,1,860.89,31.25Z"/><path class="cls-3" d="M866.83,42A3.37,3.37,0,0,1,864,40.58a6.52,6.52,0,0,1-1-3.93,6.53,6.53,0,0,1,1.06-4,3.45,3.45,0,0,1,2.93-1.42,3.38,3.38,0,0,1,3,1.52H870a11.54,11.54,0,0,1-.21-2.07V27.38h2.84V41.82h-2.17l-.55-1.35h-.12A3.24,3.24,0,0,1,866.83,42Zm1-2.25a1.92,1.92,0,0,0,1.59-.63A3.67,3.67,0,0,0,870,37v-.31a4.25,4.25,0,0,0-.51-2.39,1.91,1.91,0,0,0-1.67-.72,1.66,1.66,0,0,0-1.47.8,4.28,4.28,0,0,0-.52,2.33,4.06,4.06,0,0,0,.53,2.3A1.73,1.73,0,0,0,867.82,39.75Z"/><path class="cls-3" d="M882.81,38.74a2.86,2.86,0,0,1-1.11,2.43,5.48,5.48,0,0,1-3.32.83,10.38,10.38,0,0,1-1.93-.15A7.26,7.26,0,0,1,875,41.4V39.06a9.85,9.85,0,0,0,1.78.62,7.2,7.2,0,0,0,1.74.25q1.54,0,1.54-.89a.74.74,0,0,0-.2-.54,3,3,0,0,0-.71-.47q-.5-.26-1.34-.62a8.36,8.36,0,0,1-1.76-.93,2.61,2.61,0,0,1-.82-1,3.23,3.23,0,0,1-.25-1.36A2.46,2.46,0,0,1,876,32a5.22,5.22,0,0,1,3-.76,8.63,8.63,0,0,1,3.65.82l-.85,2q-.78-.33-1.46-.55a4.58,4.58,0,0,0-1.38-.21q-1.25,0-1.25.68a.8.8,0,0,0,.4.66,10.9,10.9,0,0,0,1.77.83,8.27,8.27,0,0,1,1.78.92,2.71,2.71,0,0,1,.83,1A3,3,0,0,1,882.81,38.74Z"/><path class="cls-3" d="M898.71,41.82h-9.48v-2l3.41-3.44q1.51-1.55,2-2.15a4.71,4.71,0,0,0,.67-1.11,2.83,2.83,0,0,0,.2-1.06,1.54,1.54,0,0,0-.45-1.22,1.75,1.75,0,0,0-1.2-.4,3.45,3.45,0,0,0-1.53.36,7.89,7.89,0,0,0-1.55,1L889.19,30a10.18,10.18,0,0,1,1.66-1.21,6.1,6.1,0,0,1,1.44-.54,7.38,7.38,0,0,1,1.74-.19,5.17,5.17,0,0,1,2.25.46,3.59,3.59,0,0,1,1.51,1.3,3.45,3.45,0,0,1,.54,1.91,4.68,4.68,0,0,1-.33,1.76,6.76,6.76,0,0,1-1,1.68,24.9,24.9,0,0,1-2.44,2.46l-1.74,1.64v.13h5.91Z"/><path class="cls-3" d="M909.5,35a9.46,9.46,0,0,1-1.16,5.26A4,4,0,0,1,904.75,42a4,4,0,0,1-3.54-1.76A9.32,9.32,0,0,1,900,35a9.55,9.55,0,0,1,1.16-5.29,4.51,4.51,0,0,1,7.12.08A9.34,9.34,0,0,1,909.5,35Zm-6.63,0a10.57,10.57,0,0,0,.43,3.58,1.51,1.51,0,0,0,2.9,0,10.26,10.26,0,0,0,.45-3.56,10.23,10.23,0,0,0-.45-3.59,1.5,1.5,0,0,0-2.89,0A10.53,10.53,0,0,0,902.86,35Z"/><path class="cls-3" d="M918,41.82h-2.87V34l0-1.29,0-1.41q-.71.71-1,.94l-1.56,1.25-1.38-1.73,4.37-3.48H918Z"/><path class="cls-3" d="M921.72,36.06q0-4,1.7-6a6.38,6.38,0,0,1,5.1-2,9.26,9.26,0,0,1,1.82.14v2.29a7.45,7.45,0,0,0-1.63-.19,5.61,5.61,0,0,0-2.41.45,3,3,0,0,0-1.4,1.32,6.06,6.06,0,0,0-.55,2.48h.12A3.15,3.15,0,0,1,927.42,33a3.64,3.64,0,0,1,2.85,1.14,4.54,4.54,0,0,1,1,3.15,4.73,4.73,0,0,1-1.22,3.44,4.5,4.5,0,0,1-3.4,1.27,4.86,4.86,0,0,1-2.62-.7,4.52,4.52,0,0,1-1.73-2A7.73,7.73,0,0,1,921.72,36.06Zm4.9,3.66a1.7,1.7,0,0,0,1.41-.62,2.76,2.76,0,0,0,.49-1.76,2.42,2.42,0,0,0-.46-1.56,1.67,1.67,0,0,0-1.39-.57,2.13,2.13,0,0,0-1.49.57,1.74,1.74,0,0,0-.62,1.32,3,3,0,0,0,.58,1.86A1.78,1.78,0,0,0,926.62,39.71Z"/><path class="cls-3" d="M946.07,40.28a1.65,1.65,0,0,1-1.63,1.63,1.89,1.89,0,0,1-1.56-.68,3,3,0,0,1-.54-1.92V29.09q0-1.69-.65-1.69T940.18,30h-.8q-.75-2.63-1.49-2.63a1.89,1.89,0,0,0-.5.07L937,26.14a2.69,2.69,0,0,1,.46-.06q1.71,0,2.27,2.12.59-2.12,2.28-2.12t1.81,3v9.65a1.85,1.85,0,0,1,.57-.09,1.65,1.65,0,0,1,1.63,1.63Zm-1.06,0a.54.54,0,0,0-.17-.39.55.55,0,0,0-.4-.17.59.59,0,0,0-.57.57.55.55,0,0,0,.17.4.54.54,0,0,0,.39.17.59.59,0,0,0,.57-.58Z"/><path class="cls-3" d="M956.71,41.82h-1.53V34.75a1.79,1.79,0,0,0-.86-1.5,3.49,3.49,0,0,0-2.07-.61,3.56,3.56,0,0,0-2.19.68,2.1,2.1,0,0,0-.9,1.75,11.67,11.67,0,0,0,.56,2.81,8.79,8.79,0,0,1,.4,1.86,8.14,8.14,0,0,1,.57-.71,9.12,9.12,0,0,0,.91-1.2,1.68,1.68,0,0,1-.85-.61,1.59,1.59,0,0,1-.32-1,1.63,1.63,0,0,1,3.27,0v.07a3,3,0,0,1-.38,1.39,9.5,9.5,0,0,1-1.75,2.06,8.49,8.49,0,0,0-1.2,1.33,1.4,1.4,0,0,0-.24.7h-1.54V40.28a12,12,0,0,0-.46-2.61,12.14,12.14,0,0,1-.47-2.67,3.52,3.52,0,0,1,1.22-2.64,4.73,4.73,0,0,1,3.36-1.14,5,5,0,0,1,3.28,1,3.09,3.09,0,0,1,1.22,2.5Zm-4.67-5a.59.59,0,0,0,.57-.57.54.54,0,0,0-.17-.4.55.55,0,0,0-.8,0,.54.54,0,0,0,0,.79A.55.55,0,0,0,952,36.84Z"/><path class="cls-3" d="M958,22.66a4.18,4.18,0,0,1-1.77,2,5.24,5.24,0,0,1-2.83.8h-.69v-.74a2.58,2.58,0,0,0,.8-1,1.1,1.1,0,0,1,0-2.21,1.3,1.3,0,0,1,.92.35,1.28,1.28,0,0,1,.38,1,2.47,2.47,0,0,1-.8,1.6,3.78,3.78,0,0,0,3.21-2.76Zm-4.49.44a.41.41,0,0,0,.42-.42.41.41,0,0,0-.12-.29.4.4,0,0,0-.3-.12.43.43,0,0,0-.42.42.4.4,0,0,0,.13.3A.41.41,0,0,0,953.54,23.1Z"/><path class="cls-3" d="M968.94,41.82H967.4v-7.6a2.94,2.94,0,0,0-.21-1.25.64.64,0,0,0-.57-.44q-.39,0-.86.7a8.36,8.36,0,0,0-.88,1.86l-2.37,6.73h-1.73V34.39a1.83,1.83,0,0,1-.57.09,1.59,1.59,0,0,1-1.16-.48,1.61,1.61,0,0,1,0-2.3,1.58,1.58,0,0,1,1.16-.48,1.88,1.88,0,0,1,1.55.68,3,3,0,0,1,.55,1.92v5.44l1.73-4.83a9.76,9.76,0,0,1,.83-1.8,3.41,3.41,0,0,1,1-1.06,2,2,0,0,1,1.16-.35,1.62,1.62,0,0,1,1.42.78,4,4,0,0,1,.51,2.23Zm-8.72-8.4a.54.54,0,0,0,.39-.17.55.55,0,0,0,.17-.4.59.59,0,0,0-.57-.57.55.55,0,0,0-.4.17.54.54,0,0,0-.17.39.59.59,0,0,0,.58.58Z"/><path class="cls-3" d="M968.29,30.19H961V30a2.75,2.75,0,0,1,3.1-2.9,4.15,4.15,0,0,1,3.1,1.33v-1.8h1.1Zm-1.72-1a2.84,2.84,0,0,0-2.49-1.09,2.45,2.45,0,0,0-1.29.3,1.2,1.2,0,0,0-.6.78Z"/><path class="cls-3" d="M968.29,25.51h-1.1V22.22h1.1Z"/><path class="cls-3" d="M974.74,41.82h-1.62V34.39a1.83,1.83,0,0,1-.57.09,1.59,1.59,0,0,1-1.16-.48,1.61,1.61,0,0,1,0-2.3,1.58,1.58,0,0,1,1.16-.48,1.88,1.88,0,0,1,1.55.68,3,3,0,0,1,.55,1.92v6.65a15.73,15.73,0,0,1,3.76-2.25V31.31H980V38.1a2.85,2.85,0,0,1,1.61.75,1.85,1.85,0,0,1,.6,1.36,1.73,1.73,0,0,1-.44,1.25,1.55,1.55,0,0,1-1.18.45q-2.13,0-2.13-2.62A14.75,14.75,0,0,0,974.74,41.82Zm-2.18-9.54a.55.55,0,0,0-.4.17.54.54,0,0,0-.17.39.59.59,0,0,0,.58.58.54.54,0,0,0,.39-.17.55.55,0,0,0,.17-.4.59.59,0,0,0-.57-.57Zm7.4,6.86V40a1,1,0,0,0,.17.6.51.51,0,0,0,.43.22.49.49,0,0,0,.38-.19.68.68,0,0,0,.17-.45.93.93,0,0,0-.31-.68A1.5,1.5,0,0,0,980,39.14Z"/><path class="cls-3" d="M980.67,30.19h-7.3V30a2.75,2.75,0,0,1,3.1-2.9,4.15,4.15,0,0,1,3.1,1.33v-1.8h1.1Zm-1.72-1a2.84,2.84,0,0,0-2.49-1.09,2.45,2.45,0,0,0-1.29.3,1.2,1.2,0,0,0-.6.78Z"/><path class="cls-3" d="M980.67,25.51h-1.1V22.22h1.1Z"/><path class="cls-3" d="M983.83,40.49a1.56,1.56,0,0,1,.42-1.18,1.7,1.7,0,0,1,1.22-.4,1.64,1.64,0,0,1,1.19.41,1.8,1.8,0,0,1,0,2.32,1.62,1.62,0,0,1-1.19.42,1.67,1.67,0,0,1-1.21-.41A1.55,1.55,0,0,1,983.83,40.49Zm2.77-3.17h-2.26l-.47-9.06h3.21Z"/><g class="cls-4"><circle class="cls-5" cx="60.8" cy="57.78" r="5.7"/><circle class="cls-3" cx="71.06" cy="73.54" r="5.7"/><circle class="cls-5" cx="97.19" cy="73.54" r="5.7"/><circle class="cls-5" cx="116.62" cy="51.02" r="5.7"/><path class="cls-6" d="M-16.14,112.83V54H20.68V64.81H-4.7V78.24h23v10.2h-23V102H20.68v10.78Z"/><polygon class="cls-6" points="21.06 24.66 10.43 15.35 -0.2 24.77 -0.2 -0.04 20.98 -0.04 21.06 24.66"/><path class="cls-5" d="M34.45,40.07a4.57,4.57,0,1,1-4.63-4.57A4.57,4.57,0,0,1,34.45,40.07ZM-6.61,36.38H20.84V43.8H-6.61Z"/><rect class="cls-1" x="118.52" y="1.16" width="285.94" height="237.78"/><rect class="cls-3" x="1141.19" y="-11.28" width="8.48" height="65.73" transform="translate(1167.01 -1123.85) rotate(90)"/><rect class="cls-3" x="1146.53" y="10.44" width="8.48" height="55.06" transform="translate(1188.73 -1112.8) rotate(90)"/><rect class="cls-3" x="1146.53" y="26.82" width="8.48" height="55.06" transform="translate(1205.12 -1096.42) rotate(90)"/><circle class="cls-5" cx="1075" cy="18.42" r="5.41"/><circle class="cls-3" cx="1084.73" cy="33.37" r="5.41"/><circle class="cls-5" cx="1109.53" cy="45.16" r="5.41"/><circle class="cls-5" cx="1127.97" cy="12" r="5.41"/><path class="cls-6" d="M1117.6,45.38h-23.46l-4.81,13.2h-11.89L1099.59.82h13l22,57.76H1122.4Zm-19.72-10.27h16l-8-21.83Z"/></g><path class="cls-6" d="M115.61,8.63a1.27,1.27,0,1,1-1.27,1.28A1.27,1.27,0,0,1,115.61,8.63Zm-1,11.38V12.4h2.06V20Z"/><path class="cls-6" d="M121.13,15.88V20H119V9h4.1a3.35,3.35,0,0,1,3.6,3.42,3.35,3.35,0,0,1-3.6,3.42Zm1.7-1.84a1.58,1.58,0,1,0,0-3.14h-1.68V14Z"/><path class="cls-6" d="M132.66,14.44a3.11,3.11,0,0,0-.62-.06c-1.05,0-2,.51-2,2.15V20H128V12.4h2v1.13a2.26,2.26,0,0,1,2.16-1.19,4.69,4.69,0,0,1,.48,0Z"/><path class="cls-6" d="M135.13,8.63a1.27,1.27,0,1,1-1.27,1.28A1.27,1.27,0,0,1,135.13,8.63Zm-1,11.38V12.4h2.06V20Z"/><path class="cls-6" d="M139.84,16.2a2,2,0,0,0,1.95,2.15,1.74,1.74,0,0,0,1.75-1.28l1.81.6a3.53,3.53,0,0,1-3.55,2.57,3.93,3.93,0,0,1-4-4,3.89,3.89,0,0,1,3.94-4,3.48,3.48,0,0,1,3.57,2.57l-1.84.62a1.66,1.66,0,0,0-1.68-1.28A1.93,1.93,0,0,0,139.84,16.2Z"/><path class="cls-6" d="M153.6,17.83a3.42,3.42,0,0,1-3.46,2.41,3.85,3.85,0,0,1-3.93-4.06,3.82,3.82,0,0,1,3.74-4c2.35,0,3.76,1.5,3.76,3.94,0,.29,0,.6,0,.63h-5.44a1.85,1.85,0,0,0,1.92,1.73,1.68,1.68,0,0,0,1.73-1.16Zm-1.92-2.49a1.53,1.53,0,0,0-1.7-1.5,1.65,1.65,0,0,0-1.7,1.5Z"/><path class="cls-6" d="M159.31,20V9h6.86v2h-4.73v2.5h4.28v1.9h-4.28V18h4.73v2Z"/><path class="cls-6" d="M167.71,16.33V14.5h4.48v1.82Z"/><path class="cls-6" d="M173.49,14.53a5.53,5.53,0,0,1,5.58-5.72,4.83,4.83,0,0,1,5,3.63l-2,.63a2.87,2.87,0,0,0-3-2.21,3.38,3.38,0,0,0-3.37,3.66,3.38,3.38,0,0,0,3.4,3.62,3,3,0,0,0,3.08-2.24l2,.6a5,5,0,0,1-5.07,3.72A5.47,5.47,0,0,1,173.49,14.53Z"/><path class="cls-6" d="M192.94,16.2a4,4,0,1,1-8,0,4,4,0,1,1,8,0Zm-2.06,0a1.94,1.94,0,1,0-3.86,0,1.94,1.94,0,1,0,3.86,0Z"/><path class="cls-6" d="M194.56,20V12.4h2v.93a2.61,2.61,0,0,1,2.23-1.14A2.35,2.35,0,0,1,201,13.45a2.81,2.81,0,0,1,5.16,1.62V20h-2V15.49a1.27,1.27,0,0,0-1.34-1.44,1.4,1.4,0,0,0-1.41,1.5V20h-2V15.49A1.28,1.28,0,0,0,198,14.05a1.39,1.39,0,0,0-1.42,1.5V20Z"/><path class="cls-6" d="M208.26,20V12.4h2v.93a2.61,2.61,0,0,1,2.23-1.14,2.35,2.35,0,0,1,2.26,1.27,2.81,2.81,0,0,1,5.16,1.62V20h-2V15.49a1.27,1.27,0,0,0-1.34-1.44,1.4,1.4,0,0,0-1.41,1.5V20h-2V15.49a1.28,1.28,0,0,0-1.34-1.44,1.39,1.39,0,0,0-1.42,1.5V20Z"/><path class="cls-6" d="M228.77,17.83a3.42,3.42,0,0,1-3.46,2.41,3.85,3.85,0,0,1-3.93-4.06,3.82,3.82,0,0,1,3.74-4c2.35,0,3.76,1.5,3.76,3.94,0,.29,0,.6,0,.63h-5.44a1.85,1.85,0,0,0,1.92,1.73,1.68,1.68,0,0,0,1.73-1.16Zm-1.92-2.49a1.53,1.53,0,0,0-1.7-1.5,1.65,1.65,0,0,0-1.7,1.5Z"/><path class="cls-6" d="M235.14,14.44a3.11,3.11,0,0,0-.62-.06c-1.05,0-2,.51-2,2.15V20H230.5V12.4h2v1.13a2.26,2.26,0,0,1,2.16-1.19,4.69,4.69,0,0,1,.48,0Z"/><path class="cls-6" d="M238,16.2a2,2,0,0,0,1.95,2.15,1.74,1.74,0,0,0,1.75-1.28l1.81.6a3.53,3.53,0,0,1-3.55,2.57,3.93,3.93,0,0,1-4-4,3.89,3.89,0,0,1,3.94-4,3.48,3.48,0,0,1,3.57,2.57l-1.84.62a1.66,1.66,0,0,0-1.68-1.28A1.93,1.93,0,0,0,238,16.2Z"/><path class="cls-6" d="M251.75,17.83a3.42,3.42,0,0,1-3.46,2.41,3.85,3.85,0,0,1-3.93-4.06,3.82,3.82,0,0,1,3.74-4c2.35,0,3.76,1.5,3.76,3.94,0,.29,0,.6,0,.63h-5.44a1.85,1.85,0,0,0,1.92,1.73A1.68,1.68,0,0,0,250,17.32Zm-1.92-2.49a1.53,1.53,0,0,0-1.7-1.5,1.65,1.65,0,0,0-1.7,1.5Z"/><path class="cls-6" d="M124.87,35.11V27.43l-3.15,7.68h-1.78l-3.15-7.62v7.62h-2v-11h2.81l3.29,7.91,3.21-7.91H127v11Z"/><path class="cls-6" d="M136.09,32.93a3.42,3.42,0,0,1-3.46,2.41,3.85,3.85,0,0,1-3.93-4.06,3.82,3.82,0,0,1,3.74-4c2.35,0,3.76,1.5,3.76,3.94,0,.29,0,.6,0,.63h-5.44a1.85,1.85,0,0,0,1.92,1.73,1.68,1.68,0,0,0,1.73-1.16Zm-1.92-2.49a1.53,1.53,0,0,0-1.7-1.5,1.65,1.65,0,0,0-1.7,1.5Z"/><path class="cls-6" d="M142.46,29.55a3.09,3.09,0,0,0-.62-.06c-1.05,0-2,.51-2,2.15v3.48h-2.06v-7.6h2v1.13A2.26,2.26,0,0,1,142,27.45a4.78,4.78,0,0,1,.48,0Z"/><path class="cls-6" d="M145.32,31.31a2,2,0,0,0,1.95,2.15A1.74,1.74,0,0,0,149,32.17l1.81.6a3.53,3.53,0,0,1-3.55,2.57,3.93,3.93,0,0,1-4-4,3.89,3.89,0,0,1,3.94-4,3.48,3.48,0,0,1,3.57,2.57l-1.84.62a1.66,1.66,0,0,0-1.68-1.28A1.93,1.93,0,0,0,145.32,31.31Z"/><path class="cls-6" d="M154.39,35.11h-2.06V23.92h2.06v4.22a2.87,2.87,0,0,1,4.88,2.18v4.79h-2.06V30.68a1.34,1.34,0,0,0-1.41-1.51,1.42,1.42,0,0,0-1.42,1.48Z"/><path class="cls-6" d="M163.17,30.74l1.87-.28c.43-.06.57-.28.57-.54,0-.54-.42-1-1.28-1a1.35,1.35,0,0,0-1.45,1.24l-1.82-.39a3,3,0,0,1,3.26-2.5c2.41,0,3.31,1.36,3.31,2.89v3.74a8.54,8.54,0,0,0,.09,1.21h-1.89a5.14,5.14,0,0,1-.08-.91,2.54,2.54,0,0,1-2.24,1.13A2.4,2.4,0,0,1,160.9,33,2.34,2.34,0,0,1,163.17,30.74Zm2.44,1.3V31.7L163.9,32a1,1,0,0,0-.94,1,.89.89,0,0,0,1,.88A1.54,1.54,0,0,0,165.61,32Z"/><path class="cls-6" d="M171.75,35.11h-2.06v-7.6h2v.94a2.53,2.53,0,0,1,2.19-1.14c1.89,0,2.75,1.34,2.75,3v4.79h-2.06V30.68a1.34,1.34,0,0,0-1.41-1.51,1.43,1.43,0,0,0-1.42,1.58Z"/><path class="cls-6" d="M181.25,27.51h1.53v1.82h-1.53v3.18c0,.66.31.88.9.88a3,3,0,0,0,.63-.06V35a3,3,0,0,1-1.16.19,2.2,2.2,0,0,1-2.41-2.35V29.33h-1.38V27.51h.39a1.1,1.1,0,0,0,1.17-1.21V25.24h1.85Z"/><path class="cls-6" d="M121.26,47.71h-4.45l-.91,2.5h-2.26l4.2-11h2.47l4.17,11h-2.32Zm-3.74-1.95h3L119,41.62Z"/><path class="cls-6" d="M131.76,42.61l1.64,4.9,1.41-4.9h2l-2.38,7.6h-2.06L130.63,45l-1.75,5.19H126.8l-2.43-7.6h2.16l1.41,4.88,1.65-4.88Z"/><path class="cls-6" d="M139.91,45.84l1.87-.28c.43-.06.57-.28.57-.54,0-.54-.42-1-1.28-1a1.35,1.35,0,0,0-1.45,1.24l-1.82-.39a3,3,0,0,1,3.26-2.5c2.41,0,3.31,1.36,3.31,2.89V49a8.55,8.55,0,0,0,.09,1.21h-1.89a5.14,5.14,0,0,1-.08-.91,2.54,2.54,0,0,1-2.24,1.13,2.4,2.4,0,0,1-2.61-2.29A2.34,2.34,0,0,1,139.91,45.84Zm2.44,1.3V46.8l-1.72.26a1,1,0,0,0-.94,1,.89.89,0,0,0,1,.88A1.54,1.54,0,0,0,142.35,47.14Z"/><path class="cls-6" d="M151.07,44.65a3.13,3.13,0,0,0-.62-.06c-1.05,0-2,.51-2,2.15v3.48h-2.06v-7.6h2v1.13a2.26,2.26,0,0,1,2.16-1.19,4.61,4.61,0,0,1,.48,0Z"/><path class="cls-6" d="M159.69,48.84c0,.51,0,1.07.06,1.38h-2a5.27,5.27,0,0,1-.08-.88,2.38,2.38,0,0,1-2.13,1.07,3.74,3.74,0,0,1-3.71-4,3.72,3.72,0,0,1,3.65-4,2.28,2.28,0,0,1,2.15.94V39h2Zm-3.86-.28a1.93,1.93,0,0,0,1.87-2.18,1.88,1.88,0,0,0-1.87-2.12,1.91,1.91,0,0,0-1.89,2.13A1.92,1.92,0,0,0,155.83,48.56Z"/><path class="cls-6" d="M163,47.71a1.26,1.26,0,0,0,1.39,1.16c.68,0,1-.36,1-.76s-.23-.62-.82-.74l-1-.23c-1.47-.32-2.13-1.21-2.13-2.27a2.65,2.65,0,0,1,2.84-2.49c2.16,0,2.89,1.38,3,2.19l-1.72.39a1.16,1.16,0,0,0-1.25-1,.87.87,0,0,0-1,.76c0,.37.28.6.7.68l1.08.23c1.5.31,2.26,1.22,2.26,2.33s-1,2.5-3,2.5c-2.29,0-3.08-1.48-3.17-2.35Z"/><path class="cls-6" d="M172.41,44a3.8,3.8,0,0,1-.08-.7A3.39,3.39,0,0,1,176,40a3.32,3.32,0,0,1,3.62,3.23,3.6,3.6,0,0,1-1.95,3.11l-1.93,1.17a2,2,0,0,0-.87.91h4.81v1.84h-7.42a4.58,4.58,0,0,1,2.36-4.28l1.65-1a2,2,0,0,0,1.19-1.73A1.37,1.37,0,0,0,176,41.84a1.51,1.51,0,0,0-1.59,1.67,2.19,2.19,0,0,0,.08.56Z"/><path class="cls-6" d="M181.67,41.64A3.79,3.79,0,0,1,185,40a3.74,3.74,0,0,1,3.29,1.68,6.41,6.41,0,0,1,.9,3.57,6.41,6.41,0,0,1-.9,3.57A3.74,3.74,0,0,1,185,50.46a3.79,3.79,0,0,1-3.31-1.68,6.4,6.4,0,0,1-.88-3.57A6.4,6.4,0,0,1,181.67,41.64Zm1.79,6.12a1.67,1.67,0,0,0,1.51.82,1.63,1.63,0,0,0,1.5-.82,4.7,4.7,0,0,0,.56-2.55,4.7,4.7,0,0,0-.56-2.55,1.63,1.63,0,0,0-1.5-.82,1.67,1.67,0,0,0-1.51.82,4.85,4.85,0,0,0-.54,2.55A4.85,4.85,0,0,0,183.46,47.76Z"/><path class="cls-6" d="M192.52,50.22V43.51h-2.41V42.07a2.56,2.56,0,0,0,2.69-1.89h1.84v10Z"/><path class="cls-6" d="M203.65,42.15a4.28,4.28,0,0,0-1.65-.36,3.14,3.14,0,0,0-3.32,2.87,2.84,2.84,0,0,1,2.38-1.11,3.21,3.21,0,0,1,3.46,3.37,3.61,3.61,0,0,1-3.88,3.52c-2.19,0-4.06-1.58-4.06-4.61,0-3.6,2.26-5.89,5.56-5.89a4.36,4.36,0,0,1,2.1.46Zm-3,6.51A1.68,1.68,0,1,0,198.86,47,1.7,1.7,0,0,0,200.62,48.66Z"/><path class="cls-3" d="M118.05,56.07v7h-1.67v-7h-2.7V54.5h7.06v1.58Z"/><path class="cls-3" d="M123.43,63h-1.6V54.32h1.6V57.6a2.23,2.23,0,0,1,3.8,1.7V63h-1.6V59.58a1,1,0,0,0-1.1-1.18,1.11,1.11,0,0,0-1.11,1.16Z"/><path class="cls-3" d="M130.27,59.62l1.46-.22c.34,0,.45-.22.45-.42,0-.42-.32-.77-1-.77a1.05,1.05,0,0,0-1.13,1l-1.42-.3a2.35,2.35,0,0,1,2.54-1.95c1.88,0,2.58,1.06,2.58,2.25v2.91a6.63,6.63,0,0,0,.07.94h-1.47a4,4,0,0,1-.06-.71,2,2,0,0,1-1.75.88,1.87,1.87,0,0,1-2-1.78A1.83,1.83,0,0,1,130.27,59.62Zm1.9,1v-.26l-1.34.2a.75.75,0,0,0-.73.75.69.69,0,0,0,.77.69A1.2,1.2,0,0,0,132.17,60.64Z"/><path class="cls-3" d="M136.14,54.17a1,1,0,1,1-1,1A1,1,0,0,1,136.14,54.17ZM135.35,63V57.11H137V63Z"/><path class="cls-3" d="M138.66,63V54.32h1.6V63Z"/><path class="cls-3" d="M143.34,59.62l1.46-.22c.34,0,.45-.22.45-.42,0-.42-.32-.77-1-.77a1.05,1.05,0,0,0-1.13,1l-1.42-.3a2.35,2.35,0,0,1,2.54-1.95c1.88,0,2.58,1.06,2.58,2.25v2.91a6.63,6.63,0,0,0,.07.94h-1.47a4,4,0,0,1-.06-.71,2,2,0,0,1-1.75.88,1.87,1.87,0,0,1-2-1.78A1.83,1.83,0,0,1,143.34,59.62Zm1.9,1v-.26l-1.34.2a.75.75,0,0,0-.73.75.69.69,0,0,0,.77.69A1.2,1.2,0,0,0,145.24,60.64Z"/><path class="cls-3" d="M150,63h-1.6V57.11H150v.73a2,2,0,0,1,1.71-.89,2.08,2.08,0,0,1,2.14,2.35V63h-1.6V59.58a1,1,0,0,0-1.1-1.18A1.11,1.11,0,0,0,150,59.62Z"/><path class="cls-3" d="M161.1,62c0,.4,0,.83,0,1.07h-1.53a4.09,4.09,0,0,1-.06-.69,1.86,1.86,0,0,1-1.66.83,3.12,3.12,0,0,1,0-6.21,1.77,1.77,0,0,1,1.67.73V54.32h1.58Zm-3-.22a1.5,1.5,0,0,0,1.46-1.7,1.47,1.47,0,0,0-1.46-1.65,1.69,1.69,0,0,0,0,3.35Z"/></svg>