<svg id="Layer_1" data-name="Layer 1" xmlns="http://www.w3.org/2000/svg" xmlns:xlink="http://www.w3.org/1999/xlink" viewBox="0 0 320 51.36"><defs><style>.cls-1{fill:none;}.cls-2{fill:#f1f3f2;}.cls-3{clip-path:url(#clip-path);}.cls-4{fill:#fff;}.cls-5{fill:#f63;}.cls-6{fill:#3cc;}</style><clipPath id="clip-path"><rect class="cls-1" width="810.9" height="51.36"/></clipPath></defs><title>Artboard 69 copy 4</title><rect class="cls-2" width="320.64" height="51.36"/><g class="cls-3"><circle class="cls-4" cx="41.93" cy="40.14" r="3.99"/><circle class="cls-5" cx="49.09" cy="51.15" r="3.99"/><circle class="cls-4" cx="67.35" cy="51.15" r="3.99"/><circle class="cls-4" cx="80.92" cy="35.42" r="3.99"/><path class="cls-6" d="M-5.34,51.36V24.6H11.42v4.91H-.13v6.11H10.32v4.64H-.13v6.19H11.42v4.91Z"/><polygon class="cls-6" points="9.67 11.24 4.84 7.01 0 11.29 0 0 9.64 0 9.67 11.24"/><path class="cls-4" d="M17.46,18.25a2.08,2.08,0,1,1-2.11-2.08A2.08,2.08,0,0,1,17.46,18.25ZM-1.22,16.58H11.27V20H-1.22Z"/><rect class="cls-1" x="83.15" y="0.84" width="199.76" height="166.11"/><rect class="cls-5" x="303.37" y="8.51" width="3.94" height="30.53" transform="translate(329.11 -281.57) rotate(90)"/><rect class="cls-5" x="305.85" y="18.6" width="3.94" height="25.57" transform="translate(339.19 -276.43) rotate(90)"/><rect class="cls-5" x="305.85" y="26.21" width="3.94" height="25.57" transform="translate(346.8 -268.82) rotate(90)"/><circle class="cls-4" cx="272.63" cy="22.3" r="2.51"/><circle class="cls-5" cx="277.14" cy="29.24" r="2.51"/><circle class="cls-4" cx="288.66" cy="34.72" r="2.51"/><circle class="cls-4" cx="297.22" cy="19.32" r="2.51"/><path class="cls-6" d="M292.41,34.82h-10.9L279.28,41h-5.52L284,14.13h6.05L300.32,41h-5.67Zm-9.16-4.77h7.42L287,19.92Z"/></g><path class="cls-5" d="M39.5,22.44q0,.66-.22.84a1.64,1.64,0,0,1-.92.17H36.48a1.63,1.63,0,0,1-.92-.17q-.22-.17-.22-.84v-1a1.58,1.58,0,0,1,.29-1,1,1,0,0,1,.82-.37.86.86,0,0,1,0,1.72,1,1,0,0,1-.3,0v.72q0,.29.26.29h2q.26,0,.26-.29V19.89a1.33,1.33,0,0,0-.31-.93,1.48,1.48,0,0,0-1.12-.34q-1.26,0-1.52,1L35,19.47q.35-1.6,2.44-1.6a2.34,2.34,0,0,1,1.6.46,1.91,1.91,0,0,1,.52,1.49Zm-3.05-1.2a.3.3,0,1,0-.21-.51.28.28,0,0,0,0,.42A.29.29,0,0,0,36.45,21.24Z"/><path class="cls-5" d="M39.16,14.87h-.58V13.14h.58Z"/><path class="cls-5" d="M44.46,23.45h-.81V19.88a1.37,1.37,0,0,0-.29-.91,1,1,0,0,0-.83-.35,1.17,1.17,0,0,0-1.22,1l-.79-.11a2,2,0,0,1,2.14-1.6q1.81,0,1.81,2Z"/><path class="cls-5" d="M47.52,23.45h-.85V19.54a1,1,0,0,1-.3,0,.83.83,0,0,1-.61-.25.82.82,0,0,1-.26-.61.87.87,0,0,1,.86-.86,1,1,0,0,1,.82.36,1.57,1.57,0,0,1,.29,1v3.5a8.28,8.28,0,0,1,2-1.18V17.92h.81V21.5a1.5,1.5,0,0,1,.85.39,1,1,0,0,1,.31.72.91.91,0,0,1-.23.66.82.82,0,0,1-.62.24q-1.12,0-1.12-1.38A7.77,7.77,0,0,0,47.52,23.45Zm-1.15-5a.29.29,0,0,0-.21.09.29.29,0,0,0-.09.21.31.31,0,0,0,.3.3.28.28,0,0,0,.21-.09.29.29,0,0,0,.09-.21.31.31,0,0,0-.3-.3ZM50.27,22v.47a.52.52,0,0,0,.09.32.27.27,0,0,0,.22.12.26.26,0,0,0,.2-.1.36.36,0,0,0,.09-.24.49.49,0,0,0-.17-.36A.79.79,0,0,0,50.27,22Z"/><path class="cls-5" d="M56.1,18.53a3.33,3.33,0,0,1-.92.09l-1.37-.06a.85.85,0,0,0-.63.21.67.67,0,0,0-.21.49.43.43,0,0,0,0,.1,5.34,5.34,0,0,1,1.1-.11,2.44,2.44,0,0,1,1.46.34A1.67,1.67,0,0,1,56,21v1.15a1.57,1.57,0,0,1-.29,1,1,1,0,0,1-.82.36.86.86,0,0,1,0-1.72,1,1,0,0,1,.3,0V21a1.24,1.24,0,0,0-.22-.8,1.11,1.11,0,0,0-.88-.27,6.38,6.38,0,0,0-1.77.24,4.71,4.71,0,0,1,0-.6q0-1.71,1.53-1.71l1.37.06a3.44,3.44,0,0,0,.84-.08Zm-1.22,4.41a.31.31,0,0,0,.3-.3.28.28,0,0,0-.09-.21.3.3,0,1,0-.21.51Z"/><path class="cls-5" d="M60.95,23.45h-.81V19.88a1.37,1.37,0,0,0-.29-.91,1,1,0,0,0-.83-.35,1.17,1.17,0,0,0-1.22,1L57,19.47a2,2,0,0,1,2.14-1.6q1.81,0,1.81,2Z"/><path class="cls-5" d="M66.83,22.44q0,.66-.22.84a1.64,1.64,0,0,1-.92.17h-2.1a1.63,1.63,0,0,1-.92-.17q-.22-.17-.22-.84v-.82a1.08,1.08,0,0,1,.22-.7,1,1,0,0,1,.63-.34,1,1,0,0,1-.85-1v-.3a1.56,1.56,0,0,1,.29-1,1,1,0,0,1,.81-.37.82.82,0,0,1,.61.26.86.86,0,0,1-.61,1.46,1,1,0,0,1-.3,0,.72.72,0,0,0,.27.6,1.25,1.25,0,0,0,.79.21v.46q-1.05,0-1.05.92v.74q0,.29.26.29h2.24q.26,0,.26-.29V17.92h.81ZM63.56,19a.29.29,0,0,0,.21-.09.29.29,0,0,0,.09-.21.3.3,0,1,0-.3.3Z"/><path class="cls-5" d="M72.57,23.45h-.81v-1A3.32,3.32,0,0,0,71,21.16a1.38,1.38,0,0,0-1-.51.91.91,0,0,0-.71.26,1.12,1.12,0,0,0-.23.77v.15a1,1,0,0,1,.3,0,.86.86,0,0,1,0,1.72,1,1,0,0,1-.82-.36,1.56,1.56,0,0,1-.29-1v-.46a1.68,1.68,0,0,1,.47-1.24A1.75,1.75,0,0,1,70,20a1.72,1.72,0,0,1,1,.33,2,2,0,0,1,.7.87V19.88a1.31,1.31,0,0,0-.31-.92,1.49,1.49,0,0,0-1.12-.34,1.88,1.88,0,0,0-1,.24,1.16,1.16,0,0,0-.51.72L68,19.47a1.82,1.82,0,0,1,.78-1.2,3,3,0,0,1,1.66-.4,2.33,2.33,0,0,1,1.59.46,1.91,1.91,0,0,1,.52,1.49Zm-3.18-.51a.29.29,0,0,0,.21-.09.29.29,0,0,0,.09-.21.3.3,0,1,0-.3.3Z"/><path class="cls-5" d="M77.45,18.58a2.11,2.11,0,0,1-.75,1.26,2.23,2.23,0,0,1-1.42.44A1.85,1.85,0,0,1,74.15,20a1,1,0,0,1-.44-.81.77.77,0,0,1,.23-.56.79.79,0,0,1,1.35.55.74.74,0,0,1-.25.58.7.7,0,0,0,.24,0,1.8,1.8,0,0,0,1.08-.29,1.46,1.46,0,0,0,.55-.88Zm0,2.68a2.12,2.12,0,0,1-.75,1.27,2.23,2.23,0,0,1-1.42.44,1.85,1.85,0,0,1-1.13-.33,1,1,0,0,1-.44-.81.77.77,0,0,1,.23-.57.79.79,0,0,1,1.35.56.74.74,0,0,1-.25.58.7.7,0,0,0,.24,0,1.79,1.79,0,0,0,1.08-.3,1.47,1.47,0,0,0,.55-.89ZM74.5,19.41a.25.25,0,0,0,.18-.08.25.25,0,0,0,.08-.19.25.25,0,0,0-.08-.18.25.25,0,0,0-.36,0,.25.25,0,0,0-.08.18.25.25,0,0,0,.08.19A.25.25,0,0,0,74.5,19.41Zm0,2.68a.25.25,0,0,0,.18-.08.25.25,0,0,0,.08-.18.25.25,0,0,0-.08-.18.25.25,0,0,0-.36,0,.25.25,0,0,0-.08.18.25.25,0,0,0,.08.18A.25.25,0,0,0,74.5,22.08Z"/><path class="cls-5" d="M80.51,22.64a.87.87,0,0,1-.86.86,1,1,0,0,1-.82-.36,1.57,1.57,0,0,1-.29-1V17.92h.81v3.91a1,1,0,0,1,.3,0,.87.87,0,0,1,.86.86Zm-.56,0a.31.31,0,1,0-.09.21A.29.29,0,0,0,79.95,22.64Z"/><path class="cls-5" d="M85.72,22.44q0,.66-.22.84a1.64,1.64,0,0,1-.92.17H82.7a1.63,1.63,0,0,1-.92-.17q-.22-.17-.22-.84v-1a1.58,1.58,0,0,1,.29-1,1,1,0,0,1,.82-.37.86.86,0,0,1,0,1.72,1,1,0,0,1-.3,0v.72q0,.29.26.29h2q.26,0,.26-.29V19.89A1.33,1.33,0,0,0,84.6,19a1.48,1.48,0,0,0-1.12-.34q-1.26,0-1.52,1l-.79-.11q.35-1.6,2.44-1.6a2.34,2.34,0,0,1,1.6.46,1.91,1.91,0,0,1,.52,1.49Zm-3.05-1.2a.3.3,0,1,0-.21-.51.28.28,0,0,0,0,.42A.29.29,0,0,0,82.67,21.24Z"/><path class="cls-5" d="M85.38,17.34H81.53v-.1a1.45,1.45,0,0,1,1.63-1.53,2.18,2.18,0,0,1,1.63.7v-.95h.58Zm-.9-.53a1.49,1.49,0,0,0-1.31-.57,1.28,1.28,0,0,0-.68.16.63.63,0,0,0-.32.41Z"/><path class="cls-5" d="M91.6,22.44q0,.66-.22.84a1.64,1.64,0,0,1-.92.17h-2.1a1.63,1.63,0,0,1-.92-.17q-.22-.17-.22-.84v-.82a1.08,1.08,0,0,1,.22-.7,1,1,0,0,1,.63-.34,1,1,0,0,1-.85-1v-.3a1.56,1.56,0,0,1,.29-1,1,1,0,0,1,.81-.37.82.82,0,0,1,.61.26.86.86,0,0,1-.61,1.46,1,1,0,0,1-.3,0,.72.72,0,0,0,.27.6,1.25,1.25,0,0,0,.79.21v.46q-1.05,0-1.05.92v.74q0,.29.26.29h2.24q.26,0,.26-.29V17.92h.81ZM88.33,19a.29.29,0,0,0,.21-.09.29.29,0,0,0,.09-.21.3.3,0,1,0-.3.3Z"/><path class="cls-5" d="M97.64,23.45h-.81V19.73a.94.94,0,0,0-.45-.79,1.84,1.84,0,0,0-1.09-.32,1.87,1.87,0,0,0-1.15.36,1.1,1.1,0,0,0-.48.92A6.14,6.14,0,0,0,94,21.38a4.63,4.63,0,0,1,.21,1,4.28,4.28,0,0,1,.3-.37,4.83,4.83,0,0,0,.48-.63.9.9,0,0,1-.45-.32.84.84,0,0,1-.17-.51.86.86,0,0,1,1.72,0v0a1.58,1.58,0,0,1-.2.73,5,5,0,0,1-.92,1.08,4.55,4.55,0,0,0-.63.7.75.75,0,0,0-.12.37h-.81v-.81a6.26,6.26,0,0,0-.24-1.37,6.42,6.42,0,0,1-.25-1.41,1.85,1.85,0,0,1,.64-1.39,2.49,2.49,0,0,1,1.77-.6A2.65,2.65,0,0,1,97,18.4a1.63,1.63,0,0,1,.64,1.32Zm-2.46-2.62a.29.29,0,0,0,.21-.51.29.29,0,0,0-.21-.09.29.29,0,0,0-.21.09.28.28,0,0,0,0,.42A.29.29,0,0,0,95.19,20.83Z"/><path class="cls-5" d="M101,22.64a.87.87,0,0,1-.86.86,1,1,0,0,1-.82-.36,1.57,1.57,0,0,1-.29-1V17.92h.81v3.91a1,1,0,0,1,.3,0,.87.87,0,0,1,.86.86Zm-.56,0a.31.31,0,1,0-.09.21A.29.29,0,0,0,100.48,22.64Z"/><path class="cls-5" d="M107.54,23.45h-.93l-1.22-3.71q-.09-.28-.22-.84-.13.58-.22.84l-1.23,3.71h-.92V19.54a1,1,0,0,1-.3,0,.83.83,0,0,1-.61-.25.82.82,0,0,1-.26-.61.87.87,0,0,1,.86-.86,1,1,0,0,1,.82.36,1.57,1.57,0,0,1,.29,1v2.95L104,21l1-3.09h.44q1.21,3.76,1.34,4.26V17.92h.81Zm-5-4.42a.28.28,0,0,0,.21-.09.29.29,0,0,0,.09-.21.31.31,0,0,0-.3-.3.29.29,0,0,0-.21.09.29.29,0,0,0-.09.21.31.31,0,0,0,.3.3Z"/><path class="cls-5" d="M107.2,17.34h-3.84v-.1A1.45,1.45,0,0,1,105,15.7a2.17,2.17,0,0,1,1.31.42A2.75,2.75,0,0,1,107.2,17.34Zm-.9-.53a1.49,1.49,0,0,0-1.31-.57,1.28,1.28,0,0,0-.68.16.63.63,0,0,0-.32.41Z"/><path class="cls-5" d="M107.2,14.87h-.58V13.14h.58Z"/><path class="cls-5" d="M113.35,23.45h-.85a7.77,7.77,0,0,0-1.94-1.33q0,1.38-1.12,1.38a.83.83,0,0,1-.62-.24.91.91,0,0,1-.23-.66,1,1,0,0,1,.32-.72,1.51,1.51,0,0,1,.84-.39v-2a.82.82,0,0,1-.3.06.83.83,0,0,1-.61-.25.82.82,0,0,1-.26-.61.87.87,0,0,1,.86-.86,1,1,0,0,1,.82.36,1.57,1.57,0,0,1,.29,1v2.32a8.28,8.28,0,0,1,2,1.18V17.92h.81Zm-3.9-5a.29.29,0,0,0-.21.09.29.29,0,0,0-.09.21.31.31,0,0,0,.3.3.28.28,0,0,0,.21-.09.29.29,0,0,0,.09-.21.31.31,0,0,0-.3-.3Zm.3,4.08V22a.79.79,0,0,0-.43.21.49.49,0,0,0-.17.36.36.36,0,0,0,.09.24.26.26,0,0,0,.42,0A.52.52,0,0,0,109.75,22.51Z"/><path class="cls-5" d="M116.82,22.64a.87.87,0,0,1-.86.86,1,1,0,0,1-.82-.36,1.57,1.57,0,0,1-.29-1V17.92h.81v3.91a1,1,0,0,1,.3,0,.87.87,0,0,1,.86.86Zm-.56,0a.31.31,0,1,0-.09.21A.29.29,0,0,0,116.26,22.64Z"/><path class="cls-5" d="M122.42,23.45h-.81V19.73a1.24,1.24,0,0,0-.71-1.09l-.83.72-.83-.71a1.29,1.29,0,0,0-.8,1.3,5.63,5.63,0,0,0,.22,1.13,6,6,0,0,1,.23,1.21,2.88,2.88,0,0,1,.34-.37,2.93,2.93,0,0,0,.49-.56.9.9,0,0,1-.45-.32.84.84,0,0,1-.17-.51.86.86,0,0,1,1.72,0v0a1.6,1.6,0,0,1-.2.73,5,5,0,0,1-.91,1.08,4.32,4.32,0,0,0-.63.7.75.75,0,0,0-.12.37h-.83v-.8a5.73,5.73,0,0,0-.24-1.35,5.71,5.71,0,0,1-.25-1.36,2.14,2.14,0,0,1,1.6-2.08l.83.71.83-.72a2.76,2.76,0,0,1,1.1.76,1.65,1.65,0,0,1,.42,1.1ZM120,20.83a.29.29,0,0,0,.21-.51.29.29,0,0,0-.21-.09.29.29,0,0,0-.21.09.28.28,0,0,0,0,.42A.29.29,0,0,0,120,20.83Z"/><path class="cls-5" d="M122.08,17.34h-3.84v-.1a1.45,1.45,0,0,1,1.63-1.53,2.17,2.17,0,0,1,1.31.42A2.75,2.75,0,0,1,122.08,17.34Zm-.9-.53a1.49,1.49,0,0,0-1.31-.57,1.28,1.28,0,0,0-.68.16.63.63,0,0,0-.32.41Z"/><path class="cls-5" d="M128.23,23.45h-.85a7.77,7.77,0,0,0-1.94-1.33q0,1.38-1.12,1.38a.83.83,0,0,1-.62-.24.91.91,0,0,1-.23-.66,1,1,0,0,1,.32-.72,1.51,1.51,0,0,1,.84-.39v-2a.82.82,0,0,1-.3.06.83.83,0,0,1-.61-.25.82.82,0,0,1-.26-.61.87.87,0,0,1,.86-.86,1,1,0,0,1,.82.36,1.57,1.57,0,0,1,.29,1v2.32a8.28,8.28,0,0,1,2,1.18V17.92h.81Zm-3.9-5a.29.29,0,0,0-.21.09.29.29,0,0,0-.09.21.31.31,0,0,0,.3.3.28.28,0,0,0,.21-.09.29.29,0,0,0,.09-.21.31.31,0,0,0-.3-.3Zm.3,4.08V22a.79.79,0,0,0-.43.21.49.49,0,0,0-.17.36.36.36,0,0,0,.09.24.26.26,0,0,0,.42,0A.52.52,0,0,0,124.63,22.51Z"/><path class="cls-5" d="M131.7,22.64a.87.87,0,0,1-.86.86,1,1,0,0,1-.82-.36,1.57,1.57,0,0,1-.29-1V17.92h.81v3.91a1,1,0,0,1,.3,0,.87.87,0,0,1,.86.86Zm-.56,0a.31.31,0,1,0-.09.21A.29.29,0,0,0,131.14,22.64Z"/><path class="cls-5" d="M137.2,23.45h-.81V19.74A1,1,0,0,0,136,19a1.7,1.7,0,0,0-1.09-.34,2,2,0,0,0-.81.16,1.13,1.13,0,0,0-.52.41,1.28,1.28,0,0,1,1,.75,1.26,1.26,0,0,0-.69.38,1,1,0,0,0-.24.67v2.47h-.81V21a1,1,0,0,1,.78-1.08q-.13-.2-1-.2a1.66,1.66,0,0,1,.64-1.32,2.54,2.54,0,0,1,1.69-.54,2.59,2.59,0,0,1,1.69.52,1.61,1.61,0,0,1,.64,1.3Z"/><path class="cls-5" d="M136.86,17.34H133v-.1a1.45,1.45,0,0,1,1.63-1.53,2.18,2.18,0,0,1,1.63.7v-.95h.58Zm-.9-.53a1.49,1.49,0,0,0-1.31-.57,1.28,1.28,0,0,0-.68.16.63.63,0,0,0-.32.41Z"/><path class="cls-5" d="M136.86,14.87h-.58V13.14h.58Z"/><path class="cls-5" d="M143.08,22.44q0,.66-.22.84a1.64,1.64,0,0,1-.92.17h-2.1a1.63,1.63,0,0,1-.92-.17q-.22-.17-.22-.84v-.82a1.08,1.08,0,0,1,.22-.7,1,1,0,0,1,.63-.34,1,1,0,0,1-.85-1v-.3a1.56,1.56,0,0,1,.29-1,1,1,0,0,1,.81-.37.82.82,0,0,1,.61.26.86.86,0,0,1-.61,1.46,1,1,0,0,1-.3,0,.72.72,0,0,0,.27.6,1.25,1.25,0,0,0,.79.21v.46q-1.05,0-1.05.92v.74q0,.29.26.29H142q.26,0,.26-.29V17.92h.81ZM139.81,19a.29.29,0,0,0,.21-.09.29.29,0,0,0,.09-.21.3.3,0,1,0-.3.3Z"/><path class="cls-5" d="M148.27,22.13a1.57,1.57,0,0,1-.29,1,1,1,0,0,1-.82.36.86.86,0,0,1,0-1.72,1,1,0,0,1,.3,0V19.88a1.41,1.41,0,0,0-.28-.92,1.52,1.52,0,0,0-2.37.62l-.79-.11q.33-1.6,2.29-1.6a1.73,1.73,0,0,1,2,2Zm-1.11.81a.28.28,0,0,0,.21-.09.29.29,0,0,0,0-.42.3.3,0,0,0-.51.21.29.29,0,0,0,.09.21A.28.28,0,0,0,147.16,22.95Z"/><path class="cls-5" d="M154.22,23.45h-.81V19.74A1,1,0,0,0,153,19a1.7,1.7,0,0,0-1.09-.34,2,2,0,0,0-.81.16,1.13,1.13,0,0,0-.52.41,1.28,1.28,0,0,1,1,.75,1.26,1.26,0,0,0-.69.38,1,1,0,0,0-.24.67v2.47h-.81V21a1,1,0,0,1,.78-1.08q-.13-.2-1-.2a1.66,1.66,0,0,1,.64-1.32,2.54,2.54,0,0,1,1.69-.54,2.59,2.59,0,0,1,1.69.52,1.61,1.61,0,0,1,.64,1.3Z"/><path class="cls-5" d="M155.07,15.43a2.11,2.11,0,0,1-.75,1.26,2.23,2.23,0,0,1-1.42.44,1.86,1.86,0,0,1-1.13-.32,1,1,0,0,1-.44-.8.77.77,0,0,1,.23-.57.79.79,0,0,1,1.35.56.73.73,0,0,1-.25.58.6.6,0,0,0,.24,0,1.48,1.48,0,0,0,1.63-1.18Zm-2.95.83a.25.25,0,0,0,.18-.08.25.25,0,0,0,.08-.18.25.25,0,0,0-.08-.19.25.25,0,0,0-.36,0,.26.26,0,0,0,0,.37A.25.25,0,0,0,152.12,16.26Z"/><path class="cls-5" d="M160.3,22.44a1.12,1.12,0,0,1-.21.82,1.53,1.53,0,0,1-.93.19h-3.38v-.69h.65V19.54a1,1,0,0,1-.3,0,.83.83,0,0,1-.61-.25.82.82,0,0,1-.26-.61.87.87,0,0,1,.86-.86,1,1,0,0,1,.82.36,1.57,1.57,0,0,1,.29,1v3.52h2q.26,0,.26-.29V17.92h.81ZM156.13,19a.28.28,0,0,0,.21-.09.29.29,0,0,0,.09-.21.31.31,0,0,0-.3-.3.29.29,0,0,0-.21.09.29.29,0,0,0-.09.21.31.31,0,0,0,.3.3Z"/><path class="cls-5" d="M164.55,16.58q0-.73.81-.73t.81.73a.71.71,0,0,1-.2.54.85.85,0,0,1-.61.19Q164.55,17.32,164.55,16.58Zm1.55,6.87h-1.49V18h1.49Z"/><path class="cls-5" d="M172.71,18.54A2.18,2.18,0,0,1,172,20.3a3.08,3.08,0,0,1-2,.61h-.65v2.54h-1.51V16.31h2.28a3,3,0,0,1,2,.56A2,2,0,0,1,172.71,18.54Zm-3.42,1.13h.5a1.66,1.66,0,0,0,1-.28,1,1,0,0,0,.35-.8,1,1,0,0,0-.29-.79,1.36,1.36,0,0,0-.91-.25h-.69Z"/><path class="cls-5" d="M177,17.89a2.4,2.4,0,0,1,.5,0l-.11,1.4a1.7,1.7,0,0,0-.44,0,1.58,1.58,0,0,0-1.11.37,1.33,1.33,0,0,0-.4,1v2.78h-1.49V18h1.13l.22.92h.07a2,2,0,0,1,.69-.74A1.69,1.69,0,0,1,177,17.89Z"/><path class="cls-5" d="M178.42,16.58q0-.73.81-.73t.81.73a.71.71,0,0,1-.2.54.85.85,0,0,1-.61.19Q178.42,17.32,178.42,16.58ZM180,23.45h-1.49V18H180Z"/><path class="cls-5" d="M183.75,23.55q-2.55,0-2.55-2.8a3,3,0,0,1,.69-2.13,2.6,2.6,0,0,1,2-.73,3.78,3.78,0,0,1,1.7.37l-.44,1.15q-.35-.14-.65-.23a2.11,2.11,0,0,0-.61-.09q-1.16,0-1.16,1.65t1.16,1.6a2.65,2.65,0,0,0,.8-.11,2.88,2.88,0,0,0,.73-.36v1.27a2.41,2.41,0,0,1-.73.32A4.1,4.1,0,0,1,183.75,23.55Z"/><path class="cls-5" d="M189.15,23.55a2.82,2.82,0,0,1-2.06-.73,2.75,2.75,0,0,1-.74-2.06,3,3,0,0,1,.69-2.12,2.44,2.44,0,0,1,1.9-.75,2.4,2.4,0,0,1,1.8.66,2.49,2.49,0,0,1,.64,1.82v.72h-3.52a1.43,1.43,0,0,0,.38,1,1.32,1.32,0,0,0,1,.36,4.09,4.09,0,0,0,.93-.1,4.66,4.66,0,0,0,.92-.33v1.15a3.5,3.5,0,0,1-.83.29A5.26,5.26,0,0,1,189.15,23.55Zm-.21-4.6a.94.94,0,0,0-.74.3,1.39,1.39,0,0,0-.31.85H190a1.24,1.24,0,0,0-.29-.85A1,1,0,0,0,188.94,19Z"/><path class="cls-5" d="M199.41,23.45H195.3V16.31h4.11v1.24h-2.6v1.57h2.42v1.24h-2.42V22.2h2.6Z"/><path class="cls-5" d="M200.3,21.38V20.16h2.62v1.22Z"/><path class="cls-5" d="M207.15,17.47a1.54,1.54,0,0,0-1.32.64,3,3,0,0,0-.47,1.79q0,2.39,1.79,2.39a5.67,5.67,0,0,0,1.82-.38v1.27a5.06,5.06,0,0,1-2,.37,3,3,0,0,1-2.38-.94,4,4,0,0,1-.83-2.71,4.42,4.42,0,0,1,.41-2,2.93,2.93,0,0,1,1.16-1.28,3.45,3.45,0,0,1,1.78-.45,4.8,4.8,0,0,1,2.09.5l-.49,1.23a8,8,0,0,0-.81-.33A2.41,2.41,0,0,0,207.15,17.47Z"/><path class="cls-5" d="M215.33,20.71a2.93,2.93,0,0,1-.7,2.08,2.55,2.55,0,0,1-2,.75,2.74,2.74,0,0,1-1.39-.34,2.29,2.29,0,0,1-.92-1,3.32,3.32,0,0,1-.32-1.5,2.92,2.92,0,0,1,.7-2.08,2.57,2.57,0,0,1,2-.74,2.75,2.75,0,0,1,1.39.34,2.28,2.28,0,0,1,.92,1A3.29,3.29,0,0,1,215.33,20.71Zm-3.77,0a2.29,2.29,0,0,0,.27,1.23,1,1,0,0,0,.87.42.94.94,0,0,0,.86-.41,2.32,2.32,0,0,0,.26-1.23,2.25,2.25,0,0,0-.26-1.22,1.12,1.12,0,0,0-1.72,0A2.25,2.25,0,0,0,211.56,20.71Z"/><path class="cls-5" d="M221.45,23.45H220V20.26a1.61,1.61,0,0,0-.2-.89.7.7,0,0,0-.62-.3.9.9,0,0,0-.83.42,2.75,2.75,0,0,0-.26,1.38v2.57h-1.49V18h1.14l.2.7H218a1.52,1.52,0,0,1,.63-.59,2.06,2.06,0,0,1,1-.21,1.72,1.72,0,0,1,1.66.8h.13a1.48,1.48,0,0,1,.65-.59,2.15,2.15,0,0,1,1-.21,1.9,1.9,0,0,1,1.4.48,2.09,2.09,0,0,1,.48,1.53v3.56h-1.49V20.26a1.61,1.61,0,0,0-.2-.89.7.7,0,0,0-.62-.3.93.93,0,0,0-.82.39,2.22,2.22,0,0,0-.27,1.24Z"/><path class="cls-5" d="M231.27,23.45h-1.49V20.26a1.61,1.61,0,0,0-.2-.89.7.7,0,0,0-.62-.3.9.9,0,0,0-.83.42,2.75,2.75,0,0,0-.26,1.38v2.57h-1.49V18h1.14l.2.7h.08a1.52,1.52,0,0,1,.63-.59,2.06,2.06,0,0,1,1-.21,1.72,1.72,0,0,1,1.66.8h.13a1.48,1.48,0,0,1,.65-.59,2.15,2.15,0,0,1,1-.21,1.9,1.9,0,0,1,1.4.48,2.09,2.09,0,0,1,.48,1.53v3.56h-1.49V20.26a1.61,1.61,0,0,0-.2-.89.7.7,0,0,0-.62-.3.93.93,0,0,0-.82.39,2.22,2.22,0,0,0-.27,1.24Z"/><path class="cls-5" d="M238.67,23.55a2.82,2.82,0,0,1-2.06-.73,2.75,2.75,0,0,1-.74-2.06,3,3,0,0,1,.69-2.12,2.44,2.44,0,0,1,1.9-.75,2.4,2.4,0,0,1,1.8.66,2.49,2.49,0,0,1,.64,1.82v.72h-3.52a1.43,1.43,0,0,0,.38,1,1.32,1.32,0,0,0,1,.36,4.09,4.09,0,0,0,.93-.1,4.66,4.66,0,0,0,.92-.33v1.15a3.5,3.5,0,0,1-.83.29A5.26,5.26,0,0,1,238.67,23.55Zm-.21-4.6a.94.94,0,0,0-.74.3,1.39,1.39,0,0,0-.31.85h2.09a1.24,1.24,0,0,0-.29-.85A1,1,0,0,0,238.46,19Z"/><path class="cls-5" d="M245.16,17.89a2.4,2.4,0,0,1,.5,0l-.11,1.4a1.7,1.7,0,0,0-.44,0,1.58,1.58,0,0,0-1.11.37,1.33,1.33,0,0,0-.4,1v2.78h-1.49V18h1.13l.22.92h.07a2,2,0,0,1,.69-.74A1.69,1.69,0,0,1,245.16,17.89Z"/><path class="cls-5" d="M248.77,23.55q-2.55,0-2.55-2.8a3,3,0,0,1,.69-2.13,2.6,2.6,0,0,1,2-.73,3.78,3.78,0,0,1,1.7.37l-.44,1.15q-.35-.14-.65-.23a2.11,2.11,0,0,0-.61-.09q-1.16,0-1.16,1.65t1.16,1.6a2.65,2.65,0,0,0,.8-.11,2.88,2.88,0,0,0,.73-.36v1.27a2.41,2.41,0,0,1-.73.32A4.1,4.1,0,0,1,248.77,23.55Z"/><path class="cls-5" d="M254.17,23.55a2.82,2.82,0,0,1-2.06-.73,2.75,2.75,0,0,1-.74-2.06,3,3,0,0,1,.69-2.12,2.44,2.44,0,0,1,1.9-.75,2.4,2.4,0,0,1,1.8.66,2.49,2.49,0,0,1,.64,1.82v.72h-3.52a1.43,1.43,0,0,0,.38,1,1.32,1.32,0,0,0,1,.36,4.09,4.09,0,0,0,.93-.1,4.66,4.66,0,0,0,.92-.33v1.15a3.5,3.5,0,0,1-.83.29A5.26,5.26,0,0,1,254.17,23.55ZM254,19a.94.94,0,0,0-.74.3,1.39,1.39,0,0,0-.31.85H255a1.24,1.24,0,0,0-.29-.85A1,1,0,0,0,254,19Z"/><path class="cls-5" d="M38.51,35.45l-1.72-5.6h0q.09,1.71.09,2.28v3.32H35.49V28.31h2.06l1.69,5.46h0l1.79-5.46h2.06v7.14H41.71V32.07c0-.16,0-.34,0-.55s0-.76.07-1.66h0L39.9,35.45Z"/><path class="cls-5" d="M47.27,35.55a2.82,2.82,0,0,1-2.06-.73,2.75,2.75,0,0,1-.74-2.06,3,3,0,0,1,.69-2.12,2.44,2.44,0,0,1,1.9-.75,2.4,2.4,0,0,1,1.8.66,2.49,2.49,0,0,1,.64,1.82v.72H46a1.43,1.43,0,0,0,.38,1,1.32,1.32,0,0,0,1,.36,4.09,4.09,0,0,0,.93-.1,4.66,4.66,0,0,0,.92-.33v1.15a3.5,3.5,0,0,1-.83.29A5.26,5.26,0,0,1,47.27,35.55ZM47.06,31a.94.94,0,0,0-.74.3,1.39,1.39,0,0,0-.31.85H48.1a1.24,1.24,0,0,0-.29-.85A1,1,0,0,0,47.06,31Z"/><path class="cls-5" d="M53.76,29.89a2.4,2.4,0,0,1,.5,0l-.11,1.4a1.7,1.7,0,0,0-.44,0,1.58,1.58,0,0,0-1.11.37,1.33,1.33,0,0,0-.4,1v2.78H50.71V30h1.13l.22.92h.07a2,2,0,0,1,.69-.74A1.69,1.69,0,0,1,53.76,29.89Z"/><path class="cls-5" d="M57.37,35.55q-2.55,0-2.55-2.8a3,3,0,0,1,.69-2.13,2.6,2.6,0,0,1,2-.73,3.78,3.78,0,0,1,1.7.37l-.44,1.15q-.35-.14-.65-.23a2.11,2.11,0,0,0-.61-.09q-1.16,0-1.16,1.65t1.16,1.6a2.65,2.65,0,0,0,.8-.11,2.88,2.88,0,0,0,.73-.36v1.27a2.41,2.41,0,0,1-.73.32A4.1,4.1,0,0,1,57.37,35.55Z"/><path class="cls-5" d="M65.33,35.45H63.84V32.26q0-1.18-.88-1.18a1,1,0,0,0-.9.42,2.59,2.59,0,0,0-.28,1.38v2.57H60.29v-7.6h1.49V29.4q0,.18,0,.85l0,.44h.08a1.73,1.73,0,0,1,1.58-.8,1.93,1.93,0,0,1,1.46.52,2.06,2.06,0,0,1,.5,1.48Z"/><path class="cls-5" d="M70.33,35.45,70,34.71h0a2.2,2.2,0,0,1-.77.66,2.5,2.5,0,0,1-1,.18A1.68,1.68,0,0,1,67,35.1a1.73,1.73,0,0,1-.45-1.28,1.44,1.44,0,0,1,.61-1.28,3.53,3.53,0,0,1,1.83-.46l.95,0v-.24A.74.74,0,0,0,69,31a3.87,3.87,0,0,0-1.54.4l-.49-1a4.44,4.44,0,0,1,2.09-.49,2.6,2.6,0,0,1,1.68.48,1.77,1.77,0,0,1,.59,1.46v3.64Zm-.44-2.53-.58,0a1.85,1.85,0,0,0-1,.23.74.74,0,0,0-.32.65q0,.63.72.63a1.14,1.14,0,0,0,.83-.3,1,1,0,0,0,.31-.79Z"/><path class="cls-5" d="M77.94,35.45H76.46V32.26a1.53,1.53,0,0,0-.21-.89.76.76,0,0,0-.67-.3,1,1,0,0,0-.9.42,2.59,2.59,0,0,0-.28,1.38v2.57H72.91V30H74l.2.7h.08a1.57,1.57,0,0,1,.69-.6,2.33,2.33,0,0,1,1-.2,1.91,1.91,0,0,1,1.45.52,2.07,2.07,0,0,1,.49,1.49Z"/><path class="cls-5" d="M81.78,34.36a3.23,3.23,0,0,0,.94-.17V35.3a3.34,3.34,0,0,1-1.37.25A1.67,1.67,0,0,1,80,35.1a2,2,0,0,1-.41-1.35V31.11h-.71v-.63l.82-.5.43-1.15h1V30h1.53v1.12H81.13v2.63a.58.58,0,0,0,.18.47A.7.7,0,0,0,81.78,34.36Z"/><path class="cls-5" d="M90.9,35.45l-.52-1.7h-2.6l-.52,1.7H85.64l2.52-7.17H90l2.53,7.17Zm-.88-3-.81-2.61q-.09-.3-.13-.48-.16.62-.92,3.09Z"/><path class="cls-5" d="M97.8,35.45l-.42-1.91-.56-2.41h0l-1,4.32h-1.6L92.63,30h1.48l.63,2.42q.11.43.3,1.79h0A10,10,0,0,1,95.25,33l.08-.42L96,30h1.64l.64,2.62q.06.27.14.79a6.88,6.88,0,0,1,.09.8h0c0-.29.09-.62.15-1s.12-.64.17-.8L99.54,30H101l-1.57,5.46Z"/><path class="cls-5" d="M105.34,35.45l-.29-.74h0a2.2,2.2,0,0,1-.77.66,2.5,2.5,0,0,1-1,.18A1.68,1.68,0,0,1,102,35.1a1.73,1.73,0,0,1-.45-1.28,1.44,1.44,0,0,1,.61-1.28,3.53,3.53,0,0,1,1.83-.46l.95,0v-.24a.74.74,0,0,0-.85-.83,3.87,3.87,0,0,0-1.54.4l-.49-1a4.44,4.44,0,0,1,2.09-.49,2.6,2.6,0,0,1,1.68.48,1.77,1.77,0,0,1,.59,1.46v3.64Zm-.44-2.53-.58,0a1.85,1.85,0,0,0-1,.23.74.74,0,0,0-.32.65q0,.63.72.63a1.14,1.14,0,0,0,.83-.3,1,1,0,0,0,.31-.79Z"/><path class="cls-5" d="M111,29.89a2.4,2.4,0,0,1,.5,0l-.11,1.4a1.7,1.7,0,0,0-.44,0,1.58,1.58,0,0,0-1.11.37,1.33,1.33,0,0,0-.4,1v2.78h-1.49V30H109l.22.92h.07a2,2,0,0,1,.69-.74A1.69,1.69,0,0,1,111,29.89Z"/><path class="cls-5" d="M114.09,35.55a1.77,1.77,0,0,1-1.51-.75,3.44,3.44,0,0,1-.55-2.07,3.44,3.44,0,0,1,.56-2.09,1.82,1.82,0,0,1,1.54-.75,1.78,1.78,0,0,1,1.57.8h0a6.06,6.06,0,0,1-.11-1.09V27.86h1.49v7.6H116l-.29-.71h-.06A1.7,1.7,0,0,1,114.09,35.55Zm.52-1.19a1,1,0,0,0,.84-.33,1.93,1.93,0,0,0,.29-1.13v-.16a2.22,2.22,0,0,0-.27-1.26,1,1,0,0,0-.88-.38.87.87,0,0,0-.77.42,2.25,2.25,0,0,0-.28,1.23,2.14,2.14,0,0,0,.28,1.21A.91.91,0,0,0,114.61,34.36Z"/><path class="cls-5" d="M122.5,33.83a1.5,1.5,0,0,1-.58,1.28,2.88,2.88,0,0,1-1.75.44,5.48,5.48,0,0,1-1-.08,3.85,3.85,0,0,1-.79-.24V34a5.15,5.15,0,0,0,.94.33,3.78,3.78,0,0,0,.92.13q.81,0,.81-.47a.39.39,0,0,0-.11-.29,1.55,1.55,0,0,0-.37-.25q-.26-.14-.7-.32a4.39,4.39,0,0,1-.92-.49,1.37,1.37,0,0,1-.43-.52,1.7,1.7,0,0,1-.13-.72,1.29,1.29,0,0,1,.56-1.13,2.74,2.74,0,0,1,1.6-.4,4.54,4.54,0,0,1,1.92.43L122,31.4q-.41-.18-.77-.29a2.41,2.41,0,0,0-.73-.11q-.66,0-.66.36a.42.42,0,0,0,.21.35,5.82,5.82,0,0,0,.93.43,4.29,4.29,0,0,1,.94.48,1.44,1.44,0,0,1,.44.52A1.59,1.59,0,0,1,122.5,33.83Z"/><path class="cls-5" d="M130.86,35.45h-5v-1l1.79-1.81q.8-.82,1-1.13a2.46,2.46,0,0,0,.35-.58,1.49,1.49,0,0,0,.11-.56.81.81,0,0,0-.24-.64.92.92,0,0,0-.63-.21,1.82,1.82,0,0,0-.81.19,4.15,4.15,0,0,0-.82.54l-.82-1a5.34,5.34,0,0,1,.87-.63,3.23,3.23,0,0,1,.76-.29,3.87,3.87,0,0,1,.92-.1,2.72,2.72,0,0,1,1.18.24,1.88,1.88,0,0,1,.8.68,1.82,1.82,0,0,1,.28,1,2.47,2.47,0,0,1-.17.93A3.58,3.58,0,0,1,130,32a13.21,13.21,0,0,1-1.28,1.29l-.92.86v.07h3.11Z"/><path class="cls-5" d="M136.54,31.88a5,5,0,0,1-.61,2.77,2.12,2.12,0,0,1-1.89.9,2.1,2.1,0,0,1-1.86-.93,4.91,4.91,0,0,1-.63-2.74,5,5,0,0,1,.61-2.79,2.37,2.37,0,0,1,3.75,0A4.91,4.91,0,0,1,136.54,31.88Zm-3.49,0a5.53,5.53,0,0,0,.23,1.88.78.78,0,0,0,.76.57.79.79,0,0,0,.76-.58,5.4,5.4,0,0,0,.23-1.87A5.4,5.4,0,0,0,134.8,30a.79.79,0,0,0-1.52,0A5.54,5.54,0,0,0,133.05,31.88Z"/><path class="cls-5" d="M141,35.45h-1.51V30.64l0-.74q-.38.38-.52.49l-.82.66-.73-.91,2.3-1.83H141Z"/><path class="cls-5" d="M143,32.42a4.72,4.72,0,0,1,.9-3.15,3.36,3.36,0,0,1,2.68-1,4.87,4.87,0,0,1,1,.07v1.21a3.92,3.92,0,0,0-.86-.1,3,3,0,0,0-1.27.23,1.57,1.57,0,0,0-.74.69,3.18,3.18,0,0,0-.29,1.3h.06a1.66,1.66,0,0,1,1.55-.83,1.92,1.92,0,0,1,1.5.6,2.39,2.39,0,0,1,.54,1.66,2.49,2.49,0,0,1-.64,1.81,2.37,2.37,0,0,1-1.79.67,2.55,2.55,0,0,1-1.38-.37,2.37,2.37,0,0,1-.91-1.07A4.06,4.06,0,0,1,143,32.42Zm2.58,1.92a.89.89,0,0,0,.74-.32,1.45,1.45,0,0,0,.26-.93,1.28,1.28,0,0,0-.24-.82.88.88,0,0,0-.73-.3,1.12,1.12,0,0,0-.78.3.91.91,0,0,0-.33.69,1.57,1.57,0,0,0,.31,1A.93.93,0,0,0,145.56,34.34Z"/><path class="cls-5" d="M155.79,34.64a.87.87,0,0,1-.86.86,1,1,0,0,1-.82-.36,1.59,1.59,0,0,1-.29-1V28.75q0-.89-.34-.89t-.79,1.39h-.42q-.4-1.39-.79-1.39a1,1,0,0,0-.26,0l-.18-.7.24,0q.9,0,1.2,1.11.31-1.11,1.2-1.11t1,1.58v5.08a1,1,0,0,1,.3,0,.87.87,0,0,1,.86.86Zm-.56,0a.28.28,0,0,0-.09-.21.29.29,0,1,0,.09.21Z"/><path class="cls-5" d="M161.39,35.45h-.81V31.73a.94.94,0,0,0-.45-.79,1.84,1.84,0,0,0-1.09-.32,1.87,1.87,0,0,0-1.15.36,1.1,1.1,0,0,0-.48.92,6.14,6.14,0,0,0,.29,1.48,4.63,4.63,0,0,1,.21,1,4.28,4.28,0,0,1,.3-.37,4.83,4.83,0,0,0,.48-.63.9.9,0,0,1-.45-.32.84.84,0,0,1-.17-.51.86.86,0,0,1,1.72,0v0a1.58,1.58,0,0,1-.2.73,5,5,0,0,1-.92,1.08,4.55,4.55,0,0,0-.63.7.75.75,0,0,0-.12.37h-.81v-.81a6.26,6.26,0,0,0-.24-1.37,6.42,6.42,0,0,1-.25-1.41,1.85,1.85,0,0,1,.64-1.39,2.49,2.49,0,0,1,1.77-.6,2.65,2.65,0,0,1,1.72.52,1.63,1.63,0,0,1,.64,1.32Zm-2.46-2.62a.29.29,0,0,0,.21-.51.29.29,0,0,0-.21-.09.29.29,0,0,0-.21.09.28.28,0,0,0,0,.42A.29.29,0,0,0,158.94,32.83Z"/><path class="cls-5" d="M162.09,25.37a2.2,2.2,0,0,1-.93,1.08,2.75,2.75,0,0,1-1.49.42h-.36v-.39a1.35,1.35,0,0,0,.42-.52.58.58,0,0,1,0-1.16.68.68,0,0,1,.49.19.67.67,0,0,1,.2.52,1.3,1.3,0,0,1-.42.84,2,2,0,0,0,1.69-1.45Zm-2.36.23a.22.22,0,0,0,.22-.22.22.22,0,0,0-.06-.15.22.22,0,0,0-.38.15.21.21,0,0,0,.07.16A.21.21,0,0,0,159.73,25.6Z"/><path class="cls-5" d="M167.83,35.45H167v-4a1.53,1.53,0,0,0-.11-.66.34.34,0,0,0-.3-.23q-.21,0-.45.37a4.41,4.41,0,0,0-.46,1l-1.25,3.54h-.91V31.54a1,1,0,0,1-.3,0,.83.83,0,0,1-.61-.25.82.82,0,0,1-.26-.61.87.87,0,0,1,.86-.86,1,1,0,0,1,.82.36,1.57,1.57,0,0,1,.29,1v2.86l.91-2.54a5.12,5.12,0,0,1,.43-.94,1.79,1.79,0,0,1,.5-.56,1.06,1.06,0,0,1,.61-.19.85.85,0,0,1,.75.41,2.11,2.11,0,0,1,.27,1.17ZM163.24,31a.28.28,0,0,0,.21-.09.29.29,0,0,0,.09-.21.31.31,0,0,0-.3-.3.29.29,0,0,0-.21.09.29.29,0,0,0-.09.21.31.31,0,0,0,.3.3Z"/><path class="cls-5" d="M167.49,29.34h-3.84v-.1a1.45,1.45,0,0,1,1.63-1.53,2.18,2.18,0,0,1,1.63.7v-.95h.58Zm-.9-.53a1.49,1.49,0,0,0-1.31-.57,1.28,1.28,0,0,0-.68.16.63.63,0,0,0-.32.41Z"/><path class="cls-5" d="M167.49,26.87h-.58V25.14h.58Z"/><path class="cls-5" d="M170.88,35.45H170V31.54a1,1,0,0,1-.3,0,.83.83,0,0,1-.61-.25.82.82,0,0,1-.26-.61.87.87,0,0,1,.86-.86,1,1,0,0,1,.82.36,1.57,1.57,0,0,1,.29,1v3.5a8.28,8.28,0,0,1,2-1.18V29.92h.81V33.5a1.5,1.5,0,0,1,.85.39,1,1,0,0,1,.31.72.91.91,0,0,1-.23.66.82.82,0,0,1-.62.24q-1.12,0-1.12-1.38A7.77,7.77,0,0,0,170.88,35.45Zm-1.15-5a.29.29,0,0,0-.21.09.29.29,0,0,0-.09.21.31.31,0,0,0,.3.3.28.28,0,0,0,.21-.09.29.29,0,0,0,.09-.21.31.31,0,0,0-.3-.3Zm3.9,3.61v.47a.52.52,0,0,0,.09.32.27.27,0,0,0,.22.12.26.26,0,0,0,.2-.1.36.36,0,0,0,.09-.24.49.49,0,0,0-.17-.36A.79.79,0,0,0,173.63,34Z"/><path class="cls-5" d="M174,29.34h-3.84v-.1a1.45,1.45,0,0,1,1.63-1.53,2.18,2.18,0,0,1,1.63.7v-.95H174Zm-.9-.53a1.49,1.49,0,0,0-1.31-.57,1.28,1.28,0,0,0-.68.16.63.63,0,0,0-.32.41Z"/><path class="cls-5" d="M174,26.87h-.58V25.14H174Z"/><path class="cls-5" d="M175.66,34.75a.82.82,0,0,1,.22-.62.89.89,0,0,1,.64-.21.87.87,0,0,1,.63.21.95.95,0,0,1,0,1.22.85.85,0,0,1-.62.22.87.87,0,0,1-.63-.22A.81.81,0,0,1,175.66,34.75Zm1.46-1.67h-1.19l-.25-4.77h1.69Z"/><path class="cls-5" d="M178.53,34.75a.82.82,0,0,1,.22-.62.89.89,0,0,1,.64-.21.87.87,0,0,1,.63.21.95.95,0,0,1,0,1.22.85.85,0,0,1-.62.22.87.87,0,0,1-.63-.22A.81.81,0,0,1,178.53,34.75ZM180,33.09h-1.19l-.25-4.77h1.69Z"/></svg>