<svg id="Layer_1" data-name="Layer 1" xmlns="http://www.w3.org/2000/svg" viewBox="0 0 1024 170">
    <defs>
        <style>
            .cls-1,.cls-13,.cls-14,.cls-8,.cls-9{fill:none}.cls-2{clip-path:url(#clip-path)}.cls-3{fill:#f1f3f2}.cls-4{clip-path:url(#clip-path-2)}.cls-5{fill:#f63}.cls-10,.cls-11,.cls-12,.cls-6{fill:#fff}.cls-7{fill:#3cc}.cls-10,.cls-11,.cls-12,.cls-13,.cls-14,.cls-8,.cls-9{stroke:#3cc}.cls-13,.cls-8{stroke-miterlimit:10}.cls-8{stroke-width:1.61px}.cls-10,.cls-11,.cls-12,.cls-14,.cls-9{stroke-linecap:round;stroke-linejoin:round}.cls-9{stroke-width:16px}.cls-10{stroke-width:.73px}.cls-11{stroke-width:.72px}.cls-12{stroke-width:.61px}.cls-13{stroke-width:.3px}.cls-14{stroke-width:.75px}.cls-15{clip-path:url(#clip-path-3)}
        </style>
        <clipPath id="clip-path">
            <path class="cls-1" d="M0-.37h1024v170H0z"/>
        </clipPath>
        <clipPath id="clip-path-2">
            <path class="cls-1" d="M0-.44h1027V170.5H0z"/>
        </clipPath>
        <clipPath id="clip-path-3">
            <path class="cls-1" d="M828.13-231.75h1024v170h-1024z"/>
        </clipPath>
    </defs>
    <title>
        header_ph-19
    </title>
    <g class="cls-2">
        <path class="cls-3" d="M0-.44h1147V170.5H0z"/>
        <g class="cls-4">
            <path class="cls-5" d="M613.44-.5h24.19v117.48h-24.19zm46.75 0h24.19v117.48h-24.19zm46.76 0h24.19v117.48h-24.19zm46.76 0h24.19v117.48h-24.19z"/>
            <circle class="cls-6" cx="777.89" cy="38.01" r="11.85"/>
            <circle class="cls-5" cx="802.6" cy="70.4" r="11.85"/>
            <circle class="cls-6" cx="848.36" cy="96.21" r="11.85"/>
            <circle class="cls-6" cx="894.4" cy="23.37" r="11.85"/>
            <path class="cls-3" d="M170.1 54.5h82.59v106.06H170.1z"/>
            <path class="cls-7" d="M163 174.49V33.39h88.36v25.87h-60.9V91.5h55.13V116h-55.13v32.64h60.9v25.87zM874.52 96.7h-51.34l-10.52 28.88h-26L835.12-.83h28.53l48.14 126.41H885zm-43.15-22.47h34.95l-17.47-47.78z"/>
            <path class="cls-8" d="M928.57 112.3a11.36 11.36 0 0 1-2.17.24c-5.5 0-10.48-4.15-10.48-11.44 0-7 4.63-11.29 10.09-11.29 4.06 0 7.34 2.22 9.7 6.08l3.67 6a6.38 6.38 0 0 0 2.85 2.7v-15H948v23.17c-5.5 0-10-1.78-13.37-7.39l-3.09-5.17c-1.59-2.65-3.23-3.71-5.41-3.71s-4.3 1.6-4.3 4.73c0 3.33 2.27 5 5.21 5a7.13 7.13 0 0 0 1.74-.24zm-7.38-28.92A11.85 11.85 0 0 1 915.93 73a11.7 11.7 0 0 1 5.26-10.28c3.23-2.12 7.14-2.8 11.15-2.8s7.92.68 11.15 2.8A11.7 11.7 0 0 1 948.75 73a11.85 11.85 0 0 1-5.26 10.34c-3.23 2.12-7.14 2.75-11.15 2.75s-7.92-.58-11.15-2.71zm19.12-5.6a5.23 5.23 0 0 0 2.55-4.78 5.09 5.09 0 0 0-2.56-4.68c-1.88-1.26-4.68-1.74-8-1.74s-6.08.48-8 1.74a5.09 5.09 0 0 0-2.48 4.68 5.23 5.23 0 0 0 2.56 4.73c1.88 1.21 4.68 1.69 8 1.69s6.04-.42 7.93-1.64zm7.69-28.3h-21V57h-4.49c0-4.58-2.61-7.78-5.89-8.4v-5.74H948zm-25.22-34.77a13.44 13.44 0 0 0-1.11 5.17c0 5.31 3.09 9.66 9 10.38a8.87 8.87 0 0 1-3.48-7.44c0-6.42 4.06-10.81 10.52-10.81s11 5.21 11 12.12-4.92 12.69-14.39 12.69c-11.25 0-18.39-7-18.39-17.38a13.65 13.65 0 0 1 1.45-6.57zm20.32 9.46a5.22 5.22 0 0 0-5.26-5.55c-3.23 0-5.21 2.51-5.21 5.55a5.17 5.17 0 0 0 5.21 5.5 5.3 5.3 0 0 0 5.27-5.49z"/>
            <path class="cls-7" d="M954.4 12.01h12.32v104.72H954.4z"/>
            <path class="cls-3" d="M453.24 23.64h108.35v93.01H453.24z"/>
            <path class="cls-7" d="M-1.56-7.18h54.7v179.82h-54.7z"/>
            <path class="cls-5" d="M163-.83h95.47v34.22H163z"/>
            <path class="cls-3" d="M410.14 134.45h51.59v56.37h-51.59z"/>
            <path class="cls-9" d="M480.51 114.57a28.39 28.39 0 0 1 56.73 0"/>
            <path class="cls-5" d="M453.24 116.64h452.28v8.94H453.24z"/>
            <path class="cls-6" d="M53.14 7.58H-.15V84.7l23.82-19.08a4.81 4.81 0 0 1 6 0l23.44 19z"/>
            <path class="cls-6" d="M53.29-.89H0v77.12l26.85-21.5 26.44 21.5V-.89z"/>
            <circle class="cls-3" cx="26.45" cy="85" r="6.61"/>
            <path class="cls-3" d="M455.21 134.43h449.85v36.9H455.21z"/>
            <path class="cls-6" d="M905.05 116.27h75.49v54.94h-75.49z"/>
            <path class="cls-6" d="M1025.12 105.27h-46v65.94l23.17-18.47 22.83 18.47v-65.94z"/>
            <path class="cls-5" d="M1024.7 89.07h-46.11v66.3l23.23-18.46 22.88 18.46v-66.3z"/>
            <path class="cls-6" d="M1025.12 72.27h-46v67.27l23.17-18.46 22.83 18.46V72.27z"/>
            <path class="cls-5" d="M1024.7 57.41h-46.11v66.3l23.23-18.46 22.88 18.46v-66.3z"/>
            <path class="cls-6" d="M1025.12 42.27h-46v65.61l23.17-18.47 22.83 18.47V42.27z"/>
            <path class="cls-5" d="M1024.7 25.74h-46.11v66.3l23.23-18.46 22.88 18.46v-66.3z"/>
            <path class="cls-6" d="M1025.12 10.27h-46v65.94l23.17-18.46 22.83 18.46V10.27z"/>
            <path class="cls-5" d="M1024.7-5.92h-46.11v66.3l23.23-18.47 22.88 18.47v-66.3z"/>
            <path class="cls-7" d="M455.67 125.6h449.67v8.83H455.67z"/>
            <path class="cls-6" d="M882.14 116.19l-19.66 22.47a7.55 7.55 0 0 0 0 9.9l19.7 22.85h-85.9V177h172.19v-60.81z"/>
            <circle class="cls-3" cx="886.22" cy="143.76" r="7.34"/>
            <path class="cls-7" d="M455.73 134.25l-17.84 18.54 18.05 18.55h-52.95l-.05-36.96 52.79-.13z"/>
            <path class="cls-5" d="M375.87 275.48v-98.9l-40.6 98.91h-22.89l-40.6-98.11v98.11h-26.26V134.38h36.22l42.39 101.89 41.39-101.89h37.42v141.1z"/>
            <path class="cls-1" d="M0 .5h1027v170.84H0z"/>
            <path class="cls-6" d="M245.55-.83h210.12v135.26H245.55z"/>
        </g>
        <path class="cls-7" d="M602 12.72a16.28 16.28 0 1 1-16.46-16.28A16.27 16.27 0 0 1 602 12.72zM455.85-.39h97.71V26h-97.71z"/>
    </g>
    <path class="cls-5" d="M132.79 85H84.41v69.56l22.24-17.67a3.41 3.41 0 0 1 4.26 0l21.89 17.66z"/>
    <circle class="cls-10" cx="108.95" cy="59.01" r="43.53"/>
    <path class="cls-11" d="M70.52 61v-1.71a38.84 38.84 0 0 1 74.62-15.12M71.65 70.75a38.85 38.85 0 0 0 74.05.49"/>
    <path class="cls-10" d="M76.38 72.9a35.36 35.36 0 0 0 31.69 21.48h1.1a35.31 35.31 0 0 0 32.14-21.48M73.6 60.84a35.33 35.33 0 0 1 30.7-36.74M137 37.78a35.28 35.28 0 0 1 7.13 23.06m-35.01-37.11a35.09 35.09 0 0 1 7.43 1"/>
    <path class="cls-12" d="M133.52 77.45h-6.73m-36 0h-6.73"/>
    <path class="cls-7" d="M93.09 77.57v1.76h-.91v-4.68h1.75a1.46 1.46 0 1 1 0 2.92zm.73-.79a.67.67 0 1 0 0-1.34h-.72v1.34zm3.12 2.55h-.88v-4.78h.88v1.8a1.23 1.23 0 0 1 2.09.93v2h-.88v-1.9a.57.57 0 0 0-.6-.65.61.61 0 0 0-.61.63zm3.41-4.86a.54.54 0 1 1-.54.55.54.54 0 0 1 .54-.55zm-.44 4.86v-3.25h.88v3.25zm1.82 0v-4.78h.88v4.78zm2.27-4.86a.54.54 0 1 1-.54.55.54.54 0 0 1 .54-.55zm-.44 4.86v-3.25h.88v3.25zm1.8 1.26v-4.51h.85v.4a1.14 1.14 0 0 1 1-.47 1.51 1.51 0 0 1 1.5 1.69 1.56 1.56 0 0 1-1.53 1.71 1.14 1.14 0 0 1-.94-.4v1.57zM107 76.8a.92.92 0 1 0 .81.91.82.82 0 0 0-.81-.91zm2.4 3.79v-4.51h.85v.4a1.14 1.14 0 0 1 1-.47 1.51 1.51 0 0 1 1.5 1.69 1.56 1.56 0 0 1-1.53 1.71 1.14 1.14 0 0 1-.94-.4v1.57zm1.68-3.79a.92.92 0 1 0 .81.91.82.82 0 0 0-.81-.91zm2.8-2.33a.54.54 0 1 1-.54.55.54.54 0 0 1 .54-.55zm-.44 4.86v-3.25h.88v3.25zm2.7 0h-.88v-3.25h.85v.4A1.08 1.08 0 0 1 117 76a1.14 1.14 0 0 1 1.18 1.29v2h-.88v-1.9a.57.57 0 0 0-.6-.65.61.61 0 0 0-.61.67zm5.86-.93a1.46 1.46 0 0 1-1.48 1 1.73 1.73 0 0 1-.08-3.45 1.52 1.52 0 0 1 1.61 1.68v.27h-2.33a.79.79 0 0 0 .82.74.72.72 0 0 0 .74-.5zm-.82-1.06a.65.65 0 0 0-.73-.64.7.7 0 0 0-.73.64zm2.06.92a.54.54 0 0 0 .59.5c.29 0 .43-.15.43-.32s-.1-.26-.35-.32l-.43-.1a1 1 0 0 1-.91-1 1.28 1.28 0 0 1 2.49-.12l-.73.17a.5.5 0 0 0-.54-.44.37.37 0 0 0-.42.32c0 .16.12.26.3.29l.46.1c.64.13 1 .52 1 1a1.12 1.12 0 0 1-1.26 1.07 1.22 1.22 0 0 1-1.35-1zM85.46 40.2a1.72 1.72 0 1 1-1.72 1.74 1.72 1.72 0 0 1 1.72-1.74zm-1.38 15.46V45.33h2.79v10.33zm5.98 0V40.77h9.32v2.73H93v3.4h5.82v2.58H93v3.44h6.42v2.73zm25.94 0V45.22l-4.28 10.43h-2.41l-4.28-10.35v10.36h-2.77V40.77h3.82l4.47 10.75 4.37-10.75h3.95v14.89zm15.15-3.41h-6l-1.24 3.4h-3.11l5.71-14.89h3.36l5.67 14.89h-3.15zm-5.08-2.65h4.12l-2.06-5.6zm-41.68 8.47a.48.48 0 1 1-.48.49.48.48 0 0 1 .48-.49zM84 62.39V59.5h.78v2.89zm2.49-1.57v1.57h-.81v-4.16h1.56a1.3 1.3 0 1 1 0 2.6zm.65-.7a.6.6 0 1 0 0-1.19h-.64v1.19zm3.72.16h-.24c-.4 0-.75.19-.75.82v1.32h-.77V59.5h.76v.43a.86.86 0 0 1 .82-.45h.18zm.94-2.21a.48.48 0 1 1-.48.49.48.48 0 0 1 .48-.49zm-.39 4.32V59.5h.78v2.89zm2.18-1.44a.74.74 0 0 0 .74.82.66.66 0 0 0 .66-.49l.69.23a1.34 1.34 0 0 1-1.35 1 1.5 1.5 0 0 1-1.52-1.53 1.48 1.48 0 0 1 1.5-1.53 1.32 1.32 0 0 1 1.36 1l-.7.24a.63.63 0 0 0-.64-.49.74.74 0 0 0-.74.75zm5.22.62a1.3 1.3 0 0 1-1.32.92 1.54 1.54 0 0 1-.07-3.07 1.35 1.35 0 0 1 1.43 1.5v.24h-2.07a.7.7 0 0 0 .73.66.64.64 0 0 0 .66-.44zm-.73-.95a.58.58 0 0 0-.65-.57.63.63 0 0 0-.65.57zm2.92 1.77v-4.16h2.61V59h-1.8v1h1.63v.72h-1.63v1h1.8v.76zm3.17-1.39v-.7h1.7v.7zm2.19-.69a2.1 2.1 0 0 1 2.12-2.17 1.83 1.83 0 0 1 1.91 1.38l-.76.24a1.09 1.09 0 0 0-1.15-.84 1.39 1.39 0 0 0 0 2.77 1.16 1.16 0 0 0 1.17-.85l.76.23a1.89 1.89 0 0 1-1.93 1.42 2.08 2.08 0 0 1-2.12-2.18zm7.39.64a1.52 1.52 0 1 1-1.52-1.53 1.48 1.48 0 0 1 1.52 1.53zm-.78 0a.74.74 0 1 0-.73.82.74.74 0 0 0 .76-.82zm1.39 1.44V59.5h.75v.35a1 1 0 0 1 .85-.43.89.89 0 0 1 .86.48 1.07 1.07 0 0 1 2 .62v1.87H118v-1.71a.48.48 0 0 0-.51-.55.53.53 0 0 0-.53.57v1.69h-.78v-1.71a.49.49 0 0 0-.51-.55.53.53 0 0 0-.54.57v1.69zm5.2 0V59.5h.75v.35a1 1 0 0 1 .85-.43.89.89 0 0 1 .86.48 1.07 1.07 0 0 1 2 .62v1.87h-.76v-1.71a.48.48 0 0 0-.51-.55.53.53 0 0 0-.53.57v1.69h-.78v-1.71a.49.49 0 0 0-.51-.55.53.53 0 0 0-.54.57v1.69zm7.79-.82a1.3 1.3 0 0 1-1.32.92 1.54 1.54 0 0 1-.07-3.07 1.35 1.35 0 0 1 1.43 1.5v.24h-2.07a.7.7 0 0 0 .73.66.64.64 0 0 0 .66-.44zm-.73-.95A.58.58 0 0 0 126 60a.63.63 0 0 0-.65.57zm3.14-.34h-.24c-.4 0-.75.19-.75.82v1.32H128V59.5h.76v.43a.86.86 0 0 1 .82-.45h.18zm1.09.67a.74.74 0 0 0 .74.82.66.66 0 0 0 .66-.49l.69.23a1.34 1.34 0 0 1-1.35 1 1.5 1.5 0 0 1-1.52-1.53 1.48 1.48 0 0 1 1.5-1.53 1.32 1.32 0 0 1 1.36 1l-.7.24a.63.63 0 0 0-.64-.49.74.74 0 0 0-.74.75zm5.22.62a1.3 1.3 0 0 1-1.32.92 1.54 1.54 0 0 1-.07-3.07 1.35 1.35 0 0 1 1.43 1.5v.24H134a.7.7 0 0 0 .73.66.64.64 0 0 0 .66-.44zm-.73-.95a.58.58 0 0 0-.65-.57.63.63 0 0 0-.65.57zm-53.19 8.51v-2.92L81 69.13h-.68l-1.2-2.9v2.9h-.82V65h1.07l1.25 3 1.22-3h1.1v4.17zm4.26-.83a1.3 1.3 0 0 1-1.32.92 1.54 1.54 0 0 1-.09-3.07 1.35 1.35 0 0 1 1.43 1.5v.24h-2.06a.7.7 0 0 0 .73.66.64.64 0 0 0 .66-.44zm-.73-.95a.58.58 0 0 0-.65-.57.63.63 0 0 0-.65.57zm3.15-.35h-.24c-.4 0-.75.19-.75.82v1.32h-.78v-2.9h.76v.43a.86.86 0 0 1 .82-.45h.18zm1.08.69a.74.74 0 0 0 .74.82.66.66 0 0 0 .66-.49l.69.23a1.34 1.34 0 0 1-1.35 1 1.5 1.5 0 0 1-1.52-1.53 1.48 1.48 0 0 1 1.5-1.53 1.32 1.32 0 0 1 1.36 1l-.7.24a.63.63 0 0 0-.64-.49.74.74 0 0 0-.74.75zm3.44 1.44h-.78v-4.25h.78v1.6a1.09 1.09 0 0 1 1.86.83v1.82h-.78v-1.69a.51.51 0 0 0-.53-.58.54.54 0 0 0-.54.56zm3.34-1.66l.71-.11c.16 0 .22-.11.22-.21s-.16-.38-.49-.38a.51.51 0 0 0-.55.47l-.69-.15a1.15 1.15 0 0 1 1.24-1c.92 0 1.26.52 1.26 1.1v1.42a3.24 3.24 0 0 0 0 .46h-.69a2 2 0 0 1 0-.35 1 1 0 0 1-.85.43.91.91 0 0 1-1-.87.89.89 0 0 1 .84-.81zm.93.49v-.13l-.65.1a.36.36 0 0 0-.36.36.34.34 0 0 0 .38.33.59.59 0 0 0 .62-.62zm2.32 1.17h-.78v-2.89h.76v.36a1 1 0 0 1 .83-.44 1 1 0 0 1 1 1.15v1.82H101v-1.69a.51.51 0 0 0-.53-.58.54.54 0 0 0-.54.6zm3.61-2.89h.58v.69h-.58v1.21c0 .25.12.33.34.33h.24v.65a1.16 1.16 0 0 1-.44.07.84.84 0 0 1-.92-.89v-1.37h-.52v-.69h.15a.42.42 0 0 0 .45-.46v-.41h.7zm5.21 1.94h-1.69l-.35 1h-.86l1.6-4.17h.94l1.6 4.12h-.88zm-1.42-.74h1.15l-.58-1.57zm5.41-1.2l.62 1.86.53-1.86h.78l-.9 2.89H113l-.68-2-.66 2h-.79l-.92-2.89h.82l.53 1.86.63-1.86zm3.09 1.23l.71-.11c.16 0 .22-.11.22-.21s-.16-.38-.49-.38a.51.51 0 0 0-.55.47l-.73-.14a1.15 1.15 0 0 1 1.24-1c.92 0 1.26.52 1.26 1.1v1.42a3.24 3.24 0 0 0 0 .46h-.72a2 2 0 0 1 0-.35 1 1 0 0 1-.85.43.91.91 0 0 1-1-.87.89.89 0 0 1 .91-.82zm.93.49v-.13l-.65.1a.36.36 0 0 0-.36.36.34.34 0 0 0 .38.33.59.59 0 0 0 .62-.62zm3.3-.96h-.24c-.4 0-.75.19-.75.82v1.32h-.78v-2.9h.76v.43a.86.86 0 0 1 .82-.45h.18zm3.28 1.61v.52h-.75a2 2 0 0 1 0-.33.91.91 0 0 1-.81.41 1.52 1.52 0 0 1 0-3 .87.87 0 0 1 .82.36v-1.69h.77zm-1.47-.11a.73.73 0 0 0 .71-.83.72.72 0 0 0-.71-.8.82.82 0 0 0 0 1.63zm2.73-.32a.48.48 0 0 0 .53.44c.26 0 .38-.13.38-.29s-.09-.24-.31-.28l-.38-.09c-.56-.12-.81-.46-.81-.86a1.14 1.14 0 0 1 2.21-.11l-.65.15a.44.44 0 0 0-.48-.39c-.21 0-.37.12-.37.29s.11.23.26.26l.41.09c.57.12.86.46.86.89a1 1 0 0 1-1.12 1 1.09 1.09 0 0 1-1.2-.89z"/>
    <path class="cls-13" d="M128.17 66.77a1.44 1.44 0 0 1 0-.26 1.29 1.29 0 0 1 1.39-1.27 1.26 1.26 0 0 1 1.37 1.23 1.37 1.37 0 0 1-.74 1.18l-.73.45a.78.78 0 0 0-.33.35h1.83v.7h-2.82a1.74 1.74 0 0 1 .9-1.63l.63-.38a.74.74 0 0 0 .45-.66.52.52 0 0 0-.58-.52.58.58 0 0 0-.6.63.83.83 0 0 0 0 .21zm3.52-.9a1.44 1.44 0 0 1 1.26-.64 1.42 1.42 0 0 1 1.25.64 2.87 2.87 0 0 1 0 2.71 1.42 1.42 0 0 1-1.25.64 1.44 1.44 0 0 1-1.26-.64 2.92 2.92 0 0 1 0-2.71zm.68 2.33a.64.64 0 0 0 .58.31.62.62 0 0 0 .57-.31 2.33 2.33 0 0 0 0-1.94.62.62 0 0 0-.57-.31.63.63 0 0 0-.58.31 2.39 2.39 0 0 0 0 1.94zm3.44.93v-2.55h-.92V66a1 1 0 0 0 1-.72h.7v3.81zm4.19-3.07a1.63 1.63 0 0 0-.63-.13 1.19 1.19 0 0 0-1.23 1.07 1.08 1.08 0 0 1 .9-.42 1.22 1.22 0 0 1 1.32 1.28 1.37 1.37 0 0 1-1.47 1.34 1.56 1.56 0 0 1-1.55-1.75 2.05 2.05 0 0 1 2.12-2.24 1.66 1.66 0 0 1 .8.18zm-1.15 2.47a.64.64 0 1 0-.67-.64.64.64 0 0 0 .7.65z"/>
    <path class="cls-10" d="M70.48 64.55s-.82 12 12.84 24M146 47.17s4.49 14.7-1.88 28.09"/>
    <path class="cls-14" d="M120.6 25.65a33.58 33.58 0 0 1 14 9.21"/>
    <path class="cls-7" d="M264 33.26a1.68 1.68 0 1 1-1.68 1.7 1.68 1.68 0 0 1 1.68-1.7zm-1.35 15V38.25h2.72v10.06zm8.6-5.41v5.46h-2.82v-14.5h5.42a4.52 4.52 0 1 1 0 9zm2.25-2.43a2.08 2.08 0 1 0 0-4.15h-2.23v4.15zm13 .53a4.14 4.14 0 0 0-.82-.08c-1.39 0-2.6.67-2.6 2.84v4.6h-2.72V38.25H283v1.49a3 3 0 0 1 2.86-1.57 6.11 6.11 0 0 1 .63 0zm3.27-7.69A1.68 1.68 0 1 1 288.1 35a1.68 1.68 0 0 1 1.67-1.74zm-1.35 15V38.25h2.72v10.06zm7.58-4.98a2.59 2.59 0 0 0 2.58 2.84 2.3 2.3 0 0 0 2.31-1.7l2.39.8a4.67 4.67 0 0 1-4.7 3.39 5.2 5.2 0 0 1-5.29-5.33 5.15 5.15 0 0 1 5.21-5.33 4.6 4.6 0 0 1 4.72 3.39l-2.43.82a2.19 2.19 0 0 0-2.23-1.7 2.56 2.56 0 0 0-2.56 2.82zm18.2 2.14a4.53 4.53 0 0 1-4.58 3.19 5.09 5.09 0 0 1-5.19-5.38 5 5 0 0 1 4.95-5.29c3.11 0 5 2 5 5.21v.84h-7.2a2.45 2.45 0 0 0 2.53 2.29 2.22 2.22 0 0 0 2.29-1.53zm-2.53-3.29a2 2 0 0 0-2.25-2 2.18 2.18 0 0 0-2.25 2zm10.08 6.18v-14.5h9.08v2.66h-6.25v3.31h5.66v2.52h-5.66v3.35h6.25v2.66zm11.12-4.87V41h5.93v2.41zm7.64-2.37a7.31 7.31 0 0 1 7.38-7.56c4 0 6.07 2.45 6.64 4.8l-2.66.84a3.79 3.79 0 0 0-4-2.92 4.46 4.46 0 0 0-4.46 4.84 4.47 4.47 0 0 0 4.5 4.78 4 4 0 0 0 4.07-3l2.64.8a6.59 6.59 0 0 1-6.7 4.93 7.24 7.24 0 0 1-7.41-7.51zm25.72 2.21a5.27 5.27 0 1 1-5.23-5.34 5.16 5.16 0 0 1 5.23 5.34zm-2.72 0a2.57 2.57 0 1 0-5.11 0 2.57 2.57 0 1 0 5.11 0zm4.87 5.03V38.25H371v1.23a3.46 3.46 0 0 1 2.91-1.48 3.11 3.11 0 0 1 3 1.68 3.72 3.72 0 0 1 6.83 2.15v6.52h-2.64v-6a1.68 1.68 0 0 0-1.78-1.9 1.85 1.85 0 0 0-1.86 2v5.89h-2.7v-6a1.69 1.69 0 0 0-1.78-1.9 1.84 1.84 0 0 0-1.88 2v5.89zm18.11 0V38.25h2.6v1.23A3.46 3.46 0 0 1 392 38a3.11 3.11 0 0 1 3 1.68 3.72 3.72 0 0 1 6.83 2.15v6.52h-2.63v-6a1.68 1.68 0 0 0-1.78-1.9 1.85 1.85 0 0 0-1.86 2v5.89h-2.7v-6a1.69 1.69 0 0 0-1.78-1.9 1.84 1.84 0 0 0-1.88 2v5.89zm27.12-2.89a4.53 4.53 0 0 1-4.61 3.19 5.09 5.09 0 0 1-5.19-5.38 5 5 0 0 1 4.95-5.29c3.11 0 5 2 5 5.21v.84h-7.2a2.45 2.45 0 0 0 2.53 2.29 2.22 2.22 0 0 0 2.29-1.53zm-2.53-3.29a2 2 0 0 0-2.25-2 2.18 2.18 0 0 0-2.25 2zM422 40.95a4.14 4.14 0 0 0-.82-.08c-1.39 0-2.6.67-2.6 2.84v4.6h-2.68V38.25h2.64v1.49a3 3 0 0 1 2.86-1.57 6.11 6.11 0 0 1 .63 0zm3.82 2.33a2.59 2.59 0 0 0 2.58 2.84 2.3 2.3 0 0 0 2.31-1.7l2.39.8a4.67 4.67 0 0 1-4.7 3.39 5.2 5.2 0 0 1-5.29-5.33 5.15 5.15 0 0 1 5.21-5.33 4.6 4.6 0 0 1 4.68 3.39l-2.43.82a2.19 2.19 0 0 0-2.23-1.7 2.56 2.56 0 0 0-2.52 2.82zM444 45.42a4.53 4.53 0 0 1-4.58 3.19 5.09 5.09 0 0 1-5.19-5.38 5 5 0 0 1 4.95-5.29c3.11 0 5 2 5 5.21v.84h-7.2a2.45 2.45 0 0 0 2.53 2.29 2.22 2.22 0 0 0 2.29-1.53zm-2.53-3.29a2 2 0 0 0-2.25-2 2.18 2.18 0 0 0-2.25 2zM276.2 68.28V58.13L272 68.28h-2.35l-4.17-10.08v10.08h-2.7V53.79h3.72l4.35 10.47 4.25-10.47h3.9v14.49zM291 65.4a4.53 4.53 0 0 1-4.58 3.19 5.34 5.34 0 0 1-.25-10.67c3.11 0 5 2 5 5.21v.84h-7.2a2.45 2.45 0 0 0 2.53 2.29 2.22 2.22 0 0 0 2.29-1.53zm-2.53-3.29a2 2 0 0 0-2.25-2 2.18 2.18 0 0 0-2.25 2zm10.99-1.18a4.09 4.09 0 0 0-.82-.08c-1.39 0-2.6.68-2.6 2.84v4.6h-2.72V58.23H296v1.49a3 3 0 0 1 2.86-1.57 6.32 6.32 0 0 1 .63 0zm3.79 2.33a2.59 2.59 0 0 0 2.58 2.84 2.3 2.3 0 0 0 2.31-1.7l2.39.8a4.67 4.67 0 0 1-4.7 3.39 5.2 5.2 0 0 1-5.29-5.33 5.15 5.15 0 0 1 5.21-5.33 4.6 4.6 0 0 1 4.72 3.39l-2.43.82a2.19 2.19 0 0 0-2.23-1.7 2.56 2.56 0 0 0-2.56 2.82zm11.99 5.02h-2.72V53.49h2.72v5.58A3.59 3.59 0 0 1 318 58c2.55 0 3.74 1.78 3.74 4v6.34H319v-5.92a1.77 1.77 0 0 0-1.86-2 1.88 1.88 0 0 0-1.88 2zm11.62-5.78l2.47-.37c.57-.08.76-.37.76-.72 0-.72-.55-1.31-1.7-1.31a1.78 1.78 0 0 0-1.92 1.63l-2.41-.51c.16-1.57 1.61-3.31 4.31-3.31 3.19 0 4.37 1.8 4.37 3.82v4.95a11.29 11.29 0 0 0 .12 1.59h-2.49a6.8 6.8 0 0 1-.1-1.21 3.36 3.36 0 0 1-3 1.49 3.18 3.18 0 0 1-3.45-3c.03-1.8 1.36-2.8 3.04-3.05zm3.23 1.72v-.45l-2.27.35a1.27 1.27 0 0 0-1.25 1.27 1.18 1.18 0 0 0 1.31 1.16 2 2 0 0 0 2.21-2.33zm8.11 4.06h-2.72V58.23h2.64v1.25A3.34 3.34 0 0 1 341 58c2.49 0 3.64 1.78 3.64 4v6.34h-2.72v-5.92a1.77 1.77 0 0 0-1.86-2 1.89 1.89 0 0 0-1.88 2.08zm12.57-10.05h2v2.41h-2v4.21c0 .88.41 1.17 1.19 1.17a4 4 0 0 0 .84-.08v2.25a4 4 0 0 1-1.53.25 2.91 2.91 0 0 1-3.19-3.11v-4.69h-1.82v-2.41h.51a1.45 1.45 0 0 0 1.55-1.59v-1.42h2.45zM271.44 85h-5.89l-1.21 3.31h-3l5.56-14.49h3.27l5.52 14.49h-3.07zm-4.95-2.58h4l-2-5.48zm18.83-4.21l2.17 6.48 1.86-6.48H292l-3.15 10.06h-2.72l-2.35-6.87-2.31 6.87h-2.76l-3.21-10.06h2.86l1.86 6.46 2.19-6.46zm10.77 4.27l2.47-.37c.57-.08.76-.37.76-.72 0-.72-.55-1.31-1.7-1.31a1.79 1.79 0 0 0-1.92 1.64l-2.41-.51c.16-1.57 1.61-3.31 4.31-3.31 3.19 0 4.37 1.8 4.37 3.82v4.95a11.31 11.31 0 0 0 .12 1.59h-2.49a6.8 6.8 0 0 1-.1-1.21 3.36 3.36 0 0 1-3 1.49 3.18 3.18 0 0 1-3.45-3c.04-1.82 1.36-2.82 3.04-3.06zm3.23 1.72v-.45l-2.27.35a1.27 1.27 0 0 0-1.25 1.27 1.18 1.18 0 0 0 1.31 1.17 2 2 0 0 0 2.21-2.34zm11.53-3.3a4.14 4.14 0 0 0-.82-.08c-1.39 0-2.6.67-2.6 2.84v4.6h-2.72V78.21h2.64v1.49a3 3 0 0 1 2.86-1.57 6.11 6.11 0 0 1 .63 0zm11.41 5.54c0 .67 0 1.41.08 1.82h-2.6a7 7 0 0 1-.1-1.17 3.15 3.15 0 0 1-2.82 1.41c-2.86 0-4.91-2.25-4.91-5.29s2-5.25 4.82-5.25c1.74 0 2.55.72 2.84 1.25v-5.75h2.68zm-5.11-.37c1.39 0 2.47-1.06 2.47-2.88a2.49 2.49 0 0 0-2.47-2.8 2.52 2.52 0 0 0-2.49 2.82c-.01 1.79 1.06 2.87 2.49 2.87zm9.52-1.07a1.67 1.67 0 0 0 1.84 1.53c.9 0 1.33-.47 1.33-1s-.31-.82-1.08-1l-1.33-.31c-1.94-.43-2.82-1.59-2.82-3a3.51 3.51 0 0 1 3.76-3.29c2.86 0 3.82 1.82 3.95 2.9l-2.27.51a1.53 1.53 0 0 0-1.66-1.34 1.16 1.16 0 0 0-1.29 1c0 .49.37.8.92.9l1.43.31c2 .41 3 1.61 3 3.09 0 1.64-1.27 3.31-3.9 3.31-3 0-4.07-2-4.19-3.11zm12.41-5a5 5 0 0 1-.1-.92c0-2.33 1.76-4.44 4.84-4.44s4.78 2 4.78 4.27a4.76 4.76 0 0 1-2.6 4.16l-2.56 1.55a2.7 2.7 0 0 0-1.14 1.21h6.36v2.43h-9.81A6.05 6.05 0 0 1 342 82.6l2.19-1.31a2.59 2.59 0 0 0 1.58-2.29 1.81 1.81 0 0 0-2-1.82 2 2 0 0 0-2.11 2.21 2.89 2.89 0 0 0 .1.74zm12.25-3.08a5 5 0 0 1 4.37-2.23 5 5 0 0 1 4.35 2.23 10 10 0 0 1 0 9.44 5 5 0 0 1-4.35 2.23 5 5 0 0 1-4.37-2.23 8.46 8.46 0 0 1-1.16-4.72 8.46 8.46 0 0 1 1.16-4.72zM353.7 85a2.21 2.21 0 0 0 2 1.08 2.16 2.16 0 0 0 2-1.08 6.21 6.21 0 0 0 .74-3.37 6.21 6.21 0 0 0-.74-3.37 2.16 2.16 0 0 0-2-1.08 2.21 2.21 0 0 0-2 1.08 8.31 8.31 0 0 0 0 6.75zm11.98 3.26v-8.87h-3.19v-1.9A3.39 3.39 0 0 0 366 75h2.43v13.26zm14.72-10.67a5.66 5.66 0 0 0-2.19-.47 4.16 4.16 0 0 0-4.39 3.8 3.75 3.75 0 0 1 3.18-1.47 4.25 4.25 0 0 1 4.58 4.46c0 2.72-2.21 4.66-5.13 4.66S371 86.48 371 82.48c0-4.76 3-7.79 7.36-7.79a5.77 5.77 0 0 1 2.78.61zm-4 8.61a2.22 2.22 0 1 0-2.34-2.2 2.24 2.24 0 0 0 2.33 2.2z"/>
    <path class="cls-5" d="M264.64 101v4.25h-2.2V93.92h4.22a3.52 3.52 0 1 1 0 7zm1.75-1.89a1.62 1.62 0 1 0 0-3.23h-1.73v3.23zm7.55 6.1h-2.12V93.69h2.12V98a3 3 0 0 1 5 2.24v4.93h-2.12v-4.57a1.38 1.38 0 0 0-1.45-1.56 1.47 1.47 0 0 0-1.46 1.53zm8.23-11.72a1.31 1.31 0 1 1-1.31 1.32 1.3 1.3 0 0 1 1.31-1.32zm-1.05 11.72v-7.83h2.12v7.83zm4.38 0V93.69h2.12v11.52zm5.42-11.72a1.31 1.31 0 1 1-1.31 1.32 1.3 1.3 0 0 1 1.31-1.32zm-1.05 11.72v-7.83H292v7.83zm4.38 3.02V97.38h2.05v1a2.74 2.74 0 0 1 2.4-1.13c2.29 0 3.61 1.75 3.61 4.07s-1.48 4.12-3.69 4.12a2.75 2.75 0 0 1-2.26-1v3.79zm4-9.14a2.22 2.22 0 1 0 1.94 2.2 2 2 0 0 0-1.9-2.19zm5.75 9.14V97.38h2v1a2.74 2.74 0 0 1 2.4-1.13c2.29 0 3.61 1.75 3.61 4.07s-1.48 4.12-3.69 4.12a2.75 2.75 0 0 1-2.26-1v3.79zm4-9.14a2.22 2.22 0 1 0 1.94 2.2A2 2 0 0 0 308 99.1zm6.79-5.6a1.31 1.31 0 1 1-1.31 1.32 1.3 1.3 0 0 1 1.31-1.32zm-1.05 11.72v-7.83h2.12v7.83zm6.49 0h-2.12v-7.83h2.05v1a2.6 2.6 0 0 1 2.26-1.18c1.94 0 2.83 1.39 2.83 3.1v4.93h-2.12v-4.57a1.38 1.38 0 0 0-1.45-1.56 1.47 1.47 0 0 0-1.46 1.62zm14.2-2.21a3.53 3.53 0 0 1-3.57 2.48 4.16 4.16 0 0 1-.19-8.31c2.42 0 3.87 1.54 3.87 4.06v.65h-5.6a1.91 1.91 0 0 0 2 1.78 1.73 1.73 0 0 0 1.78-1.19zm-2-2.56a1.58 1.58 0 0 0-1.75-1.54 1.69 1.69 0 0 0-1.68 1.5zm4.93 2.19a1.3 1.3 0 0 0 1.43 1.19c.7 0 1-.37 1-.78s-.24-.64-.84-.76l-1-.24c-1.51-.33-2.2-1.24-2.2-2.34a2.73 2.73 0 0 1 2.93-2.56c2.23 0 3 1.42 3.07 2.26l-1.77.4a1.19 1.19 0 0 0-1.29-1.05c-.56 0-1 .33-1 .78s.29.62.72.7l1.11.24c1.54.32 2.32 1.26 2.32 2.4s-1 2.58-3 2.58c-2.36 0-3.17-1.53-3.26-2.42z"/>
</svg>
