<svg id="Layer_1" data-name="Layer 1" xmlns="http://www.w3.org/2000/svg" xmlns:xlink="http://www.w3.org/1999/xlink" viewBox="0 0 1160 73.7"><defs><style>.cls-1{fill:none;}.cls-2{fill:#f1f3f2;}.cls-3{fill:#f63;}.cls-4{clip-path:url(#clip-path);}.cls-5{clip-path:url(#clip-path-2);}.cls-6{fill:#fff;}.cls-7{fill:#3cc;}.cls-8{clip-path:url(#clip-path-3);}</style><clipPath id="clip-path"><rect class="cls-1" x="-233.04" y="-170.91" width="1044.6" height="135.28"/></clipPath><clipPath id="clip-path-2"><rect class="cls-1" y="-0.04" width="1160.24" height="73.52"/></clipPath><clipPath id="clip-path-3"><rect class="cls-1" y="94.61" width="1160.24" height="73.52"/></clipPath></defs><title>iema_ph_desktop</title><rect class="cls-2" y="0.08" width="1161.06" height="73.5" transform="translate(-0.06 0.91) rotate(-0.09)"/><path class="cls-3" d="M299.45,43h-3V28.66h8.22v2.49h-5.23v3.7h4.86v2.48h-4.86Z"/><path class="cls-3" d="M307.12,29.19q0-1.46,1.63-1.46t1.63,1.46a1.42,1.42,0,0,1-.41,1.08,1.71,1.71,0,0,1-1.22.39Q307.12,30.67,307.12,29.19ZM310.24,43h-3V32h3Z"/><path class="cls-3" d="M323.49,43h-3v-6.4a3.08,3.08,0,0,0-.42-1.78,1.53,1.53,0,0,0-1.34-.59,2,2,0,0,0-1.81.84,5.2,5.2,0,0,0-.56,2.78V43h-3V32h2.28l.4,1.4h.17a3.16,3.16,0,0,1,1.38-1.2,4.69,4.69,0,0,1,2-.41,3.83,3.83,0,0,1,2.9,1,4.15,4.15,0,0,1,1,3Z"/><path class="cls-3" d="M330,43.19a3.56,3.56,0,0,1-3-1.5,6.9,6.9,0,0,1-1.1-4.16,6.9,6.9,0,0,1,1.12-4.2,3.65,3.65,0,0,1,3.09-1.51,3.58,3.58,0,0,1,3.16,1.61h.1a12.23,12.23,0,0,1-.23-2.19V27.73h3V43h-2.29l-.58-1.42h-.13A3.42,3.42,0,0,1,330,43.19Zm1-2.38a2,2,0,0,0,1.68-.67,3.88,3.88,0,0,0,.58-2.27v-.32a4.48,4.48,0,0,0-.54-2.53,2,2,0,0,0-1.77-.76,1.76,1.76,0,0,0-1.55.85,4.53,4.53,0,0,0-.55,2.47,4.29,4.29,0,0,0,.56,2.43A1.83,1.83,0,0,0,331.09,40.8Z"/><path class="cls-3" d="M354.46,37.49A5.89,5.89,0,0,1,353,41.68a5.12,5.12,0,0,1-3.93,1.51,5.5,5.5,0,0,1-2.78-.69,4.6,4.6,0,0,1-1.85-2,6.67,6.67,0,0,1-.65-3,5.86,5.86,0,0,1,1.4-4.18,5.15,5.15,0,0,1,3.94-1.49,5.53,5.53,0,0,1,2.78.69,4.58,4.58,0,0,1,1.85,2A6.61,6.61,0,0,1,354.46,37.49Zm-7.58,0a4.6,4.6,0,0,0,.53,2.46,1.91,1.91,0,0,0,1.74.83,1.88,1.88,0,0,0,1.72-.83,4.67,4.67,0,0,0,.52-2.47,4.53,4.53,0,0,0-.53-2.44,2.25,2.25,0,0,0-3.46,0A4.52,4.52,0,0,0,346.88,37.49Z"/><path class="cls-3" d="M364.7,43l-.4-1.4h-.16a3.16,3.16,0,0,1-1.36,1.18,4.65,4.65,0,0,1-2,.42,3.83,3.83,0,0,1-2.91-1,4.16,4.16,0,0,1-1-3V32h3v6.4a3.08,3.08,0,0,0,.42,1.78,1.53,1.53,0,0,0,1.34.59,2,2,0,0,0,1.81-.84,5.2,5.2,0,0,0,.56-2.78V32h3V43Z"/><path class="cls-3" d="M374.75,40.8a6.48,6.48,0,0,0,1.88-.34v2.23a6.71,6.71,0,0,1-2.75.5,3.36,3.36,0,0,1-2.61-.91,4,4,0,0,1-.82-2.72V34.27H369V33l1.65-1,.86-2.31h1.91V32h3.07v2.25h-3.07v5.29a1.17,1.17,0,0,0,.36.94A1.41,1.41,0,0,0,374.75,40.8Z"/><path class="cls-3" d="M393.88,43h-3v-6.4a3.23,3.23,0,0,0-.4-1.78,1.4,1.4,0,0,0-1.25-.59,1.81,1.81,0,0,0-1.67.84,5.53,5.53,0,0,0-.52,2.77V43h-3V32h2.28l.4,1.4h.17a3,3,0,0,1,1.27-1.18,4.14,4.14,0,0,1,1.91-.43,3.44,3.44,0,0,1,3.33,1.61h.26a3,3,0,0,1,1.3-1.19,4.33,4.33,0,0,1,1.94-.42,3.82,3.82,0,0,1,2.82,1,4.2,4.2,0,0,1,1,3.06V43h-3v-6.4a3.23,3.23,0,0,0-.4-1.78,1.4,1.4,0,0,0-1.25-.59,1.87,1.87,0,0,0-1.64.78,4.45,4.45,0,0,0-.54,2.49Z"/><path class="cls-3" d="M413.74,37.49a5.89,5.89,0,0,1-1.41,4.19,5.12,5.12,0,0,1-3.93,1.51,5.5,5.5,0,0,1-2.78-.69,4.6,4.6,0,0,1-1.85-2,6.67,6.67,0,0,1-.65-3,5.86,5.86,0,0,1,1.4-4.18,5.15,5.15,0,0,1,3.94-1.49,5.53,5.53,0,0,1,2.78.69,4.58,4.58,0,0,1,1.85,2A6.61,6.61,0,0,1,413.74,37.49Zm-7.58,0A4.6,4.6,0,0,0,406.7,40a1.91,1.91,0,0,0,1.74.83,1.88,1.88,0,0,0,1.72-.83,4.67,4.67,0,0,0,.52-2.47,4.53,4.53,0,0,0-.53-2.44,2.25,2.25,0,0,0-3.46,0A4.52,4.52,0,0,0,406.16,37.49Z"/><path class="cls-3" d="M422.33,31.82a4.82,4.82,0,0,1,1,.09l-.23,2.8a3.43,3.43,0,0,0-.88-.1,3.17,3.17,0,0,0-2.23.74,2.66,2.66,0,0,0-.8,2.06V43h-3V32h2.27l.44,1.84h.15a4.12,4.12,0,0,1,1.38-1.49A3.4,3.4,0,0,1,422.33,31.82Z"/><path class="cls-3" d="M430.1,43.19A5.66,5.66,0,0,1,426,41.73a5.53,5.53,0,0,1-1.49-4.14,6.08,6.08,0,0,1,1.38-4.26,4.91,4.91,0,0,1,3.81-1.51,4.83,4.83,0,0,1,3.62,1.32,5,5,0,0,1,1.29,3.66v1.45H427.5a2.88,2.88,0,0,0,.76,2,2.66,2.66,0,0,0,2,.72,8.22,8.22,0,0,0,1.87-.21A9.37,9.37,0,0,0,434,40.1v2.31a7,7,0,0,1-1.68.58A10.57,10.57,0,0,1,430.1,43.19Zm-.42-9.24a1.9,1.9,0,0,0-1.49.6,2.79,2.79,0,0,0-.62,1.71h4.2a2.49,2.49,0,0,0-.58-1.71A2,2,0,0,0,429.68,33.95Z"/><path class="cls-3" d="M449.18,43l-.58-1.49h-.08A4.42,4.42,0,0,1,447,42.82a5,5,0,0,1-2.08.37,3.37,3.37,0,0,1-2.49-.9,3.46,3.46,0,0,1-.91-2.57,2.89,2.89,0,0,1,1.22-2.57,7.07,7.07,0,0,1,3.68-.92l1.9-.06v-.48A1.49,1.49,0,0,0,446.59,34a7.77,7.77,0,0,0-3.09.79l-1-2a8.91,8.91,0,0,1,4.2-1,5.23,5.23,0,0,1,3.38,1,3.55,3.55,0,0,1,1.18,2.92V43Zm-.88-5.08-1.16,0a3.71,3.71,0,0,0-1.94.47,1.48,1.48,0,0,0-.64,1.31Q444.56,41,446,41a2.3,2.3,0,0,0,1.66-.6,2.1,2.1,0,0,0,.62-1.59Z"/><path class="cls-3" d="M460.45,31.82a3.55,3.55,0,0,1,3,1.51,7,7,0,0,1,1.1,4.15,6.83,6.83,0,0,1-1.13,4.21,4,4,0,0,1-6.11.09h-.21l-.5,1.21h-2.28V27.73h3v3.55q0,.68-.12,2.17h.12A3.46,3.46,0,0,1,460.45,31.82Zm-1,2.39a1.89,1.89,0,0,0-1.62.68,3.91,3.91,0,0,0-.53,2.25v.32a4.62,4.62,0,0,0,.52,2.53,1.87,1.87,0,0,0,1.66.76,1.67,1.67,0,0,0,1.47-.85,4.59,4.59,0,0,0,.54-2.47A4.35,4.35,0,0,0,461,35,1.72,1.72,0,0,0,459.48,34.21Z"/><path class="cls-3" d="M477,37.49a5.89,5.89,0,0,1-1.41,4.19,5.12,5.12,0,0,1-3.93,1.51,5.5,5.5,0,0,1-2.78-.69,4.6,4.6,0,0,1-1.85-2,6.67,6.67,0,0,1-.65-3,5.86,5.86,0,0,1,1.4-4.18,5.15,5.15,0,0,1,3.94-1.49,5.53,5.53,0,0,1,2.78.69,4.58,4.58,0,0,1,1.85,2A6.61,6.61,0,0,1,477,37.49Zm-7.58,0A4.6,4.6,0,0,0,470,40a1.91,1.91,0,0,0,1.74.83,1.88,1.88,0,0,0,1.72-.83,4.67,4.67,0,0,0,.52-2.47,4.53,4.53,0,0,0-.53-2.44A2.25,2.25,0,0,0,470,35,4.52,4.52,0,0,0,469.44,37.49Z"/><path class="cls-3" d="M487.25,43l-.4-1.4h-.16a3.16,3.16,0,0,1-1.36,1.18,4.65,4.65,0,0,1-2,.42,3.83,3.83,0,0,1-2.91-1,4.16,4.16,0,0,1-1-3V32h3v6.4a3.08,3.08,0,0,0,.42,1.78,1.53,1.53,0,0,0,1.34.59A2,2,0,0,0,486,40a5.2,5.2,0,0,0,.56-2.78V32h3V43Z"/><path class="cls-3" d="M497.3,40.8a6.48,6.48,0,0,0,1.88-.34v2.23a6.71,6.71,0,0,1-2.75.5,3.36,3.36,0,0,1-2.61-.91,4,4,0,0,1-.82-2.72V34.27h-1.43V33l1.65-1,.86-2.31H496V32h3.07v2.25H496v5.29a1.17,1.17,0,0,0,.36.94A1.41,1.41,0,0,0,497.3,40.8Z"/><path class="cls-3" d="M511.24,40.8a6.48,6.48,0,0,0,1.88-.34v2.23a6.71,6.71,0,0,1-2.75.5,3.36,3.36,0,0,1-2.61-.91,4,4,0,0,1-.82-2.72V34.27h-1.43V33l1.65-1,.86-2.31h1.91V32H513v2.25h-3.07v5.29a1.17,1.17,0,0,0,.36.94A1.41,1.41,0,0,0,511.24,40.8Z"/><path class="cls-3" d="M525.46,43h-3v-6.4q0-2.37-1.76-2.37a2,2,0,0,0-1.81.85,5.21,5.21,0,0,0-.56,2.77V43h-3V27.73h3v3.11q0,.36-.07,1.71l-.07.88h.16a3.46,3.46,0,0,1,3.18-1.61,3.88,3.88,0,0,1,2.93,1,4.13,4.13,0,0,1,1,3Z"/><path class="cls-3" d="M533.5,43.19a5.66,5.66,0,0,1-4.14-1.46,5.53,5.53,0,0,1-1.49-4.14,6.08,6.08,0,0,1,1.38-4.26,4.91,4.91,0,0,1,3.81-1.51,4.83,4.83,0,0,1,3.62,1.32A5,5,0,0,1,538,36.8v1.45H530.9a2.88,2.88,0,0,0,.76,2,2.66,2.66,0,0,0,2,.72,8.22,8.22,0,0,0,1.87-.21,9.37,9.37,0,0,0,1.84-.66v2.31a7,7,0,0,1-1.68.58A10.57,10.57,0,0,1,533.5,43.19Zm-.42-9.24a1.9,1.9,0,0,0-1.49.6,2.79,2.79,0,0,0-.62,1.71h4.2a2.49,2.49,0,0,0-.58-1.71A2,2,0,0,0,533.07,33.95Z"/><path class="cls-3" d="M545.49,29.19q0-1.46,1.63-1.46t1.63,1.46a1.42,1.42,0,0,1-.41,1.08,1.71,1.71,0,0,1-1.22.39Q545.49,30.67,545.49,29.19ZM548.61,43h-3V32h3Z"/><path class="cls-3" d="M561.88,33.13a4.38,4.38,0,0,1-1.45,3.54,6.19,6.19,0,0,1-4.11,1.23H555V43h-3V28.66h4.58a6.09,6.09,0,0,1,4,1.12A4.09,4.09,0,0,1,561.88,33.13ZM555,35.4h1a3.33,3.33,0,0,0,2.1-.55,1.94,1.94,0,0,0,.7-1.61,2,2,0,0,0-.58-1.58,2.73,2.73,0,0,0-1.83-.51H555Z"/><path class="cls-3" d="M570.47,31.82a4.82,4.82,0,0,1,1,.09l-.23,2.8a3.43,3.43,0,0,0-.88-.1,3.17,3.17,0,0,0-2.23.74,2.66,2.66,0,0,0-.8,2.06V43h-3V32h2.27l.44,1.84h.15a4.12,4.12,0,0,1,1.38-1.49A3.4,3.4,0,0,1,570.47,31.82Z"/><path class="cls-3" d="M573.35,29.19q0-1.46,1.63-1.46t1.63,1.46a1.42,1.42,0,0,1-.41,1.08,1.71,1.71,0,0,1-1.22.39Q573.35,30.67,573.35,29.19ZM576.46,43h-3V32h3Z"/><path class="cls-3" d="M584.05,43.19q-5.12,0-5.12-5.62a6,6,0,0,1,1.39-4.27,5.22,5.22,0,0,1,4-1.48,7.61,7.61,0,0,1,3.41.75l-.88,2.31q-.71-.28-1.31-.47a4.23,4.23,0,0,0-1.22-.18q-2.33,0-2.33,3.31t2.33,3.22a5.32,5.32,0,0,0,1.6-.23,5.77,5.77,0,0,0,1.47-.72v2.56a4.82,4.82,0,0,1-1.47.64A8.24,8.24,0,0,1,584.05,43.19Z"/><path class="cls-3" d="M594.89,43.19a5.66,5.66,0,0,1-4.14-1.46,5.53,5.53,0,0,1-1.49-4.14,6.08,6.08,0,0,1,1.38-4.26,4.91,4.91,0,0,1,3.81-1.51,4.83,4.83,0,0,1,3.62,1.32,5,5,0,0,1,1.29,3.66v1.45h-7.07a2.88,2.88,0,0,0,.76,2,2.66,2.66,0,0,0,2,.72,8.22,8.22,0,0,0,1.87-.21,9.37,9.37,0,0,0,1.84-.66v2.31a7,7,0,0,1-1.68.58A10.57,10.57,0,0,1,594.89,43.19Zm-.42-9.24a1.9,1.9,0,0,0-1.49.6,2.79,2.79,0,0,0-.62,1.71h4.2a2.49,2.49,0,0,0-.58-1.71A2,2,0,0,0,594.47,33.95Z"/><path class="cls-3" d="M615.5,43h-8.26V28.66h8.26v2.49h-5.22v3.15h4.85v2.49h-4.85v3.7h5.22Z"/><path class="cls-3" d="M617.28,38.83V36.38h5.27v2.45Z"/><path class="cls-3" d="M631,31a3.1,3.1,0,0,0-2.66,1.29,6,6,0,0,0-.94,3.59q0,4.79,3.6,4.79a11.38,11.38,0,0,0,3.66-.76v2.55a10.16,10.16,0,0,1-3.94.74,6,6,0,0,1-4.79-1.9,8,8,0,0,1-1.66-5.45,8.89,8.89,0,0,1,.81-3.92,5.88,5.88,0,0,1,2.34-2.58,6.92,6.92,0,0,1,3.57-.9,9.65,9.65,0,0,1,4.2,1l-1,2.47a16.23,16.23,0,0,0-1.62-.67A4.83,4.83,0,0,0,631,31Z"/><path class="cls-3" d="M647.47,37.49a5.89,5.89,0,0,1-1.41,4.19,5.12,5.12,0,0,1-3.93,1.51,5.5,5.5,0,0,1-2.78-.69,4.6,4.6,0,0,1-1.85-2,6.67,6.67,0,0,1-.65-3,5.86,5.86,0,0,1,1.4-4.18,5.15,5.15,0,0,1,3.94-1.49,5.53,5.53,0,0,1,2.78.69,4.58,4.58,0,0,1,1.85,2A6.61,6.61,0,0,1,647.47,37.49Zm-7.58,0a4.6,4.6,0,0,0,.53,2.46,1.91,1.91,0,0,0,1.74.83,1.88,1.88,0,0,0,1.72-.83,4.67,4.67,0,0,0,.52-2.47,4.53,4.53,0,0,0-.53-2.44,2.25,2.25,0,0,0-3.46,0A4.52,4.52,0,0,0,639.89,37.49Z"/><path class="cls-3" d="M659.76,43h-3v-6.4a3.23,3.23,0,0,0-.4-1.78,1.4,1.4,0,0,0-1.25-.59,1.81,1.81,0,0,0-1.67.84,5.53,5.53,0,0,0-.52,2.77V43h-3V32h2.28l.4,1.4h.17a3,3,0,0,1,1.27-1.18,4.14,4.14,0,0,1,1.91-.43,3.44,3.44,0,0,1,3.33,1.61h.26a3,3,0,0,1,1.3-1.19,4.33,4.33,0,0,1,1.94-.42,3.82,3.82,0,0,1,2.82,1,4.2,4.2,0,0,1,1,3.06V43h-3v-6.4a3.23,3.23,0,0,0-.4-1.78,1.4,1.4,0,0,0-1.25-.59,1.87,1.87,0,0,0-1.64.78,4.45,4.45,0,0,0-.54,2.49Z"/><path class="cls-3" d="M679.48,43h-3v-6.4a3.23,3.23,0,0,0-.4-1.78,1.4,1.4,0,0,0-1.25-.59,1.81,1.81,0,0,0-1.67.84,5.53,5.53,0,0,0-.52,2.77V43h-3V32h2.28l.4,1.4h.17a3,3,0,0,1,1.27-1.18,4.14,4.14,0,0,1,1.91-.43A3.44,3.44,0,0,1,679,33.43h.26a3,3,0,0,1,1.3-1.19,4.33,4.33,0,0,1,1.94-.42,3.82,3.82,0,0,1,2.82,1,4.2,4.2,0,0,1,1,3.06V43h-3v-6.4a3.23,3.23,0,0,0-.4-1.78,1.4,1.4,0,0,0-1.25-.59A1.87,1.87,0,0,0,680,35a4.45,4.45,0,0,0-.54,2.49Z"/><path class="cls-3" d="M694.34,43.19a5.66,5.66,0,0,1-4.14-1.46,5.53,5.53,0,0,1-1.49-4.14,6.08,6.08,0,0,1,1.38-4.26,4.91,4.91,0,0,1,3.81-1.51,4.83,4.83,0,0,1,3.62,1.32,5,5,0,0,1,1.29,3.66v1.45h-7.07a2.88,2.88,0,0,0,.76,2,2.66,2.66,0,0,0,2,.72,8.22,8.22,0,0,0,1.87-.21,9.37,9.37,0,0,0,1.84-.66v2.31a7,7,0,0,1-1.68.58A10.57,10.57,0,0,1,694.34,43.19Zm-.42-9.24a1.9,1.9,0,0,0-1.49.6,2.79,2.79,0,0,0-.62,1.71H696a2.49,2.49,0,0,0-.58-1.71A2,2,0,0,0,693.92,33.95Z"/><path class="cls-3" d="M707.37,31.82a4.82,4.82,0,0,1,1,.09l-.23,2.8a3.43,3.43,0,0,0-.88-.1,3.17,3.17,0,0,0-2.23.74,2.66,2.66,0,0,0-.8,2.06V43h-3V32h2.27l.44,1.84h.15a4.12,4.12,0,0,1,1.38-1.49A3.4,3.4,0,0,1,707.37,31.82Z"/><path class="cls-3" d="M714.62,43.19q-5.12,0-5.12-5.62a6,6,0,0,1,1.39-4.27,5.22,5.22,0,0,1,4-1.48,7.61,7.61,0,0,1,3.41.75l-.88,2.31q-.71-.28-1.31-.47a4.23,4.23,0,0,0-1.22-.18q-2.33,0-2.33,3.31t2.33,3.22a5.32,5.32,0,0,0,1.6-.23,5.77,5.77,0,0,0,1.47-.72v2.56a4.82,4.82,0,0,1-1.47.64A8.24,8.24,0,0,1,714.62,43.19Z"/><path class="cls-3" d="M725.46,43.19a5.66,5.66,0,0,1-4.14-1.46,5.53,5.53,0,0,1-1.49-4.14,6.08,6.08,0,0,1,1.38-4.26A4.91,4.91,0,0,1,725,31.82a4.83,4.83,0,0,1,3.62,1.32,5,5,0,0,1,1.29,3.66v1.45h-7.07a2.88,2.88,0,0,0,.76,2,2.66,2.66,0,0,0,2,.72,8.22,8.22,0,0,0,1.87-.21,9.37,9.37,0,0,0,1.84-.66v2.31a7,7,0,0,1-1.68.58A10.57,10.57,0,0,1,725.46,43.19ZM725,33.95a1.9,1.9,0,0,0-1.49.6,2.79,2.79,0,0,0-.62,1.71h4.2a2.49,2.49,0,0,0-.58-1.71A2,2,0,0,0,725,33.95Z"/><path class="cls-3" d="M743.88,43l-3.45-11.25h-.09q.19,3.43.19,4.58V43h-2.72V28.66h4.14l3.39,11h.06l3.6-11h4.14V43H750.3V36.21q0-.48,0-1.11t.13-3.33h-.09L746.67,43Z"/><path class="cls-3" d="M761.47,43.19a5.66,5.66,0,0,1-4.14-1.46,5.53,5.53,0,0,1-1.49-4.14,6.08,6.08,0,0,1,1.38-4.26A4.91,4.91,0,0,1,761,31.82a4.83,4.83,0,0,1,3.62,1.32,5,5,0,0,1,1.29,3.66v1.45h-7.07a2.88,2.88,0,0,0,.76,2,2.66,2.66,0,0,0,2,.72,8.22,8.22,0,0,0,1.87-.21,9.37,9.37,0,0,0,1.84-.66v2.31a7,7,0,0,1-1.68.58A10.57,10.57,0,0,1,761.47,43.19Zm-.42-9.24a1.9,1.9,0,0,0-1.49.6,2.79,2.79,0,0,0-.62,1.71h4.2a2.49,2.49,0,0,0-.58-1.71A2,2,0,0,0,761.05,33.95Z"/><path class="cls-3" d="M774.49,31.82a4.82,4.82,0,0,1,1,.09l-.23,2.8a3.43,3.43,0,0,0-.88-.1,3.17,3.17,0,0,0-2.23.74,2.66,2.66,0,0,0-.8,2.06V43h-3V32h2.27l.44,1.84h.15a4.12,4.12,0,0,1,1.38-1.49A3.4,3.4,0,0,1,774.49,31.82Z"/><path class="cls-3" d="M781.75,43.19q-5.12,0-5.12-5.62A6,6,0,0,1,778,33.3a5.22,5.22,0,0,1,4-1.48,7.61,7.61,0,0,1,3.41.75l-.88,2.31q-.71-.28-1.31-.47a4.23,4.23,0,0,0-1.22-.18q-2.33,0-2.33,3.31T782,40.76a5.32,5.32,0,0,0,1.6-.23,5.77,5.77,0,0,0,1.47-.72v2.56a4.82,4.82,0,0,1-1.47.64A8.24,8.24,0,0,1,781.75,43.19Z"/><path class="cls-3" d="M797.74,43h-3v-6.4q0-2.37-1.76-2.37a2,2,0,0,0-1.81.85,5.21,5.21,0,0,0-.56,2.77V43h-3V27.73h3v3.11q0,.36-.07,1.71l-.07.88h.16a3.46,3.46,0,0,1,3.18-1.61,3.88,3.88,0,0,1,2.93,1,4.13,4.13,0,0,1,1,3Z"/><path class="cls-3" d="M807.78,43l-.58-1.49h-.08a4.42,4.42,0,0,1-1.55,1.32,5,5,0,0,1-2.08.37,3.37,3.37,0,0,1-2.49-.9,3.46,3.46,0,0,1-.91-2.57,2.89,2.89,0,0,1,1.22-2.57,7.07,7.07,0,0,1,3.68-.92l1.9-.06v-.48A1.49,1.49,0,0,0,805.19,34a7.77,7.77,0,0,0-3.09.79l-1-2a8.91,8.91,0,0,1,4.2-1,5.23,5.23,0,0,1,3.38,1,3.55,3.55,0,0,1,1.18,2.92V43Zm-.88-5.08-1.16,0a3.71,3.71,0,0,0-1.94.47,1.48,1.48,0,0,0-.64,1.31q0,1.26,1.45,1.26a2.3,2.3,0,0,0,1.66-.6,2.1,2.1,0,0,0,.62-1.59Z"/><path class="cls-3" d="M823.07,43h-3v-6.4a3.08,3.08,0,0,0-.42-1.78,1.53,1.53,0,0,0-1.34-.59,2,2,0,0,0-1.81.84,5.2,5.2,0,0,0-.56,2.78V43h-3V32h2.28l.4,1.4h.17a3.16,3.16,0,0,1,1.38-1.2,4.69,4.69,0,0,1,2-.41,3.83,3.83,0,0,1,2.9,1,4.15,4.15,0,0,1,1,3Z"/><path class="cls-3" d="M830.77,40.8a6.48,6.48,0,0,0,1.88-.34v2.23a6.71,6.71,0,0,1-2.75.5,3.36,3.36,0,0,1-2.61-.91,4,4,0,0,1-.82-2.72V34.27H825V33l1.65-1,.86-2.31h1.91V32h3.07v2.25h-3.07v5.29a1.17,1.17,0,0,0,.36.94A1.41,1.41,0,0,0,830.77,40.8Z"/><path class="cls-3" d="M849.09,43l-1-3.41h-5.23l-1,3.41h-3.28l5.06-14.39h3.72L852.37,43Zm-1.76-6q-1.44-4.64-1.62-5.25t-.26-1q-.32,1.26-1.85,6.21Z"/><path class="cls-3" d="M862.95,43l-.84-3.83L861,34.31h-.09l-2,8.68h-3.22l-3.12-11h3l1.26,4.85q.22.86.6,3.6h.08a20.15,20.15,0,0,1,.34-2.36l.16-.83L859.34,32h3.29l1.28,5.26q.12.54.29,1.58a13.59,13.59,0,0,1,.19,1.61h.08q.11-.87.3-2t.33-1.61L866.43,32h2.93L866.2,43Z"/><path class="cls-3" d="M878.09,43l-.58-1.49h-.08a4.42,4.42,0,0,1-1.55,1.32,5,5,0,0,1-2.08.37,3.37,3.37,0,0,1-2.49-.9,3.46,3.46,0,0,1-.91-2.57,2.89,2.89,0,0,1,1.22-2.57,7.07,7.07,0,0,1,3.68-.92l1.9-.06v-.48A1.49,1.49,0,0,0,875.5,34a7.77,7.77,0,0,0-3.09.79l-1-2a8.91,8.91,0,0,1,4.2-1,5.23,5.23,0,0,1,3.38,1,3.55,3.55,0,0,1,1.18,2.92V43Zm-.88-5.08L876,38a3.71,3.71,0,0,0-1.94.47,1.48,1.48,0,0,0-.64,1.31q0,1.26,1.45,1.26a2.3,2.3,0,0,0,1.66-.6,2.1,2.1,0,0,0,.62-1.59Z"/><path class="cls-3" d="M889.37,31.82a4.82,4.82,0,0,1,1,.09l-.23,2.8a3.43,3.43,0,0,0-.88-.1,3.17,3.17,0,0,0-2.23.74,2.66,2.66,0,0,0-.8,2.06V43h-3V32h2.27l.44,1.84h.15a4.12,4.12,0,0,1,1.38-1.49A3.4,3.4,0,0,1,889.37,31.82Z"/><path class="cls-3" d="M895.65,43.19a3.56,3.56,0,0,1-3-1.5,6.9,6.9,0,0,1-1.1-4.16,6.9,6.9,0,0,1,1.12-4.2,3.65,3.65,0,0,1,3.09-1.51,3.58,3.58,0,0,1,3.16,1.61h.1a12.23,12.23,0,0,1-.23-2.19V27.73h3V43h-2.29l-.58-1.42h-.13A3.42,3.42,0,0,1,895.65,43.19Zm1-2.38a2,2,0,0,0,1.68-.67,3.88,3.88,0,0,0,.58-2.27v-.32a4.48,4.48,0,0,0-.54-2.53,2,2,0,0,0-1.77-.76,1.76,1.76,0,0,0-1.55.85,4.53,4.53,0,0,0-.55,2.47A4.29,4.29,0,0,0,895.1,40,1.83,1.83,0,0,0,896.7,40.8Z"/><path class="cls-3" d="M912.53,39.74a3,3,0,0,1-1.17,2.57,5.79,5.79,0,0,1-3.51.88,11,11,0,0,1-2-.16,7.71,7.71,0,0,1-1.58-.48V40.08a10.43,10.43,0,0,0,1.88.66A7.6,7.6,0,0,0,908,41q1.63,0,1.63-.94a.79.79,0,0,0-.22-.57,3.13,3.13,0,0,0-.75-.5q-.53-.28-1.41-.65a8.87,8.87,0,0,1-1.86-1,2.76,2.76,0,0,1-.86-1,3.41,3.41,0,0,1-.27-1.44,2.6,2.6,0,0,1,1.13-2.26,5.52,5.52,0,0,1,3.21-.8,9.12,9.12,0,0,1,3.85.86l-.9,2.16q-.82-.35-1.54-.58a4.83,4.83,0,0,0-1.46-.23q-1.32,0-1.32.72a.84.84,0,0,0,.43.7,11.6,11.6,0,0,0,1.87.87,8.68,8.68,0,0,1,1.88,1,2.87,2.87,0,0,1,.88,1A3.19,3.19,0,0,1,912.53,39.74Z"/><path class="cls-3" d="M929.34,43h-10V40.88l3.6-3.64q1.6-1.64,2.09-2.27a5,5,0,0,0,.71-1.17,3,3,0,0,0,.22-1.12,1.63,1.63,0,0,0-.48-1.28,1.84,1.84,0,0,0-1.27-.42,3.65,3.65,0,0,0-1.62.38,8.35,8.35,0,0,0-1.64,1.09l-1.65-2A10.75,10.75,0,0,1,921,29.22a6.44,6.44,0,0,1,1.52-.57,7.79,7.79,0,0,1,1.84-.2,5.46,5.46,0,0,1,2.37.49,3.79,3.79,0,0,1,1.6,1.37,3.65,3.65,0,0,1,.57,2,4.94,4.94,0,0,1-.35,1.86A7.13,7.13,0,0,1,927.51,36a26.37,26.37,0,0,1-2.57,2.6l-1.84,1.74v.14h6.25Z"/><path class="cls-3" d="M940.74,35.82a10,10,0,0,1-1.23,5.56,4.27,4.27,0,0,1-3.79,1.8A4.22,4.22,0,0,1,932,41.32a9.85,9.85,0,0,1-1.26-5.5q0-3.79,1.23-5.59a4.77,4.77,0,0,1,7.53.08A9.87,9.87,0,0,1,940.74,35.82Zm-7,0a11.15,11.15,0,0,0,.46,3.78,1.58,1.58,0,0,0,1.53,1.14,1.6,1.6,0,0,0,1.53-1.16,10.84,10.84,0,0,0,.47-3.77,10.81,10.81,0,0,0-.48-3.79,1.59,1.59,0,0,0-3.05,0A11.13,11.13,0,0,0,933.73,35.82Z"/><path class="cls-3" d="M949.78,43h-3V34.7l0-1.36,0-1.49q-.76.76-1,1l-1.65,1.32-1.46-1.82,4.62-3.68h2.49Z"/><path class="cls-3" d="M953.67,36.9q0-4.26,1.8-6.33a6.74,6.74,0,0,1,5.39-2.08,9.78,9.78,0,0,1,1.92.15v2.42a7.85,7.85,0,0,0-1.73-.2,5.92,5.92,0,0,0-2.54.47A3.16,3.16,0,0,0,957,32.72a6.39,6.39,0,0,0-.58,2.62h.13a3.33,3.33,0,0,1,3.11-1.67,3.85,3.85,0,0,1,3,1.21,4.8,4.8,0,0,1,1.09,3.33,5,5,0,0,1-1.29,3.63,4.76,4.76,0,0,1-3.59,1.34,5.13,5.13,0,0,1-2.77-.74,4.78,4.78,0,0,1-1.82-2.15A8.18,8.18,0,0,1,953.67,36.9Zm5.18,3.86a1.79,1.79,0,0,0,1.49-.65,2.92,2.92,0,0,0,.52-1.86,2.56,2.56,0,0,0-.49-1.65,1.77,1.77,0,0,0-1.47-.6,2.25,2.25,0,0,0-1.57.6,1.84,1.84,0,0,0-.65,1.39,3.16,3.16,0,0,0,.61,2A1.88,1.88,0,0,0,958.85,40.76Z"/><path class="cls-3" d="M981.35,43h-3v-6.4q0-2.37-1.76-2.37a2,2,0,0,0-1.81.85,5.21,5.21,0,0,0-.56,2.77V43h-3V27.73h3v3.11q0,.36-.07,1.71l-.07.88h.16a3.46,3.46,0,0,1,3.18-1.61,3.88,3.88,0,0,1,2.93,1,4.13,4.13,0,0,1,1,3Z"/><path class="cls-3" d="M989.39,43.19a5.66,5.66,0,0,1-4.14-1.46,5.53,5.53,0,0,1-1.49-4.14,6.08,6.08,0,0,1,1.38-4.26,4.91,4.91,0,0,1,3.81-1.51,4.83,4.83,0,0,1,3.62,1.32,5,5,0,0,1,1.29,3.66v1.45h-7.07a2.88,2.88,0,0,0,.76,2,2.66,2.66,0,0,0,2,.72,8.22,8.22,0,0,0,1.87-.21,9.37,9.37,0,0,0,1.84-.66v2.31a7,7,0,0,1-1.68.58A10.57,10.57,0,0,1,989.39,43.19ZM989,33.95a1.9,1.9,0,0,0-1.49.6,2.79,2.79,0,0,0-.62,1.71h4.2a2.49,2.49,0,0,0-.58-1.71A2,2,0,0,0,989,33.95Z"/><path class="cls-3" d="M1002.41,31.82a4.82,4.82,0,0,1,1,.09l-.23,2.8a3.43,3.43,0,0,0-.88-.1,3.17,3.17,0,0,0-2.23.74,2.66,2.66,0,0,0-.8,2.06V43h-3V32h2.27l.44,1.84h.15a4.12,4.12,0,0,1,1.38-1.49A3.4,3.4,0,0,1,1002.41,31.82Z"/><path class="cls-3" d="M1010.18,43.19a5.66,5.66,0,0,1-4.14-1.46,5.53,5.53,0,0,1-1.49-4.14,6.08,6.08,0,0,1,1.38-4.26,4.91,4.91,0,0,1,3.81-1.51,4.83,4.83,0,0,1,3.62,1.32,5,5,0,0,1,1.29,3.66v1.45h-7.07a2.88,2.88,0,0,0,.76,2,2.66,2.66,0,0,0,2,.72,8.22,8.22,0,0,0,1.87-.21,9.37,9.37,0,0,0,1.84-.66v2.31a7,7,0,0,1-1.68.58A10.57,10.57,0,0,1,1010.18,43.19Zm-.42-9.24a1.9,1.9,0,0,0-1.49.6,2.79,2.79,0,0,0-.62,1.71h4.2a2.49,2.49,0,0,0-.58-1.71A2,2,0,0,0,1009.75,33.95Z"/><path class="cls-3" d="M1016.66,41.59a1.64,1.64,0,0,1,.44-1.25,1.79,1.79,0,0,1,1.28-.42,1.74,1.74,0,0,1,1.26.43,1.91,1.91,0,0,1,0,2.46,1.71,1.71,0,0,1-1.26.45,1.76,1.76,0,0,1-1.27-.44A1.63,1.63,0,0,1,1016.66,41.59Zm2.93-3.35h-2.39l-.5-9.58h3.39Z"/><g class="cls-4"><rect class="cls-1" x="158.77" y="-396.33" width="696.35" height="583.93"/><rect class="cls-1" x="-233.04" y="-169.7" width="286.73" height="238.43"/></g><g class="cls-5"><circle class="cls-6" cx="60.8" cy="57.78" r="5.7"/><circle class="cls-3" cx="71.06" cy="73.54" r="5.7"/><circle class="cls-6" cx="97.19" cy="73.54" r="5.7"/><circle class="cls-6" cx="116.62" cy="51.02" r="5.7"/><path class="cls-7" d="M-16.14,112.83V54H20.68V64.81H-4.7V78.24h23v10.2h-23V102H20.68v10.78Z"/><polygon class="cls-7" points="21.06 24.66 10.43 15.35 -0.2 24.77 -0.2 -0.04 20.98 -0.04 21.06 24.66"/><path class="cls-6" d="M34.45,40.07a4.57,4.57,0,1,1,0-.06ZM-6.61,36.38H20.84V43.8H-6.61Z"/><rect class="cls-1" x="118.52" y="1.16" width="285.94" height="237.78"/><rect class="cls-3" x="1112.56" y="17.34" width="65.73" height="8.48"/><rect class="cls-3" x="1123.23" y="33.73" width="55.06" height="8.48"/><rect class="cls-3" x="1123.24" y="50.11" width="55.06" height="8.48"/><circle class="cls-6" cx="1075" cy="18.42" r="5.41"/><circle class="cls-3" cx="1084.73" cy="33.37" r="5.41"/><circle class="cls-6" cx="1109.53" cy="45.16" r="5.41"/><circle class="cls-6" cx="1127.97" cy="12" r="5.41"/><path class="cls-7" d="M1117.6,45.38h-23.46l-4.81,13.2h-11.89L1099.59.82h13l22,57.76H1122.4Zm-19.72-10.27h16l-8-21.83Z"/></g><g class="cls-8"><path class="cls-3" d="M151.18,79.54V40.35L135.1,79.54H126L109.94,40.66V79.54H99.53V23.63h14.35L130.68,64l16.4-40.38h14.83V79.54Z"/></g><path class="cls-7" d="M115.81,8.6a1.27,1.27,0,1,1-1.27,1.29,1.27,1.27,0,0,1,1.27-1.29Zm-1,11.41V12.38h2.06V20Z"/><path class="cls-7" d="M121.34,15.87V20H119.2V9h4.11a3.36,3.36,0,0,1,3.6,3.1q0,.16,0,.33a3.36,3.36,0,0,1-3.28,3.44h-2.3ZM123,14a1.58,1.58,0,0,0,.25-3.15h-1.94V14Z"/><path class="cls-7" d="M132.91,14.43a3.14,3.14,0,0,0-.62-.06c-1.05,0-2,.51-2,2.16V20h-2.06V12.38h2v1.13a2.27,2.27,0,0,1,2.17-1.19h.48Z"/><path class="cls-7" d="M135.39,8.6a1.27,1.27,0,1,1-1.27,1.29,1.27,1.27,0,0,1,1.27-1.29Zm-1,11.41V12.38h2.06V20Z"/><path class="cls-7" d="M140.12,16.19A2,2,0,0,0,142,18.34h.17a1.75,1.75,0,0,0,1.75-1.29l1.81.6a3.54,3.54,0,0,1-3.57,2.57,4,4,0,0,1-4-4,3.91,3.91,0,0,1,3.82-4h.18a3.49,3.49,0,0,1,3.58,2.57l-1.85.62a1.66,1.66,0,0,0-1.69-1.29,1.94,1.94,0,0,0-2,2.06Z"/><path class="cls-7" d="M153.92,17.82a3.44,3.44,0,0,1-3.47,2.42,3.86,3.86,0,0,1-3.95-3.77q0-.15,0-.31a3.83,3.83,0,0,1,3.66-4h.09c2.36,0,3.77,1.5,3.77,4v.64h-5.46a1.86,1.86,0,0,0,1.92,1.74,1.68,1.68,0,0,0,1.74-1.16ZM152,15.33a1.53,1.53,0,0,0-1.55-1.51h-.16a1.65,1.65,0,0,0-1.71,1.5Z"/><path class="cls-7" d="M159.64,20V9h6.88v2h-4.74v2.51h4.29v1.91h-4.29V18h4.74v2Z"/><path class="cls-7" d="M168.08,16.32V14.49h4.5v1.83Z"/><path class="cls-7" d="M173.88,14.52a5.55,5.55,0,0,1,5.36-5.74h.24a4.84,4.84,0,0,1,5,3.64l-2,.64a2.87,2.87,0,0,0-3-2.22,3.39,3.39,0,0,0-3.39,3.39q0,.14,0,.28a3.39,3.39,0,0,0,3.14,3.62h.27a3,3,0,0,0,3.09-2.25l2,.6a5,5,0,0,1-5.09,3.74,5.49,5.49,0,0,1-5.63-5.34Q173.87,14.7,173.88,14.52Z"/><path class="cls-7" d="M193.38,16.19a4,4,0,1,1-4-4A4,4,0,0,1,193.38,16.19Zm-2.06,0a2,2,0,1,0-3.88,0,2,2,0,1,0,3.88,0Z"/><path class="cls-7" d="M195,20V12.38h2v.93a2.62,2.62,0,0,1,2.23-1.15,2.36,2.36,0,0,1,2.26,1.27,2.82,2.82,0,0,1,5.18,1.63V20h-2V15.48A1.27,1.27,0,0,0,203.31,14a1.4,1.4,0,0,0-1.41,1.39s0,.08,0,.11V20h-2V15.48A1.28,1.28,0,0,0,198.5,14a1.4,1.4,0,0,0-1.43,1.37s0,.09,0,.13V20Z"/><path class="cls-7" d="M208.75,20V12.38h2v.93A2.62,2.62,0,0,1,213,12.16a2.36,2.36,0,0,1,2.26,1.27,2.82,2.82,0,0,1,5.18,1.63V20h-2V15.48A1.27,1.27,0,0,0,217,14a1.4,1.4,0,0,0-1.41,1.39s0,.08,0,.11V20h-2V15.48A1.28,1.28,0,0,0,212.24,14a1.4,1.4,0,0,0-1.43,1.37s0,.09,0,.13V20Z"/><path class="cls-7" d="M229.32,17.82a3.44,3.44,0,0,1-3.47,2.42,3.86,3.86,0,0,1-3.95-3.77q0-.15,0-.31a3.83,3.83,0,0,1,3.66-4h.09c2.36,0,3.77,1.5,3.77,4v.64H224a1.86,1.86,0,0,0,1.92,1.74,1.68,1.68,0,0,0,1.74-1.16Zm-1.92-2.5a1.53,1.53,0,0,0-1.55-1.51h-.16a1.65,1.65,0,0,0-1.71,1.5Z"/><path class="cls-7" d="M235.71,14.43a3.14,3.14,0,0,0-.62-.06c-1.05,0-2,.51-2,2.16V20H231V12.38h2v1.13a2.27,2.27,0,0,1,2.17-1.19h.48Z"/><path class="cls-7" d="M238.58,16.19a2,2,0,0,0,1.83,2.15h.17a1.75,1.75,0,0,0,1.75-1.29l1.81.6a3.54,3.54,0,0,1-3.57,2.57,4,4,0,0,1-4-4,3.91,3.91,0,0,1,3.82-4h.18a3.49,3.49,0,0,1,3.58,2.57l-1.85.62a1.66,1.66,0,0,0-1.69-1.29,1.94,1.94,0,0,0-2,2.06Z"/><path class="cls-7" d="M252.38,17.82a3.44,3.44,0,0,1-3.47,2.42,3.86,3.86,0,0,1-3.92-3.8q0-.14,0-.28a3.83,3.83,0,0,1,3.66-4h.09c2.36,0,3.77,1.5,3.77,4v.64H247a1.86,1.86,0,0,0,1.92,1.74,1.68,1.68,0,0,0,1.74-1.16Zm-1.92-2.5a1.53,1.53,0,0,0-1.55-1.51h-.16a1.65,1.65,0,0,0-1.71,1.5Z"/><path class="cls-7" d="M125.09,35.16v-7.7l-3.16,7.71h-1.78L117,27.52v7.64h-2v-11h2.82l3.3,7.94,3.23-7.94h2.91v11Z"/><path class="cls-7" d="M136.35,33a3.44,3.44,0,0,1-3.47,2.42,3.86,3.86,0,0,1-3.95-3.77q0-.15,0-.31a3.83,3.83,0,0,1,3.66-4h.09c2.36,0,3.77,1.5,3.77,4V32H131a1.86,1.86,0,0,0,1.92,1.74,1.68,1.68,0,0,0,1.74-1.16Zm-1.92-2.5A1.53,1.53,0,0,0,132.88,29h-.16A1.65,1.65,0,0,0,131,30.5Z"/><path class="cls-7" d="M142.74,29.58a3.1,3.1,0,0,0-.62-.06c-1.05,0-2,.51-2,2.16v3.49h-2.06V27.53h2v1.13a2.27,2.27,0,0,1,2.17-1.19h.48Z"/><path class="cls-7" d="M145.61,31.35a2,2,0,0,0,1.83,2.15h.17a1.75,1.75,0,0,0,1.75-1.29l1.81.6a3.54,3.54,0,0,1-3.57,2.57,4,4,0,0,1-4-4,3.91,3.91,0,0,1,3.82-4h.18A3.49,3.49,0,0,1,151.18,30l-1.85.62a1.66,1.66,0,0,0-1.69-1.29,1.94,1.94,0,0,0-2,2.06Z"/><path class="cls-7" d="M154.71,35.16h-2.06V23.94h2.06v4.23a2.88,2.88,0,0,1,4.9,2.19v4.81h-2.06V30.71a1.34,1.34,0,0,0-1.14-1.51h-.27a1.43,1.43,0,0,0-1.43,1.43s0,0,0,.06Z"/><path class="cls-7" d="M163.52,30.78l1.88-.28c.43-.06.57-.28.57-.54,0-.54-.42-1-1.29-1a1.35,1.35,0,0,0-1.46,1.23h0l-1.83-.39a3,3,0,0,1,3.27-2.51c2.42,0,3.32,1.36,3.32,2.9V34a8.56,8.56,0,0,0,.09,1.21h-1.89a5.16,5.16,0,0,1-.08-.91,2.55,2.55,0,0,1-2.25,1.13,2.41,2.41,0,0,1-2.61-2.19s0-.07,0-.1A2.35,2.35,0,0,1,163.52,30.78Zm2.45,1.3v-.34l-1.72.26a1,1,0,0,0-.95,1,.9.9,0,0,0,.91.89h.09a1.55,1.55,0,0,0,1.7-1.8Z"/><path class="cls-7" d="M172.12,35.16h-2.06V27.53h2v1a2.53,2.53,0,0,1,2.2-1.15c1.89,0,2.76,1.35,2.76,3v4.81h-2V30.71a1.34,1.34,0,0,0-1.14-1.51h-.27a1.44,1.44,0,0,0-1.44,1.44s0,.09,0,.14Z"/><path class="cls-7" d="M181.66,27.53h1.54v1.83h-1.54v3.19c0,.67.31.88.9.88a3,3,0,0,0,.64-.06v1.71a3.06,3.06,0,0,1-1.16.19,2.21,2.21,0,0,1-2.42-2.36V29.36h-1.38V27.53h.39a1.1,1.1,0,0,0,1.18-1.21V25.26h1.86Z"/><path class="cls-7" d="M121.48,47.8H117l-.91,2.51h-2.26l4.22-11h2.48l4.19,11H122.4Zm-3.75-2h3l-1.52-4.15Z"/><path class="cls-7" d="M132,42.69l1.64,4.91,1.41-4.91h2l-2.39,7.63H132.6l-1.78-5.21-1.75,5.21H127l-2.43-7.63h2.17l1.41,4.9,1.66-4.9Z"/><path class="cls-7" d="M140.18,45.93l1.88-.28c.43-.06.57-.28.57-.54,0-.54-.42-1-1.29-1a1.35,1.35,0,0,0-1.46,1.23h0L138.06,45a3,3,0,0,1,3.27-2.51c2.42,0,3.32,1.36,3.32,2.9v3.75a8.58,8.58,0,0,0,.09,1.21h-1.89a5.16,5.16,0,0,1-.08-.91,2.55,2.55,0,0,1-2.25,1.13,2.41,2.41,0,0,1-2.61-2.19s0-.07,0-.1A2.35,2.35,0,0,1,140.18,45.93Zm2.45,1.3v-.34l-1.72.26a1,1,0,0,0-.95,1,.9.9,0,0,0,.91.89H141a1.55,1.55,0,0,0,1.67-1.8Z"/><path class="cls-7" d="M151.38,44.73a3.14,3.14,0,0,0-.62-.06c-1.05,0-2,.51-2,2.16v3.49H146.7V42.69h2v1.13a2.27,2.27,0,0,1,2.17-1.19h.48Z"/><path class="cls-7" d="M160,48.94a9.17,9.17,0,0,0,.06,1.38h-2a5.28,5.28,0,0,1-.08-.88,2.39,2.39,0,0,1-2.14,1.07,3.75,3.75,0,0,1-3.73-3.77q0-.11,0-.23a3.73,3.73,0,0,1,3.45-4h.21a2.28,2.28,0,0,1,2.15,1V39.09h2Zm-3.88-.28A1.94,1.94,0,0,0,158,46.47a1.89,1.89,0,0,0-1.65-2.11h-.23a2.19,2.19,0,0,0-.21,4.3h.21Z"/><path class="cls-7" d="M163.38,47.8A1.27,1.27,0,0,0,164.75,49h0c.68,0,1-.36,1-.76s-.23-.62-.82-.74l-1-.23c-1.47-.33-2.14-1.21-2.14-2.28a2.66,2.66,0,0,1,2.81-2.5h0c2.17,0,2.9,1.38,3,2.2l-1.72.39a1.16,1.16,0,0,0-1.26-1,.88.88,0,0,0-1,.74v0c0,.37.28.6.7.68l1.09.23c1.5.31,2.26,1.22,2.26,2.34a2.74,2.74,0,0,1-3,2.51c-2.29,0-3.09-1.49-3.18-2.36Z"/><path class="cls-7" d="M172.79,44.08a3.81,3.81,0,0,1-.08-.7A3.4,3.4,0,0,1,176.12,40h.27a3.33,3.33,0,0,1,3.6,3q0,.11,0,.22a3.61,3.61,0,0,1-2,3.12l-1.94,1.18a2.05,2.05,0,0,0-.87.91H180v1.85h-7.44A4.59,4.59,0,0,1,175,46l1.66-1a2,2,0,0,0,1.19-1.74,1.38,1.38,0,0,0-1.37-1.39h-.15a1.52,1.52,0,0,0-1.6,1.67,2.2,2.2,0,0,0,.08.56Z"/><path class="cls-7" d="M182.08,41.71A3.8,3.8,0,0,1,185.4,40a3.76,3.76,0,0,1,3.3,1.69,6.43,6.43,0,0,1,.9,3.58,6.43,6.43,0,0,1-.9,3.58,3.76,3.76,0,0,1-3.3,1.69,3.8,3.8,0,0,1-3.32-1.69,6.42,6.42,0,0,1-.88-3.58A6.42,6.42,0,0,1,182.08,41.71Zm1.8,6.14a1.68,1.68,0,0,0,1.52.82,1.64,1.64,0,0,0,1.5-.82,4.71,4.71,0,0,0,.56-2.56,4.71,4.71,0,0,0-.56-2.56,1.64,1.64,0,0,0-1.5-.82,1.68,1.68,0,0,0-1.52.82,4.86,4.86,0,0,0-.54,2.56A4.86,4.86,0,0,0,183.88,47.85Z"/><path class="cls-7" d="M193,50.32V43.59h-2.42V42.15a2.57,2.57,0,0,0,2.7-1.89h1.85V50.32Z"/><path class="cls-7" d="M204.13,42.22a4.29,4.29,0,0,0-1.66-.36,3.15,3.15,0,0,0-3.33,2.88,2.84,2.84,0,0,1,2.39-1.12A3.22,3.22,0,0,1,205,47a3.62,3.62,0,0,1-3.69,3.55h-.2c-2.2,0-4.08-1.58-4.08-4.62,0-3.61,2.26-5.91,5.58-5.91a4.38,4.38,0,0,1,2.11.46Zm-3,6.53a1.68,1.68,0,1,0-1.77-1.69,1.7,1.7,0,0,0,1.71,1.69h.06Z"/><path class="cls-3" d="M116.33,59.95v3.22h-1.67V54.61h3.2a2.67,2.67,0,1,1,0,5.34h-1.53Zm1.33-1.44a1.23,1.23,0,1,0,.22-2.45h-1.54v2.45Z"/><path class="cls-3" d="M123.38,63.17h-1.61V54.43h1.61v3.3a2.24,2.24,0,0,1,3.82,1.7v3.74h-1.61V59.71a1,1,0,0,0-1.1-1.18,1.11,1.11,0,0,0-1.11,1.11s0,0,0,.05Z"/><path class="cls-3" d="M129.62,54.28a1,1,0,1,1-1,1A1,1,0,0,1,129.62,54.28Zm-.8,8.89V57.23h1.61v5.94Z"/><path class="cls-3" d="M132.15,63.17V54.43h1.61v8.74Z"/><path class="cls-3" d="M136.26,54.28a1,1,0,1,1-1,1A1,1,0,0,1,136.26,54.28Zm-.8,8.89V57.23h1.61v5.94Z"/><path class="cls-3" d="M138.79,65.46V57.23h1.56V58a2.08,2.08,0,0,1,1.82-.86c1.74,0,2.74,1.33,2.74,3.09a2.85,2.85,0,0,1-2.56,3.12h-.24a2.09,2.09,0,0,1-1.71-.72v2.87Zm3.07-6.93a1.69,1.69,0,1,0,1.47,1.67A1.51,1.51,0,0,0,142,58.54h-.13Z"/><path class="cls-3" d="M146.18,65.46V57.23h1.56V58a2.08,2.08,0,0,1,1.82-.86c1.74,0,2.74,1.33,2.74,3.09a2.85,2.85,0,0,1-2.56,3.12h-.24a2.09,2.09,0,0,1-1.71-.72v2.87Zm3.07-6.93a1.69,1.69,0,1,0,1.47,1.67,1.51,1.51,0,0,0-1.34-1.66h-.13Z"/><path class="cls-3" d="M154.36,54.28a1,1,0,1,1-1,1A1,1,0,0,1,154.36,54.28Zm-.8,8.89V57.23h1.61v5.94Z"/><path class="cls-3" d="M158.49,63.17h-1.61V57.23h1.56V58a2,2,0,0,1,1.71-.89,2.09,2.09,0,0,1,2.15,2.35V63.2h-1.6V59.71a1,1,0,0,0-1.1-1.18,1.12,1.12,0,0,0-1.12,1.12s0,.07,0,.11Z"/><path class="cls-3" d="M169.27,61.47a2.68,2.68,0,0,1-2.7,1.88,3.16,3.16,0,0,1-.14-6.3,2.78,2.78,0,0,1,2.93,3.08v.49h-4.25a1.45,1.45,0,0,0,1.5,1.35,1.31,1.31,0,0,0,1.35-.91Zm-1.5-1.94a1.19,1.19,0,0,0-1.2-1.18h-.13a1.29,1.29,0,0,0-1.33,1.17Z"/><path class="cls-3" d="M171.49,61.22a1,1,0,0,0,1.08.91h0c.53,0,.78-.28.78-.59s-.18-.48-.64-.58l-.78-.18c-1.15-.25-1.67-.94-1.67-1.77a2.33,2.33,0,0,1,4.55-.23l-1.34.3a.9.9,0,0,0-1-.8h0c-.42,0-.76.25-.76.59s.22.47.54.53l.85.18a1.93,1.93,0,0,1,1.76,1.82,2,2,0,0,1-2.08,2l-.23,0a2.23,2.23,0,0,1-2.48-1.84Z"/></svg>