<svg id="Layer_1" data-name="Layer 1" xmlns="http://www.w3.org/2000/svg" xmlns:xlink="http://www.w3.org/1999/xlink" viewBox="0 0 1027 170"><defs><style>.cls-1,.cls-11,.cls-12,.cls-13,.cls-18,.cls-21,.cls-25,.cls-27,.cls-28,.cls-30,.cls-33,.cls-34,.cls-5,.cls-58,.cls-59,.cls-60,.cls-61,.cls-62,.cls-74{fill:none;}.cls-2{clip-path:url(#clip-path);}.cls-3{fill:#e8e9ea;}.cls-35,.cls-36,.cls-37,.cls-38,.cls-4,.cls-63,.cls-64{fill:#fff;}.cls-11,.cls-12,.cls-18,.cls-25,.cls-30,.cls-33,.cls-5{stroke:#fff;}.cls-11,.cls-12,.cls-13,.cls-21,.cls-25,.cls-27,.cls-28,.cls-29,.cls-30,.cls-33,.cls-34,.cls-5,.cls-58,.cls-59,.cls-60,.cls-61{stroke-miterlimit:10;}.cls-27,.cls-5{stroke-width:0.74px;}.cls-6{fill:#20cec9;}.cls-7{opacity:0.09;}.cls-8{clip-path:url(#clip-path-2);}.cls-65,.cls-70,.cls-9{fill:#204bb7;}.cls-10{fill:#086a87;}.cls-11{stroke-width:0.28px;}.cls-12{stroke-width:0.39px;}.cls-13{stroke:#3885c5;stroke-width:1.76px;}.cls-14{fill:#0f405f;}.cls-15{fill:#03223d;}.cls-16,.cls-29{fill:#f63;}.cls-17{clip-path:url(#clip-path-3);}.cls-18,.cls-35,.cls-36,.cls-37,.cls-38,.cls-62,.cls-63,.cls-64,.cls-74{stroke-linecap:round;stroke-linejoin:round;}.cls-18{stroke-width:1.27px;}.cls-19{fill:#f2a691;}.cls-20{fill:#d3522f;}.cls-21{stroke:#f2a691;stroke-width:0.36px;}.cls-22{fill:#00b4f4;}.cls-23{clip-path:url(#clip-path-4);}.cls-24{clip-path:url(#clip-path-5);}.cls-25{stroke-width:0.55px;}.cls-26{fill:#525252;}.cls-27{stroke:#525252;}.cls-28{stroke:#03223d;stroke-width:0.64px;}.cls-29{stroke:#e8e9ea;stroke-width:1.41px;}.cls-30{stroke-width:0.31px;}.cls-31{fill:#3885c5;}.cls-32{fill:#ededed;}.cls-33{stroke-width:0.76px;}.cls-34,.cls-64{stroke:#204bb7;}.cls-34{stroke-width:0.35px;}.cls-35,.cls-36,.cls-37,.cls-38,.cls-58,.cls-59,.cls-60,.cls-61,.cls-62,.cls-63,.cls-74{stroke:#3cc;}.cls-35{stroke-width:0.68px;}.cls-36{stroke-width:0.67px;}.cls-37{stroke-width:0.76px;}.cls-38{stroke-width:0.75px;}.cls-39{font-size:6.16px;}.cls-39,.cls-44{fill:#3cc;}.cls-39,.cls-44,.cls-46,.cls-47,.cls-48,.cls-49,.cls-50,.cls-51,.cls-52,.cls-53,.cls-65,.cls-70{font-family:CircularStd-Bold, Circular Std;}.cls-39,.cls-44,.cls-65,.cls-70{font-weight:700;}.cls-40{letter-spacing:0em;}.cls-41{letter-spacing:0em;}.cls-42{letter-spacing:-0.01em;}.cls-43{letter-spacing:-0.01em;}.cls-44{font-size:19.59px;}.cls-45{font-size:5.13px;font-family:NeutraDisp-Bold, Neutra Display;}.cls-46,.cls-47,.cls-48,.cls-49,.cls-50,.cls-51,.cls-52,.cls-53,.cls-54{font-size:5.47px;}.cls-47{letter-spacing:-0.01em;}.cls-48{letter-spacing:0em;}.cls-49{letter-spacing:0em;}.cls-50{letter-spacing:0em;}.cls-51{letter-spacing:-0.02em;}.cls-52{letter-spacing:0em;}.cls-53{letter-spacing:0em;}.cls-55{letter-spacing:0em;}.cls-56{letter-spacing:0em;}.cls-57{letter-spacing:-0.03em;}.cls-58{stroke-width:0.34px;}.cls-59,.cls-60,.cls-61{stroke-width:0.28px;}.cls-60{letter-spacing:-0.01em;}.cls-61{letter-spacing:0.01em;}.cls-62{stroke-width:0.7px;}.cls-63{stroke-width:0.69px;}.cls-64{stroke-width:0.67px;}.cls-65{font-size:6.2px;}.cls-66{letter-spacing:0em;}.cls-67{letter-spacing:0em;}.cls-68{letter-spacing:-0.01em;}.cls-69{letter-spacing:-0.01em;}.cls-70{font-size:19.71px;}.cls-71{font-size:11.89px;}.cls-72{letter-spacing:-0.01em;}.cls-73{letter-spacing:0.01em;}.cls-74{stroke-width:0.7px;}</style><clipPath id="clip-path"><rect class="cls-1" width="1027" height="170"/></clipPath><clipPath id="clip-path-2"><path class="cls-1" d="M697-.72s21.42,3.83,25,23-6.78,38.48,19.3,30.06,13.18,25.25,7.85,25.25-5.33,11.22,0,8.42,11.39-2.53,7.85,8.42c-2.72,8.41,61.49,9.83,102.27-18.66a65.84,65.84,0,0,0,27.94-54V-2.47H696.74Z"/></clipPath><clipPath id="clip-path-3"><circle class="cls-1" cx="842.15" cy="205.02" r="82.48"/></clipPath><clipPath id="clip-path-4"><path class="cls-1" d="M914.79,202.7a76.84,76.84,0,1,1,153.67,0Z"/></clipPath><clipPath id="clip-path-5"><rect class="cls-1" x="530.49" y="47.89" width="553.94" height="176.16"/></clipPath></defs><title>iema2017_header</title><g class="cls-2"><rect class="cls-3" x="-1" y="-2.33" width="1043.73" height="172.68"/><rect class="cls-4" x="764.04" y="102.93" width="11.26" height="266.39"/><rect class="cls-4" x="750.11" y="102.93" width="11.26" height="266.39"/><rect class="cls-4" x="736.17" y="102.93" width="11.26" height="266.39"/><rect class="cls-4" x="727.87" y="102.93" width="5.63" height="266.39"/><rect class="cls-4" x="814.13" y="102.93" width="5.63" height="266.39"/><rect class="cls-4" x="893.8" y="102.93" width="5.63" height="266.39"/><rect class="cls-4" x="888" y="102.93" width="2.82" height="266.39"/><rect class="cls-4" x="778.14" y="102.93" width="3.08" height="266.39"/><rect class="cls-4" x="782.94" y="102.93" width="3.08" height="266.39"/><rect class="cls-4" x="787.74" y="102.93" width="3.08" height="266.39"/><rect class="cls-4" x="792.54" y="102.93" width="3.08" height="266.39"/><rect class="cls-4" x="797.33" y="102.93" width="3.08" height="266.39"/><rect class="cls-4" x="802.13" y="102.93" width="3.08" height="266.39"/><rect class="cls-4" x="806.93" y="102.93" width="3.08" height="266.39"/><rect class="cls-4" x="823.07" y="102.93" width="18.35" height="266.39"/><rect class="cls-4" x="844.87" y="102.93" width="18.35" height="266.39"/><rect class="cls-4" x="866.66" y="102.93" width="18.35" height="266.39"/><path class="cls-5" d="M193.31,46.41a3.26,3.26,0,1,1-3.26,3.3A3.26,3.26,0,0,1,193.31,46.41Zm-2.62,29.24V56.1H196V75.65Z"/><path class="cls-5" d="M202,75.65V47.48h17.64v5.16H207.49v6.44h11V64h-11v6.51h12.16v5.16Z"/><path class="cls-5" d="M251.15,75.65V55.91L243,75.65h-4.57l-8.1-19.58V75.65h-5.24V47.48h7.23l8.46,20.34,8.26-20.34h7.47V75.65Z"/><path class="cls-5" d="M279.76,69.21H268.32L266,75.65h-5.8L271,47.48h6.36l10.73,28.16h-6Zm-9.61-5h7.79L274,53.56Z"/><rect class="cls-3" x="176.38" y="52.58" width="125.36" height="23.89"/><path class="cls-5" d="M193.31,55a3.26,3.26,0,1,1-3.26,3.3A3.26,3.26,0,0,1,193.31,55Zm-2.62,29.24V64.7H196V84.24Z"/><path class="cls-5" d="M202,84.24V56.08h17.64v5.16H207.49v6.44h11v4.88h-11v6.51h12.16v5.16Z"/><path class="cls-5" d="M251.15,84.24V64.5L243,84.24h-4.57l-8.1-19.58V84.24h-5.24V56.08h7.23l8.46,20.34,8.26-20.34h7.47V84.24Z"/><path class="cls-5" d="M279.76,77.81H268.32L266,84.24h-5.8L271,56.08h6.36l10.73,28.16h-6Zm-9.61-5h7.79L274,62.16Z"/><rect class="cls-3" x="176.38" y="66.11" width="125.36" height="23.89"/><path class="cls-5" d="M193.31,68.3a3.26,3.26,0,1,1-3.26,3.3A3.26,3.26,0,0,1,193.31,68.3Zm-2.62,29.24V78H196V97.54Z"/><path class="cls-5" d="M202,97.54V69.38h17.64v5.16H207.49V81h11v4.88h-11v6.51h12.16v5.16Z"/><path class="cls-5" d="M251.15,97.54V77.8L243,97.54h-4.57L230.38,78V97.54h-5.24V69.38h7.23l8.46,20.34,8.26-20.34h7.47V97.54Z"/><path class="cls-5" d="M279.76,91.1H268.32L266,97.54h-5.8L271,69.38h6.36l10.73,28.16h-6Zm-9.61-5h7.79L274,75.45Z"/><rect class="cls-3" x="176.38" y="82.92" width="125.36" height="23.89"/><path class="cls-5" d="M193.31,85.39a3.26,3.26,0,1,1-3.26,3.3A3.26,3.26,0,0,1,193.31,85.39Zm-2.62,29.24V95.08H196v19.54Z"/><path class="cls-5" d="M202,114.62V86.46h17.64v5.16H207.49v6.44h11v4.88h-11v6.51h12.16v5.16Z"/><path class="cls-5" d="M251.15,114.62V94.88L243,114.62h-4.57L230.38,95v19.58h-5.24V86.46h7.23l8.46,20.34,8.26-20.34h7.47v28.16Z"/><path class="cls-5" d="M279.76,108.19H268.32L266,114.62h-5.8L271,86.46h6.36l10.73,28.16h-6Zm-9.61-5h7.79L274,92.54Z"/><rect class="cls-3" x="176.38" y="103.16" width="125.36" height="23.89"/><path class="cls-5" d="M193.31,105.57a3.26,3.26,0,1,1-3.26,3.3A3.26,3.26,0,0,1,193.31,105.57Zm-2.62,29.24V115.26H196V134.8Z"/><path class="cls-5" d="M202,134.8V106.64h17.64v5.16H207.49v6.44h11v4.88h-11v6.51h12.16v5.16Z"/><path class="cls-5" d="M251.15,134.8V115.06L243,134.8h-4.57l-8.1-19.58V134.8h-5.24V106.64h7.23L240.82,127l8.26-20.34h7.47V134.8Z"/><path class="cls-5" d="M279.76,128.37H268.32L266,134.8h-5.8L271,106.64h6.36l10.73,28.16h-6Zm-9.61-5h7.79L274,112.72Z"/><rect class="cls-3" x="176.38" y="126.05" width="125.36" height="35.18"/><path class="cls-5" d="M193.31,128.49a3.26,3.26,0,1,1-3.26,3.3A3.26,3.26,0,0,1,193.31,128.49Zm-2.62,29.24V138.18H196v19.54Z"/><path class="cls-5" d="M202,157.73V129.57h17.64v5.16H207.49v6.44h11V146h-11v6.51h12.16v5.16Z"/><path class="cls-5" d="M251.15,157.73V138L243,157.73h-4.57l-8.1-19.58v19.58h-5.24V129.57h7.23l8.46,20.34,8.26-20.34h7.47v28.16Z"/><path class="cls-5" d="M279.76,151.29H268.32L266,157.73h-5.8L271,129.57h6.36l10.73,28.16h-6Zm-9.61-5h7.79L274,135.64Z"/><rect class="cls-3" x="176.38" y="151.3" width="125.36" height="23.89"/><path class="cls-4" d="M193.31,153.74a3.26,3.26,0,1,1-3.26,3.3A3.26,3.26,0,0,1,193.31,153.74Z"/><rect class="cls-4" x="190.69" y="163.44" width="5.28" height="19.54"/><path class="cls-4" d="M202,183V154.82h17.64V160H207.49v6.44h11v4.88h-11v6.51h12.16V183Z"/><path class="cls-4" d="M251.15,183V163.24L243,183h-4.57l-8.1-19.58V183h-5.24V154.82h7.23l8.46,20.34,8.26-20.34h7.47V183Z"/><path class="cls-4" d="M279.76,176.54H268.32L266,183h-5.8L271,154.82h6.36L288.06,183h-6Zm-9.61-5h7.79L274,160.89Z"/><rect class="cls-4" x="-65.26" y="-118.22" width="9.2" height="417.48" transform="translate(46.92 73.22) rotate(47.04)"/><rect class="cls-6" x="-58.98" y="-111.48" width="9.2" height="417.48" transform="translate(53.85 70.77) rotate(47.04)"/><rect class="cls-4" x="-52.71" y="-104.75" width="9.2" height="417.48" transform="translate(60.78 68.33) rotate(47.04)"/><rect class="cls-6" x="-46.44" y="-98.02" width="9.2" height="417.48" transform="translate(67.7 65.88) rotate(47.04)"/><rect class="cls-4" x="-40.17" y="-91.28" width="9.2" height="417.48" transform="translate(74.63 63.44) rotate(47.04)"/><rect class="cls-6" x="-33.9" y="-84.55" width="9.2" height="417.48" transform="translate(81.55 60.99) rotate(47.04)"/><rect class="cls-4" x="-27.63" y="-77.81" width="9.2" height="417.48" transform="translate(88.48 58.55) rotate(47.04)"/><rect class="cls-6" x="-21.36" y="-71.08" width="9.2" height="417.48" transform="translate(95.4 56.1) rotate(47.04)"/><rect class="cls-4" x="-15.08" y="-64.34" width="9.2" height="417.48" transform="translate(102.33 53.66) rotate(47.04)"/><rect class="cls-6" x="-8.81" y="-57.61" width="9.2" height="417.48" transform="translate(109.25 51.21) rotate(47.04)"/><rect class="cls-4" x="-2.54" y="-50.88" width="9.2" height="417.48" transform="translate(116.18 48.77) rotate(47.04)"/><rect class="cls-6" x="3.73" y="-44.14" width="9.2" height="417.48" transform="translate(123.1 46.32) rotate(47.04)"/><rect class="cls-4" x="10" y="-37.41" width="9.2" height="417.48" transform="translate(130.03 43.88) rotate(47.04)"/><rect class="cls-6" x="16.27" y="-30.67" width="9.2" height="417.48" transform="translate(136.96 41.43) rotate(47.04)"/><rect class="cls-4" x="22.55" y="-23.94" width="9.2" height="417.48" transform="translate(143.88 38.99) rotate(47.04)"/><rect class="cls-6" x="28.82" y="-17.2" width="9.2" height="417.48" transform="translate(150.81 36.54) rotate(47.04)"/><rect class="cls-4" x="35.09" y="-10.47" width="9.2" height="417.48" transform="translate(157.73 34.1) rotate(47.04)"/><rect class="cls-6" x="41.36" y="-3.74" width="9.2" height="417.48" transform="translate(164.66 31.65) rotate(47.04)"/><rect class="cls-4" x="47.63" y="3" width="9.2" height="417.48" transform="translate(171.58 29.21) rotate(47.04)"/><rect class="cls-6" x="53.9" y="9.73" width="9.2" height="417.48" transform="translate(178.51 26.77) rotate(47.04)"/><rect class="cls-4" x="60.17" y="16.47" width="9.2" height="417.48" transform="translate(185.43 24.32) rotate(47.04)"/><rect class="cls-6" x="66.45" y="23.2" width="9.2" height="417.48" transform="translate(192.36 21.88) rotate(47.04)"/><g class="cls-7"><g class="cls-8"><circle class="cls-6" cx="788.46" cy="1.8" r="2.53"/><circle class="cls-6" cx="796.31" cy="1.8" r="2.53"/><circle class="cls-6" cx="804.16" cy="1.8" r="2.53"/><circle class="cls-6" cx="812.02" cy="1.8" r="2.53"/><circle class="cls-6" cx="819.87" cy="1.8" r="2.53"/><circle class="cls-6" cx="827.72" cy="1.8" r="2.53"/><circle class="cls-6" cx="835.57" cy="1.8" r="2.53"/><circle class="cls-6" cx="843.43" cy="1.8" r="2.53"/><circle class="cls-6" cx="851.28" cy="1.8" r="2.53"/><circle class="cls-6" cx="859.13" cy="1.8" r="2.53"/><circle class="cls-6" cx="866.99" cy="1.8" r="2.53"/><circle class="cls-6" cx="874.84" cy="1.8" r="2.53"/><circle class="cls-6" cx="882.69" cy="1.8" r="2.53"/><circle class="cls-6" cx="788.46" cy="10.22" r="2.53"/><circle class="cls-6" cx="796.31" cy="10.22" r="2.53"/><circle class="cls-6" cx="804.16" cy="10.22" r="2.53"/><circle class="cls-6" cx="812.02" cy="10.22" r="2.53"/><circle class="cls-6" cx="819.87" cy="10.22" r="2.53"/><circle class="cls-6" cx="827.72" cy="10.22" r="2.53"/><circle class="cls-6" cx="835.57" cy="10.22" r="2.53"/><circle class="cls-6" cx="843.43" cy="10.22" r="2.53"/><circle class="cls-6" cx="851.28" cy="10.22" r="2.53"/><circle class="cls-6" cx="859.13" cy="10.22" r="2.53"/><circle class="cls-6" cx="866.99" cy="10.22" r="2.53"/><circle class="cls-6" cx="874.84" cy="10.22" r="2.53"/><circle class="cls-6" cx="882.69" cy="10.22" r="2.53"/><circle class="cls-6" cx="788.46" cy="18.63" r="2.53"/><circle class="cls-6" cx="796.31" cy="18.63" r="2.53"/><circle class="cls-6" cx="804.16" cy="18.63" r="2.53"/><circle class="cls-6" cx="812.02" cy="18.63" r="2.53"/><circle class="cls-6" cx="819.87" cy="18.63" r="2.53"/><circle class="cls-6" cx="827.72" cy="18.63" r="2.53"/><circle class="cls-6" cx="835.57" cy="18.63" r="2.53"/><circle class="cls-6" cx="843.43" cy="18.63" r="2.53"/><circle class="cls-6" cx="851.28" cy="18.63" r="2.53"/><circle class="cls-6" cx="859.13" cy="18.63" r="2.53"/><circle class="cls-6" cx="866.99" cy="18.63" r="2.53"/><circle class="cls-6" cx="874.84" cy="18.63" r="2.53"/><circle class="cls-6" cx="882.69" cy="18.63" r="2.53"/><circle class="cls-6" cx="788.46" cy="27.05" r="2.53"/><circle class="cls-6" cx="796.31" cy="27.05" r="2.53"/><circle class="cls-6" cx="804.16" cy="27.05" r="2.53"/><circle class="cls-6" cx="812.02" cy="27.05" r="2.53"/><circle class="cls-6" cx="819.87" cy="27.05" r="2.53"/><circle class="cls-6" cx="827.72" cy="27.05" r="2.53"/><circle class="cls-6" cx="835.57" cy="27.05" r="2.53"/><circle class="cls-6" cx="843.43" cy="27.05" r="2.53"/><circle class="cls-6" cx="851.28" cy="27.05" r="2.53"/><circle class="cls-6" cx="859.13" cy="27.05" r="2.53"/><circle class="cls-6" cx="866.99" cy="27.05" r="2.53"/><circle class="cls-6" cx="874.84" cy="27.05" r="2.53"/><circle class="cls-6" cx="882.69" cy="27.05" r="2.53"/><circle class="cls-6" cx="788.46" cy="35.46" r="2.53"/><circle class="cls-6" cx="796.31" cy="35.46" r="2.53"/><circle class="cls-6" cx="804.16" cy="35.46" r="2.53"/><circle class="cls-6" cx="812.02" cy="35.46" r="2.53"/><circle class="cls-6" cx="819.87" cy="35.46" r="2.53"/><circle class="cls-6" cx="827.72" cy="35.46" r="2.53"/><circle class="cls-6" cx="835.57" cy="35.46" r="2.53"/><circle class="cls-6" cx="843.43" cy="35.46" r="2.53"/><circle class="cls-6" cx="851.28" cy="35.46" r="2.53"/><circle class="cls-6" cx="859.13" cy="35.46" r="2.53"/><circle class="cls-6" cx="866.99" cy="35.46" r="2.53"/><circle class="cls-6" cx="874.84" cy="35.46" r="2.53"/><circle class="cls-6" cx="882.69" cy="35.46" r="2.53"/><circle class="cls-6" cx="788.46" cy="43.88" r="2.53"/><circle class="cls-6" cx="796.31" cy="43.88" r="2.53"/><circle class="cls-6" cx="804.16" cy="43.88" r="2.53"/><circle class="cls-6" cx="812.02" cy="43.88" r="2.53"/><circle class="cls-6" cx="819.87" cy="43.88" r="2.53"/><circle class="cls-6" cx="827.72" cy="43.88" r="2.53"/><circle class="cls-6" cx="835.57" cy="43.88" r="2.53"/><circle class="cls-6" cx="843.43" cy="43.88" r="2.53"/><circle class="cls-6" cx="851.28" cy="43.88" r="2.53"/><circle class="cls-6" cx="859.13" cy="43.88" r="2.53"/><circle class="cls-6" cx="866.99" cy="43.88" r="2.53"/><circle class="cls-6" cx="874.84" cy="43.88" r="2.53"/><circle class="cls-6" cx="882.69" cy="43.88" r="2.53"/><circle class="cls-6" cx="788.46" cy="52.29" r="2.53"/><circle class="cls-6" cx="796.31" cy="52.29" r="2.53"/><circle class="cls-6" cx="804.16" cy="52.29" r="2.53"/><circle class="cls-6" cx="812.02" cy="52.29" r="2.53"/><circle class="cls-6" cx="819.87" cy="52.29" r="2.53"/><circle class="cls-6" cx="827.72" cy="52.29" r="2.53"/><circle class="cls-6" cx="835.57" cy="52.29" r="2.53"/><circle class="cls-6" cx="843.43" cy="52.29" r="2.53"/><circle class="cls-6" cx="851.28" cy="52.29" r="2.53"/><circle class="cls-6" cx="859.13" cy="52.29" r="2.53"/><circle class="cls-6" cx="866.99" cy="52.29" r="2.53"/><circle class="cls-6" cx="874.84" cy="52.29" r="2.53"/><circle class="cls-6" cx="882.69" cy="52.29" r="2.53"/><circle class="cls-6" cx="788.46" cy="60.71" r="2.53"/><circle class="cls-6" cx="796.31" cy="60.71" r="2.53"/><circle class="cls-6" cx="804.16" cy="60.71" r="2.53"/><circle class="cls-6" cx="812.02" cy="60.71" r="2.53"/><circle class="cls-6" cx="819.87" cy="60.71" r="2.53"/><circle class="cls-6" cx="827.72" cy="60.71" r="2.53"/><circle class="cls-6" cx="835.57" cy="60.71" r="2.53"/><circle class="cls-6" cx="843.43" cy="60.71" r="2.53"/><circle class="cls-6" cx="851.28" cy="60.71" r="2.53"/><circle class="cls-6" cx="859.13" cy="60.71" r="2.53"/><circle class="cls-6" cx="866.99" cy="60.71" r="2.53"/><circle class="cls-6" cx="874.84" cy="60.71" r="2.53"/><circle class="cls-6" cx="882.69" cy="60.71" r="2.53"/><circle class="cls-6" cx="788.46" cy="69.12" r="2.53"/><circle class="cls-6" cx="796.31" cy="69.12" r="2.53"/><circle class="cls-6" cx="804.16" cy="69.12" r="2.53"/><circle class="cls-6" cx="812.02" cy="69.12" r="2.53"/><circle class="cls-6" cx="819.87" cy="69.12" r="2.53"/><circle class="cls-6" cx="827.72" cy="69.12" r="2.53"/><circle class="cls-6" cx="835.57" cy="69.12" r="2.53"/><circle class="cls-6" cx="843.43" cy="69.12" r="2.53"/><circle class="cls-6" cx="851.28" cy="69.12" r="2.53"/><circle class="cls-6" cx="859.13" cy="69.12" r="2.53"/><circle class="cls-6" cx="866.99" cy="69.12" r="2.53"/><circle class="cls-6" cx="874.84" cy="69.12" r="2.53"/><circle class="cls-6" cx="882.69" cy="69.12" r="2.53"/><circle class="cls-6" cx="788.46" cy="77.54" r="2.53"/><circle class="cls-6" cx="796.31" cy="77.54" r="2.53"/><circle class="cls-6" cx="804.16" cy="77.54" r="2.53"/><circle class="cls-6" cx="812.02" cy="77.54" r="2.53"/><circle class="cls-6" cx="819.87" cy="77.54" r="2.53"/><circle class="cls-6" cx="827.72" cy="77.54" r="2.53"/><circle class="cls-6" cx="835.57" cy="77.54" r="2.53"/><circle class="cls-6" cx="843.43" cy="77.54" r="2.53"/><circle class="cls-6" cx="851.28" cy="77.54" r="2.53"/><circle class="cls-6" cx="859.13" cy="77.54" r="2.53"/><circle class="cls-6" cx="866.99" cy="77.54" r="2.53"/><circle class="cls-6" cx="874.84" cy="77.54" r="2.53"/><circle class="cls-6" cx="882.69" cy="77.54" r="2.53"/><circle class="cls-6" cx="788.46" cy="85.96" r="2.53"/><circle class="cls-6" cx="796.31" cy="85.96" r="2.53"/><circle class="cls-6" cx="804.16" cy="85.96" r="2.53"/><circle class="cls-6" cx="812.02" cy="85.96" r="2.53"/><circle class="cls-6" cx="819.87" cy="85.96" r="2.53"/><circle class="cls-6" cx="827.72" cy="85.96" r="2.53"/><circle class="cls-6" cx="835.57" cy="85.96" r="2.53"/><circle class="cls-6" cx="843.43" cy="85.96" r="2.53"/><circle class="cls-6" cx="851.28" cy="85.96" r="2.53"/><circle class="cls-6" cx="859.13" cy="85.96" r="2.53"/><circle class="cls-6" cx="866.99" cy="85.96" r="2.53"/><circle class="cls-6" cx="874.84" cy="85.96" r="2.53"/><circle class="cls-6" cx="882.69" cy="85.96" r="2.53"/><circle class="cls-6" cx="788.46" cy="94.37" r="2.53"/><circle class="cls-6" cx="796.31" cy="94.37" r="2.53"/><circle class="cls-6" cx="804.16" cy="94.37" r="2.53"/><circle class="cls-6" cx="812.02" cy="94.37" r="2.53"/><circle class="cls-6" cx="819.87" cy="94.37" r="2.53"/><circle class="cls-6" cx="827.72" cy="94.37" r="2.53"/><circle class="cls-6" cx="835.57" cy="94.37" r="2.53"/><circle class="cls-6" cx="843.43" cy="94.37" r="2.53"/><circle class="cls-6" cx="851.28" cy="94.37" r="2.53"/><circle class="cls-6" cx="859.13" cy="94.37" r="2.53"/><circle class="cls-6" cx="866.99" cy="94.37" r="2.53"/><circle class="cls-6" cx="874.84" cy="94.37" r="2.53"/><circle class="cls-6" cx="882.69" cy="94.37" r="2.53"/><circle class="cls-6" cx="788.46" cy="102.79" r="2.53"/><circle class="cls-6" cx="796.31" cy="102.79" r="2.53"/><circle class="cls-6" cx="804.16" cy="102.79" r="2.53"/><circle class="cls-6" cx="812.02" cy="102.79" r="2.53"/><circle class="cls-6" cx="819.87" cy="102.79" r="2.53"/><circle class="cls-6" cx="827.72" cy="102.79" r="2.53"/><circle class="cls-6" cx="835.57" cy="102.79" r="2.53"/><circle class="cls-6" cx="843.43" cy="102.79" r="2.53"/><circle class="cls-6" cx="851.28" cy="102.79" r="2.53"/><circle class="cls-6" cx="859.13" cy="102.79" r="2.53"/><circle class="cls-6" cx="866.99" cy="102.79" r="2.53"/><circle class="cls-6" cx="874.84" cy="102.79" r="2.53"/><circle class="cls-6" cx="882.69" cy="102.79" r="2.53"/><circle class="cls-6" cx="694.22" cy="1.8" r="2.53"/><circle class="cls-6" cx="702.07" cy="1.8" r="2.53"/><circle class="cls-6" cx="709.92" cy="1.8" r="2.53"/><circle class="cls-6" cx="717.78" cy="1.8" r="2.53"/><circle class="cls-6" cx="725.63" cy="1.8" r="2.53"/><circle class="cls-6" cx="733.48" cy="1.8" r="2.53"/><circle class="cls-6" cx="741.34" cy="1.8" r="2.53"/><circle class="cls-6" cx="749.19" cy="1.8" r="2.53"/><circle class="cls-6" cx="757.04" cy="1.8" r="2.53"/><circle class="cls-6" cx="764.9" cy="1.8" r="2.53"/><circle class="cls-6" cx="772.75" cy="1.8" r="2.53"/><circle class="cls-6" cx="780.6" cy="1.8" r="2.53"/><circle class="cls-6" cx="788.46" cy="1.8" r="2.53"/><circle class="cls-6" cx="694.22" cy="10.22" r="2.53"/><circle class="cls-6" cx="702.07" cy="10.22" r="2.53"/><circle class="cls-6" cx="709.92" cy="10.22" r="2.53"/><circle class="cls-6" cx="717.78" cy="10.22" r="2.53"/><circle class="cls-6" cx="725.63" cy="10.22" r="2.53"/><circle class="cls-6" cx="733.48" cy="10.22" r="2.53"/><circle class="cls-6" cx="741.34" cy="10.22" r="2.53"/><circle class="cls-6" cx="749.19" cy="10.22" r="2.53"/><circle class="cls-6" cx="757.04" cy="10.22" r="2.53"/><circle class="cls-6" cx="764.9" cy="10.22" r="2.53"/><circle class="cls-6" cx="772.75" cy="10.22" r="2.53"/><circle class="cls-6" cx="780.6" cy="10.22" r="2.53"/><circle class="cls-6" cx="788.46" cy="10.22" r="2.53"/><circle class="cls-6" cx="694.22" cy="18.63" r="2.53"/><circle class="cls-6" cx="702.07" cy="18.63" r="2.53"/><circle class="cls-6" cx="709.92" cy="18.63" r="2.53"/><circle class="cls-6" cx="717.78" cy="18.63" r="2.53"/><circle class="cls-6" cx="725.63" cy="18.63" r="2.53"/><circle class="cls-6" cx="733.48" cy="18.63" r="2.53"/><circle class="cls-6" cx="741.34" cy="18.63" r="2.53"/><circle class="cls-6" cx="749.19" cy="18.63" r="2.53"/><circle class="cls-6" cx="757.04" cy="18.63" r="2.53"/><circle class="cls-6" cx="764.9" cy="18.63" r="2.53"/><circle class="cls-6" cx="772.75" cy="18.63" r="2.53"/><circle class="cls-6" cx="780.6" cy="18.63" r="2.53"/><circle class="cls-6" cx="788.46" cy="18.63" r="2.53"/><circle class="cls-6" cx="694.22" cy="27.05" r="2.53"/><circle class="cls-6" cx="702.07" cy="27.05" r="2.53"/><circle class="cls-6" cx="709.92" cy="27.05" r="2.53"/><circle class="cls-6" cx="717.78" cy="27.05" r="2.53"/><circle class="cls-6" cx="725.63" cy="27.05" r="2.53"/><circle class="cls-6" cx="733.48" cy="27.05" r="2.53"/><circle class="cls-6" cx="741.34" cy="27.05" r="2.53"/><circle class="cls-6" cx="749.19" cy="27.05" r="2.53"/><circle class="cls-6" cx="757.04" cy="27.05" r="2.53"/><circle class="cls-6" cx="764.9" cy="27.05" r="2.53"/><circle class="cls-6" cx="772.75" cy="27.05" r="2.53"/><circle class="cls-6" cx="780.6" cy="27.05" r="2.53"/><circle class="cls-6" cx="788.46" cy="27.05" r="2.53"/><circle class="cls-6" cx="694.22" cy="35.46" r="2.53"/><circle class="cls-6" cx="702.07" cy="35.46" r="2.53"/><circle class="cls-6" cx="709.92" cy="35.46" r="2.53"/><circle class="cls-6" cx="717.78" cy="35.46" r="2.53"/><circle class="cls-6" cx="725.63" cy="35.46" r="2.53"/><circle class="cls-6" cx="733.48" cy="35.46" r="2.53"/><circle class="cls-6" cx="741.34" cy="35.46" r="2.53"/><circle class="cls-6" cx="749.19" cy="35.46" r="2.53"/><circle class="cls-6" cx="757.04" cy="35.46" r="2.53"/><circle class="cls-6" cx="764.9" cy="35.46" r="2.53"/><circle class="cls-6" cx="772.75" cy="35.46" r="2.53"/><circle class="cls-6" cx="780.6" cy="35.46" r="2.53"/><circle class="cls-6" cx="788.46" cy="35.46" r="2.53"/><circle class="cls-6" cx="694.22" cy="43.88" r="2.53"/><circle class="cls-6" cx="702.07" cy="43.88" r="2.53"/><circle class="cls-6" cx="709.92" cy="43.88" r="2.53"/><circle class="cls-6" cx="717.78" cy="43.88" r="2.53"/><circle class="cls-6" cx="725.63" cy="43.88" r="2.53"/><circle class="cls-6" cx="733.48" cy="43.88" r="2.53"/><circle class="cls-6" cx="741.34" cy="43.88" r="2.53"/><circle class="cls-6" cx="749.19" cy="43.88" r="2.53"/><circle class="cls-6" cx="757.04" cy="43.88" r="2.53"/><circle class="cls-6" cx="764.9" cy="43.88" r="2.53"/><circle class="cls-6" cx="772.75" cy="43.88" r="2.53"/><circle class="cls-6" cx="780.6" cy="43.88" r="2.53"/><circle class="cls-6" cx="788.46" cy="43.88" r="2.53"/><circle class="cls-6" cx="694.22" cy="52.29" r="2.53"/><circle class="cls-6" cx="702.07" cy="52.29" r="2.53"/><circle class="cls-6" cx="709.92" cy="52.29" r="2.53"/><circle class="cls-6" cx="717.78" cy="52.29" r="2.53"/><circle class="cls-6" cx="725.63" cy="52.29" r="2.53"/><circle class="cls-6" cx="733.48" cy="52.29" r="2.53"/><circle class="cls-6" cx="741.34" cy="52.29" r="2.53"/><circle class="cls-6" cx="749.19" cy="52.29" r="2.53"/><circle class="cls-6" cx="757.04" cy="52.29" r="2.53"/><circle class="cls-6" cx="764.9" cy="52.29" r="2.53"/><circle class="cls-6" cx="772.75" cy="52.29" r="2.53"/><circle class="cls-6" cx="780.6" cy="52.29" r="2.53"/><circle class="cls-6" cx="788.46" cy="52.29" r="2.53"/><circle class="cls-6" cx="694.22" cy="60.71" r="2.53"/><circle class="cls-6" cx="702.07" cy="60.71" r="2.53"/><circle class="cls-6" cx="709.92" cy="60.71" r="2.53"/><circle class="cls-6" cx="717.78" cy="60.71" r="2.53"/><circle class="cls-6" cx="725.63" cy="60.71" r="2.53"/><circle class="cls-6" cx="733.48" cy="60.71" r="2.53"/><circle class="cls-6" cx="741.34" cy="60.71" r="2.53"/><circle class="cls-6" cx="749.19" cy="60.71" r="2.53"/><circle class="cls-6" cx="757.04" cy="60.71" r="2.53"/><circle class="cls-6" cx="764.9" cy="60.71" r="2.53"/><circle class="cls-6" cx="772.75" cy="60.71" r="2.53"/><circle class="cls-6" cx="780.6" cy="60.71" r="2.53"/><circle class="cls-6" cx="788.46" cy="60.71" r="2.53"/><circle class="cls-6" cx="694.22" cy="69.12" r="2.53"/><circle class="cls-6" cx="702.07" cy="69.12" r="2.53"/><circle class="cls-6" cx="709.92" cy="69.12" r="2.53"/><circle class="cls-6" cx="717.78" cy="69.12" r="2.53"/><circle class="cls-6" cx="725.63" cy="69.12" r="2.53"/><circle class="cls-6" cx="733.48" cy="69.12" r="2.53"/><circle class="cls-6" cx="741.34" cy="69.12" r="2.53"/><circle class="cls-6" cx="749.19" cy="69.12" r="2.53"/><circle class="cls-6" cx="757.04" cy="69.12" r="2.53"/><circle class="cls-6" cx="764.9" cy="69.12" r="2.53"/><circle class="cls-6" cx="772.75" cy="69.12" r="2.53"/><circle class="cls-6" cx="780.6" cy="69.12" r="2.53"/><circle class="cls-6" cx="788.46" cy="69.12" r="2.53"/><circle class="cls-6" cx="694.22" cy="77.54" r="2.53"/><circle class="cls-6" cx="702.07" cy="77.54" r="2.53"/><circle class="cls-6" cx="709.92" cy="77.54" r="2.53"/><circle class="cls-6" cx="717.78" cy="77.54" r="2.53"/><circle class="cls-6" cx="725.63" cy="77.54" r="2.53"/><circle class="cls-6" cx="733.48" cy="77.54" r="2.53"/><circle class="cls-6" cx="741.34" cy="77.54" r="2.53"/><circle class="cls-6" cx="749.19" cy="77.54" r="2.53"/><circle class="cls-6" cx="757.04" cy="77.54" r="2.53"/><circle class="cls-6" cx="764.9" cy="77.54" r="2.53"/><circle class="cls-6" cx="772.75" cy="77.54" r="2.53"/><circle class="cls-6" cx="780.6" cy="77.54" r="2.53"/><circle class="cls-6" cx="788.46" cy="77.54" r="2.53"/><circle class="cls-6" cx="694.22" cy="85.96" r="2.53"/><circle class="cls-6" cx="702.07" cy="85.96" r="2.53"/><circle class="cls-6" cx="709.92" cy="85.96" r="2.53"/><circle class="cls-6" cx="717.78" cy="85.96" r="2.53"/><circle class="cls-6" cx="725.63" cy="85.96" r="2.53"/><circle class="cls-6" cx="733.48" cy="85.96" r="2.53"/><circle class="cls-6" cx="741.34" cy="85.96" r="2.53"/><circle class="cls-6" cx="749.19" cy="85.96" r="2.53"/><circle class="cls-6" cx="757.04" cy="85.96" r="2.53"/><circle class="cls-6" cx="764.9" cy="85.96" r="2.53"/><circle class="cls-6" cx="772.75" cy="85.96" r="2.53"/><circle class="cls-6" cx="780.6" cy="85.96" r="2.53"/><circle class="cls-6" cx="788.46" cy="85.96" r="2.53"/><circle class="cls-6" cx="694.22" cy="94.37" r="2.53"/><circle class="cls-6" cx="702.07" cy="94.37" r="2.53"/><circle class="cls-6" cx="709.92" cy="94.37" r="2.53"/><circle class="cls-6" cx="717.78" cy="94.37" r="2.53"/><circle class="cls-6" cx="725.63" cy="94.37" r="2.53"/><circle class="cls-6" cx="733.48" cy="94.37" r="2.53"/><circle class="cls-6" cx="741.34" cy="94.37" r="2.53"/><circle class="cls-6" cx="749.19" cy="94.37" r="2.53"/><circle class="cls-6" cx="757.04" cy="94.37" r="2.53"/><circle class="cls-6" cx="764.9" cy="94.37" r="2.53"/><circle class="cls-6" cx="772.75" cy="94.37" r="2.53"/><circle class="cls-6" cx="780.6" cy="94.37" r="2.53"/><circle class="cls-6" cx="788.46" cy="94.37" r="2.53"/><circle class="cls-6" cx="694.22" cy="102.79" r="2.53"/><circle class="cls-6" cx="702.07" cy="102.79" r="2.53"/><circle class="cls-6" cx="709.92" cy="102.79" r="2.53"/><circle class="cls-6" cx="717.78" cy="102.79" r="2.53"/><circle class="cls-6" cx="725.63" cy="102.79" r="2.53"/><circle class="cls-6" cx="733.48" cy="102.79" r="2.53"/><circle class="cls-6" cx="741.34" cy="102.79" r="2.53"/><circle class="cls-6" cx="749.19" cy="102.79" r="2.53"/><circle class="cls-6" cx="757.04" cy="102.79" r="2.53"/><circle class="cls-6" cx="764.9" cy="102.79" r="2.53"/><circle class="cls-6" cx="772.75" cy="102.79" r="2.53"/><circle class="cls-6" cx="780.6" cy="102.79" r="2.53"/><circle class="cls-6" cx="788.46" cy="102.79" r="2.53"/></g></g><path class="cls-9" d="M139.14-1.23s-9,52.95-57,62.82C50.42,68.1,66.77,99.13,66.77,99.13s8.43,26.21-7.78,48.66-10.1,36.34-10.1,36.34,3.63,20-12,28.34c-11.62,6.17-21.71,16.83-28.38,31.25C3.33,255-1,268.8-1,283.58V-2.33Z"/><path class="cls-10" d="M728.22,196.36l17.48-.11h.82l17.72-.11-.32-51.78-16.47,13.26a2.54,2.54,0,0,1-3.17,0l-16.38-13Z"/><path class="cls-11" d="M275,45.46c-.46.34-.93.66-1.42,1A39,39,0,0,1,219.69-7.8"/><path class="cls-11" d="M273.16,42.93a35.47,35.47,0,0,1-47.76-5.47"/><path class="cls-11" d="M222.44,33.63a35.23,35.23,0,0,1-3.26-6.78"/><path class="cls-11" d="M217.71,22.94a33.71,33.71,0,0,1,0-16.85"/><path class="cls-12" d="M172.34,165.67c.65-.48,1.32-.94,2-1.38a55.1,55.1,0,0,1,76.1,76.63"/><path class="cls-12" d="M174.89,169.23A50.11,50.11,0,0,1,242.36,177"/><polygon class="cls-4" points="807.3 60.72 799.66 73.95 814.93 73.95 807.3 60.72"/><polygon class="cls-4" points="806.98 46.37 799.35 59.59 814.62 59.59 806.98 46.37"/><polygon class="cls-5" points="806.67 32.01 799.03 45.24 814.3 45.24 806.67 32.01"/><polygon class="cls-4" points="828.14 46.98 820.51 60.21 835.78 60.21 828.14 46.98"/><polygon class="cls-5" points="827.83 32.63 820.19 45.86 835.47 45.86 827.83 32.63"/><polygon class="cls-4" points="827.51 18.27 819.88 31.5 835.15 31.5 827.51 18.27"/><path class="cls-9" d="M833.58-3.16s5.29,51.76,56.75,51.76c38.59,0,50.29,23.53,53.73,35.3a114.21,114.21,0,0,0,9.71,23.59c8.84,15.89,23.91,37.14,41.24,37.14l32.54-113.13V-3.16Z"/><line class="cls-13" x1="881.81" y1="153.23" x2="881.81" y2="71.65"/><line class="cls-13" x1="917.51" y1="152.85" x2="917.51" y2="71.27"/><polygon class="cls-14" points="881.81 60.72 869.35 82.3 894.27 82.3 881.81 60.72"/><polygon class="cls-14" points="917.51 61.38 905.05 82.96 929.97 82.96 917.51 61.38"/><path class="cls-15" d="M772.75,169.22h254.8V6.27s-35.41,12.11-43.23,66.3c-6.47,44.88-40.92,46.21-52.57,45.35a47.21,47.21,0,0,0-19.42,2.47,44,44,0,0,0-23.48,19.06c-7.94,13.32-27.73,9.14-42.56,3.52a60.26,60.26,0,0,0-72.55,24.63Z"/><path class="cls-16" d="M-1,29.23S45.29,16.15,53.75,72.54c5.59,37.23,32.18,18,32.18,18s22.47-9.9,41.71,9.14,31.15,11.86,31.15,11.86S176,107.3,183.1,125.63A68.29,68.29,0,0,0,209.89,159c9.65,6.11,21.49,11.2,34.16,11.2H-1Z"/><circle id="_Ellipse_" data-name="&lt;Ellipse&gt;" class="cls-16" cx="842.15" cy="205.02" r="82.48"/><g class="cls-17"><line class="cls-18" x1="852.71" y1="155.3" x2="873.97" y2="155.3"/><line class="cls-18" x1="859.81" y1="168.76" x2="881.06" y2="168.76"/><line class="cls-18" x1="863.34" y1="108.2" x2="872.14" y2="127.56"/><line class="cls-18" x1="847.27" y1="163.69" x2="855.46" y2="183.31"/><line class="cls-18" x1="843.22" y1="151.23" x2="857.36" y2="135.36"/><line class="cls-18" x1="864.2" y1="136.22" x2="880.07" y2="150.37"/><line class="cls-18" x1="846.52" y1="133.75" x2="860.67" y2="117.88"/><line class="cls-18" x1="898.35" y1="150.05" x2="911.94" y2="133.71"/><line class="cls-18" x1="879.51" y1="133.98" x2="893.1" y2="117.64"/><line class="cls-18" x1="927.59" y1="168.71" x2="941.19" y2="152.37"/><line class="cls-18" x1="910.6" y1="126.59" x2="931.86" y2="126.59"/><line class="cls-18" x1="914.89" y1="108.2" x2="899.86" y2="123.23"/><line class="cls-18" x1="896.75" y1="163.47" x2="918.01" y2="163.47"/><line class="cls-18" x1="910.6" y1="146.39" x2="926.47" y2="160.54"/><line class="cls-18" x1="935.5" y1="129.24" x2="922.93" y2="146.39"/><line class="cls-18" x1="764.59" y1="127.29" x2="773.39" y2="146.64"/><line class="cls-18" x1="744.47" y1="170.31" x2="758.61" y2="154.45"/><line class="cls-18" x1="765.45" y1="155.31" x2="781.32" y2="169.45"/><line class="cls-18" x1="747.77" y1="152.83" x2="761.92" y2="136.96"/><line class="cls-18" x1="799.6" y1="169.14" x2="813.19" y2="152.8"/><line class="cls-18" x1="780.76" y1="153.07" x2="794.35" y2="136.73"/><line class="cls-18" x1="811.85" y1="145.67" x2="833.11" y2="145.67"/><line class="cls-18" x1="816.14" y1="127.29" x2="801.11" y2="142.32"/><line class="cls-18" x1="811.85" y1="165.48" x2="827.72" y2="179.63"/><line class="cls-18" x1="836.75" y1="148.33" x2="824.18" y2="165.48"/></g><path class="cls-6" d="M903.62,9.35a10.06,10.06,0,1,1-10.06,10.19A10.06,10.06,0,0,1,903.62,9.35Z"/><path class="cls-4" d="M928.63,9.35a10.06,10.06,0,1,1-10.06,10.19A10.06,10.06,0,0,1,928.63,9.35Z"/><rect class="cls-16" x="25.15" y="139.44" width="13.21" height="13.21"/><rect class="cls-19" x="38.36" y="139.44" width="13.21" height="13.21"/><rect class="cls-16" x="51.57" y="139.44" width="13.21" height="13.21"/><rect class="cls-19" x="64.78" y="139.44" width="13.21" height="13.21"/><rect class="cls-20" x="77.98" y="139.44" width="13.21" height="13.21"/><rect class="cls-16" x="91.19" y="139.44" width="13.21" height="13.21"/><rect class="cls-20" x="25.15" y="126.23" width="13.21" height="13.21"/><rect class="cls-16" x="38.36" y="126.23" width="13.21" height="13.21"/><rect class="cls-20" x="51.57" y="126.23" width="13.21" height="13.21"/><rect class="cls-16" x="64.78" y="126.23" width="13.21" height="13.21"/><rect class="cls-19" x="77.98" y="126.23" width="13.21" height="13.21"/><rect class="cls-21" x="91.19" y="113.02" width="13.21" height="13.21"/><rect class="cls-21" x="77.98" y="99.82" width="13.21" height="13.21"/><path class="cls-22" d="M896,202.72a76.84,76.84,0,0,1,153.67,0Z"/><g class="cls-23"><g class="cls-24"><line class="cls-25" x1="572" y1="11.92" x2="312.59" y2="271.33"/><line class="cls-25" x1="580.88" y1="11.92" x2="321.47" y2="271.33"/><line class="cls-25" x1="589.76" y1="11.92" x2="330.35" y2="271.33"/><line class="cls-25" x1="598.63" y1="11.92" x2="339.23" y2="271.33"/><line class="cls-25" x1="607.51" y1="11.92" x2="348.1" y2="271.33"/><line class="cls-25" x1="616.39" y1="11.92" x2="356.98" y2="271.33"/><line class="cls-25" x1="625.27" y1="11.92" x2="365.86" y2="271.33"/><line class="cls-25" x1="634.15" y1="11.92" x2="374.74" y2="271.33"/><line class="cls-25" x1="643.03" y1="11.92" x2="383.62" y2="271.33"/><line class="cls-25" x1="651.9" y1="11.92" x2="392.5" y2="271.33"/><line class="cls-25" x1="660.78" y1="11.92" x2="401.37" y2="271.33"/><line class="cls-25" x1="669.66" y1="11.92" x2="410.25" y2="271.33"/><line class="cls-25" x1="678.54" y1="11.92" x2="419.13" y2="271.33"/><line class="cls-25" x1="687.42" y1="11.92" x2="428.01" y2="271.33"/><line class="cls-25" x1="696.3" y1="11.92" x2="436.89" y2="271.33"/><line class="cls-25" x1="705.17" y1="11.92" x2="445.77" y2="271.33"/><line class="cls-25" x1="714.05" y1="11.92" x2="454.64" y2="271.33"/><line class="cls-25" x1="722.93" y1="11.92" x2="463.52" y2="271.33"/><line class="cls-25" x1="731.81" y1="11.92" x2="472.4" y2="271.33"/><line class="cls-25" x1="740.69" y1="11.92" x2="481.28" y2="271.33"/><line class="cls-25" x1="749.57" y1="11.92" x2="490.16" y2="271.33"/><line class="cls-25" x1="758.44" y1="11.92" x2="499.04" y2="271.33"/><line class="cls-25" x1="767.32" y1="11.92" x2="507.91" y2="271.33"/><line class="cls-25" x1="776.2" y1="11.92" x2="516.79" y2="271.33"/><line class="cls-25" x1="785.08" y1="11.92" x2="525.67" y2="271.33"/><line class="cls-25" x1="793.96" y1="11.92" x2="534.55" y2="271.33"/><line class="cls-25" x1="802.84" y1="11.92" x2="543.43" y2="271.33"/><line class="cls-25" x1="811.71" y1="11.92" x2="552.31" y2="271.33"/><line class="cls-25" x1="820.59" y1="11.92" x2="561.18" y2="271.33"/><line class="cls-25" x1="829.47" y1="11.92" x2="570.06" y2="271.33"/><line class="cls-25" x1="838.35" y1="11.92" x2="578.94" y2="271.33"/><line class="cls-25" x1="847.23" y1="11.92" x2="587.82" y2="271.33"/><line class="cls-25" x1="856.11" y1="11.92" x2="596.7" y2="271.33"/><line class="cls-25" x1="864.99" y1="11.92" x2="605.58" y2="271.33"/><line class="cls-25" x1="873.86" y1="11.92" x2="614.45" y2="271.33"/><line class="cls-25" x1="882.74" y1="11.92" x2="623.33" y2="271.33"/><line class="cls-25" x1="891.62" y1="11.92" x2="632.21" y2="271.33"/><line class="cls-25" x1="900.5" y1="11.92" x2="641.09" y2="271.33"/><line class="cls-25" x1="909.38" y1="11.92" x2="649.97" y2="271.33"/><line class="cls-25" x1="918.26" y1="11.92" x2="658.85" y2="271.33"/><line class="cls-25" x1="927.13" y1="11.92" x2="667.72" y2="271.33"/><line class="cls-25" x1="936.01" y1="11.92" x2="676.6" y2="271.33"/><line class="cls-25" x1="944.89" y1="11.92" x2="685.48" y2="271.33"/><line class="cls-25" x1="953.77" y1="11.92" x2="694.36" y2="271.33"/><line class="cls-25" x1="962.65" y1="11.92" x2="703.24" y2="271.33"/><line class="cls-25" x1="971.53" y1="11.92" x2="712.12" y2="271.33"/><line class="cls-25" x1="980.4" y1="11.92" x2="720.99" y2="271.33"/><line class="cls-25" x1="989.28" y1="11.92" x2="729.87" y2="271.33"/><line class="cls-25" x1="998.16" y1="11.92" x2="738.75" y2="271.33"/><line class="cls-25" x1="1007.04" y1="11.92" x2="747.63" y2="271.33"/><line class="cls-25" x1="1015.92" y1="11.92" x2="756.51" y2="271.33"/><line class="cls-25" x1="1024.8" y1="11.92" x2="765.39" y2="271.33"/><line class="cls-25" x1="1033.67" y1="11.92" x2="774.27" y2="271.33"/><line class="cls-25" x1="1042.55" y1="11.92" x2="783.14" y2="271.33"/><line class="cls-25" x1="1051.43" y1="11.92" x2="792.02" y2="271.33"/><line class="cls-25" x1="1060.31" y1="11.92" x2="800.9" y2="271.33"/><line class="cls-25" x1="1069.19" y1="11.92" x2="809.78" y2="271.33"/><line class="cls-25" x1="1078.07" y1="11.92" x2="818.66" y2="271.33"/><line class="cls-25" x1="1086.94" y1="11.92" x2="827.54" y2="271.33"/><line class="cls-25" x1="1095.82" y1="11.92" x2="836.41" y2="271.33"/><line class="cls-25" x1="1104.7" y1="11.92" x2="845.29" y2="271.33"/><line class="cls-25" x1="1113.58" y1="11.92" x2="854.17" y2="271.33"/><line class="cls-25" x1="1122.46" y1="11.92" x2="863.05" y2="271.33"/><line class="cls-25" x1="1131.34" y1="11.92" x2="871.93" y2="271.33"/><line class="cls-25" x1="1140.21" y1="11.92" x2="880.81" y2="271.33"/><line class="cls-25" x1="1149.09" y1="11.92" x2="889.68" y2="271.33"/><line class="cls-25" x1="1157.97" y1="11.92" x2="898.56" y2="271.33"/><line class="cls-25" x1="1166.85" y1="11.92" x2="907.44" y2="271.33"/><line class="cls-25" x1="1175.73" y1="11.92" x2="916.32" y2="271.33"/><line class="cls-25" x1="1184.61" y1="11.92" x2="925.2" y2="271.33"/><line class="cls-25" x1="1193.48" y1="11.92" x2="934.08" y2="271.33"/><line class="cls-25" x1="1202.36" y1="11.92" x2="942.95" y2="271.33"/><line class="cls-25" x1="1211.24" y1="11.92" x2="951.83" y2="271.33"/><line class="cls-25" x1="1220.12" y1="11.92" x2="960.71" y2="271.33"/><line class="cls-25" x1="1229" y1="11.92" x2="969.59" y2="271.33"/><line class="cls-25" x1="1237.88" y1="11.92" x2="978.47" y2="271.33"/><line class="cls-25" x1="1246.75" y1="11.92" x2="987.35" y2="271.33"/><line class="cls-25" x1="1255.63" y1="11.92" x2="996.22" y2="271.33"/><line class="cls-25" x1="1264.51" y1="11.92" x2="1005.1" y2="271.33"/><line class="cls-25" x1="1273.39" y1="11.92" x2="1013.98" y2="271.33"/><line class="cls-25" x1="1282.27" y1="11.92" x2="1022.86" y2="271.33"/></g></g><polygon class="cls-4" points="137.73 145.04 127.41 139.08 127.41 151 137.73 145.04"/><polygon class="cls-5" points="148.93 144.8 138.61 138.84 138.61 150.76 148.93 144.8"/><polygon class="cls-4" points="160.13 144.55 149.81 138.59 149.81 150.51 160.13 144.55"/><circle class="cls-26" cx="776.16" cy="52.84" r="4.56" transform="matrix(1, -0.02, 0.02, 1, -0.83, 14.09)"/><path class="cls-27" d="M851.19,52.85a37.55,37.55,0,1,1-75.09,1.44"/><circle class="cls-26" cx="851.99" cy="52.84" r="4.56" transform="translate(-0.82 15.47) rotate(-1.04)"/><circle class="cls-15" cx="131.98" cy="33.04" r="4.83" transform="translate(16.58 105.11) rotate(-46.04)"/><path class="cls-28" d="M189.14,88.16A39.74,39.74,0,0,1,131.87,33"/><circle class="cls-15" cx="189.74" cy="88.74" r="4.83" transform="translate(-5.85 163.72) rotate(-46.04)"/><path class="cls-16" d="M216.06,8.53l-26.34.16h-1.23l-26.71.16.48,78,24.82-20a3.82,3.82,0,0,1,4.78,0l24.68,19.66Z"/><circle class="cls-29" cx="189.14" cy="-20.48" r="48.83" transform="translate(0.13 1.16) rotate(-0.35)"/><path class="cls-30" d="M147.37-7.06a43.59,43.59,0,0,0,41.81,30.4A43.59,43.59,0,0,0,230.45-7"/><path class="cls-30" d="M152.69-4.67A39.59,39.59,0,0,0,169.35,14a39.72,39.72,0,0,0,9.33,3.85,39.62,39.62,0,0,0,9.72,1.38h1.23a39.5,39.5,0,0,0,19.47-5.48A39.41,39.41,0,0,0,225.54-5.12"/><path class="cls-16" d="M155.72-15s-.83,13.47,14.57,26.88"/><path class="cls-12" d="M107.88,20.12c-.4.7-.83,1.39-1.27,2.07A55.09,55.09,0,0,1,30.46,38.68,55.11,55.11,0,0,1,6-17.09"/><path class="cls-12" d="M104.11,17.89A49.87,49.87,0,0,1,94,30.26a50.05,50.05,0,0,1-54.76,7.86"/><path class="cls-12" d="M33.24,34.87A49.78,49.78,0,0,1,25.15,28"/><path class="cls-12" d="M21,23.75S13.12,14.44,11.37,2"/><path class="cls-12" d="M782.26,17c-.4.7-.83,1.39-1.27,2.07a55.09,55.09,0,0,1-76.15,16.49,55.11,55.11,0,0,1-24.45-55.78"/><path class="cls-12" d="M778.49,14.76a49.87,49.87,0,0,1-10.07,12.36A50.05,50.05,0,0,1,713.66,35"/><path class="cls-12" d="M707.63,31.74a49.78,49.78,0,0,1-8.09-6.89"/><path class="cls-12" d="M695.41,20.62s-7.9-9.3-9.65-21.76"/><path class="cls-6" d="M56,111.07a10.7,10.7,0,1,1-.09-15.23A10.7,10.7,0,0,1,56,111.07Z"/><rect class="cls-5" x="2.1" y="33.82" width="17.35" height="64.19" transform="translate(-43.45 26.92) rotate(-45)"/><path class="cls-4" d="M66.66,39.1l-49-41.68,26.1-30.71,9,7.64-18,21.16L45.93,5,62.22-14.11l8.51,7.23L54.44,12.28l11.34,9.64L83.77.75l9,7.64Z"/><rect class="cls-22" x="233.65" y="15.27" width="11.8" height="11.8"/><rect class="cls-31" x="245.45" y="27.07" width="11.8" height="11.8"/><polygon class="cls-32" points="833.89 17.56 833.89 -48.79 806.65 17.56 792.14 17.56 764.91 -48.26 764.91 17.56 748.43 17.56 748.43 -74.21 771.56 -74.21 799.6 -6.8 826.98 -74.21 850.89 -74.21 850.89 17.56 833.89 17.56"/><path class="cls-10" d="M850.52-73.84v91H834.26V-50.67l-1.42,3.47L806.41,17.19h-14L766-46.68l-1.42-3.44v67.3H748.8v-91h22.51l27.6,66.35.69,1.66.68-1.67,27-66.34h23.29m.74-.74H826.73L799.6-7.78,771.8-74.58H748.06v92.5h17.22V-46.4L791.9,17.93h15l26.62-64.84V17.93h17.74v-92.5Z"/><path class="cls-15" d="M986,103.38H948.42l-7.7,21.14h-19L957.16,32H978l35.23,92.5H993.69ZM954.42,86.94H980L967.21,52Z"/><circle class="cls-16" cx="992.34" cy="93.23" r="5.26"/><circle class="cls-4" cx="1011.81" cy="111.74" r="5.26"/><line class="cls-33" x1="988.32" y1="116.32" x2="1016.37" y2="88.17"/><circle class="cls-16" cx="992.61" cy="57.58" r="5.26"/><circle class="cls-4" cx="1012.08" cy="76.09" r="5.26"/><line class="cls-33" x1="988.59" y1="80.67" x2="1016.64" y2="52.51"/><circle class="cls-16" cx="992.88" cy="21.92" r="5.26"/><circle class="cls-4" cx="1012.35" cy="40.43" r="5.26"/><line class="cls-33" x1="988.86" y1="45.01" x2="1016.91" y2="16.86"/><rect class="cls-1" x="-1" y="-0.35" width="1170.33" height="170.7"/><path class="cls-34" d="M647.43,106.55a42.83,42.83,0,1,1-85.65,1.64"/><circle class="cls-16" cx="648.33" cy="106.54" r="5.21" transform="translate(-1.83 11.78) rotate(-1.04)"/><circle class="cls-6" cx="561.85" cy="108.1" r="5.21" transform="translate(-1.87 10.21) rotate(-1.04)"/><path class="cls-9" d="M472.22,36.7a1.84,1.84,0,1,1-1.84,1.86A1.84,1.84,0,0,1,472.22,36.7Zm-1.48,16.5v-11h3v11Z"/><path class="cls-9" d="M480.22,47.22v6h-3.09V37.31h5.94a4.87,4.87,0,0,1,5.22,5c0,2.89-2.09,5-5.22,5Zm2.47-2.67a2.28,2.28,0,1,0,0-4.55h-2.44v4.55Z"/><path class="cls-9" d="M496.94,45.13A4.48,4.48,0,0,0,496,45c-1.52,0-2.85.74-2.85,3.12v5h-3v-11h2.89v1.64a3.28,3.28,0,0,1,3.14-1.73,6.84,6.84,0,0,1,.69,0Z"/><path class="cls-9" d="M500.53,36.7a1.84,1.84,0,1,1-1.84,1.86A1.84,1.84,0,0,1,500.53,36.7ZM499,53.2v-11h3v11Z"/><path class="cls-9" d="M507.36,47.69a2.84,2.84,0,0,0,2.83,3.12,2.52,2.52,0,0,0,2.53-1.86l2.62.87a5.12,5.12,0,0,1-5.16,3.72,5.71,5.71,0,0,1-5.81-5.85,5.65,5.65,0,0,1,5.72-5.85,5,5,0,0,1,5.18,3.72l-2.67.9a2.41,2.41,0,0,0-2.44-1.86A2.8,2.8,0,0,0,507.36,47.69Z"/><path class="cls-9" d="M527.31,50a5,5,0,0,1-5,3.5,5.59,5.59,0,0,1-5.69-5.9A5.54,5.54,0,0,1,522,41.83c3.41,0,5.45,2.17,5.45,5.72,0,.43,0,.87,0,.92h-7.89A2.69,2.69,0,0,0,522.31,51a2.44,2.44,0,0,0,2.51-1.68Zm-2.78-3.61a2.22,2.22,0,0,0-2.47-2.17,2.39,2.39,0,0,0-2.47,2.17Z"/><path class="cls-9" d="M545.18,72.92V57h10v2.91h-6.86v3.63h6.21v2.76h-6.21V70h6.86v2.91Z"/><path class="cls-9" d="M557.37,67.58V64.93h6.5v2.65Z"/><path class="cls-9" d="M565.75,65a8,8,0,0,1,8.09-8.29c4.39,0,6.66,2.69,7.29,5.27l-2.91.92a4.16,4.16,0,0,0-4.37-3.21c-2.38,0-4.89,1.7-4.89,5.31a4.9,4.9,0,0,0,4.93,5.25A4.42,4.42,0,0,0,578.35,67l2.89.87a7.23,7.23,0,0,1-7.35,5.4A7.94,7.94,0,0,1,565.75,65Z"/><path class="cls-9" d="M593.95,67.4a5.78,5.78,0,1,1-5.78-5.85A5.66,5.66,0,0,1,593.95,67.4Zm-3,0a2.82,2.82,0,1,0-2.8,3.14A2.83,2.83,0,0,0,591,67.4Z"/><path class="cls-9" d="M596.3,72.92v-11h2.85v1.35a3.79,3.79,0,0,1,3.23-1.66,3.41,3.41,0,0,1,3.27,1.84,4.08,4.08,0,0,1,7.49,2.35v7.15h-2.89V66.37a1.84,1.84,0,0,0-2-2.09,2,2,0,0,0-2,2.17v6.46h-3V66.37a1.85,1.85,0,0,0-2-2.09,2,2,0,0,0-2.06,2.17v6.46Z"/><path class="cls-9" d="M616.16,72.92v-11H619v1.35a3.79,3.79,0,0,1,3.23-1.66,3.41,3.41,0,0,1,3.27,1.84A4.08,4.08,0,0,1,633,65.76v7.15H630.1V66.37a1.84,1.84,0,0,0-2-2.09,2,2,0,0,0-2,2.17v6.46h-3V66.37a1.85,1.85,0,0,0-2-2.09,2,2,0,0,0-2.06,2.17v6.46Z"/><path class="cls-9" d="M645.9,69.75a5,5,0,0,1-5,3.5,5.86,5.86,0,0,1-.27-11.7c3.41,0,5.45,2.17,5.45,5.72,0,.43,0,.87,0,.92h-7.89a2.69,2.69,0,0,0,2.78,2.51A2.44,2.44,0,0,0,643.41,69Zm-2.78-3.61A2.22,2.22,0,0,0,640.66,64a2.39,2.39,0,0,0-2.47,2.17Z"/><path class="cls-9" d="M655.13,64.85a4.48,4.48,0,0,0-.9-.09c-1.52,0-2.85.74-2.85,3.12v5h-3v-11h2.89v1.64a3.28,3.28,0,0,1,3.14-1.73,6.83,6.83,0,0,1,.69,0Z"/><path class="cls-9" d="M659.28,67.4a2.84,2.84,0,0,0,2.83,3.12,2.52,2.52,0,0,0,2.53-1.86l2.62.87a5.12,5.12,0,0,1-5.16,3.72,5.71,5.71,0,0,1-5.81-5.85A5.65,5.65,0,0,1,662,61.55a5,5,0,0,1,5.18,3.72l-2.67.9a2.41,2.41,0,0,0-2.44-1.86A2.8,2.8,0,0,0,659.28,67.4Z"/><path class="cls-9" d="M679.23,69.75a5,5,0,0,1-5,3.5,5.86,5.86,0,0,1-.27-11.7c3.41,0,5.45,2.17,5.45,5.72,0,.43,0,.87,0,.92h-7.89a2.69,2.69,0,0,0,2.78,2.51A2.44,2.44,0,0,0,676.74,69Zm-2.78-3.61A2.22,2.22,0,0,0,674,64a2.39,2.39,0,0,0-2.47,2.17Z"/><path class="cls-9" d="M594.87,92.63V81.49L590.3,92.63h-2.58l-4.57-11.05V92.63h-3V76.74h4.08L589,88.21l4.66-11.48h4.21V92.63Z"/><path class="cls-9" d="M611.14,89.47a5,5,0,0,1-5,3.5,5.86,5.86,0,0,1-.27-11.7c3.41,0,5.45,2.17,5.45,5.72,0,.43,0,.87,0,.92h-7.89a2.69,2.69,0,0,0,2.78,2.51,2.44,2.44,0,0,0,2.51-1.68Zm-2.78-3.61a2.22,2.22,0,0,0-2.47-2.17,2.39,2.39,0,0,0-2.47,2.17Z"/><path class="cls-9" d="M620.38,84.56a4.48,4.48,0,0,0-.9-.09c-1.52,0-2.85.74-2.85,3.12v5h-3v-11h2.89v1.64a3.28,3.28,0,0,1,3.14-1.73,6.83,6.83,0,0,1,.69,0Z"/><path class="cls-9" d="M624.52,87.12a2.84,2.84,0,0,0,2.83,3.12,2.52,2.52,0,0,0,2.53-1.86l2.62.87A5.12,5.12,0,0,1,627.34,93a5.71,5.71,0,0,1-5.81-5.85,5.65,5.65,0,0,1,5.72-5.85A5,5,0,0,1,632.43,85l-2.67.9A2.41,2.41,0,0,0,627.32,84,2.81,2.81,0,0,0,624.52,87.12Z"/><path class="cls-9" d="M637.68,92.63h-3V76.4h3v6.12a3.94,3.94,0,0,1,3-1.21c2.8,0,4.1,2,4.1,4.37v6.95h-3V86.2a1.94,1.94,0,0,0-2-2.2,2.06,2.06,0,0,0-2.06,2.15Z"/><path class="cls-9" d="M650.41,86.29l2.71-.4c.63-.09.83-.4.83-.78,0-.79-.61-1.43-1.86-1.43A2,2,0,0,0,650,85.46l-2.65-.56c.18-1.73,1.77-3.63,4.73-3.63,3.5,0,4.8,2,4.8,4.19v5.42a12.32,12.32,0,0,0,.13,1.75h-2.74a7.51,7.51,0,0,1-.11-1.32,3.69,3.69,0,0,1-3.25,1.64,3.48,3.48,0,0,1-3.79-3.32C647.11,87.65,648.57,86.55,650.41,86.29Zm3.54,1.88v-.49l-2.49.38a1.39,1.39,0,0,0-1.37,1.39,1.29,1.29,0,0,0,1.43,1.28A2.24,2.24,0,0,0,653.95,88.17Z"/><path class="cls-9" d="M662.85,92.63h-3v-11h2.89V83a3.67,3.67,0,0,1,3.18-1.66c2.74,0,4,2,4,4.37v6.95h-3V86.2a1.94,1.94,0,0,0-2-2.2,2.08,2.08,0,0,0-2.06,2.29Z"/><path class="cls-9" d="M676.63,81.6h2.22v2.65h-2.22v4.62c0,1,.45,1.28,1.3,1.28a4.29,4.29,0,0,0,.92-.09v2.47a4.42,4.42,0,0,1-1.68.27,3.19,3.19,0,0,1-3.5-3.41V84.25h-2V81.6h.56a1.59,1.59,0,0,0,1.7-1.75V78.3h2.69Z"/><path class="cls-9" d="M477.13,108.71h-6.46l-1.32,3.63h-3.27l6.1-15.89h3.59l6.05,15.89h-3.36Zm-5.43-2.83h4.39l-2.2-6Z"/><path class="cls-9" d="M492.35,101.32l2.38,7.11,2-7.11h3l-3.45,11h-3l-2.58-7.53-2.53,7.53h-3l-3.52-11h3.14l2,7.08,2.4-7.08Z"/><path class="cls-9" d="M504.16,106l2.71-.4c.63-.09.83-.4.83-.78,0-.78-.61-1.43-1.86-1.43a2,2,0,0,0-2.11,1.79l-2.65-.56c.18-1.73,1.77-3.63,4.73-3.63,3.5,0,4.8,2,4.8,4.19v5.42a12.33,12.33,0,0,0,.13,1.75H508a7.51,7.51,0,0,1-.11-1.32,3.69,3.69,0,0,1-3.25,1.64,3.48,3.48,0,0,1-3.79-3.32C500.87,107.37,502.32,106.27,504.16,106Zm3.54,1.88v-.49l-2.49.38a1.39,1.39,0,0,0-1.37,1.39,1.29,1.29,0,0,0,1.43,1.28A2.24,2.24,0,0,0,507.7,107.88Z"/><path class="cls-9" d="M520.34,104.27a4.52,4.52,0,0,0-.9-.09c-1.52,0-2.85.74-2.85,3.12v5h-3v-11h2.89V103a3.28,3.28,0,0,1,3.14-1.73,6.83,6.83,0,0,1,.69,0Z"/><path class="cls-9" d="M532.85,110.35c0,.74,0,1.55.09,2h-2.85a7.59,7.59,0,0,1-.11-1.28,3.46,3.46,0,0,1-3.09,1.55c-3.14,0-5.38-2.47-5.38-5.81s2.17-5.76,5.29-5.76c1.91,0,2.8.79,3.12,1.37v-6.3h2.94Zm-5.6-.4c1.52,0,2.71-1.17,2.71-3.16s-1.19-3.07-2.71-3.07-2.74,1.12-2.74,3.09S525.68,109.95,527.25,109.95Z"/><path class="cls-9" d="M537.69,108.71a1.83,1.83,0,0,0,2,1.68c1,0,1.46-.52,1.46-1.1s-.34-.9-1.19-1.08l-1.46-.34c-2.13-.47-3.09-1.75-3.09-3.3a3.85,3.85,0,0,1,4.12-3.61c3.14,0,4.19,2,4.33,3.18l-2.49.56a1.68,1.68,0,0,0-1.82-1.48,1.27,1.27,0,0,0-1.41,1.1c0,.54.4.87,1,1l1.57.34c2.17.45,3.27,1.77,3.27,3.38,0,1.79-1.39,3.63-4.28,3.63-3.32,0-4.46-2.15-4.6-3.41Z"/><path class="cls-9" d="M615.48,103.33a5.45,5.45,0,0,1-.11-1c0-2.56,1.93-4.86,5.31-4.86s5.25,2.15,5.25,4.69a5.22,5.22,0,0,1-2.82,4.51l-2.8,1.7a3,3,0,0,0-1.26,1.32h7v2.67H615.26a6.64,6.64,0,0,1,3.43-6.21l2.4-1.43a2.84,2.84,0,0,0,1.73-2.51,2,2,0,0,0-2.2-2,2.2,2.2,0,0,0-2.31,2.42,3.18,3.18,0,0,0,.11.81Z"/><path class="cls-9" d="M628.91,99.9a5.5,5.5,0,0,1,4.8-2.44,5.43,5.43,0,0,1,4.78,2.44,11,11,0,0,1,0,10.36,5.43,5.43,0,0,1-4.78,2.44,5.5,5.5,0,0,1-4.8-2.44,11.13,11.13,0,0,1,0-10.36Zm2.6,8.88a2.43,2.43,0,0,0,2.2,1.19,2.37,2.37,0,0,0,2.17-1.19,8.88,8.88,0,0,0,0-7.4,2.37,2.37,0,0,0-2.17-1.19,2.43,2.43,0,0,0-2.2,1.19,9.11,9.11,0,0,0,0,7.4Z"/><path class="cls-9" d="M661.5,112.34v-9.73H658v-2.09c2.13,0,3.61-1.21,3.9-2.73h2.67v14.55Z"/><path class="cls-9" d="M677.66,100.37a17.39,17.39,0,0,0-5.83,12h-3.21a18,18,0,0,1,5.47-11.88h-7.49V97.8h11.05Z"/><path class="cls-16" d="M410.8,79.57H365.67v64.88L386.41,128a3.18,3.18,0,0,1,4,0l20.42,16.47Z"/><circle class="cls-35" cx="388.56" cy="55.31" r="40.6"/><path class="cls-36" d="M352.71,57.13c0-.53,0-1.06,0-1.6a36.23,36.23,0,0,1,69.6-14.1"/><path class="cls-36" d="M353.76,66.26a36.24,36.24,0,0,0,69.07.46"/><path class="cls-35" d="M358.18,68.27a33,33,0,0,0,29.56,20h1a32.93,32.93,0,0,0,30-20"/><path class="cls-35" d="M355.59,57a33,33,0,0,1,28.64-34.26"/><path class="cls-35" d="M414.68,35.51A32.91,32.91,0,0,1,421.33,57"/><path class="cls-35" d="M388.71,22.41a32.73,32.73,0,0,1,6.93.93"/><line class="cls-37" x1="375.44" y1="72.09" x2="365.91" y2="72.09"/><line class="cls-38" x1="412.42" y1="72.38" x2="403.1" y2="72.38"/><text class="cls-39" transform="translate(376.54 74.27)"><tspan class="cls-40">M</tspan><tspan x="5.85" y="0">a</tspan><tspan class="cls-41" x="9.17" y="0">l</tspan><tspan class="cls-42" x="10.85" y="0">a</tspan><tspan class="cls-43" x="14.09" y="0">y</tspan><tspan x="17.49" y="0">sia</tspan></text><text class="cls-44" transform="translate(363.96 52.19)">iEMA<tspan class="cls-45"><tspan x="-1.87" y="6.28" xml:space="preserve">   </tspan><tspan class="cls-46" x="0.93" y="6.28">i</tspan><tspan class="cls-47" x="2.44" y="6.28">P</tspan><tspan class="cls-48" x="5.69" y="6.28">r</tspan><tspan class="cls-46" x="7.85" y="6.28">i</tspan><tspan class="cls-49" x="9.35" y="6.28">c</tspan><tspan class="cls-46" x="12.33" y="6.28">e </tspan><tspan class="cls-50" x="16.71" y="6.28">E</tspan><tspan class="cls-46" x="19.88" y="6.28">-</tspan><tspan class="cls-51" x="21.96" y="6.28">C</tspan><tspan class="cls-46" x="26.05" y="6.28">omme</tspan><tspan class="cls-50" x="41.97" y="6.28">r</tspan><tspan class="cls-52" x="44.1" y="6.28">c</tspan><tspan class="cls-53" x="47.08" y="6.28">e </tspan></tspan><tspan class="cls-54"><tspan class="cls-55" x="-4.44" y="12.57">M</tspan><tspan x="0.76" y="12.57">e</tspan><tspan class="cls-56" x="3.79" y="12.57">r</tspan><tspan x="5.92" y="12.57">chant </tspan><tspan class="cls-57" x="21.66" y="12.57">A</tspan><tspan class="cls-56" x="25.45" y="12.57">w</tspan><tspan x="29.98" y="12.57">a</tspan><tspan class="cls-56" x="32.93" y="12.57">r</tspan><tspan x="35.06" y="12.57">ds</tspan><tspan class="cls-58" x="40.94" y="12.57"> </tspan><tspan class="cls-59" x="42.29" y="12.57">2</tspan><tspan class="cls-60" x="45.26" y="12.57">0</tspan><tspan class="cls-61" x="48.62" y="12.57">1</tspan><tspan class="cls-59" x="50.85" y="12.57">6</tspan></tspan></text><path class="cls-35" d="M352.67,60.49s-.76,11.19,12,22.42"/><path class="cls-35" d="M423.13,44.27s4.18,13.71-1.76,26.2"/><path class="cls-62" d="M399.43,24.2a31.32,31.32,0,0,1,13.08,8.59"/><path class="cls-16" d="M410.72,79.83H365.3v65.3l20.87-16.59a3.2,3.2,0,0,1,4,0l20.55,16.58Z"/><circle class="cls-63" cx="388.33" cy="55.41" r="40.87"/><path class="cls-64" d="M352.25,57.24c0-.53,0-1.07,0-1.61a36.46,36.46,0,0,1,70.05-14.19"/><path class="cls-64" d="M353.31,66.44a36.47,36.47,0,0,0,69.52.46"/><path class="cls-63" d="M357.76,68.46a33.2,33.2,0,0,0,29.75,20.16h1a33.15,33.15,0,0,0,30.18-20.17"/><path class="cls-63" d="M355.15,57.13A33.16,33.16,0,0,1,384,22.64"/><path class="cls-63" d="M414.63,35.48a33.12,33.12,0,0,1,6.7,21.65"/><path class="cls-63" d="M388.49,22.29a33,33,0,0,1,7,.94"/><line class="cls-63" x1="375.13" y1="70.28" x2="365.55" y2="70.28"/><line class="cls-63" x1="412.36" y1="70.57" x2="402.97" y2="70.57"/><text class="cls-65" transform="translate(376.24 72.47)"><tspan class="cls-66">M</tspan><tspan x="5.89" y="0">a</tspan><tspan class="cls-67" x="9.23" y="0">l</tspan><tspan class="cls-68" x="10.92" y="0">a</tspan><tspan class="cls-69" x="14.18" y="0">y</tspan><tspan x="17.6" y="0">sia</tspan></text><text class="cls-70" transform="translate(363.58 52.27)">iEMA<tspan class="cls-71"><tspan x="12.65" y="11.08">2</tspan><tspan class="cls-72" x="19.11" y="11.08">0</tspan><tspan class="cls-73" x="26.4" y="11.08">1</tspan><tspan x="31.28" y="11.08">7</tspan></tspan></text><path class="cls-63" d="M352.22,60.62s-.77,11.27,12.05,22.57"/><path class="cls-63" d="M423.14,44.3s4.21,13.8-1.77,26.37"/><path class="cls-74" d="M399.28,24.1a31.52,31.52,0,0,1,13.17,8.65"/></g></svg>