<svg id="Layer_1" data-name="Layer 1" xmlns="http://www.w3.org/2000/svg" xmlns:xlink="http://www.w3.org/1999/xlink" viewBox="0 0 360 561.25"><defs><style>.cls-1,.cls-12,.cls-15,.cls-18,.cls-21,.cls-5,.cls-8,.cls-9{fill:none;}.cls-2{clip-path:url(#clip-path);}.cls-3{fill:#f7f7f7;}.cls-19,.cls-20,.cls-4{fill:#fff;}.cls-12,.cls-15,.cls-5,.cls-9{stroke:#fff;}.cls-15,.cls-18,.cls-5,.cls-8,.cls-9{stroke-miterlimit:10;}.cls-5{stroke-width:0.74px;}.cls-6{fill:#3cc;}.cls-7{fill:#086a87;}.cls-18,.cls-20,.cls-8{stroke:#086a87;}.cls-8{stroke-width:0.64px;}.cls-9{stroke-width:0.39px;}.cls-10{fill:#f63;}.cls-11{clip-path:url(#clip-path-2);}.cls-12,.cls-19,.cls-20,.cls-21{stroke-linecap:round;stroke-linejoin:round;}.cls-12{stroke-width:1.27px;}.cls-13{clip-path:url(#clip-path-3);}.cls-14{clip-path:url(#clip-path-4);}.cls-15{stroke-width:0.55px;}.cls-16{opacity:0.09;}.cls-17{clip-path:url(#clip-path-5);}.cls-18{stroke-width:0.35px;}.cls-19,.cls-21{stroke:#3cc;}.cls-19{stroke-width:0.69px;}.cls-20{stroke-width:0.67px;}.cls-21{stroke-width:0.7px;}.cls-22{clip-path:url(#clip-path-6);}.cls-23{clip-path:url(#clip-path-7);}.cls-24{clip-path:url(#clip-path-8);}</style><clipPath id="clip-path"><rect class="cls-1" width="360" height="561.43"/></clipPath><clipPath id="clip-path-2"><circle class="cls-1" cx="238.66" cy="566.45" r="82.48"/></clipPath><clipPath id="clip-path-3"><path class="cls-1" d="M292.3,561.13a76.84,76.84,0,1,1,153.67,0Z"/></clipPath><clipPath id="clip-path-4"><rect class="cls-1" x="-92" y="406.33" width="553.94" height="176.16"/></clipPath><clipPath id="clip-path-5"><path class="cls-1" d="M139.24-28.28s23.38,4.18,27.3,25.05-7.4,42,21.07,32.81S202,57.13,196.18,57.13s-5.81,12.24,0,9.18,12.44-2.76,8.57,9.18c-3,9.18,67.11,10.72,111.62-20.37a71.86,71.86,0,0,0,30.5-59V-30.19H138.94Z"/></clipPath><clipPath id="clip-path-6"><rect class="cls-1" x="-1203.5" y="-27.5" width="1024" height="300"/></clipPath><clipPath id="clip-path-7"><path class="cls-1" d="M-290.21,274.7a76.84,76.84,0,0,1,76.84-76.84,76.84,76.84,0,0,1,76.84,76.84Z"/></clipPath><clipPath id="clip-path-8"><rect class="cls-1" x="-674.51" y="119.89" width="553.94" height="176.16"/></clipPath></defs><title>iema_header_desktop</title><g class="cls-2"><rect class="cls-3" width="360" height="561.43"/><polygon class="cls-4" points="249.1 369.07 240.94 383.21 257.26 383.21 249.1 369.07"/><polygon class="cls-4" points="248.76 353.73 240.6 367.87 256.92 367.87 248.76 353.73"/><polygon class="cls-5" points="248.43 338.39 240.26 352.52 256.59 352.52 248.43 338.39"/><polygon class="cls-4" points="271.38 354.39 263.22 368.53 279.54 368.53 271.38 354.39"/><polygon class="cls-5" points="271.04 339.05 262.88 353.19 279.2 353.19 271.04 339.05"/><polygon class="cls-4" points="270.7 323.71 262.54 337.84 278.87 337.84 270.7 323.71"/><rect class="cls-6" x="-130.19" y="335" width="7.55" height="342.6" transform="translate(330.25 253.75) rotate(47.04)"/><rect class="cls-4" x="-125.04" y="340.53" width="7.55" height="342.6" transform="translate(335.93 251.75) rotate(47.04)"/><rect class="cls-6" x="-119.9" y="346.05" width="7.55" height="342.6" transform="translate(341.61 249.74) rotate(47.04)"/><rect class="cls-4" x="-114.75" y="351.58" width="7.55" height="342.6" transform="translate(347.3 247.74) rotate(47.04)"/><rect class="cls-6" x="-109.6" y="357.1" width="7.55" height="342.6" transform="translate(352.98 245.73) rotate(47.04)"/><rect class="cls-4" x="-104.46" y="362.63" width="7.55" height="342.6" transform="translate(358.66 243.72) rotate(47.04)"/><rect class="cls-6" x="-99.31" y="368.16" width="7.55" height="342.6" transform="translate(364.35 241.72) rotate(47.04)"/><rect class="cls-4" x="-94.16" y="373.68" width="7.55" height="342.6" transform="translate(370.03 239.71) rotate(47.04)"/><rect class="cls-6" x="-89.02" y="379.21" width="7.55" height="342.6" transform="translate(375.71 237.7) rotate(47.04)"/><rect class="cls-4" x="-83.87" y="384.74" width="7.55" height="342.6" transform="translate(381.4 235.7) rotate(47.04)"/><rect class="cls-6" x="-78.72" y="390.26" width="7.55" height="342.6" transform="translate(387.08 233.69) rotate(47.04)"/><rect class="cls-4" x="-73.58" y="395.79" width="7.55" height="342.6" transform="translate(392.76 231.69) rotate(47.04)"/><rect class="cls-6" x="-68.43" y="401.31" width="7.55" height="342.6" transform="translate(398.45 229.68) rotate(47.04)"/><rect class="cls-4" x="-63.28" y="406.84" width="7.55" height="342.6" transform="translate(404.13 227.67) rotate(47.04)"/><rect class="cls-6" x="-58.14" y="412.37" width="7.55" height="342.6" transform="translate(409.81 225.67) rotate(47.04)"/><rect class="cls-4" x="-52.99" y="417.89" width="7.55" height="342.6" transform="translate(415.5 223.66) rotate(47.04)"/><rect class="cls-6" x="-47.84" y="423.42" width="7.55" height="342.6" transform="translate(421.18 221.65) rotate(47.04)"/><rect class="cls-4" x="-42.7" y="428.95" width="7.55" height="342.6" transform="translate(426.86 219.65) rotate(47.04)"/><rect class="cls-6" x="-37.55" y="434.47" width="7.55" height="342.6" transform="translate(432.55 217.64) rotate(47.04)"/><rect class="cls-4" x="-32.4" y="440" width="7.55" height="342.6" transform="translate(438.23 215.64) rotate(47.04)"/><rect class="cls-6" x="-27.26" y="445.53" width="7.55" height="342.6" transform="translate(443.91 213.63) rotate(47.04)"/><circle class="cls-7" cx="26.52" cy="453.6" r="3.96" transform="translate(-318.4 157.82) rotate(-46.04)"/><path class="cls-8" d="M73.43,498.83a32.61,32.61,0,1,1-47-45.22"/><circle class="cls-7" cx="73.93" cy="499.31" r="3.96" transform="translate(-336.81 205.92) rotate(-46.04)"/><path class="cls-7" d="M125.51-28.86S117,21.4,71.39,30.76C41.31,36.95,56.83,66.4,56.83,66.4s8,24.87-7.39,46.18-9.58,34.49-9.58,34.49,3.44,19-11.37,26.9c-11,5.86-20.61,16-26.93,29.66-4.94,10.69-9.05,23.8-9.05,37.82V-29.9Z"/><path class="cls-9" d="M122.39,34.55c-.4.7-.83,1.39-1.27,2.07A55.1,55.1,0,0,1,20.52-2.66"/><path class="cls-9" d="M118.62,32.32a49.87,49.87,0,0,1-10.07,12.36,50.05,50.05,0,0,1-54.76,7.86"/><path class="cls-9" d="M47.75,49.3a49.78,49.78,0,0,1-8.09-6.89"/><path class="cls-9" d="M35.54,38.18s-7.9-9.3-9.65-21.76"/><path class="cls-4" d="M81.17,53.54l-49-41.68,26.1-30.71,9,7.64L49.24,10l11.2,9.52L76.73.32l8.51,7.23L69,26.71l11.34,9.64,18-21.16,9,7.64Z"/><rect class="cls-6" x="91.15" y="137.73" width="11.8" height="11.8"/><rect class="cls-7" x="102.95" y="149.53" width="11.8" height="11.8"/><rect class="cls-4" x="155.33" y="494.14" width="10.12" height="239.28"/><rect class="cls-4" x="142.82" y="494.14" width="10.12" height="239.28"/><rect class="cls-4" x="130.3" y="494.14" width="10.12" height="239.28"/><rect class="cls-4" x="122.84" y="494.14" width="5.06" height="239.28"/><rect class="cls-4" x="200.32" y="494.14" width="5.06" height="239.28"/><rect class="cls-4" x="271.88" y="494.14" width="5.06" height="239.28"/><rect class="cls-4" x="266.67" y="494.14" width="2.53" height="239.28"/><rect class="cls-4" x="168" y="494.14" width="2.77" height="239.28"/><rect class="cls-4" x="172.31" y="494.14" width="2.77" height="239.28"/><rect class="cls-4" x="176.62" y="494.14" width="2.77" height="239.28"/><rect class="cls-4" x="180.93" y="494.14" width="2.77" height="239.28"/><rect class="cls-4" x="185.24" y="494.14" width="2.77" height="239.28"/><rect class="cls-4" x="189.55" y="494.14" width="2.77" height="239.28"/><rect class="cls-4" x="193.85" y="494.14" width="2.77" height="239.28"/><rect class="cls-4" x="208.35" y="494.14" width="16.48" height="239.28"/><rect class="cls-4" x="227.93" y="494.14" width="16.48" height="239.28"/><rect class="cls-4" x="247.51" y="494.14" width="16.48" height="239.28"/><path class="cls-7" d="M125.51,552.65H405.06V373.87s-38.85,13.28-47.43,72.74c-7.1,49.24-44.89,50.7-57.67,49.75a51.79,51.79,0,0,0-21.3,2.72A48.24,48.24,0,0,0,252.9,520c-8.71,14.61-30.43,10-46.69,3.87a66.11,66.11,0,0,0-79.59,27Z"/><circle id="_Ellipse_" data-name="&lt;Ellipse&gt;" class="cls-10" cx="238.66" cy="566.45" r="82.48"/><g class="cls-11"><line class="cls-12" x1="249.23" y1="516.73" x2="270.48" y2="516.73"/><line class="cls-12" x1="256.32" y1="530.19" x2="277.58" y2="530.19"/><line class="cls-12" x1="259.85" y1="469.63" x2="268.65" y2="488.99"/><line class="cls-12" x1="243.78" y1="525.12" x2="251.97" y2="544.74"/><line class="cls-12" x1="243.78" y1="549.25" x2="251.97" y2="568.87"/><line class="cls-12" x1="239.73" y1="512.66" x2="253.87" y2="496.79"/><line class="cls-12" x1="260.71" y1="497.65" x2="276.58" y2="511.8"/><line class="cls-12" x1="256.32" y1="549.99" x2="272.18" y2="564.14"/><line class="cls-12" x1="281.21" y1="532.84" x2="268.65" y2="549.99"/><line class="cls-12" x1="243.03" y1="495.18" x2="257.18" y2="479.31"/><line class="cls-12" x1="334.73" y1="536.42" x2="313.47" y2="536.42"/><line class="cls-12" x1="332.29" y1="564.57" x2="324.1" y2="544.95"/><line class="cls-12" x1="319.76" y1="563.83" x2="303.89" y2="549.68"/><line class="cls-12" x1="297.08" y1="564.14" x2="281.21" y2="549.99"/><line class="cls-12" x1="294.86" y1="511.49" x2="308.46" y2="495.14"/><line class="cls-12" x1="276.02" y1="495.41" x2="289.61" y2="479.07"/><line class="cls-12" x1="324.1" y1="530.14" x2="337.7" y2="513.8"/><line class="cls-12" x1="307.11" y1="488.02" x2="328.37" y2="488.02"/><line class="cls-12" x1="311.4" y1="469.63" x2="296.37" y2="484.66"/><line class="cls-12" x1="293.26" y1="524.9" x2="314.52" y2="524.9"/><line class="cls-12" x1="307.11" y1="507.82" x2="322.98" y2="521.97"/><line class="cls-12" x1="332.01" y1="490.67" x2="319.44" y2="507.82"/><line class="cls-12" x1="150.48" y1="535.82" x2="171.73" y2="535.82"/><line class="cls-12" x1="157.57" y1="549.27" x2="178.83" y2="549.27"/><line class="cls-12" x1="161.1" y1="488.72" x2="169.9" y2="508.07"/><line class="cls-12" x1="145.03" y1="544.21" x2="153.22" y2="563.83"/><line class="cls-12" x1="140.98" y1="531.75" x2="155.12" y2="515.88"/><line class="cls-12" x1="161.96" y1="516.74" x2="177.83" y2="530.88"/><line class="cls-12" x1="182.46" y1="551.93" x2="169.9" y2="569.08"/><line class="cls-12" x1="144.28" y1="514.26" x2="158.43" y2="498.4"/><line class="cls-12" x1="235.98" y1="555.51" x2="214.72" y2="555.51"/><line class="cls-12" x1="187.43" y1="571.76" x2="201.58" y2="555.89"/><line class="cls-12" x1="196.11" y1="530.57" x2="209.71" y2="514.23"/><line class="cls-12" x1="177.27" y1="514.5" x2="190.86" y2="498.16"/><line class="cls-12" x1="225.35" y1="549.23" x2="238.95" y2="532.89"/><line class="cls-12" x1="208.36" y1="507.11" x2="229.62" y2="507.11"/><line class="cls-12" x1="212.65" y1="488.72" x2="197.62" y2="503.75"/><line class="cls-12" x1="194.51" y1="543.98" x2="215.77" y2="543.98"/><line class="cls-12" x1="208.36" y1="526.91" x2="224.23" y2="541.06"/><line class="cls-12" x1="233.26" y1="509.76" x2="220.69" y2="526.91"/></g><path class="cls-6" d="M273.48,561.16a76.84,76.84,0,0,1,153.67,0Z"/><g class="cls-13"><g class="cls-14"><line class="cls-15" x1="2.78" y1="370.35" x2="-256.63" y2="629.76"/><line class="cls-15" x1="11.66" y1="370.35" x2="-247.75" y2="629.76"/><line class="cls-15" x1="20.54" y1="370.35" x2="-238.87" y2="629.76"/><line class="cls-15" x1="29.42" y1="370.35" x2="-229.99" y2="629.76"/><line class="cls-15" x1="38.29" y1="370.35" x2="-221.11" y2="629.76"/><line class="cls-15" x1="47.17" y1="370.35" x2="-212.24" y2="629.76"/><line class="cls-15" x1="56.05" y1="370.35" x2="-203.36" y2="629.76"/><line class="cls-15" x1="64.93" y1="370.35" x2="-194.48" y2="629.76"/><line class="cls-15" x1="73.81" y1="370.35" x2="-185.6" y2="629.76"/><line class="cls-15" x1="82.69" y1="370.35" x2="-176.72" y2="629.76"/><line class="cls-15" x1="91.56" y1="370.35" x2="-167.84" y2="629.76"/><line class="cls-15" x1="100.44" y1="370.35" x2="-158.97" y2="629.76"/><line class="cls-15" x1="109.32" y1="370.35" x2="-150.09" y2="629.76"/><line class="cls-15" x1="118.2" y1="370.35" x2="-141.21" y2="629.76"/><line class="cls-15" x1="127.08" y1="370.35" x2="-132.33" y2="629.76"/><line class="cls-15" x1="135.96" y1="370.35" x2="-123.45" y2="629.76"/><line class="cls-15" x1="144.83" y1="370.35" x2="-114.57" y2="629.76"/><line class="cls-15" x1="153.71" y1="370.35" x2="-105.7" y2="629.76"/><line class="cls-15" x1="162.59" y1="370.35" x2="-96.82" y2="629.76"/><line class="cls-15" x1="171.47" y1="370.35" x2="-87.94" y2="629.76"/><line class="cls-15" x1="180.35" y1="370.35" x2="-79.06" y2="629.76"/><line class="cls-15" x1="189.23" y1="370.35" x2="-70.18" y2="629.76"/><line class="cls-15" x1="198.1" y1="370.35" x2="-61.3" y2="629.76"/><line class="cls-15" x1="206.98" y1="370.35" x2="-52.43" y2="629.76"/><line class="cls-15" x1="215.86" y1="370.35" x2="-43.55" y2="629.76"/><line class="cls-15" x1="224.74" y1="370.35" x2="-34.67" y2="629.76"/><line class="cls-15" x1="233.62" y1="370.35" x2="-25.79" y2="629.76"/><line class="cls-15" x1="242.5" y1="370.35" x2="-16.91" y2="629.76"/><line class="cls-15" x1="251.37" y1="370.35" x2="-8.03" y2="629.76"/><line class="cls-15" x1="260.25" y1="370.35" x2="0.84" y2="629.76"/><line class="cls-15" x1="269.13" y1="370.35" x2="9.72" y2="629.76"/><line class="cls-15" x1="278.01" y1="370.35" x2="18.6" y2="629.76"/><line class="cls-15" x1="286.89" y1="370.35" x2="27.48" y2="629.76"/><line class="cls-15" x1="295.77" y1="370.35" x2="36.36" y2="629.76"/><line class="cls-15" x1="304.64" y1="370.35" x2="45.24" y2="629.76"/><line class="cls-15" x1="313.52" y1="370.35" x2="54.11" y2="629.76"/><line class="cls-15" x1="322.4" y1="370.35" x2="62.99" y2="629.76"/><line class="cls-15" x1="331.28" y1="370.35" x2="71.87" y2="629.76"/><line class="cls-15" x1="340.16" y1="370.35" x2="80.75" y2="629.76"/><line class="cls-15" x1="349.04" y1="370.35" x2="89.63" y2="629.76"/><line class="cls-15" x1="357.91" y1="370.35" x2="98.51" y2="629.76"/><line class="cls-15" x1="366.79" y1="370.35" x2="107.38" y2="629.76"/><line class="cls-15" x1="375.67" y1="370.35" x2="116.26" y2="629.76"/><line class="cls-15" x1="384.55" y1="370.35" x2="125.14" y2="629.76"/><line class="cls-15" x1="393.43" y1="370.35" x2="134.02" y2="629.76"/><line class="cls-15" x1="402.31" y1="370.35" x2="142.9" y2="629.76"/><line class="cls-15" x1="411.18" y1="370.35" x2="151.78" y2="629.76"/><line class="cls-15" x1="420.06" y1="370.35" x2="160.65" y2="629.76"/><line class="cls-15" x1="428.94" y1="370.35" x2="169.53" y2="629.76"/><line class="cls-15" x1="437.82" y1="370.35" x2="178.41" y2="629.76"/><line class="cls-15" x1="446.7" y1="370.35" x2="187.29" y2="629.76"/><line class="cls-15" x1="455.58" y1="370.35" x2="196.17" y2="629.76"/><line class="cls-15" x1="464.46" y1="370.35" x2="205.05" y2="629.76"/><line class="cls-15" x1="473.33" y1="370.35" x2="213.92" y2="629.76"/><line class="cls-15" x1="482.21" y1="370.35" x2="222.8" y2="629.76"/><line class="cls-15" x1="491.09" y1="370.35" x2="231.68" y2="629.76"/><line class="cls-15" x1="499.97" y1="370.35" x2="240.56" y2="629.76"/><line class="cls-15" x1="508.85" y1="370.35" x2="249.44" y2="629.76"/><line class="cls-15" x1="517.73" y1="370.35" x2="258.32" y2="629.76"/><line class="cls-15" x1="526.6" y1="370.35" x2="267.19" y2="629.76"/><line class="cls-15" x1="535.48" y1="370.35" x2="276.07" y2="629.76"/><line class="cls-15" x1="544.36" y1="370.35" x2="284.95" y2="629.76"/><line class="cls-15" x1="553.24" y1="370.35" x2="293.83" y2="629.76"/><line class="cls-15" x1="562.12" y1="370.35" x2="302.71" y2="629.76"/><line class="cls-15" x1="571" y1="370.35" x2="311.59" y2="629.76"/><line class="cls-15" x1="579.87" y1="370.35" x2="320.46" y2="629.76"/><line class="cls-15" x1="588.75" y1="370.35" x2="329.34" y2="629.76"/><line class="cls-15" x1="597.63" y1="370.35" x2="338.22" y2="629.76"/><line class="cls-15" x1="606.51" y1="370.35" x2="347.1" y2="629.76"/><line class="cls-15" x1="615.39" y1="370.35" x2="355.98" y2="629.76"/></g></g><g class="cls-16"><g class="cls-17"><circle class="cls-6" cx="239.04" cy="2.03" r="2.76"/><circle class="cls-6" cx="247.61" cy="2.03" r="2.76"/><circle class="cls-6" cx="256.18" cy="2.03" r="2.76"/><circle class="cls-6" cx="264.75" cy="2.03" r="2.76"/><circle class="cls-6" cx="273.32" cy="2.03" r="2.76"/><circle class="cls-6" cx="281.89" cy="2.03" r="2.76"/><circle class="cls-6" cx="290.46" cy="2.03" r="2.76"/><circle class="cls-6" cx="299.04" cy="2.03" r="2.76"/><circle class="cls-6" cx="307.61" cy="2.03" r="2.76"/><circle class="cls-6" cx="316.18" cy="2.03" r="2.76"/><circle class="cls-6" cx="324.75" cy="2.03" r="2.76"/><circle class="cls-6" cx="333.32" cy="2.03" r="2.76"/><circle class="cls-6" cx="341.89" cy="2.03" r="2.76"/><circle class="cls-6" cx="239.04" cy="11.21" r="2.76"/><circle class="cls-6" cx="247.61" cy="11.21" r="2.76"/><circle class="cls-6" cx="256.18" cy="11.21" r="2.76"/><circle class="cls-6" cx="264.75" cy="11.21" r="2.76"/><circle class="cls-6" cx="273.32" cy="11.21" r="2.76"/><circle class="cls-6" cx="281.89" cy="11.21" r="2.76"/><circle class="cls-6" cx="290.46" cy="11.21" r="2.76"/><circle class="cls-6" cx="299.04" cy="11.21" r="2.76"/><circle class="cls-6" cx="307.61" cy="11.21" r="2.76"/><circle class="cls-6" cx="316.18" cy="11.21" r="2.76"/><circle class="cls-6" cx="324.75" cy="11.21" r="2.76"/><circle class="cls-6" cx="333.32" cy="11.21" r="2.76"/><circle class="cls-6" cx="341.89" cy="11.21" r="2.76"/><circle class="cls-6" cx="239.04" cy="20.4" r="2.76"/><circle class="cls-6" cx="247.61" cy="20.4" r="2.76"/><circle class="cls-6" cx="256.18" cy="20.4" r="2.76"/><circle class="cls-6" cx="264.75" cy="20.4" r="2.76"/><circle class="cls-6" cx="273.32" cy="20.4" r="2.76"/><circle class="cls-6" cx="281.89" cy="20.4" r="2.76"/><circle class="cls-6" cx="290.46" cy="20.4" r="2.76"/><circle class="cls-6" cx="299.04" cy="20.4" r="2.76"/><circle class="cls-6" cx="307.61" cy="20.4" r="2.76"/><circle class="cls-6" cx="316.18" cy="20.4" r="2.76"/><circle class="cls-6" cx="324.75" cy="20.4" r="2.76"/><circle class="cls-6" cx="333.32" cy="20.4" r="2.76"/><circle class="cls-6" cx="341.89" cy="20.4" r="2.76"/><circle class="cls-6" cx="239.04" cy="29.58" r="2.76"/><circle class="cls-6" cx="247.61" cy="29.58" r="2.76"/><circle class="cls-6" cx="256.18" cy="29.58" r="2.76"/><circle class="cls-6" cx="264.75" cy="29.58" r="2.76"/><circle class="cls-6" cx="273.32" cy="29.58" r="2.76"/><circle class="cls-6" cx="281.89" cy="29.58" r="2.76"/><circle class="cls-6" cx="290.46" cy="29.58" r="2.76"/><circle class="cls-6" cx="299.04" cy="29.58" r="2.76"/><circle class="cls-6" cx="307.61" cy="29.58" r="2.76"/><circle class="cls-6" cx="316.18" cy="29.58" r="2.76"/><circle class="cls-6" cx="324.75" cy="29.58" r="2.76"/><circle class="cls-6" cx="333.32" cy="29.58" r="2.76"/><circle class="cls-6" cx="341.89" cy="29.58" r="2.76"/><circle class="cls-6" cx="239.04" cy="38.76" r="2.76"/><circle class="cls-6" cx="247.61" cy="38.76" r="2.76"/><circle class="cls-6" cx="256.18" cy="38.76" r="2.76"/><circle class="cls-6" cx="264.75" cy="38.76" r="2.76"/><circle class="cls-6" cx="273.32" cy="38.76" r="2.76"/><circle class="cls-6" cx="281.89" cy="38.76" r="2.76"/><circle class="cls-6" cx="290.46" cy="38.76" r="2.76"/><circle class="cls-6" cx="299.04" cy="38.76" r="2.76"/><circle class="cls-6" cx="307.61" cy="38.76" r="2.76"/><circle class="cls-6" cx="316.18" cy="38.76" r="2.76"/><circle class="cls-6" cx="324.75" cy="38.76" r="2.76"/><circle class="cls-6" cx="333.32" cy="38.76" r="2.76"/><circle class="cls-6" cx="341.89" cy="38.76" r="2.76"/><circle class="cls-6" cx="239.04" cy="47.95" r="2.76"/><circle class="cls-6" cx="247.61" cy="47.95" r="2.76"/><circle class="cls-6" cx="256.18" cy="47.95" r="2.76"/><circle class="cls-6" cx="264.75" cy="47.95" r="2.76"/><circle class="cls-6" cx="273.32" cy="47.95" r="2.76"/><circle class="cls-6" cx="281.89" cy="47.95" r="2.76"/><circle class="cls-6" cx="290.46" cy="47.95" r="2.76"/><circle class="cls-6" cx="299.04" cy="47.95" r="2.76"/><circle class="cls-6" cx="307.61" cy="47.95" r="2.76"/><circle class="cls-6" cx="316.18" cy="47.95" r="2.76"/><circle class="cls-6" cx="324.75" cy="47.95" r="2.76"/><circle class="cls-6" cx="333.32" cy="47.95" r="2.76"/><circle class="cls-6" cx="341.89" cy="47.95" r="2.76"/><circle class="cls-6" cx="239.04" cy="57.13" r="2.76"/><circle class="cls-6" cx="247.61" cy="57.13" r="2.76"/><circle class="cls-6" cx="256.18" cy="57.13" r="2.76"/><circle class="cls-6" cx="264.75" cy="57.13" r="2.76"/><circle class="cls-6" cx="273.32" cy="57.13" r="2.76"/><circle class="cls-6" cx="281.89" cy="57.13" r="2.76"/><circle class="cls-6" cx="290.46" cy="57.13" r="2.76"/><circle class="cls-6" cx="299.04" cy="57.13" r="2.76"/><circle class="cls-6" cx="307.61" cy="57.13" r="2.76"/><circle class="cls-6" cx="316.18" cy="57.13" r="2.76"/><circle class="cls-6" cx="324.75" cy="57.13" r="2.76"/><circle class="cls-6" cx="333.32" cy="57.13" r="2.76"/><circle class="cls-6" cx="341.89" cy="57.13" r="2.76"/><circle class="cls-6" cx="239.04" cy="66.32" r="2.76"/><circle class="cls-6" cx="247.61" cy="66.32" r="2.76"/><circle class="cls-6" cx="256.18" cy="66.32" r="2.76"/><circle class="cls-6" cx="264.75" cy="66.32" r="2.76"/><circle class="cls-6" cx="273.32" cy="66.32" r="2.76"/><circle class="cls-6" cx="281.89" cy="66.32" r="2.76"/><circle class="cls-6" cx="290.46" cy="66.32" r="2.76"/><circle class="cls-6" cx="299.04" cy="66.32" r="2.76"/><circle class="cls-6" cx="307.61" cy="66.32" r="2.76"/><circle class="cls-6" cx="316.18" cy="66.32" r="2.76"/><circle class="cls-6" cx="324.75" cy="66.32" r="2.76"/><circle class="cls-6" cx="333.32" cy="66.32" r="2.76"/><circle class="cls-6" cx="341.89" cy="66.32" r="2.76"/><circle class="cls-6" cx="239.04" cy="75.5" r="2.76"/><circle class="cls-6" cx="247.61" cy="75.5" r="2.76"/><circle class="cls-6" cx="256.18" cy="75.5" r="2.76"/><circle class="cls-6" cx="264.75" cy="75.5" r="2.76"/><circle class="cls-6" cx="273.32" cy="75.5" r="2.76"/><circle class="cls-6" cx="281.89" cy="75.5" r="2.76"/><circle class="cls-6" cx="290.46" cy="75.5" r="2.76"/><circle class="cls-6" cx="299.04" cy="75.5" r="2.76"/><circle class="cls-6" cx="307.61" cy="75.5" r="2.76"/><circle class="cls-6" cx="316.18" cy="75.5" r="2.76"/><circle class="cls-6" cx="324.75" cy="75.5" r="2.76"/><circle class="cls-6" cx="333.32" cy="75.5" r="2.76"/><circle class="cls-6" cx="341.89" cy="75.5" r="2.76"/><circle class="cls-6" cx="239.04" cy="84.69" r="2.76"/><circle class="cls-6" cx="247.61" cy="84.69" r="2.76"/><circle class="cls-6" cx="256.18" cy="84.69" r="2.76"/><circle class="cls-6" cx="264.75" cy="84.69" r="2.76"/><circle class="cls-6" cx="273.32" cy="84.69" r="2.76"/><circle class="cls-6" cx="281.89" cy="84.69" r="2.76"/><circle class="cls-6" cx="290.46" cy="84.69" r="2.76"/><circle class="cls-6" cx="299.04" cy="84.69" r="2.76"/><circle class="cls-6" cx="307.61" cy="84.69" r="2.76"/><circle class="cls-6" cx="316.18" cy="84.69" r="2.76"/><circle class="cls-6" cx="324.75" cy="84.69" r="2.76"/><circle class="cls-6" cx="333.32" cy="84.69" r="2.76"/><circle class="cls-6" cx="341.89" cy="84.69" r="2.76"/><circle class="cls-6" cx="136.19" cy="2.03" r="2.76"/><circle class="cls-6" cx="144.76" cy="2.03" r="2.76"/><circle class="cls-6" cx="153.33" cy="2.03" r="2.76"/><circle class="cls-6" cx="161.9" cy="2.03" r="2.76"/><circle class="cls-6" cx="170.47" cy="2.03" r="2.76"/><circle class="cls-6" cx="179.04" cy="2.03" r="2.76"/><circle class="cls-6" cx="187.61" cy="2.03" r="2.76"/><circle class="cls-6" cx="196.18" cy="2.03" r="2.76"/><circle class="cls-6" cx="204.75" cy="2.03" r="2.76"/><circle class="cls-6" cx="213.32" cy="2.03" r="2.76"/><circle class="cls-6" cx="221.9" cy="2.03" r="2.76"/><circle class="cls-6" cx="230.47" cy="2.03" r="2.76"/><circle class="cls-6" cx="239.04" cy="2.03" r="2.76"/><circle class="cls-6" cx="136.19" cy="11.21" r="2.76"/><circle class="cls-6" cx="144.76" cy="11.21" r="2.76"/><circle class="cls-6" cx="153.33" cy="11.21" r="2.76"/><circle class="cls-6" cx="161.9" cy="11.21" r="2.76"/><circle class="cls-6" cx="170.47" cy="11.21" r="2.76"/><circle class="cls-6" cx="179.04" cy="11.21" r="2.76"/><circle class="cls-6" cx="187.61" cy="11.21" r="2.76"/><circle class="cls-6" cx="196.18" cy="11.21" r="2.76"/><circle class="cls-6" cx="204.75" cy="11.21" r="2.76"/><circle class="cls-6" cx="213.32" cy="11.21" r="2.76"/><circle class="cls-6" cx="221.9" cy="11.21" r="2.76"/><circle class="cls-6" cx="230.47" cy="11.21" r="2.76"/><circle class="cls-6" cx="239.04" cy="11.21" r="2.76"/><circle class="cls-6" cx="136.19" cy="20.4" r="2.76"/><circle class="cls-6" cx="144.76" cy="20.4" r="2.76"/><circle class="cls-6" cx="153.33" cy="20.4" r="2.76"/><circle class="cls-6" cx="161.9" cy="20.4" r="2.76"/><circle class="cls-6" cx="170.47" cy="20.4" r="2.76"/><circle class="cls-6" cx="179.04" cy="20.4" r="2.76"/><circle class="cls-6" cx="187.61" cy="20.4" r="2.76"/><circle class="cls-6" cx="196.18" cy="20.4" r="2.76"/><circle class="cls-6" cx="204.75" cy="20.4" r="2.76"/><circle class="cls-6" cx="213.32" cy="20.4" r="2.76"/><circle class="cls-6" cx="221.9" cy="20.4" r="2.76"/><circle class="cls-6" cx="230.47" cy="20.4" r="2.76"/><circle class="cls-6" cx="239.04" cy="20.4" r="2.76"/><circle class="cls-6" cx="136.19" cy="29.58" r="2.76"/><circle class="cls-6" cx="144.76" cy="29.58" r="2.76"/><circle class="cls-6" cx="153.33" cy="29.58" r="2.76"/><circle class="cls-6" cx="161.9" cy="29.58" r="2.76"/><circle class="cls-6" cx="170.47" cy="29.58" r="2.76"/><circle class="cls-6" cx="179.04" cy="29.58" r="2.76"/><circle class="cls-6" cx="187.61" cy="29.58" r="2.76"/><circle class="cls-6" cx="196.18" cy="29.58" r="2.76"/><circle class="cls-6" cx="204.75" cy="29.58" r="2.76"/><circle class="cls-6" cx="213.32" cy="29.58" r="2.76"/><circle class="cls-6" cx="221.9" cy="29.58" r="2.76"/><circle class="cls-6" cx="230.47" cy="29.58" r="2.76"/><circle class="cls-6" cx="239.04" cy="29.58" r="2.76"/><circle class="cls-6" cx="136.19" cy="38.76" r="2.76"/><circle class="cls-6" cx="144.76" cy="38.76" r="2.76"/><circle class="cls-6" cx="153.33" cy="38.76" r="2.76"/><circle class="cls-6" cx="161.9" cy="38.76" r="2.76"/><circle class="cls-6" cx="170.47" cy="38.76" r="2.76"/><circle class="cls-6" cx="179.04" cy="38.76" r="2.76"/><circle class="cls-6" cx="187.61" cy="38.76" r="2.76"/><circle class="cls-6" cx="196.18" cy="38.76" r="2.76"/><circle class="cls-6" cx="204.75" cy="38.76" r="2.76"/><circle class="cls-6" cx="213.32" cy="38.76" r="2.76"/><circle class="cls-6" cx="221.9" cy="38.76" r="2.76"/><circle class="cls-6" cx="230.47" cy="38.76" r="2.76"/><circle class="cls-6" cx="239.04" cy="38.76" r="2.76"/><circle class="cls-6" cx="136.19" cy="47.95" r="2.76"/><circle class="cls-6" cx="144.76" cy="47.95" r="2.76"/><circle class="cls-6" cx="153.33" cy="47.95" r="2.76"/><circle class="cls-6" cx="161.9" cy="47.95" r="2.76"/><circle class="cls-6" cx="170.47" cy="47.95" r="2.76"/><circle class="cls-6" cx="179.04" cy="47.95" r="2.76"/><circle class="cls-6" cx="187.61" cy="47.95" r="2.76"/><circle class="cls-6" cx="196.18" cy="47.95" r="2.76"/><circle class="cls-6" cx="204.75" cy="47.95" r="2.76"/><circle class="cls-6" cx="213.32" cy="47.95" r="2.76"/><circle class="cls-6" cx="221.9" cy="47.95" r="2.76"/><circle class="cls-6" cx="230.47" cy="47.95" r="2.76"/><circle class="cls-6" cx="239.04" cy="47.95" r="2.76"/><circle class="cls-6" cx="136.19" cy="57.13" r="2.76"/><circle class="cls-6" cx="144.76" cy="57.13" r="2.76"/><circle class="cls-6" cx="153.33" cy="57.13" r="2.76"/><circle class="cls-6" cx="161.9" cy="57.13" r="2.76"/><circle class="cls-6" cx="170.47" cy="57.13" r="2.76"/><circle class="cls-6" cx="179.04" cy="57.13" r="2.76"/><circle class="cls-6" cx="187.61" cy="57.13" r="2.76"/><circle class="cls-6" cx="196.18" cy="57.13" r="2.76"/><circle class="cls-6" cx="204.75" cy="57.13" r="2.76"/><circle class="cls-6" cx="213.32" cy="57.13" r="2.76"/><circle class="cls-6" cx="221.9" cy="57.13" r="2.76"/><circle class="cls-6" cx="230.47" cy="57.13" r="2.76"/><circle class="cls-6" cx="239.04" cy="57.13" r="2.76"/><circle class="cls-6" cx="136.19" cy="66.32" r="2.76"/><circle class="cls-6" cx="144.76" cy="66.32" r="2.76"/><circle class="cls-6" cx="153.33" cy="66.32" r="2.76"/><circle class="cls-6" cx="161.9" cy="66.32" r="2.76"/><circle class="cls-6" cx="170.47" cy="66.32" r="2.76"/><circle class="cls-6" cx="179.04" cy="66.32" r="2.76"/><circle class="cls-6" cx="187.61" cy="66.32" r="2.76"/><circle class="cls-6" cx="196.18" cy="66.32" r="2.76"/><circle class="cls-6" cx="204.75" cy="66.32" r="2.76"/><circle class="cls-6" cx="213.32" cy="66.32" r="2.76"/><circle class="cls-6" cx="221.9" cy="66.32" r="2.76"/><circle class="cls-6" cx="230.47" cy="66.32" r="2.76"/><circle class="cls-6" cx="239.04" cy="66.32" r="2.76"/><circle class="cls-6" cx="136.19" cy="75.5" r="2.76"/><circle class="cls-6" cx="144.76" cy="75.5" r="2.76"/><circle class="cls-6" cx="153.33" cy="75.5" r="2.76"/><circle class="cls-6" cx="161.9" cy="75.5" r="2.76"/><circle class="cls-6" cx="170.47" cy="75.5" r="2.76"/><circle class="cls-6" cx="179.04" cy="75.5" r="2.76"/><circle class="cls-6" cx="187.61" cy="75.5" r="2.76"/><circle class="cls-6" cx="196.18" cy="75.5" r="2.76"/><circle class="cls-6" cx="204.75" cy="75.5" r="2.76"/><circle class="cls-6" cx="213.32" cy="75.5" r="2.76"/><circle class="cls-6" cx="221.9" cy="75.5" r="2.76"/><circle class="cls-6" cx="230.47" cy="75.5" r="2.76"/><circle class="cls-6" cx="239.04" cy="75.5" r="2.76"/><circle class="cls-6" cx="136.19" cy="84.69" r="2.76"/><circle class="cls-6" cx="144.76" cy="84.69" r="2.76"/><circle class="cls-6" cx="153.33" cy="84.69" r="2.76"/><circle class="cls-6" cx="161.9" cy="84.69" r="2.76"/><circle class="cls-6" cx="170.47" cy="84.69" r="2.76"/><circle class="cls-6" cx="179.04" cy="84.69" r="2.76"/><circle class="cls-6" cx="187.61" cy="84.69" r="2.76"/><circle class="cls-6" cx="196.18" cy="84.69" r="2.76"/><circle class="cls-6" cx="204.75" cy="84.69" r="2.76"/><circle class="cls-6" cx="213.32" cy="84.69" r="2.76"/><circle class="cls-6" cx="221.9" cy="84.69" r="2.76"/><circle class="cls-6" cx="230.47" cy="84.69" r="2.76"/><circle class="cls-6" cx="239.04" cy="84.69" r="2.76"/></g></g><path class="cls-6" d="M243.38-8.73s6,59,64.7,59c44,0,57.33,26.83,61.25,40.24a130.2,130.2,0,0,0,11.07,26.89c10.08,18.11,27.26,42.34,47,42.34l37.1-129V-8.73Z"/><path class="cls-4" d="M342.14,11.11A10.06,10.06,0,1,1,332.08,21.3,10.06,10.06,0,0,1,342.14,11.11Z"/><path class="cls-18" d="M287.24,290.68a61,61,0,0,1-122,2.34"/><circle class="cls-10" cx="288.53" cy="290.66" r="7.42" transform="translate(-5.23 5.28) rotate(-1.04)"/><circle class="cls-6" cx="165.31" cy="292.89" r="7.42" transform="translate(-5.29 3.05) rotate(-1.04)"/><path class="cls-7" d="M37.62,191.16A2.62,2.62,0,1,1,35,193.81,2.62,2.62,0,0,1,37.62,191.16Zm-2.11,23.51V199h4.25v15.71Z"/><path class="cls-7" d="M49,206.14v8.53H44.61V192h8.46c4.47,0,7.44,3,7.44,7.06s-3,7.06-7.44,7.06Zm3.51-3.8c2.2,0,3.55-1.28,3.55-3.23s-1.34-3.26-3.55-3.26H49.05v6.48Z"/><path class="cls-7" d="M72.84,203.17a6.38,6.38,0,0,0-1.28-.13c-2.17,0-4.06,1.05-4.06,4.44v7.19H63.26V199h4.12v2.33a4.67,4.67,0,0,1,4.47-2.46,9.74,9.74,0,0,1,1,.06Z"/><path class="cls-7" d="M77.95,191.16a2.62,2.62,0,1,1-2.62,2.65A2.62,2.62,0,0,1,77.95,191.16Zm-2.11,23.51V199h4.25v15.71Z"/><path class="cls-7" d="M87.69,206.81c0,2.84,1.85,4.44,4,4.44a3.6,3.6,0,0,0,3.61-2.65l3.74,1.25a7.3,7.3,0,0,1-7.35,5.3,8.13,8.13,0,0,1-8.27-8.34,8,8,0,0,1,8.14-8.34,7.19,7.19,0,0,1,7.38,5.3l-3.8,1.28a3.43,3.43,0,0,0-3.48-2.65C89.51,202.4,87.69,204,87.69,206.81Z"/><path class="cls-7" d="M116.11,210.17a7.08,7.08,0,0,1-7.15,5,8.35,8.35,0,0,1-.38-16.67c4.85,0,7.76,3.1,7.76,8.14,0,.61-.06,1.25-.06,1.31H105a3.83,3.83,0,0,0,4,3.58,3.47,3.47,0,0,0,3.58-2.39Zm-4-5.14a3.16,3.16,0,0,0-3.51-3.1,3.4,3.4,0,0,0-3.51,3.1Z"/><path class="cls-7" d="M141.56,242.76V220.11h14.18v4.15H146v5.17h8.85v3.93H146v5.24h9.77v4.15Z"/><path class="cls-7" d="M158.93,235.16v-3.77h9.26v3.77Z"/><path class="cls-7" d="M170.87,231.45a11.43,11.43,0,0,1,11.53-11.82c6.26,0,9.49,3.83,10.38,7.51l-4.15,1.31c-.54-2.17-2.3-4.57-6.23-4.57-3.39,0-7,2.43-7,7.57,0,4.82,3.39,7.47,7,7.47a6.29,6.29,0,0,0,6.36-4.63l4.12,1.25c-.86,3.48-4.12,7.7-10.48,7.7A11.31,11.31,0,0,1,170.87,231.45Z"/><path class="cls-7" d="M211,234.9a8.24,8.24,0,1,1-8.24-8.34A8.07,8.07,0,0,1,211,234.9Zm-4.25,0c0-3-1.92-4.47-4-4.47s-4,1.5-4,4.47,1.92,4.47,4,4.47S206.8,237.87,206.8,234.9Z"/><path class="cls-7" d="M214.4,242.76V227h4.06V229a5.4,5.4,0,0,1,4.6-2.36,4.86,4.86,0,0,1,4.66,2.62,5.46,5.46,0,0,1,5-2.62c2.91,0,5.69,1.76,5.69,6v10.19h-4.12v-9.33c0-1.69-.83-3-2.78-3a2.89,2.89,0,0,0-2.91,3.1v9.2h-4.22v-9.33c0-1.69-.86-3-2.78-3a2.88,2.88,0,0,0-2.94,3.1v9.2Z"/><path class="cls-7" d="M242.69,242.76V227h4.06V229a5.4,5.4,0,0,1,4.6-2.36,4.86,4.86,0,0,1,4.66,2.62,5.46,5.46,0,0,1,5-2.62c2.91,0,5.69,1.76,5.69,6v10.19h-4.12v-9.33c0-1.69-.83-3-2.78-3a2.89,2.89,0,0,0-2.91,3.1v9.2h-4.22v-9.33c0-1.69-.86-3-2.78-3a2.88,2.88,0,0,0-2.94,3.1v9.2Z"/><path class="cls-7" d="M285.06,238.25a7.08,7.08,0,0,1-7.15,5,8.35,8.35,0,0,1-.38-16.67c4.85,0,7.76,3.1,7.76,8.14,0,.61-.06,1.25-.06,1.31H274a3.83,3.83,0,0,0,4,3.58,3.47,3.47,0,0,0,3.58-2.39Zm-4-5.14a3.16,3.16,0,0,0-3.51-3.1,3.4,3.4,0,0,0-3.51,3.1Z"/><path class="cls-7" d="M298.22,231.26a6.38,6.38,0,0,0-1.28-.13c-2.17,0-4.06,1.05-4.06,4.44v7.19h-4.25V227h4.12v2.33a4.67,4.67,0,0,1,4.47-2.46,9.73,9.73,0,0,1,1,.06Z"/><path class="cls-7" d="M304.12,234.9c0,2.84,1.85,4.44,4,4.44a3.6,3.6,0,0,0,3.61-2.65l3.74,1.25a7.3,7.3,0,0,1-7.35,5.3,8.13,8.13,0,0,1-8.27-8.34,8,8,0,0,1,8.14-8.34,7.19,7.19,0,0,1,7.38,5.3l-3.8,1.28a3.43,3.43,0,0,0-3.48-2.65C305.94,230.49,304.12,232.06,304.12,234.9Z"/><path class="cls-7" d="M332.55,238.25a7.08,7.08,0,0,1-7.16,5,8.35,8.35,0,0,1-.38-16.67c4.85,0,7.76,3.1,7.76,8.14,0,.61-.06,1.25-.06,1.31H321.46a3.83,3.83,0,0,0,4,3.58A3.47,3.47,0,0,0,329,237.2Zm-4-5.14a3.16,3.16,0,0,0-3.51-3.1,3.4,3.4,0,0,0-3.51,3.1Z"/><path class="cls-7" d="M212.36,270.84V255l-6.52,15.87h-3.67l-6.52-15.75v15.75h-4.22V248.2h5.81l6.8,16.35,6.64-16.35h6v22.65Z"/><path class="cls-7" d="M235.54,266.34a7.08,7.08,0,0,1-7.16,5,8.35,8.35,0,0,1-.38-16.67c4.85,0,7.76,3.1,7.76,8.14,0,.61-.06,1.25-.06,1.31H224.46a3.83,3.83,0,0,0,4,3.58,3.47,3.47,0,0,0,3.58-2.39Zm-4-5.14a3.16,3.16,0,0,0-3.51-3.1,3.4,3.4,0,0,0-3.51,3.1Z"/><path class="cls-7" d="M248.7,259.35a6.38,6.38,0,0,0-1.28-.13c-2.17,0-4.06,1.05-4.06,4.44v7.19h-4.25V255.13h4.12v2.33a4.67,4.67,0,0,1,4.47-2.46,9.73,9.73,0,0,1,1,.06Z"/><path class="cls-7" d="M254.6,263c0,2.84,1.85,4.44,4,4.44a3.6,3.6,0,0,0,3.61-2.65L266,266a7.3,7.3,0,0,1-7.35,5.3,8.13,8.13,0,0,1-8.27-8.34,8,8,0,0,1,8.14-8.34,7.19,7.19,0,0,1,7.38,5.3l-3.8,1.28a3.43,3.43,0,0,0-3.48-2.65C256.42,258.58,254.6,260.15,254.6,263Z"/><path class="cls-7" d="M273.35,270.84H269.1V247.72h4.25v8.72a5.61,5.61,0,0,1,4.25-1.73c4,0,5.85,2.78,5.85,6.23v9.9h-4.25v-9.17c0-1.76-.86-3.13-2.91-3.13a2.94,2.94,0,0,0-2.94,3.07Z"/><path class="cls-7" d="M291.48,261.81l3.86-.57c.89-.13,1.18-.57,1.18-1.12,0-1.12-.86-2-2.65-2a2.79,2.79,0,0,0-3,2.56l-3.77-.8c.26-2.46,2.52-5.17,6.74-5.17,5,0,6.84,2.81,6.84,6v7.73a17.55,17.55,0,0,0,.19,2.49H297a10.7,10.7,0,0,1-.16-1.88,5.25,5.25,0,0,1-4.63,2.33c-3.35,0-5.4-2.27-5.4-4.73C286.79,263.75,288.86,262.19,291.48,261.81Zm5,2.68v-.7l-3.55.54a2,2,0,0,0-1.95,2,1.84,1.84,0,0,0,2,1.82C294.87,268.13,296.53,267.27,296.53,264.49Z"/><path class="cls-7" d="M309.21,270.84H305V255.13h4.12v1.95a5.22,5.22,0,0,1,4.54-2.36c3.9,0,5.69,2.78,5.69,6.23v9.9h-4.25v-9.17c0-1.76-.86-3.13-2.91-3.13a3,3,0,0,0-2.94,3.26Z"/><path class="cls-7" d="M328.84,255.13H332v3.77h-3.16v6.58c0,1.37.64,1.82,1.85,1.82a6.11,6.11,0,0,0,1.31-.13v3.51a6.3,6.3,0,0,1-2.39.38c-3.07,0-5-1.82-5-4.85V258.9h-2.84v-3.77h.8a2.26,2.26,0,0,0,2.43-2.49v-2.2h3.83Z"/><path class="cls-7" d="M44.61,293.76h-9.2l-1.88,5.17H28.87l8.69-22.65h5.11l8.62,22.65H46.5Zm-7.73-4h6.26L40,281.17Z"/><path class="cls-7" d="M66.3,283.22l3.39,10.12,2.91-10.12H76.8l-4.92,15.71H67.64L64,288.2l-3.61,10.73H56l-5-15.71H55.5l2.91,10.09,3.42-10.09Z"/><path class="cls-7" d="M83.12,289.9l3.86-.58c.89-.13,1.18-.57,1.18-1.12,0-1.12-.86-2-2.65-2a2.79,2.79,0,0,0-3,2.56l-3.77-.8c.26-2.46,2.52-5.17,6.74-5.17,5,0,6.84,2.81,6.84,6v7.73a17.57,17.57,0,0,0,.19,2.49h-3.9a10.7,10.7,0,0,1-.16-1.88,5.25,5.25,0,0,1-4.63,2.33c-3.35,0-5.4-2.27-5.4-4.73C78.43,291.84,80.5,290.28,83.12,289.9Zm5,2.68v-.7l-3.55.54a2,2,0,0,0-1.95,2,1.84,1.84,0,0,0,2,1.82C86.51,296.22,88.17,295.36,88.17,292.58Z"/><path class="cls-7" d="M106.18,287.43a6.45,6.45,0,0,0-1.28-.13c-2.17,0-4.06,1.05-4.06,4.44v7.19H96.6V283.22h4.12v2.33a4.67,4.67,0,0,1,4.47-2.46,9.73,9.73,0,0,1,1,.06Z"/><path class="cls-7" d="M124,296.09c0,1.05.06,2.2.13,2.84h-4.06a10.81,10.81,0,0,1-.16-1.82,4.93,4.93,0,0,1-4.41,2.2c-4.47,0-7.67-3.51-7.67-8.27,0-4.6,3.1-8.21,7.54-8.21,2.71,0,4,1.12,4.44,1.95v-9H124Zm-8-.57c2.17,0,3.86-1.66,3.86-4.5s-1.69-4.37-3.86-4.37-3.9,1.6-3.9,4.41S113.78,295.52,116,295.52Z"/><path class="cls-7" d="M130.89,293.76a2.61,2.61,0,0,0,2.87,2.39c1.41,0,2.08-.73,2.08-1.56s-.48-1.28-1.69-1.53l-2.08-.48c-3-.67-4.41-2.49-4.41-4.69,0-2.81,2.49-5.14,5.88-5.14,4.47,0,6,2.84,6.16,4.54l-3.55.8a2.39,2.39,0,0,0-2.59-2.11,1.81,1.81,0,0,0-2,1.56c0,.77.58,1.25,1.44,1.41l2.24.48c3.1.64,4.66,2.52,4.66,4.82,0,2.56-2,5.17-6.1,5.17-4.73,0-6.36-3.07-6.55-4.85Z"/><path class="cls-7" d="M241.73,286.09a7.76,7.76,0,0,1-.16-1.44c0-3.64,2.75-6.93,7.57-6.93,4.63,0,7.47,3.07,7.47,6.68,0,2.68-1.47,4.86-4,6.42l-4,2.43a4.22,4.22,0,0,0-1.79,1.88h9.93v3.8H241.41c0-3.64,1.18-6.61,4.89-8.85l3.42-2c1.76-1.05,2.46-2.14,2.46-3.58a2.83,2.83,0,0,0-3.13-2.84,3.13,3.13,0,0,0-3.29,3.45,4.53,4.53,0,0,0,.16,1.15Z"/><path class="cls-7" d="M260.86,281.21a7.83,7.83,0,0,1,6.84-3.48,7.74,7.74,0,0,1,6.8,3.48,15.62,15.62,0,0,1,0,14.76,7.74,7.74,0,0,1-6.8,3.48,7.83,7.83,0,0,1-6.84-3.48,15.86,15.86,0,0,1,0-14.76Zm3.7,12.65a3.46,3.46,0,0,0,3.13,1.69,3.37,3.37,0,0,0,3.1-1.69,12.66,12.66,0,0,0,0-10.54,3.37,3.37,0,0,0-3.1-1.69,3.46,3.46,0,0,0-3.13,1.69,13,13,0,0,0,0,10.54Z"/><path class="cls-7" d="M307.29,298.93V285.07h-5v-3c3,0,5.14-1.72,5.56-3.9h3.8v20.73Z"/><path class="cls-7" d="M330.31,281.88c-1.57,1.34-7.38,6.61-8.3,17.06h-4.57A25.57,25.57,0,0,1,325.23,282H314.57v-3.8h15.75Z"/><path class="cls-10" d="M208.91,103.23H152.83v80.62l25.77-20.48a4,4,0,0,1,4.93,0l25.37,20.47Z"/><circle class="cls-19" cx="181.27" cy="73.09" r="50.45"/><path class="cls-20" d="M136.72,75.35c0-.66,0-1.32,0-2a45,45,0,0,1,86.49-17.52"/><path class="cls-20" d="M138,86.7a45,45,0,0,0,85.83.57"/><path class="cls-19" d="M143.52,89.19a41,41,0,0,0,36.73,24.89h1.28a40.93,40.93,0,0,0,37.26-24.9"/><path class="cls-19" d="M140.3,75.21a40.95,40.95,0,0,1,35.59-42.58"/><path class="cls-19" d="M213.74,48.48A40.89,40.89,0,0,1,222,75.21"/><path class="cls-19" d="M181.47,32.2a40.68,40.68,0,0,1,8.61,1.16"/><line class="cls-19" x1="164.97" y1="91.45" x2="153.14" y2="91.45"/><line class="cls-19" x1="210.93" y1="91.8" x2="199.35" y2="91.8"/><path class="cls-7" d="M172,94.15v-3.8l-1.56,3.8h-.88L168,90.38v3.77h-1V88.73h1.39L170,92.65l1.59-3.92H173v5.42Z"/><path class="cls-7" d="M175.06,92l.93-.14c.21,0,.28-.14.28-.27s-.21-.49-.63-.49a.67.67,0,0,0-.72.61l-.9-.19a1.5,1.5,0,0,1,1.61-1.24c1.19,0,1.64.67,1.64,1.43v1.85a4.23,4.23,0,0,0,0,.6h-.93a2.5,2.5,0,0,1,0-.45,1.26,1.26,0,0,1-1.11.56,1.19,1.19,0,0,1-1.29-1.13A1.16,1.16,0,0,1,175.06,92Zm1.21.64v-.17l-.85.13a.47.47,0,0,0-.47.47.44.44,0,0,0,.49.44A.76.76,0,0,0,176.26,92.63Z"/><path class="cls-7" d="M178.28,94.15V88.61h1v5.54Z"/><path class="cls-7" d="M181.26,92l.93-.14c.21,0,.28-.14.28-.27s-.21-.49-.63-.49a.67.67,0,0,0-.72.61l-.9-.19a1.5,1.5,0,0,1,1.61-1.24c1.19,0,1.64.67,1.64,1.43v1.85a4.23,4.23,0,0,0,0,.6h-.93a2.5,2.5,0,0,1,0-.45,1.26,1.26,0,0,1-1.11.56,1.19,1.19,0,0,1-1.29-1.13A1.16,1.16,0,0,1,181.26,92Zm1.21.64v-.17l-.85.13a.47.47,0,0,0-.47.47.44.44,0,0,0,.49.44A.76.76,0,0,0,182.47,92.63Z"/><path class="cls-7" d="M184.61,95.64l.89-2-1.6-3.29H185l1,2.2.93-2.2h1.09l-2.36,5.25Z"/><path class="cls-7" d="M189.17,92.91a.63.63,0,0,0,.69.57c.34,0,.5-.18.5-.37s-.11-.31-.41-.37l-.5-.12c-.73-.16-1.06-.6-1.06-1.12a1.48,1.48,0,0,1,2.88-.15l-.85.19a.57.57,0,0,0-.62-.5.43.43,0,0,0-.48.37c0,.18.14.3.34.34l.54.11c.74.15,1.12.6,1.12,1.16a1.3,1.3,0,0,1-1.46,1.24,1.41,1.41,0,0,1-1.57-1.16Z"/><path class="cls-7" d="M192.65,88.52a.63.63,0,1,1-.63.63A.63.63,0,0,1,192.65,88.52Zm-.5,5.63V90.39h1v3.76Z"/><path class="cls-7" d="M195.15,92l.93-.14c.21,0,.28-.14.28-.27s-.21-.49-.63-.49a.67.67,0,0,0-.72.61l-.9-.19a1.5,1.5,0,0,1,1.61-1.24c1.19,0,1.64.67,1.64,1.43v1.85a4.23,4.23,0,0,0,0,.6h-.93a2.56,2.56,0,0,1,0-.45,1.26,1.26,0,0,1-1.11.56A1.19,1.19,0,0,1,194,93.13,1.16,1.16,0,0,1,195.15,92Zm1.21.64v-.17l-.85.13a.47.47,0,0,0-.47.47.44.44,0,0,0,.49.44A.76.76,0,0,0,196.35,92.63Z"/><path class="cls-7" d="M154,51.29a2,2,0,1,1-2,2A2,2,0,0,1,154,51.29Zm-1.61,17.91v-12h3.24v12Z"/><path class="cls-7" d="M159.38,69.21V51.95h10.81v3.16h-7.45v3.94h6.74v3h-6.74v4h7.45v3.16Z"/><path class="cls-7" d="M189.49,69.21V57.11l-5,12.1h-2.8l-5-12v12h-3.21V51.95H178l5.18,12.46,5.06-12.46h4.58V69.21Z"/><path class="cls-7" d="M207,65.26h-7l-1.44,3.94H195l6.62-17.26h3.89l6.57,17.26h-3.65Zm-5.89-3.07h4.77l-2.38-6.52Z"/><path class="cls-7" d="M167,77a3.64,3.64,0,0,1-.07-.66,3.21,3.21,0,0,1,3.48-3.18,3.15,3.15,0,0,1,3.43,3.07,3.42,3.42,0,0,1-1.85,2.95l-1.83,1.12a1.94,1.94,0,0,0-.82.87h4.56v1.75h-7a4.35,4.35,0,0,1,2.25-4.06l1.57-.94a1.86,1.86,0,0,0,1.13-1.64,1.3,1.3,0,0,0-1.44-1.31,1.44,1.44,0,0,0-1.51,1.58,2.09,2.09,0,0,0,.07.53Z"/><path class="cls-7" d="M175.75,74.74a3.6,3.6,0,0,1,3.14-1.6,3.55,3.55,0,0,1,3.13,1.6,7.18,7.18,0,0,1,0,6.78,3.55,3.55,0,0,1-3.13,1.6,3.6,3.6,0,0,1-3.14-1.6,7.29,7.29,0,0,1,0-6.78Zm1.7,5.81a1.59,1.59,0,0,0,1.44.78,1.55,1.55,0,0,0,1.42-.78,5.81,5.81,0,0,0,0-4.84,1.55,1.55,0,0,0-1.42-.78,1.59,1.59,0,0,0-1.44.78,6,6,0,0,0,0,4.84Z"/><path class="cls-7" d="M186.06,82.89V76.52h-2.29V75.16a2.43,2.43,0,0,0,2.55-1.79h1.75v9.52Z"/><path class="cls-7" d="M196.64,75.05a11.39,11.39,0,0,0-3.82,7.84h-2.1a11.75,11.75,0,0,1,3.58-7.78h-4.9V73.37h7.23Z"/><path class="cls-19" d="M136.68,79.52s-.95,13.91,14.88,27.86"/><path class="cls-19" d="M224.24,59.37s5.2,17-2.18,32.56"/><path class="cls-21" d="M194.78,34.43A38.92,38.92,0,0,1,211,45.11"/><path class="cls-10" d="M-.53,457.66S45.8,444.58,54.26,501c5.59,37.23,32.18,18,32.18,18s22.47-9.9,41.71,9.14S159.31,540,159.31,540s17.19-4.26,24.29,14.07a68.29,68.29,0,0,0,26.79,33.33c9.65,6.11,21.49,11.2,34.16,11.2H-.53Z"/><path class="cls-6" d="M56.54,539.51a10.7,10.7,0,1,1-.09-15.23A10.7,10.7,0,0,1,56.54,539.51Z"/><rect class="cls-5" x="2.61" y="462.25" width="17.35" height="64.19" transform="translate(-346.25 152.77) rotate(-45)"/><polygon class="cls-3" points="365.07 118.99 365.07 52.64 337.83 118.99 323.32 118.99 296.09 53.17 296.09 118.99 279.61 118.99 279.61 27.22 302.74 27.22 330.78 94.63 358.16 27.22 382.07 27.22 382.07 118.99 365.07 118.99"/><path class="cls-7" d="M381.7,27.59v91H365.44V50.76L364,54.23l-26.43,64.38h-14L297.14,54.75l-1.42-3.44v67.3H280v-91h22.51l27.6,66.35.69,1.66.68-1.67,27-66.34H381.7m.74-.74H357.91l-27.14,66.8L303,26.85H279.24v92.5h17.22V55l26.62,64.32h15L364.7,54.51v64.84h17.74V26.85Z"/></g><g class="cls-22"><g class="cls-23"><g class="cls-24"><line class="cls-15" x1="6.24" y1="83.92" x2="-253.17" y2="343.33"/><line class="cls-15" x1="15.12" y1="83.92" x2="-244.29" y2="343.33"/><line class="cls-15" x1="24" y1="83.92" x2="-235.41" y2="343.33"/><line class="cls-15" x1="32.88" y1="83.92" x2="-226.53" y2="343.33"/><line class="cls-15" x1="41.75" y1="83.92" x2="-217.65" y2="343.33"/><line class="cls-15" x1="50.63" y1="83.92" x2="-208.78" y2="343.33"/><line class="cls-15" x1="59.51" y1="83.92" x2="-199.9" y2="343.33"/><line class="cls-15" x1="68.39" y1="83.92" x2="-191.02" y2="343.33"/><line class="cls-15" x1="77.27" y1="83.92" x2="-182.14" y2="343.33"/><line class="cls-15" x1="86.15" y1="83.92" x2="-173.26" y2="343.33"/></g></g></g></svg>