<svg id="Layer_1" data-name="Layer 1" xmlns="http://www.w3.org/2000/svg" xmlns:xlink="http://www.w3.org/1999/xlink" viewBox="0 0 1024 170"><defs><style>.cls-1,.cls-13,.cls-14,.cls-8,.cls-9{fill:none;}.cls-2{clip-path:url(#clip-path);}.cls-3{fill:#f1f3f2;}.cls-4{clip-path:url(#clip-path-2);}.cls-5{fill:#f63;}.cls-10,.cls-11,.cls-12,.cls-6{fill:#fff;}.cls-7{fill:#3cc;}.cls-10,.cls-11,.cls-12,.cls-13,.cls-14,.cls-8,.cls-9{stroke:#3cc;}.cls-13,.cls-8{stroke-miterlimit:10;}.cls-8{stroke-width:1.61px;}.cls-10,.cls-11,.cls-12,.cls-14,.cls-9{stroke-linecap:round;stroke-linejoin:round;}.cls-9{stroke-width:16px;}.cls-10{stroke-width:0.73px;}.cls-11{stroke-width:0.72px;}.cls-12{stroke-width:0.68px;}.cls-13{stroke-width:0.3px;}.cls-14{stroke-width:0.75px;}</style><clipPath id="clip-path"><rect class="cls-1" y="-0.37" width="1024" height="170"/></clipPath><clipPath id="clip-path-2"><rect class="cls-1" y="-0.44" width="1027" height="170.94"/></clipPath></defs><title>header_ph-19</title><g class="cls-2"><rect class="cls-3" y="-0.44" width="1147" height="170.94"/><g class="cls-4"><rect class="cls-5" x="613.44" y="-0.5" width="24.19" height="117.48"/><rect class="cls-5" x="660.19" y="-0.5" width="24.19" height="117.48"/><rect class="cls-5" x="706.95" y="-0.5" width="24.19" height="117.48"/><rect class="cls-5" x="753.71" y="-0.5" width="24.19" height="117.48"/><circle class="cls-6" cx="777.89" cy="38.01" r="11.85"/><circle class="cls-5" cx="802.6" cy="70.4" r="11.85"/><circle class="cls-6" cx="848.36" cy="96.21" r="11.85"/><circle class="cls-6" cx="894.4" cy="23.37" r="11.85"/><rect class="cls-3" x="170.1" y="54.5" width="82.59" height="106.06"/><path class="cls-7" d="M163,174.49V33.39h88.36V59.26h-60.9V91.5h55.13V116H190.46v32.64h60.9v25.87Z"/><path class="cls-7" d="M874.52,96.7H823.18l-10.52,28.88h-26L835.12-.83h28.53l48.14,126.41H885ZM831.37,74.23h34.95L848.85,26.45Z"/><path class="cls-8" d="M928.57,112.3a11.36,11.36,0,0,1-2.17.24c-5.5,0-10.48-4.15-10.48-11.44,0-7,4.63-11.29,10.09-11.29,4.06,0,7.34,2.22,9.7,6.08l3.67,6a6.38,6.38,0,0,0,2.85,2.7v-15H948v23.17c-5.5,0-10-1.78-13.37-7.39l-3.09-5.17c-1.59-2.65-3.23-3.71-5.41-3.71s-4.3,1.6-4.3,4.73c0,3.33,2.27,5,5.21,5a7.13,7.13,0,0,0,1.74-.24Z"/><path class="cls-8" d="M921.19,83.38A11.85,11.85,0,0,1,915.93,73a11.7,11.7,0,0,1,5.26-10.28c3.23-2.12,7.14-2.8,11.15-2.8s7.92.68,11.15,2.8A11.7,11.7,0,0,1,948.75,73a11.85,11.85,0,0,1-5.26,10.34c-3.23,2.12-7.14,2.75-11.15,2.75S924.42,85.51,921.19,83.38Zm19.12-5.6A5.23,5.23,0,0,0,942.86,73a5.09,5.09,0,0,0-2.56-4.68c-1.88-1.26-4.68-1.74-8-1.74s-6.08.48-8,1.74A5.09,5.09,0,0,0,921.82,73a5.23,5.23,0,0,0,2.56,4.73c1.88,1.21,4.68,1.69,8,1.69S938.42,79,940.31,77.78Z"/><path class="cls-8" d="M948,49.48H927V57h-4.49c0-4.58-2.61-7.78-5.89-8.4V42.86H948Z"/><path class="cls-8" d="M922.78,14.71a13.44,13.44,0,0,0-1.11,5.17c0,5.31,3.09,9.66,9,10.38a8.87,8.87,0,0,1-3.48-7.44c0-6.42,4.06-10.81,10.52-10.81s11,5.21,11,12.12-4.92,12.69-14.39,12.69c-11.25,0-18.39-7-18.39-17.38a13.65,13.65,0,0,1,1.45-6.57Zm20.32,9.46a5.22,5.22,0,0,0-5.26-5.55c-3.23,0-5.21,2.51-5.21,5.55a5.17,5.17,0,0,0,5.21,5.5A5.3,5.3,0,0,0,943.11,24.18Z"/><rect class="cls-7" x="954.4" y="12.01" width="12.32" height="104.72"/><rect class="cls-3" x="453.24" y="23.64" width="108.35" height="93.01"/><rect class="cls-7" x="-1.56" y="-7.18" width="54.7" height="179.82"/><rect class="cls-5" x="163" y="-0.83" width="95.47" height="34.22"/><rect class="cls-3" x="410.14" y="134.45" width="51.59" height="56.37"/><path class="cls-9" d="M480.51,114.57h0a28.39,28.39,0,0,1,56.73,0h0"/><rect class="cls-5" x="453.24" y="116.64" width="452.28" height="8.94"/><path class="cls-6" d="M53.14,7.58H-.15V84.7L23.67,65.62a4.81,4.81,0,0,1,6,0l23.44,19Z"/><polygon class="cls-6" points="53.29 -0.89 27.74 -0.89 26.51 -0.89 0 -0.89 0 76.23 26.85 54.73 53.29 76.23 53.29 -0.89"/><circle class="cls-3" cx="26.45" cy="85" r="6.61"/><rect class="cls-3" x="455.21" y="134.43" width="449.85" height="36.9"/><rect class="cls-6" x="905.05" y="116.27" width="75.49" height="54.94"/><polygon class="cls-6" points="1024.99 105.64 1002.33 105.64 1001.28 105.64 978.99 105.64 978.99 171.21 1002.16 152.74 1024.99 171.21 1024.99 105.64"/><polygon class="cls-5" points="1024.7 89.07 1002.33 89.07 1001.28 89.07 978.59 89.07 978.59 155.37 1001.82 136.91 1024.7 155.37 1024.7 89.07"/><polygon class="cls-6" points="1024.99 72.64 1002.33 72.64 1001.28 72.64 978.99 72.64 978.99 139.54 1002.16 121.08 1024.99 139.54 1024.99 72.64"/><polygon class="cls-5" points="1024.7 57.41 1002.33 57.41 1001.28 57.41 978.59 57.41 978.59 123.71 1001.82 105.25 1024.7 123.71 1024.7 57.41"/><polygon class="cls-6" points="1024.99 42.65 1002.33 42.65 1001.28 42.65 978.99 42.65 978.99 107.88 1002.16 89.41 1024.99 107.88 1024.99 42.65"/><polygon class="cls-5" points="1024.7 25.74 1002.33 25.74 1001.28 25.74 978.59 25.74 978.59 92.04 1001.82 73.58 1024.7 92.04 1024.7 25.74"/><polygon class="cls-6" points="1024.99 10.64 1002.33 10.64 1001.28 10.64 978.99 10.64 978.99 76.21 1002.16 57.75 1024.99 76.21 1024.99 10.64"/><polygon class="cls-5" points="1024.7 -5.92 1002.33 -5.92 1001.28 -5.92 978.59 -5.92 978.59 60.38 1001.82 41.91 1024.7 60.38 1024.7 -5.92"/><rect class="cls-7" x="455.67" y="125.6" width="449.67" height="8.83"/><path class="cls-6" d="M882.14,116.19l-19.66,22.47a7.55,7.55,0,0,0,0,9.9l19.7,22.85h-85.9V177H968.47V116.19Z"/><circle class="cls-3" cx="886.22" cy="143.76" r="7.34"/><polygon class="cls-7" points="455.73 134.25 437.89 152.79 455.94 171.34 402.99 171.34 402.94 134.38 455.73 134.25"/><path class="cls-5" d="M375.87,275.48V176.58l-40.6,98.91H312.38l-40.6-98.11v98.11H245.52V134.38h36.22l42.39,101.89,41.39-101.89h37.42v141.1Z"/><rect class="cls-1" y="0.5" width="1027" height="170.84"/><rect class="cls-6" x="245.55" y="-0.83" width="210.12" height="135.26"/></g><path class="cls-7" d="M602,12.72A16.28,16.28,0,1,1,585.54-3.56,16.27,16.27,0,0,1,602,12.72ZM455.85-.39h97.71V26H455.85Z"/></g><path class="cls-5" d="M132.6,85H84.22v69.56l22.24-17.67a3.41,3.41,0,0,1,4.26,0l21.89,17.66Z"/><circle class="cls-10" cx="108.76" cy="59.02" r="43.53"/><path class="cls-11" d="M70.33,61c0-.57,0-1.14,0-1.71a38.84,38.84,0,0,1,74.62-15.12"/><path class="cls-11" d="M71.46,70.76a38.85,38.85,0,0,0,74.05.49"/><path class="cls-10" d="M76.19,72.91a35.36,35.36,0,0,0,31.69,21.48H109a35.31,35.31,0,0,0,32.15-21.48"/><path class="cls-10" d="M73.41,60.85a35.33,35.33,0,0,1,30.7-36.74"/><path class="cls-10" d="M136.77,37.79a35.28,35.28,0,0,1,7.13,23.06"/><path class="cls-10" d="M108.93,23.74a35.09,35.09,0,0,1,7.43,1"/><line class="cls-12" x1="92.22" y1="77.01" x2="85.01" y2="77.01"/><line class="cls-12" x1="133.15" y1="77.3" x2="125.94" y2="77.3"/><path class="cls-7" d="M96.51,76a.8.8,0,0,0-.85-.66.66.66,0,0,0-.73.59c0,.26.17.46.51.53l.65.13A1.43,1.43,0,0,1,97.39,78a1.54,1.54,0,0,1-1.69,1.45A1.71,1.71,0,0,1,93.84,78l.85-.22a.94.94,0,0,0,1,.88c.49,0,.76-.25.76-.58s-.2-.48-.57-.55l-.65-.13A1.36,1.36,0,0,1,94,76a1.7,1.7,0,0,1,3.31-.25Z"/><path class="cls-7" d="M98.52,74.48A.54.54,0,1,1,98,75,.54.54,0,0,1,98.52,74.48Zm-.44,4.86V76.09H99v3.25Z"/><path class="cls-7" d="M100.78,79.34H99.9V76.09h.85v.4a1.08,1.08,0,0,1,.94-.49,1.14,1.14,0,0,1,1.18,1.29v2H102v-1.9a.57.57,0,0,0-.6-.65.61.61,0,0,0-.61.67Z"/><path class="cls-7" d="M104.32,79.31a.73.73,0,0,0,.76.62c.56,0,.87-.28.87-.91v-.24a1,1,0,0,1-.91.42,1.5,1.5,0,0,1-1.51-1.58A1.53,1.53,0,0,1,105,76a1,1,0,0,1,.92.44v-.38h.85V79a1.57,1.57,0,0,1-1.7,1.7,1.5,1.5,0,0,1-1.58-1.18ZM106,77.62a.77.77,0,1,0-.77.83A.76.76,0,0,0,106,77.62Z"/><path class="cls-7" d="M108.43,77.47l.8-.12c.19,0,.24-.12.24-.23s-.18-.42-.55-.42a.58.58,0,0,0-.62.53l-.78-.17A1.29,1.29,0,0,1,108.92,76c1,0,1.41.58,1.41,1.24v1.6a3.61,3.61,0,0,0,0,.51h-.81a2.23,2.23,0,0,1,0-.39,1.09,1.09,0,0,1-1,.48,1,1,0,0,1-1.12-1A1,1,0,0,1,108.43,77.47Zm1,.55v-.15l-.73.11a.41.41,0,0,0-.4.41.38.38,0,0,0,.42.38A.66.66,0,0,0,109.48,78Z"/><path class="cls-7" d="M111.22,80.6V76.09h.85v.4a1.14,1.14,0,0,1,1-.47,1.51,1.51,0,0,1,1.5,1.69A1.56,1.56,0,0,1,113,79.42a1.14,1.14,0,0,1-.94-.4V80.6Zm1.68-3.79a.92.92,0,1,0,.81.91A.82.82,0,0,0,112.9,76.81Z"/><path class="cls-7" d="M118.42,77.72a1.7,1.7,0,1,1-1.7-1.72A1.67,1.67,0,0,1,118.42,77.72Zm-.88,0a.83.83,0,1,0-.83.92A.83.83,0,0,0,117.54,77.72Z"/><path class="cls-7" d="M121.1,77a1.27,1.27,0,0,0-.26,0c-.45,0-.84.22-.84.92v1.49h-.88V76.09H120v.48a1,1,0,0,1,.93-.51h.2Z"/><path class="cls-7" d="M124.59,78.41a1.46,1.46,0,0,1-1.48,1A1.73,1.73,0,0,1,123,76a1.52,1.52,0,0,1,1.61,1.68c0,.13,0,.26,0,.27H122.3a.79.79,0,0,0,.82.74.72.72,0,0,0,.74-.5Zm-.82-1.06a.65.65,0,0,0-.73-.64.7.7,0,0,0-.73.64Z"/><path class="cls-7" d="M85.27,40.21A1.72,1.72,0,1,1,83.55,42,1.72,1.72,0,0,1,85.27,40.21ZM83.89,55.67V45.34h2.79V55.67Z"/><path class="cls-7" d="M89.87,55.67V40.78h9.32v2.73H92.77v3.4h5.82v2.58H92.77v3.44h6.42v2.73Z"/><path class="cls-7" d="M115.84,55.67V45.23l-4.28,10.43h-2.41l-4.28-10.35V55.67h-2.77V40.78h3.82l4.47,10.75,4.37-10.75h3.95V55.67Z"/><path class="cls-7" d="M131,52.27h-6l-1.24,3.4h-3.07l5.71-14.89h3.36l5.67,14.89H132.2Zm-5.08-2.65H130L127.94,44Z"/><path class="cls-7" d="M84.2,58.08a.48.48,0,1,1-.48.49A.48.48,0,0,1,84.2,58.08Zm-.39,4.32V59.51h.78V62.4Z"/><path class="cls-7" d="M86.3,60.84V62.4h-.81V58.24H87a1.3,1.3,0,1,1,0,2.6Zm.65-.7a.6.6,0,1,0,0-1.19H86.3v1.19Z"/><path class="cls-7" d="M90.67,60.29l-.24,0c-.4,0-.75.19-.75.82V62.4h-.78V59.51h.76v.43a.86.86,0,0,1,.82-.45h.18Z"/><path class="cls-7" d="M91.61,58.08a.48.48,0,1,1-.48.49A.48.48,0,0,1,91.61,58.08Zm-.39,4.32V59.51H92V62.4Z"/><path class="cls-7" d="M93.4,61a.74.74,0,0,0,.74.82.66.66,0,0,0,.66-.49l.69.23a1.34,1.34,0,0,1-1.35,1A1.5,1.5,0,0,1,92.62,61a1.48,1.48,0,0,1,1.5-1.53,1.32,1.32,0,0,1,1.36,1l-.7.24a.63.63,0,0,0-.64-.49A.74.74,0,0,0,93.4,61Z"/><path class="cls-7" d="M98.63,61.58a1.3,1.3,0,0,1-1.32.92,1.54,1.54,0,0,1-.07-3.07,1.35,1.35,0,0,1,1.43,1.5c0,.11,0,.23,0,.24H96.59a.7.7,0,0,0,.73.66.64.64,0,0,0,.66-.44Zm-.73-.95a.58.58,0,0,0-.65-.57.63.63,0,0,0-.65.57Z"/><path class="cls-7" d="M100.79,62.4V58.24h2.61V59h-1.8v1h1.63v.72H101.6v1h1.8v.76Z"/><path class="cls-7" d="M104,61v-.69h1.7V61Z"/><path class="cls-7" d="M106.17,60.32a2.1,2.1,0,0,1,2.12-2.17,1.83,1.83,0,0,1,1.91,1.38l-.76.24a1.09,1.09,0,0,0-1.15-.84,1.39,1.39,0,0,0,0,2.77,1.16,1.16,0,0,0,1.17-.85l.76.23a1.89,1.89,0,0,1-1.93,1.42A2.08,2.08,0,0,1,106.17,60.32Z"/><path class="cls-7" d="M113.56,61A1.52,1.52,0,1,1,112,59.43,1.48,1.48,0,0,1,113.56,61Zm-.78,0a.74.74,0,1,0-.73.82A.74.74,0,0,0,112.78,61Z"/><path class="cls-7" d="M114.17,62.4V59.51h.75v.35a1,1,0,0,1,.85-.43.89.89,0,0,1,.86.48,1.07,1.07,0,0,1,2,.62V62.4h-.76V60.69a.48.48,0,0,0-.51-.55.53.53,0,0,0-.53.57V62.4H116V60.69a.49.49,0,0,0-.51-.55.53.53,0,0,0-.54.57V62.4Z"/><path class="cls-7" d="M119.37,62.4V59.51h.75v.35a1,1,0,0,1,.85-.43.89.89,0,0,1,.86.48,1.07,1.07,0,0,1,2,.62V62.4H123V60.69a.48.48,0,0,0-.51-.55.53.53,0,0,0-.53.57V62.4h-.78V60.69a.49.49,0,0,0-.51-.55.53.53,0,0,0-.54.57V62.4Z"/><path class="cls-7" d="M127.16,61.58a1.3,1.3,0,0,1-1.32.92,1.54,1.54,0,0,1-.07-3.07,1.35,1.35,0,0,1,1.43,1.5c0,.11,0,.23,0,.24h-2.07a.7.7,0,0,0,.73.66.64.64,0,0,0,.66-.44Zm-.73-.95a.58.58,0,0,0-.65-.57.63.63,0,0,0-.65.57Z"/><path class="cls-7" d="M129.57,60.29l-.24,0c-.4,0-.75.19-.75.82V62.4h-.78V59.51h.76v.43a.86.86,0,0,1,.82-.45h.18Z"/><path class="cls-7" d="M130.66,61a.74.74,0,0,0,.74.82.66.66,0,0,0,.66-.49l.69.23a1.34,1.34,0,0,1-1.35,1A1.5,1.5,0,0,1,129.88,61a1.48,1.48,0,0,1,1.5-1.53,1.32,1.32,0,0,1,1.36,1l-.7.24a.63.63,0,0,0-.64-.49A.74.74,0,0,0,130.66,61Z"/><path class="cls-7" d="M135.88,61.58a1.3,1.3,0,0,1-1.32.92,1.54,1.54,0,0,1-.07-3.07,1.35,1.35,0,0,1,1.43,1.5c0,.11,0,.23,0,.24h-2.07a.7.7,0,0,0,.73.66.64.64,0,0,0,.66-.44Zm-.73-.95a.58.58,0,0,0-.65-.57.63.63,0,0,0-.65.57Z"/><path class="cls-7" d="M82,69.14V66.22l-1.2,2.92h-.68l-1.2-2.9v2.9h-.78V65h1.07l1.25,3,1.22-3h1.1v4.17Z"/><path class="cls-7" d="M86.22,68.31a1.3,1.3,0,0,1-1.32.92,1.54,1.54,0,0,1-.07-3.07,1.35,1.35,0,0,1,1.43,1.5c0,.11,0,.23,0,.24H84.18a.7.7,0,0,0,.73.66.64.64,0,0,0,.66-.44Zm-.73-.95a.58.58,0,0,0-.65-.57.63.63,0,0,0-.65.57Z"/><path class="cls-7" d="M88.64,67l-.24,0c-.4,0-.75.19-.75.82v1.32h-.78V66.25h.76v.43a.86.86,0,0,1,.82-.45h.18Z"/><path class="cls-7" d="M89.72,67.7a.74.74,0,0,0,.74.82.66.66,0,0,0,.66-.49l.69.23a1.34,1.34,0,0,1-1.35,1,1.5,1.5,0,0,1-1.52-1.53,1.48,1.48,0,0,1,1.5-1.53,1.32,1.32,0,0,1,1.36,1l-.7.24a.63.63,0,0,0-.64-.49A.74.74,0,0,0,89.72,67.7Z"/><path class="cls-7" d="M93.16,69.14h-.78V64.89h.78v1.6a1.09,1.09,0,0,1,1.86.83v1.82h-.78V67.46a.51.51,0,0,0-.53-.58.54.54,0,0,0-.54.56Z"/><path class="cls-7" d="M96.5,67.48l.71-.11c.16,0,.22-.11.22-.21s-.16-.38-.49-.38a.51.51,0,0,0-.55.47l-.69-.15a1.15,1.15,0,0,1,1.24-1c.92,0,1.26.52,1.26,1.1v1.42a3.24,3.24,0,0,0,0,.46h-.72a2,2,0,0,1,0-.35,1,1,0,0,1-.85.43.91.91,0,0,1-1-.87A.89.89,0,0,1,96.5,67.48Zm.93.49v-.13l-.65.1a.36.36,0,0,0-.36.36.34.34,0,0,0,.38.33A.59.59,0,0,0,97.42,68Z"/><path class="cls-7" d="M99.75,69.14H99V66.25h.76v.36a1,1,0,0,1,.83-.44,1,1,0,0,1,1,1.15v1.82h-.78V67.46a.51.51,0,0,0-.53-.58.54.54,0,0,0-.54.6Z"/><path class="cls-7" d="M103.36,66.25h.58v.69h-.58v1.21c0,.25.12.33.34.33l.24,0v.65a1.16,1.16,0,0,1-.44.07.84.84,0,0,1-.92-.89V66.94h-.52v-.69h.15a.42.42,0,0,0,.45-.46v-.41h.7Z"/><path class="cls-7" d="M108.57,68.19h-1.69l-.35,1h-.86l1.6-4.17h.94l1.59,4.17h-.88Zm-1.42-.74h1.15l-.58-1.57Z"/><path class="cls-7" d="M112.56,66.25l.62,1.86.53-1.86h.78l-.9,2.89h-.78l-.68-2-.66,2h-.79l-.92-2.89h.82l.53,1.86.63-1.86Z"/><path class="cls-7" d="M115.65,67.48l.71-.11c.16,0,.22-.11.22-.21s-.16-.38-.49-.38a.51.51,0,0,0-.55.47l-.69-.15a1.15,1.15,0,0,1,1.24-1c.92,0,1.26.52,1.26,1.1v1.42a3.24,3.24,0,0,0,0,.46h-.72a2,2,0,0,1,0-.35,1,1,0,0,1-.85.43.91.91,0,0,1-1-.87A.89.89,0,0,1,115.65,67.48Zm.93.49v-.13l-.65.1a.36.36,0,0,0-.36.36.34.34,0,0,0,.38.33A.59.59,0,0,0,116.58,68Z"/><path class="cls-7" d="M119.88,67l-.24,0c-.4,0-.75.19-.75.82v1.32h-.78V66.25h.76v.43a.86.86,0,0,1,.82-.45h.18Z"/><path class="cls-7" d="M123.16,68.62c0,.19,0,.41,0,.52h-.75a2,2,0,0,1,0-.33.91.91,0,0,1-.81.41,1.52,1.52,0,0,1,0-3,.87.87,0,0,1,.82.36V64.89h.77Zm-1.47-.11a.73.73,0,0,0,.71-.83.72.72,0,0,0-.71-.8.82.82,0,0,0,0,1.63Z"/><path class="cls-7" d="M124.42,68.19a.48.48,0,0,0,.53.44c.26,0,.38-.13.38-.29s-.09-.24-.31-.28l-.38-.09c-.56-.12-.81-.46-.81-.86A1.14,1.14,0,0,1,126,67l-.65.15a.44.44,0,0,0-.48-.39c-.21,0-.37.12-.37.29s.11.23.26.26l.41.09c.57.12.86.46.86.89a1,1,0,0,1-1.12,1,1.09,1.09,0,0,1-1.2-.89Z"/><path class="cls-13" d="M128,66.78a1.44,1.44,0,0,1,0-.26,1.29,1.29,0,0,1,1.39-1.27,1.26,1.26,0,0,1,1.37,1.23,1.37,1.37,0,0,1-.74,1.18l-.73.45a.78.78,0,0,0-.33.35h1.83v.7h-2.82a1.74,1.74,0,0,1,.9-1.63l.63-.38a.74.74,0,0,0,.45-.66.52.52,0,0,0-.58-.52.58.58,0,0,0-.6.63.83.83,0,0,0,0,.21Z"/><path class="cls-13" d="M131.5,65.88a1.44,1.44,0,0,1,1.26-.64,1.42,1.42,0,0,1,1.25.64,2.87,2.87,0,0,1,0,2.71,1.42,1.42,0,0,1-1.25.64,1.44,1.44,0,0,1-1.26-.64,2.92,2.92,0,0,1,0-2.71Zm.68,2.33a.64.64,0,0,0,.58.31.62.62,0,0,0,.57-.31,2.33,2.33,0,0,0,0-1.94.62.62,0,0,0-.57-.31.63.63,0,0,0-.58.31,2.39,2.39,0,0,0,0,1.94Z"/><path class="cls-13" d="M135.62,69.14V66.59h-.92V66a1,1,0,0,0,1-.72h.7v3.81Z"/><path class="cls-13" d="M139.85,66.07a1.63,1.63,0,0,0-.63-.13A1.19,1.19,0,0,0,138,67a1.08,1.08,0,0,1,.9-.42,1.22,1.22,0,0,1,1.32,1.28,1.37,1.37,0,0,1-1.47,1.34,1.56,1.56,0,0,1-1.55-1.75,2.05,2.05,0,0,1,2.12-2.24,1.66,1.66,0,0,1,.8.18Zm-1.15,2.47a.64.64,0,1,0-.67-.64A.64.64,0,0,0,138.69,68.55Z"/><path class="cls-10" d="M70.29,64.56s-.82,12,12.84,24"/><path class="cls-10" d="M145.83,47.18s4.49,14.7-1.88,28.09"/><path class="cls-14" d="M120.41,25.66a33.58,33.58,0,0,1,14,9.21"/><path class="cls-7" d="M263.91,33.25a1.68,1.68,0,1,1-1.68,1.7A1.68,1.68,0,0,1,263.91,33.25Zm-1.35,15V38.23h2.72V48.29Z"/><path class="cls-7" d="M271.21,42.83v5.46h-2.82V33.8h5.42a4.52,4.52,0,1,1,0,9Zm2.25-2.43a2.08,2.08,0,1,0,0-4.15h-2.23V40.4Z"/><path class="cls-7" d="M286.46,40.93a4.11,4.11,0,0,0-.82-.08c-1.39,0-2.6.67-2.6,2.84v4.6h-2.72V38.23H283v1.49a3,3,0,0,1,2.86-1.57,6.21,6.21,0,0,1,.63,0Z"/><path class="cls-7" d="M289.73,33.25a1.68,1.68,0,1,1-1.68,1.7A1.68,1.68,0,0,1,289.73,33.25Zm-1.35,15V38.23h2.72V48.29Z"/><path class="cls-7" d="M296,43.26a2.59,2.59,0,0,0,2.58,2.84,2.3,2.3,0,0,0,2.31-1.7l2.39.8a4.67,4.67,0,0,1-4.7,3.39,5.2,5.2,0,0,1-5.29-5.33,5.15,5.15,0,0,1,5.21-5.33,4.6,4.6,0,0,1,4.72,3.39l-2.43.82a2.19,2.19,0,0,0-2.23-1.7A2.56,2.56,0,0,0,296,43.26Z"/><path class="cls-7" d="M314.16,45.41a4.53,4.53,0,0,1-4.58,3.19,5.09,5.09,0,0,1-5.19-5.38,5,5,0,0,1,4.95-5.29c3.11,0,5,2,5,5.21,0,.39,0,.8,0,.84h-7.2a2.45,2.45,0,0,0,2.53,2.29,2.22,2.22,0,0,0,2.29-1.53Zm-2.53-3.29a2,2,0,0,0-2.25-2,2.18,2.18,0,0,0-2.25,2Z"/><path class="cls-7" d="M321.7,48.29V33.8h9.08v2.66h-6.25v3.31h5.66v2.51h-5.66v3.35h6.25v2.66Z"/><path class="cls-7" d="M332.83,43.43V41h5.93v2.41Z"/><path class="cls-7" d="M340.47,41.06a7.31,7.31,0,0,1,7.38-7.56c4,0,6.07,2.45,6.64,4.8l-2.66.84a3.79,3.79,0,0,0-4-2.92,4.46,4.46,0,0,0-4.46,4.84,4.47,4.47,0,0,0,4.5,4.78,4,4,0,0,0,4.07-3l2.64.8a6.59,6.59,0,0,1-6.7,4.93A7.24,7.24,0,0,1,340.47,41.06Z"/><path class="cls-7" d="M366.19,43.26a5.27,5.27,0,1,1-5.27-5.33A5.16,5.16,0,0,1,366.19,43.26Zm-2.72,0a2.57,2.57,0,1,0-5.11,0,2.57,2.57,0,1,0,5.11,0Z"/><path class="cls-7" d="M368.33,48.29V38.23h2.6v1.23a3.46,3.46,0,0,1,2.94-1.51,3.11,3.11,0,0,1,3,1.68,3.72,3.72,0,0,1,6.83,2.15v6.52H381v-6a1.68,1.68,0,0,0-1.78-1.9,1.85,1.85,0,0,0-1.86,2v5.89h-2.7v-6a1.69,1.69,0,0,0-1.78-1.9,1.84,1.84,0,0,0-1.88,2v5.89Z"/><path class="cls-7" d="M386.45,48.29V38.23H389v1.23A3.46,3.46,0,0,1,392,37.95a3.11,3.11,0,0,1,3,1.68,3.72,3.72,0,0,1,6.83,2.15v6.52h-2.64v-6a1.68,1.68,0,0,0-1.78-1.9,1.85,1.85,0,0,0-1.86,2v5.89h-2.7v-6a1.69,1.69,0,0,0-1.78-1.9,1.84,1.84,0,0,0-1.88,2v5.89Z"/><path class="cls-7" d="M413.57,45.41A4.53,4.53,0,0,1,409,48.6a5.09,5.09,0,0,1-5.19-5.38,5,5,0,0,1,4.95-5.29c3.11,0,5,2,5,5.21,0,.39,0,.8,0,.84h-7.2A2.45,2.45,0,0,0,409,46.27a2.22,2.22,0,0,0,2.29-1.53ZM411,42.12a2,2,0,0,0-2.25-2,2.18,2.18,0,0,0-2.25,2Z"/><path class="cls-7" d="M422,40.93a4.11,4.11,0,0,0-.82-.08c-1.39,0-2.6.67-2.6,2.84v4.6h-2.72V38.23h2.64v1.49a3,3,0,0,1,2.86-1.57,6.21,6.21,0,0,1,.63,0Z"/><path class="cls-7" d="M425.78,43.26a2.59,2.59,0,0,0,2.58,2.84,2.3,2.3,0,0,0,2.31-1.7l2.39.8a4.67,4.67,0,0,1-4.7,3.39,5.2,5.2,0,0,1-5.29-5.33,5.15,5.15,0,0,1,5.21-5.33A4.6,4.6,0,0,1,433,41.32l-2.43.82a2.19,2.19,0,0,0-2.23-1.7A2.56,2.56,0,0,0,425.78,43.26Z"/><path class="cls-7" d="M444,45.41a4.53,4.53,0,0,1-4.58,3.19,5.09,5.09,0,0,1-5.19-5.38,5,5,0,0,1,4.95-5.29c3.11,0,5,2,5,5.21,0,.39,0,.8,0,.84h-7.2a2.45,2.45,0,0,0,2.53,2.29,2.22,2.22,0,0,0,2.29-1.53Zm-2.53-3.29a2,2,0,0,0-2.25-2,2.18,2.18,0,0,0-2.25,2Z"/><path class="cls-7" d="M276.16,68.27V58.11L272,68.27h-2.35l-4.17-10.08V68.27h-2.7V53.78h3.72l4.35,10.47,4.25-10.47h3.84V68.27Z"/><path class="cls-7" d="M291,65.39a4.53,4.53,0,0,1-4.58,3.19,5.34,5.34,0,0,1-.25-10.67c3.11,0,5,2,5,5.21,0,.39,0,.8,0,.84h-7.2a2.45,2.45,0,0,0,2.53,2.29,2.22,2.22,0,0,0,2.29-1.53Zm-2.53-3.29a2,2,0,0,0-2.25-2,2.18,2.18,0,0,0-2.25,2Z"/><path class="cls-7" d="M299.42,60.91a4.09,4.09,0,0,0-.82-.08c-1.39,0-2.6.68-2.6,2.84v4.6h-2.72V58.21h2.64v1.49a3,3,0,0,1,2.86-1.57,6.32,6.32,0,0,1,.63,0Z"/><path class="cls-7" d="M303.2,63.24a2.59,2.59,0,0,0,2.58,2.84,2.3,2.3,0,0,0,2.31-1.7l2.39.8a4.67,4.67,0,0,1-4.7,3.39,5.2,5.2,0,0,1-5.29-5.33,5.15,5.15,0,0,1,5.21-5.33,4.6,4.6,0,0,1,4.72,3.39l-2.43.82a2.19,2.19,0,0,0-2.23-1.7A2.56,2.56,0,0,0,303.2,63.24Z"/><path class="cls-7" d="M315.2,68.27h-2.72V53.47h2.72v5.58a3.59,3.59,0,0,1,2.72-1.1c2.55,0,3.74,1.78,3.74,4v6.34h-2.72V62.4a1.77,1.77,0,0,0-1.86-2,1.88,1.88,0,0,0-1.88,2Z"/><path class="cls-7" d="M326.82,62.49l2.47-.37c.57-.08.76-.37.76-.72,0-.72-.55-1.31-1.7-1.31a1.79,1.79,0,0,0-1.92,1.64L324,61.22c.16-1.57,1.61-3.31,4.31-3.31,3.19,0,4.37,1.8,4.37,3.82v4.95a11.29,11.29,0,0,0,.12,1.59h-2.49a6.8,6.8,0,0,1-.1-1.21,3.36,3.36,0,0,1-3,1.49,3.18,3.18,0,0,1-3.45-3C323.81,63.73,325.14,62.73,326.82,62.49ZM330,64.2v-.45l-2.27.35a1.27,1.27,0,0,0-1.25,1.27,1.18,1.18,0,0,0,1.31,1.16A2,2,0,0,0,330,64.2Z"/><path class="cls-7" d="M338.16,68.27h-2.72V58.21h2.64v1.25a3.34,3.34,0,0,1,2.9-1.51c2.49,0,3.64,1.78,3.64,4v6.34H341.9V62.4a1.77,1.77,0,0,0-1.86-2,1.89,1.89,0,0,0-1.88,2.08Z"/><path class="cls-7" d="M350.73,58.21h2v2.41h-2v4.21c0,.88.41,1.17,1.19,1.17a4,4,0,0,0,.84-.08v2.25a4,4,0,0,1-1.53.25A2.91,2.91,0,0,1,348,65.31V60.62h-1.82V58.21h.51a1.45,1.45,0,0,0,1.55-1.59V55.21h2.45Z"/><path class="cls-7" d="M271.39,84.94h-5.89l-1.21,3.31h-3l5.56-14.49h3.27l5.52,14.49H272.6Zm-4.95-2.58h4l-2-5.48Z"/><path class="cls-7" d="M285.27,78.19l2.17,6.48,1.86-6.48H292l-3.15,10.06h-2.72l-2.35-6.87-2.31,6.87h-2.76L275.5,78.19h2.86l1.86,6.46,2.19-6.46Z"/><path class="cls-7" d="M296,82.46l2.47-.37c.57-.08.76-.37.76-.72,0-.72-.55-1.31-1.7-1.31a1.79,1.79,0,0,0-1.92,1.64l-2.41-.51c.16-1.57,1.61-3.31,4.31-3.31,3.19,0,4.37,1.8,4.37,3.82v4.95a11.31,11.31,0,0,0,.12,1.59h-2.49a6.8,6.8,0,0,1-.1-1.21,3.36,3.36,0,0,1-3,1.49,3.18,3.18,0,0,1-3.45-3C293,83.71,294.37,82.71,296,82.46Zm3.23,1.72v-.45l-2.27.35a1.27,1.27,0,0,0-1.25,1.27,1.18,1.18,0,0,0,1.31,1.17A2,2,0,0,0,299.28,84.18Z"/><path class="cls-7" d="M310.81,80.89a4.14,4.14,0,0,0-.82-.08c-1.39,0-2.6.67-2.6,2.84v4.6h-2.72V78.19h2.64v1.49a3,3,0,0,1,2.86-1.57,6.1,6.1,0,0,1,.63,0Z"/><path class="cls-7" d="M322.22,86.43c0,.67,0,1.41.08,1.82h-2.6a7,7,0,0,1-.1-1.17,3.15,3.15,0,0,1-2.82,1.41c-2.86,0-4.91-2.25-4.91-5.29s2-5.25,4.82-5.25c1.74,0,2.55.72,2.84,1.25V73.45h2.68Zm-5.11-.37c1.39,0,2.47-1.06,2.47-2.88a2.49,2.49,0,0,0-2.47-2.8,2.52,2.52,0,0,0-2.49,2.82C314.61,85,315.67,86.06,317.1,86.06Z"/><path class="cls-7" d="M326.63,84.94a1.67,1.67,0,0,0,1.84,1.53c.9,0,1.33-.47,1.33-1s-.31-.82-1.08-1l-1.33-.31c-1.94-.43-2.82-1.59-2.82-3a3.51,3.51,0,0,1,3.76-3.29c2.86,0,3.82,1.82,3.95,2.9L330,81.3a1.53,1.53,0,0,0-1.66-1.35,1.16,1.16,0,0,0-1.29,1c0,.49.37.8.92.9l1.43.31c2,.41,3,1.61,3,3.09,0,1.64-1.27,3.31-3.9,3.31-3,0-4.07-2-4.19-3.11Z"/><path class="cls-7" d="M339,80a5,5,0,0,1-.1-.92c0-2.33,1.76-4.44,4.84-4.44s4.78,2,4.78,4.27A4.76,4.76,0,0,1,346,83.06l-2.56,1.55a2.7,2.7,0,0,0-1.14,1.21h6.36v2.43h-9.81A6.05,6.05,0,0,1,342,82.59l2.19-1.31A2.59,2.59,0,0,0,345.72,79a1.81,1.81,0,0,0-2-1.82,2,2,0,0,0-2.11,2.21,2.89,2.89,0,0,0,.1.74Z"/><path class="cls-7" d="M351.29,76.9a5,5,0,0,1,4.37-2.23A5,5,0,0,1,360,76.9a10,10,0,0,1,0,9.44,5,5,0,0,1-4.35,2.23,5,5,0,0,1-4.37-2.23,8.46,8.46,0,0,1-1.16-4.72A8.46,8.46,0,0,1,351.29,76.9ZM353.66,85a2.21,2.21,0,0,0,2,1.08,2.16,2.16,0,0,0,2-1.08,6.21,6.21,0,0,0,.74-3.37,6.21,6.21,0,0,0-.74-3.37,2.16,2.16,0,0,0-2-1.08,2.21,2.21,0,0,0-2,1.08,8.31,8.31,0,0,0,0,6.75Z"/><path class="cls-7" d="M365.64,88.25V79.38h-3.19v-1.9A3.39,3.39,0,0,0,366,75h2.43V88.25Z"/><path class="cls-7" d="M380.35,77.58a5.66,5.66,0,0,0-2.19-.47,4.16,4.16,0,0,0-4.39,3.8,3.75,3.75,0,0,1,3.15-1.47,4.25,4.25,0,0,1,4.58,4.46c0,2.72-2.21,4.66-5.13,4.66S371,86.47,371,82.46c0-4.76,3-7.79,7.36-7.79a5.77,5.77,0,0,1,2.78.61Zm-4,8.61A2.22,2.22,0,1,0,374,84,2.24,2.24,0,0,0,376.35,86.18Z"/><path class="cls-5" d="M268,97.2A1.93,1.93,0,0,0,266,95.61,1.6,1.6,0,0,0,264.2,97c0,.62.4,1.11,1.23,1.27l1.58.3c2.05.4,3.15,1.74,3.15,3.33s-1.45,3.49-4.07,3.49c-3,0-4.31-1.93-4.49-3.53l2-.54a2.27,2.27,0,0,0,2.47,2.12c1.18,0,1.83-.59,1.83-1.39s-.49-1.16-1.37-1.34l-1.58-.32a3.29,3.29,0,0,1-3-3.23A3.74,3.74,0,0,1,266,93.67c2.74,0,3.79,1.66,4,2.93Z"/><path class="cls-5" d="M272.88,93.48a1.31,1.31,0,1,1-1.31,1.32A1.3,1.3,0,0,1,272.88,93.48Zm-1.05,11.72V97.36h2.12v7.83Z"/><path class="cls-5" d="M278.32,105.19H276.2V97.36h2.05v1a2.6,2.6,0,0,1,2.26-1.18c1.94,0,2.83,1.39,2.83,3.1v4.93h-2.12v-4.57a1.38,1.38,0,0,0-1.45-1.56,1.47,1.47,0,0,0-1.46,1.62Z"/><path class="cls-5" d="M286.86,105.11a1.75,1.75,0,0,0,1.83,1.48c1.34,0,2.09-.67,2.09-2.18v-.57a2.49,2.49,0,0,1-2.18,1,3.63,3.63,0,0,1-3.65-3.8,3.67,3.67,0,0,1,3.65-3.82,2.37,2.37,0,0,1,2.23,1.07v-.92h2v7a3.79,3.79,0,0,1-4.11,4.11,3.61,3.61,0,0,1-3.8-2.83ZM290.8,101a1.87,1.87,0,1,0-1.85,2A1.82,1.82,0,0,0,290.8,101Z"/><path class="cls-5" d="M296.79,100.69l1.93-.29c.45-.06.59-.29.59-.56,0-.56-.43-1-1.32-1a1.39,1.39,0,0,0-1.5,1.27l-1.88-.4A3.11,3.11,0,0,1,298,97.12c2.48,0,3.41,1.4,3.41,3V104a8.77,8.77,0,0,0,.1,1.24h-1.94a5.31,5.31,0,0,1-.08-.94,2.62,2.62,0,0,1-2.31,1.16,2.47,2.47,0,0,1-2.69-2.36A2.41,2.41,0,0,1,296.79,100.69ZM299.3,102v-.35l-1.77.27a1,1,0,0,0-1,1,.92.92,0,0,0,1,.91A1.59,1.59,0,0,0,299.3,102Z"/><path class="cls-5" d="M303.51,108.22V97.36h2.05v1a2.74,2.74,0,0,1,2.4-1.13c2.29,0,3.61,1.75,3.61,4.07s-1.48,4.12-3.69,4.12a2.75,2.75,0,0,1-2.26-1v3.79Zm4-9.14a2.22,2.22,0,1,0,1.94,2.2A2,2,0,0,0,307.55,99.08Z"/><path class="cls-5" d="M320.88,101.28a4.11,4.11,0,1,1-4.11-4.15A4,4,0,0,1,320.88,101.28Zm-2.12,0a2,2,0,1,0-2,2.23A2,2,0,0,0,318.76,101.28Z"/><path class="cls-5" d="M327.32,99.46a3.16,3.16,0,0,0-.64-.06c-1.08,0-2,.52-2,2.21v3.58h-2.12V97.36h2.05v1.16a2.33,2.33,0,0,1,2.23-1.23,4.72,4.72,0,0,1,.49,0Z"/><path class="cls-5" d="M335.76,103a3.53,3.53,0,0,1-3.57,2.48,4.16,4.16,0,0,1-.19-8.31c2.42,0,3.87,1.54,3.87,4.06,0,.3,0,.62,0,.65h-5.6a1.91,1.91,0,0,0,2,1.78,1.73,1.73,0,0,0,1.78-1.19Zm-2-2.56A1.58,1.58,0,0,0,332,98.84a1.69,1.69,0,0,0-1.75,1.54Z"/></svg>