<svg id="Layer_1" data-name="Layer 1" xmlns="http://www.w3.org/2000/svg" xmlns:xlink="http://www.w3.org/1999/xlink" viewBox="0 0 1024 300"><defs><style>.cls-1,.cls-10,.cls-11,.cls-12,.cls-15,.cls-16,.cls-19,.cls-21,.cls-22,.cls-24,.cls-25,.cls-26,.cls-29,.cls-5{fill:none;}.cls-2{clip-path:url(#clip-path);}.cls-3{fill:#f7f7f7;}.cls-27,.cls-28,.cls-4{fill:#fff;}.cls-10,.cls-11,.cls-15,.cls-16,.cls-19,.cls-23,.cls-24,.cls-25,.cls-5{stroke:#fff;}.cls-10,.cls-11,.cls-12,.cls-16,.cls-19,.cls-21,.cls-22,.cls-23,.cls-24,.cls-25,.cls-26,.cls-5{stroke-miterlimit:10;}.cls-21,.cls-5{stroke-width:0.74px;}.cls-6{fill:#3cc;}.cls-7{opacity:0.09;}.cls-8{clip-path:url(#clip-path-2);}.cls-9{fill:#086a87;}.cls-10{stroke-width:0.28px;}.cls-11{stroke-width:0.39px;}.cls-12,.cls-22,.cls-26,.cls-28{stroke:#086a87;}.cls-12{stroke-width:1.76px;}.cls-13,.cls-23{fill:#f63;}.cls-14{clip-path:url(#clip-path-3);}.cls-15,.cls-27,.cls-28,.cls-29{stroke-linecap:round;stroke-linejoin:round;}.cls-15{stroke-width:1.27px;}.cls-16{stroke-width:0.36px;}.cls-17{clip-path:url(#clip-path-4);}.cls-18{clip-path:url(#clip-path-5);}.cls-19{stroke-width:0.55px;}.cls-20{fill:#666;}.cls-21{stroke:#666;}.cls-22{stroke-width:0.64px;}.cls-23{stroke-width:1.41px;}.cls-24{stroke-width:0.31px;}.cls-25{stroke-width:0.76px;}.cls-26{stroke-width:0.35px;}.cls-27,.cls-29{stroke:#3cc;}.cls-27{stroke-width:0.69px;}.cls-28{stroke-width:0.67px;}.cls-29{stroke-width:0.7px;}</style><clipPath id="clip-path"><rect class="cls-1" width="1024" height="300"/></clipPath><clipPath id="clip-path-2"><path class="cls-1" d="M722.23-.21S745.61,4,749.53,24.84s-7.4,42,21.07,32.81S785,85.2,779.17,85.2s-5.81,12.24,0,9.18,12.44-2.76,8.57,9.18c-3,9.18,67.11,10.72,111.62-20.37a71.86,71.86,0,0,0,30.5-59V-2.12H721.93Z"/></clipPath><clipPath id="clip-path-3"><circle class="cls-1" cx="840.65" cy="304.52" r="82.48"/></clipPath><clipPath id="clip-path-4"><path class="cls-1" d="M913.29,302.2a76.84,76.84,0,1,1,153.67,0Z"/></clipPath><clipPath id="clip-path-5"><rect class="cls-1" x="528.99" y="147.39" width="553.94" height="176.16"/></clipPath></defs><title>iema_header_desktop</title><g class="cls-2"><rect class="cls-3" width="1024" height="300"/><rect class="cls-4" x="762.54" y="207.43" width="11.26" height="266.39"/><rect class="cls-4" x="748.61" y="207.43" width="11.26" height="266.39"/><rect class="cls-4" x="734.67" y="207.43" width="11.26" height="266.39"/><rect class="cls-4" x="726.37" y="207.43" width="5.63" height="266.39"/><rect class="cls-4" x="812.63" y="207.43" width="5.63" height="266.39"/><rect class="cls-4" x="892.3" y="207.43" width="5.63" height="266.39"/><rect class="cls-4" x="886.5" y="207.43" width="2.82" height="266.39"/><rect class="cls-4" x="776.64" y="207.43" width="3.08" height="266.39"/><rect class="cls-4" x="781.44" y="207.43" width="3.08" height="266.39"/><rect class="cls-4" x="786.24" y="207.43" width="3.08" height="266.39"/><rect class="cls-4" x="791.04" y="207.43" width="3.08" height="266.39"/><rect class="cls-4" x="795.83" y="207.43" width="3.08" height="266.39"/><rect class="cls-4" x="800.63" y="207.43" width="3.08" height="266.39"/><rect class="cls-4" x="805.43" y="207.43" width="3.08" height="266.39"/><rect class="cls-4" x="821.57" y="207.43" width="18.35" height="266.39"/><rect class="cls-4" x="843.37" y="207.43" width="18.35" height="266.39"/><rect class="cls-4" x="865.16" y="207.43" width="18.35" height="266.39"/><path class="cls-5" d="M170,149.5a3.77,3.77,0,1,1-3.77,3.81A3.77,3.77,0,0,1,170,149.5Zm-3,33.82V160.71H173v22.61Z"/><path class="cls-5" d="M180,183.32V150.74h20.4v6H186.37v7.44H199.1v5.65H186.37v7.54h14.06v6Z"/><path class="cls-5" d="M236.88,183.32V160.48l-9.37,22.84h-5.28l-9.37-22.65v22.65h-6.07V150.74h8.36l9.79,23.53,9.56-23.53h8.64v32.58Z"/><path class="cls-5" d="M270,175.88H256.74L254,183.32h-6.71l12.5-32.58h7.35l12.41,32.58h-6.89Zm-11.12-5.79h9l-4.5-12.31Z"/><rect class="cls-3" x="150.38" y="156.63" width="145.01" height="27.64"/><path class="cls-5" d="M170,159.45a3.77,3.77,0,1,1-3.77,3.81A3.77,3.77,0,0,1,170,159.45Zm-3,33.82V170.66H173v22.61Z"/><path class="cls-5" d="M180,193.26V160.69h20.4v6H186.37v7.44H199.1v5.65H186.37v7.54h14.06v6Z"/><path class="cls-5" d="M236.88,193.26V170.43l-9.37,22.84h-5.28l-9.37-22.65v22.65h-6.07V160.69h8.36l9.79,23.53,9.56-23.53h8.64v32.58Z"/><path class="cls-5" d="M270,185.82H256.74L254,193.26h-6.71l12.5-32.58h7.35l12.41,32.58h-6.89ZM258.85,180h9l-4.5-12.31Z"/><rect class="cls-3" x="150.38" y="172.29" width="145.01" height="27.64"/><path class="cls-5" d="M170,174.82a3.77,3.77,0,1,1-3.77,3.81A3.77,3.77,0,0,1,170,174.82Zm-3,33.82V186H173v22.61Z"/><path class="cls-5" d="M180,208.64V176.07h20.4v6H186.37v7.44H199.1v5.65H186.37v7.54h14.06v6Z"/><path class="cls-5" d="M236.88,208.64V185.81l-9.37,22.84h-5.28L212.85,186v22.65h-6.07V176.07h8.36l9.79,23.53,9.56-23.53h8.64v32.58Z"/><path class="cls-5" d="M270,201.2H256.74L254,208.64h-6.71l12.5-32.58h7.35l12.41,32.58h-6.89Zm-11.12-5.79h9l-4.5-12.31Z"/><rect class="cls-3" x="150.38" y="191.73" width="145.01" height="27.64"/><path class="cls-5" d="M170,194.59a3.77,3.77,0,1,1-3.77,3.81A3.77,3.77,0,0,1,170,194.59Zm-3,33.82V205.8H173v22.61Z"/><path class="cls-5" d="M180,228.41V195.83h20.4v6H186.37v7.44H199.1v5.65H186.37v7.54h14.06v6Z"/><path class="cls-5" d="M236.88,228.41V205.57l-9.37,22.84h-5.28l-9.37-22.65v22.65h-6.07V195.83h8.36l9.79,23.53,9.56-23.53h8.64v32.58Z"/><path class="cls-5" d="M270,221H256.74L254,228.41h-6.71l12.5-32.58h7.35l12.41,32.58h-6.89Zm-11.12-5.79h9l-4.5-12.31Z"/><rect class="cls-3" x="150.38" y="215.14" width="145.01" height="27.64"/><path class="cls-5" d="M170,217.93a3.77,3.77,0,1,1-3.77,3.81A3.77,3.77,0,0,1,170,217.93Zm-3,33.82V229.14H173v22.61Z"/><path class="cls-5" d="M180,251.75V219.17h20.4v6H186.37v7.44H199.1v5.65H186.37v7.54h14.06v6Z"/><path class="cls-5" d="M236.88,251.75V228.91l-9.37,22.84h-5.28l-9.37-22.65v22.65h-6.07V219.17h8.36l9.79,23.53,9.56-23.53h8.64v32.58Z"/><path class="cls-5" d="M270,244.31H256.74L254,251.75h-6.71l12.5-32.58h7.35l12.41,32.58h-6.89Zm-11.12-5.79h9l-4.5-12.31Z"/><rect class="cls-3" x="150.38" y="241.62" width="145.01" height="40.7"/><path class="cls-5" d="M170,244.45a3.77,3.77,0,1,1-3.77,3.81A3.77,3.77,0,0,1,170,244.45Zm-3,33.82V255.66H173v22.61Z"/><path class="cls-5" d="M180,278.27V245.69h20.4v6H186.37v7.44H199.1v5.65H186.37v7.54h14.06v6Z"/><path class="cls-5" d="M236.88,278.27V255.43l-9.37,22.84h-5.28l-9.37-22.65v22.65h-6.07V245.69h8.36l9.79,23.53,9.56-23.53h8.64v32.58Z"/><path class="cls-5" d="M270,270.83H256.74L254,278.27h-6.71l12.5-32.58h7.35l12.41,32.58h-6.89ZM258.85,265h9l-4.5-12.31Z"/><rect class="cls-3" x="150.38" y="270.83" width="145.01" height="27.64"/><path class="cls-4" d="M170,273.66a3.77,3.77,0,1,1-3.77,3.81A3.77,3.77,0,0,1,170,273.66Z"/><rect class="cls-4" x="166.94" y="284.87" width="6.11" height="22.61"/><path class="cls-4" d="M180,307.48V274.9h20.4v6H186.37v7.44H199.1V294H186.37v7.54h14.06v6Z"/><path class="cls-4" d="M236.88,307.48V284.64l-9.37,22.84h-5.28l-9.37-22.65v22.65h-6.07V274.9h8.36l9.79,23.53,9.56-23.53h8.64v32.58Z"/><path class="cls-4" d="M270,300H256.74L254,307.48h-6.71l12.5-32.58h7.35l12.41,32.58h-6.89Zm-11.12-5.79h9l-4.5-12.31Z"/><rect class="cls-4" x="-116.76" y="-5.05" width="9.2" height="417.48" transform="translate(113.34 146.95) rotate(47.04)"/><rect class="cls-6" x="-110.48" y="1.68" width="9.2" height="417.48" transform="translate(120.26 144.5) rotate(47.04)"/><rect class="cls-4" x="-104.21" y="8.42" width="9.2" height="417.48" transform="translate(127.19 142.06) rotate(47.04)"/><rect class="cls-6" x="-97.94" y="15.15" width="9.2" height="417.48" transform="translate(134.11 139.61) rotate(47.04)"/><rect class="cls-4" x="-91.67" y="21.89" width="9.2" height="417.48" transform="translate(141.04 137.17) rotate(47.04)"/><rect class="cls-6" x="-85.4" y="28.62" width="9.2" height="417.48" transform="translate(147.97 134.72) rotate(47.04)"/><rect class="cls-4" x="-79.13" y="35.35" width="9.2" height="417.48" transform="translate(154.89 132.28) rotate(47.04)"/><rect class="cls-6" x="-72.86" y="42.09" width="9.2" height="417.48" transform="translate(161.82 129.83) rotate(47.04)"/><rect class="cls-4" x="-66.58" y="48.82" width="9.2" height="417.48" transform="translate(168.74 127.39) rotate(47.04)"/><rect class="cls-6" x="-60.31" y="55.56" width="9.2" height="417.48" transform="translate(175.67 124.94) rotate(47.04)"/><rect class="cls-4" x="-54.04" y="62.29" width="9.2" height="417.48" transform="translate(182.59 122.5) rotate(47.04)"/><rect class="cls-6" x="-47.77" y="69.02" width="9.2" height="417.48" transform="translate(189.52 120.05) rotate(47.04)"/><rect class="cls-4" x="-41.5" y="75.76" width="9.2" height="417.48" transform="translate(196.44 117.61) rotate(47.04)"/><rect class="cls-6" x="-35.23" y="82.49" width="9.2" height="417.48" transform="translate(203.37 115.16) rotate(47.04)"/><rect class="cls-4" x="-28.95" y="89.23" width="9.2" height="417.48" transform="translate(210.29 112.72) rotate(47.04)"/><rect class="cls-6" x="-22.68" y="95.96" width="9.2" height="417.48" transform="translate(217.22 110.27) rotate(47.04)"/><rect class="cls-4" x="-16.41" y="102.7" width="9.2" height="417.48" transform="translate(224.15 107.83) rotate(47.04)"/><rect class="cls-6" x="-10.14" y="109.43" width="9.2" height="417.48" transform="translate(231.07 105.38) rotate(47.04)"/><rect class="cls-4" x="-3.87" y="116.16" width="9.2" height="417.48" transform="translate(238 102.94) rotate(47.04)"/><rect class="cls-6" x="2.4" y="122.9" width="9.2" height="417.48" transform="translate(244.92 100.49) rotate(47.04)"/><rect class="cls-4" x="8.67" y="129.63" width="9.2" height="417.48" transform="translate(251.85 98.05) rotate(47.04)"/><rect class="cls-6" x="14.95" y="136.37" width="9.2" height="417.48" transform="translate(258.77 95.6) rotate(47.04)"/><g class="cls-7"><g class="cls-8"><circle class="cls-6" cx="822.03" cy="2.54" r="2.76"/><circle class="cls-6" cx="830.6" cy="2.54" r="2.76"/><circle class="cls-6" cx="839.17" cy="2.54" r="2.76"/><circle class="cls-6" cx="847.74" cy="2.54" r="2.76"/><circle class="cls-6" cx="856.31" cy="2.54" r="2.76"/><circle class="cls-6" cx="864.88" cy="2.54" r="2.76"/><circle class="cls-6" cx="873.45" cy="2.54" r="2.76"/><circle class="cls-6" cx="882.02" cy="2.54" r="2.76"/><circle class="cls-6" cx="890.6" cy="2.54" r="2.76"/><circle class="cls-6" cx="899.17" cy="2.54" r="2.76"/><circle class="cls-6" cx="907.74" cy="2.54" r="2.76"/><circle class="cls-6" cx="916.31" cy="2.54" r="2.76"/><circle class="cls-6" cx="924.88" cy="2.54" r="2.76"/><circle class="cls-6" cx="822.03" cy="11.73" r="2.76"/><circle class="cls-6" cx="830.6" cy="11.73" r="2.76"/><circle class="cls-6" cx="839.17" cy="11.73" r="2.76"/><circle class="cls-6" cx="847.74" cy="11.73" r="2.76"/><circle class="cls-6" cx="856.31" cy="11.73" r="2.76"/><circle class="cls-6" cx="864.88" cy="11.73" r="2.76"/><circle class="cls-6" cx="873.45" cy="11.73" r="2.76"/><circle class="cls-6" cx="882.02" cy="11.73" r="2.76"/><circle class="cls-6" cx="890.6" cy="11.73" r="2.76"/><circle class="cls-6" cx="899.17" cy="11.73" r="2.76"/><circle class="cls-6" cx="907.74" cy="11.73" r="2.76"/><circle class="cls-6" cx="916.31" cy="11.73" r="2.76"/><circle class="cls-6" cx="924.88" cy="11.73" r="2.76"/><circle class="cls-6" cx="822.03" cy="20.91" r="2.76"/><circle class="cls-6" cx="830.6" cy="20.91" r="2.76"/><circle class="cls-6" cx="839.17" cy="20.91" r="2.76"/><circle class="cls-6" cx="847.74" cy="20.91" r="2.76"/><circle class="cls-6" cx="856.31" cy="20.91" r="2.76"/><circle class="cls-6" cx="864.88" cy="20.91" r="2.76"/><circle class="cls-6" cx="873.45" cy="20.91" r="2.76"/><circle class="cls-6" cx="882.02" cy="20.91" r="2.76"/><circle class="cls-6" cx="890.6" cy="20.91" r="2.76"/><circle class="cls-6" cx="899.17" cy="20.91" r="2.76"/><circle class="cls-6" cx="907.74" cy="20.91" r="2.76"/><circle class="cls-6" cx="916.31" cy="20.91" r="2.76"/><circle class="cls-6" cx="924.88" cy="20.91" r="2.76"/><circle class="cls-6" cx="822.03" cy="30.1" r="2.76"/><circle class="cls-6" cx="830.6" cy="30.1" r="2.76"/><circle class="cls-6" cx="839.17" cy="30.1" r="2.76"/><circle class="cls-6" cx="847.74" cy="30.1" r="2.76"/><circle class="cls-6" cx="856.31" cy="30.1" r="2.76"/><circle class="cls-6" cx="864.88" cy="30.1" r="2.76"/><circle class="cls-6" cx="873.45" cy="30.1" r="2.76"/><circle class="cls-6" cx="882.02" cy="30.1" r="2.76"/><circle class="cls-6" cx="890.6" cy="30.1" r="2.76"/><circle class="cls-6" cx="899.17" cy="30.1" r="2.76"/><circle class="cls-6" cx="907.74" cy="30.1" r="2.76"/><circle class="cls-6" cx="916.31" cy="30.1" r="2.76"/><circle class="cls-6" cx="924.88" cy="30.1" r="2.76"/><circle class="cls-6" cx="822.03" cy="39.28" r="2.76"/><circle class="cls-6" cx="830.6" cy="39.28" r="2.76"/><circle class="cls-6" cx="839.17" cy="39.28" r="2.76"/><circle class="cls-6" cx="847.74" cy="39.28" r="2.76"/><circle class="cls-6" cx="856.31" cy="39.28" r="2.76"/><circle class="cls-6" cx="864.88" cy="39.28" r="2.76"/><circle class="cls-6" cx="873.45" cy="39.28" r="2.76"/><circle class="cls-6" cx="882.02" cy="39.28" r="2.76"/><circle class="cls-6" cx="890.6" cy="39.28" r="2.76"/><circle class="cls-6" cx="899.17" cy="39.28" r="2.76"/><circle class="cls-6" cx="907.74" cy="39.28" r="2.76"/><circle class="cls-6" cx="916.31" cy="39.28" r="2.76"/><circle class="cls-6" cx="924.88" cy="39.28" r="2.76"/><circle class="cls-6" cx="822.03" cy="48.46" r="2.76"/><circle class="cls-6" cx="830.6" cy="48.46" r="2.76"/><circle class="cls-6" cx="839.17" cy="48.46" r="2.76"/><circle class="cls-6" cx="847.74" cy="48.46" r="2.76"/><circle class="cls-6" cx="856.31" cy="48.46" r="2.76"/><circle class="cls-6" cx="864.88" cy="48.46" r="2.76"/><circle class="cls-6" cx="873.45" cy="48.46" r="2.76"/><circle class="cls-6" cx="882.02" cy="48.46" r="2.76"/><circle class="cls-6" cx="890.6" cy="48.46" r="2.76"/><circle class="cls-6" cx="899.17" cy="48.46" r="2.76"/><circle class="cls-6" cx="907.74" cy="48.46" r="2.76"/><circle class="cls-6" cx="916.31" cy="48.46" r="2.76"/><circle class="cls-6" cx="924.88" cy="48.46" r="2.76"/><circle class="cls-6" cx="822.03" cy="57.65" r="2.76"/><circle class="cls-6" cx="830.6" cy="57.65" r="2.76"/><circle class="cls-6" cx="839.17" cy="57.65" r="2.76"/><circle class="cls-6" cx="847.74" cy="57.65" r="2.76"/><circle class="cls-6" cx="856.31" cy="57.65" r="2.76"/><circle class="cls-6" cx="864.88" cy="57.65" r="2.76"/><circle class="cls-6" cx="873.45" cy="57.65" r="2.76"/><circle class="cls-6" cx="882.02" cy="57.65" r="2.76"/><circle class="cls-6" cx="890.6" cy="57.65" r="2.76"/><circle class="cls-6" cx="899.17" cy="57.65" r="2.76"/><circle class="cls-6" cx="907.74" cy="57.65" r="2.76"/><circle class="cls-6" cx="916.31" cy="57.65" r="2.76"/><circle class="cls-6" cx="924.88" cy="57.65" r="2.76"/><circle class="cls-6" cx="822.03" cy="66.83" r="2.76"/><circle class="cls-6" cx="830.6" cy="66.83" r="2.76"/><circle class="cls-6" cx="839.17" cy="66.83" r="2.76"/><circle class="cls-6" cx="847.74" cy="66.83" r="2.76"/><circle class="cls-6" cx="856.31" cy="66.83" r="2.76"/><circle class="cls-6" cx="864.88" cy="66.83" r="2.76"/><circle class="cls-6" cx="873.45" cy="66.83" r="2.76"/><circle class="cls-6" cx="882.02" cy="66.83" r="2.76"/><circle class="cls-6" cx="890.6" cy="66.83" r="2.76"/><circle class="cls-6" cx="899.17" cy="66.83" r="2.76"/><circle class="cls-6" cx="907.74" cy="66.83" r="2.76"/><circle class="cls-6" cx="916.31" cy="66.83" r="2.76"/><circle class="cls-6" cx="924.88" cy="66.83" r="2.76"/><circle class="cls-6" cx="822.03" cy="76.02" r="2.76"/><circle class="cls-6" cx="830.6" cy="76.02" r="2.76"/><circle class="cls-6" cx="839.17" cy="76.02" r="2.76"/><circle class="cls-6" cx="847.74" cy="76.02" r="2.76"/><circle class="cls-6" cx="856.31" cy="76.02" r="2.76"/><circle class="cls-6" cx="864.88" cy="76.02" r="2.76"/><circle class="cls-6" cx="873.45" cy="76.02" r="2.76"/><circle class="cls-6" cx="882.02" cy="76.02" r="2.76"/><circle class="cls-6" cx="890.6" cy="76.02" r="2.76"/><circle class="cls-6" cx="899.17" cy="76.02" r="2.76"/><circle class="cls-6" cx="907.74" cy="76.02" r="2.76"/><circle class="cls-6" cx="916.31" cy="76.02" r="2.76"/><circle class="cls-6" cx="924.88" cy="76.02" r="2.76"/><circle class="cls-6" cx="822.03" cy="85.2" r="2.76"/><circle class="cls-6" cx="830.6" cy="85.2" r="2.76"/><circle class="cls-6" cx="839.17" cy="85.2" r="2.76"/><circle class="cls-6" cx="847.74" cy="85.2" r="2.76"/><circle class="cls-6" cx="856.31" cy="85.2" r="2.76"/><circle class="cls-6" cx="864.88" cy="85.2" r="2.76"/><circle class="cls-6" cx="873.45" cy="85.2" r="2.76"/><circle class="cls-6" cx="882.02" cy="85.2" r="2.76"/><circle class="cls-6" cx="890.6" cy="85.2" r="2.76"/><circle class="cls-6" cx="899.17" cy="85.2" r="2.76"/><circle class="cls-6" cx="907.74" cy="85.2" r="2.76"/><circle class="cls-6" cx="916.31" cy="85.2" r="2.76"/><circle class="cls-6" cx="924.88" cy="85.2" r="2.76"/><circle class="cls-6" cx="822.03" cy="94.39" r="2.76"/><circle class="cls-6" cx="830.6" cy="94.39" r="2.76"/><circle class="cls-6" cx="839.17" cy="94.39" r="2.76"/><circle class="cls-6" cx="847.74" cy="94.39" r="2.76"/><circle class="cls-6" cx="856.31" cy="94.39" r="2.76"/><circle class="cls-6" cx="864.88" cy="94.39" r="2.76"/><circle class="cls-6" cx="873.45" cy="94.39" r="2.76"/><circle class="cls-6" cx="882.02" cy="94.39" r="2.76"/><circle class="cls-6" cx="890.6" cy="94.39" r="2.76"/><circle class="cls-6" cx="899.17" cy="94.39" r="2.76"/><circle class="cls-6" cx="907.74" cy="94.39" r="2.76"/><circle class="cls-6" cx="916.31" cy="94.39" r="2.76"/><circle class="cls-6" cx="924.88" cy="94.39" r="2.76"/><circle class="cls-6" cx="822.03" cy="103.57" r="2.76"/><circle class="cls-6" cx="830.6" cy="103.57" r="2.76"/><circle class="cls-6" cx="839.17" cy="103.57" r="2.76"/><circle class="cls-6" cx="847.74" cy="103.57" r="2.76"/><circle class="cls-6" cx="856.31" cy="103.57" r="2.76"/><circle class="cls-6" cx="864.88" cy="103.57" r="2.76"/><circle class="cls-6" cx="873.45" cy="103.57" r="2.76"/><circle class="cls-6" cx="882.02" cy="103.57" r="2.76"/><circle class="cls-6" cx="890.6" cy="103.57" r="2.76"/><circle class="cls-6" cx="899.17" cy="103.57" r="2.76"/><circle class="cls-6" cx="907.74" cy="103.57" r="2.76"/><circle class="cls-6" cx="916.31" cy="103.57" r="2.76"/><circle class="cls-6" cx="924.88" cy="103.57" r="2.76"/><circle class="cls-6" cx="822.03" cy="112.75" r="2.76"/><circle class="cls-6" cx="830.6" cy="112.75" r="2.76"/><circle class="cls-6" cx="839.17" cy="112.75" r="2.76"/><circle class="cls-6" cx="847.74" cy="112.75" r="2.76"/><circle class="cls-6" cx="856.31" cy="112.75" r="2.76"/><circle class="cls-6" cx="864.88" cy="112.75" r="2.76"/><circle class="cls-6" cx="873.45" cy="112.75" r="2.76"/><circle class="cls-6" cx="882.02" cy="112.75" r="2.76"/><circle class="cls-6" cx="890.6" cy="112.75" r="2.76"/><circle class="cls-6" cx="899.17" cy="112.75" r="2.76"/><circle class="cls-6" cx="907.74" cy="112.75" r="2.76"/><circle class="cls-6" cx="916.31" cy="112.75" r="2.76"/><circle class="cls-6" cx="924.88" cy="112.75" r="2.76"/><circle class="cls-6" cx="719.17" cy="2.54" r="2.76"/><circle class="cls-6" cx="727.75" cy="2.54" r="2.76"/><circle class="cls-6" cx="736.32" cy="2.54" r="2.76"/><circle class="cls-6" cx="744.89" cy="2.54" r="2.76"/><circle class="cls-6" cx="753.46" cy="2.54" r="2.76"/><circle class="cls-6" cx="762.03" cy="2.54" r="2.76"/><circle class="cls-6" cx="770.6" cy="2.54" r="2.76"/><circle class="cls-6" cx="779.17" cy="2.54" r="2.76"/><circle class="cls-6" cx="787.74" cy="2.54" r="2.76"/><circle class="cls-6" cx="796.31" cy="2.54" r="2.76"/><circle class="cls-6" cx="804.88" cy="2.54" r="2.76"/><circle class="cls-6" cx="813.46" cy="2.54" r="2.76"/><circle class="cls-6" cx="822.03" cy="2.54" r="2.76"/><circle class="cls-6" cx="719.17" cy="11.73" r="2.76"/><circle class="cls-6" cx="727.75" cy="11.73" r="2.76"/><circle class="cls-6" cx="736.32" cy="11.73" r="2.76"/><circle class="cls-6" cx="744.89" cy="11.73" r="2.76"/><circle class="cls-6" cx="753.46" cy="11.73" r="2.76"/><circle class="cls-6" cx="762.03" cy="11.73" r="2.76"/><circle class="cls-6" cx="770.6" cy="11.73" r="2.76"/><circle class="cls-6" cx="779.17" cy="11.73" r="2.76"/><circle class="cls-6" cx="787.74" cy="11.73" r="2.76"/><circle class="cls-6" cx="796.31" cy="11.73" r="2.76"/><circle class="cls-6" cx="804.88" cy="11.73" r="2.76"/><circle class="cls-6" cx="813.46" cy="11.73" r="2.76"/><circle class="cls-6" cx="822.03" cy="11.73" r="2.76"/><circle class="cls-6" cx="719.17" cy="20.91" r="2.76"/><circle class="cls-6" cx="727.75" cy="20.91" r="2.76"/><circle class="cls-6" cx="736.32" cy="20.91" r="2.76"/><circle class="cls-6" cx="744.89" cy="20.91" r="2.76"/><circle class="cls-6" cx="753.46" cy="20.91" r="2.76"/><circle class="cls-6" cx="762.03" cy="20.91" r="2.76"/><circle class="cls-6" cx="770.6" cy="20.91" r="2.76"/><circle class="cls-6" cx="779.17" cy="20.91" r="2.76"/><circle class="cls-6" cx="787.74" cy="20.91" r="2.76"/><circle class="cls-6" cx="796.31" cy="20.91" r="2.76"/><circle class="cls-6" cx="804.88" cy="20.91" r="2.76"/><circle class="cls-6" cx="813.46" cy="20.91" r="2.76"/><circle class="cls-6" cx="822.03" cy="20.91" r="2.76"/><circle class="cls-6" cx="719.17" cy="30.1" r="2.76"/><circle class="cls-6" cx="727.75" cy="30.1" r="2.76"/><circle class="cls-6" cx="736.32" cy="30.1" r="2.76"/><circle class="cls-6" cx="744.89" cy="30.1" r="2.76"/><circle class="cls-6" cx="753.46" cy="30.1" r="2.76"/><circle class="cls-6" cx="762.03" cy="30.1" r="2.76"/><circle class="cls-6" cx="770.6" cy="30.1" r="2.76"/><circle class="cls-6" cx="779.17" cy="30.1" r="2.76"/><circle class="cls-6" cx="787.74" cy="30.1" r="2.76"/><circle class="cls-6" cx="796.31" cy="30.1" r="2.76"/><circle class="cls-6" cx="804.88" cy="30.1" r="2.76"/><circle class="cls-6" cx="813.46" cy="30.1" r="2.76"/><circle class="cls-6" cx="822.03" cy="30.1" r="2.76"/><circle class="cls-6" cx="719.17" cy="39.28" r="2.76"/><circle class="cls-6" cx="727.75" cy="39.28" r="2.76"/><circle class="cls-6" cx="736.32" cy="39.28" r="2.76"/><circle class="cls-6" cx="744.89" cy="39.28" r="2.76"/><circle class="cls-6" cx="753.46" cy="39.28" r="2.76"/><circle class="cls-6" cx="762.03" cy="39.28" r="2.76"/><circle class="cls-6" cx="770.6" cy="39.28" r="2.76"/><circle class="cls-6" cx="779.17" cy="39.28" r="2.76"/><circle class="cls-6" cx="787.74" cy="39.28" r="2.76"/><circle class="cls-6" cx="796.31" cy="39.28" r="2.76"/><circle class="cls-6" cx="804.88" cy="39.28" r="2.76"/><circle class="cls-6" cx="813.46" cy="39.28" r="2.76"/><circle class="cls-6" cx="822.03" cy="39.28" r="2.76"/><circle class="cls-6" cx="719.17" cy="48.46" r="2.76"/><circle class="cls-6" cx="727.75" cy="48.46" r="2.76"/><circle class="cls-6" cx="736.32" cy="48.46" r="2.76"/><circle class="cls-6" cx="744.89" cy="48.46" r="2.76"/><circle class="cls-6" cx="753.46" cy="48.46" r="2.76"/><circle class="cls-6" cx="762.03" cy="48.46" r="2.76"/><circle class="cls-6" cx="770.6" cy="48.46" r="2.76"/><circle class="cls-6" cx="779.17" cy="48.46" r="2.76"/><circle class="cls-6" cx="787.74" cy="48.46" r="2.76"/><circle class="cls-6" cx="796.31" cy="48.46" r="2.76"/><circle class="cls-6" cx="804.88" cy="48.46" r="2.76"/><circle class="cls-6" cx="813.46" cy="48.46" r="2.76"/><circle class="cls-6" cx="822.03" cy="48.46" r="2.76"/><circle class="cls-6" cx="719.17" cy="57.65" r="2.76"/><circle class="cls-6" cx="727.75" cy="57.65" r="2.76"/><circle class="cls-6" cx="736.32" cy="57.65" r="2.76"/><circle class="cls-6" cx="744.89" cy="57.65" r="2.76"/><circle class="cls-6" cx="753.46" cy="57.65" r="2.76"/><circle class="cls-6" cx="762.03" cy="57.65" r="2.76"/><circle class="cls-6" cx="770.6" cy="57.65" r="2.76"/><circle class="cls-6" cx="779.17" cy="57.65" r="2.76"/><circle class="cls-6" cx="787.74" cy="57.65" r="2.76"/><circle class="cls-6" cx="796.31" cy="57.65" r="2.76"/><circle class="cls-6" cx="804.88" cy="57.65" r="2.76"/><circle class="cls-6" cx="813.46" cy="57.65" r="2.76"/><circle class="cls-6" cx="822.03" cy="57.65" r="2.76"/><circle class="cls-6" cx="719.17" cy="66.83" r="2.76"/><circle class="cls-6" cx="727.75" cy="66.83" r="2.76"/><circle class="cls-6" cx="736.32" cy="66.83" r="2.76"/><circle class="cls-6" cx="744.89" cy="66.83" r="2.76"/><circle class="cls-6" cx="753.46" cy="66.83" r="2.76"/><circle class="cls-6" cx="762.03" cy="66.83" r="2.76"/><circle class="cls-6" cx="770.6" cy="66.83" r="2.76"/><circle class="cls-6" cx="779.17" cy="66.83" r="2.76"/><circle class="cls-6" cx="787.74" cy="66.83" r="2.76"/><circle class="cls-6" cx="796.31" cy="66.83" r="2.76"/><circle class="cls-6" cx="804.88" cy="66.83" r="2.76"/><circle class="cls-6" cx="813.46" cy="66.83" r="2.76"/><circle class="cls-6" cx="822.03" cy="66.83" r="2.76"/><circle class="cls-6" cx="719.17" cy="76.02" r="2.76"/><circle class="cls-6" cx="727.75" cy="76.02" r="2.76"/><circle class="cls-6" cx="736.32" cy="76.02" r="2.76"/><circle class="cls-6" cx="744.89" cy="76.02" r="2.76"/><circle class="cls-6" cx="753.46" cy="76.02" r="2.76"/><circle class="cls-6" cx="762.03" cy="76.02" r="2.76"/><circle class="cls-6" cx="770.6" cy="76.02" r="2.76"/><circle class="cls-6" cx="779.17" cy="76.02" r="2.76"/><circle class="cls-6" cx="787.74" cy="76.02" r="2.76"/><circle class="cls-6" cx="796.31" cy="76.02" r="2.76"/><circle class="cls-6" cx="804.88" cy="76.02" r="2.76"/><circle class="cls-6" cx="813.46" cy="76.02" r="2.76"/><circle class="cls-6" cx="822.03" cy="76.02" r="2.76"/><circle class="cls-6" cx="719.17" cy="85.2" r="2.76"/><circle class="cls-6" cx="727.75" cy="85.2" r="2.76"/><circle class="cls-6" cx="736.32" cy="85.2" r="2.76"/><circle class="cls-6" cx="744.89" cy="85.2" r="2.76"/><circle class="cls-6" cx="753.46" cy="85.2" r="2.76"/><circle class="cls-6" cx="762.03" cy="85.2" r="2.76"/><circle class="cls-6" cx="770.6" cy="85.2" r="2.76"/><circle class="cls-6" cx="779.17" cy="85.2" r="2.76"/><circle class="cls-6" cx="787.74" cy="85.2" r="2.76"/><circle class="cls-6" cx="796.31" cy="85.2" r="2.76"/><circle class="cls-6" cx="804.88" cy="85.2" r="2.76"/><circle class="cls-6" cx="813.46" cy="85.2" r="2.76"/><circle class="cls-6" cx="822.03" cy="85.2" r="2.76"/><circle class="cls-6" cx="719.17" cy="94.39" r="2.76"/><circle class="cls-6" cx="727.75" cy="94.39" r="2.76"/><circle class="cls-6" cx="736.32" cy="94.39" r="2.76"/><circle class="cls-6" cx="744.89" cy="94.39" r="2.76"/><circle class="cls-6" cx="753.46" cy="94.39" r="2.76"/><circle class="cls-6" cx="762.03" cy="94.39" r="2.76"/><circle class="cls-6" cx="770.6" cy="94.39" r="2.76"/><circle class="cls-6" cx="779.17" cy="94.39" r="2.76"/><circle class="cls-6" cx="787.74" cy="94.39" r="2.76"/><circle class="cls-6" cx="796.31" cy="94.39" r="2.76"/><circle class="cls-6" cx="804.88" cy="94.39" r="2.76"/><circle class="cls-6" cx="813.46" cy="94.39" r="2.76"/><circle class="cls-6" cx="822.03" cy="94.39" r="2.76"/><circle class="cls-6" cx="719.17" cy="103.57" r="2.76"/><circle class="cls-6" cx="727.75" cy="103.57" r="2.76"/><circle class="cls-6" cx="736.32" cy="103.57" r="2.76"/><circle class="cls-6" cx="744.89" cy="103.57" r="2.76"/><circle class="cls-6" cx="753.46" cy="103.57" r="2.76"/><circle class="cls-6" cx="762.03" cy="103.57" r="2.76"/><circle class="cls-6" cx="770.6" cy="103.57" r="2.76"/><circle class="cls-6" cx="779.17" cy="103.57" r="2.76"/><circle class="cls-6" cx="787.74" cy="103.57" r="2.76"/><circle class="cls-6" cx="796.31" cy="103.57" r="2.76"/><circle class="cls-6" cx="804.88" cy="103.57" r="2.76"/><circle class="cls-6" cx="813.46" cy="103.57" r="2.76"/><circle class="cls-6" cx="822.03" cy="103.57" r="2.76"/><circle class="cls-6" cx="719.17" cy="112.75" r="2.76"/><circle class="cls-6" cx="727.75" cy="112.75" r="2.76"/><circle class="cls-6" cx="736.32" cy="112.75" r="2.76"/><circle class="cls-6" cx="744.89" cy="112.75" r="2.76"/><circle class="cls-6" cx="753.46" cy="112.75" r="2.76"/><circle class="cls-6" cx="762.03" cy="112.75" r="2.76"/><circle class="cls-6" cx="770.6" cy="112.75" r="2.76"/><circle class="cls-6" cx="779.17" cy="112.75" r="2.76"/><circle class="cls-6" cx="787.74" cy="112.75" r="2.76"/><circle class="cls-6" cx="796.31" cy="112.75" r="2.76"/><circle class="cls-6" cx="804.88" cy="112.75" r="2.76"/><circle class="cls-6" cx="813.46" cy="112.75" r="2.76"/><circle class="cls-6" cx="822.03" cy="112.75" r="2.76"/></g></g><path class="cls-9" d="M137.64.27s-9,52.95-57,62.82c-31.69,6.52-15.34,37.54-15.34,37.54s8.43,26.21-7.78,48.66-10.1,36.34-10.1,36.34,3.63,20-12,28.34C23.79,220.15,13.7,230.81,7,245.23c-5.2,11.26-9.54,25.07-9.54,39.85V-.83Z"/><path class="cls-9" d="M726.72,300.86l17.48-.11H745l17.72-.11-.32-51.78L746,262.11a2.54,2.54,0,0,1-3.17,0l-16.38-13Z"/><path class="cls-10" d="M273.47,47c-.46.34-.93.66-1.42,1A39,39,0,0,1,218.19-6.3"/><path class="cls-10" d="M271.66,44.43A35.47,35.47,0,0,1,223.91,39"/><path class="cls-10" d="M220.94,35.13a35.23,35.23,0,0,1-3.26-6.78"/><path class="cls-10" d="M216.21,24.44a33.71,33.71,0,0,1,0-16.85"/><path class="cls-11" d="M170.84,167.17c.65-.48,1.32-.94,2-1.38a55.1,55.1,0,0,1,76.1,76.63"/><path class="cls-11" d="M173.39,170.73a50.11,50.11,0,0,1,67.47,7.73"/><path class="cls-11" d="M245.06,183.88a49.78,49.78,0,0,1,4.61,9.58"/><path class="cls-11" d="M251.73,199s3.46,11.71,0,23.8"/><path class="cls-6" d="M832.36-1.66s6,59,64.7,59c44,0,57.33,26.83,61.25,40.24a130.2,130.2,0,0,0,11.07,26.89c10.08,18.11,27.26,42.34,47,42.34l37.1-129V-1.66Z"/><line class="cls-12" x1="876.31" y1="247.23" x2="876.31" y2="165.65"/><line class="cls-12" x1="912.01" y1="246.85" x2="912.01" y2="165.27"/><polygon class="cls-9" points="876.31 154.72 863.85 176.3 888.77 176.3 876.31 154.72"/><polygon class="cls-9" points="912.01 155.38 899.55 176.96 924.47 176.96 912.01 155.38"/><path class="cls-9" d="M746.5,299.72H1026V120.94s-38.85,13.28-47.43,72.74c-7.1,49.24-44.89,50.7-57.67,49.75a51.79,51.79,0,0,0-21.3,2.72,48.24,48.24,0,0,0-25.76,20.91c-8.71,14.61-30.43,10-46.69,3.87a66.11,66.11,0,0,0-79.59,27Z"/><path class="cls-13" d="M-2.54,159.73S43.79,146.65,52.25,203c5.59,37.23,32.18,18,32.18,18s22.47-9.9,41.71,9.14,31.15,11.86,31.15,11.86,17.19-4.26,24.29,14.07a68.29,68.29,0,0,0,26.79,33.33c9.65,6.11,21.49,11.2,34.16,11.2H-2.54Z"/><circle id="_Ellipse_" data-name="&lt;Ellipse&gt;" class="cls-13" cx="840.65" cy="304.52" r="82.48"/><g class="cls-14"><line class="cls-15" x1="851.21" y1="254.8" x2="872.47" y2="254.8"/><line class="cls-15" x1="858.31" y1="268.26" x2="879.56" y2="268.26"/><line class="cls-15" x1="861.84" y1="207.7" x2="870.64" y2="227.06"/><line class="cls-15" x1="845.77" y1="263.19" x2="853.96" y2="282.81"/><line class="cls-15" x1="845.77" y1="287.32" x2="853.96" y2="306.94"/><line class="cls-15" x1="841.72" y1="250.73" x2="855.86" y2="234.86"/><line class="cls-15" x1="862.7" y1="235.72" x2="878.57" y2="249.87"/><line class="cls-15" x1="858.31" y1="288.06" x2="874.17" y2="302.21"/><line class="cls-15" x1="883.2" y1="270.91" x2="870.64" y2="288.06"/><line class="cls-15" x1="845.02" y1="233.25" x2="859.17" y2="217.38"/><line class="cls-15" x1="936.72" y1="274.49" x2="915.46" y2="274.49"/><line class="cls-15" x1="934.28" y1="302.64" x2="926.09" y2="283.02"/><line class="cls-15" x1="921.74" y1="301.9" x2="905.88" y2="287.75"/><line class="cls-15" x1="899.07" y1="302.21" x2="883.2" y2="288.06"/><line class="cls-15" x1="896.85" y1="249.55" x2="910.44" y2="233.21"/><line class="cls-15" x1="878.01" y1="233.48" x2="891.6" y2="217.14"/><line class="cls-15" x1="926.09" y1="268.21" x2="939.69" y2="251.87"/><line class="cls-15" x1="909.1" y1="226.09" x2="930.36" y2="226.09"/><line class="cls-15" x1="913.39" y1="207.7" x2="898.36" y2="222.73"/><line class="cls-15" x1="895.25" y1="262.97" x2="916.51" y2="262.97"/><line class="cls-15" x1="909.1" y1="245.89" x2="924.97" y2="260.04"/><line class="cls-15" x1="934" y1="228.74" x2="921.43" y2="245.89"/><line class="cls-15" x1="752.46" y1="273.88" x2="773.72" y2="273.88"/><line class="cls-15" x1="759.56" y1="287.34" x2="780.81" y2="287.34"/><line class="cls-15" x1="763.09" y1="226.79" x2="771.89" y2="246.14"/><line class="cls-15" x1="747.02" y1="282.28" x2="755.21" y2="301.9"/><line class="cls-15" x1="742.97" y1="269.81" x2="757.11" y2="253.95"/><line class="cls-15" x1="763.95" y1="254.81" x2="779.82" y2="268.95"/><line class="cls-15" x1="784.45" y1="290" x2="771.89" y2="307.15"/><line class="cls-15" x1="746.27" y1="252.33" x2="760.42" y2="236.46"/><line class="cls-15" x1="837.97" y1="293.58" x2="816.71" y2="293.58"/><line class="cls-15" x1="789.42" y1="309.83" x2="803.57" y2="293.96"/><line class="cls-15" x1="798.1" y1="268.64" x2="811.69" y2="252.3"/><line class="cls-15" x1="779.26" y1="252.57" x2="792.85" y2="236.23"/><line class="cls-15" x1="827.34" y1="287.3" x2="840.94" y2="270.95"/><line class="cls-15" x1="810.35" y1="245.17" x2="831.61" y2="245.17"/><line class="cls-15" x1="814.64" y1="226.79" x2="799.61" y2="241.82"/><line class="cls-15" x1="796.5" y1="282.05" x2="817.76" y2="282.05"/><line class="cls-15" x1="810.35" y1="264.98" x2="826.22" y2="279.13"/><line class="cls-15" x1="835.25" y1="247.83" x2="822.68" y2="264.98"/></g><path class="cls-6" d="M902.12,10.85A10.06,10.06,0,1,1,892.06,21,10.06,10.06,0,0,1,902.12,10.85Z"/><path class="cls-4" d="M931.13,18.18a10.06,10.06,0,1,1-10.06,10.19A10.06,10.06,0,0,1,931.13,18.18Z"/><rect class="cls-13" x="23.65" y="269.94" width="13.21" height="13.21"/><rect class="cls-4" x="36.86" y="269.94" width="13.21" height="13.21"/><rect class="cls-13" x="50.07" y="269.94" width="13.21" height="13.21"/><rect class="cls-4" x="63.28" y="269.94" width="13.21" height="13.21"/><rect class="cls-13" x="76.48" y="269.94" width="13.21" height="13.21"/><rect class="cls-13" x="89.69" y="269.94" width="13.21" height="13.21"/><rect class="cls-13" x="23.65" y="256.73" width="13.21" height="13.21"/><rect class="cls-13" x="36.86" y="256.73" width="13.21" height="13.21"/><rect class="cls-13" x="50.07" y="256.73" width="13.21" height="13.21"/><rect class="cls-13" x="63.28" y="256.73" width="13.21" height="13.21"/><rect class="cls-4" x="76.48" y="256.73" width="13.21" height="13.21"/><rect class="cls-16" x="89.69" y="243.52" width="13.21" height="13.21"/><rect class="cls-16" x="76.48" y="230.32" width="13.21" height="13.21"/><path class="cls-6" d="M894.47,302.22a76.84,76.84,0,0,1,153.67,0Z"/><g class="cls-17"><g class="cls-18"><line class="cls-19" x1="570.5" y1="111.42" x2="311.09" y2="370.83"/><line class="cls-19" x1="579.38" y1="111.42" x2="319.97" y2="370.83"/><line class="cls-19" x1="588.26" y1="111.42" x2="328.85" y2="370.83"/><line class="cls-19" x1="597.13" y1="111.42" x2="337.73" y2="370.83"/><line class="cls-19" x1="606.01" y1="111.42" x2="346.6" y2="370.83"/><line class="cls-19" x1="614.89" y1="111.42" x2="355.48" y2="370.83"/><line class="cls-19" x1="623.77" y1="111.42" x2="364.36" y2="370.83"/><line class="cls-19" x1="632.65" y1="111.42" x2="373.24" y2="370.83"/><line class="cls-19" x1="641.53" y1="111.42" x2="382.12" y2="370.83"/><line class="cls-19" x1="650.4" y1="111.42" x2="391" y2="370.83"/><line class="cls-19" x1="659.28" y1="111.42" x2="399.87" y2="370.83"/><line class="cls-19" x1="668.16" y1="111.42" x2="408.75" y2="370.83"/><line class="cls-19" x1="677.04" y1="111.42" x2="417.63" y2="370.83"/><line class="cls-19" x1="685.92" y1="111.42" x2="426.51" y2="370.83"/><line class="cls-19" x1="694.8" y1="111.42" x2="435.39" y2="370.83"/><line class="cls-19" x1="703.67" y1="111.42" x2="444.27" y2="370.83"/><line class="cls-19" x1="712.55" y1="111.42" x2="453.14" y2="370.83"/><line class="cls-19" x1="721.43" y1="111.42" x2="462.02" y2="370.83"/><line class="cls-19" x1="730.31" y1="111.42" x2="470.9" y2="370.83"/><line class="cls-19" x1="739.19" y1="111.42" x2="479.78" y2="370.83"/><line class="cls-19" x1="748.07" y1="111.42" x2="488.66" y2="370.83"/><line class="cls-19" x1="756.94" y1="111.42" x2="497.54" y2="370.83"/><line class="cls-19" x1="765.82" y1="111.42" x2="506.41" y2="370.83"/><line class="cls-19" x1="774.7" y1="111.42" x2="515.29" y2="370.83"/><line class="cls-19" x1="783.58" y1="111.42" x2="524.17" y2="370.83"/><line class="cls-19" x1="792.46" y1="111.42" x2="533.05" y2="370.83"/><line class="cls-19" x1="801.34" y1="111.42" x2="541.93" y2="370.83"/><line class="cls-19" x1="810.21" y1="111.42" x2="550.81" y2="370.83"/><line class="cls-19" x1="819.09" y1="111.42" x2="559.68" y2="370.83"/><line class="cls-19" x1="827.97" y1="111.42" x2="568.56" y2="370.83"/><line class="cls-19" x1="836.85" y1="111.42" x2="577.44" y2="370.83"/><line class="cls-19" x1="845.73" y1="111.42" x2="586.32" y2="370.83"/><line class="cls-19" x1="854.61" y1="111.42" x2="595.2" y2="370.83"/><line class="cls-19" x1="863.49" y1="111.42" x2="604.08" y2="370.83"/><line class="cls-19" x1="872.36" y1="111.42" x2="612.95" y2="370.83"/><line class="cls-19" x1="881.24" y1="111.42" x2="621.83" y2="370.83"/><line class="cls-19" x1="890.12" y1="111.42" x2="630.71" y2="370.83"/><line class="cls-19" x1="899" y1="111.42" x2="639.59" y2="370.83"/><line class="cls-19" x1="907.88" y1="111.42" x2="648.47" y2="370.83"/><line class="cls-19" x1="916.76" y1="111.42" x2="657.35" y2="370.83"/><line class="cls-19" x1="925.63" y1="111.42" x2="666.22" y2="370.83"/><line class="cls-19" x1="934.51" y1="111.42" x2="675.1" y2="370.83"/><line class="cls-19" x1="943.39" y1="111.42" x2="683.98" y2="370.83"/><line class="cls-19" x1="952.27" y1="111.42" x2="692.86" y2="370.83"/><line class="cls-19" x1="961.15" y1="111.42" x2="701.74" y2="370.83"/><line class="cls-19" x1="970.03" y1="111.42" x2="710.62" y2="370.83"/><line class="cls-19" x1="978.9" y1="111.42" x2="719.49" y2="370.83"/><line class="cls-19" x1="987.78" y1="111.42" x2="728.37" y2="370.83"/><line class="cls-19" x1="996.66" y1="111.42" x2="737.25" y2="370.83"/><line class="cls-19" x1="1005.54" y1="111.42" x2="746.13" y2="370.83"/><line class="cls-19" x1="1014.42" y1="111.42" x2="755.01" y2="370.83"/><line class="cls-19" x1="1023.3" y1="111.42" x2="763.89" y2="370.83"/><line class="cls-19" x1="1032.17" y1="111.42" x2="772.77" y2="370.83"/><line class="cls-19" x1="1041.05" y1="111.42" x2="781.64" y2="370.83"/><line class="cls-19" x1="1049.93" y1="111.42" x2="790.52" y2="370.83"/><line class="cls-19" x1="1058.81" y1="111.42" x2="799.4" y2="370.83"/><line class="cls-19" x1="1067.69" y1="111.42" x2="808.28" y2="370.83"/><line class="cls-19" x1="1076.57" y1="111.42" x2="817.16" y2="370.83"/><line class="cls-19" x1="1085.44" y1="111.42" x2="826.04" y2="370.83"/><line class="cls-19" x1="1094.32" y1="111.42" x2="834.91" y2="370.83"/><line class="cls-19" x1="1103.2" y1="111.42" x2="843.79" y2="370.83"/><line class="cls-19" x1="1112.08" y1="111.42" x2="852.67" y2="370.83"/><line class="cls-19" x1="1120.96" y1="111.42" x2="861.55" y2="370.83"/><line class="cls-19" x1="1129.84" y1="111.42" x2="870.43" y2="370.83"/><line class="cls-19" x1="1138.71" y1="111.42" x2="879.31" y2="370.83"/><line class="cls-19" x1="1147.59" y1="111.42" x2="888.18" y2="370.83"/><line class="cls-19" x1="1156.47" y1="111.42" x2="897.06" y2="370.83"/><line class="cls-19" x1="1165.35" y1="111.42" x2="905.94" y2="370.83"/><line class="cls-19" x1="1174.23" y1="111.42" x2="914.82" y2="370.83"/><line class="cls-19" x1="1183.11" y1="111.42" x2="923.7" y2="370.83"/><line class="cls-19" x1="1191.98" y1="111.42" x2="932.58" y2="370.83"/><line class="cls-19" x1="1200.86" y1="111.42" x2="941.45" y2="370.83"/><line class="cls-19" x1="1209.74" y1="111.42" x2="950.33" y2="370.83"/><line class="cls-19" x1="1218.62" y1="111.42" x2="959.21" y2="370.83"/><line class="cls-19" x1="1227.5" y1="111.42" x2="968.09" y2="370.83"/><line class="cls-19" x1="1236.38" y1="111.42" x2="976.97" y2="370.83"/><line class="cls-19" x1="1245.25" y1="111.42" x2="985.85" y2="370.83"/><line class="cls-19" x1="1254.13" y1="111.42" x2="994.72" y2="370.83"/><line class="cls-19" x1="1263.01" y1="111.42" x2="1003.6" y2="370.83"/><line class="cls-19" x1="1271.89" y1="111.42" x2="1012.48" y2="370.83"/><line class="cls-19" x1="1280.77" y1="111.42" x2="1021.36" y2="370.83"/></g></g><polygon class="cls-4" points="136.23 275.54 125.91 269.58 125.91 281.5 136.23 275.54"/><polygon class="cls-5" points="147.43 275.3 137.11 269.34 137.11 281.26 147.43 275.3"/><polygon class="cls-4" points="158.63 275.05 148.31 269.09 148.31 281.01 158.63 275.05"/><circle class="cls-20" cx="801.81" cy="119.25" r="4.88" transform="translate(-2.03 14.57) rotate(-1.04)"/><path class="cls-21" d="M882,119.26a40.14,40.14,0,1,1-80.26,1.54"/><circle class="cls-20" cx="882.85" cy="119.25" r="4.88" transform="translate(-2.02 16.04) rotate(-1.04)"/><circle class="cls-9" cx="80.48" cy="146.21" r="4.83" transform="translate(-80.63 102.65) rotate(-46.04)"/><path class="cls-22" d="M137.64,201.32a39.74,39.74,0,0,1-57.27-55.11"/><circle class="cls-9" cx="138.24" cy="201.91" r="4.83" transform="translate(-103.06 161.26) rotate(-46.04)"/><path class="cls-13" d="M194.56,51l-26.34.16H167l-26.71.16.48,78,24.82-20a3.82,3.82,0,0,1,4.78,0L195,129.06Z"/><circle class="cls-23" cx="167.64" cy="22.02" r="48.83" transform="translate(-0.13 1.02) rotate(-0.35)"/><path class="cls-24" d="M124.54,24.46c0-.64-.05-1.28-.06-1.92a43.57,43.57,0,0,1,83.6-17.47"/><path class="cls-24" d="M125.87,35.44a43.59,43.59,0,0,0,83.08,0"/><path class="cls-24" d="M131.19,37.83a39.67,39.67,0,0,0,35.7,23.88h1.23A39.61,39.61,0,0,0,204,37.38"/><path class="cls-24" d="M128,24.31a39.63,39.63,0,0,1,34.19-41.42"/><path class="cls-13" d="M134.22,27.46s-.83,13.47,14.57,26.88"/><rect class="cls-13" x="196.28" y="0.65" width="14.28" height="38.47"/><path class="cls-11" d="M106.38,21.62c-.4.7-.83,1.39-1.27,2.07A55.09,55.09,0,0,1,29,40.18,55.11,55.11,0,0,1,4.51-15.59"/><path class="cls-11" d="M102.61,19.39A49.87,49.87,0,0,1,92.53,31.76a50.05,50.05,0,0,1-54.76,7.86"/><path class="cls-11" d="M31.74,36.37a49.78,49.78,0,0,1-8.09-6.89"/><path class="cls-11" d="M19.53,25.25s-7.9-9.3-9.65-21.76"/><path class="cls-11" d="M780.76,18.49c-.4.7-.83,1.39-1.27,2.07a55.09,55.09,0,0,1-76.15,16.49,55.11,55.11,0,0,1-24.45-55.78"/><path class="cls-11" d="M777,16.26a49.87,49.87,0,0,1-10.07,12.36,50.05,50.05,0,0,1-54.76,7.86"/><path class="cls-11" d="M706.13,33.24A49.78,49.78,0,0,1,698,26.34"/><path class="cls-11" d="M693.91,22.12S686,12.81,684.26.36"/><path class="cls-6" d="M54.53,241.57a10.7,10.7,0,1,1-.09-15.23A10.7,10.7,0,0,1,54.53,241.57Z"/><rect class="cls-5" x="0.6" y="164.32" width="17.35" height="64.19" transform="translate(-136.17 64.09) rotate(-45)"/><path class="cls-4" d="M65.16,40.6l-49-41.68,26.1-30.71,9,7.64L33.23-3l11.2,9.52L60.72-12.61l8.51,7.23L52.94,13.78l11.34,9.64,18-21.16,9,7.64Z"/><rect class="cls-6" x="213.82" y="71.77" width="11.8" height="11.8"/><rect class="cls-9" x="225.62" y="83.57" width="11.8" height="11.8"/><polygon class="cls-3" points="843.06 73.06 843.06 6.71 815.82 73.06 801.31 73.06 774.08 7.24 774.08 73.06 757.6 73.06 757.6 -18.71 780.72 -18.71 808.77 48.7 836.15 -18.71 860.06 -18.71 860.06 73.06 843.06 73.06"/><path class="cls-9" d="M859.69-18.34v91H843.43V4.83L842,8.3,815.57,72.69h-14L775.13,8.82l-1.42-3.44v67.3H758v-91h22.51L808.08,48l.69,1.66.68-1.67,27-66.34h23.29m.74-.74H835.9l-27.14,66.8L781-19.08H757.23v92.5h17.22V9.1l26.62,64.32h15L842.69,8.58V73.43h17.74v-92.5Z"/><path class="cls-13" d="M989.5,199.88H951.92L944.22,221h-19l35.49-92.5h20.88l35.23,92.5H997.19Zm-31.57-16.44h25.57l-12.79-35Z"/><circle class="cls-13" cx="986.37" cy="91.66" r="5.26"/><circle class="cls-4" cx="1005.83" cy="110.17" r="5.26"/><line class="cls-25" x1="982.35" y1="114.75" x2="1010.39" y2="86.6"/><circle class="cls-13" cx="986.64" cy="56" r="5.26"/><circle class="cls-4" cx="1006.1" cy="74.51" r="5.26"/><line class="cls-25" x1="982.62" y1="79.09" x2="1010.66" y2="50.94"/><circle class="cls-13" cx="986.91" cy="20.35" r="5.26"/><circle class="cls-4" cx="1006.37" cy="38.86" r="5.26"/><line class="cls-25" x1="982.89" y1="43.44" x2="1010.94" y2="15.29"/><path class="cls-26" d="M697,130.64a61,61,0,0,1-122,2.34"/><circle class="cls-13" cx="698.26" cy="130.62" r="7.42" transform="translate(-2.26 12.69) rotate(-1.04)"/><circle class="cls-6" cx="575.04" cy="132.85" r="7.42" transform="translate(-2.32 10.46) rotate(-1.04)"/><path class="cls-9" d="M447.35,31.12a2.62,2.62,0,1,1-2.62,2.65A2.62,2.62,0,0,1,447.35,31.12Zm-2.11,23.51V38.91h4.25V54.63Z"/><path class="cls-9" d="M458.75,46.1v8.53h-4.41V32h8.46c4.47,0,7.44,3,7.44,7.06s-3,7.06-7.44,7.06Zm3.51-3.8c2.2,0,3.55-1.28,3.55-3.23s-1.34-3.26-3.55-3.26h-3.48V42.3Z"/><path class="cls-9" d="M482.57,43.13a6.38,6.38,0,0,0-1.28-.13c-2.17,0-4.06,1.05-4.06,4.44v7.19H473V38.91h4.12v2.33a4.67,4.67,0,0,1,4.47-2.46,9.74,9.74,0,0,1,1,.06Z"/><path class="cls-9" d="M487.68,31.12a2.62,2.62,0,1,1-2.62,2.65A2.62,2.62,0,0,1,487.68,31.12Zm-2.11,23.51V38.91h4.25V54.63Z"/><path class="cls-9" d="M497.42,46.77c0,2.84,1.85,4.44,4,4.44A3.6,3.6,0,0,0,505,48.56l3.74,1.25a7.3,7.3,0,0,1-7.35,5.3,8.13,8.13,0,0,1-8.27-8.34,8,8,0,0,1,8.14-8.34,7.19,7.19,0,0,1,7.38,5.3L504.89,45a3.43,3.43,0,0,0-3.48-2.65C499.24,42.36,497.42,43.93,497.42,46.77Z"/><path class="cls-9" d="M525.84,50.13a7.08,7.08,0,0,1-7.15,5,8,8,0,0,1-8.11-8.4,7.89,7.89,0,0,1,7.73-8.27c4.85,0,7.76,3.1,7.76,8.14,0,.61-.06,1.25-.06,1.31H514.75a3.83,3.83,0,0,0,4,3.58,3.47,3.47,0,0,0,3.58-2.39Zm-4-5.14a3.16,3.16,0,0,0-3.51-3.1,3.4,3.4,0,0,0-3.51,3.1Z"/><path class="cls-9" d="M551.29,82.72V60.07h14.18v4.15h-9.77V69.4h8.85v3.93h-8.85v5.24h9.77v4.15Z"/><path class="cls-9" d="M568.66,75.12V71.35h9.26v3.77Z"/><path class="cls-9" d="M580.6,71.41a11.43,11.43,0,0,1,11.53-11.82c6.26,0,9.49,3.83,10.38,7.51l-4.15,1.31c-.54-2.17-2.3-4.57-6.23-4.57-3.39,0-7,2.43-7,7.57,0,4.82,3.39,7.47,7,7.47a6.29,6.29,0,0,0,6.36-4.63l4.12,1.25c-.86,3.48-4.12,7.7-10.48,7.7A11.31,11.31,0,0,1,580.6,71.41Z"/><path class="cls-9" d="M620.78,74.86a8.24,8.24,0,1,1-8.24-8.34A8.07,8.07,0,0,1,620.78,74.86Zm-4.25,0c0-3-1.92-4.47-4-4.47s-4,1.5-4,4.47,1.92,4.47,4,4.47S616.53,77.83,616.53,74.86Z"/><path class="cls-9" d="M624.12,82.72V67h4.06v1.92a5.4,5.4,0,0,1,4.6-2.36,4.86,4.86,0,0,1,4.66,2.62,5.46,5.46,0,0,1,5-2.62c2.91,0,5.69,1.76,5.69,6V82.72H644V73.39c0-1.69-.83-3-2.78-3a2.89,2.89,0,0,0-2.91,3.1v9.2h-4.22V73.39c0-1.69-.86-3-2.78-3a2.88,2.88,0,0,0-2.94,3.1v9.2Z"/><path class="cls-9" d="M652.42,82.72V67h4.06v1.92a5.4,5.4,0,0,1,4.6-2.36,4.86,4.86,0,0,1,4.66,2.62,5.46,5.46,0,0,1,5-2.62c2.91,0,5.69,1.76,5.69,6V82.72h-4.12V73.39c0-1.69-.83-3-2.78-3a2.89,2.89,0,0,0-2.91,3.1v9.2h-4.22V73.39c0-1.69-.86-3-2.78-3a2.88,2.88,0,0,0-2.94,3.1v9.2Z"/><path class="cls-9" d="M694.79,78.21a7.08,7.08,0,0,1-7.15,5,8,8,0,0,1-8.11-8.4,7.89,7.89,0,0,1,7.73-8.27c4.85,0,7.76,3.1,7.76,8.14,0,.61-.06,1.25-.06,1.31H683.71a3.83,3.83,0,0,0,4,3.58,3.47,3.47,0,0,0,3.58-2.39Zm-4-5.14a3.16,3.16,0,0,0-3.51-3.1,3.4,3.4,0,0,0-3.51,3.1Z"/><path class="cls-9" d="M707.95,71.22a6.38,6.38,0,0,0-1.28-.13c-2.17,0-4.06,1.05-4.06,4.44v7.19h-4.25V67h4.12v2.33A4.67,4.67,0,0,1,707,66.87a9.73,9.73,0,0,1,1,.06Z"/><path class="cls-9" d="M713.85,74.86c0,2.84,1.85,4.44,4,4.44a3.6,3.6,0,0,0,3.61-2.65l3.74,1.25a7.3,7.3,0,0,1-7.35,5.3,8.13,8.13,0,0,1-8.27-8.34,8,8,0,0,1,8.14-8.34,7.19,7.19,0,0,1,7.38,5.3l-3.8,1.28a3.43,3.43,0,0,0-3.48-2.65C715.67,70.45,713.85,72,713.85,74.86Z"/><path class="cls-9" d="M742.28,78.21a7.08,7.08,0,0,1-7.16,5A8,8,0,0,1,727,74.8a7.89,7.89,0,0,1,7.73-8.27c4.85,0,7.76,3.1,7.76,8.14,0,.61-.06,1.25-.06,1.31H731.19a3.83,3.83,0,0,0,4,3.58,3.47,3.47,0,0,0,3.58-2.39Zm-4-5.14A3.16,3.16,0,0,0,734.8,70a3.4,3.4,0,0,0-3.51,3.1Z"/><path class="cls-9" d="M622.09,110.8V94.93l-6.52,15.87H611.9l-6.52-15.75V110.8h-4.22V88.16H607l6.8,16.35,6.64-16.35h6V110.8Z"/><path class="cls-9" d="M645.27,106.3a7.08,7.08,0,0,1-7.16,5,8.35,8.35,0,0,1-.38-16.67c4.85,0,7.76,3.1,7.76,8.14,0,.61-.06,1.25-.06,1.31H634.19a3.83,3.83,0,0,0,4,3.58,3.47,3.47,0,0,0,3.58-2.39Zm-4-5.14a3.16,3.16,0,0,0-3.51-3.1,3.4,3.4,0,0,0-3.51,3.1Z"/><path class="cls-9" d="M658.43,99.31a6.38,6.38,0,0,0-1.28-.13c-2.17,0-4.06,1.05-4.06,4.44v7.19h-4.25V95.09H653v2.33A4.67,4.67,0,0,1,657.44,95a9.73,9.73,0,0,1,1,.06Z"/><path class="cls-9" d="M664.33,102.95c0,2.84,1.85,4.44,4,4.44a3.6,3.6,0,0,0,3.61-2.65L675.7,106a7.3,7.3,0,0,1-7.35,5.3,8.13,8.13,0,0,1-8.27-8.34,8,8,0,0,1,8.14-8.34,7.19,7.19,0,0,1,7.38,5.3l-3.8,1.28a3.43,3.43,0,0,0-3.48-2.65C666.15,98.54,664.33,100.11,664.33,102.95Z"/><path class="cls-9" d="M683.08,110.8h-4.25V87.68h4.25V96.4a5.61,5.61,0,0,1,4.25-1.73c4,0,5.85,2.78,5.85,6.23v9.9h-4.25v-9.17c0-1.76-.86-3.13-2.91-3.13a2.94,2.94,0,0,0-2.94,3.07Z"/><path class="cls-9" d="M701.21,101.77l3.86-.57c.89-.13,1.18-.57,1.18-1.12,0-1.12-.86-2-2.65-2a2.79,2.79,0,0,0-3,2.56l-3.77-.8c.26-2.46,2.52-5.17,6.74-5.17,5,0,6.84,2.81,6.84,6v7.73a17.55,17.55,0,0,0,.19,2.49h-3.9a10.7,10.7,0,0,1-.16-1.88,5.25,5.25,0,0,1-4.63,2.33c-3.35,0-5.4-2.27-5.4-4.73C696.52,103.71,698.59,102.15,701.21,101.77Zm5,2.68v-.7l-3.55.54a2,2,0,0,0-1.95,2,1.84,1.84,0,0,0,2,1.82C704.6,108.09,706.26,107.23,706.26,104.45Z"/><path class="cls-9" d="M718.93,110.8h-4.25V95.09h4.12V97a5.22,5.22,0,0,1,4.54-2.36c3.9,0,5.69,2.78,5.69,6.23v9.9h-4.25v-9.17c0-1.76-.86-3.13-2.91-3.13a3,3,0,0,0-2.94,3.26Z"/><path class="cls-9" d="M738.57,95.09h3.16v3.77h-3.16v6.58c0,1.37.64,1.82,1.85,1.82a6.11,6.11,0,0,0,1.31-.13v3.51a6.3,6.3,0,0,1-2.39.38c-3.07,0-5-1.82-5-4.85V98.86h-2.84V95.09h.8a2.26,2.26,0,0,0,2.43-2.49V90.4h3.83Z"/><path class="cls-9" d="M454.34,133.72h-9.2l-1.88,5.17H438.6l8.69-22.65h5.11L461,138.89h-4.79Zm-7.73-4h6.26l-3.13-8.56Z"/><path class="cls-9" d="M476,123.18l3.39,10.12,2.91-10.12h4.22l-4.92,15.71h-4.25l-3.67-10.73-3.61,10.73h-4.31l-5-15.71h4.47l2.91,10.09,3.42-10.09Z"/><path class="cls-9" d="M492.85,129.85l3.86-.58c.89-.13,1.18-.57,1.18-1.12,0-1.12-.86-2-2.65-2a2.79,2.79,0,0,0-3,2.56l-3.77-.8c.26-2.46,2.52-5.17,6.74-5.17,5,0,6.84,2.81,6.84,6v7.73a17.57,17.57,0,0,0,.19,2.49h-3.9a10.7,10.7,0,0,1-.16-1.88,5.25,5.25,0,0,1-4.63,2.33c-3.35,0-5.4-2.27-5.4-4.73C488.16,131.8,490.23,130.24,492.85,129.85Zm5,2.68v-.7l-3.55.54a2,2,0,0,0-1.95,2,1.84,1.84,0,0,0,2,1.82C496.24,136.18,497.9,135.32,497.9,132.54Z"/><path class="cls-9" d="M515.91,127.39a6.45,6.45,0,0,0-1.28-.13c-2.17,0-4.06,1.05-4.06,4.44v7.19h-4.25V123.18h4.12v2.33a4.67,4.67,0,0,1,4.47-2.46,9.73,9.73,0,0,1,1,.06Z"/><path class="cls-9" d="M533.73,136.05c0,1.05.06,2.2.13,2.84H529.8a10.81,10.81,0,0,1-.16-1.82,4.93,4.93,0,0,1-4.41,2.2c-4.47,0-7.67-3.51-7.67-8.27,0-4.6,3.1-8.21,7.54-8.21,2.71,0,4,1.12,4.44,1.95v-9h4.18Zm-8-.57c2.17,0,3.86-1.66,3.86-4.5s-1.69-4.37-3.86-4.37-3.9,1.6-3.9,4.41S523.51,135.48,525.74,135.48Z"/><path class="cls-9" d="M540.62,133.72a2.61,2.61,0,0,0,2.87,2.39c1.41,0,2.08-.73,2.08-1.56s-.48-1.28-1.69-1.53l-2.08-.48c-3-.67-4.41-2.49-4.41-4.69,0-2.81,2.49-5.14,5.88-5.14,4.47,0,6,2.84,6.16,4.54l-3.55.8a2.39,2.39,0,0,0-2.59-2.11,1.81,1.81,0,0,0-2,1.56c0,.77.58,1.25,1.44,1.41l2.24.48c3.1.64,4.66,2.52,4.66,4.82,0,2.56-2,5.17-6.1,5.17-4.73,0-6.36-3.07-6.55-4.85Z"/><path class="cls-9" d="M651.46,126.05a7.76,7.76,0,0,1-.16-1.44c0-3.64,2.75-6.93,7.57-6.93,4.63,0,7.47,3.07,7.47,6.68,0,2.68-1.47,4.86-4,6.42l-4,2.43a4.22,4.22,0,0,0-1.79,1.88h9.93v3.8H651.14c0-3.64,1.18-6.61,4.89-8.85l3.42-2c1.76-1.05,2.46-2.14,2.46-3.58a2.83,2.83,0,0,0-3.13-2.84,3.13,3.13,0,0,0-3.29,3.45,4.53,4.53,0,0,0,.16,1.15Z"/><path class="cls-9" d="M670.59,121.17a7.83,7.83,0,0,1,6.84-3.48,7.74,7.74,0,0,1,6.8,3.48,15.62,15.62,0,0,1,0,14.76,7.74,7.74,0,0,1-6.8,3.48,7.83,7.83,0,0,1-6.84-3.48,13.23,13.23,0,0,1-1.82-7.38A13.22,13.22,0,0,1,670.59,121.17Zm3.7,12.65a3.46,3.46,0,0,0,3.13,1.69,3.37,3.37,0,0,0,3.1-1.69,9.71,9.71,0,0,0,1.15-5.27,9.71,9.71,0,0,0-1.15-5.27,3.37,3.37,0,0,0-3.1-1.69,3.46,3.46,0,0,0-3.13,1.69,13,13,0,0,0,0,10.54Z"/><path class="cls-9" d="M717,138.89V125h-5v-3c3,0,5.14-1.72,5.56-3.9h3.8v20.73Z"/><path class="cls-9" d="M740,121.84c-1.57,1.34-7.38,6.61-8.3,17.06h-4.57A25.57,25.57,0,0,1,735,122H724.29v-3.8H740Z"/><path class="cls-13" d="M362.15,102.21H306.07v80.62l25.77-20.48a4,4,0,0,1,4.93,0l25.37,20.47Z"/><circle class="cls-27" cx="334.51" cy="72.07" r="50.45"/><path class="cls-28" d="M290,74.33c0-.66,0-1.32,0-2a45,45,0,0,1,86.49-17.52"/><path class="cls-28" d="M291.28,85.68a45,45,0,0,0,85.83.57"/><path class="cls-27" d="M296.76,88.17a41,41,0,0,0,36.73,24.89h1.28A40.93,40.93,0,0,0,372,88.17"/><path class="cls-27" d="M293.54,74.19a40.95,40.95,0,0,1,35.59-42.58"/><path class="cls-27" d="M367,47.46a40.89,40.89,0,0,1,8.27,26.73"/><path class="cls-27" d="M334.71,31.18a40.68,40.68,0,0,1,8.61,1.16"/><line class="cls-27" x1="318.21" y1="90.42" x2="306.38" y2="90.42"/><line class="cls-27" x1="364.17" y1="90.78" x2="352.59" y2="90.78"/><path class="cls-9" d="M325.21,93.13v-3.8l-1.56,3.8h-.88l-1.56-3.77v3.77h-1V87.71h1.39l1.63,3.92,1.59-3.92h1.44v5.42Z"/><path class="cls-9" d="M328.3,91l.93-.14c.21,0,.28-.14.28-.27s-.21-.49-.63-.49a.67.67,0,0,0-.72.61l-.9-.19a1.5,1.5,0,0,1,1.61-1.24c1.19,0,1.64.67,1.64,1.43v1.85a4.23,4.23,0,0,0,0,.6h-.93a2.5,2.5,0,0,1,0-.45,1.26,1.26,0,0,1-1.11.56,1.19,1.19,0,0,1-1.29-1.13A1.16,1.16,0,0,1,328.3,91Zm1.21.64v-.17l-.85.13a.47.47,0,0,0-.47.47.44.44,0,0,0,.49.44A.76.76,0,0,0,329.5,91.61Z"/><path class="cls-9" d="M331.52,93.13V87.59h1v5.54Z"/><path class="cls-9" d="M334.5,91l.93-.14c.21,0,.28-.14.28-.27s-.21-.49-.63-.49a.67.67,0,0,0-.72.61l-.9-.19a1.5,1.5,0,0,1,1.61-1.24c1.19,0,1.64.67,1.64,1.43v1.85a4.23,4.23,0,0,0,0,.6h-.93a2.5,2.5,0,0,1,0-.45,1.26,1.26,0,0,1-1.11.56,1.19,1.19,0,0,1-1.29-1.13A1.16,1.16,0,0,1,334.5,91Zm1.21.64v-.17l-.85.13a.47.47,0,0,0-.47.47.44.44,0,0,0,.49.44A.76.76,0,0,0,335.71,91.61Z"/><path class="cls-9" d="M337.85,94.61l.89-2-1.6-3.29h1.14l1,2.2.93-2.2h1.09l-2.36,5.25Z"/><path class="cls-9" d="M342.41,91.89a.63.63,0,0,0,.69.57c.34,0,.5-.18.5-.37s-.11-.31-.41-.37l-.5-.12c-.73-.16-1.06-.6-1.06-1.12a1.48,1.48,0,0,1,2.88-.15l-.85.19a.57.57,0,0,0-.62-.5.43.43,0,0,0-.48.37c0,.18.14.3.34.34l.54.11c.74.15,1.12.6,1.12,1.16a1.3,1.3,0,0,1-1.46,1.24,1.41,1.41,0,0,1-1.57-1.16Z"/><path class="cls-9" d="M345.89,87.5a.63.63,0,1,1-.63.63A.63.63,0,0,1,345.89,87.5Zm-.5,5.63V89.37h1v3.76Z"/><path class="cls-9" d="M348.39,91l.93-.14c.21,0,.28-.14.28-.27s-.21-.49-.63-.49a.67.67,0,0,0-.72.61l-.9-.19A1.5,1.5,0,0,1,349,89.25c1.19,0,1.64.67,1.64,1.43v1.85a4.23,4.23,0,0,0,0,.6h-.93a2.56,2.56,0,0,1,0-.45,1.26,1.26,0,0,1-1.11.56,1.19,1.19,0,0,1-1.29-1.13A1.16,1.16,0,0,1,348.39,91Zm1.21.64v-.17l-.85.13a.47.47,0,0,0-.47.47.44.44,0,0,0,.49.44A.76.76,0,0,0,349.59,91.61Z"/><path class="cls-9" d="M307.29,50.27a2,2,0,1,1-2,2A2,2,0,0,1,307.29,50.27Zm-1.61,17.91v-12h3.24v12Z"/><path class="cls-9" d="M312.62,68.18V50.93h10.81v3.16H316V58h6.74v3H316v4h7.45v3.16Z"/><path class="cls-9" d="M342.73,68.18V56.09l-5,12.1H335l-5-12v12h-3.21V50.93h4.43l5.18,12.46,5.06-12.46H346V68.18Z"/><path class="cls-9" d="M360.25,64.24h-7l-1.44,3.94h-3.55l6.62-17.26h3.89l6.57,17.26h-3.65Zm-5.89-3.07h4.77l-2.38-6.52Z"/><path class="cls-9" d="M320.2,76a3.64,3.64,0,0,1-.07-.66,3.21,3.21,0,0,1,3.48-3.18A3.15,3.15,0,0,1,327,75.19a3.42,3.42,0,0,1-1.85,2.95l-1.83,1.12a1.94,1.94,0,0,0-.82.87h4.56v1.75h-7a4.35,4.35,0,0,1,2.25-4.06l1.57-.94A1.86,1.86,0,0,0,325,75.22a1.3,1.3,0,0,0-1.44-1.31A1.44,1.44,0,0,0,322,75.5a2.09,2.09,0,0,0,.07.53Z"/><path class="cls-9" d="M329,73.72a3.6,3.6,0,0,1,3.14-1.6,3.55,3.55,0,0,1,3.13,1.6,7.18,7.18,0,0,1,0,6.78,3.55,3.55,0,0,1-3.13,1.6A3.6,3.6,0,0,1,329,80.5a7.29,7.29,0,0,1,0-6.78Zm1.7,5.81a1.59,1.59,0,0,0,1.44.78,1.55,1.55,0,0,0,1.42-.78,5.81,5.81,0,0,0,0-4.84,1.55,1.55,0,0,0-1.42-.78,1.59,1.59,0,0,0-1.44.78,6,6,0,0,0,0,4.84Z"/><path class="cls-9" d="M339.3,81.87V75.5H337V74.13a2.43,2.43,0,0,0,2.55-1.79h1.75v9.52Z"/><path class="cls-9" d="M349.88,74a11.39,11.39,0,0,0-3.82,7.84H344a11.75,11.75,0,0,1,3.58-7.78h-4.9V72.34h7.23Z"/><path class="cls-27" d="M289.92,78.49S289,92.4,304.8,106.36"/><path class="cls-27" d="M377.48,58.35s5.2,17-2.18,32.56"/><path class="cls-29" d="M348,33.41a38.92,38.92,0,0,1,16.26,10.68"/></g></svg>