<svg id="Layer_1" data-name="Layer 1" xmlns="http://www.w3.org/2000/svg" viewBox="0 0 1024 170">
    <defs>
        <style>
            .cls-1{fill:none}.cls-2{clip-path:url(#clip-path)}.cls-3{fill:#f1f3f2}.cls-4{clip-path:url(#clip-path-2)}.cls-5{fill:#f63}.cls-6{fill:#fff}.cls-7{fill:#3cc}
        </style>
        <clipPath id="clip-path">
            <path class="cls-1" d="M0 0h1024v170H0z"/>
        </clipPath>
        <clipPath id="clip-path-2">
            <path class="cls-1" d="M0-.06h1027v170.94H0z"/>
        </clipPath>
    </defs>
    <title>
        Untitled-3
    </title>
    <g class="cls-2">
        <path class="cls-3" d="M0-.06h1147v170.94H0z"/>
        <g class="cls-4">
            <path class="cls-5" d="M613.44-.13h24.19v117.48h-24.19zm46.75 0h24.19v117.48h-24.19zm46.76 0h24.19v117.48h-24.19zm46.76 0h24.19v117.48h-24.19z"/>
            <circle class="cls-6" cx="777.89" cy="38.39" r="11.85"/>
            <circle class="cls-5" cx="802.6" cy="70.78" r="11.85"/>
            <circle class="cls-6" cx="848.36" cy="96.58" r="11.85"/>
            <circle class="cls-6" cx="894.4" cy="23.74" r="11.85"/>
            <path class="cls-3" d="M170.1 54.87h82.59v106.06H170.1z"/>
            <path class="cls-7" d="M163 174.86V33.76h88.36v25.87h-60.9v32.25h55.13v24.48h-55.13V149h60.9v25.87zm711.52-77.79h-51.34L812.65 126h-26L835.12-.46h28.53L911.79 126H885zm-43.15-22.46h34.95l-17.47-47.79zM948.79 114H948c-6.51-.05-10.85-2.45-14.06-7.77l-3.11-5.23c-1.42-2.36-2.78-3.32-4.72-3.32-1.61 0-3.49 1-3.49 3.93 0 2.61 1.65 4.17 4.41 4.17a6.28 6.28 0 0 0 1.53-.21l1-.27-.25 8-.6.14a12.18 12.18 0 0 1-2.36.26c-5.61 0-11.28-4.21-11.28-12.25 0-7 4.58-12.1 10.89-12.1 4.21 0 7.8 2.23 10.39 6.46l3.67 6a8 8 0 0 0 1.35 1.67V89.19h7.36zm-22.68-17.91c2.51 0 4.39 1.27 6.1 4.1l3.09 5.17c2.75 4.56 6.44 6.74 11.88 7V90.8H943v15.4l-1.1-.44a7.21 7.21 0 0 1-3.23-3L935 96.68c-2.31-3.77-5.35-5.69-9-5.69-5.38 0-9.28 4.41-9.28 10.49 0 7.31 5 10.63 9.67 10.63a10.41 10.41 0 0 0 1.39-.11l.14-4.66a6.94 6.94 0 0 1-.9.06c-3.66 0-6-2.27-6-5.78-.02-3.8 2.64-5.53 5.09-5.53zm6.23-8.78c-4.85 0-8.65-.94-11.59-2.88a12.6 12.6 0 0 1-5.62-11 12.41 12.41 0 0 1 5.62-11c3-2 6.8-2.93 11.59-2.93s8.59 1 11.59 2.93a12.41 12.41 0 0 1 5.63 11 12.6 12.6 0 0 1-5.62 11c-2.94 1.94-6.75 2.88-11.6 2.88zm-10.71-4.22c2.71 1.78 6.12 2.61 10.71 2.61s8-.83 10.71-2.61a11.09 11.09 0 0 0 4.9-9.66 10.87 10.87 0 0 0-4.9-9.61c-2.73-1.8-6.24-2.67-10.71-2.67s-8 .87-10.71 2.67a10.87 10.87 0 0 0-4.9 9.61 11.1 11.1 0 0 0 4.9 9.66zm10.71-2.44c-3.69 0-6.52-.61-8.4-1.82a6 6 0 0 1-2.94-5.41 5.89 5.89 0 0 1 2.94-5.36c1.87-1.25 4.62-1.87 8.39-1.87s6.53.62 8.41 1.88a5.87 5.87 0 0 1 2.92 5.35 6 6 0 0 1-2.93 5.41c-1.87 1.17-4.73 1.82-8.39 1.82zm0-12.84c-3.4 0-5.93.54-7.52 1.61a4.3 4.3 0 0 0-2.2 4 4.43 4.43 0 0 0 2.18 4c1.62 1 4.16 1.57 7.54 1.57s5.91-.53 7.53-1.56a4.43 4.43 0 0 0 2.18-4 4.28 4.28 0 0 0-2.18-4c-1.6-1.08-4.13-1.62-7.53-1.62zm-4.51-9.62h-6.09v-.8c0-4-2.15-7-5.23-7.61l-.66-.12v-7.23h32.94v8.23h-21zm-4.52-1.61h2.91v-7.53h21V44h-29.76v4.31c3.29.99 5.54 4.17 5.85 8.27zM934.32 38c-11.48 0-19.2-7.31-19.2-18.18a14.51 14.51 0 0 1 1.56-7l.33-.56 6.85 2.33-.34.8a12.59 12.59 0 0 0-1 4.85c0 4.3 2.1 7.53 5.63 8.93a10.53 10.53 0 0 1-1.74-6c0-6.95 4.55-11.61 11.33-11.61s11.77 5.44 11.77 12.95c0 6.72-4.7 13.49-15.19 13.49zm-16.55-23.76a14 14 0 0 0-1 5.58c0 10.07 6.9 16.57 17.59 16.57 8.25 0 13.58-4.67 13.58-11.89 0-6.55-4.29-11.31-10.2-11.31S928 17.12 928 23.2a8.12 8.12 0 0 0 3.1 6.8l2.82 1.88-3.37-.41c-5.88-.72-9.69-5.11-9.69-11.18a13.9 13.9 0 0 1 .86-4.68zm20.07 16.62a6 6 0 0 1-6-6.31c0-3.68 2.53-6.35 6-6.35a6 6 0 0 1 6.07 6.35 6.13 6.13 0 0 1-6.07 6.31zm0-11.05c-2.6 0-4.41 2-4.41 4.74 0 2.26 1.38 4.7 4.41 4.7a4.49 4.49 0 0 0 4.46-4.7 4.41 4.41 0 0 0-4.46-4.74zm16.56-7.42h12.32v104.72H954.4z"/>
            <path class="cls-3" d="M453.24 24.01h108.35v93.01H453.24z"/>
            <path class="cls-7" d="M-1.56-6.81h54.7v179.82h-54.7z"/>
            <path class="cls-5" d="M163-.46h95.47v34.22H163z"/>
            <path class="cls-3" d="M410.14 134.83h51.59v56.37h-51.59z"/>
            <path class="cls-7" d="M480.54 122.94a8 8 0 0 1-8-8.85 36.39 36.39 0 0 1 72.67 0v.7a8 8 0 0 1-7.85 8.13h-.14a8 8 0 0 1-8-7.71 20.39 20.39 0 0 0-40.74 0 8 8 0 0 1-7.94 7.73z"/>
            <path class="cls-5" d="M453.24 117.02h452.28v8.94H453.24z"/>
            <path class="cls-6" d="M53.14 8H-.15v77.07L23.67 66a4.81 4.81 0 0 1 6 0l23.44 19z"/>
            <path class="cls-6" d="M53.29-.51H0v77.12l26.85-21.5 26.44 21.5V-.51z"/>
            <circle class="cls-3" cx="26.45" cy="85.37" r="6.61"/>
            <path class="cls-3" d="M455.21 134.81h449.85v36.9H455.21z"/>
            <path class="cls-6" d="M905.06 116.64h75.49v54.94h-75.49z"/>
            <path class="cls-6" d="M1025 105.88h-46v65.7l23.17-18.46 22.83 18.46v-65.7z"/>
            <path class="cls-5" d="M1025 89.88h-46v65.87l23.17-18.47 22.83 18.47V89.88z"/>
            <path class="cls-6" d="M1025 72.88h-46v67.04l23.17-18.47 22.83 18.47V72.88z"/>
            <path class="cls-5" d="M1025 57.88h-46v66.2l23.17-18.46 22.83 18.46v-66.2z"/>
            <path class="cls-6" d="M1025 42.88h-46v65.37l23.17-18.46 22.83 18.46V42.88z"/>
            <path class="cls-5" d="M1025 25.88h-46v66.54l23.17-18.47L1025 92.42V25.88z"/>
            <path class="cls-6" d="M1025 10.88h-46v65.71l23.17-18.47L1025 76.59V10.88z"/>
            <path class="cls-5" d="M1025-5.13h-46v65.88l23.17-18.46L1025 60.75V-5.13z"/>
            <path class="cls-7" d="M455.67 125.97h449.67v8.83H455.67z"/>
            <path class="cls-6" d="M882.14 116.57L862.48 139a7.55 7.55 0 0 0 0 9.9l19.7 22.85h-85.9v5.54h172.19v-60.72z"/>
            <circle class="cls-3" cx="886.22" cy="144.14" r="7.34"/>
            <path class="cls-7" d="M455.73 134.62l-17.84 18.54 18.05 18.55h-52.95l-.05-36.95 52.79-.14z"/>
            <path class="cls-5" d="M375.87 275.86V177l-40.6 98.91h-22.89l-40.6-98.11v98.11h-26.26V134.76h36.22l42.39 101.89 41.39-101.89h37.42v141.1z"/>
            <path class="cls-1" d="M0 .87h1027v170.84H0z"/>
            <path class="cls-6" d="M245.55-.46h210.12V134.8H245.55z"/>
        </g>
        <path class="cls-7" d="M602 13.1a16.28 16.28 0 1 1-16.46-16.29A16.27 16.27 0 0 1 602 13.1zM455.85 0h97.71v26.4h-97.71z"/>
    </g>
    <path class="cls-5" d="M132.71 85.36H84.32v69.56l22.24-17.67a3.41 3.41 0 0 1 4.26 0l21.89 17.66z"/>
    <circle class="cls-6" cx="108.86" cy="59.36" r="43.53"/>
    <path class="cls-7" d="M108.86 103.25a43.9 43.9 0 1 1 43.9-43.9 43.95 43.95 0 0 1-43.9 43.9zm0-87.06A43.16 43.16 0 1 0 152 59.36a43.21 43.21 0 0 0-43.14-43.16z"/>
    <path class="cls-6" d="M70.43 61.31V59.6A38.84 38.84 0 0 1 145 44.47"/>
    <path class="cls-7" d="M70.43 61.66a.36.36 0 0 1-.36-.34v-1.73a39.2 39.2 0 0 1 75.31-15.26.36.36 0 1 1-.66.28 38.48 38.48 0 0 0-73.93 15v1.7a.36.36 0 0 1-.34.38z"/>
    <path class="cls-6" d="M71.56 71.1a38.85 38.85 0 0 0 74.05.49"/>
    <path class="cls-7" d="M108.66 98.79A39 39 0 0 1 71.22 71.2a.36.36 0 0 1 .68-.2 38.49 38.49 0 0 0 73.37.49.36.36 0 0 1 .68.22 39.1 39.1 0 0 1-37.29 27.08z"/>
    <path class="cls-6" d="M76.29 73.25A35.36 35.36 0 0 0 108 94.73h1.1a35.31 35.31 0 0 0 32.15-21.48"/>
    <path class="cls-7" d="M108.62 95.1H108a35.65 35.65 0 0 1-32-21.7.37.37 0 1 1 .67-.29A35 35 0 0 0 108 94.36h1.09a34.91 34.91 0 0 0 17.21-4.72 34.55 34.55 0 0 0 14.6-16.53.37.37 0 1 1 .68.29 35.28 35.28 0 0 1-14.91 16.88 35.64 35.64 0 0 1-17.57 4.82z"/>
    <path class="cls-6" d="M73.51 61.19a35.33 35.33 0 0 1 30.7-36.74"/>
    <path class="cls-7" d="M73.51 61.55a.37.37 0 0 1-.37-.35 35.69 35.69 0 0 1 31-37.12.37.37 0 1 1 .09.73 35 35 0 0 0-30.35 36.36.37.37 0 0 1-.35.38z"/>
    <path class="cls-6" d="M136.87 38.13A35.28 35.28 0 0 1 144 61.19"/>
    <path class="cls-7" d="M144 61.55a.37.37 0 0 1-.35-.38 35 35 0 0 0-7.06-22.82.37.37 0 0 1 .58-.44 35.69 35.69 0 0 1 7.21 23.3.37.37 0 0 1-.38.34z"/>
    <path class="cls-6" d="M109 24.08a35.09 35.09 0 0 1 7.43 1"/>
    <path class="cls-7" d="M116.46 25.44h-.09a34.81 34.81 0 0 0-7.35-1 .37.37 0 0 1-.36-.38.36.36 0 0 1 .38-.36 35.55 35.55 0 0 1 7.51 1 .37.37 0 0 1-.09.72zM94.8 77.76H84.59a.41.41 0 0 1 0-.81H94.8a.41.41 0 1 1 0 .81zm39.65.29h-10a.4.4 0 1 1 0-.81h10a.4.4 0 0 1 0 .81zm-33.61 1.63V76.4l-1.34 3.28h-.76l-1.35-3.26v3.26h-.87V75h1.2l1.41 3.38L100.5 75h1.24v4.68zm2.66-1.87l.8-.12c.19 0 .24-.12.24-.23s-.17-.46-.54-.46a.58.58 0 0 0-.62.53l-.78-.17a1.29 1.29 0 0 1 1.4-1.03c1 0 1.41.58 1.41 1.24v1.6a3.61 3.61 0 0 0 0 .51h-.81a2.23 2.23 0 0 1 0-.39 1.09 1.09 0 0 1-1 .48 1 1 0 0 1-1.12-1 1 1 0 0 1 1.02-.96zm1 .55v-.15l-.73.11a.41.41 0 0 0-.4.41.38.38 0 0 0 .42.38.66.66 0 0 0 .75-.74zm1.78 1.32V74.9h.88v4.78zm2.57-1.87l.8-.12c.19 0 .24-.12.24-.23s-.18-.42-.55-.42a.58.58 0 0 0-.62.53l-.78-.17a1.29 1.29 0 0 1 1.39-1.07c1 0 1.41.58 1.41 1.24v1.6a3.61 3.61 0 0 0 0 .51H110a2.23 2.23 0 0 1 0-.39 1.09 1.09 0 0 1-1 .48 1 1 0 0 1-1.12-1 1 1 0 0 1 .97-.96zm1 .55v-.15l-.73.11a.41.41 0 0 0-.4.41.38.38 0 0 0 .42.38.66.66 0 0 0 .76-.74zm1.89 2.64l.77-1.69-1.38-2.84h1l.87 1.9.8-1.9h.94l-2 4.53zm3.94-2.39a.54.54 0 0 0 .59.5c.29 0 .43-.15.43-.32s-.1-.26-.35-.32l-.43-.1a1 1 0 0 1-.91-1 1.28 1.28 0 0 1 2.49-.12l-.73.17a.5.5 0 0 0-.54-.44.37.37 0 0 0-.42.32c0 .16.12.26.3.29l.46.1c.64.13 1 .52 1 1a1.12 1.12 0 0 1-1.26 1.07 1.22 1.22 0 0 1-1.35-1zm3-3.79a.54.54 0 1 1-.54.55.54.54 0 0 1 .54-.55zm-.44 4.86v-3.25h.88v3.25zm2.59-1.87l.8-.12c.19 0 .24-.12.24-.23s-.18-.42-.55-.42a.58.58 0 0 0-.62.53l-.78-.17a1.29 1.29 0 0 1 1.39-1.07c1 0 1.41.58 1.41 1.24v1.6a3.61 3.61 0 0 0 0 .51H122a2.23 2.23 0 0 1 0-.39 1.09 1.09 0 0 1-1 .48 1 1 0 0 1-1.12-1 1 1 0 0 1 .95-.96zm1 .55v-.15l-.73.11a.41.41 0 0 0-.4.41.38.38 0 0 0 .42.38.66.66 0 0 0 .76-.74zM85.37 40.55a1.72 1.72 0 1 1-1.72 1.74 1.72 1.72 0 0 1 1.72-1.74zM84 56V45.68h2.79V56zm6 0V41.12h9.32v2.73h-6.45v3.4h5.82v2.58h-5.82v3.44h6.42V56zm25.95 0V45.57L111.66 56h-2.41L105 45.65V56h-2.77V41.12H106l4.47 10.75 4.37-10.75h3.95V56zm15.12-3.4h-6l-1.29 3.4h-3.07l5.71-14.89h3.36L135.46 56h-3.15zM126 50h4.12L128 44.33zm-41.7 8.42a.48.48 0 1 1-.48.49.48.48 0 0 1 .48-.49zm-.39 4.32v-2.89h.78v2.89zm2.49-1.57v1.57h-.81v-4.16h1.56a1.3 1.3 0 1 1 0 2.6zm.65-.7a.6.6 0 1 0 0-1.19h-.65v1.19zm3.73.16h-.24c-.4 0-.75.19-.75.82v1.32H89v-2.92h.76v.43a.86.86 0 0 1 .82-.45h.18zm.93-2.21a.48.48 0 1 1-.48.49.48.48 0 0 1 .48-.49zm-.39 4.32v-2.89h.78v2.89zm2.18-1.44a.74.74 0 0 0 .74.82.66.66 0 0 0 .66-.49l.69.23a1.34 1.34 0 0 1-1.35 1 1.5 1.5 0 0 1-1.52-1.53 1.48 1.48 0 0 1 1.5-1.53 1.32 1.32 0 0 1 1.36 1l-.7.24a.63.63 0 0 0-.64-.49.74.74 0 0 0-.74.75zm5.23.62a1.3 1.3 0 0 1-1.32.92 1.54 1.54 0 0 1-.07-3.07 1.35 1.35 0 0 1 1.43 1.5v.24h-2.08a.7.7 0 0 0 .73.66.64.64 0 0 0 .66-.44zM98 61a.58.58 0 0 0-.65-.57.63.63 0 0 0-.65.57zm2.89 1.74v-4.16h2.61v.76h-1.8v1h1.63V61h-1.63v1h1.8v.76zm3.19-1.4v-.69h1.7v.69zm2.19-.68a2.1 2.1 0 0 1 2.12-2.17 1.83 1.83 0 0 1 1.91 1.38l-.76.24a1.09 1.09 0 0 0-1.15-.84 1.39 1.39 0 0 0 0 2.77 1.16 1.16 0 0 0 1.17-.85l.76.23a1.89 1.89 0 0 1-1.93 1.42 2.08 2.08 0 0 1-2.12-2.18zm7.39.64a1.52 1.52 0 1 1-1.52-1.53 1.48 1.48 0 0 1 1.52 1.53zm-.78 0a.74.74 0 1 0-.73.82.74.74 0 0 0 .73-.82zm1.39 1.44v-2.89h.73v.35a1 1 0 0 1 .85-.43.89.89 0 0 1 .86.48 1.07 1.07 0 0 1 2 .62v1.87h-.76V61a.48.48 0 0 0-.51-.55.53.53 0 0 0-.53.57v1.69h-.78V61a.48.48 0 0 0-.51-.55.53.53 0 0 0-.54.57v1.69zm5.2 0v-2.89h.75v.35a1 1 0 0 1 .85-.43.89.89 0 0 1 .86.48 1.07 1.07 0 0 1 2 .62v1.87h-.76V61a.48.48 0 0 0-.51-.55.53.53 0 0 0-.53.57v1.69h-.78V61a.48.48 0 0 0-.51-.55.53.53 0 0 0-.54.57v1.69zm7.79-.82a1.3 1.3 0 0 1-1.32.92 1.54 1.54 0 0 1-.07-3.07 1.35 1.35 0 0 1 1.43 1.5v.24h-2.07a.7.7 0 0 0 .73.66.64.64 0 0 0 .66-.44zm-.73-.95a.58.58 0 0 0-.65-.57.63.63 0 0 0-.65.57zm3.15-.34h-.24c-.4 0-.75.19-.75.82v1.32h-.78v-2.92h.76v.43a.86.86 0 0 1 .82-.45h.18zm1.08.67a.74.74 0 0 0 .74.82.66.66 0 0 0 .66-.49l.69.23a1.34 1.34 0 0 1-1.35 1 1.5 1.5 0 0 1-1.5-1.56 1.48 1.48 0 0 1 1.5-1.53 1.32 1.32 0 0 1 1.36 1l-.7.24a.63.63 0 0 0-.64-.49.74.74 0 0 0-.76.78zm5.24.62a1.3 1.3 0 0 1-1.32.92 1.54 1.54 0 0 1-.07-3.07 1.35 1.35 0 0 1 1.43 1.5v.24h-2.07a.7.7 0 0 0 .73.66.64.64 0 0 0 .66-.44zm-.73-.95a.58.58 0 0 0-.65-.57.63.63 0 0 0-.62.6zm-53.21 8.51v-2.92l-1.2 2.92h-.68L79 66.58v2.9h-.78v-4.16h1.07l1.25 3 1.22-3h1.1v4.17zm4.26-.83a1.3 1.3 0 0 1-1.32.92 1.54 1.54 0 0 1-.07-3.07 1.35 1.35 0 0 1 1.43 1.5v.24h-2.08a.7.7 0 0 0 .73.66.64.64 0 0 0 .66-.44zm-.73-.95a.58.58 0 0 0-.65-.57.63.63 0 0 0-.65.57zm3.15-.33h-.24c-.4 0-.75.19-.75.82v1.32H87v-2.92h.76V67a.86.86 0 0 1 .82-.45h.18zm1.08.63a.74.74 0 0 0 .74.82.66.66 0 0 0 .66-.49l.69.23a1.34 1.34 0 0 1-1.35 1A1.5 1.5 0 0 1 89 68a1.48 1.48 0 0 1 1.5-1.53 1.32 1.32 0 0 1 1.36 1l-.7.24a.63.63 0 0 0-.64-.49.74.74 0 0 0-.7.78zm3.45 1.48h-.78v-4.25h.78v1.6a1.09 1.09 0 0 1 1.86.83v1.82h-.78v-1.69a.51.51 0 0 0-.53-.58.54.54 0 0 0-.54.56zm3.33-1.66l.71-.11c.16 0 .22-.11.22-.21s-.16-.38-.49-.38a.51.51 0 0 0-.55.47l-.69-.15a1.15 1.15 0 0 1 1.24-1c.92 0 1.26.52 1.26 1.1V69a3.26 3.26 0 0 0 0 .46h-.72a2 2 0 0 1 0-.35 1 1 0 0 1-.85.43.91.91 0 0 1-1-.87.89.89 0 0 1 .87-.85zm.93.49v-.13l-.65.1a.36.36 0 0 0-.36.36.34.34 0 0 0 .38.33.59.59 0 0 0 .63-.66zm2.32 1.17h-.78v-2.89h.76v.36a1 1 0 0 1 .83-.43 1 1 0 0 1 1 1.15v1.82h-.78v-1.7a.51.51 0 0 0-.53-.58.54.54 0 0 0-.54.6zm3.61-2.89h.54v.69h-.58v1.21c0 .25.12.33.34.33h.24v.65a1.16 1.16 0 0 1-.44.07.84.84 0 0 1-.92-.89v-1.37h-.52v-.69h.15a.42.42 0 0 0 .45-.46v-.41h.7zm5.21 1.94H107l-.35 1h-.86l1.6-4.17h.94l1.59 4.17H109zm-1.42-.74h1.15l-.58-1.57zm5.41-1.2l.62 1.86.53-1.86h.78l-.9 2.89h-.78l-.68-2-.66 2h-.79l-.92-2.89h.82l.53 1.86.63-1.86zm3.09 1.23l.71-.11c.16 0 .22-.11.22-.21s-.16-.38-.49-.38a.51.51 0 0 0-.55.47l-.69-.15a1.15 1.15 0 0 1 1.24-1c.92 0 1.26.52 1.26 1.1V69a3.26 3.26 0 0 0 0 .46h-.72a2 2 0 0 1 0-.35 1 1 0 0 1-.85.43.91.91 0 0 1-1-.87.89.89 0 0 1 .87-.85zm.93.49v-.13l-.65.1a.36.36 0 0 0-.36.36.34.34 0 0 0 .33.36.59.59 0 0 0 .68-.69zm3.32-.94h-.24c-.4 0-.75.19-.75.82v1.32h-.78v-2.92h.77V67a.86.86 0 0 1 .82-.45h.18zm3.26 1.63v.52h-.75a2 2 0 0 1 0-.33.91.91 0 0 1-.81.41 1.52 1.52 0 0 1 0-3 .87.87 0 0 1 .82.36v-1.73h.77zm-1.47-.11a.73.73 0 0 0 .71-.83.72.72 0 0 0-.71-.8.82.82 0 0 0 0 1.63zm2.74-.36a.48.48 0 0 0 .53.44c.26 0 .38-.13.38-.29s-.09-.24-.31-.28l-.38-.09c-.56-.12-.81-.46-.81-.86a1.14 1.14 0 0 1 2.21-.11l-.65.15a.44.44 0 0 0-.48-.39.33.33 0 0 0-.37.29c0 .14.11.23.26.26l.41.09c.57.12.86.46.86.89a1 1 0 0 1-1.12 1 1.09 1.09 0 0 1-1.2-.89zm6.47 1.1h-3.12v-.15a1.88 1.88 0 0 1 1-1.75l.63-.38c.33-.2.38-.37.38-.53a.37.37 0 0 0-.43-.37.43.43 0 0 0-.46.48.69.69 0 0 0 0 .17l.05.2h-1.09v-.11a1.58 1.58 0 0 1 0-.3 1.44 1.44 0 0 1 1.54-1.43 1.41 1.41 0 0 1 1.5 1.35 1.52 1.52 0 0 1-.81 1.31l-.73.45-.1.07H131zm-2.81-.3h2.51v-.4h-1.9l.08-.21a.93.93 0 0 1 .39-.42l.74-.45a1.21 1.21 0 0 0 .67-1.05 1.12 1.12 0 0 0-1.22-1.08 1.13 1.13 0 0 0-1.24 1.13 1.12 1.12 0 0 0 0 .12h.46v-.06a.72.72 0 0 1 .75-.78.67.67 0 0 1 .73.67.89.89 0 0 1-.53.79L129 68a1.55 1.55 0 0 0-.82 1.33zm4.67.39a1.58 1.58 0 0 1-1.38-.71 3.06 3.06 0 0 1 0-2.88 1.58 1.58 0 0 1 1.38-.71 1.56 1.56 0 0 1 1.38.71 3 3 0 0 1 0 2.88 1.56 1.56 0 0 1-1.38.71zm-1.13-3.42a2.25 2.25 0 0 0-.31 1.27 2.27 2.27 0 0 0 .31 1.27 1.3 1.3 0 0 0 1.13.57 1.27 1.27 0 0 0 1.13-.57 2.73 2.73 0 0 0 0-2.55 1.27 1.27 0 0 0-1.13-.57 1.3 1.3 0 0 0-1.13.58zm1.13 2.7a.79.79 0 0 1-.7-.38 2.52 2.52 0 0 1 0-2.1.79.79 0 0 1 .7-.38.77.77 0 0 1 .7.38 2.46 2.46 0 0 1 0 2.1.76.76 0 0 1-.7.38zm0-2.56a.49.49 0 0 0-.45.24 2.26 2.26 0 0 0 0 1.78.48.48 0 0 0 .45.24.47.47 0 0 0 .44-.24 2.19 2.19 0 0 0 0-1.78.48.48 0 0 0-.44-.23zm3.81 3.19h-1.1v-2.55h-.92v-.84h.15a.83.83 0 0 0 .88-.6v-.12h1zm-.8-.3h.5v-3.51h-.43a1.11 1.11 0 0 1-1 .71v.25h.92zm2.93.39a1.71 1.71 0 0 1-1.7-1.9 2.2 2.2 0 0 1 2.27-2.39 1.81 1.81 0 0 1 .88.2l.1.06-.31.93-.15-.06a1.49 1.49 0 0 0-.57-.12 1.07 1.07 0 0 0-1 .5 1.46 1.46 0 0 1 2.07 1.3 1.53 1.53 0 0 1-1.59 1.48zm.57-4a1.9 1.9 0 0 0-2 2.09 1.41 1.41 0 0 0 1.4 1.6 1.22 1.22 0 0 0 1.32-1.19A1.08 1.08 0 0 0 139 67.1a.93.93 0 0 0-.78.36l-.35.53.08-.63a1.35 1.35 0 0 1 1.41-1.22 1.71 1.71 0 0 1 .54.09l.13-.39a1.71 1.71 0 0 0-.66-.11zM138.8 69a.8.8 0 0 1-.82-.79.82.82 0 1 1 .82.79zm0-1.27a.48.48 0 0 0-.52.48.52.52 0 0 0 1 0 .48.48 0 0 0-.48-.45z"/>
    <path class="cls-6" d="M70.39 64.9s-.82 12 12.84 24"/>
    <path class="cls-7" d="M83.23 89.31a.37.37 0 0 1-.24-.09c-7.11-6.27-10.26-12.54-11.65-16.69A21.71 21.71 0 0 1 70 64.88a.38.38 0 0 1 .39-.34.37.37 0 0 1 .34.39c0 .12-.63 12 12.72 23.74a.37.37 0 0 1-.24.64z"/>
    <path class="cls-6" d="M145.93 47.52s4.49 14.7-1.88 28.09"/>
    <path class="cls-7" d="M144 76a.37.37 0 0 1-.33-.52c6.24-13.11 1.91-27.68 1.87-27.83a.37.37 0 1 1 .7-.21c0 .15 4.46 15-1.9 28.36a.37.37 0 0 1-.34.2zm-9.46-40.41a.37.37 0 0 1-.28-.13 33.48 33.48 0 0 0-13.85-9.1.37.37 0 0 1 .22-.71 34.27 34.27 0 0 1 14.2 9.35.37.37 0 0 1-.28.62zM264 33.69a1.67 1.67 0 1 1-1.67 1.69 1.67 1.67 0 0 1 1.67-1.69zm-1.34 15v-10h2.71v10zm8.57-5.44v5.44h-2.81V34.24h5.4a4.51 4.51 0 1 1 0 9zm2.24-2.42a2.08 2.08 0 1 0 0-4.14h-2.22v4.14zm12.96.52a4.12 4.12 0 0 0-.82-.08c-1.39 0-2.59.67-2.59 2.83v4.59h-2.71v-10h2.63v1.49a3 3 0 0 1 2.85-1.57 6.08 6.08 0 0 1 .63 0zm3.27-7.66a1.67 1.67 0 1 1-1.7 1.69 1.67 1.67 0 0 1 1.7-1.69zm-1.34 15v-10h2.71v10zm7.55-5.01a2.58 2.58 0 0 0 2.57 2.83 2.3 2.3 0 0 0 2.3-1.69l2.38.79a4.65 4.65 0 0 1-4.68 3.39 5.19 5.19 0 0 1-5.28-5.32 5.13 5.13 0 0 1 5.2-5.32 4.59 4.59 0 0 1 4.71 3.38l-2.43.81a2.19 2.19 0 0 0-2.22-1.69 2.55 2.55 0 0 0-2.55 2.82zm18.14 2.14a4.52 4.52 0 0 1-4.56 3.18 5.08 5.08 0 0 1-5.18-5.36 5 5 0 0 1 4.93-5.28c3.1 0 5 2 5 5.2v.84H307a2.44 2.44 0 0 0 2.53 2.28 2.21 2.21 0 0 0 2.28-1.53zm-2.53-3.28a2 2 0 0 0-2.24-2 2.17 2.17 0 0 0-2.24 2zm10.05 6.15V34.24h9v2.65h-6.24v3.3H330v2.51h-5.65V46h6.24v2.65zm11.09-4.85v-2.4h5.91v2.4zm7.62-2.36a7.29 7.29 0 0 1 7.36-7.54c4 0 6.05 2.45 6.62 4.79l-2.65.84a3.78 3.78 0 0 0-4-2.91 4.45 4.45 0 0 0-4.44 4.83 4.46 4.46 0 0 0 4.48 4.77 4 4 0 0 0 4.06-3l2.63.79a6.57 6.57 0 0 1-6.66 4.95 7.21 7.21 0 0 1-7.4-7.52zm25.64 2.2a5.26 5.26 0 1 1-5.26-5.32 5.15 5.15 0 0 1 5.26 5.32zm-2.71 0a2.56 2.56 0 1 0-5.09 0 2.56 2.56 0 1 0 5.09 0zm4.85 5.01v-10h2.59v1.22a3.45 3.45 0 0 1 2.93-1.51 3.1 3.1 0 0 1 3 1.67 3.71 3.71 0 0 1 6.81 2.14v6.5h-2.63v-6a1.67 1.67 0 0 0-1.77-1.9 1.84 1.84 0 0 0-1.85 2v5.87h-2.69v-6a1.68 1.68 0 0 0-1.77-1.9 1.83 1.83 0 0 0-1.87 2v5.87zm18.06 0v-10h2.59v1.22a3.45 3.45 0 0 1 2.93-1.51 3.1 3.1 0 0 1 3 1.67 3.71 3.71 0 0 1 6.81 2.14v6.5h-2.65v-6a1.67 1.67 0 0 0-1.77-1.9 1.84 1.84 0 0 0-1.85 2v5.87h-2.69v-6a1.68 1.68 0 0 0-1.77-1.9 1.83 1.83 0 0 0-1.87 2v5.87zm27.05-2.87A4.52 4.52 0 0 1 408.6 49a5.08 5.08 0 0 1-5.18-5.36 5 5 0 0 1 4.93-5.28c3.1 0 5 2 5 5.2v.84h-7.17a2.44 2.44 0 0 0 2.53 2.28 2.21 2.21 0 0 0 2.28-1.53zm-2.53-3.28a2 2 0 0 0-2.24-2 2.17 2.17 0 0 0-2.24 2zm10.92-1.19a4.12 4.12 0 0 0-.82-.08c-1.39 0-2.59.67-2.59 2.83v4.59h-2.71v-10h2.63v1.49a3 3 0 0 1 2.85-1.57 6.08 6.08 0 0 1 .63 0zm3.77 2.33a2.58 2.58 0 0 0 2.57 2.83 2.3 2.3 0 0 0 2.3-1.69l2.38.79A4.65 4.65 0 0 1 427.9 49a5.19 5.19 0 0 1-5.28-5.32 5.13 5.13 0 0 1 5.2-5.32 4.59 4.59 0 0 1 4.71 3.38l-2.43.81a2.19 2.19 0 0 0-2.22-1.69 2.55 2.55 0 0 0-2.55 2.82zm18.14 2.14a4.52 4.52 0 0 1-4.56 3.18 5.08 5.08 0 0 1-5.18-5.36 5 5 0 0 1 4.93-5.28c3.1 0 5 2 5 5.2v.84h-7.26a2.44 2.44 0 0 0 2.53 2.28 2.21 2.21 0 0 0 2.28-1.53zm-2.53-3.28a2 2 0 0 0-2.24-2 2.17 2.17 0 0 0-2.24 2zM276.16 68.61V58.48L272 68.61h-2.34l-4.16-10v10h-2.69V54.16h3.71l4.34 10.43 4.24-10.43h3.83v14.45zM291 65.74a4.52 4.52 0 0 1-4.56 3.18 5.33 5.33 0 0 1-.24-10.64c3.1 0 5 2 5 5.2v.84h-7.17a2.44 2.44 0 0 0 2.53 2.28 2.21 2.21 0 0 0 2.28-1.53zm-2.53-3.28a2 2 0 0 0-2.24-2 2.17 2.17 0 0 0-2.24 2zm10.89-1.19a4.07 4.07 0 0 0-.82-.08c-1.39 0-2.59.67-2.59 2.83v4.59h-2.71v-10h2.63v1.49a3 3 0 0 1 2.85-1.57 6.3 6.3 0 0 1 .63 0zm3.77 2.33a2.58 2.58 0 0 0 2.57 2.83 2.29 2.29 0 0 0 2.3-1.69l2.38.79a4.65 4.65 0 0 1-4.69 3.38 5.19 5.19 0 0 1-5.28-5.32 5.13 5.13 0 0 1 5.2-5.32 4.59 4.59 0 0 1 4.71 3.38l-2.43.82a2.19 2.19 0 0 0-2.22-1.69 2.55 2.55 0 0 0-2.54 2.82zm11.96 5.01h-2.71V53.86h2.71v5.56a3.58 3.58 0 0 1 2.71-1.1c2.55 0 3.73 1.77 3.73 4v6.32h-2.71v-5.88a1.76 1.76 0 0 0-1.85-2 1.88 1.88 0 0 0-1.87 2zm11.58-5.77l2.47-.37c.57-.08.75-.37.75-.71 0-.71-.55-1.3-1.69-1.3a1.78 1.78 0 0 0-1.92 1.63l-2.4-.51c.16-1.57 1.61-3.3 4.3-3.3 3.18 0 4.36 1.79 4.36 3.81V67a11.25 11.25 0 0 0 .12 1.59h-2.49a6.78 6.78 0 0 1-.1-1.2 3.35 3.35 0 0 1-3 1.49 3.17 3.17 0 0 1-3.44-3c.04-1.79 1.37-2.79 3.04-3.04zm3.22 1.71v-.45l-2.26.35a1.27 1.27 0 0 0-1.24 1.26 1.18 1.18 0 0 0 1.3 1.16 2 2 0 0 0 2.2-2.32zm8.11 4.06h-2.71v-10h2.63v1.24a3.33 3.33 0 0 1 2.89-1.51c2.49 0 3.63 1.77 3.63 4v6.32h-2.71v-5.9a1.76 1.76 0 0 0-1.85-2 1.89 1.89 0 0 0-1.88 2.08zm12.51-10.03h2V61h-2v4.2c0 .88.41 1.16 1.18 1.16a3.94 3.94 0 0 0 .84-.08v2.24a4 4 0 0 1-1.53.25 2.9 2.9 0 0 1-3.18-3.1V61H346v-2.4h.51a1.44 1.44 0 0 0 1.56-1.6v-1.41h2.45zm-79.1 26.65h-5.87l-1.2 3.3h-3l5.54-14.45h3.26l5.5 14.45h-3.06zm-4.93-2.57h4l-2-5.46zm18.77-4.16l2.16 6.5 1.85-6.46H292l-3.14 10h-2.71l-2.34-6.85-2.3 6.85h-2.75l-3.2-10h2.85l1.85 6.44 2.18-6.44zM296 82.76l2.47-.37c.57-.08.75-.37.75-.71 0-.71-.55-1.3-1.69-1.3a1.78 1.78 0 0 0-1.92 1.62l-2.4-.51c.16-1.57 1.61-3.3 4.3-3.3 3.18 0 4.36 1.79 4.36 3.81v4.93a11.28 11.28 0 0 0 .12 1.59h-2.49a6.78 6.78 0 0 1-.1-1.2 3.35 3.35 0 0 1-3 1.49 3.17 3.17 0 0 1-3.44-3C293 84 294.32 83 296 82.76zm3.22 1.71V84l-2.26.35a1.27 1.27 0 0 0-1.24 1.26A1.18 1.18 0 0 0 297 86.8a2 2 0 0 0 2.21-2.33zm11.49-3.28a4.12 4.12 0 0 0-.82-.08c-1.39 0-2.59.67-2.59 2.83v4.59h-2.71v-10h2.63V80a3 3 0 0 1 2.85-1.57 6.08 6.08 0 0 1 .63 0zm11.37 5.53c0 .67 0 1.41.08 1.81h-2.59a6.94 6.94 0 0 1-.1-1.16 3.14 3.14 0 0 1-2.81 1.41c-2.85 0-4.89-2.24-4.89-5.28s2-5.24 4.81-5.24c1.73 0 2.55.71 2.83 1.24v-5.73h2.67zm-5.08-.37c1.39 0 2.47-1.06 2.47-2.87a2.49 2.49 0 0 0-2.47-2.8 2.52 2.52 0 0 0-2.49 2.81c-.01 1.8 1.05 2.86 2.49 2.86zm9.48-1.12a1.67 1.67 0 0 0 1.83 1.53c.9 0 1.32-.47 1.32-1s-.31-.82-1.08-1l-1.32-.31c-1.94-.43-2.81-1.59-2.81-3a3.5 3.5 0 0 1 3.75-3.28c2.85 0 3.81 1.81 3.93 2.89l-2.26.51a1.53 1.53 0 0 0-1.65-1.35 1.15 1.15 0 0 0-1.28 1c0 .49.37.79.92.9l1.43.31c2 .41 3 1.61 3 3.08 0 1.63-1.26 3.3-3.89 3.3-3 0-4.06-2-4.18-3.1zm12.38-4.89a5 5 0 0 1-.1-.92c0-2.32 1.75-4.42 4.83-4.42s4.77 2 4.77 4.26a4.75 4.75 0 0 1-2.57 4.1l-2.55 1.55a2.7 2.7 0 0 0-1.14 1.2h6.34v2.43h-9.78a6 6 0 0 1 3.12-5.65l2.18-1.3a2.58 2.58 0 0 0 1.57-2.28 1.81 1.81 0 0 0-2-1.81 2 2 0 0 0-2.1 2.2 2.89 2.89 0 0 0 .1.73zm12.2-3.12a5 5 0 0 1 4.37-2.22 4.94 4.94 0 0 1 4.34 2.22 10 10 0 0 1 0 9.41 4.94 4.94 0 0 1-4.34 2.22 5 5 0 0 1-4.36-2.22 8.44 8.44 0 0 1-1.16-4.71 8.44 8.44 0 0 1 1.15-4.7zm2.36 8.07a2.21 2.21 0 0 0 2 1.08 2.15 2.15 0 0 0 2-1.08 6.19 6.19 0 0 0 .73-3.36 6.19 6.19 0 0 0-.73-3.36 2.15 2.15 0 0 0-2-1.08 2.21 2.21 0 0 0-2 1.08 8.28 8.28 0 0 0 0 6.73zm11.95 3.24v-8.85h-3.18v-1.89a3.38 3.38 0 0 0 3.55-2.49h2.43v13.23zM380 77.89a5.64 5.64 0 0 0-2.18-.47 4.14 4.14 0 0 0-4.38 3.79 3.74 3.74 0 0 1 3.14-1.47 4.24 4.24 0 0 1 4.56 4.44c0 2.71-2.2 4.65-5.12 4.65s-5.36-2.08-5.36-6.07c0-4.75 3-7.76 7.34-7.76a5.76 5.76 0 0 1 2.77.61zm-4 8.58a2.21 2.21 0 1 0-2.32-2.22 2.24 2.24 0 0 0 2.37 2.22z"/>
    <path class="cls-5" d="M272.84 105.42v-7.88l-3.24 7.89h-1.83l-3.24-7.82v7.82h-2.09V94.17h2.89l3.38 8.13 3.3-8.13h3v11.25zm6.4-4.49l1.92-.29c.44-.06.59-.29.59-.56 0-.56-.43-1-1.32-1a1.39 1.39 0 0 0-1.49 1.27l-1.87-.4a3.1 3.1 0 0 1 3.35-2.57c2.48 0 3.4 1.4 3.4 3v3.84a8.75 8.75 0 0 0 .1 1.24H282a5.29 5.29 0 0 1-.08-.94 2.61 2.61 0 0 1-2.3 1.16 2.47 2.47 0 0 1-2.68-2.35 2.41 2.41 0 0 1 2.3-2.4zm2.51 1.33v-.35l-1.76.27a1 1 0 0 0-1 1 .92.92 0 0 0 1 .9 1.59 1.59 0 0 0 1.76-1.81zm4.19 3.16V93.93H288v11.49zm6.17-4.49l1.92-.29c.44-.06.59-.29.59-.56 0-.56-.43-1-1.32-1a1.39 1.39 0 0 0-1.49 1.27l-1.87-.4a3.1 3.1 0 0 1 3.35-2.57c2.48 0 3.4 1.4 3.4 3v3.84a8.75 8.75 0 0 0 .1 1.24h-1.94a5.29 5.29 0 0 1-.08-.94 2.61 2.61 0 0 1-2.3 1.16 2.47 2.47 0 0 1-2.68-2.35 2.41 2.41 0 0 1 2.32-2.4zm2.51 1.33v-.35l-1.76.27a1 1 0 0 0-1 1 .92.92 0 0 0 1 .9 1.59 1.59 0 0 0 1.76-1.81zm4.45 6.24l1.84-4.06-3.32-6.82H300l2.08 4.57 1.92-4.57h2.25l-4.9 10.89zm9.46-5.65A1.3 1.3 0 0 0 310 104c.7 0 1-.36 1-.78s-.24-.63-.84-.76l-1-.24c-1.51-.33-2.19-1.24-2.19-2.33a2.72 2.72 0 0 1 2.92-2.56c2.22 0 3 1.41 3.06 2.25l-1.76.4a1.19 1.19 0 0 0-1.29-1c-.56 0-1 .33-1 .78s.29.62.71.7l1.11.24c1.54.32 2.32 1.25 2.32 2.4s-1 2.57-3 2.57c-2.35 0-3.16-1.52-3.25-2.41zm7.22-9.11a1.3 1.3 0 1 1-1.3 1.32 1.3 1.3 0 0 1 1.3-1.32zm-1 11.68v-7.8h2.11v7.81zm6.17-4.49l1.92-.29c.44-.06.59-.29.59-.56 0-.56-.43-1-1.32-1a1.39 1.39 0 0 0-1.49 1.27l-1.87-.4a3.1 3.1 0 0 1 3.35-2.57c2.48 0 3.4 1.4 3.4 3v3.84a8.75 8.75 0 0 0 .1 1.24h-1.94a5.29 5.29 0 0 1-.08-.94 2.61 2.61 0 0 1-2.3 1.16 2.47 2.47 0 0 1-2.68-2.35 2.41 2.41 0 0 1 2.32-2.4zm2.51 1.33v-.35l-1.76.27a1 1 0 0 0-1 1 .92.92 0 0 0 1 .9 1.59 1.59 0 0 0 1.76-1.81z"/>
</svg>
