<?xml version="1.0" encoding="utf-8"?>
<!-- Generator: Adobe Illustrator 22.0.0, SVG Export Plug-In . SVG Version: 6.00 Build 0)  -->
<svg version="1.1" id="Layer_1" xmlns="http://www.w3.org/2000/svg" xmlns:xlink="http://www.w3.org/1999/xlink" x="0px" y="0px"
	 viewBox="0 0 360 562.2" style="enable-background:new 0 0 360 562.2;" xml:space="preserve">
<style type="text/css">
	.st0{fill:#086A87;}
	.st1{fill:none;stroke:#086A87;stroke-width:1.7627;stroke-miterlimit:10;}
	.st2{fill:#FF6633;}
	.st3{fill:#333333;}
	.st4{clip-path:url(#SVGID_2_);fill:#F7F7F7;}
	.st5{clip-path:url(#SVGID_2_);}
	.st6{fill:#FFFFFF;}
	.st7{fill:none;stroke:#FFFFFF;stroke-width:0.7396;stroke-miterlimit:10;}
	.st8{fill:#33CCCC;}
	.st9{fill:none;stroke:#086A87;stroke-width:0.6408;stroke-miterlimit:10;}
	.st10{clip-path:url(#SVGID_2_);fill:#086A87;}
	.st11{fill:none;stroke:#FFFFFF;stroke-width:0.3947;stroke-miterlimit:10;}
	.st12{clip-path:url(#SVGID_2_);fill:#FFFFFF;}
	.st13{clip-path:url(#SVGID_2_);fill:#33CCCC;}
	.st14{clip-path:url(#SVGID_4_);}
	.st15{fill:none;stroke:#FFFFFF;stroke-width:1.265;stroke-linecap:round;stroke-linejoin:round;stroke-miterlimit:10;}
	.st16{clip-path:url(#SVGID_6_);}
	.st17{clip-path:url(#SVGID_8_);fill:none;stroke:#FFFFFF;stroke-width:0.5521;stroke-miterlimit:10;}
	.st18{opacity:9.000000e-02;clip-path:url(#SVGID_2_);}
	.st19{opacity:9.000000e-02;}
	.st20{clip-path:url(#SVGID_10_);}
	.st21{fill:none;stroke:#FFFFFF;stroke-width:0.7558;stroke-miterlimit:10;}
	.st22{fill:none;stroke:#086A87;stroke-width:0.3486;stroke-miterlimit:10;}
	.st23{clip-path:url(#SVGID_2_);fill:#FF6633;}
	.st24{fill:#F7F7F7;}
	.st25{fill:#FFFFFF;stroke:#33CCCC;stroke-width:0.6885;stroke-linecap:round;stroke-linejoin:round;stroke-miterlimit:10;}
	.st26{fill:#FFFFFF;stroke:#086A87;stroke-width:0.6732;stroke-linecap:round;stroke-linejoin:round;stroke-miterlimit:10;}
	.st27{fill:none;}
	.st28{fill:none;stroke:#33CCCC;stroke-width:0.7007;stroke-linecap:round;stroke-linejoin:round;stroke-miterlimit:10;}
	.st29{clip-path:url(#SVGID_12_);fill:#F7F7F7;}
	.st30{clip-path:url(#SVGID_12_);}
	.st31{opacity:9.000000e-02;clip-path:url(#SVGID_12_);}
	.st32{clip-path:url(#SVGID_14_);}
	.st33{clip-path:url(#SVGID_12_);fill:#086A87;}
	.st34{clip-path:url(#SVGID_12_);fill:#33CCCC;}
	.st35{fill:none;stroke:#FFFFFF;stroke-width:0.2793;stroke-miterlimit:10;}
	.st36{clip-path:url(#SVGID_16_);}
	.st37{clip-path:url(#SVGID_12_);fill:#FFFFFF;}
	.st38{fill:#087F9B;stroke:#FFFFFF;stroke-width:0.5;stroke-miterlimit:10;}
	.st39{fill:none;stroke:#FFFFFF;stroke-width:0.3644;stroke-miterlimit:10;}
	.st40{fill:none;stroke:#FFFFFF;stroke-width:0.5;stroke-miterlimit:10;}
	.st41{clip-path:url(#SVGID_18_);}
	.st42{clip-path:url(#SVGID_20_);fill:none;stroke:#FFFFFF;stroke-width:0.5521;stroke-miterlimit:10;}
	.st43{fill:#666666;}
	.st44{fill:none;stroke:#666666;stroke-width:0.7396;stroke-miterlimit:10;}
	.st45{fill:#FF6633;stroke:#FFFFFF;stroke-width:1.4054;stroke-miterlimit:10;}
	.st46{fill:none;stroke:#FFFFFF;stroke-width:0.3121;stroke-miterlimit:10;}
	.st47{clip-path:url(#SVGID_12_);fill:#FF6633;}
	.st48{clip-path:url(#SVGID_12_);fill:none;}
</style>
<g>
	<defs>
		<rect id="SVGID_1_" x="-0.5" y="0.6" width="360" height="561.4"/>
	</defs>
	<clipPath id="SVGID_2_">
		<use xlink:href="#SVGID_1_"  style="overflow:visible;"/>
	</clipPath>
	<rect x="-0.5" y="0.6" class="st4" width="360" height="561.4"/>
	<g class="st5">
		<polygon class="st6" points="248.6,369.6 240.4,383.8 256.7,383.8 		"/>
		<polygon class="st6" points="248.3,354.3 240.1,368.4 256.4,368.4 		"/>
		<polygon class="st7" points="247.9,339 239.8,353.1 256.1,353.1 		"/>
	</g>
	<g class="st5">
		<polygon class="st6" points="270.9,355 262.7,369.1 279,369.1 		"/>
		<polygon class="st7" points="270.5,339.6 262.4,353.8 278.7,353.8 		"/>
		<polygon class="st6" points="270.2,324.3 262,338.4 278.4,338.4 		"/>
	</g>
	<g class="st5">
		<g>
			
				<rect x="-130.7" y="335.6" transform="matrix(0.6815 0.7318 -0.7318 0.6815 330.5007 254.3097)" class="st8" width="7.6" height="342.6"/>
			
				<rect x="-125.6" y="341.1" transform="matrix(0.6815 0.7318 -0.7318 0.6815 336.184 252.3035)" class="st6" width="7.6" height="342.6"/>
			
				<rect x="-120.4" y="346.6" transform="matrix(0.6815 0.7318 -0.7318 0.6815 341.8673 250.2972)" class="st8" width="7.6" height="342.6"/>
			
				<rect x="-115.3" y="352.1" transform="matrix(0.6815 0.7318 -0.7318 0.6815 347.5506 248.2909)" class="st6" width="7.6" height="342.6"/>
			
				<rect x="-110.1" y="357.7" transform="matrix(0.6815 0.7318 -0.7318 0.6815 353.2339 246.2846)" class="st8" width="7.6" height="342.6"/>
			
				<rect x="-105" y="363.2" transform="matrix(0.6815 0.7318 -0.7318 0.6815 358.9172 244.2783)" class="st6" width="7.6" height="342.6"/>
			
				<rect x="-99.8" y="368.7" transform="matrix(0.6815 0.7318 -0.7318 0.6815 364.6005 242.272)" class="st8" width="7.6" height="342.6"/>
			
				<rect x="-94.7" y="374.3" transform="matrix(0.6815 0.7318 -0.7318 0.6815 370.2838 240.2657)" class="st6" width="7.6" height="342.6"/>
			
				<rect x="-89.5" y="379.8" transform="matrix(0.6815 0.7318 -0.7318 0.6815 375.967 238.2594)" class="st8" width="7.6" height="342.6"/>
			
				<rect x="-84.4" y="385.3" transform="matrix(0.6815 0.7318 -0.7318 0.6815 381.6503 236.2532)" class="st6" width="7.6" height="342.6"/>
			
				<rect x="-79.2" y="390.8" transform="matrix(0.6815 0.7318 -0.7318 0.6815 387.3336 234.2469)" class="st8" width="7.6" height="342.6"/>
			
				<rect x="-74.1" y="396.4" transform="matrix(0.6815 0.7318 -0.7318 0.6815 393.0169 232.2406)" class="st6" width="7.6" height="342.6"/>
			
				<rect x="-68.9" y="401.9" transform="matrix(0.6815 0.7318 -0.7318 0.6815 398.7002 230.2343)" class="st8" width="7.6" height="342.6"/>
			
				<rect x="-63.8" y="407.4" transform="matrix(0.6815 0.7318 -0.7318 0.6815 404.3835 228.228)" class="st6" width="7.6" height="342.6"/>
			
				<rect x="-58.6" y="412.9" transform="matrix(0.6815 0.7318 -0.7318 0.6815 410.0667 226.2217)" class="st8" width="7.6" height="342.6"/>
			
				<rect x="-53.5" y="418.5" transform="matrix(0.6815 0.7318 -0.7318 0.6815 415.75 224.2154)" class="st6" width="7.6" height="342.6"/>
			
				<rect x="-48.4" y="424" transform="matrix(0.6815 0.7318 -0.7318 0.6815 421.4333 222.2092)" class="st8" width="7.6" height="342.6"/>
			
				<rect x="-43.2" y="429.5" transform="matrix(0.6815 0.7318 -0.7318 0.6815 427.1166 220.2029)" class="st6" width="7.6" height="342.6"/>
			
				<rect x="-38.1" y="435" transform="matrix(0.6815 0.7318 -0.7318 0.6815 432.7999 218.1966)" class="st8" width="7.6" height="342.6"/>
			
				<rect x="-32.9" y="440.6" transform="matrix(0.6815 0.7318 -0.7318 0.6815 438.4832 216.1903)" class="st6" width="7.6" height="342.6"/>
			
				<rect x="-27.8" y="446.1" transform="matrix(0.6815 0.7318 -0.7318 0.6815 444.1665 214.184)" class="st8" width="7.6" height="342.6"/>
		</g>
		<g>
			<circle class="st0" cx="26" cy="454.2" r="4"/>
			<path class="st9" d="M72.9,499.4c-12.5,13-33.1,13.4-46.1,0.9s-13.4-33.1-0.9-46.1"/>
			<circle class="st0" cx="73.4" cy="499.9" r="4"/>
		</g>
	</g>
	<path class="st10" d="M125-28.3c0,0-8.6,50.3-54.1,59.6C40.8,37.5,56.3,67,56.3,67s8,24.9-7.4,46.2s-9.6,34.5-9.6,34.5
		s3.4,19-11.4,26.9c-11,5.9-20.6,16-26.9,29.7C-3.9,214.9-8,228-8,242V-29.3L125-28.3z"/>
	<g class="st5">
		<g>
			<path class="st11" d="M121.9,35.1c-0.4,0.7-0.8,1.4-1.3,2.1c-16.5,25.6-50.6,33-76.1,16.5C25.3,41.3,16.3,19.1,20-2.1"/>
		</g>
		<path class="st11" d="M118.1,32.9c-2.6,4.5-6,8.7-10.1,12.4c-15.5,13.8-37.1,16.2-54.8,7.9"/>
		<path class="st11" d="M47.2,49.9c-3-2-5.7-4.3-8.1-6.9"/>
		<path class="st11" d="M35,38.7c0,0-7.9-9.3-9.7-21.8"/>
	</g>
	<path class="st12" d="M80.7,54.1l-49-41.7l26.1-30.7l9,7.6l-18,21.2L59.9,20L76.2,0.9l8.5,7.2L68.4,27.3l11.3,9.6l18-21.2l9,7.6
		L80.7,54.1z"/>
	<rect x="90.6" y="138.3" class="st13" width="11.8" height="11.8"/>
	<rect x="102.4" y="150.1" class="st10" width="11.8" height="11.8"/>
	<g class="st5">
		<rect x="154.8" y="494.7" class="st6" width="10.1" height="239.3"/>
		<rect x="142.3" y="494.7" class="st6" width="10.1" height="239.3"/>
		<rect x="129.8" y="494.7" class="st6" width="10.1" height="239.3"/>
		<rect x="122.3" y="494.7" class="st6" width="5.1" height="239.3"/>
		<rect x="199.8" y="494.7" class="st6" width="5.1" height="239.3"/>
		<rect x="271.4" y="494.7" class="st6" width="5.1" height="239.3"/>
		<rect x="266.2" y="494.7" class="st6" width="2.5" height="239.3"/>
		<rect x="167.5" y="494.7" class="st6" width="2.8" height="239.3"/>
		<rect x="171.8" y="494.7" class="st6" width="2.8" height="239.3"/>
		<rect x="176.1" y="494.7" class="st6" width="2.8" height="239.3"/>
		<rect x="180.4" y="494.7" class="st6" width="2.8" height="239.3"/>
		<rect x="184.7" y="494.7" class="st6" width="2.8" height="239.3"/>
		<rect x="189" y="494.7" class="st6" width="2.8" height="239.3"/>
		<rect x="193.3" y="494.7" class="st6" width="2.8" height="239.3"/>
		<rect x="207.8" y="494.7" class="st6" width="16.5" height="239.3"/>
		<rect x="227.4" y="494.7" class="st6" width="16.5" height="239.3"/>
		<rect x="247" y="494.7" class="st6" width="16.5" height="239.3"/>
	</g>
	<path class="st10" d="M125,553.2h279.5V374.4c0,0-38.9,13.3-47.4,72.7c-7.1,49.2-44.9,50.7-57.7,49.8c-7.2-0.5-14.5,0.3-21.3,2.7
		c-8.6,3.1-18.7,9.1-25.8,20.9c-8.7,14.6-30.4,10-46.7,3.9c-29.4-11.1-62.5-0.1-79.6,27C125.7,552,125.4,552.6,125,553.2z"/>
	<g class="st5">
		<circle id="XMLID_1_" class="st2" cx="238.2" cy="567" r="82.5"/>
		<g>
			<defs>
				<circle id="SVGID_3_" cx="238.2" cy="567" r="82.5"/>
			</defs>
			<clipPath id="SVGID_4_">
				<use xlink:href="#SVGID_3_"  style="overflow:visible;"/>
			</clipPath>
			<g class="st14">
				<line class="st15" x1="248.7" y1="517.3" x2="270" y2="517.3"/>
				<line class="st15" x1="255.8" y1="530.8" x2="277.1" y2="530.8"/>
				<line class="st15" x1="259.3" y1="470.2" x2="268.1" y2="489.6"/>
				<line class="st15" x1="243.3" y1="525.7" x2="251.5" y2="545.3"/>
				<line class="st15" x1="243.3" y1="549.8" x2="251.5" y2="569.4"/>
				<line class="st15" x1="239.2" y1="513.2" x2="253.4" y2="497.4"/>
				<line class="st15" x1="260.2" y1="498.2" x2="276.1" y2="512.4"/>
				<line class="st15" x1="255.8" y1="550.6" x2="271.7" y2="564.7"/>
				<line class="st15" x1="280.7" y1="533.4" x2="268.1" y2="550.6"/>
				<line class="st15" x1="242.5" y1="495.7" x2="256.7" y2="479.9"/>
			</g>
			<g class="st14">
				<line class="st15" x1="334.2" y1="537" x2="313" y2="537"/>
				<line class="st15" x1="331.8" y1="565.1" x2="323.6" y2="545.5"/>
				<line class="st15" x1="319.2" y1="564.4" x2="303.4" y2="550.2"/>
				<line class="st15" x1="296.6" y1="564.7" x2="280.7" y2="550.6"/>
				<line class="st15" x1="294.3" y1="512.1" x2="307.9" y2="495.7"/>
				<line class="st15" x1="275.5" y1="496" x2="289.1" y2="479.6"/>
				<line class="st15" x1="323.6" y1="530.7" x2="337.2" y2="514.4"/>
				<line class="st15" x1="306.6" y1="488.6" x2="327.9" y2="488.6"/>
				<line class="st15" x1="310.9" y1="470.2" x2="295.9" y2="485.2"/>
				<line class="st15" x1="292.7" y1="525.5" x2="314" y2="525.5"/>
				<line class="st15" x1="306.6" y1="508.4" x2="322.5" y2="522.5"/>
				<line class="st15" x1="331.5" y1="491.2" x2="318.9" y2="508.4"/>
			</g>
			<g class="st14">
				<line class="st15" x1="150" y1="536.4" x2="171.2" y2="536.4"/>
				<line class="st15" x1="157.1" y1="549.8" x2="178.3" y2="549.8"/>
				<line class="st15" x1="160.6" y1="489.3" x2="169.4" y2="508.6"/>
				<line class="st15" x1="144.5" y1="544.8" x2="152.7" y2="564.4"/>
				<line class="st15" x1="140.5" y1="532.3" x2="154.6" y2="516.4"/>
				<line class="st15" x1="161.5" y1="517.3" x2="177.3" y2="531.5"/>
				<line class="st15" x1="182" y1="552.5" x2="169.4" y2="569.6"/>
				<line class="st15" x1="143.8" y1="514.8" x2="157.9" y2="499"/>
			</g>
			<g class="st14">
				<line class="st15" x1="235.5" y1="556.1" x2="214.2" y2="556.1"/>
				<line class="st15" x1="186.9" y1="572.3" x2="201.1" y2="556.5"/>
				<line class="st15" x1="195.6" y1="531.1" x2="209.2" y2="514.8"/>
				<line class="st15" x1="176.8" y1="515.1" x2="190.4" y2="498.7"/>
				<line class="st15" x1="224.8" y1="549.8" x2="238.4" y2="533.5"/>
				<line class="st15" x1="207.9" y1="507.7" x2="229.1" y2="507.7"/>
				<line class="st15" x1="212.1" y1="489.3" x2="197.1" y2="504.3"/>
				<line class="st15" x1="194" y1="544.6" x2="215.3" y2="544.6"/>
				<line class="st15" x1="207.9" y1="527.5" x2="223.7" y2="541.6"/>
				<line class="st15" x1="232.7" y1="510.3" x2="220.2" y2="527.5"/>
			</g>
		</g>
	</g>
	<path class="st13" d="M273,561.7c0-42.4,34.4-76.8,76.8-76.8s76.8,34.4,76.8,76.8H273z"/>
	<g class="st5">
		<defs>
			<path id="SVGID_5_" d="M291.8,561.7c0-42.4,34.4-76.8,76.8-76.8s76.8,34.4,76.8,76.8H291.8z"/>
		</defs>
		<clipPath id="SVGID_6_">
			<use xlink:href="#SVGID_5_"  style="overflow:visible;"/>
		</clipPath>
		<g class="st16">
			<defs>
				<rect id="SVGID_7_" x="-92.5" y="406.9" width="553.9" height="176.2"/>
			</defs>
			<clipPath id="SVGID_8_">
				<use xlink:href="#SVGID_7_"  style="overflow:visible;"/>
			</clipPath>
			<line class="st17" x1="2.3" y1="370.9" x2="-257.1" y2="630.3"/>
			<line class="st17" x1="11.1" y1="370.9" x2="-248.3" y2="630.3"/>
			<line class="st17" x1="20" y1="370.9" x2="-239.4" y2="630.3"/>
			<line class="st17" x1="28.9" y1="370.9" x2="-230.5" y2="630.3"/>
			<line class="st17" x1="37.8" y1="370.9" x2="-221.6" y2="630.3"/>
			<line class="st17" x1="46.7" y1="370.9" x2="-212.7" y2="630.3"/>
			<line class="st17" x1="55.5" y1="370.9" x2="-203.9" y2="630.3"/>
			<line class="st17" x1="64.4" y1="370.9" x2="-195" y2="630.3"/>
			<line class="st17" x1="73.3" y1="370.9" x2="-186.1" y2="630.3"/>
			<line class="st17" x1="82.2" y1="370.9" x2="-177.2" y2="630.3"/>
			<line class="st17" x1="91.1" y1="370.9" x2="-168.4" y2="630.3"/>
			<line class="st17" x1="99.9" y1="370.9" x2="-159.5" y2="630.3"/>
			<line class="st17" x1="108.8" y1="370.9" x2="-150.6" y2="630.3"/>
			<line class="st17" x1="117.7" y1="370.9" x2="-141.7" y2="630.3"/>
			<line class="st17" x1="126.6" y1="370.9" x2="-132.8" y2="630.3"/>
			<line class="st17" x1="135.4" y1="370.9" x2="-124" y2="630.3"/>
			<line class="st17" x1="144.3" y1="370.9" x2="-115.1" y2="630.3"/>
			<line class="st17" x1="153.2" y1="370.9" x2="-106.2" y2="630.3"/>
			<line class="st17" x1="162.1" y1="370.9" x2="-97.3" y2="630.3"/>
			<line class="st17" x1="171" y1="370.9" x2="-88.5" y2="630.3"/>
			<line class="st17" x1="179.8" y1="370.9" x2="-79.6" y2="630.3"/>
			<line class="st17" x1="188.7" y1="370.9" x2="-70.7" y2="630.3"/>
			<line class="st17" x1="197.6" y1="370.9" x2="-61.8" y2="630.3"/>
			<line class="st17" x1="206.5" y1="370.9" x2="-52.9" y2="630.3"/>
			<line class="st17" x1="215.4" y1="370.9" x2="-44.1" y2="630.3"/>
			<line class="st17" x1="224.2" y1="370.9" x2="-35.2" y2="630.3"/>
			<line class="st17" x1="233.1" y1="370.9" x2="-26.3" y2="630.3"/>
			<line class="st17" x1="242" y1="370.9" x2="-17.4" y2="630.3"/>
			<line class="st17" x1="250.9" y1="370.9" x2="-8.5" y2="630.3"/>
			<line class="st17" x1="259.7" y1="370.9" x2="0.3" y2="630.3"/>
			<line class="st17" x1="268.6" y1="370.9" x2="9.2" y2="630.3"/>
			<line class="st17" x1="277.5" y1="370.9" x2="18.1" y2="630.3"/>
			<line class="st17" x1="286.4" y1="370.9" x2="27" y2="630.3"/>
			<line class="st17" x1="295.3" y1="370.9" x2="35.8" y2="630.3"/>
			<line class="st17" x1="304.1" y1="370.9" x2="44.7" y2="630.3"/>
			<line class="st17" x1="313" y1="370.9" x2="53.6" y2="630.3"/>
			<line class="st17" x1="321.9" y1="370.9" x2="62.5" y2="630.3"/>
			<line class="st17" x1="330.8" y1="370.9" x2="71.4" y2="630.3"/>
			<line class="st17" x1="339.6" y1="370.9" x2="80.2" y2="630.3"/>
			<line class="st17" x1="348.5" y1="370.9" x2="89.1" y2="630.3"/>
			<line class="st17" x1="357.4" y1="370.9" x2="98" y2="630.3"/>
			<line class="st17" x1="366.3" y1="370.9" x2="106.9" y2="630.3"/>
			<line class="st17" x1="375.2" y1="370.9" x2="115.8" y2="630.3"/>
			<line class="st17" x1="384" y1="370.9" x2="124.6" y2="630.3"/>
			<line class="st17" x1="392.9" y1="370.9" x2="133.5" y2="630.3"/>
			<line class="st17" x1="401.8" y1="370.9" x2="142.4" y2="630.3"/>
			<line class="st17" x1="410.7" y1="370.9" x2="151.3" y2="630.3"/>
			<line class="st17" x1="419.6" y1="370.9" x2="160.1" y2="630.3"/>
			<line class="st17" x1="428.4" y1="370.9" x2="169" y2="630.3"/>
			<line class="st17" x1="437.3" y1="370.9" x2="177.9" y2="630.3"/>
			<line class="st17" x1="446.2" y1="370.9" x2="186.8" y2="630.3"/>
			<line class="st17" x1="455.1" y1="370.9" x2="195.7" y2="630.3"/>
			<line class="st17" x1="463.9" y1="370.9" x2="204.5" y2="630.3"/>
			<line class="st17" x1="472.8" y1="370.9" x2="213.4" y2="630.3"/>
			<line class="st17" x1="481.7" y1="370.9" x2="222.3" y2="630.3"/>
			<line class="st17" x1="490.6" y1="370.9" x2="231.2" y2="630.3"/>
			<line class="st17" x1="499.5" y1="370.9" x2="240" y2="630.3"/>
			<line class="st17" x1="508.3" y1="370.9" x2="248.9" y2="630.3"/>
			<line class="st17" x1="517.2" y1="370.9" x2="257.8" y2="630.3"/>
			<line class="st17" x1="526.1" y1="370.9" x2="266.7" y2="630.3"/>
			<line class="st17" x1="535" y1="370.9" x2="275.6" y2="630.3"/>
			<line class="st17" x1="543.8" y1="370.9" x2="284.4" y2="630.3"/>
			<line class="st17" x1="552.7" y1="370.9" x2="293.3" y2="630.3"/>
			<line class="st17" x1="561.6" y1="370.9" x2="302.2" y2="630.3"/>
			<line class="st17" x1="570.5" y1="370.9" x2="311.1" y2="630.3"/>
			<line class="st17" x1="579.4" y1="370.9" x2="320" y2="630.3"/>
			<line class="st17" x1="588.2" y1="370.9" x2="328.8" y2="630.3"/>
			<line class="st17" x1="597.1" y1="370.9" x2="337.7" y2="630.3"/>
			<line class="st17" x1="606" y1="370.9" x2="346.6" y2="630.3"/>
			<line class="st17" x1="614.9" y1="370.9" x2="355.5" y2="630.3"/>
		</g>
	</g>
	<g class="st18">
		<defs>
			<path id="SVGID_9_" class="st19" d="M138.7-27.7c0,0,23.4,4.2,27.3,25.1c3.9,20.9-7.4,42,21.1,32.8s14.4,27.6,8.6,27.6
				c-5.8,0-5.8,12.2,0,9.2c5.8-3.1,12.4-2.8,8.6,9.2c-3,9.2,67.1,10.7,111.6-20.4c19.2-13.4,30.5-35.5,30.5-59v-26.4H138.4
				L138.7-27.7z"/>
		</defs>
		<clipPath id="SVGID_10_">
			<use xlink:href="#SVGID_9_"  style="overflow:visible;"/>
		</clipPath>
		<g class="st20">
			<g>
				<g>
					<circle class="st8" cx="238.5" cy="2.6" r="2.8"/>
					<circle class="st8" cx="247.1" cy="2.6" r="2.8"/>
					<circle class="st8" cx="255.7" cy="2.6" r="2.8"/>
					<circle class="st8" cx="264.2" cy="2.6" r="2.8"/>
					<circle class="st8" cx="272.8" cy="2.6" r="2.8"/>
					<circle class="st8" cx="281.4" cy="2.6" r="2.8"/>
					<circle class="st8" cx="290" cy="2.6" r="2.8"/>
					<circle class="st8" cx="298.5" cy="2.6" r="2.8"/>
					<circle class="st8" cx="307.1" cy="2.6" r="2.8"/>
					<circle class="st8" cx="315.7" cy="2.6" r="2.8"/>
					<circle class="st8" cx="324.2" cy="2.6" r="2.8"/>
					<circle class="st8" cx="332.8" cy="2.6" r="2.8"/>
					<circle class="st8" cx="341.4" cy="2.6" r="2.8"/>
				</g>
				<g>
					<circle class="st8" cx="238.5" cy="11.8" r="2.8"/>
					<circle class="st8" cx="247.1" cy="11.8" r="2.8"/>
					<circle class="st8" cx="255.7" cy="11.8" r="2.8"/>
					<circle class="st8" cx="264.2" cy="11.8" r="2.8"/>
					<circle class="st8" cx="272.8" cy="11.8" r="2.8"/>
					<circle class="st8" cx="281.4" cy="11.8" r="2.8"/>
					<circle class="st8" cx="290" cy="11.8" r="2.8"/>
					<circle class="st8" cx="298.5" cy="11.8" r="2.8"/>
					<circle class="st8" cx="307.1" cy="11.8" r="2.8"/>
					<circle class="st8" cx="315.7" cy="11.8" r="2.8"/>
					<circle class="st8" cx="324.2" cy="11.8" r="2.8"/>
					<circle class="st8" cx="332.8" cy="11.8" r="2.8"/>
					<circle class="st8" cx="341.4" cy="11.8" r="2.8"/>
				</g>
				<g>
					<circle class="st8" cx="238.5" cy="21" r="2.8"/>
					<circle class="st8" cx="247.1" cy="21" r="2.8"/>
					<circle class="st8" cx="255.7" cy="21" r="2.8"/>
					<circle class="st8" cx="264.2" cy="21" r="2.8"/>
					<circle class="st8" cx="272.8" cy="21" r="2.8"/>
					<circle class="st8" cx="281.4" cy="21" r="2.8"/>
					<circle class="st8" cx="290" cy="21" r="2.8"/>
					<circle class="st8" cx="298.5" cy="21" r="2.8"/>
					<circle class="st8" cx="307.1" cy="21" r="2.8"/>
					<circle class="st8" cx="315.7" cy="21" r="2.8"/>
					<circle class="st8" cx="324.2" cy="21" r="2.8"/>
					<circle class="st8" cx="332.8" cy="21" r="2.8"/>
					<circle class="st8" cx="341.4" cy="21" r="2.8"/>
				</g>
				<g>
					<circle class="st8" cx="238.5" cy="30.1" r="2.8"/>
					<circle class="st8" cx="247.1" cy="30.1" r="2.8"/>
					<circle class="st8" cx="255.7" cy="30.1" r="2.8"/>
					<circle class="st8" cx="264.2" cy="30.1" r="2.8"/>
					<circle class="st8" cx="272.8" cy="30.1" r="2.8"/>
					<circle class="st8" cx="281.4" cy="30.1" r="2.8"/>
					<circle class="st8" cx="290" cy="30.1" r="2.8"/>
					<circle class="st8" cx="298.5" cy="30.1" r="2.8"/>
					<circle class="st8" cx="307.1" cy="30.1" r="2.8"/>
					<circle class="st8" cx="315.7" cy="30.1" r="2.8"/>
					<circle class="st8" cx="324.2" cy="30.1" r="2.8"/>
					<circle class="st8" cx="332.8" cy="30.1" r="2.8"/>
					<circle class="st8" cx="341.4" cy="30.1" r="2.8"/>
				</g>
				<g>
					<circle class="st8" cx="238.5" cy="39.3" r="2.8"/>
					<circle class="st8" cx="247.1" cy="39.3" r="2.8"/>
					<circle class="st8" cx="255.7" cy="39.3" r="2.8"/>
					<circle class="st8" cx="264.2" cy="39.3" r="2.8"/>
					<circle class="st8" cx="272.8" cy="39.3" r="2.8"/>
					<circle class="st8" cx="281.4" cy="39.3" r="2.8"/>
					<circle class="st8" cx="290" cy="39.3" r="2.8"/>
					<circle class="st8" cx="298.5" cy="39.3" r="2.8"/>
					<circle class="st8" cx="307.1" cy="39.3" r="2.8"/>
					<circle class="st8" cx="315.7" cy="39.3" r="2.8"/>
					<circle class="st8" cx="324.2" cy="39.3" r="2.8"/>
					<circle class="st8" cx="332.8" cy="39.3" r="2.8"/>
					<circle class="st8" cx="341.4" cy="39.3" r="2.8"/>
				</g>
				<g>
					<circle class="st8" cx="238.5" cy="48.5" r="2.8"/>
					<circle class="st8" cx="247.1" cy="48.5" r="2.8"/>
					<circle class="st8" cx="255.7" cy="48.5" r="2.8"/>
					<circle class="st8" cx="264.2" cy="48.5" r="2.8"/>
					<circle class="st8" cx="272.8" cy="48.5" r="2.8"/>
					<circle class="st8" cx="281.4" cy="48.5" r="2.8"/>
					<circle class="st8" cx="290" cy="48.5" r="2.8"/>
					<circle class="st8" cx="298.5" cy="48.5" r="2.8"/>
					<circle class="st8" cx="307.1" cy="48.5" r="2.8"/>
					<circle class="st8" cx="315.7" cy="48.5" r="2.8"/>
					<circle class="st8" cx="324.2" cy="48.5" r="2.8"/>
					<circle class="st8" cx="332.8" cy="48.5" r="2.8"/>
					<circle class="st8" cx="341.4" cy="48.5" r="2.8"/>
				</g>
				<g>
					<circle class="st8" cx="238.5" cy="57.7" r="2.8"/>
					<circle class="st8" cx="247.1" cy="57.7" r="2.8"/>
					<circle class="st8" cx="255.7" cy="57.7" r="2.8"/>
					<circle class="st8" cx="264.2" cy="57.7" r="2.8"/>
					<circle class="st8" cx="272.8" cy="57.7" r="2.8"/>
					<circle class="st8" cx="281.4" cy="57.7" r="2.8"/>
					<circle class="st8" cx="290" cy="57.7" r="2.8"/>
					<circle class="st8" cx="298.5" cy="57.7" r="2.8"/>
					<circle class="st8" cx="307.1" cy="57.7" r="2.8"/>
					<circle class="st8" cx="315.7" cy="57.7" r="2.8"/>
					<circle class="st8" cx="324.2" cy="57.7" r="2.8"/>
					<circle class="st8" cx="332.8" cy="57.7" r="2.8"/>
					<circle class="st8" cx="341.4" cy="57.7" r="2.8"/>
				</g>
				<g>
					<circle class="st8" cx="238.5" cy="66.9" r="2.8"/>
					<circle class="st8" cx="247.1" cy="66.9" r="2.8"/>
					<circle class="st8" cx="255.7" cy="66.9" r="2.8"/>
					<circle class="st8" cx="264.2" cy="66.9" r="2.8"/>
					<circle class="st8" cx="272.8" cy="66.9" r="2.8"/>
					<circle class="st8" cx="281.4" cy="66.9" r="2.8"/>
					<circle class="st8" cx="290" cy="66.9" r="2.8"/>
					<circle class="st8" cx="298.5" cy="66.9" r="2.8"/>
					<circle class="st8" cx="307.1" cy="66.9" r="2.8"/>
					<circle class="st8" cx="315.7" cy="66.9" r="2.8"/>
					<circle class="st8" cx="324.2" cy="66.9" r="2.8"/>
					<circle class="st8" cx="332.8" cy="66.9" r="2.8"/>
					<circle class="st8" cx="341.4" cy="66.9" r="2.8"/>
				</g>
				<g>
					<circle class="st8" cx="238.5" cy="76.1" r="2.8"/>
					<circle class="st8" cx="247.1" cy="76.1" r="2.8"/>
					<circle class="st8" cx="255.7" cy="76.1" r="2.8"/>
					<circle class="st8" cx="264.2" cy="76.1" r="2.8"/>
					<circle class="st8" cx="272.8" cy="76.1" r="2.8"/>
					<circle class="st8" cx="281.4" cy="76.1" r="2.8"/>
					<circle class="st8" cx="290" cy="76.1" r="2.8"/>
					<circle class="st8" cx="298.5" cy="76.1" r="2.8"/>
					<circle class="st8" cx="307.1" cy="76.1" r="2.8"/>
					<circle class="st8" cx="315.7" cy="76.1" r="2.8"/>
					<circle class="st8" cx="324.2" cy="76.1" r="2.8"/>
					<circle class="st8" cx="332.8" cy="76.1" r="2.8"/>
					<circle class="st8" cx="341.4" cy="76.1" r="2.8"/>
				</g>
				<g>
					<circle class="st8" cx="238.5" cy="85.3" r="2.8"/>
					<circle class="st8" cx="247.1" cy="85.3" r="2.8"/>
					<circle class="st8" cx="255.7" cy="85.3" r="2.8"/>
					<circle class="st8" cx="264.2" cy="85.3" r="2.8"/>
					<circle class="st8" cx="272.8" cy="85.3" r="2.8"/>
					<circle class="st8" cx="281.4" cy="85.3" r="2.8"/>
					<circle class="st8" cx="290" cy="85.3" r="2.8"/>
					<circle class="st8" cx="298.5" cy="85.3" r="2.8"/>
					<circle class="st8" cx="307.1" cy="85.3" r="2.8"/>
					<circle class="st8" cx="315.7" cy="85.3" r="2.8"/>
					<circle class="st8" cx="324.2" cy="85.3" r="2.8"/>
					<circle class="st8" cx="332.8" cy="85.3" r="2.8"/>
					<circle class="st8" cx="341.4" cy="85.3" r="2.8"/>
				</g>
			</g>
			<g>
				<g>
					<circle class="st8" cx="135.7" cy="2.6" r="2.8"/>
					<circle class="st8" cx="144.2" cy="2.6" r="2.8"/>
					<circle class="st8" cx="152.8" cy="2.6" r="2.8"/>
					<circle class="st8" cx="161.4" cy="2.6" r="2.8"/>
					<circle class="st8" cx="170" cy="2.6" r="2.8"/>
					<circle class="st8" cx="178.5" cy="2.6" r="2.8"/>
					<circle class="st8" cx="187.1" cy="2.6" r="2.8"/>
					<circle class="st8" cx="195.7" cy="2.6" r="2.8"/>
					<circle class="st8" cx="204.2" cy="2.6" r="2.8"/>
					<circle class="st8" cx="212.8" cy="2.6" r="2.8"/>
					<circle class="st8" cx="221.4" cy="2.6" r="2.8"/>
					<circle class="st8" cx="230" cy="2.6" r="2.8"/>
					<circle class="st8" cx="238.5" cy="2.6" r="2.8"/>
				</g>
				<g>
					<circle class="st8" cx="135.7" cy="11.8" r="2.8"/>
					<circle class="st8" cx="144.2" cy="11.8" r="2.8"/>
					<circle class="st8" cx="152.8" cy="11.8" r="2.8"/>
					<circle class="st8" cx="161.4" cy="11.8" r="2.8"/>
					<circle class="st8" cx="170" cy="11.8" r="2.8"/>
					<circle class="st8" cx="178.5" cy="11.8" r="2.8"/>
					<circle class="st8" cx="187.1" cy="11.8" r="2.8"/>
					<circle class="st8" cx="195.7" cy="11.8" r="2.8"/>
					<circle class="st8" cx="204.2" cy="11.8" r="2.8"/>
					<circle class="st8" cx="212.8" cy="11.8" r="2.8"/>
					<circle class="st8" cx="221.4" cy="11.8" r="2.8"/>
					<circle class="st8" cx="230" cy="11.8" r="2.8"/>
					<circle class="st8" cx="238.5" cy="11.8" r="2.8"/>
				</g>
				<g>
					<circle class="st8" cx="135.7" cy="21" r="2.8"/>
					<circle class="st8" cx="144.2" cy="21" r="2.8"/>
					<circle class="st8" cx="152.8" cy="21" r="2.8"/>
					<circle class="st8" cx="161.4" cy="21" r="2.8"/>
					<circle class="st8" cx="170" cy="21" r="2.8"/>
					<circle class="st8" cx="178.5" cy="21" r="2.8"/>
					<circle class="st8" cx="187.1" cy="21" r="2.8"/>
					<circle class="st8" cx="195.7" cy="21" r="2.8"/>
					<circle class="st8" cx="204.2" cy="21" r="2.8"/>
					<circle class="st8" cx="212.8" cy="21" r="2.8"/>
					<circle class="st8" cx="221.4" cy="21" r="2.8"/>
					<circle class="st8" cx="230" cy="21" r="2.8"/>
					<circle class="st8" cx="238.5" cy="21" r="2.8"/>
				</g>
				<g>
					<circle class="st8" cx="135.7" cy="30.1" r="2.8"/>
					<circle class="st8" cx="144.2" cy="30.1" r="2.8"/>
					<circle class="st8" cx="152.8" cy="30.1" r="2.8"/>
					<circle class="st8" cx="161.4" cy="30.1" r="2.8"/>
					<circle class="st8" cx="170" cy="30.1" r="2.8"/>
					<circle class="st8" cx="178.5" cy="30.1" r="2.8"/>
					<circle class="st8" cx="187.1" cy="30.1" r="2.8"/>
					<circle class="st8" cx="195.7" cy="30.1" r="2.8"/>
					<circle class="st8" cx="204.2" cy="30.1" r="2.8"/>
					<circle class="st8" cx="212.8" cy="30.1" r="2.8"/>
					<circle class="st8" cx="221.4" cy="30.1" r="2.8"/>
					<circle class="st8" cx="230" cy="30.1" r="2.8"/>
					<circle class="st8" cx="238.5" cy="30.1" r="2.8"/>
				</g>
				<g>
					<circle class="st8" cx="135.7" cy="39.3" r="2.8"/>
					<circle class="st8" cx="144.2" cy="39.3" r="2.8"/>
					<circle class="st8" cx="152.8" cy="39.3" r="2.8"/>
					<circle class="st8" cx="161.4" cy="39.3" r="2.8"/>
					<circle class="st8" cx="170" cy="39.3" r="2.8"/>
					<circle class="st8" cx="178.5" cy="39.3" r="2.8"/>
					<circle class="st8" cx="187.1" cy="39.3" r="2.8"/>
					<circle class="st8" cx="195.7" cy="39.3" r="2.8"/>
					<circle class="st8" cx="204.2" cy="39.3" r="2.8"/>
					<circle class="st8" cx="212.8" cy="39.3" r="2.8"/>
					<circle class="st8" cx="221.4" cy="39.3" r="2.8"/>
					<circle class="st8" cx="230" cy="39.3" r="2.8"/>
					<circle class="st8" cx="238.5" cy="39.3" r="2.8"/>
				</g>
				<g>
					<circle class="st8" cx="135.7" cy="48.5" r="2.8"/>
					<circle class="st8" cx="144.2" cy="48.5" r="2.8"/>
					<circle class="st8" cx="152.8" cy="48.5" r="2.8"/>
					<circle class="st8" cx="161.4" cy="48.5" r="2.8"/>
					<circle class="st8" cx="170" cy="48.5" r="2.8"/>
					<circle class="st8" cx="178.5" cy="48.5" r="2.8"/>
					<circle class="st8" cx="187.1" cy="48.5" r="2.8"/>
					<circle class="st8" cx="195.7" cy="48.5" r="2.8"/>
					<circle class="st8" cx="204.2" cy="48.5" r="2.8"/>
					<circle class="st8" cx="212.8" cy="48.5" r="2.8"/>
					<circle class="st8" cx="221.4" cy="48.5" r="2.8"/>
					<circle class="st8" cx="230" cy="48.5" r="2.8"/>
					<circle class="st8" cx="238.5" cy="48.5" r="2.8"/>
				</g>
				<g>
					<circle class="st8" cx="135.7" cy="57.7" r="2.8"/>
					<circle class="st8" cx="144.2" cy="57.7" r="2.8"/>
					<circle class="st8" cx="152.8" cy="57.7" r="2.8"/>
					<circle class="st8" cx="161.4" cy="57.7" r="2.8"/>
					<circle class="st8" cx="170" cy="57.7" r="2.8"/>
					<circle class="st8" cx="178.5" cy="57.7" r="2.8"/>
					<circle class="st8" cx="187.1" cy="57.7" r="2.8"/>
					<circle class="st8" cx="195.7" cy="57.7" r="2.8"/>
					<circle class="st8" cx="204.2" cy="57.7" r="2.8"/>
					<circle class="st8" cx="212.8" cy="57.7" r="2.8"/>
					<circle class="st8" cx="221.4" cy="57.7" r="2.8"/>
					<circle class="st8" cx="230" cy="57.7" r="2.8"/>
					<circle class="st8" cx="238.5" cy="57.7" r="2.8"/>
				</g>
				<g>
					<circle class="st8" cx="135.7" cy="66.9" r="2.8"/>
					<circle class="st8" cx="144.2" cy="66.9" r="2.8"/>
					<circle class="st8" cx="152.8" cy="66.9" r="2.8"/>
					<circle class="st8" cx="161.4" cy="66.9" r="2.8"/>
					<circle class="st8" cx="170" cy="66.9" r="2.8"/>
					<circle class="st8" cx="178.5" cy="66.9" r="2.8"/>
					<circle class="st8" cx="187.1" cy="66.9" r="2.8"/>
					<circle class="st8" cx="195.7" cy="66.9" r="2.8"/>
					<circle class="st8" cx="204.2" cy="66.9" r="2.8"/>
					<circle class="st8" cx="212.8" cy="66.9" r="2.8"/>
					<circle class="st8" cx="221.4" cy="66.9" r="2.8"/>
					<circle class="st8" cx="230" cy="66.9" r="2.8"/>
					<circle class="st8" cx="238.5" cy="66.9" r="2.8"/>
				</g>
				<g>
					<circle class="st8" cx="135.7" cy="76.1" r="2.8"/>
					<circle class="st8" cx="144.2" cy="76.1" r="2.8"/>
					<circle class="st8" cx="152.8" cy="76.1" r="2.8"/>
					<circle class="st8" cx="161.4" cy="76.1" r="2.8"/>
					<circle class="st8" cx="170" cy="76.1" r="2.8"/>
					<circle class="st8" cx="178.5" cy="76.1" r="2.8"/>
					<circle class="st8" cx="187.1" cy="76.1" r="2.8"/>
					<circle class="st8" cx="195.7" cy="76.1" r="2.8"/>
					<circle class="st8" cx="204.2" cy="76.1" r="2.8"/>
					<circle class="st8" cx="212.8" cy="76.1" r="2.8"/>
					<circle class="st8" cx="221.4" cy="76.1" r="2.8"/>
					<circle class="st8" cx="230" cy="76.1" r="2.8"/>
					<circle class="st8" cx="238.5" cy="76.1" r="2.8"/>
				</g>
				<g>
					<circle class="st8" cx="135.7" cy="85.3" r="2.8"/>
					<circle class="st8" cx="144.2" cy="85.3" r="2.8"/>
					<circle class="st8" cx="152.8" cy="85.3" r="2.8"/>
					<circle class="st8" cx="161.4" cy="85.3" r="2.8"/>
					<circle class="st8" cx="170" cy="85.3" r="2.8"/>
					<circle class="st8" cx="178.5" cy="85.3" r="2.8"/>
					<circle class="st8" cx="187.1" cy="85.3" r="2.8"/>
					<circle class="st8" cx="195.7" cy="85.3" r="2.8"/>
					<circle class="st8" cx="204.2" cy="85.3" r="2.8"/>
					<circle class="st8" cx="212.8" cy="85.3" r="2.8"/>
					<circle class="st8" cx="221.4" cy="85.3" r="2.8"/>
					<circle class="st8" cx="230" cy="85.3" r="2.8"/>
					<circle class="st8" cx="238.5" cy="85.3" r="2.8"/>
				</g>
			</g>
		</g>
	</g>
	<path class="st13" d="M242.9-8.2c0,0,6,59,64.7,59c44,0,57.3,26.8,61.3,40.2c2.7,9.3,6.3,18.4,11.1,26.9
		c10.1,18.1,27.3,42.3,47,42.3l37.1-129V-8.2H242.9z"/>
	<path class="st12" d="M341.6,11.7c5.6,0,10.1,4.5,10.1,10.2c0,5.4-4.4,9.9-10.1,9.9c-5.5,0-10.1-4.5-10.1-9.9
		C331.6,16.2,336.1,11.7,341.6,11.7z"/>
	<g class="st5">
		<g>
			<path class="st22" d="M286.7,291.2c0.6,33.7-26.1,61.5-59.8,62.2s-61.5-26.1-62.2-59.8"/>
			<circle class="st2" cx="288" cy="291.2" r="7.4"/>
			<circle class="st8" cx="164.8" cy="293.5" r="7.4"/>
		</g>
		<g>
			<path class="st0" d="M37.1,191.7c1.5,0,2.6,1.2,2.6,2.7c0,1.4-1.1,2.6-2.6,2.6c-1.4,0-2.6-1.2-2.6-2.6
				C34.5,192.9,35.7,191.7,37.1,191.7z M35,215.2v-15.7h4.2v15.7H35z"/>
			<path class="st0" d="M48.5,206.7v8.5h-4.4v-22.6h8.5c4.5,0,7.4,3,7.4,7.1c0,4.1-3,7.1-7.4,7.1H48.5z M52,202.9
				c2.2,0,3.5-1.3,3.5-3.2c0-2-1.3-3.3-3.5-3.3h-3.5v6.5H52z"/>
			<path class="st0" d="M72.3,203.7c-0.5-0.1-0.9-0.1-1.3-0.1c-2.2,0-4.1,1.1-4.1,4.4v7.2h-4.2v-15.7h4.1v2.3c1-2.1,3.1-2.5,4.5-2.5
				c0.4,0,0.7,0,1,0.1V203.7z"/>
			<path class="st0" d="M77.4,191.7c1.5,0,2.6,1.2,2.6,2.7c0,1.4-1.1,2.6-2.6,2.6c-1.4,0-2.6-1.2-2.6-2.6
				C74.8,192.9,76,191.7,77.4,191.7z M75.3,215.2v-15.7h4.2v15.7H75.3z"/>
			<path class="st0" d="M87.2,207.4c0,2.8,1.9,4.4,4,4.4c2.2,0,3.3-1.4,3.6-2.7l3.7,1.2c-0.7,2.6-3.2,5.3-7.3,5.3
				c-4.6,0-8.3-3.5-8.3-8.3c0-4.9,3.6-8.3,8.1-8.3c4.3,0,6.7,2.7,7.4,5.3l-3.8,1.3c-0.4-1.3-1.4-2.7-3.5-2.7
				C89,203,87.2,204.5,87.2,207.4z"/>
			<path class="st0" d="M115.6,210.7c-0.8,2.7-3.3,5-7.2,5c-4.3,0-8.1-3.1-8.1-8.4c0-5,3.7-8.3,7.7-8.3c4.9,0,7.8,3.1,7.8,8.1
				c0,0.6-0.1,1.2-0.1,1.3h-11.2c0.1,2.1,1.9,3.6,4,3.6c2,0,3.1-1,3.6-2.4L115.6,210.7z M111.6,205.6c-0.1-1.6-1.1-3.1-3.5-3.1
				c-2.2,0-3.4,1.7-3.5,3.1H111.6z"/>
			<path class="st0" d="M141,243.3v-22.6h14.2v4.2h-9.8v5.2h8.8v3.9h-8.8v5.2h9.8v4.2H141z"/>
			<path class="st0" d="M158.4,235.7V232h9.3v3.8H158.4z"/>
			<path class="st0" d="M170.4,232c0-7.2,5.5-11.8,11.5-11.8c6.3,0,9.5,3.8,10.4,7.5l-4.2,1.3c-0.5-2.2-2.3-4.6-6.2-4.6
				c-3.4,0-7,2.4-7,7.6c0,4.8,3.4,7.5,7,7.5c3.9,0,5.7-2.5,6.4-4.6l4.1,1.2c-0.9,3.5-4.1,7.7-10.5,7.7
				C175.6,243.8,170.4,239.2,170.4,232z"/>
			<path class="st0" d="M210.5,235.5c0,4.8-3.5,8.3-8.2,8.3c-4.7,0-8.2-3.5-8.2-8.3c0-4.9,3.5-8.3,8.2-8.3
				C207,227.1,210.5,230.6,210.5,235.5z M206.3,235.5c0-3-1.9-4.5-4-4.5c-2.1,0-4,1.5-4,4.5c0,2.9,1.9,4.5,4,4.5
				C204.4,239.9,206.3,238.4,206.3,235.5z"/>
			<path class="st0" d="M213.9,243.3v-15.7h4.1v1.9c0.9-1.5,2.9-2.4,4.6-2.4c2.1,0,3.9,0.9,4.7,2.6c1.2-1.9,2.9-2.6,5-2.6
				c2.9,0,5.7,1.8,5.7,6v10.2h-4.1V234c0-1.7-0.8-3-2.8-3c-1.8,0-2.9,1.4-2.9,3.1v9.2h-4.2V234c0-1.7-0.9-3-2.8-3
				c-1.9,0-2.9,1.4-2.9,3.1v9.2H213.9z"/>
			<path class="st0" d="M242.2,243.3v-15.7h4.1v1.9c0.9-1.5,2.9-2.4,4.6-2.4c2.1,0,3.9,0.9,4.7,2.6c1.2-1.9,2.9-2.6,5-2.6
				c2.9,0,5.7,1.8,5.7,6v10.2H262V234c0-1.7-0.8-3-2.8-3c-1.8,0-2.9,1.4-2.9,3.1v9.2h-4.2V234c0-1.7-0.9-3-2.8-3
				c-1.9,0-2.9,1.4-2.9,3.1v9.2H242.2z"/>
			<path class="st0" d="M284.6,238.8c-0.8,2.7-3.3,5-7.2,5c-4.3,0-8.1-3.1-8.1-8.4c0-5,3.7-8.3,7.7-8.3c4.9,0,7.8,3.1,7.8,8.1
				c0,0.6-0.1,1.2-0.1,1.3h-11.2c0.1,2.1,1.9,3.6,4,3.6c2,0,3.1-1,3.6-2.4L284.6,238.8z M280.6,233.7c-0.1-1.6-1.1-3.1-3.5-3.1
				c-2.2,0-3.4,1.7-3.5,3.1H280.6z"/>
			<path class="st0" d="M297.7,231.8c-0.5-0.1-0.9-0.1-1.3-0.1c-2.2,0-4.1,1.1-4.1,4.4v7.2h-4.2v-15.7h4.1v2.3
				c1-2.1,3.1-2.5,4.5-2.5c0.4,0,0.7,0,1,0.1V231.8z"/>
			<path class="st0" d="M303.6,235.5c0,2.8,1.9,4.4,4,4.4c2.2,0,3.3-1.4,3.6-2.7l3.7,1.2c-0.7,2.6-3.2,5.3-7.3,5.3
				c-4.6,0-8.3-3.5-8.3-8.3c0-4.9,3.6-8.3,8.1-8.3c4.3,0,6.7,2.7,7.4,5.3l-3.8,1.3c-0.4-1.3-1.4-2.7-3.5-2.7
				C305.4,231.1,303.6,232.6,303.6,235.5z"/>
			<path class="st0" d="M332,238.8c-0.8,2.7-3.3,5-7.2,5c-4.3,0-8.1-3.1-8.1-8.4c0-5,3.7-8.3,7.7-8.3c4.9,0,7.8,3.1,7.8,8.1
				c0,0.6-0.1,1.2-0.1,1.3H321c0.1,2.1,1.9,3.6,4,3.6c2,0,3.1-1,3.6-2.4L332,238.8z M328.1,233.7c-0.1-1.6-1.1-3.1-3.5-3.1
				c-2.2,0-3.4,1.7-3.5,3.1H328.1z"/>
			<path class="st0" d="M211.8,271.4v-15.9l-6.5,15.9h-3.7l-6.5-15.7v15.7h-4.2v-22.6h5.8l6.8,16.4l6.6-16.4h6v22.6H211.8z"/>
			<path class="st0" d="M235,266.9c-0.8,2.7-3.3,5-7.2,5c-4.3,0-8.1-3.1-8.1-8.4c0-5,3.7-8.3,7.7-8.3c4.9,0,7.8,3.1,7.8,8.1
				c0,0.6-0.1,1.2-0.1,1.3h-11.2c0.1,2.1,1.9,3.6,4,3.6c2,0,3.1-1,3.6-2.4L235,266.9z M231.1,261.8c-0.1-1.6-1.1-3.1-3.5-3.1
				c-2.2,0-3.4,1.7-3.5,3.1H231.1z"/>
			<path class="st0" d="M248.2,259.9c-0.5-0.1-0.9-0.1-1.3-0.1c-2.2,0-4.1,1.1-4.1,4.4v7.2h-4.2v-15.7h4.1v2.3
				c1-2.1,3.1-2.5,4.5-2.5c0.4,0,0.7,0,1,0.1V259.9z"/>
			<path class="st0" d="M254.1,263.6c0,2.8,1.9,4.4,4,4.4s3.3-1.4,3.6-2.7l3.7,1.2c-0.7,2.6-3.2,5.3-7.3,5.3c-4.6,0-8.3-3.5-8.3-8.3
				c0-4.9,3.6-8.3,8.1-8.3c4.3,0,6.7,2.7,7.4,5.3l-3.8,1.3c-0.4-1.3-1.4-2.7-3.5-2.7C255.9,259.1,254.1,260.7,254.1,263.6z"/>
			<path class="st0" d="M272.8,271.4h-4.2v-23.1h4.2v8.7c1-1.2,2.7-1.7,4.2-1.7c4,0,5.8,2.8,5.8,6.2v9.9h-4.2v-9.2
				c0-1.8-0.9-3.1-2.9-3.1c-1.8,0-2.8,1.3-2.9,3.1V271.4z"/>
			<path class="st0" d="M291,262.4l3.9-0.6c0.9-0.1,1.2-0.6,1.2-1.1c0-1.1-0.9-2-2.7-2c-1.9,0-2.9,1.2-3,2.6l-3.8-0.8
				c0.3-2.5,2.5-5.2,6.7-5.2c5,0,6.8,2.8,6.8,6v7.7c0,0.8,0.1,1.9,0.2,2.5h-3.9c-0.1-0.4-0.2-1.3-0.2-1.9c-0.8,1.2-2.3,2.3-4.6,2.3
				c-3.4,0-5.4-2.3-5.4-4.7C286.3,264.3,288.4,262.8,291,262.4z M296,265.1v-0.7l-3.5,0.5c-1.1,0.2-1.9,0.8-1.9,2
				c0,0.9,0.7,1.8,2,1.8C294.4,268.7,296,267.8,296,265.1z"/>
			<path class="st0" d="M308.7,271.4h-4.2v-15.7h4.1v1.9c1-1.6,2.8-2.4,4.5-2.4c3.9,0,5.7,2.8,5.7,6.2v9.9h-4.2v-9.2
				c0-1.8-0.9-3.1-2.9-3.1c-1.9,0-2.9,1.4-2.9,3.3V271.4z"/>
			<path class="st0" d="M328.3,255.7h3.2v3.8h-3.2v6.6c0,1.4,0.6,1.8,1.9,1.8c0.5,0,1.1-0.1,1.3-0.1v3.5c-0.4,0.2-1.1,0.4-2.4,0.4
				c-3.1,0-5-1.8-5-4.9v-7.3h-2.8v-3.8h0.8c1.7,0,2.4-1.1,2.4-2.5V251h3.8V255.7z"/>
			<path class="st0" d="M44.1,294.3h-9.2l-1.9,5.2h-4.7l8.7-22.6h5.1l8.6,22.6H46L44.1,294.3z M36.4,290.3h6.3l-3.1-8.6L36.4,290.3z
				"/>
			<path class="st0" d="M65.8,283.8l3.4,10.1l2.9-10.1h4.2l-4.9,15.7h-4.2l-3.7-10.7l-3.6,10.7h-4.3l-5-15.7H55l2.9,10.1l3.4-10.1
				H65.8z"/>
			<path class="st0" d="M82.6,290.5l3.9-0.6c0.9-0.1,1.2-0.6,1.2-1.1c0-1.1-0.9-2-2.7-2c-1.9,0-2.9,1.2-3,2.6l-3.8-0.8
				c0.3-2.5,2.5-5.2,6.7-5.2c5,0,6.8,2.8,6.8,6v7.7c0,0.8,0.1,1.9,0.2,2.5h-3.9c-0.1-0.4-0.2-1.3-0.2-1.9c-0.8,1.2-2.3,2.3-4.6,2.3
				c-3.4,0-5.4-2.3-5.4-4.7C77.9,292.4,80,290.8,82.6,290.5z M87.7,293.1v-0.7l-3.5,0.5c-1.1,0.2-1.9,0.8-1.9,2c0,0.9,0.7,1.8,2,1.8
				C86,296.8,87.7,295.9,87.7,293.1z"/>
			<path class="st0" d="M105.7,288c-0.5-0.1-0.9-0.1-1.3-0.1c-2.2,0-4.1,1.1-4.1,4.4v7.2h-4.2v-15.7h4.1v2.3c1-2.1,3.1-2.5,4.5-2.5
				c0.4,0,0.7,0,1,0.1V288z"/>
			<path class="st0" d="M123.5,296.7c0,1.1,0.1,2.2,0.1,2.8h-4.1c-0.1-0.3-0.2-1.1-0.2-1.8c-0.7,1.2-2.3,2.2-4.4,2.2
				c-4.5,0-7.7-3.5-7.7-8.3c0-4.6,3.1-8.2,7.5-8.2c2.7,0,4,1.1,4.4,1.9v-9h4.2V296.7z M115.5,296.1c2.2,0,3.9-1.7,3.9-4.5
				c0-2.8-1.7-4.4-3.9-4.4c-2.2,0-3.9,1.6-3.9,4.4C111.6,294.4,113.3,296.1,115.5,296.1z"/>
			<path class="st0" d="M130.4,294.3c0.1,1.2,1,2.4,2.9,2.4c1.4,0,2.1-0.7,2.1-1.6c0-0.7-0.5-1.3-1.7-1.5l-2.1-0.5
				c-3-0.7-4.4-2.5-4.4-4.7c0-2.8,2.5-5.1,5.9-5.1c4.5,0,6,2.8,6.2,4.5l-3.5,0.8c-0.1-0.9-0.8-2.1-2.6-2.1c-1.1,0-2,0.7-2,1.6
				c0,0.8,0.6,1.2,1.4,1.4l2.2,0.5c3.1,0.6,4.7,2.5,4.7,4.8c0,2.6-2,5.2-6.1,5.2c-4.7,0-6.4-3.1-6.5-4.9L130.4,294.3z"/>
			<path class="st0" d="M241.2,286.7c-0.1-0.3-0.2-0.9-0.2-1.4c0-3.6,2.7-6.9,7.6-6.9c4.6,0,7.5,3.1,7.5,6.7c0,2.7-1.5,4.9-4,6.4
				l-4,2.4c-0.8,0.5-1.5,1.1-1.8,1.9h9.9v3.8h-15.3c0-3.6,1.2-6.6,4.9-8.8l3.4-2c1.8-1.1,2.5-2.1,2.5-3.6c0-1.5-1.1-2.8-3.1-2.8
				c-2.2,0-3.3,1.5-3.3,3.4c0,0.4,0.1,0.8,0.2,1.2L241.2,286.7z"/>
			<path class="st0" d="M260.3,281.8c1.4-2,3.6-3.5,6.8-3.5c3.2,0,5.5,1.4,6.8,3.5c1.4,2.1,1.9,4.7,1.9,7.4c0,2.7-0.4,5.2-1.9,7.4
				c-1.3,2-3.6,3.5-6.8,3.5c-3.2,0-5.5-1.4-6.8-3.5c-1.4-2.1-1.8-4.7-1.8-7.4C258.5,286.5,258.9,283.9,260.3,281.8z M264.1,294.4
				c0.6,1,1.6,1.7,3.1,1.7c1.5,0,2.5-0.7,3.1-1.7c0.8-1.2,1.1-3.1,1.1-5.3s-0.3-4-1.1-5.3c-0.6-1-1.6-1.7-3.1-1.7
				c-1.5,0-2.5,0.7-3.1,1.7c-0.8,1.2-1.1,3.1-1.1,5.3S263.3,293.2,264.1,294.4z"/>
			<path class="st0" d="M306.8,299.5v-13.9h-5v-3c3,0,5.1-1.7,5.6-3.9h3.8v20.7H306.8z"/>
			<path class="st0" d="M329.8,282.4c-1.6,1.3-7.4,6.6-8.3,17.1h-4.6c0.9-11.1,7.8-16.9,7.8-16.9h-10.7v-3.8h15.7V282.4z"/>
		</g>
	</g>
	<path class="st23" d="M-1,458.2c0,0,46.3-13.1,54.8,43.3c5.6,37.2,32.2,18,32.2,18s22.5-9.9,41.7,9.1c19.2,19,31.2,11.9,31.2,11.9
		s17.2-4.3,24.3,14.1c5.3,13.6,14.4,25.5,26.8,33.3c9.7,6.1,21.5,11.2,34.2,11.2H-1V458.2z"/>
	<g class="st5">
		<path class="st8" d="M56,540.1c-4.2,4.2-11,4.1-15.2-0.1c-4.1-4.1-4.1-10.8,0.1-15c4.2-4.2,11-4.2,15-0.1
			C60.2,529.1,60.2,535.9,56,540.1z"/>
		
			<rect x="2.1" y="462.8" transform="matrix(0.7071 -0.7071 0.7071 0.7071 -346.8006 152.5757)" class="st7" width="17.4" height="64.2"/>
	</g>
	<g class="st5">
		<polygon class="st24" points="364.6,119.6 364.6,53.2 337.3,119.6 322.8,119.6 295.6,53.7 295.6,119.6 279.1,119.6 279.1,27.8 
			302.2,27.8 330.3,95.2 357.7,27.8 381.6,27.8 381.6,119.6 		"/>
		<path class="st0" d="M381.2,28.2v91h-16.3V55.1v-3.7l-1.4,3.5l-26.4,64.4h-14l-26.4-63.9l-1.4-3.4v3.7v63.6h-15.7v-91H302
			l27.6,66.3l0.7,1.7l0.7-1.7l27-66.3H381.2 M381.9,27.4h-24.5l-27.1,66.8l-27.8-66.8h-23.7v92.5h17.2V55.6l26.6,64.3h15l26.6-64.8
			v64.8h17.7V27.4L381.9,27.4z"/>
	</g>
	<g class="st5">
		<path class="st2" d="M207.7,111.1h-27.2h-1.3h-27.6v80.6l25.8-20.5c1.4-1.1,3.5-1.1,4.9,0l25.4,20.5V111.1z"/>
		<circle class="st25" cx="180" cy="80.9" r="50.5"/>
		<g>
			<path class="st26" d="M135.5,83.2c0-0.7,0-1.3,0-2c0-24.9,20.2-45,45-45c18.6,0,34.6,11.3,41.5,27.5"/>
			<path class="st26" d="M136.8,94.5c5.7,18.3,22.8,31.7,43,31.7c20,0,37-13.1,42.8-31.1"/>
		</g>
		<g>
			<path class="st25" d="M142.3,97c3.4,8,9.3,14.9,17.1,19.4c3,1.7,6.2,3.1,9.6,4c3.3,0.9,6.7,1.4,10,1.5c0.4,0,0.9,0,1.3,0
				c7.2-0.1,14.1-2,20.2-5.5c7.5-4.3,13.6-11,17.1-19.4"/>
			<path class="st25" d="M139.1,83.1c-0.2-4.3,0.2-8.6,1.4-13c4.5-16.3,18.3-27.6,34.1-29.6"/>
			<path class="st25" d="M212.5,56.3c5.7,7.5,8.8,17,8.3,26.7"/>
			<path class="st25" d="M180.2,40c2.9,0.1,5.8,0.5,8.6,1.2"/>
		</g>
		<g>
			<path class="st0" d="M152.8,67.7c1.1,0,2,0.9,2,2c0,1.1-0.9,2-2,2c-1.1,0-2-0.9-2-2C150.8,68.6,151.7,67.7,152.8,67.7z
				 M151.2,85.6v-12h3.2v12H151.2z"/>
			<path class="st0" d="M158.2,85.6V68.3H169v3.2h-7.4v3.9h6.7v3h-6.7v4h7.4v3.2H158.2z"/>
			<path class="st0" d="M188.3,85.6V73.5l-5,12.1h-2.8l-5-12v12h-3.2V68.3h4.4l5.2,12.5l5.1-12.5h4.6v17.3H188.3z"/>
			<path class="st0" d="M205.8,81.6h-7l-1.4,3.9h-3.6l6.6-17.3h3.9l6.6,17.3h-3.7L205.8,81.6z M199.9,78.6h4.8l-2.4-6.5L199.9,78.6z
				"/>
			<path class="st0" d="M165.7,93.4c0-0.1-0.1-0.4-0.1-0.7c0-1.7,1.3-3.2,3.5-3.2c2.1,0,3.4,1.4,3.4,3.1c0,1.2-0.7,2.2-1.8,2.9
				l-1.8,1.1c-0.4,0.2-0.7,0.5-0.8,0.9h4.6v1.7h-7c0-1.7,0.5-3,2.2-4.1l1.6-0.9c0.8-0.5,1.1-1,1.1-1.6c0-0.7-0.5-1.3-1.4-1.3
				c-1,0-1.5,0.7-1.5,1.6c0,0.2,0,0.4,0.1,0.5L165.7,93.4z"/>
			<path class="st0" d="M174.5,91.1c0.6-0.9,1.7-1.6,3.1-1.6c1.5,0,2.5,0.7,3.1,1.6c0.6,1,0.9,2.2,0.9,3.4c0,1.2-0.2,2.4-0.9,3.4
				c-0.6,0.9-1.6,1.6-3.1,1.6c-1.5,0-2.5-0.7-3.1-1.6c-0.6-1-0.8-2.2-0.8-3.4C173.7,93.3,173.9,92.1,174.5,91.1z M176.2,96.9
				c0.3,0.5,0.7,0.8,1.4,0.8c0.7,0,1.1-0.3,1.4-0.8c0.4-0.6,0.5-1.4,0.5-2.4c0-1-0.1-1.8-0.5-2.4c-0.3-0.5-0.7-0.8-1.4-0.8
				c-0.7,0-1.1,0.3-1.4,0.8c-0.4,0.6-0.5,1.4-0.5,2.4C175.7,95.5,175.9,96.4,176.2,96.9z"/>
			<path class="st0" d="M184.8,99.3v-6.4h-2.3v-1.4c1.4,0,2.4-0.8,2.6-1.8h1.7v9.5H184.8z"/>
			<path class="st0" d="M195.4,91.4c-0.7,0.6-3.4,3-3.8,7.8h-2.1c0.4-5.1,3.6-7.8,3.6-7.8h-4.9v-1.7h7.2V91.4z"/>
		</g>
		<path class="st25" d="M135.5,87.4c0,0-0.9,13.9,14.9,27.9"/>
		<path class="st25" d="M223,67.2c0,0,5.2,17-2.2,32.6"/>
		<path class="st28" d="M193.6,42.3c0,0,9.5,2.9,16.3,10.7"/>
	</g>
</g>
<g>
	<defs>
		<rect id="SVGID_11_" x="-1203.5" y="-27.5" width="1024" height="300"/>
	</defs>
	<clipPath id="SVGID_12_">
		<use xlink:href="#SVGID_11_"  style="overflow:visible;"/>
	</clipPath>
	<g class="st30">
		<defs>
			<path id="SVGID_17_" d="M-336.9,274.7c0-42.4,34.4-76.8,76.8-76.8s76.8,34.4,76.8,76.8H-336.9z"/>
		</defs>
		<clipPath id="SVGID_14_">
			<use xlink:href="#SVGID_17_"  style="overflow:visible;"/>
		</clipPath>
		<g class="st32">
			<defs>
				<rect id="SVGID_19_" x="-721.2" y="119.9" width="553.9" height="176.2"/>
			</defs>
			<clipPath id="SVGID_16_">
				<use xlink:href="#SVGID_19_"  style="overflow:visible;"/>
			</clipPath>
			
				<line style="clip-path:url(#SVGID_16_);fill:none;stroke:#FFFFFF;stroke-width:0.5521;stroke-miterlimit:10;" x1="4" y1="83.9" x2="-255.4" y2="343.3"/>
			
				<line style="clip-path:url(#SVGID_16_);fill:none;stroke:#FFFFFF;stroke-width:0.5521;stroke-miterlimit:10;" x1="12.8" y1="83.9" x2="-246.6" y2="343.3"/>
			
				<line style="clip-path:url(#SVGID_16_);fill:none;stroke:#FFFFFF;stroke-width:0.5521;stroke-miterlimit:10;" x1="21.7" y1="83.9" x2="-237.7" y2="343.3"/>
			
				<line style="clip-path:url(#SVGID_16_);fill:none;stroke:#FFFFFF;stroke-width:0.5521;stroke-miterlimit:10;" x1="30.6" y1="83.9" x2="-228.8" y2="343.3"/>
			
				<line style="clip-path:url(#SVGID_16_);fill:none;stroke:#FFFFFF;stroke-width:0.5521;stroke-miterlimit:10;" x1="39.5" y1="83.9" x2="-219.9" y2="343.3"/>
		</g>
	</g>
</g>
</svg>
