<svg id="Layer_1" data-name="Layer 1" xmlns="http://www.w3.org/2000/svg" xmlns:xlink="http://www.w3.org/1999/xlink" viewBox="0 0 1024 170"><defs><style>.cls-1,.cls-14,.cls-15,.cls-8,.cls-9{fill:none;}.cls-2{clip-path:url(#clip-path);}.cls-3{fill:#f1f3f2;}.cls-4{clip-path:url(#clip-path-2);}.cls-5{fill:#f63;}.cls-10,.cls-11,.cls-12,.cls-13,.cls-6{fill:#fff;}.cls-7{fill:#3cc;}.cls-10,.cls-11,.cls-12,.cls-13,.cls-14,.cls-15,.cls-8,.cls-9{stroke:#3cc;}.cls-14,.cls-8{stroke-miterlimit:10;}.cls-8{stroke-width:1.61px;}.cls-10,.cls-11,.cls-12,.cls-13,.cls-15,.cls-9{stroke-linecap:round;stroke-linejoin:round;}.cls-9{stroke-width:16px;}.cls-10{stroke-width:0.74px;}.cls-11{stroke-width:0.72px;}.cls-12{stroke-width:0.79px;}.cls-13{stroke-width:0.85px;}.cls-14{stroke-width:0.3px;}.cls-15{stroke-width:0.75px;}</style><clipPath id="clip-path"><rect class="cls-1" y="-0.37" width="1024" height="170"/></clipPath><clipPath id="clip-path-2"><rect class="cls-1" y="-0.44" width="1027" height="170.94"/></clipPath></defs><title>header_th</title><g class="cls-2"><rect class="cls-3" y="-0.44" width="1147" height="170.94"/><g class="cls-4"><rect class="cls-5" x="613.44" y="-0.5" width="24.19" height="117.48"/><rect class="cls-5" x="660.19" y="-0.5" width="24.19" height="117.48"/><rect class="cls-5" x="706.95" y="-0.5" width="24.19" height="117.48"/><rect class="cls-5" x="753.71" y="-0.5" width="24.19" height="117.48"/><circle class="cls-6" cx="777.89" cy="38.01" r="11.85"/><circle class="cls-5" cx="802.6" cy="70.4" r="11.85"/><circle class="cls-6" cx="848.36" cy="96.21" r="11.85"/><circle class="cls-6" cx="894.4" cy="23.37" r="11.85"/><rect class="cls-3" x="170.1" y="54.5" width="82.59" height="106.06"/><path class="cls-7" d="M163,174.49V33.39h88.36V59.26h-60.9V91.5h55.13V116H190.46v32.64h60.9v25.87Z"/><path class="cls-7" d="M874.52,96.7H823.18l-10.52,28.88h-26L835.12-.83h28.53l48.14,126.41H885ZM831.37,74.23h34.95L848.85,26.45Z"/><path class="cls-8" d="M928.57,112.3a11.36,11.36,0,0,1-2.17.24c-5.5,0-10.48-4.15-10.48-11.44,0-7,4.63-11.29,10.09-11.29,4.06,0,7.34,2.22,9.7,6.08l3.67,6a6.38,6.38,0,0,0,2.85,2.7v-15H948v23.17c-5.5,0-10-1.78-13.37-7.39l-3.09-5.17c-1.59-2.65-3.23-3.71-5.41-3.71s-4.3,1.6-4.3,4.73c0,3.33,2.27,5,5.21,5a7.13,7.13,0,0,0,1.74-.24Z"/><path class="cls-8" d="M921.19,83.38A11.85,11.85,0,0,1,915.93,73a11.7,11.7,0,0,1,5.26-10.28c3.23-2.12,7.14-2.8,11.15-2.8s7.92.68,11.15,2.8A11.7,11.7,0,0,1,948.75,73a11.85,11.85,0,0,1-5.26,10.34c-3.23,2.12-7.14,2.75-11.15,2.75S924.42,85.51,921.19,83.38Zm19.12-5.6A5.23,5.23,0,0,0,942.86,73a5.09,5.09,0,0,0-2.56-4.68c-1.88-1.26-4.68-1.74-8-1.74s-6.08.48-8,1.74A5.09,5.09,0,0,0,921.82,73a5.23,5.23,0,0,0,2.56,4.73c1.88,1.21,4.68,1.69,8,1.69S938.42,79,940.31,77.78Z"/><path class="cls-8" d="M948,49.48H927V57h-4.49c0-4.58-2.61-7.78-5.89-8.4V42.86H948Z"/><path class="cls-8" d="M922.78,14.71a13.44,13.44,0,0,0-1.11,5.17c0,5.31,3.09,9.66,9,10.38a8.87,8.87,0,0,1-3.48-7.44c0-6.42,4.06-10.81,10.52-10.81s11,5.21,11,12.12-4.92,12.69-14.39,12.69c-11.25,0-18.39-7-18.39-17.38a13.65,13.65,0,0,1,1.45-6.57Zm20.32,9.46a5.22,5.22,0,0,0-5.26-5.55c-3.23,0-5.21,2.51-5.21,5.55a5.17,5.17,0,0,0,5.21,5.5A5.3,5.3,0,0,0,943.11,24.18Z"/><rect class="cls-7" x="954.4" y="12.01" width="12.32" height="104.72"/><rect class="cls-3" x="453.24" y="23.64" width="108.35" height="93.01"/><rect class="cls-7" x="-1.56" y="-7.18" width="54.7" height="179.82"/><rect class="cls-5" x="163" y="-0.83" width="95.47" height="34.22"/><rect class="cls-3" x="410.14" y="134.45" width="51.59" height="56.37"/><path class="cls-9" d="M480.51,114.57h0a28.39,28.39,0,0,1,56.73,0h0"/><rect class="cls-5" x="453.24" y="116.64" width="452.28" height="8.94"/><path class="cls-6" d="M53.14,7.58H-.15V84.7L23.67,65.62a4.81,4.81,0,0,1,6,0l23.44,19Z"/><polygon class="cls-6" points="53.29 -0.89 27.74 -0.89 26.51 -0.89 0 -0.89 0 76.23 26.85 54.73 53.29 76.23 53.29 -0.89"/><circle class="cls-3" cx="26.45" cy="85" r="6.61"/><rect class="cls-3" x="455.21" y="134.43" width="449.85" height="36.9"/><rect class="cls-6" x="905.05" y="116.27" width="75.49" height="54.94"/><polygon class="cls-6" points="1025.37 105.08 1002.33 105.08 1001.28 105.08 979.37 105.08 979.37 171.21 1002.54 152.74 1025.37 171.21 1025.37 105.08"/><polygon class="cls-5" points="1024.7 89.07 1002.33 89.07 1001.28 89.07 978.59 89.07 978.59 155.37 1001.82 136.91 1024.7 155.37 1024.7 89.07"/><polygon class="cls-6" points="1025.37 72.08 1002.33 72.08 1001.28 72.08 979.37 72.08 979.37 139.54 1002.54 121.08 1025.37 139.54 1025.37 72.08"/><polygon class="cls-5" points="1024.7 57.41 1002.33 57.41 1001.28 57.41 978.59 57.41 978.59 123.71 1001.82 105.25 1024.7 123.71 1024.7 57.41"/><polygon class="cls-6" points="1025.37 42.08 1002.33 42.08 1001.28 42.08 979.37 42.08 979.37 107.88 1002.54 89.41 1025.37 107.88 1025.37 42.08"/><polygon class="cls-5" points="1024.7 25.74 1002.33 25.74 1001.28 25.74 978.59 25.74 978.59 92.04 1001.82 73.58 1024.7 92.04 1024.7 25.74"/><polygon class="cls-6" points="1025.37 10.08 1002.33 10.08 1001.28 10.08 979.37 10.08 979.37 76.21 1002.54 57.75 1025.37 76.21 1025.37 10.08"/><polygon class="cls-5" points="1024.7 -5.92 1002.33 -5.92 1001.28 -5.92 978.59 -5.92 978.59 60.38 1001.82 41.91 1024.7 60.38 1024.7 -5.92"/><rect class="cls-7" x="455.67" y="125.6" width="449.67" height="8.83"/><path class="cls-6" d="M882.14,116.19l-19.66,22.47a7.55,7.55,0,0,0,0,9.9l19.7,22.85h-85.9V177H968.47V116.19Z"/><circle class="cls-3" cx="886.22" cy="143.76" r="7.34"/><polygon class="cls-7" points="455.73 134.25 437.89 152.79 455.94 171.34 402.99 171.34 402.94 134.38 455.73 134.25"/><path class="cls-5" d="M375.87,275.48V176.58l-40.6,98.91H312.38l-40.6-98.11v98.11H245.52V134.38h36.22l42.39,101.89,41.39-101.89h37.42v141.1Z"/><rect class="cls-1" y="0.5" width="1027" height="170.84"/><rect class="cls-6" x="245.55" y="-0.83" width="210.12" height="135.26"/></g><path class="cls-7" d="M602,12.72A16.28,16.28,0,1,1,585.54-3.56,16.27,16.27,0,0,1,602,12.72ZM455.85-.39h97.71V26H455.85Z"/></g><path class="cls-5" d="M133,84.49H84.38v69.86l22.33-17.75a3.42,3.42,0,0,1,4.28,0l22,17.74Z"/><circle class="cls-10" cx="109.03" cy="58.36" r="43.72"/><path class="cls-11" d="M70.42,60.32c0-.57,0-1.15,0-1.72a39,39,0,0,1,74.95-15.18"/><path class="cls-11" d="M71.56,70.16a39,39,0,0,0,74.38.49"/><path class="cls-10" d="M76.31,72.32a35.52,35.52,0,0,0,31.83,21.57h1.1a35.46,35.46,0,0,0,32.29-21.58"/><path class="cls-10" d="M73.52,60.2a35.48,35.48,0,0,1,30.84-36.9"/><path class="cls-10" d="M137.16,37a35.44,35.44,0,0,1,7.16,23.16"/><path class="cls-10" d="M109.2,22.93a35.25,35.25,0,0,1,7.46,1"/><line class="cls-12" x1="94.92" y1="76.43" x2="85.27" y2="76.43"/><line class="cls-13" x1="135.55" y1="76.74" x2="124.43" y2="76.74"/><path class="cls-7" d="M99,74.94v3.84H98.1V74.94H96.61v-.87h3.9v.87Z"/><path class="cls-7" d="M102,78.78h-.88V74H102v1.81a1.23,1.23,0,0,1,2.1.94v2.06h-.88v-1.9a.57.57,0,0,0-.6-.65.61.61,0,0,0-.61.64Z"/><path class="cls-7" d="M105.75,76.9l.8-.12c.19,0,.25-.12.25-.23s-.18-.42-.55-.42a.58.58,0,0,0-.62.53l-.78-.17a1.3,1.3,0,0,1,1.4-1.08c1,0,1.42.58,1.42,1.24v1.61a3.55,3.55,0,0,0,0,.52h-.81a2.24,2.24,0,0,1,0-.39,1.09,1.09,0,0,1-1,.48,1,1,0,0,1-1.12-1A1,1,0,0,1,105.75,76.9Zm1,.56v-.15l-.74.11a.41.41,0,0,0-.41.41.38.38,0,0,0,.42.38A.66.66,0,0,0,106.8,77.46Z"/><path class="cls-7" d="M109,73.9a.54.54,0,1,1-.54.55A.54.54,0,0,1,109,73.9Zm-.44,4.88V75.51h.88v3.26Z"/><path class="cls-7" d="M110.37,78.78V74h.88v4.8Z"/><path class="cls-7" d="M112.95,76.9l.8-.12c.19,0,.25-.12.25-.23s-.18-.42-.55-.42a.58.58,0,0,0-.62.53l-.78-.17a1.3,1.3,0,0,1,1.4-1.08c1,0,1.42.58,1.42,1.24v1.61a3.55,3.55,0,0,0,0,.52h-.81a2.24,2.24,0,0,1,0-.39,1.09,1.09,0,0,1-1,.48,1,1,0,0,1-1.12-1A1,1,0,0,1,112.95,76.9Zm1,.56v-.15l-.74.11a.41.41,0,0,0-.41.41.38.38,0,0,0,.42.38A.66.66,0,0,0,114,77.46Z"/><path class="cls-7" d="M116.63,78.78h-.88V75.51h.86v.4a1.08,1.08,0,0,1,.94-.49,1.15,1.15,0,0,1,1.18,1.29v2.06h-.88v-1.9a.57.57,0,0,0-.6-.65.62.62,0,0,0-.61.68Z"/><path class="cls-7" d="M122.73,78.19c0,.22,0,.46,0,.59h-.84a2.19,2.19,0,0,1,0-.38,1,1,0,0,1-.92.46,1.72,1.72,0,0,1,0-3.42,1,1,0,0,1,.92.41V74h.87Zm-1.66-.12a.83.83,0,0,0,.8-.94.81.81,0,0,0-.8-.91.93.93,0,0,0,0,1.84Z"/><path class="cls-7" d="M85.43,39.48a1.73,1.73,0,1,1-1.73,1.75A1.73,1.73,0,0,1,85.43,39.48ZM84,55V44.62h2.8V55Z"/><path class="cls-7" d="M90.05,55V40h9.36v2.74H93V46.2H98.8V48.8H93v3.46h6.45V55Z"/><path class="cls-7" d="M116.14,55V44.52L111.84,55h-2.43l-4.3-10.4V55h-2.78V40h3.84l4.49,10.8L115,40h4V55Z"/><path class="cls-7" d="M131.33,51.58h-6.07L124,55h-3.08l5.74-15H130l5.69,15h-3.16Zm-5.1-2.66h4.13l-2.07-5.65Z"/><path class="cls-7" d="M84.36,57.42a.48.48,0,1,1-.48.49A.48.48,0,0,1,84.36,57.42ZM84,61.77v-2.9h.78v2.9Z"/><path class="cls-7" d="M86.46,60.19v1.58h-.81V57.58h1.56a1.31,1.31,0,1,1,0,2.61Zm.65-.7a.6.6,0,1,0,0-1.2h-.64v1.2Z"/><path class="cls-7" d="M90.86,59.64l-.24,0c-.4,0-.75.19-.75.82v1.33h-.78v-2.9h.76v.43a.87.87,0,0,1,.83-.46h.18Z"/><path class="cls-7" d="M91.8,57.42a.48.48,0,1,1-.48.49A.48.48,0,0,1,91.8,57.42Zm-.39,4.34v-2.9h.78v2.9Z"/><path class="cls-7" d="M93.6,60.31a.75.75,0,0,0,.74.82.66.66,0,0,0,.67-.49l.69.23a1.35,1.35,0,0,1-1.36,1,1.5,1.5,0,0,1-1.53-1.54,1.49,1.49,0,0,1,1.5-1.54,1.33,1.33,0,0,1,1.36,1L95,60a.63.63,0,0,0-.64-.49A.74.74,0,0,0,93.6,60.31Z"/><path class="cls-7" d="M98.85,60.93a1.31,1.31,0,0,1-1.32.92,1.54,1.54,0,0,1-.07-3.08,1.36,1.36,0,0,1,1.43,1.5c0,.11,0,.23,0,.24H96.8a.71.71,0,0,0,.73.66.64.64,0,0,0,.66-.44ZM98.11,60a.58.58,0,0,0-.65-.57.63.63,0,0,0-.65.57Z"/><path class="cls-7" d="M101,61.77V57.58h2.62v.77h-1.81v1h1.64V60h-1.64v1h1.81v.77Z"/><path class="cls-7" d="M104.22,60.36v-.7h1.71v.7Z"/><path class="cls-7" d="M106.43,59.68a2.11,2.11,0,0,1,2.13-2.18,1.84,1.84,0,0,1,1.92,1.39l-.77.24a1.1,1.1,0,0,0-1.15-.84,1.39,1.39,0,0,0,0,2.78,1.16,1.16,0,0,0,1.17-.86l.76.23a1.9,1.9,0,0,1-1.94,1.42A2.09,2.09,0,0,1,106.43,59.68Z"/><path class="cls-7" d="M113.84,60.31a1.52,1.52,0,1,1-1.52-1.54A1.49,1.49,0,0,1,113.84,60.31Zm-.78,0a.74.74,0,1,0-.74.83A.75.75,0,0,0,113.06,60.31Z"/><path class="cls-7" d="M114.46,61.77v-2.9h.75v.35a1,1,0,0,1,.85-.44.9.9,0,0,1,.86.48,1.07,1.07,0,0,1,2,.62v1.88h-.76V60a.49.49,0,0,0-.51-.55.53.53,0,0,0-.54.57v1.7h-.78V60a.49.49,0,0,0-.51-.55.53.53,0,0,0-.54.57v1.7Z"/><path class="cls-7" d="M119.68,61.77v-2.9h.75v.35a1,1,0,0,1,.85-.44.9.9,0,0,1,.86.48,1.07,1.07,0,0,1,2,.62v1.88h-.76V60a.49.49,0,0,0-.51-.55.53.53,0,0,0-.54.57v1.7h-.78V60a.49.49,0,0,0-.51-.55.53.53,0,0,0-.54.57v1.7Z"/><path class="cls-7" d="M127.5,60.93a1.31,1.31,0,0,1-1.32.92,1.54,1.54,0,0,1-.07-3.08,1.36,1.36,0,0,1,1.43,1.5c0,.11,0,.23,0,.24h-2.08a.71.71,0,0,0,.73.66.64.64,0,0,0,.66-.44Zm-.73-.95a.58.58,0,0,0-.65-.57.63.63,0,0,0-.65.57Z"/><path class="cls-7" d="M129.93,59.64l-.24,0c-.4,0-.75.19-.75.82v1.33h-.78v-2.9h.76v.43a.87.87,0,0,1,.83-.46h.18Z"/><path class="cls-7" d="M131,60.31a.75.75,0,0,0,.74.82.66.66,0,0,0,.67-.49l.69.23a1.35,1.35,0,0,1-1.36,1,1.5,1.5,0,0,1-1.53-1.54,1.49,1.49,0,0,1,1.5-1.54,1.33,1.33,0,0,1,1.36,1l-.7.24a.63.63,0,0,0-.64-.49A.74.74,0,0,0,131,60.31Z"/><path class="cls-7" d="M136.27,60.93a1.31,1.31,0,0,1-1.32.92,1.54,1.54,0,0,1-.07-3.08,1.36,1.36,0,0,1,1.43,1.5c0,.11,0,.23,0,.24h-2.08a.71.71,0,0,0,.73.66.64.64,0,0,0,.66-.44Zm-.73-.95a.58.58,0,0,0-.65-.57.63.63,0,0,0-.65.57Z"/><path class="cls-7" d="M82.11,68.53V65.6l-1.2,2.93h-.68L79,65.62v2.91h-.78V64.35h1.07l1.26,3,1.23-3h1.11v4.18Z"/><path class="cls-7" d="M86.38,67.7a1.31,1.31,0,0,1-1.32.92A1.54,1.54,0,0,1,85,65.54,1.36,1.36,0,0,1,86.43,67c0,.11,0,.23,0,.24H84.34a.71.71,0,0,0,.73.66.64.64,0,0,0,.66-.44Zm-.73-.95a.58.58,0,0,0-.65-.57.63.63,0,0,0-.65.57Z"/><path class="cls-7" d="M88.81,66.41l-.24,0c-.4,0-.75.19-.75.82v1.33H87v-2.9h.76v.43a.86.86,0,0,1,.83-.46h.18Z"/><path class="cls-7" d="M89.9,67.08a.75.75,0,0,0,.74.82.66.66,0,0,0,.67-.49l.69.23a1.35,1.35,0,0,1-1.36,1,1.5,1.5,0,0,1-1.53-1.54,1.49,1.49,0,0,1,1.5-1.54,1.33,1.33,0,0,1,1.36,1l-.7.24a.63.63,0,0,0-.64-.49A.74.74,0,0,0,89.9,67.08Z"/><path class="cls-7" d="M93.36,68.53h-.78V64.26h.78v1.61a1.09,1.09,0,0,1,1.86.83v1.83h-.78V66.84a.51.51,0,0,0-.54-.58.54.54,0,0,0-.54.57Z"/><path class="cls-7" d="M96.71,66.86l.71-.11c.17,0,.22-.11.22-.21s-.16-.38-.49-.38a.51.51,0,0,0-.55.47l-.7-.15a1.15,1.15,0,0,1,1.24-1c.92,0,1.26.52,1.26,1.1v1.43a3.26,3.26,0,0,0,0,.46h-.72a2,2,0,0,1,0-.35,1,1,0,0,1-.86.43.92.92,0,0,1-1-.87A.89.89,0,0,1,96.71,66.86Zm.93.5v-.13l-.66.1a.37.37,0,0,0-.36.37A.34.34,0,0,0,97,68,.59.59,0,0,0,97.64,67.36Z"/><path class="cls-7" d="M100,68.53h-.78v-2.9H100V66a1,1,0,0,1,.84-.44,1,1,0,0,1,1,1.15v1.83h-.78V66.84a.51.51,0,0,0-.54-.58.55.55,0,0,0-.54.6Z"/><path class="cls-7" d="M103.6,65.63h.58v.7h-.58v1.22c0,.25.12.34.34.34l.24,0v.65a1.16,1.16,0,0,1-.44.07.84.84,0,0,1-.92-.9V66.33h-.53v-.7h.15a.42.42,0,0,0,.45-.46v-.41h.71Z"/><path class="cls-7" d="M108.84,67.58h-1.7l-.35,1h-.86l1.6-4.18h.94l1.59,4.18h-.88Zm-1.43-.74h1.16L108,65.25Z"/><path class="cls-7" d="M112.84,65.63l.63,1.87.54-1.87h.78l-.91,2.9h-.78l-.68-2-.67,2h-.8l-.93-2.9h.83l.54,1.86.63-1.86Z"/><path class="cls-7" d="M115.94,66.86l.71-.11c.17,0,.22-.11.22-.21s-.16-.38-.49-.38a.51.51,0,0,0-.55.47l-.7-.15a1.15,1.15,0,0,1,1.24-1c.92,0,1.26.52,1.26,1.1v1.43a3.26,3.26,0,0,0,0,.46H117a2,2,0,0,1,0-.35,1,1,0,0,1-.86.43.92.92,0,0,1-1-.87A.89.89,0,0,1,115.94,66.86Zm.93.5v-.13l-.66.1a.37.37,0,0,0-.36.37.34.34,0,0,0,.38.34A.59.59,0,0,0,116.87,67.36Z"/><path class="cls-7" d="M120.2,66.41l-.24,0c-.4,0-.75.19-.75.82v1.33h-.78v-2.9h.76v.43a.87.87,0,0,1,.83-.46h.18Z"/><path class="cls-7" d="M123.49,68c0,.19,0,.41,0,.52h-.75a2,2,0,0,1,0-.34.91.91,0,0,1-.81.41,1.53,1.53,0,0,1,0-3,.87.87,0,0,1,.82.36V64.26h.77ZM122,67.9a.74.74,0,0,0,.71-.83.72.72,0,0,0-.71-.81.83.83,0,0,0,0,1.64Z"/><path class="cls-7" d="M124.76,67.58a.48.48,0,0,0,.53.44c.26,0,.38-.14.38-.29s-.09-.24-.31-.28l-.38-.09a.89.89,0,0,1-.81-.87,1.14,1.14,0,0,1,2.22-.11l-.66.15a.44.44,0,0,0-.48-.39c-.21,0-.37.12-.37.29s.11.23.27.26l.41.09c.57.12.86.47.86.89a1,1,0,0,1-1.13,1,1.09,1.09,0,0,1-1.21-.9Z"/><path class="cls-14" d="M128.33,66.16a1.44,1.44,0,0,1,0-.27,1.29,1.29,0,0,1,1.4-1.28,1.27,1.27,0,0,1,1.38,1.23,1.38,1.38,0,0,1-.74,1.19l-.74.45a.79.79,0,0,0-.33.35h1.84v.7h-2.83a1.75,1.75,0,0,1,.9-1.63l.63-.38a.75.75,0,0,0,.45-.66.52.52,0,0,0-.58-.52.58.58,0,0,0-.61.64.84.84,0,0,0,0,.21Z"/><path class="cls-14" d="M131.86,65.26a1.45,1.45,0,0,1,1.26-.64,1.43,1.43,0,0,1,1.26.64,2.88,2.88,0,0,1,0,2.73,1.43,1.43,0,0,1-1.26.64,1.45,1.45,0,0,1-1.26-.64,2.93,2.93,0,0,1,0-2.73Zm.68,2.34a.64.64,0,0,0,.58.31.63.63,0,0,0,.57-.31,2.34,2.34,0,0,0,0-1.95.62.62,0,0,0-.57-.31.64.64,0,0,0-.58.31,2.39,2.39,0,0,0,0,1.95Z"/><path class="cls-14" d="M136,68.53V66h-.92v-.55a1,1,0,0,0,1-.72h.7v3.83Z"/><path class="cls-14" d="M140.25,65.45a1.64,1.64,0,0,0-.63-.14,1.2,1.2,0,0,0-1.27,1.1,1.08,1.08,0,0,1,.91-.42,1.23,1.23,0,0,1,1.32,1.29,1.38,1.38,0,0,1-1.48,1.34,1.57,1.57,0,0,1-1.55-1.76,2.06,2.06,0,0,1,2.12-2.25,1.67,1.67,0,0,1,.8.18Zm-1.16,2.48a.64.64,0,1,0-.67-.64A.65.65,0,0,0,139.09,67.94Z"/><path class="cls-10" d="M70.38,63.93S69.56,76,83.28,88.08"/><path class="cls-10" d="M146.26,46.47s4.51,14.77-1.89,28.22"/><path class="cls-15" d="M120.73,24.86a33.73,33.73,0,0,1,14.09,9.25"/><path class="cls-7" d="M264,33.25a1.68,1.68,0,1,1-1.68,1.7A1.68,1.68,0,0,1,264,33.25Zm-1.35,15V38.23h2.72V48.29Z"/><path class="cls-7" d="M271.26,42.83v5.46h-2.82V33.8h5.42a4.52,4.52,0,1,1,0,9Zm2.25-2.43a2.08,2.08,0,1,0,0-4.15h-2.23V40.4Z"/><path class="cls-7" d="M286.51,40.93a4.11,4.11,0,0,0-.82-.08c-1.39,0-2.6.67-2.6,2.84v4.6h-2.72V38.23H283v1.49a3,3,0,0,1,2.86-1.57,6.21,6.21,0,0,1,.63,0Z"/><path class="cls-7" d="M289.78,33.25a1.68,1.68,0,1,1-1.68,1.7A1.68,1.68,0,0,1,289.78,33.25Zm-1.35,15V38.23h2.72V48.29Z"/><path class="cls-7" d="M296,43.26a2.59,2.59,0,0,0,2.58,2.84,2.3,2.3,0,0,0,2.31-1.7l2.39.8a4.67,4.67,0,0,1-4.7,3.39,5.2,5.2,0,0,1-5.29-5.33,5.15,5.15,0,0,1,5.21-5.33,4.6,4.6,0,0,1,4.72,3.39l-2.43.82a2.19,2.19,0,0,0-2.23-1.7A2.56,2.56,0,0,0,296,43.26Z"/><path class="cls-7" d="M314.21,45.41a4.53,4.53,0,0,1-4.58,3.19,5.09,5.09,0,0,1-5.19-5.38,5,5,0,0,1,4.95-5.29c3.11,0,5,2,5,5.21,0,.39,0,.8,0,.84h-7.2a2.45,2.45,0,0,0,2.53,2.29,2.22,2.22,0,0,0,2.29-1.53Zm-2.53-3.29a2,2,0,0,0-2.25-2,2.18,2.18,0,0,0-2.25,2Z"/><path class="cls-7" d="M321.76,48.29V33.8h9.08v2.66h-6.25v3.31h5.66v2.51h-5.66v3.35h6.25v2.66Z"/><path class="cls-7" d="M332.88,43.43V41h5.93v2.41Z"/><path class="cls-7" d="M340.52,41.06a7.31,7.31,0,0,1,7.38-7.56c4,0,6.07,2.45,6.64,4.8l-2.66.84a3.79,3.79,0,0,0-4-2.92,4.46,4.46,0,0,0-4.46,4.84,4.47,4.47,0,0,0,4.5,4.78,4,4,0,0,0,4.07-3l2.64.8a6.59,6.59,0,0,1-6.7,4.93A7.24,7.24,0,0,1,340.52,41.06Z"/><path class="cls-7" d="M366.24,43.26A5.27,5.27,0,1,1,361,37.93,5.16,5.16,0,0,1,366.24,43.26Zm-2.72,0a2.57,2.57,0,1,0-5.11,0,2.57,2.57,0,1,0,5.11,0Z"/><path class="cls-7" d="M368.39,48.29V38.23H371v1.23a3.46,3.46,0,0,1,2.94-1.51,3.11,3.11,0,0,1,3,1.68,3.72,3.72,0,0,1,6.83,2.15v6.52H381.1v-6a1.68,1.68,0,0,0-1.78-1.9,1.85,1.85,0,0,0-1.86,2v5.89h-2.7v-6a1.69,1.69,0,0,0-1.78-1.9,1.84,1.84,0,0,0-1.88,2v5.89Z"/><path class="cls-7" d="M386.5,48.29V38.23h2.6v1.23A3.46,3.46,0,0,1,392,37.95a3.11,3.11,0,0,1,3,1.68,3.72,3.72,0,0,1,6.83,2.15v6.52h-2.64v-6a1.68,1.68,0,0,0-1.78-1.9,1.85,1.85,0,0,0-1.86,2v5.89h-2.7v-6a1.69,1.69,0,0,0-1.78-1.9,1.84,1.84,0,0,0-1.88,2v5.89Z"/><path class="cls-7" d="M413.63,45.41A4.53,4.53,0,0,1,409,48.6a5.09,5.09,0,0,1-5.19-5.38,5,5,0,0,1,4.95-5.29c3.11,0,5,2,5,5.21,0,.39,0,.8,0,.84h-7.2a2.45,2.45,0,0,0,2.53,2.29,2.22,2.22,0,0,0,2.29-1.53Zm-2.53-3.29a2,2,0,0,0-2.25-2,2.18,2.18,0,0,0-2.25,2Z"/><path class="cls-7" d="M422,40.93a4.11,4.11,0,0,0-.82-.08c-1.39,0-2.6.67-2.6,2.84v4.6h-2.72V38.23h2.64v1.49a3,3,0,0,1,2.86-1.57,6.21,6.21,0,0,1,.63,0Z"/><path class="cls-7" d="M425.83,43.26a2.59,2.59,0,0,0,2.58,2.84,2.3,2.3,0,0,0,2.31-1.7l2.39.8a4.67,4.67,0,0,1-4.7,3.39,5.2,5.2,0,0,1-5.29-5.33,5.15,5.15,0,0,1,5.21-5.33A4.6,4.6,0,0,1,433,41.32l-2.43.82a2.19,2.19,0,0,0-2.23-1.7A2.56,2.56,0,0,0,425.83,43.26Z"/><path class="cls-7" d="M444,45.41a4.53,4.53,0,0,1-4.58,3.19,5.09,5.09,0,0,1-5.19-5.38,5,5,0,0,1,4.95-5.29c3.11,0,5,2,5,5.21,0,.39,0,.8,0,.84h-7.2a2.45,2.45,0,0,0,2.53,2.29,2.22,2.22,0,0,0,2.29-1.53Zm-2.53-3.29a2,2,0,0,0-2.25-2,2.18,2.18,0,0,0-2.25,2Z"/><path class="cls-7" d="M276.21,68.27V58.11L272,68.27h-2.35l-4.17-10.08V68.27h-2.7V53.78h3.72l4.35,10.47,4.25-10.47H279V68.27Z"/><path class="cls-7" d="M291.05,65.39a4.53,4.53,0,0,1-4.58,3.19,5.34,5.34,0,0,1-.25-10.67c3.11,0,5,2,5,5.21,0,.39,0,.8,0,.84H284a2.45,2.45,0,0,0,2.53,2.29,2.22,2.22,0,0,0,2.29-1.53Zm-2.53-3.29a2,2,0,0,0-2.25-2,2.18,2.18,0,0,0-2.25,2Z"/><path class="cls-7" d="M299.47,60.91a4.09,4.09,0,0,0-.82-.08c-1.39,0-2.6.68-2.6,2.84v4.6h-2.72V58.21H296V59.7a3,3,0,0,1,2.86-1.57,6.32,6.32,0,0,1,.63,0Z"/><path class="cls-7" d="M303.26,63.24a2.59,2.59,0,0,0,2.58,2.84,2.3,2.3,0,0,0,2.31-1.7l2.39.8a4.67,4.67,0,0,1-4.7,3.39,5.2,5.2,0,0,1-5.29-5.33,5.15,5.15,0,0,1,5.21-5.33,4.6,4.6,0,0,1,4.72,3.39l-2.43.82a2.19,2.19,0,0,0-2.23-1.7A2.56,2.56,0,0,0,303.26,63.24Z"/><path class="cls-7" d="M315.26,68.27h-2.72V53.47h2.72v5.58a3.59,3.59,0,0,1,2.72-1.1c2.55,0,3.74,1.78,3.74,4v6.34H319V62.4a1.77,1.77,0,0,0-1.86-2,1.88,1.88,0,0,0-1.88,2Z"/><path class="cls-7" d="M326.87,62.48l2.47-.37c.57-.08.76-.37.76-.72,0-.72-.55-1.31-1.7-1.31a1.79,1.79,0,0,0-1.92,1.64l-2.41-.51c.16-1.57,1.61-3.31,4.31-3.31,3.19,0,4.37,1.8,4.37,3.82v4.95a11.29,11.29,0,0,0,.12,1.59h-2.49a6.8,6.8,0,0,1-.1-1.21,3.36,3.36,0,0,1-3,1.49,3.18,3.18,0,0,1-3.45-3C323.86,63.73,325.19,62.73,326.87,62.48Zm3.23,1.72v-.45l-2.27.35a1.27,1.27,0,0,0-1.25,1.27,1.18,1.18,0,0,0,1.31,1.16A2,2,0,0,0,330.1,64.2Z"/><path class="cls-7" d="M338.21,68.27h-2.72V58.21h2.64v1.25a3.34,3.34,0,0,1,2.9-1.51c2.49,0,3.64,1.78,3.64,4v6.34H342V62.4a1.77,1.77,0,0,0-1.86-2,1.89,1.89,0,0,0-1.88,2.08Z"/><path class="cls-7" d="M350.79,58.21h2v2.41h-2v4.21c0,.88.41,1.17,1.19,1.17a4,4,0,0,0,.84-.08v2.25a4,4,0,0,1-1.53.25,2.91,2.91,0,0,1-3.19-3.11V60.62h-1.82V58.21h.51a1.45,1.45,0,0,0,1.55-1.59V55.21h2.45Z"/><path class="cls-7" d="M271.45,84.94h-5.89l-1.21,3.31h-3l5.56-14.49h3.27l5.52,14.49h-3.07Zm-4.95-2.58h4l-2-5.48Z"/><path class="cls-7" d="M285.33,78.19l2.17,6.48,1.86-6.48h2.7L288.9,88.25h-2.72l-2.35-6.87-2.31,6.87h-2.76l-3.21-10.06h2.86l1.86,6.46,2.19-6.46Z"/><path class="cls-7" d="M296.1,82.46l2.47-.37c.57-.08.76-.37.76-.72,0-.72-.55-1.31-1.7-1.31a1.79,1.79,0,0,0-1.92,1.64l-2.41-.51c.16-1.57,1.61-3.31,4.31-3.31,3.19,0,4.37,1.8,4.37,3.82v4.95a11.31,11.31,0,0,0,.12,1.59h-2.49a6.8,6.8,0,0,1-.1-1.21,3.36,3.36,0,0,1-3,1.49,3.18,3.18,0,0,1-3.45-3C293.1,83.71,294.43,82.71,296.1,82.46Zm3.23,1.72v-.45l-2.27.35a1.27,1.27,0,0,0-1.25,1.27,1.18,1.18,0,0,0,1.31,1.17A2,2,0,0,0,299.33,84.18Z"/><path class="cls-7" d="M310.86,80.89a4.14,4.14,0,0,0-.82-.08c-1.39,0-2.6.67-2.6,2.84v4.6h-2.72V78.19h2.64v1.49a3,3,0,0,1,2.86-1.57,6.1,6.1,0,0,1,.63,0Z"/><path class="cls-7" d="M322.27,86.43c0,.67,0,1.41.08,1.82h-2.6a7,7,0,0,1-.1-1.17,3.15,3.15,0,0,1-2.82,1.41c-2.86,0-4.91-2.25-4.91-5.29s2-5.25,4.82-5.25c1.74,0,2.55.72,2.84,1.25V73.45h2.68Zm-5.11-.37c1.39,0,2.47-1.06,2.47-2.88a2.49,2.49,0,0,0-2.47-2.8,2.52,2.52,0,0,0-2.49,2.82C314.66,85,315.73,86.06,317.16,86.06Z"/><path class="cls-7" d="M326.68,84.94a1.67,1.67,0,0,0,1.84,1.53c.9,0,1.33-.47,1.33-1s-.31-.82-1.08-1l-1.33-.31c-1.94-.43-2.82-1.59-2.82-3a3.51,3.51,0,0,1,3.76-3.29c2.86,0,3.82,1.82,3.95,2.9l-2.27.51a1.53,1.53,0,0,0-1.66-1.35,1.16,1.16,0,0,0-1.29,1c0,.49.37.8.92.9l1.43.31c2,.41,3,1.61,3,3.09,0,1.64-1.27,3.31-3.9,3.31-3,0-4.07-2-4.19-3.11Z"/><path class="cls-7" d="M339.09,80a5,5,0,0,1-.1-.92c0-2.33,1.76-4.44,4.84-4.44s4.78,2,4.78,4.27A4.76,4.76,0,0,1,346,83.06l-2.56,1.55a2.7,2.7,0,0,0-1.14,1.21h6.36v2.43h-9.81A6.05,6.05,0,0,1,342,82.59l2.19-1.31A2.59,2.59,0,0,0,345.78,79a1.81,1.81,0,0,0-2-1.82,2,2,0,0,0-2.11,2.21,2.89,2.89,0,0,0,.1.74Z"/><path class="cls-7" d="M351.34,76.9a5,5,0,0,1,4.37-2.23,5,5,0,0,1,4.35,2.23,10,10,0,0,1,0,9.44,5,5,0,0,1-4.35,2.23,5,5,0,0,1-4.37-2.23,8.46,8.46,0,0,1-1.16-4.72A8.46,8.46,0,0,1,351.34,76.9ZM353.71,85a2.21,2.21,0,0,0,2,1.08,2.16,2.16,0,0,0,2-1.08,6.21,6.21,0,0,0,.74-3.37,6.21,6.21,0,0,0-.74-3.37,2.16,2.16,0,0,0-2-1.08,2.21,2.21,0,0,0-2,1.08,8.31,8.31,0,0,0,0,6.75Z"/><path class="cls-7" d="M365.69,88.25V79.38H362.5v-1.9A3.39,3.39,0,0,0,366.06,75h2.43V88.25Z"/><path class="cls-7" d="M380.41,77.58a5.66,5.66,0,0,0-2.19-.47,4.16,4.16,0,0,0-4.39,3.8A3.75,3.75,0,0,1,377,79.44a4.25,4.25,0,0,1,4.58,4.46c0,2.72-2.21,4.66-5.13,4.66S371,86.47,371,82.46c0-4.76,3-7.79,7.36-7.79a5.77,5.77,0,0,1,2.78.61Zm-4,8.61A2.22,2.22,0,1,0,374.07,84,2.24,2.24,0,0,0,376.4,86.18Z"/><path class="cls-5" d="M267.2,96v9.2H265V96h-3.57V93.91h9.34V96Z"/><path class="cls-5" d="M274.31,105.19H272.2V93.67h2.12V98a3,3,0,0,1,5,2.24v4.93h-2.12v-4.57a1.38,1.38,0,0,0-1.45-1.56,1.47,1.47,0,0,0-1.46,1.53Z"/><path class="cls-5" d="M283.36,100.69l1.93-.29c.45-.06.59-.29.59-.56,0-.56-.43-1-1.32-1a1.39,1.39,0,0,0-1.5,1.27l-1.88-.4a3.11,3.11,0,0,1,3.36-2.58c2.48,0,3.41,1.4,3.41,3V104a8.77,8.77,0,0,0,.1,1.24H286.1a5.31,5.31,0,0,1-.08-.94,2.62,2.62,0,0,1-2.31,1.16,2.47,2.47,0,0,1-2.69-2.36A2.41,2.41,0,0,1,283.36,100.69Zm2.51,1.34v-.35l-1.77.27a1,1,0,0,0-1,1,.92.92,0,0,0,1,.91A1.59,1.59,0,0,0,285.87,102Z"/><path class="cls-5" d="M291.13,93.48a1.31,1.31,0,1,1-1.31,1.32A1.3,1.3,0,0,1,291.13,93.48Zm-1.05,11.72V97.36h2.12v7.83Z"/><path class="cls-5" d="M294.45,105.19V93.67h2.12v11.52Z"/><path class="cls-5" d="M300.65,100.69l1.93-.29c.45-.06.59-.29.59-.56,0-.56-.43-1-1.32-1a1.39,1.39,0,0,0-1.5,1.27l-1.88-.4a3.11,3.11,0,0,1,3.36-2.58c2.48,0,3.41,1.4,3.41,3V104a8.77,8.77,0,0,0,.1,1.24h-1.94a5.31,5.31,0,0,1-.08-.94,2.62,2.62,0,0,1-2.31,1.16,2.47,2.47,0,0,1-2.69-2.36A2.41,2.41,0,0,1,300.65,100.69Zm2.51,1.34v-.35l-1.77.27a1,1,0,0,0-1,1,.92.92,0,0,0,1,.91A1.59,1.59,0,0,0,303.16,102Z"/><path class="cls-5" d="M309.48,105.19h-2.12V97.36h2.05v1a2.6,2.6,0,0,1,2.26-1.18c1.94,0,2.83,1.39,2.83,3.1v4.93H312.4v-4.57a1.38,1.38,0,0,0-1.45-1.56,1.47,1.47,0,0,0-1.46,1.62Z"/><path class="cls-5" d="M324.13,103.78c0,.53,0,1.1.06,1.42h-2a5.41,5.41,0,0,1-.08-.91,2.45,2.45,0,0,1-2.2,1.1,4.12,4.12,0,0,1-.06-8.21,2.34,2.34,0,0,1,2.21,1V93.67h2.09Zm-4-.29a2,2,0,0,0,1.93-2.24,1.94,1.94,0,0,0-1.93-2.18,2.23,2.23,0,0,0,0,4.43Z"/></svg>