<svg id="Layer_1" data-name="Layer 1" xmlns="http://www.w3.org/2000/svg" xmlns:xlink="http://www.w3.org/1999/xlink" viewBox="0 0 1160 73.7"><defs><style>.cls-1{fill:none;}.cls-2{fill:#f1f3f2;}.cls-3{clip-path:url(#clip-path);}.cls-4{fill:#fff;}.cls-5{fill:#f63;}.cls-6{fill:#3cc;}.cls-7{clip-path:url(#clip-path-2);}.cls-8{clip-path:url(#clip-path-3);}</style><clipPath id="clip-path"><rect class="cls-1" y="-0.04" width="1160.24" height="73.52"/></clipPath><clipPath id="clip-path-2"><rect class="cls-1" x="666.92" y="110.65" width="810.9" height="51.36"/></clipPath><clipPath id="clip-path-3"><rect class="cls-1" x="-22.22" y="-145.51" width="810.9" height="51.36"/></clipPath></defs><title>Artboard 68</title><rect class="cls-2" y="0.11" width="1161.06" height="73.5" transform="translate(-0.06 0.88) rotate(-0.09)"/><g class="cls-3"><circle class="cls-4" cx="58.05" cy="55.64" r="5.7"/><circle class="cls-5" cx="68.3" cy="71.39" r="5.7"/><circle class="cls-4" cx="94.44" cy="71.39" r="5.7"/><circle class="cls-4" cx="113.87" cy="48.87" r="5.7"/><path class="cls-6" d="M-16.14,112.83V54H20.68V64.81H-4.7V78.24h23v10.2h-23V102H20.68v10.78Z"/><polygon class="cls-6" points="21.06 24.66 10.43 15.35 -0.2 24.77 -0.2 -0.04 20.98 -0.04 21.06 24.66"/><path class="cls-4" d="M34.45,40.07a4.57,4.57,0,1,1-4.63-4.57A4.57,4.57,0,0,1,34.45,40.07ZM-6.61,36.38H20.84V43.8H-6.61Z"/><rect class="cls-1" x="118.52" y="1.16" width="285.94" height="237.78"/><rect class="cls-5" x="1141.19" y="-11.28" width="8.48" height="65.73" transform="translate(1167.01 -1123.85) rotate(90)"/><rect class="cls-5" x="1146.53" y="10.44" width="8.48" height="55.06" transform="translate(1188.73 -1112.8) rotate(90)"/><rect class="cls-5" x="1146.53" y="26.82" width="8.48" height="55.06" transform="translate(1205.12 -1096.42) rotate(90)"/><circle class="cls-4" cx="1075" cy="18.42" r="5.41"/><circle class="cls-5" cx="1084.73" cy="33.37" r="5.41"/><circle class="cls-4" cx="1109.53" cy="45.16" r="5.41"/><circle class="cls-4" cx="1127.97" cy="12" r="5.41"/><path class="cls-6" d="M1117.6,45.38h-23.46l-4.81,13.2h-11.89L1099.59.82h13l22,57.76H1122.4Zm-19.72-10.27h16l-8-21.83Z"/></g><g class="cls-7"><path class="cls-5" d="M772.89,100.12V72.74l-11.24,27.38h-6.34L744.07,73v27.16H736.8V61.06h10l11.74,28.21L770,61.06h10.36v39.06Z"/></g><g class="cls-8"><rect class="cls-1" x="60.94" y="-144.68" width="199.76" height="166.11"/></g><path class="cls-5" d="M254.59,42.19h-2.72V31.61h-3.49V29.34h9.7v2.27h-3.49Z"/><path class="cls-5" d="M263.68,42.37A5.07,5.07,0,0,1,260,41.06a5,5,0,0,1-1.34-3.71,5.45,5.45,0,0,1,1.23-3.82,4.4,4.4,0,0,1,3.42-1.35,4.33,4.33,0,0,1,3.24,1.19,4.49,4.49,0,0,1,1.16,3.28v1.3h-6.34a2.58,2.58,0,0,0,.68,1.78,2.38,2.38,0,0,0,1.78.64,7.37,7.37,0,0,0,1.68-.18,8.4,8.4,0,0,0,1.65-.59v2.07a6.29,6.29,0,0,1-1.5.52A9.48,9.48,0,0,1,263.68,42.37Zm-.38-8.28a1.7,1.7,0,0,0-1.34.54,2.5,2.5,0,0,0-.55,1.53h3.76a2.23,2.23,0,0,0-.52-1.53A1.76,1.76,0,0,0,263.3,34.09Z"/><path class="cls-5" d="M278.67,42.19H276V36.45a2.9,2.9,0,0,0-.36-1.6,1.25,1.25,0,0,0-1.12-.53,1.62,1.62,0,0,0-1.49.76,5,5,0,0,0-.47,2.49v4.62h-2.68V32.37h2l.36,1.26h.15a2.72,2.72,0,0,1,1.14-1.06,3.71,3.71,0,0,1,1.71-.38,3.09,3.09,0,0,1,3,1.44h.24a2.65,2.65,0,0,1,1.17-1.06,3.88,3.88,0,0,1,1.74-.38,3.42,3.42,0,0,1,2.53.86,3.76,3.76,0,0,1,.86,2.75v6.41H282.1V36.45a2.9,2.9,0,0,0-.36-1.6,1.25,1.25,0,0,0-1.12-.53,1.67,1.67,0,0,0-1.47.7,4,4,0,0,0-.49,2.23Z"/><path class="cls-5" d="M294.5,42.19l-.36-1.26H294A2.83,2.83,0,0,1,292.78,42a4.17,4.17,0,0,1-1.8.37,3.43,3.43,0,0,1-2.61-.93,3.73,3.73,0,0,1-.88-2.67V32.37h2.68v5.74a2.76,2.76,0,0,0,.38,1.6,1.38,1.38,0,0,0,1.2.53,1.81,1.81,0,0,0,1.63-.75,4.66,4.66,0,0,0,.5-2.49V32.37h2.68v9.83Z"/><path class="cls-5" d="M301.95,36.85l1.17-1.49,2.75-3h3L305,36.63l4.14,5.56H306l-2.83-4-1.15.92v3.06h-2.68V28.52h2.68v6.1l-.14,2.23Z"/><path class="cls-5" d="M316.78,42.19l-.52-1.34h-.07A4,4,0,0,1,314.79,42a4.5,4.5,0,0,1-1.87.33,3,3,0,0,1-2.23-.81,3.11,3.11,0,0,1-.81-2.3A2.59,2.59,0,0,1,311,36.95a6.35,6.35,0,0,1,3.3-.82l1.71-.05v-.43a1.34,1.34,0,0,0-1.53-1.49,7,7,0,0,0-2.77.71l-.89-1.81a8,8,0,0,1,3.76-.89,4.69,4.69,0,0,1,3,.86,3.18,3.18,0,0,1,1.05,2.62v6.55ZM316,37.64l-1,0a3.32,3.32,0,0,0-1.74.42,1.33,1.33,0,0,0-.57,1.18q0,1.13,1.3,1.13a2.06,2.06,0,0,0,1.49-.54,1.88,1.88,0,0,0,.56-1.42Z"/><path class="cls-5" d="M330.48,42.19H327.8V36.45a2.76,2.76,0,0,0-.38-1.6,1.38,1.38,0,0,0-1.2-.53,1.81,1.81,0,0,0-1.63.75,4.66,4.66,0,0,0-.5,2.49v4.62h-2.68V32.37h2l.36,1.26H324a2.83,2.83,0,0,1,1.24-1.08,4.2,4.2,0,0,1,1.79-.36,3.44,3.44,0,0,1,2.6.93,3.72,3.72,0,0,1,.89,2.68Z"/><path class="cls-5" d="M340.59,42.19h-2.68V28.52h2.68Z"/><path class="cls-5" d="M347.85,42.37a5.07,5.07,0,0,1-3.71-1.31,5,5,0,0,1-1.34-3.71A5.45,5.45,0,0,1,344,33.53a4.4,4.4,0,0,1,3.42-1.35,4.33,4.33,0,0,1,3.24,1.19,4.49,4.49,0,0,1,1.16,3.28v1.3h-6.34a2.58,2.58,0,0,0,.68,1.78,2.38,2.38,0,0,0,1.78.64,7.37,7.37,0,0,0,1.68-.18,8.4,8.4,0,0,0,1.65-.59v2.07a6.29,6.29,0,0,1-1.5.52A9.48,9.48,0,0,1,347.85,42.37Zm-.38-8.28a1.7,1.7,0,0,0-1.34.54,2.5,2.5,0,0,0-.55,1.53h3.76a2.23,2.23,0,0,0-.52-1.53A1.76,1.76,0,0,0,347.48,34.09Z"/><path class="cls-5" d="M359.51,32.18a3.18,3.18,0,0,1,2.72,1.36,6.23,6.23,0,0,1,1,3.72,6.11,6.11,0,0,1-1,3.77,3.54,3.54,0,0,1-5.48.08h-.18l-.45,1.08h-2V28.52h2.68V31.7q0,.61-.11,1.94h.11A3.1,3.1,0,0,1,359.51,32.18Zm-.86,2.14a1.69,1.69,0,0,0-1.45.61,3.51,3.51,0,0,0-.47,2v.29a4.14,4.14,0,0,0,.47,2.27,1.68,1.68,0,0,0,1.49.69,1.5,1.5,0,0,0,1.31-.76,4.12,4.12,0,0,0,.49-2.21,3.9,3.9,0,0,0-.49-2.18A1.54,1.54,0,0,0,358.65,34.33Z"/><path class="cls-5" d="M365.32,29.83q0-1.31,1.46-1.31t1.46,1.31a1.28,1.28,0,0,1-.36,1,1.54,1.54,0,0,1-1.09.35Q365.32,31.14,365.32,29.83Zm2.79,12.37h-2.68V32.37h2.68Z"/><path class="cls-5" d="M380,42.19h-2.68V36.45q0-2.13-1.58-2.13a1.8,1.8,0,0,0-1.63.76,4.67,4.67,0,0,0-.5,2.48v4.62h-2.68V28.52h2.68V31.3q0,.33-.06,1.53l-.06.79h.14a3.11,3.11,0,0,1,2.85-1.44,3.48,3.48,0,0,1,2.63.93,3.7,3.7,0,0,1,.9,2.67Z"/><path class="cls-5" d="M392.9,32.18a3.18,3.18,0,0,1,2.72,1.36,6.23,6.23,0,0,1,1,3.72,6.11,6.11,0,0,1-1,3.77,3.54,3.54,0,0,1-5.48.08h-.18l-.45,1.08h-2V28.52h2.68V31.7q0,.61-.11,1.94h.11A3.1,3.1,0,0,1,392.9,32.18ZM392,34.33a1.69,1.69,0,0,0-1.45.61,3.51,3.51,0,0,0-.47,2v.29a4.14,4.14,0,0,0,.47,2.27,1.68,1.68,0,0,0,1.49.69,1.5,1.5,0,0,0,1.31-.76,4.12,4.12,0,0,0,.49-2.21,3.9,3.9,0,0,0-.49-2.18A1.54,1.54,0,0,0,392,34.33Z"/><path class="cls-5" d="M405.06,42.19l-.52-1.34h-.07A4,4,0,0,1,403.08,42a4.5,4.5,0,0,1-1.87.33,3,3,0,0,1-2.23-.81,3.11,3.11,0,0,1-.81-2.3,2.59,2.59,0,0,1,1.09-2.31,6.35,6.35,0,0,1,3.3-.82l1.71-.05v-.43a1.34,1.34,0,0,0-1.53-1.49,7,7,0,0,0-2.77.71l-.89-1.81a8,8,0,0,1,3.76-.89,4.69,4.69,0,0,1,3,.86,3.18,3.18,0,0,1,1.05,2.62v6.55Zm-.79-4.55-1,0a3.32,3.32,0,0,0-1.74.42,1.33,1.33,0,0,0-.57,1.18q0,1.13,1.3,1.13a2.06,2.06,0,0,0,1.49-.54,1.88,1.88,0,0,0,.56-1.42Z"/><path class="cls-5" d="M418.76,42.19h-2.68V36.45a2.76,2.76,0,0,0-.38-1.6,1.38,1.38,0,0,0-1.2-.53,1.81,1.81,0,0,0-1.63.75,4.66,4.66,0,0,0-.5,2.49v4.62h-2.68V32.37h2l.36,1.26h.15a2.83,2.83,0,0,1,1.24-1.08,4.2,4.2,0,0,1,1.79-.36,3.44,3.44,0,0,1,2.6.93,3.72,3.72,0,0,1,.89,2.68Z"/><path class="cls-5" d="M420.12,32.37h2.94l1.85,5.53a7.67,7.67,0,0,1,.33,1.71h.05a7.53,7.53,0,0,1,.38-1.71l1.82-5.53h2.87L426.2,43.45a4.8,4.8,0,0,1-1.63,2.3,4.11,4.11,0,0,1-2.47.76,6.22,6.22,0,0,1-1.36-.15V44.24a4.58,4.58,0,0,0,1.05.11,1.91,1.91,0,0,0,1.24-.44,2.83,2.83,0,0,0,.83-1.31l.16-.48Z"/><path class="cls-5" d="M438,42.19l-.52-1.34h-.07A4,4,0,0,1,436,42a4.5,4.5,0,0,1-1.87.33,3,3,0,0,1-2.23-.81,3.11,3.11,0,0,1-.81-2.3,2.59,2.59,0,0,1,1.09-2.31,6.35,6.35,0,0,1,3.3-.82l1.71-.05v-.43a1.34,1.34,0,0,0-1.53-1.49,7,7,0,0,0-2.77.71L432,33.05a8,8,0,0,1,3.76-.89,4.69,4.69,0,0,1,3,.86,3.18,3.18,0,0,1,1.05,2.62v6.55Zm-.79-4.55-1,0a3.32,3.32,0,0,0-1.74.42,1.33,1.33,0,0,0-.57,1.18q0,1.13,1.3,1.13a2.06,2.06,0,0,0,1.49-.54,1.88,1.88,0,0,0,.56-1.42Z"/><path class="cls-5" d="M445.21,36.85l1.17-1.49,2.75-3h3l-3.9,4.26,4.14,5.56H449.3l-2.83-4-1.15.92v3.06h-2.68V28.52h2.68v6.1l-.14,2.23Z"/><path class="cls-5" d="M461.15,42.19h-2.68V28.52h2.68Z"/><path class="cls-5" d="M470.21,42.19l-.52-1.34h-.07A4,4,0,0,1,468.22,42a4.5,4.5,0,0,1-1.87.33,3,3,0,0,1-2.23-.81,3.11,3.11,0,0,1-.81-2.3,2.59,2.59,0,0,1,1.09-2.31,6.35,6.35,0,0,1,3.3-.82l1.71-.05v-.43a1.34,1.34,0,0,0-1.53-1.49,7,7,0,0,0-2.77.71l-.89-1.81a8,8,0,0,1,3.76-.89,4.69,4.69,0,0,1,3,.86,3.18,3.18,0,0,1,1.05,2.62v6.55Zm-.79-4.55-1,0a3.32,3.32,0,0,0-1.74.42,1.33,1.33,0,0,0-.57,1.18q0,1.13,1.3,1.13a2.06,2.06,0,0,0,1.49-.54,1.88,1.88,0,0,0,.56-1.42Z"/><path class="cls-5" d="M483.43,42.21a4.07,4.07,0,0,1-1.24,3.21,5.4,5.4,0,0,1-3.68,1.09,10.33,10.33,0,0,1-3.67-.58V43.79a9.72,9.72,0,0,0,3.83.76q2.07,0,2.07-2.23v-.19l.08-1.2h-.08A3.11,3.11,0,0,1,478,42.37,3.17,3.17,0,0,1,475.21,41a6.28,6.28,0,0,1-1-3.71,6.19,6.19,0,0,1,1-3.77A3.27,3.27,0,0,1,478,32.18a3.32,3.32,0,0,1,2.85,1.44h.07l.22-1.26h2.27Zm-4.52-1.94a1.81,1.81,0,0,0,1.55-.62,3.39,3.39,0,0,0,.47-2v-.33a4,4,0,0,0-.49-2.26,1.79,1.79,0,0,0-1.57-.69q-1.89,0-1.89,3a4.13,4.13,0,0,0,.47,2.21A1.62,1.62,0,0,0,478.91,40.27Z"/><path class="cls-5" d="M486.12,29.83q0-1.31,1.46-1.31T489,29.83a1.28,1.28,0,0,1-.36,1,1.54,1.54,0,0,1-1.09.35Q486.12,31.14,486.12,29.83Zm2.79,12.37h-2.68V32.37h2.68Z"/><path class="cls-5" d="M505.2,42.19h-2.68V36.45a2.9,2.9,0,0,0-.36-1.6,1.25,1.25,0,0,0-1.12-.53,1.62,1.62,0,0,0-1.49.76,5,5,0,0,0-.47,2.49v4.62H496.4V32.37h2l.36,1.26H499a2.72,2.72,0,0,1,1.14-1.06,3.71,3.71,0,0,1,1.71-.38,3.09,3.09,0,0,1,3,1.44H505a2.65,2.65,0,0,1,1.17-1.06,3.88,3.88,0,0,1,1.74-.38,3.42,3.42,0,0,1,2.53.86,3.76,3.76,0,0,1,.86,2.75v6.41h-2.69V36.45a2.9,2.9,0,0,0-.36-1.6,1.25,1.25,0,0,0-1.12-.53,1.67,1.67,0,0,0-1.47.7,4,4,0,0,0-.49,2.23Z"/><path class="cls-5" d="M518.52,42.37a5.07,5.07,0,0,1-3.71-1.31,5,5,0,0,1-1.34-3.71,5.45,5.45,0,0,1,1.23-3.82,4.4,4.4,0,0,1,3.42-1.35,4.33,4.33,0,0,1,3.24,1.19,4.49,4.49,0,0,1,1.16,3.28v1.3h-6.34a2.58,2.58,0,0,0,.68,1.78,2.38,2.38,0,0,0,1.78.64,7.37,7.37,0,0,0,1.68-.18A8.4,8.4,0,0,0,522,39.6v2.07a6.29,6.29,0,0,1-1.5.52A9.48,9.48,0,0,1,518.52,42.37Zm-.38-8.28a1.7,1.7,0,0,0-1.34.54,2.5,2.5,0,0,0-.55,1.53H520a2.23,2.23,0,0,0-.52-1.53A1.76,1.76,0,0,0,518.14,34.09Z"/><path class="cls-5" d="M533.78,42.19H531.1V36.45a2.76,2.76,0,0,0-.38-1.6,1.38,1.38,0,0,0-1.2-.53,1.81,1.81,0,0,0-1.63.75,4.66,4.66,0,0,0-.5,2.49v4.62h-2.68V32.37h2l.36,1.26h.15a2.83,2.83,0,0,1,1.24-1.08,4.2,4.2,0,0,1,1.79-.36,3.44,3.44,0,0,1,2.6.93,3.72,3.72,0,0,1,.89,2.68Z"/><path class="cls-5" d="M545.12,42.21a4.07,4.07,0,0,1-1.24,3.21,5.4,5.4,0,0,1-3.68,1.09,10.33,10.33,0,0,1-3.67-.58V43.79a9.72,9.72,0,0,0,3.83.76q2.07,0,2.07-2.23v-.19l.08-1.2h-.08a3.11,3.11,0,0,1-2.79,1.45A3.17,3.17,0,0,1,536.91,41a6.28,6.28,0,0,1-1-3.71,6.19,6.19,0,0,1,1-3.77,3.27,3.27,0,0,1,2.77-1.35,3.32,3.32,0,0,1,2.85,1.44h.07l.22-1.26h2.27Zm-4.52-1.94a1.81,1.81,0,0,0,1.55-.62,3.39,3.39,0,0,0,.47-2v-.33a4,4,0,0,0-.49-2.26,1.79,1.79,0,0,0-1.57-.69q-1.89,0-1.89,3a4.13,4.13,0,0,0,.47,2.21A1.62,1.62,0,0,0,540.61,40.27Z"/><path class="cls-5" d="M552.38,42.37a5.07,5.07,0,0,1-3.71-1.31,5,5,0,0,1-1.34-3.71,5.45,5.45,0,0,1,1.23-3.82A4.4,4.4,0,0,1,552,32.18a4.33,4.33,0,0,1,3.24,1.19,4.49,4.49,0,0,1,1.16,3.28v1.3H550a2.58,2.58,0,0,0,.68,1.78,2.38,2.38,0,0,0,1.78.64,7.37,7.37,0,0,0,1.68-.18,8.4,8.4,0,0,0,1.65-.59v2.07a6.29,6.29,0,0,1-1.5.52A9.48,9.48,0,0,1,552.38,42.37ZM552,34.09a1.7,1.7,0,0,0-1.34.54,2.5,2.5,0,0,0-.55,1.53h3.76a2.23,2.23,0,0,0-.52-1.53A1.76,1.76,0,0,0,552,34.09Z"/><path class="cls-5" d="M567.63,42.19H565V36.45a2.76,2.76,0,0,0-.38-1.6,1.38,1.38,0,0,0-1.2-.53,1.81,1.81,0,0,0-1.63.75,4.66,4.66,0,0,0-.5,2.49v4.62h-2.68V32.37h2l.36,1.26h.15a2.83,2.83,0,0,1,1.24-1.08,4.2,4.2,0,0,1,1.79-.36,3.44,3.44,0,0,1,2.6.93,3.72,3.72,0,0,1,.89,2.68Z"/><path class="cls-5" d="M576.63,42.19l-.52-1.34H576A4,4,0,0,1,574.65,42a4.5,4.5,0,0,1-1.87.33,3,3,0,0,1-2.23-.81,3.11,3.11,0,0,1-.81-2.3,2.59,2.59,0,0,1,1.09-2.31,6.35,6.35,0,0,1,3.3-.82l1.71-.05v-.43a1.34,1.34,0,0,0-1.53-1.49,7,7,0,0,0-2.77.71l-.89-1.81a8,8,0,0,1,3.76-.89,4.69,4.69,0,0,1,3,.86,3.18,3.18,0,0,1,1.05,2.62v6.55Zm-.79-4.55-1,0a3.32,3.32,0,0,0-1.74.42,1.33,1.33,0,0,0-.57,1.18q0,1.13,1.3,1.13a2.06,2.06,0,0,0,1.49-.54,1.88,1.88,0,0,0,.56-1.42Z"/><path class="cls-5" d="M581.15,29.83q0-1.31,1.46-1.31t1.46,1.31a1.28,1.28,0,0,1-.36,1,1.54,1.54,0,0,1-1.09.35Q581.15,31.14,581.15,29.83Zm2.79,12.37h-2.68V32.37h2.68Z"/><path class="cls-5" d="M591.32,29.83q0-1.31,1.46-1.31t1.46,1.31a1.28,1.28,0,0,1-.36,1,1.54,1.54,0,0,1-1.09.35Q591.32,31.14,591.32,29.83Zm2.79,12.37h-2.68V32.37h2.68Z"/><path class="cls-5" d="M606,33.35a3.93,3.93,0,0,1-1.3,3.17,5.54,5.54,0,0,1-3.69,1.1h-1.17v4.57h-2.72V29.34h4.1a5.46,5.46,0,0,1,3.56,1A3.67,3.67,0,0,1,606,33.35Zm-6.15,2h.9a3,3,0,0,0,1.88-.5,1.74,1.74,0,0,0,.62-1.45,1.79,1.79,0,0,0-.52-1.42,2.45,2.45,0,0,0-1.64-.46h-1.24Z"/><path class="cls-5" d="M613.71,32.18a4.32,4.32,0,0,1,.91.08l-.2,2.51a3.07,3.07,0,0,0-.79-.09,2.84,2.84,0,0,0-2,.66,2.38,2.38,0,0,0-.72,1.85v5h-2.68V32.37h2l.4,1.65h.13A3.69,3.69,0,0,1,612,32.69,3,3,0,0,1,613.71,32.18Z"/><path class="cls-5" d="M616.29,29.83q0-1.31,1.46-1.31t1.46,1.31a1.28,1.28,0,0,1-.36,1,1.54,1.54,0,0,1-1.09.35Q616.29,31.14,616.29,29.83Zm2.79,12.37H616.4V32.37h2.68Z"/><path class="cls-5" d="M625.89,42.37q-4.59,0-4.59-5a5.37,5.37,0,0,1,1.25-3.83,4.68,4.68,0,0,1,3.58-1.32,6.82,6.82,0,0,1,3.06.67l-.79,2.07q-.63-.25-1.18-.42a3.79,3.79,0,0,0-1.09-.16q-2.09,0-2.09,3t2.09,2.88a4.77,4.77,0,0,0,1.43-.21,5.17,5.17,0,0,0,1.32-.65v2.29a4.32,4.32,0,0,1-1.31.57A7.38,7.38,0,0,1,625.89,42.37Z"/><path class="cls-5" d="M635.6,42.37a5.07,5.07,0,0,1-3.71-1.31,5,5,0,0,1-1.34-3.71,5.45,5.45,0,0,1,1.23-3.82,4.4,4.4,0,0,1,3.42-1.35,4.33,4.33,0,0,1,3.24,1.19,4.49,4.49,0,0,1,1.16,3.28v1.3h-6.34a2.58,2.58,0,0,0,.68,1.78,2.38,2.38,0,0,0,1.78.64,7.37,7.37,0,0,0,1.68-.18,8.4,8.4,0,0,0,1.65-.59v2.07a6.29,6.29,0,0,1-1.5.52A9.48,9.48,0,0,1,635.6,42.37Zm-.38-8.28a1.7,1.7,0,0,0-1.34.54,2.5,2.5,0,0,0-.55,1.53h3.76a2.23,2.23,0,0,0-.52-1.53A1.76,1.76,0,0,0,635.22,34.09Z"/><path class="cls-5" d="M654.07,42.19h-7.4V29.34h7.4v2.23H649.4V34.4h4.35v2.23H649.4v3.31h4.68Z"/><path class="cls-5" d="M655.67,38.47v-2.2h4.72v2.2Z"/><path class="cls-5" d="M668,31.43a2.78,2.78,0,0,0-2.38,1.16,5.38,5.38,0,0,0-.84,3.22q0,4.3,3.23,4.3a10.2,10.2,0,0,0,3.28-.68v2.29a9.1,9.1,0,0,1-3.53.66,5.39,5.39,0,0,1-4.29-1.7A7.2,7.2,0,0,1,662,35.79a8,8,0,0,1,.73-3.51A5.27,5.27,0,0,1,664.8,30a6.2,6.2,0,0,1,3.2-.8,8.65,8.65,0,0,1,3.76.91l-.88,2.21a14.55,14.55,0,0,0-1.45-.6A4.33,4.33,0,0,0,668,31.43Z"/><path class="cls-5" d="M682.74,37.26A5.28,5.28,0,0,1,681.47,41a4.59,4.59,0,0,1-3.52,1.35,4.93,4.93,0,0,1-2.5-.62A4.12,4.12,0,0,1,673.79,40a6,6,0,0,1-.58-2.71,5.25,5.25,0,0,1,1.26-3.74A4.62,4.62,0,0,1,678,32.18a5,5,0,0,1,2.5.62,4.11,4.11,0,0,1,1.66,1.77A5.93,5.93,0,0,1,682.74,37.26Zm-6.79,0a4.11,4.11,0,0,0,.48,2.21,1.71,1.71,0,0,0,1.56.75,1.68,1.68,0,0,0,1.54-.74,4.18,4.18,0,0,0,.47-2.21,4.06,4.06,0,0,0-.47-2.19,2,2,0,0,0-3.1,0A4.06,4.06,0,0,0,675.94,37.26Z"/><path class="cls-5" d="M693.75,42.19h-2.68V36.45a2.9,2.9,0,0,0-.36-1.6,1.25,1.25,0,0,0-1.12-.53,1.62,1.62,0,0,0-1.49.76,5,5,0,0,0-.47,2.49v4.62H685V32.37h2l.36,1.26h.15a2.72,2.72,0,0,1,1.14-1.06,3.71,3.71,0,0,1,1.71-.38,3.09,3.09,0,0,1,3,1.44h.24a2.65,2.65,0,0,1,1.17-1.06,3.88,3.88,0,0,1,1.74-.38A3.42,3.42,0,0,1,699,33a3.76,3.76,0,0,1,.86,2.75v6.41h-2.69V36.45a2.9,2.9,0,0,0-.36-1.6,1.25,1.25,0,0,0-1.12-.53,1.67,1.67,0,0,0-1.47.7,4,4,0,0,0-.49,2.23Z"/><path class="cls-5" d="M711.42,42.19h-2.68V36.45a2.9,2.9,0,0,0-.36-1.6,1.25,1.25,0,0,0-1.12-.53,1.62,1.62,0,0,0-1.49.76,5,5,0,0,0-.47,2.49v4.62h-2.68V32.37h2l.36,1.26h.15a2.72,2.72,0,0,1,1.14-1.06,3.71,3.71,0,0,1,1.71-.38,3.09,3.09,0,0,1,3,1.44h.24a2.65,2.65,0,0,1,1.17-1.06,3.88,3.88,0,0,1,1.74-.38,3.42,3.42,0,0,1,2.53.86,3.76,3.76,0,0,1,.86,2.75v6.41h-2.69V36.45a2.9,2.9,0,0,0-.36-1.6,1.25,1.25,0,0,0-1.12-.53,1.67,1.67,0,0,0-1.47.7,4,4,0,0,0-.49,2.23Z"/><path class="cls-5" d="M724.75,42.37A5.07,5.07,0,0,1,721,41.06a5,5,0,0,1-1.34-3.71,5.45,5.45,0,0,1,1.23-3.82,4.4,4.4,0,0,1,3.42-1.35,4.33,4.33,0,0,1,3.24,1.19,4.49,4.49,0,0,1,1.16,3.28v1.3h-6.34a2.58,2.58,0,0,0,.68,1.78,2.38,2.38,0,0,0,1.78.64,7.37,7.37,0,0,0,1.68-.18,8.4,8.4,0,0,0,1.65-.59v2.07a6.29,6.29,0,0,1-1.5.52A9.48,9.48,0,0,1,724.75,42.37Zm-.38-8.28a1.7,1.7,0,0,0-1.34.54,2.5,2.5,0,0,0-.55,1.53h3.76a2.23,2.23,0,0,0-.52-1.53A1.76,1.76,0,0,0,724.37,34.09Z"/><path class="cls-5" d="M736.42,32.18a4.32,4.32,0,0,1,.91.08l-.2,2.51a3.07,3.07,0,0,0-.79-.09,2.84,2.84,0,0,0-2,.66,2.38,2.38,0,0,0-.72,1.85v5h-2.68V32.37h2l.4,1.65h.13a3.69,3.69,0,0,1,1.24-1.33A3,3,0,0,1,736.42,32.18Z"/><path class="cls-5" d="M742.92,42.37q-4.59,0-4.59-5a5.37,5.37,0,0,1,1.25-3.83,4.68,4.68,0,0,1,3.58-1.32,6.82,6.82,0,0,1,3.06.67l-.79,2.07q-.63-.25-1.18-.42a3.79,3.79,0,0,0-1.09-.16q-2.09,0-2.09,3t2.09,2.88a4.77,4.77,0,0,0,1.43-.21,5.17,5.17,0,0,0,1.32-.65v2.29a4.32,4.32,0,0,1-1.31.57A7.38,7.38,0,0,1,742.92,42.37Z"/><path class="cls-5" d="M752.63,42.37a5.07,5.07,0,0,1-3.71-1.31,5,5,0,0,1-1.34-3.71,5.45,5.45,0,0,1,1.23-3.82,4.4,4.4,0,0,1,3.42-1.35,4.33,4.33,0,0,1,3.24,1.19,4.49,4.49,0,0,1,1.16,3.28v1.3h-6.34a2.58,2.58,0,0,0,.68,1.78,2.38,2.38,0,0,0,1.78.64,7.37,7.37,0,0,0,1.68-.18,8.4,8.4,0,0,0,1.65-.59v2.07a6.29,6.29,0,0,1-1.5.52A9.48,9.48,0,0,1,752.63,42.37Zm-.38-8.28a1.7,1.7,0,0,0-1.34.54,2.5,2.5,0,0,0-.55,1.53h3.76a2.23,2.23,0,0,0-.52-1.53A1.76,1.76,0,0,0,752.26,34.09Z"/><path class="cls-5" d="M769.15,42.19l-3.09-10.08H766q.17,3.08.17,4.1v6h-2.43V29.34h3.71l3,9.83h.05l3.23-9.83h3.71V42.19h-2.54V36.11c0-.29,0-.62,0-1s0-1.37.12-3H775l-3.31,10.06Z"/><path class="cls-5" d="M784.92,42.37a5.07,5.07,0,0,1-3.71-1.31,5,5,0,0,1-1.34-3.71,5.45,5.45,0,0,1,1.23-3.82,4.4,4.4,0,0,1,3.42-1.35,4.33,4.33,0,0,1,3.24,1.19,4.49,4.49,0,0,1,1.16,3.28v1.3h-6.34a2.58,2.58,0,0,0,.68,1.78,2.38,2.38,0,0,0,1.78.64,7.37,7.37,0,0,0,1.68-.18,8.4,8.4,0,0,0,1.65-.59v2.07a6.29,6.29,0,0,1-1.5.52A9.48,9.48,0,0,1,784.92,42.37Zm-.38-8.28a1.7,1.7,0,0,0-1.34.54,2.5,2.5,0,0,0-.55,1.53h3.76a2.23,2.23,0,0,0-.52-1.53A1.76,1.76,0,0,0,784.54,34.09Z"/><path class="cls-5" d="M796.59,32.18a4.32,4.32,0,0,1,.91.08l-.2,2.51a3.07,3.07,0,0,0-.79-.09,2.84,2.84,0,0,0-2,.66,2.38,2.38,0,0,0-.72,1.85v5H791.1V32.37h2l.4,1.65h.13a3.69,3.69,0,0,1,1.24-1.33A3,3,0,0,1,796.59,32.18Z"/><path class="cls-5" d="M803.09,42.37q-4.59,0-4.59-5a5.37,5.37,0,0,1,1.25-3.83,4.68,4.68,0,0,1,3.58-1.32,6.82,6.82,0,0,1,3.06.67l-.79,2.07q-.63-.25-1.18-.42a3.79,3.79,0,0,0-1.09-.16q-2.09,0-2.09,3t2.09,2.88a4.77,4.77,0,0,0,1.43-.21,5.17,5.17,0,0,0,1.32-.65v2.29a4.32,4.32,0,0,1-1.31.57A7.38,7.38,0,0,1,803.09,42.37Z"/><path class="cls-5" d="M817.43,42.19h-2.68V36.45q0-2.13-1.58-2.13a1.8,1.8,0,0,0-1.63.76,4.67,4.67,0,0,0-.5,2.48v4.62h-2.68V28.52H811V31.3q0,.33-.06,1.53l-.06.79h.14a3.11,3.11,0,0,1,2.85-1.44,3.48,3.48,0,0,1,2.63.93,3.7,3.7,0,0,1,.9,2.67Z"/><path class="cls-5" d="M826.43,42.19l-.52-1.34h-.07A4,4,0,0,1,824.45,42a4.5,4.5,0,0,1-1.87.33,3,3,0,0,1-2.23-.81,3.11,3.11,0,0,1-.81-2.3,2.59,2.59,0,0,1,1.09-2.31,6.35,6.35,0,0,1,3.3-.82l1.71-.05v-.43a1.34,1.34,0,0,0-1.53-1.49,7,7,0,0,0-2.77.71l-.89-1.81a8,8,0,0,1,3.76-.89,4.69,4.69,0,0,1,3,.86,3.18,3.18,0,0,1,1.05,2.62v6.55Zm-.79-4.55-1,0a3.32,3.32,0,0,0-1.74.42,1.33,1.33,0,0,0-.57,1.18q0,1.13,1.3,1.13a2.06,2.06,0,0,0,1.49-.54,1.88,1.88,0,0,0,.56-1.42Z"/><path class="cls-5" d="M840.13,42.19h-2.68V36.45a2.76,2.76,0,0,0-.38-1.6,1.38,1.38,0,0,0-1.2-.53,1.81,1.81,0,0,0-1.63.75,4.66,4.66,0,0,0-.5,2.49v4.62h-2.68V32.37h2l.36,1.26h.15a2.83,2.83,0,0,1,1.24-1.08,4.2,4.2,0,0,1,1.79-.36,3.44,3.44,0,0,1,2.6.93,3.72,3.72,0,0,1,.89,2.68Z"/><path class="cls-5" d="M847,40.23a5.81,5.81,0,0,0,1.69-.31v2a6,6,0,0,1-2.46.45,3,3,0,0,1-2.34-.81,3.54,3.54,0,0,1-.73-2.44V34.38H841.9V33.25l1.48-.9.77-2.07h1.71v2.09h2.75v2h-2.75v4.74a1,1,0,0,0,.32.84A1.27,1.27,0,0,0,847,40.23Z"/><path class="cls-5" d="M863.46,42.19l-.93-3.06h-4.68l-.93,3.06H854l4.54-12.9h3.33l4.55,12.9Zm-1.58-5.34q-1.29-4.16-1.45-4.7c-.11-.36-.19-.65-.23-.86q-.29,1.13-1.66,5.56Z"/><path class="cls-5" d="M875.87,42.19l-.76-3.44-1-4.34H874l-1.79,7.78h-2.88l-2.79-9.83h2.67l1.13,4.35q.19.77.54,3.23H871a18.06,18.06,0,0,1,.31-2.12l.14-.75,1.21-4.71h3l1.15,4.71q.11.48.26,1.42a12.37,12.37,0,0,1,.17,1.45h.07q.1-.78.27-1.78t.3-1.45L879,32.37h2.63l-2.83,9.83Z"/><path class="cls-5" d="M889.45,42.19l-.52-1.34h-.07A4,4,0,0,1,887.46,42a4.5,4.5,0,0,1-1.87.33,3,3,0,0,1-2.23-.81,3.11,3.11,0,0,1-.81-2.3,2.59,2.59,0,0,1,1.09-2.31,6.35,6.35,0,0,1,3.3-.82l1.71-.05v-.43a1.34,1.34,0,0,0-1.53-1.49,7,7,0,0,0-2.77.71l-.89-1.81a8,8,0,0,1,3.76-.89,4.69,4.69,0,0,1,3,.86,3.18,3.18,0,0,1,1.05,2.62v6.55Zm-.79-4.55-1,0a3.32,3.32,0,0,0-1.74.42,1.33,1.33,0,0,0-.57,1.18q0,1.13,1.3,1.13a2.06,2.06,0,0,0,1.49-.54,1.88,1.88,0,0,0,.56-1.42Z"/><path class="cls-5" d="M899.56,32.18a4.32,4.32,0,0,1,.91.08l-.2,2.51a3.07,3.07,0,0,0-.79-.09,2.84,2.84,0,0,0-2,.66,2.38,2.38,0,0,0-.72,1.85v5h-2.68V32.37h2l.4,1.65h.13a3.69,3.69,0,0,1,1.24-1.33A3,3,0,0,1,899.56,32.18Z"/><path class="cls-5" d="M905.19,42.37A3.19,3.19,0,0,1,902.47,41a6.19,6.19,0,0,1-1-3.73,6.19,6.19,0,0,1,1-3.77,3.27,3.27,0,0,1,2.77-1.35,3.21,3.21,0,0,1,2.83,1.44h.09a11,11,0,0,1-.2-2V28.52h2.69V42.19h-2.06l-.52-1.27H908A3.07,3.07,0,0,1,905.19,42.37Zm.94-2.14a1.82,1.82,0,0,0,1.51-.6,3.48,3.48,0,0,0,.52-2v-.29a4,4,0,0,0-.49-2.27,1.81,1.81,0,0,0-1.59-.69,1.57,1.57,0,0,0-1.39.76,4,4,0,0,0-.5,2.21,3.84,3.84,0,0,0,.5,2.18A1.64,1.64,0,0,0,906.13,40.23Z"/><path class="cls-5" d="M920.32,39.27a2.71,2.71,0,0,1-1.05,2.3,5.19,5.19,0,0,1-3.14.79,9.87,9.87,0,0,1-1.83-.15,6.91,6.91,0,0,1-1.42-.43V39.58a9.32,9.32,0,0,0,1.68.59,6.81,6.81,0,0,0,1.65.24q1.46,0,1.46-.84a.7.7,0,0,0-.19-.51,2.8,2.8,0,0,0-.67-.45q-.47-.25-1.27-.58a7.92,7.92,0,0,1-1.67-.88,2.46,2.46,0,0,1-.77-.93,3,3,0,0,1-.24-1.29,2.33,2.33,0,0,1,1-2,4.94,4.94,0,0,1,2.88-.72,8.17,8.17,0,0,1,3.45.77l-.81,1.93q-.74-.32-1.38-.52a4.33,4.33,0,0,0-1.31-.2q-1.19,0-1.19.64a.76.76,0,0,0,.38.62,10.45,10.45,0,0,0,1.67.78,7.78,7.78,0,0,1,1.69.87,2.57,2.57,0,0,1,.79.93A2.86,2.86,0,0,1,920.32,39.27Z"/><path class="cls-5" d="M935.39,42.19h-9V40.3L929.63,37q1.43-1.47,1.87-2a4.47,4.47,0,0,0,.63-1.05,2.67,2.67,0,0,0,.19-1,1.46,1.46,0,0,0-.43-1.15,1.66,1.66,0,0,0-1.14-.38,3.27,3.27,0,0,0-1.45.34,7.48,7.48,0,0,0-1.47,1L926.37,31a9.63,9.63,0,0,1,1.57-1.14,5.77,5.77,0,0,1,1.36-.51,7,7,0,0,1,1.65-.18,4.89,4.89,0,0,1,2.13.44,3.39,3.39,0,0,1,1.43,1.23,3.27,3.27,0,0,1,.51,1.81,4.45,4.45,0,0,1-.31,1.67,6.45,6.45,0,0,1-1,1.6,23.77,23.77,0,0,1-2.31,2.33l-1.65,1.56v.12h5.6Z"/><path class="cls-5" d="M945.61,35.77a9,9,0,0,1-1.1,5,3.83,3.83,0,0,1-3.4,1.62,3.78,3.78,0,0,1-3.35-1.67,8.83,8.83,0,0,1-1.13-4.93,9,9,0,0,1,1.1-5,4.27,4.27,0,0,1,6.75.07A8.85,8.85,0,0,1,945.61,35.77Zm-6.28,0a10,10,0,0,0,.41,3.39,1.41,1.41,0,0,0,1.38,1,1.43,1.43,0,0,0,1.37-1,9.72,9.72,0,0,0,.42-3.37,9.72,9.72,0,0,0-.43-3.4,1.42,1.42,0,0,0-2.74,0A10,10,0,0,0,939.32,35.77Z"/><path class="cls-5" d="M953.7,42.19H951V34.76l0-1.22,0-1.34q-.68.68-.94.89l-1.48,1.19-1.31-1.63,4.14-3.3h2.23Z"/><path class="cls-5" d="M957.19,36.73q0-3.81,1.61-5.68a6,6,0,0,1,4.83-1.86,8.76,8.76,0,0,1,1.72.13V31.5a7,7,0,0,0-1.55-.18,5.31,5.31,0,0,0-2.28.42A2.83,2.83,0,0,0,960.21,33a5.73,5.73,0,0,0-.52,2.35h.11a3,3,0,0,1,2.79-1.49,3.45,3.45,0,0,1,2.7,1.08,4.3,4.3,0,0,1,1,3,4.49,4.49,0,0,1-1.16,3.26,4.27,4.27,0,0,1-3.22,1.2,4.6,4.6,0,0,1-2.48-.66,4.27,4.27,0,0,1-1.63-1.92A7.31,7.31,0,0,1,957.19,36.73Zm4.64,3.46a1.61,1.61,0,0,0,1.34-.58,2.62,2.62,0,0,0,.47-1.67,2.3,2.3,0,0,0-.43-1.48,1.59,1.59,0,0,0-1.31-.54,2,2,0,0,0-1.41.54,1.64,1.64,0,0,0-.58,1.25,2.82,2.82,0,0,0,.55,1.77A1.68,1.68,0,0,0,961.83,40.2Z"/><path class="cls-5" d="M976,42.37A3.19,3.19,0,0,1,973.32,41a6.19,6.19,0,0,1-1-3.73,6.19,6.19,0,0,1,1-3.77,3.27,3.27,0,0,1,2.77-1.35,3.21,3.21,0,0,1,2.83,1.44H979a11,11,0,0,1-.2-2V28.52h2.69V42.19h-2.06l-.52-1.27h-.11A3.07,3.07,0,0,1,976,42.37Zm.94-2.14a1.82,1.82,0,0,0,1.51-.6,3.48,3.48,0,0,0,.52-2v-.29a4,4,0,0,0-.49-2.27,1.81,1.81,0,0,0-1.59-.69,1.57,1.57,0,0,0-1.39.76,4,4,0,0,0-.5,2.21,3.84,3.84,0,0,0,.5,2.18A1.64,1.64,0,0,0,977,40.23Z"/><path class="cls-5" d="M984.21,29.83q0-1.31,1.46-1.31t1.46,1.31a1.28,1.28,0,0,1-.36,1,1.54,1.54,0,0,1-1.09.35Q984.21,31.14,984.21,29.83ZM987,42.19h-2.68V32.37H987Z"/><path class="cls-5" d="M996.67,39.27a2.71,2.71,0,0,1-1.05,2.3,5.19,5.19,0,0,1-3.14.79,9.87,9.87,0,0,1-1.83-.15,6.91,6.91,0,0,1-1.42-.43V39.58a9.32,9.32,0,0,0,1.68.59,6.81,6.81,0,0,0,1.65.24q1.46,0,1.46-.84a.7.7,0,0,0-.19-.51,2.8,2.8,0,0,0-.67-.45q-.47-.25-1.27-.58a7.92,7.92,0,0,1-1.67-.88,2.46,2.46,0,0,1-.77-.93,3,3,0,0,1-.24-1.29,2.33,2.33,0,0,1,1-2,4.94,4.94,0,0,1,2.88-.72,8.17,8.17,0,0,1,3.45.77l-.81,1.93q-.74-.32-1.38-.52a4.33,4.33,0,0,0-1.31-.2q-1.19,0-1.19.64a.76.76,0,0,0,.38.62,10.45,10.45,0,0,0,1.67.78,7.78,7.78,0,0,1,1.69.87,2.57,2.57,0,0,1,.79.93A2.86,2.86,0,0,1,996.67,39.27Z"/><path class="cls-5" d="M998.65,29.83q0-1.31,1.46-1.31t1.46,1.31a1.28,1.28,0,0,1-.36,1,1.54,1.54,0,0,1-1.09.35Q998.65,31.14,998.65,29.83Zm2.79,12.37h-2.68V32.37h2.68Z"/><path class="cls-5" d="M1013.33,42.19h-2.68V36.45a2.76,2.76,0,0,0-.38-1.6,1.38,1.38,0,0,0-1.2-.53,1.81,1.81,0,0,0-1.63.75,4.66,4.66,0,0,0-.5,2.49v4.62h-2.68V32.37h2l.36,1.26h.15a2.83,2.83,0,0,1,1.24-1.08,4.2,4.2,0,0,1,1.79-.36,3.44,3.44,0,0,1,2.6.93,3.72,3.72,0,0,1,.89,2.68Z"/><path class="cls-5" d="M1016,29.83q0-1.31,1.46-1.31t1.46,1.31a1.28,1.28,0,0,1-.36,1,1.54,1.54,0,0,1-1.09.35Q1016,31.14,1016,29.83Zm2.79,12.37h-2.68V32.37h2.68Z"/><path class="cls-5" d="M1021.2,40.94a1.47,1.47,0,0,1,.4-1.12,1.6,1.6,0,0,1,1.15-.38,1.56,1.56,0,0,1,1.13.39,1.71,1.71,0,0,1,0,2.2,1.53,1.53,0,0,1-1.12.4,1.58,1.58,0,0,1-1.14-.39A1.46,1.46,0,0,1,1021.2,40.94Zm2.63-3h-2.14l-.45-8.59h3Z"/><path class="cls-6" d="M88.79,10.22a1.27,1.27,0,1,1-1.27,1.28A1.26,1.26,0,0,1,88.79,10.22Zm-1,11.36V14h2.05v7.59Z"/><path class="cls-6" d="M94.3,17.46v4.12H92.17V10.64h4.09a3.35,3.35,0,0,1,3.6,3.41,3.34,3.34,0,0,1-3.6,3.41ZM96,15.63a1.57,1.57,0,1,0,0-3.13H94.32v3.13Z"/><path class="cls-6" d="M105.82,16a3.1,3.1,0,0,0-.62-.06c-1,0-2,.51-2,2.15v3.47h-2.05V14h2v1.13a2.26,2.26,0,0,1,2.16-1.19,4.69,4.69,0,0,1,.48,0Z"/><path class="cls-6" d="M108.29,10.22A1.27,1.27,0,1,1,107,11.51,1.26,1.26,0,0,1,108.29,10.22Zm-1,11.36V14h2.05v7.59Z"/><path class="cls-6" d="M113,17.79a2,2,0,0,0,1.94,2.15,1.74,1.74,0,0,0,1.74-1.28l1.81.6a3.53,3.53,0,0,1-3.55,2.56,3.93,3.93,0,0,1-4-4,3.89,3.89,0,0,1,3.94-4,3.48,3.48,0,0,1,3.57,2.56l-1.84.62a1.66,1.66,0,0,0-1.68-1.28A1.93,1.93,0,0,0,113,17.79Z"/><path class="cls-6" d="M126.74,19.41a3.42,3.42,0,0,1-3.46,2.41,3.85,3.85,0,0,1-3.92-4.06,3.81,3.81,0,0,1,3.74-4c2.35,0,3.75,1.5,3.75,3.94,0,.29,0,.6,0,.63h-5.43a1.85,1.85,0,0,0,1.91,1.73A1.68,1.68,0,0,0,125,18.9Zm-1.91-2.49a1.53,1.53,0,0,0-1.7-1.5,1.64,1.64,0,0,0-1.7,1.5Z"/><path class="cls-6" d="M132.43,21.59V10.64h6.85v2h-4.72v2.5h4.28V17h-4.28v2.53h4.72v2Z"/><path class="cls-6" d="M140.83,17.91V16.09h4.48v1.82Z"/><path class="cls-6" d="M146.61,16.12a5.52,5.52,0,0,1,5.57-5.71,4.82,4.82,0,0,1,5,3.63l-2,.63a2.86,2.86,0,0,0-3-2.21,3.37,3.37,0,0,0-3.37,3.66,3.38,3.38,0,0,0,3.4,3.61,3,3,0,0,0,3.07-2.24l2,.6a5,5,0,0,1-5.06,3.72A5.46,5.46,0,0,1,146.61,16.12Z"/><path class="cls-6" d="M166,17.79a4,4,0,1,1-8,0,4,4,0,1,1,8,0Zm-2.05,0a1.94,1.94,0,1,0-3.86,0,1.94,1.94,0,1,0,3.86,0Z"/><path class="cls-6" d="M167.65,21.59V14h2v.93a2.61,2.61,0,0,1,2.22-1.14A2.35,2.35,0,0,1,174.08,15a2.81,2.81,0,0,1,5.16,1.62v4.92h-2V17.08a1.27,1.27,0,0,0-1.34-1.44,1.39,1.39,0,0,0-1.4,1.5v4.45h-2V17.08a1.27,1.27,0,0,0-1.34-1.44,1.39,1.39,0,0,0-1.42,1.5v4.45Z"/><path class="cls-6" d="M181.32,21.59V14h2v.93a2.61,2.61,0,0,1,2.22-1.14A2.35,2.35,0,0,1,187.76,15a2.81,2.81,0,0,1,5.16,1.62v4.92h-2V17.08a1.27,1.27,0,0,0-1.34-1.44,1.39,1.39,0,0,0-1.4,1.5v4.45h-2V17.08a1.27,1.27,0,0,0-1.34-1.44,1.39,1.39,0,0,0-1.42,1.5v4.45Z"/><path class="cls-6" d="M201.81,19.41a3.42,3.42,0,0,1-3.46,2.41,3.85,3.85,0,0,1-3.92-4.06,3.81,3.81,0,0,1,3.74-4c2.35,0,3.75,1.5,3.75,3.94,0,.29,0,.6,0,.63h-5.43a1.85,1.85,0,0,0,1.91,1.73,1.68,1.68,0,0,0,1.73-1.16Zm-1.91-2.49a1.53,1.53,0,0,0-1.7-1.5,1.64,1.64,0,0,0-1.7,1.5Z"/><path class="cls-6" d="M208.17,16a3.11,3.11,0,0,0-.62-.06c-1,0-2,.51-2,2.15v3.47h-2.05V14h2v1.13a2.26,2.26,0,0,1,2.16-1.19,4.69,4.69,0,0,1,.48,0Z"/><path class="cls-6" d="M211,17.79A2,2,0,0,0,213,19.93a1.74,1.74,0,0,0,1.74-1.28l1.81.6A3.53,3.53,0,0,1,213,21.82a3.93,3.93,0,0,1-4-4,3.89,3.89,0,0,1,3.94-4,3.48,3.48,0,0,1,3.57,2.56l-1.84.62A1.66,1.66,0,0,0,213,15.66,1.93,1.93,0,0,0,211,17.79Z"/><path class="cls-6" d="M224.77,19.41a3.42,3.42,0,0,1-3.46,2.41,3.85,3.85,0,0,1-3.92-4.06,3.81,3.81,0,0,1,3.74-4c2.35,0,3.75,1.5,3.75,3.94,0,.29,0,.6,0,.63h-5.43a1.85,1.85,0,0,0,1.91,1.73,1.68,1.68,0,0,0,1.73-1.16Zm-1.91-2.49a1.53,1.53,0,0,0-1.7-1.5,1.64,1.64,0,0,0-1.7,1.5Z"/><path class="cls-6" d="M98,36.67V29l-3.15,7.67H93.11L90,29.06v7.61h-2V25.73h2.81L94,33.63l3.21-7.9h2.9V36.67Z"/><path class="cls-6" d="M109.25,34.5a3.42,3.42,0,0,1-3.46,2.41,3.85,3.85,0,0,1-3.92-4.06,3.81,3.81,0,0,1,3.74-4c2.35,0,3.75,1.5,3.75,3.94,0,.29,0,.6,0,.63h-5.43a1.85,1.85,0,0,0,1.91,1.73A1.68,1.68,0,0,0,107.53,34ZM107.33,32a1.53,1.53,0,0,0-1.7-1.5,1.64,1.64,0,0,0-1.7,1.5Z"/><path class="cls-6" d="M115.61,31.12a3.1,3.1,0,0,0-.62-.06c-1,0-2,.51-2,2.15v3.47H111V29.08h2V30.2A2.26,2.26,0,0,1,115.13,29a4.69,4.69,0,0,1,.48,0Z"/><path class="cls-6" d="M118.46,32.88A2,2,0,0,0,120.41,35a1.74,1.74,0,0,0,1.74-1.28l1.81.6a3.53,3.53,0,0,1-3.55,2.56,3.93,3.93,0,0,1-4-4,3.89,3.89,0,0,1,3.94-4,3.48,3.48,0,0,1,3.57,2.56l-1.84.62a1.66,1.66,0,0,0-1.68-1.28A1.93,1.93,0,0,0,118.46,32.88Z"/><path class="cls-6" d="M127.52,36.67h-2.05V25.5h2.05v4.21a2.86,2.86,0,0,1,4.88,2.18v4.79h-2.05V32.24a1.34,1.34,0,0,0-1.4-1.51,1.42,1.42,0,0,0-1.42,1.48Z"/><path class="cls-6" d="M136.29,32.3l1.87-.28c.43-.06.57-.28.57-.54,0-.54-.42-1-1.28-1A1.35,1.35,0,0,0,136,31.73l-1.82-.39a3,3,0,0,1,3.26-2.5c2.41,0,3.3,1.36,3.3,2.89v3.74a8.49,8.49,0,0,0,.09,1.2h-1.88a5.14,5.14,0,0,1-.08-.91,2.54,2.54,0,0,1-2.24,1.13A2.4,2.4,0,0,1,134,34.6,2.34,2.34,0,0,1,136.29,32.3Zm2.44,1.3v-.34l-1.71.26a1,1,0,0,0-.94,1,.89.89,0,0,0,1,.88A1.54,1.54,0,0,0,138.73,33.6Z"/><path class="cls-6" d="M144.86,36.67h-2.05V29.08h2V30A2.52,2.52,0,0,1,147,28.88c1.88,0,2.75,1.34,2.75,3v4.79h-2.05V32.24a1.33,1.33,0,0,0-1.4-1.51,1.43,1.43,0,0,0-1.42,1.57Z"/><path class="cls-6" d="M154.35,29.08h1.53V30.9h-1.53v3.18c0,.66.31.88.9.88a3,3,0,0,0,.63-.06v1.7a3,3,0,0,1-1.16.19,2.2,2.2,0,0,1-2.41-2.35V30.9h-1.37V29.08h.39a1.09,1.09,0,0,0,1.17-1.2V26.81h1.85Z"/><path class="cls-6" d="M94.44,49.26H90l-.91,2.5H86.83L91,40.82H93.5l4.17,10.94H95.35Zm-3.74-1.95h3l-1.51-4.14Z"/><path class="cls-6" d="M104.92,44.17l1.64,4.89,1.4-4.89h2l-2.38,7.59h-2.05l-1.78-5.19-1.74,5.19H100l-2.42-7.59h2.16l1.4,4.88,1.65-4.88Z"/><path class="cls-6" d="M113.06,47.39l1.87-.28c.43-.06.57-.28.57-.54,0-.54-.42-1-1.28-1a1.35,1.35,0,0,0-1.45,1.23l-1.82-.39a3,3,0,0,1,3.26-2.5c2.41,0,3.3,1.36,3.3,2.89v3.74a8.49,8.49,0,0,0,.09,1.2h-1.88a5.14,5.14,0,0,1-.08-.91A2.54,2.54,0,0,1,113.4,52a2.4,2.4,0,0,1-2.61-2.28A2.34,2.34,0,0,1,113.06,47.39Zm2.44,1.3v-.34l-1.71.26a1,1,0,0,0-.94,1,.89.89,0,0,0,1,.88A1.54,1.54,0,0,0,115.5,48.69Z"/><path class="cls-6" d="M124.21,46.2a3.1,3.1,0,0,0-.62-.06c-1,0-2,.51-2,2.15v3.47h-2.05V44.17h2v1.13a2.26,2.26,0,0,1,2.16-1.19,4.69,4.69,0,0,1,.48,0Z"/><path class="cls-6" d="M132.82,50.39c0,.51,0,1.07.06,1.37h-2a5.25,5.25,0,0,1-.08-.88,2.38,2.38,0,0,1-2.13,1.07,3.73,3.73,0,0,1-3.71-4,3.71,3.71,0,0,1,3.64-4,2.27,2.27,0,0,1,2.15.94V40.58h2ZM129,50.11a1.93,1.93,0,0,0,1.87-2.18A1.88,1.88,0,0,0,129,45.82a2.16,2.16,0,0,0,0,4.29Z"/><path class="cls-6" d="M136.15,49.26a1.26,1.26,0,0,0,1.39,1.16c.68,0,1-.36,1-.76s-.23-.62-.82-.74l-1-.23c-1.47-.32-2.13-1.2-2.13-2.27a2.65,2.65,0,0,1,2.84-2.49c2.16,0,2.89,1.37,3,2.19l-1.71.39a1.16,1.16,0,0,0-1.25-1,.87.87,0,0,0-1,.76c0,.37.28.6.69.68l1.08.23c1.5.31,2.25,1.22,2.25,2.33s-1,2.5-2.95,2.5c-2.28,0-3.07-1.48-3.16-2.35Z"/><path class="cls-6" d="M145.53,45.55a3.79,3.79,0,0,1-.08-.69,3.38,3.38,0,0,1,3.66-3.35,3.31,3.31,0,0,1,3.61,3.23,3.6,3.6,0,0,1-1.94,3.1L148.84,49a2,2,0,0,0-.86.91h4.8v1.84h-7.41a4.57,4.57,0,0,1,2.36-4.28l1.65-1a2,2,0,0,0,1.19-1.73,1.37,1.37,0,0,0-1.51-1.37,1.51,1.51,0,0,0-1.59,1.67,2.19,2.19,0,0,0,.08.56Z"/><path class="cls-6" d="M154.77,43.19a3.79,3.79,0,0,1,3.3-1.68,3.74,3.74,0,0,1,3.29,1.68,6.4,6.4,0,0,1,.9,3.57,6.4,6.4,0,0,1-.9,3.57A3.74,3.74,0,0,1,158.08,52a3.79,3.79,0,0,1-3.3-1.68,6.39,6.39,0,0,1-.88-3.57A6.39,6.39,0,0,1,154.77,43.19Zm1.79,6.11a1.67,1.67,0,0,0,1.51.82,1.63,1.63,0,0,0,1.5-.82,4.69,4.69,0,0,0,.56-2.55,4.69,4.69,0,0,0-.56-2.55,1.63,1.63,0,0,0-1.5-.82,1.67,1.67,0,0,0-1.51.82,4.84,4.84,0,0,0-.54,2.55A4.84,4.84,0,0,0,156.56,49.31Z"/><path class="cls-6" d="M165.61,51.76v-6.7H163.2V43.63a2.56,2.56,0,0,0,2.69-1.88h1.84v10Z"/><path class="cls-6" d="M176.72,43.7a4.28,4.28,0,0,0-1.65-.36,3.14,3.14,0,0,0-3.32,2.87,2.83,2.83,0,0,1,2.38-1.11,3.21,3.21,0,0,1,3.46,3.36A3.6,3.6,0,0,1,173.71,52c-2.19,0-4.06-1.57-4.06-4.6,0-3.6,2.25-5.88,5.56-5.88a4.36,4.36,0,0,1,2.1.46Zm-3,6.5a1.68,1.68,0,1,0,0-3.35,1.65,1.65,0,0,0-1.76,1.67A1.69,1.69,0,0,0,173.7,50.2Z"/><path class="cls-5" d="M87.65,64.56V56h1.68v8.52Z"/><path class="cls-5" d="M92.76,64.56h-1.6V58.64h1.55v.73a2,2,0,0,1,1.71-.89,2.08,2.08,0,0,1,2.14,2.34v3.73H95V61.11a1,1,0,0,0-1.09-1.18,1.11,1.11,0,0,0-1.11,1.23Z"/><path class="cls-5" d="M103.82,63.49c0,.4,0,.83,0,1.07h-1.53a4.08,4.08,0,0,1-.06-.69,1.85,1.85,0,0,1-1.66.83,3.11,3.11,0,0,1,0-6.2,1.77,1.77,0,0,1,1.67.73V55.85h1.57Zm-3-.22a1.5,1.5,0,0,0,1.45-1.69,1.47,1.47,0,0,0-1.45-1.65,1.69,1.69,0,0,0,0,3.34Z"/><path class="cls-5" d="M111.31,61.6a3.1,3.1,0,1,1-3.1-3.14A3,3,0,0,1,111.31,61.6Zm-1.6,0a1.51,1.51,0,1,0-1.5,1.68A1.52,1.52,0,0,0,109.71,61.6Z"/><path class="cls-5" d="M114.17,64.56h-1.6V58.64h1.55v.73a2,2,0,0,1,1.71-.89A2.08,2.08,0,0,1,118,60.83v3.73h-1.6V61.11a1,1,0,0,0-1.09-1.18,1.11,1.11,0,0,0-1.11,1.23Z"/><path class="cls-5" d="M124.9,62.86a2.66,2.66,0,0,1-2.69,1.88,3.14,3.14,0,0,1-.14-6.27A2.76,2.76,0,0,1,125,61.53c0,.23,0,.47,0,.49h-4.23a1.44,1.44,0,0,0,1.49,1.35,1.31,1.31,0,0,0,1.35-.9Zm-1.49-1.94a1.19,1.19,0,0,0-1.32-1.17,1.28,1.28,0,0,0-1.32,1.17Z"/><path class="cls-5" d="M127.11,62.61a1,1,0,0,0,1.08.9c.53,0,.78-.28.78-.59s-.18-.48-.64-.58l-.78-.18c-1.14-.25-1.66-.94-1.66-1.77a2.32,2.32,0,0,1,4.53-.23l-1.33.3a.9.9,0,0,0-1-.79.68.68,0,0,0-.76.59c0,.29.22.47.54.53l.84.18c1.17.24,1.75.95,1.75,1.82a2,2,0,0,1-2.3,1.95,2.22,2.22,0,0,1-2.46-1.83Z"/><path class="cls-5" d="M132.58,55.71a1,1,0,1,1-1,1A1,1,0,0,1,132.58,55.71Zm-.79,8.85V58.64h1.6v5.91Z"/><path class="cls-5" d="M136.5,61.16l1.45-.22c.34,0,.45-.22.45-.42,0-.42-.32-.77-1-.77a1,1,0,0,0-1.13,1l-1.42-.3a2.35,2.35,0,0,1,2.54-1.95c1.88,0,2.57,1.06,2.57,2.25v2.91a6.58,6.58,0,0,0,.07.94h-1.47a4,4,0,0,1-.06-.71,2,2,0,0,1-1.74.88,1.87,1.87,0,0,1-2-1.78A1.82,1.82,0,0,1,136.5,61.16Zm1.9,1V61.9l-1.33.2a.75.75,0,0,0-.73.75.69.69,0,0,0,.77.69A1.2,1.2,0,0,0,138.4,62.17Z"/></svg>