<svg id="Layer_1" data-name="Layer 1" xmlns="http://www.w3.org/2000/svg" xmlns:xlink="http://www.w3.org/1999/xlink" viewBox="0 0 320 51.36"><defs><style>.cls-1{fill:none;}.cls-2{fill:#f1f3f2;}.cls-3{clip-path:url(#clip-path);}.cls-4{fill:#fff;}.cls-5{fill:#f63;}.cls-6{fill:#3cc;}</style><clipPath id="clip-path"><rect class="cls-1" width="810.9" height="51.36"/></clipPath></defs><title>Artboard 69</title><rect class="cls-2" width="320.64" height="51.36"/><g class="cls-3"><circle class="cls-4" cx="41.93" cy="40.14" r="3.99"/><circle class="cls-5" cx="49.09" cy="51.15" r="3.99"/><circle class="cls-4" cx="67.35" cy="51.15" r="3.99"/><circle class="cls-4" cx="80.92" cy="35.42" r="3.99"/><path class="cls-6" d="M-5.34,51.36V24.6H11.42v4.91H-.13v6.11H10.32v4.64H-.13v6.19H11.42v4.91Z"/><polygon class="cls-6" points="9.67 11.24 4.84 7.01 0 11.29 0 0 9.64 0 9.67 11.24"/><path class="cls-4" d="M17.46,18.25a2.08,2.08,0,1,1-2.11-2.08A2.08,2.08,0,0,1,17.46,18.25ZM-1.22,16.58H11.27V20H-1.22Z"/><rect class="cls-1" x="83.15" y="0.84" width="199.76" height="166.11"/><rect class="cls-5" x="303.37" y="8.51" width="3.94" height="30.53" transform="translate(329.11 -281.57) rotate(90)"/><rect class="cls-5" x="305.85" y="18.6" width="3.94" height="25.57" transform="translate(339.19 -276.43) rotate(90)"/><rect class="cls-5" x="305.85" y="26.21" width="3.94" height="25.57" transform="translate(346.8 -268.82) rotate(90)"/><circle class="cls-4" cx="272.63" cy="22.3" r="2.51"/><circle class="cls-5" cx="277.14" cy="29.24" r="2.51"/><circle class="cls-4" cx="288.66" cy="34.72" r="2.51"/><circle class="cls-4" cx="297.22" cy="19.32" r="2.51"/><path class="cls-6" d="M292.41,34.82h-10.9L279.28,41h-5.52L284,14.13h6.05L300.32,41h-5.67Zm-9.16-4.77h7.42L287,19.92Z"/></g><path class="cls-5" d="M56.35,17.33H54.83V11.45H52.9V10.19h5.39v1.26H56.35Z"/><path class="cls-5" d="M61.4,17.43a2.82,2.82,0,0,1-2.06-.73,2.75,2.75,0,0,1-.74-2.06,3,3,0,0,1,.69-2.12,2.44,2.44,0,0,1,1.9-.75,2.4,2.4,0,0,1,1.8.66,2.49,2.49,0,0,1,.64,1.82V15H60.1a1.43,1.43,0,0,0,.38,1,1.32,1.32,0,0,0,1,.36,4.09,4.09,0,0,0,.93-.1,4.66,4.66,0,0,0,.92-.33V17a3.5,3.5,0,0,1-.83.29A5.26,5.26,0,0,1,61.4,17.43Zm-.21-4.6a.94.94,0,0,0-.74.3,1.39,1.39,0,0,0-.31.85h2.09a1.24,1.24,0,0,0-.29-.85A1,1,0,0,0,61.19,12.83Z"/><path class="cls-5" d="M69.72,17.33H68.23V14.14a1.61,1.61,0,0,0-.2-.89.7.7,0,0,0-.62-.3.9.9,0,0,0-.83.42,2.75,2.75,0,0,0-.26,1.38v2.57H64.83V11.87H66l.2.7h.08a1.52,1.52,0,0,1,.63-.59,2.06,2.06,0,0,1,1-.21,1.72,1.72,0,0,1,1.66.8h.13a1.48,1.48,0,0,1,.65-.59,2.15,2.15,0,0,1,1-.21,1.9,1.9,0,0,1,1.4.48,2.09,2.09,0,0,1,.48,1.53v3.56H71.63V14.14a1.61,1.61,0,0,0-.2-.89.7.7,0,0,0-.62-.3.93.93,0,0,0-.82.39,2.22,2.22,0,0,0-.27,1.24Z"/><path class="cls-5" d="M78.52,17.33l-.2-.7h-.08a1.57,1.57,0,0,1-.68.59,2.32,2.32,0,0,1-1,.21,1.91,1.91,0,0,1-1.45-.52,2.07,2.07,0,0,1-.49-1.48V11.87h1.49v3.19a1.53,1.53,0,0,0,.21.89.76.76,0,0,0,.67.3,1,1,0,0,0,.9-.42,2.59,2.59,0,0,0,.28-1.38V11.87h1.49v5.46Z"/><path class="cls-5" d="M82.66,14.36l.65-.83,1.53-1.66h1.68l-2.17,2.37,2.3,3.09H84.93l-1.57-2.21-.64.51v1.7H81.23V9.74h1.49v3.39l-.08,1.24Z"/><path class="cls-5" d="M90.89,17.33l-.29-.74h0a2.2,2.2,0,0,1-.77.66,2.5,2.5,0,0,1-1,.18A1.68,1.68,0,0,1,87.52,17a1.73,1.73,0,0,1-.45-1.28,1.44,1.44,0,0,1,.61-1.28A3.53,3.53,0,0,1,89.51,14l.95,0V13.7a.74.74,0,0,0-.85-.83,3.87,3.87,0,0,0-1.54.4l-.49-1a4.44,4.44,0,0,1,2.09-.49,2.6,2.6,0,0,1,1.68.48,1.77,1.77,0,0,1,.59,1.46v3.64Zm-.44-2.53-.58,0a1.85,1.85,0,0,0-1,.23.74.74,0,0,0-.32.65q0,.63.72.63a1.14,1.14,0,0,0,.83-.3,1,1,0,0,0,.31-.79Z"/><path class="cls-5" d="M98.51,17.33H97V14.14a1.53,1.53,0,0,0-.21-.89.76.76,0,0,0-.67-.3,1,1,0,0,0-.9.42A2.59,2.59,0,0,0,95,14.76v2.57H93.47V11.87H94.6l.2.7h.08a1.57,1.57,0,0,1,.69-.6,2.33,2.33,0,0,1,1-.2,1.91,1.91,0,0,1,1.45.52,2.07,2.07,0,0,1,.49,1.49Z"/><path class="cls-5" d="M104.13,17.33h-1.49V9.74h1.49Z"/><path class="cls-5" d="M108.16,17.43a2.82,2.82,0,0,1-2.06-.73,2.75,2.75,0,0,1-.74-2.06,3,3,0,0,1,.69-2.12,2.44,2.44,0,0,1,1.9-.75,2.4,2.4,0,0,1,1.8.66,2.49,2.49,0,0,1,.64,1.82V15h-3.52a1.43,1.43,0,0,0,.38,1,1.32,1.32,0,0,0,1,.36,4.09,4.09,0,0,0,.93-.1,4.66,4.66,0,0,0,.92-.33V17a3.5,3.5,0,0,1-.83.29A5.26,5.26,0,0,1,108.16,17.43Zm-.21-4.6a.94.94,0,0,0-.74.3,1.39,1.39,0,0,0-.31.85H109a1.24,1.24,0,0,0-.29-.85A1,1,0,0,0,107.95,12.83Z"/><path class="cls-5" d="M114.63,11.77a1.77,1.77,0,0,1,1.51.75,3.46,3.46,0,0,1,.55,2.07,3.39,3.39,0,0,1-.56,2.09,2,2,0,0,1-3,0H113l-.25.6H111.6V9.74h1.49V11.5q0,.34-.06,1.08h.06A1.72,1.72,0,0,1,114.63,11.77ZM114.16,13a.94.94,0,0,0-.81.34,2,2,0,0,0-.26,1.12v.16a2.3,2.3,0,0,0,.26,1.26.93.93,0,0,0,.83.38.83.83,0,0,0,.73-.42,2.3,2.3,0,0,0,.27-1.23,2.16,2.16,0,0,0-.27-1.21A.86.86,0,0,0,114.16,13Z"/><path class="cls-5" d="M117.86,10.46q0-.73.81-.73t.81.73a.71.71,0,0,1-.2.54.85.85,0,0,1-.61.19Q117.86,11.2,117.86,10.46Zm1.55,6.87h-1.49V11.87h1.49Z"/><path class="cls-5" d="M126,17.33h-1.49V14.14q0-1.18-.88-1.18a1,1,0,0,0-.9.42,2.59,2.59,0,0,0-.28,1.38v2.57H121V9.74h1.49v1.55q0,.18,0,.85l0,.44h.08a1.73,1.73,0,0,1,1.58-.8,1.93,1.93,0,0,1,1.46.52,2.06,2.06,0,0,1,.5,1.48Z"/><path class="cls-5" d="M133.18,11.77a1.77,1.77,0,0,1,1.51.75,3.46,3.46,0,0,1,.55,2.07,3.39,3.39,0,0,1-.56,2.09,2,2,0,0,1-3,0h-.1l-.25.6h-1.14V9.74h1.49V11.5q0,.34-.06,1.08h.06A1.72,1.72,0,0,1,133.18,11.77ZM132.71,13a.94.94,0,0,0-.81.34,2,2,0,0,0-.26,1.12v.16a2.3,2.3,0,0,0,.26,1.26.93.93,0,0,0,.83.38.83.83,0,0,0,.73-.42,2.3,2.3,0,0,0,.27-1.23,2.16,2.16,0,0,0-.27-1.21A.86.86,0,0,0,132.71,13Z"/><path class="cls-5" d="M139.94,17.33l-.29-.74h0a2.2,2.2,0,0,1-.77.66,2.5,2.5,0,0,1-1,.18,1.68,1.68,0,0,1-1.24-.45,1.73,1.73,0,0,1-.45-1.28,1.44,1.44,0,0,1,.61-1.28,3.53,3.53,0,0,1,1.83-.46l.95,0V13.7a.74.74,0,0,0-.85-.83,3.87,3.87,0,0,0-1.54.4l-.49-1a4.44,4.44,0,0,1,2.09-.49,2.6,2.6,0,0,1,1.68.48A1.77,1.77,0,0,1,141,13.7v3.64Zm-.44-2.53-.58,0a1.85,1.85,0,0,0-1,.23.74.74,0,0,0-.32.65q0,.63.72.63a1.14,1.14,0,0,0,.83-.3,1,1,0,0,0,.31-.79Z"/><path class="cls-5" d="M147.55,17.33h-1.49V14.14a1.53,1.53,0,0,0-.21-.89.76.76,0,0,0-.67-.3,1,1,0,0,0-.9.42,2.59,2.59,0,0,0-.28,1.38v2.57h-1.49V11.87h1.14l.2.7h.08a1.57,1.57,0,0,1,.69-.6,2.33,2.33,0,0,1,1-.2,1.91,1.91,0,0,1,1.45.52,2.07,2.07,0,0,1,.49,1.49Z"/><path class="cls-5" d="M148.31,11.87h1.63l1,3.07a4.24,4.24,0,0,1,.18.95h0a4.19,4.19,0,0,1,.21-.95l1-3.07H154L151.68,18a2.67,2.67,0,0,1-.91,1.28,2.28,2.28,0,0,1-1.37.42,3.47,3.47,0,0,1-.76-.08V18.47a2.53,2.53,0,0,0,.59.06,1.06,1.06,0,0,0,.69-.24,1.57,1.57,0,0,0,.46-.73l.09-.27Z"/><path class="cls-5" d="M158.24,17.33l-.29-.74h0a2.2,2.2,0,0,1-.77.66,2.5,2.5,0,0,1-1,.18,1.68,1.68,0,0,1-1.24-.45,1.73,1.73,0,0,1-.45-1.28,1.44,1.44,0,0,1,.61-1.28,3.53,3.53,0,0,1,1.83-.46l.95,0V13.7a.74.74,0,0,0-.85-.83,3.87,3.87,0,0,0-1.54.4l-.49-1a4.44,4.44,0,0,1,2.09-.49,2.6,2.6,0,0,1,1.68.48,1.77,1.77,0,0,1,.59,1.46v3.64Zm-.44-2.53-.58,0a1.85,1.85,0,0,0-1,.23.74.74,0,0,0-.32.65q0,.63.72.63a1.14,1.14,0,0,0,.83-.3,1,1,0,0,0,.31-.79Z"/><path class="cls-5" d="M162.25,14.36l.65-.83,1.53-1.66h1.68l-2.17,2.37,2.3,3.09h-1.72l-1.57-2.21-.64.51v1.7h-1.49V9.74h1.49v3.39l-.08,1.24Z"/><path class="cls-5" d="M171.1,17.33h-1.49V9.74h1.49Z"/><path class="cls-5" d="M176.13,17.33l-.29-.74h0a2.2,2.2,0,0,1-.77.66,2.5,2.5,0,0,1-1,.18,1.68,1.68,0,0,1-1.24-.45,1.73,1.73,0,0,1-.45-1.28,1.44,1.44,0,0,1,.61-1.28,3.53,3.53,0,0,1,1.83-.46l.95,0V13.7a.74.74,0,0,0-.85-.83,3.87,3.87,0,0,0-1.54.4l-.49-1a4.44,4.44,0,0,1,2.09-.49,2.6,2.6,0,0,1,1.68.48,1.77,1.77,0,0,1,.59,1.46v3.64Zm-.44-2.53-.58,0a1.85,1.85,0,0,0-1,.23.74.74,0,0,0-.32.65q0,.63.72.63a1.14,1.14,0,0,0,.83-.3,1,1,0,0,0,.31-.79Z"/><path class="cls-5" d="M183.48,17.34a2.26,2.26,0,0,1-.69,1.78,3,3,0,0,1-2,.61,5.74,5.74,0,0,1-2-.32V18.22a5.4,5.4,0,0,0,2.13.42q1.15,0,1.15-1.24v-.11l0-.67h0a1.73,1.73,0,0,1-1.55.81,1.76,1.76,0,0,1-1.52-.76,3.49,3.49,0,0,1-.54-2.06,3.44,3.44,0,0,1,.56-2.09,1.82,1.82,0,0,1,1.54-.75,1.84,1.84,0,0,1,1.58.8h0l.12-.7h1.26ZM181,16.26a1,1,0,0,0,.86-.34,1.88,1.88,0,0,0,.26-1.12v-.18a2.23,2.23,0,0,0-.27-1.26,1,1,0,0,0-.87-.38q-1.05,0-1,1.65a2.3,2.3,0,0,0,.26,1.23A.9.9,0,0,0,181,16.26Z"/><path class="cls-5" d="M185,10.46q0-.73.81-.73t.81.73a.71.71,0,0,1-.2.54.85.85,0,0,1-.61.19Q185,11.2,185,10.46Zm1.55,6.87H185V11.87h1.49Z"/><path class="cls-5" d="M195.57,17.33h-1.49V14.14a1.61,1.61,0,0,0-.2-.89.7.7,0,0,0-.62-.3.9.9,0,0,0-.83.42,2.75,2.75,0,0,0-.26,1.38v2.57h-1.49V11.87h1.14l.2.7h.08a1.52,1.52,0,0,1,.63-.59,2.06,2.06,0,0,1,1-.21,1.72,1.72,0,0,1,1.66.8h.13a1.48,1.48,0,0,1,.65-.59,2.15,2.15,0,0,1,1-.21,1.9,1.9,0,0,1,1.4.48,2.09,2.09,0,0,1,.48,1.53v3.56h-1.49V14.14a1.61,1.61,0,0,0-.2-.89.7.7,0,0,0-.62-.3.93.93,0,0,0-.82.39,2.22,2.22,0,0,0-.27,1.24Z"/><path class="cls-5" d="M203,17.43a2.82,2.82,0,0,1-2.06-.73,2.75,2.75,0,0,1-.74-2.06,3,3,0,0,1,.69-2.12,2.44,2.44,0,0,1,1.9-.75,2.4,2.4,0,0,1,1.8.66,2.49,2.49,0,0,1,.64,1.82V15h-3.52a1.43,1.43,0,0,0,.38,1,1.32,1.32,0,0,0,1,.36,4.09,4.09,0,0,0,.93-.1,4.66,4.66,0,0,0,.92-.33V17a3.5,3.5,0,0,1-.83.29A5.26,5.26,0,0,1,203,17.43Zm-.21-4.6a.94.94,0,0,0-.74.3,1.39,1.39,0,0,0-.31.85h2.09a1.24,1.24,0,0,0-.29-.85A1,1,0,0,0,202.76,12.83Z"/><path class="cls-5" d="M211.45,17.33H210V14.14a1.53,1.53,0,0,0-.21-.89.76.76,0,0,0-.67-.3,1,1,0,0,0-.9.42,2.59,2.59,0,0,0-.28,1.38v2.57h-1.49V11.87h1.14l.2.7h.08a1.57,1.57,0,0,1,.69-.6,2.33,2.33,0,0,1,1-.2,1.91,1.91,0,0,1,1.45.52,2.07,2.07,0,0,1,.49,1.49Z"/><path class="cls-5" d="M217.75,17.34a2.26,2.26,0,0,1-.69,1.78,3,3,0,0,1-2,.61,5.74,5.74,0,0,1-2-.32V18.22a5.4,5.4,0,0,0,2.13.42q1.15,0,1.15-1.24v-.11l0-.67h0a1.73,1.73,0,0,1-1.55.81,1.76,1.76,0,0,1-1.52-.76,3.49,3.49,0,0,1-.54-2.06,3.44,3.44,0,0,1,.56-2.09,1.82,1.82,0,0,1,1.54-.75,1.84,1.84,0,0,1,1.58.8h0l.12-.7h1.26Zm-2.51-1.08a1,1,0,0,0,.86-.34,1.88,1.88,0,0,0,.26-1.12v-.18a2.23,2.23,0,0,0-.27-1.26,1,1,0,0,0-.87-.38q-1.05,0-1,1.65a2.3,2.3,0,0,0,.26,1.23A.9.9,0,0,0,215.24,16.26Z"/><path class="cls-5" d="M221.78,17.43a2.82,2.82,0,0,1-2.06-.73,2.75,2.75,0,0,1-.74-2.06,3,3,0,0,1,.69-2.12,2.44,2.44,0,0,1,1.9-.75,2.4,2.4,0,0,1,1.8.66,2.49,2.49,0,0,1,.64,1.82V15h-3.52a1.43,1.43,0,0,0,.38,1,1.32,1.32,0,0,0,1,.36,4.09,4.09,0,0,0,.93-.1,4.66,4.66,0,0,0,.92-.33V17a3.5,3.5,0,0,1-.83.29A5.26,5.26,0,0,1,221.78,17.43Zm-.21-4.6a.94.94,0,0,0-.74.3,1.39,1.39,0,0,0-.31.85h2.09a1.24,1.24,0,0,0-.29-.85A1,1,0,0,0,221.57,12.83Z"/><path class="cls-5" d="M230.26,17.33h-1.49V14.14a1.53,1.53,0,0,0-.21-.89.76.76,0,0,0-.67-.3,1,1,0,0,0-.9.42,2.59,2.59,0,0,0-.28,1.38v2.57h-1.49V11.87h1.14l.2.7h.08a1.57,1.57,0,0,1,.69-.6,2.33,2.33,0,0,1,1-.2,1.91,1.91,0,0,1,1.45.52,2.07,2.07,0,0,1,.49,1.49Z"/><path class="cls-5" d="M235.26,17.33l-.29-.74h0a2.2,2.2,0,0,1-.77.66,2.5,2.5,0,0,1-1,.18,1.68,1.68,0,0,1-1.24-.45,1.73,1.73,0,0,1-.45-1.28,1.44,1.44,0,0,1,.61-1.28,3.53,3.53,0,0,1,1.83-.46l.95,0V13.7a.74.74,0,0,0-.85-.83,3.87,3.87,0,0,0-1.54.4l-.49-1a4.44,4.44,0,0,1,2.09-.49,2.6,2.6,0,0,1,1.68.48,1.77,1.77,0,0,1,.59,1.46v3.64Zm-.44-2.53-.58,0a1.85,1.85,0,0,0-1,.23.74.74,0,0,0-.32.65q0,.63.72.63a1.14,1.14,0,0,0,.83-.3,1,1,0,0,0,.31-.79Z"/><path class="cls-5" d="M237.77,10.46q0-.73.81-.73t.81.73a.71.71,0,0,1-.2.54.85.85,0,0,1-.61.19Q237.77,11.2,237.77,10.46Zm1.55,6.87h-1.49V11.87h1.49Z"/><path class="cls-5" d="M53.41,22.46q0-.73.81-.73t.81.73a.71.71,0,0,1-.2.54.85.85,0,0,1-.61.19Q53.41,23.2,53.41,22.46ZM55,29.33H53.48V23.87H55Z"/><path class="cls-5" d="M61.58,24.42a2.18,2.18,0,0,1-.72,1.76,3.08,3.08,0,0,1-2,.61h-.65v2.54H56.65V22.19h2.28a3,3,0,0,1,2,.56A2,2,0,0,1,61.58,24.42Zm-3.42,1.13h.5a1.66,1.66,0,0,0,1-.28,1,1,0,0,0,.35-.8,1,1,0,0,0-.29-.79,1.36,1.36,0,0,0-.91-.25h-.69Z"/><path class="cls-5" d="M65.85,23.77a2.4,2.4,0,0,1,.5,0l-.11,1.4a1.7,1.7,0,0,0-.44,0,1.58,1.58,0,0,0-1.11.37,1.33,1.33,0,0,0-.4,1v2.78H62.81V23.87h1.13l.22.92h.07a2,2,0,0,1,.69-.74A1.69,1.69,0,0,1,65.85,23.77Z"/><path class="cls-5" d="M67.29,22.46q0-.73.81-.73t.81.73a.71.71,0,0,1-.2.54.85.85,0,0,1-.61.19Q67.29,23.2,67.29,22.46Zm1.55,6.87H67.35V23.87h1.49Z"/><path class="cls-5" d="M72.62,29.43q-2.55,0-2.55-2.8a3,3,0,0,1,.69-2.13,2.6,2.6,0,0,1,2-.73,3.78,3.78,0,0,1,1.7.37L74,25.3q-.35-.14-.65-.23a2.11,2.11,0,0,0-.61-.09q-1.16,0-1.16,1.65t1.16,1.6a2.65,2.65,0,0,0,.8-.11,2.88,2.88,0,0,0,.73-.36V29a2.41,2.41,0,0,1-.73.32A4.1,4.1,0,0,1,72.62,29.43Z"/><path class="cls-5" d="M78,29.43A2.82,2.82,0,0,1,76,28.7a2.75,2.75,0,0,1-.74-2.06,3,3,0,0,1,.69-2.12,2.44,2.44,0,0,1,1.9-.75,2.4,2.4,0,0,1,1.8.66,2.49,2.49,0,0,1,.64,1.82V27H76.72a1.43,1.43,0,0,0,.38,1,1.32,1.32,0,0,0,1,.36,4.09,4.09,0,0,0,.93-.1,4.66,4.66,0,0,0,.92-.33V29a3.5,3.5,0,0,1-.83.29A5.26,5.26,0,0,1,78,29.43Zm-.21-4.6a.94.94,0,0,0-.74.3,1.39,1.39,0,0,0-.31.85h2.09a1.24,1.24,0,0,0-.29-.85A1,1,0,0,0,77.8,24.83Z"/><path class="cls-5" d="M88.28,29.33H84.17V22.19h4.11v1.24h-2.6V25H88.1v1.24H85.68v1.84h2.6Z"/><path class="cls-5" d="M89.17,27.26V26h2.62v1.22Z"/><path class="cls-5" d="M96,23.35a1.54,1.54,0,0,0-1.32.64,3,3,0,0,0-.47,1.79q0,2.39,1.79,2.39a5.67,5.67,0,0,0,1.82-.38v1.27a5.06,5.06,0,0,1-2,.37,3,3,0,0,1-2.38-.94,4,4,0,0,1-.83-2.71,4.42,4.42,0,0,1,.41-2,2.93,2.93,0,0,1,1.16-1.28A3.45,3.45,0,0,1,96,22.09a4.8,4.8,0,0,1,2.09.5l-.49,1.23a8,8,0,0,0-.81-.33A2.41,2.41,0,0,0,96,23.35Z"/><path class="cls-5" d="M104.2,26.59a2.93,2.93,0,0,1-.7,2.08,2.55,2.55,0,0,1-2,.75,2.74,2.74,0,0,1-1.39-.34,2.29,2.29,0,0,1-.92-1,3.32,3.32,0,0,1-.32-1.5,2.92,2.92,0,0,1,.7-2.08,2.57,2.57,0,0,1,2-.74,2.75,2.75,0,0,1,1.39.34,2.28,2.28,0,0,1,.92,1A3.29,3.29,0,0,1,104.2,26.59Zm-3.77,0a2.29,2.29,0,0,0,.27,1.23,1,1,0,0,0,.87.42.94.94,0,0,0,.86-.41,2.32,2.32,0,0,0,.26-1.23,2.25,2.25,0,0,0-.26-1.22,1.12,1.12,0,0,0-1.72,0A2.25,2.25,0,0,0,100.43,26.59Z"/><path class="cls-5" d="M110.32,29.33h-1.49V26.14a1.61,1.61,0,0,0-.2-.89A.7.7,0,0,0,108,25a.9.9,0,0,0-.83.42,2.75,2.75,0,0,0-.26,1.38v2.57h-1.49V23.87h1.14l.2.7h.08a1.52,1.52,0,0,1,.63-.59,2.06,2.06,0,0,1,1-.21,1.72,1.72,0,0,1,1.66.8h.13a1.48,1.48,0,0,1,.65-.59,2.15,2.15,0,0,1,1-.21,1.9,1.9,0,0,1,1.4.48,2.09,2.09,0,0,1,.48,1.53v3.56h-1.49V26.14a1.61,1.61,0,0,0-.2-.89.7.7,0,0,0-.62-.3.93.93,0,0,0-.82.39,2.22,2.22,0,0,0-.27,1.24Z"/><path class="cls-5" d="M120.14,29.33h-1.49V26.14a1.61,1.61,0,0,0-.2-.89.7.7,0,0,0-.62-.3.9.9,0,0,0-.83.42,2.75,2.75,0,0,0-.26,1.38v2.57h-1.49V23.87h1.14l.2.7h.08a1.52,1.52,0,0,1,.63-.59,2.06,2.06,0,0,1,1-.21,1.72,1.72,0,0,1,1.66.8H120a1.48,1.48,0,0,1,.65-.59,2.15,2.15,0,0,1,1-.21,1.9,1.9,0,0,1,1.4.48,2.09,2.09,0,0,1,.48,1.53v3.56H122V26.14a1.61,1.61,0,0,0-.2-.89.7.7,0,0,0-.62-.3.93.93,0,0,0-.82.39,2.22,2.22,0,0,0-.27,1.24Z"/><path class="cls-5" d="M127.54,29.43a2.82,2.82,0,0,1-2.06-.73,2.75,2.75,0,0,1-.74-2.06,3,3,0,0,1,.69-2.12,2.44,2.44,0,0,1,1.9-.75,2.4,2.4,0,0,1,1.8.66,2.49,2.49,0,0,1,.64,1.82V27h-3.52a1.43,1.43,0,0,0,.38,1,1.32,1.32,0,0,0,1,.36,4.09,4.09,0,0,0,.93-.1,4.66,4.66,0,0,0,.92-.33V29a3.5,3.5,0,0,1-.83.29A5.26,5.26,0,0,1,127.54,29.43Zm-.21-4.6a.94.94,0,0,0-.74.3,1.39,1.39,0,0,0-.31.85h2.09a1.24,1.24,0,0,0-.29-.85A1,1,0,0,0,127.33,24.83Z"/><path class="cls-5" d="M134,23.77a2.4,2.4,0,0,1,.5,0l-.11,1.4a1.7,1.7,0,0,0-.44,0,1.58,1.58,0,0,0-1.11.37,1.33,1.33,0,0,0-.4,1v2.78H131V23.87h1.13l.22.92h.07a2,2,0,0,1,.69-.74A1.69,1.69,0,0,1,134,23.77Z"/><path class="cls-5" d="M137.64,29.43q-2.55,0-2.55-2.8a3,3,0,0,1,.69-2.13,2.6,2.6,0,0,1,2-.73,3.78,3.78,0,0,1,1.7.37L139,25.3q-.35-.14-.65-.23a2.11,2.11,0,0,0-.61-.09q-1.16,0-1.16,1.65t1.16,1.6a2.65,2.65,0,0,0,.8-.11,2.88,2.88,0,0,0,.73-.36V29a2.41,2.41,0,0,1-.73.32A4.1,4.1,0,0,1,137.64,29.43Z"/><path class="cls-5" d="M143,29.43A2.82,2.82,0,0,1,141,28.7a2.75,2.75,0,0,1-.74-2.06,3,3,0,0,1,.69-2.12,2.44,2.44,0,0,1,1.9-.75,2.4,2.4,0,0,1,1.8.66,2.49,2.49,0,0,1,.64,1.82V27h-3.52a1.43,1.43,0,0,0,.38,1,1.32,1.32,0,0,0,1,.36,4.09,4.09,0,0,0,.93-.1,4.66,4.66,0,0,0,.92-.33V29a3.5,3.5,0,0,1-.83.29A5.26,5.26,0,0,1,143,29.43Zm-.21-4.6a.94.94,0,0,0-.74.3,1.39,1.39,0,0,0-.31.85h2.09a1.24,1.24,0,0,0-.29-.85A1,1,0,0,0,142.82,24.83Z"/><path class="cls-5" d="M152.21,29.33l-1.72-5.6h0q.09,1.71.09,2.28v3.32h-1.35V22.19h2.06l1.69,5.46h0l1.79-5.46h2.06v7.14h-1.41V26c0-.16,0-.34,0-.55s0-.76.07-1.66h0l-1.84,5.59Z"/><path class="cls-5" d="M161,29.43a2.82,2.82,0,0,1-2.06-.73,2.75,2.75,0,0,1-.74-2.06,3,3,0,0,1,.69-2.12,2.44,2.44,0,0,1,1.9-.75,2.4,2.4,0,0,1,1.8.66,2.49,2.49,0,0,1,.64,1.82V27h-3.52a1.43,1.43,0,0,0,.38,1,1.32,1.32,0,0,0,1,.36,4.09,4.09,0,0,0,.93-.1,4.66,4.66,0,0,0,.92-.33V29a3.5,3.5,0,0,1-.83.29A5.26,5.26,0,0,1,161,29.43Zm-.21-4.6a.94.94,0,0,0-.74.3,1.39,1.39,0,0,0-.31.85h2.09a1.24,1.24,0,0,0-.29-.85A1,1,0,0,0,160.76,24.83Z"/><path class="cls-5" d="M167.45,23.77a2.4,2.4,0,0,1,.5,0l-.11,1.4a1.7,1.7,0,0,0-.44,0,1.58,1.58,0,0,0-1.11.37,1.33,1.33,0,0,0-.4,1v2.78H164.4V23.87h1.13l.22.92h.07a2,2,0,0,1,.69-.74A1.69,1.69,0,0,1,167.45,23.77Z"/><path class="cls-5" d="M171.06,29.43q-2.55,0-2.55-2.8a3,3,0,0,1,.69-2.13,2.6,2.6,0,0,1,2-.73,3.78,3.78,0,0,1,1.7.37l-.44,1.15q-.35-.14-.65-.23a2.11,2.11,0,0,0-.61-.09Q170,25,170,26.62t1.16,1.6a2.65,2.65,0,0,0,.8-.11,2.88,2.88,0,0,0,.73-.36V29a2.41,2.41,0,0,1-.73.32A4.1,4.1,0,0,1,171.06,29.43Z"/><path class="cls-5" d="M179,29.33h-1.49V26.14q0-1.18-.88-1.18a1,1,0,0,0-.9.42,2.59,2.59,0,0,0-.28,1.38v2.57H174v-7.6h1.49v1.55q0,.18,0,.85l0,.44h.08a1.73,1.73,0,0,1,1.58-.8,1.93,1.93,0,0,1,1.46.52,2.06,2.06,0,0,1,.5,1.48Z"/><path class="cls-5" d="M184,29.33l-.29-.74h0a2.2,2.2,0,0,1-.77.66,2.5,2.5,0,0,1-1,.18,1.68,1.68,0,0,1-1.24-.45,1.73,1.73,0,0,1-.45-1.28,1.44,1.44,0,0,1,.61-1.28,3.53,3.53,0,0,1,1.83-.46l.95,0V25.7a.74.74,0,0,0-.85-.83,3.87,3.87,0,0,0-1.54.4l-.49-1a4.44,4.44,0,0,1,2.09-.49,2.6,2.6,0,0,1,1.68.48,1.77,1.77,0,0,1,.59,1.46v3.64Zm-.44-2.53-.58,0a1.85,1.85,0,0,0-1,.23.74.74,0,0,0-.32.65q0,.63.72.63a1.14,1.14,0,0,0,.83-.3,1,1,0,0,0,.31-.79Z"/><path class="cls-5" d="M191.64,29.33h-1.49V26.14a1.53,1.53,0,0,0-.21-.89.76.76,0,0,0-.67-.3,1,1,0,0,0-.9.42,2.59,2.59,0,0,0-.28,1.38v2.57H186.6V23.87h1.14l.2.7H188a1.57,1.57,0,0,1,.69-.6,2.33,2.33,0,0,1,1-.2,1.91,1.91,0,0,1,1.45.52,2.07,2.07,0,0,1,.49,1.49Z"/><path class="cls-5" d="M195.47,28.24a3.23,3.23,0,0,0,.94-.17v1.11a3.34,3.34,0,0,1-1.37.25,1.67,1.67,0,0,1-1.3-.45,2,2,0,0,1-.41-1.35V25h-.71v-.63l.82-.5.43-1.15h1v1.16h1.53V25h-1.53v2.63a.58.58,0,0,0,.18.47A.7.7,0,0,0,195.47,28.24Z"/><path class="cls-5" d="M204.6,29.33l-.52-1.7h-2.6l-.52,1.7h-1.63l2.52-7.17h1.85l2.53,7.17Zm-.88-3-.81-2.61q-.09-.3-.13-.48-.16.62-.92,3.09Z"/><path class="cls-5" d="M211.5,29.33l-.42-1.91L210.52,25h0l-1,4.32h-1.6l-1.55-5.46h1.48l.63,2.42q.11.43.3,1.79h0a10,10,0,0,1,.17-1.18l.08-.42.67-2.62h1.64l.64,2.62q.06.27.14.79a6.88,6.88,0,0,1,.09.8h0c0-.29.09-.62.15-1s.12-.64.17-.8l.65-2.42h1.46l-1.57,5.46Z"/><path class="cls-5" d="M219,29.33l-.29-.74h0a2.2,2.2,0,0,1-.77.66,2.5,2.5,0,0,1-1,.18,1.68,1.68,0,0,1-1.24-.45,1.73,1.73,0,0,1-.45-1.28,1.44,1.44,0,0,1,.61-1.28,3.53,3.53,0,0,1,1.83-.46l.95,0V25.7a.74.74,0,0,0-.85-.83,3.87,3.87,0,0,0-1.54.4l-.49-1a4.44,4.44,0,0,1,2.09-.49,2.6,2.6,0,0,1,1.68.48,1.77,1.77,0,0,1,.59,1.46v3.64Zm-.44-2.53-.58,0a1.85,1.85,0,0,0-1,.23.74.74,0,0,0-.32.65q0,.63.72.63a1.14,1.14,0,0,0,.83-.3,1,1,0,0,0,.31-.79Z"/><path class="cls-5" d="M224.66,23.77a2.4,2.4,0,0,1,.5,0l-.11,1.4a1.7,1.7,0,0,0-.44,0,1.58,1.58,0,0,0-1.11.37,1.33,1.33,0,0,0-.4,1v2.78h-1.49V23.87h1.13l.22.92H223a2,2,0,0,1,.69-.74A1.69,1.69,0,0,1,224.66,23.77Z"/><path class="cls-5" d="M227.78,29.43a1.77,1.77,0,0,1-1.51-.75,3.44,3.44,0,0,1-.55-2.07,3.44,3.44,0,0,1,.56-2.09,1.82,1.82,0,0,1,1.54-.75,1.78,1.78,0,0,1,1.57.8h0a6.06,6.06,0,0,1-.11-1.09V21.74h1.49v7.6h-1.14l-.29-.71h-.06A1.7,1.7,0,0,1,227.78,29.43Zm.52-1.19a1,1,0,0,0,.84-.33,1.93,1.93,0,0,0,.29-1.13v-.16a2.22,2.22,0,0,0-.27-1.26,1,1,0,0,0-.88-.38.87.87,0,0,0-.77.42,2.25,2.25,0,0,0-.28,1.23,2.14,2.14,0,0,0,.28,1.21A.91.91,0,0,0,228.31,28.24Z"/><path class="cls-5" d="M236.19,27.71a1.5,1.5,0,0,1-.58,1.28,2.88,2.88,0,0,1-1.75.44,5.48,5.48,0,0,1-1-.08,3.85,3.85,0,0,1-.79-.24V27.88a5.15,5.15,0,0,0,.94.33,3.78,3.78,0,0,0,.92.13q.81,0,.81-.47a.39.39,0,0,0-.11-.29,1.55,1.55,0,0,0-.37-.25q-.26-.14-.7-.32a4.39,4.39,0,0,1-.92-.49,1.37,1.37,0,0,1-.43-.52,1.7,1.7,0,0,1-.13-.72,1.29,1.29,0,0,1,.56-1.13,2.74,2.74,0,0,1,1.6-.4,4.54,4.54,0,0,1,1.92.43l-.45,1.07q-.41-.18-.77-.29a2.41,2.41,0,0,0-.73-.11q-.66,0-.66.36a.42.42,0,0,0,.21.35,5.82,5.82,0,0,0,.93.43,4.29,4.29,0,0,1,.94.48,1.44,1.44,0,0,1,.44.52A1.59,1.59,0,0,1,236.19,27.71Z"/><path class="cls-5" d="M58.09,41.33h-5v-1l1.79-1.81q.8-.82,1-1.13a2.46,2.46,0,0,0,.35-.58,1.49,1.49,0,0,0,.11-.56.81.81,0,0,0-.24-.64.92.92,0,0,0-.63-.21,1.82,1.82,0,0,0-.81.19,4.15,4.15,0,0,0-.82.54l-.82-1a5.34,5.34,0,0,1,.87-.63,3.23,3.23,0,0,1,.76-.29,3.87,3.87,0,0,1,.92-.1,2.72,2.72,0,0,1,1.18.24,1.88,1.88,0,0,1,.8.68,1.82,1.82,0,0,1,.28,1,2.47,2.47,0,0,1-.17.93,3.58,3.58,0,0,1-.54.89,13.21,13.21,0,0,1-1.28,1.29L55,40v.07h3.11Z"/><path class="cls-5" d="M63.77,37.76a5,5,0,0,1-.61,2.77,2.12,2.12,0,0,1-1.89.9,2.1,2.1,0,0,1-1.86-.93,4.91,4.91,0,0,1-.63-2.74A5,5,0,0,1,59.39,35a2.37,2.37,0,0,1,3.75,0A4.91,4.91,0,0,1,63.77,37.76Zm-3.49,0a5.53,5.53,0,0,0,.23,1.88.78.78,0,0,0,.76.57.79.79,0,0,0,.76-.58,5.4,5.4,0,0,0,.23-1.87A5.4,5.4,0,0,0,62,35.88a.79.79,0,0,0-1.52,0A5.54,5.54,0,0,0,60.27,37.76Z"/><path class="cls-5" d="M68.26,41.33H66.75V36.52l0-.74q-.38.38-.52.49l-.82.66L64.72,36,67,34.19h1.24Z"/><path class="cls-5" d="M70.2,38.3a4.72,4.72,0,0,1,.9-3.15,3.36,3.36,0,0,1,2.68-1,4.87,4.87,0,0,1,1,.07v1.21a3.92,3.92,0,0,0-.86-.1,3,3,0,0,0-1.27.23,1.57,1.57,0,0,0-.74.69,3.18,3.18,0,0,0-.29,1.3h.06a1.66,1.66,0,0,1,1.55-.83,1.92,1.92,0,0,1,1.5.6A2.39,2.39,0,0,1,75.24,39a2.49,2.49,0,0,1-.64,1.81,2.37,2.37,0,0,1-1.79.67,2.55,2.55,0,0,1-1.38-.37A2.37,2.37,0,0,1,70.52,40,4.06,4.06,0,0,1,70.2,38.3Zm2.58,1.92a.89.89,0,0,0,.74-.32,1.45,1.45,0,0,0,.26-.93,1.28,1.28,0,0,0-.24-.82.88.88,0,0,0-.73-.3,1.12,1.12,0,0,0-.78.3.91.91,0,0,0-.33.69,1.57,1.57,0,0,0,.31,1A.93.93,0,0,0,72.78,40.22Z"/><path class="cls-5" d="M80.67,41.43a1.77,1.77,0,0,1-1.51-.75,3.44,3.44,0,0,1-.55-2.07,3.44,3.44,0,0,1,.56-2.09,1.82,1.82,0,0,1,1.54-.75,1.78,1.78,0,0,1,1.57.8h0a6.06,6.06,0,0,1-.11-1.09V33.74h1.49v7.6H82.57l-.29-.71h-.06A1.7,1.7,0,0,1,80.67,41.43Zm.52-1.19a1,1,0,0,0,.84-.33,1.93,1.93,0,0,0,.29-1.13v-.16a2.22,2.22,0,0,0-.27-1.26,1,1,0,0,0-.88-.38.87.87,0,0,0-.77.42,2.25,2.25,0,0,0-.28,1.23,2.14,2.14,0,0,0,.28,1.21A.91.91,0,0,0,81.2,40.24Z"/><path class="cls-5" d="M85.21,34.46q0-.73.81-.73t.81.73a.71.71,0,0,1-.2.54.85.85,0,0,1-.61.19Q85.21,35.2,85.21,34.46Zm1.55,6.87H85.27V35.87h1.49Z"/><path class="cls-5" d="M92.13,39.71A1.5,1.5,0,0,1,91.55,41a2.88,2.88,0,0,1-1.75.44,5.48,5.48,0,0,1-1-.08,3.85,3.85,0,0,1-.79-.24V39.88a5.15,5.15,0,0,0,.94.33,3.78,3.78,0,0,0,.92.13q.81,0,.81-.47a.39.39,0,0,0-.11-.29,1.55,1.55,0,0,0-.37-.25q-.26-.14-.7-.32a4.39,4.39,0,0,1-.92-.49,1.37,1.37,0,0,1-.43-.52A1.7,1.7,0,0,1,88,37.3a1.29,1.29,0,0,1,.56-1.13,2.74,2.74,0,0,1,1.6-.4,4.54,4.54,0,0,1,1.92.43l-.45,1.07q-.41-.18-.77-.29a2.41,2.41,0,0,0-.73-.11q-.66,0-.66.36a.42.42,0,0,0,.21.35,5.82,5.82,0,0,0,.93.43,4.29,4.29,0,0,1,.94.48A1.44,1.44,0,0,1,92,39,1.59,1.59,0,0,1,92.13,39.71Z"/><path class="cls-5" d="M93.23,34.46q0-.73.81-.73t.81.73a.71.71,0,0,1-.2.54.85.85,0,0,1-.61.19Q93.23,35.2,93.23,34.46Zm1.55,6.87H93.3V35.87h1.49Z"/><path class="cls-5" d="M101.39,41.33H99.9V38.14a1.53,1.53,0,0,0-.21-.89A.76.76,0,0,0,99,37a1,1,0,0,0-.9.42,2.59,2.59,0,0,0-.28,1.38v2.57H96.35V35.87h1.14l.2.7h.08a1.57,1.57,0,0,1,.69-.6,2.33,2.33,0,0,1,1-.2,1.91,1.91,0,0,1,1.45.52,2.07,2.07,0,0,1,.49,1.49Z"/><path class="cls-5" d="M102.86,34.46q0-.73.81-.73t.81.73a.71.71,0,0,1-.2.54.85.85,0,0,1-.61.19Q102.86,35.2,102.86,34.46Zm1.55,6.87h-1.49V35.87h1.49Z"/><path class="cls-5" d="M105.76,40.64A.82.82,0,0,1,106,40a.89.89,0,0,1,.64-.21.87.87,0,0,1,.63.21.95.95,0,0,1,0,1.22.85.85,0,0,1-.62.22.87.87,0,0,1-.63-.22A.81.81,0,0,1,105.76,40.64ZM107.22,39H106l-.25-4.77h1.69Z"/></svg>