<svg id="Layer_1" data-name="Layer 1" xmlns="http://www.w3.org/2000/svg" xmlns:xlink="http://www.w3.org/1999/xlink" viewBox="0 0 1024 170"><defs><style>.cls-1,.cls-12,.cls-13,.cls-8,.cls-9{fill:none;}.cls-2{clip-path:url(#clip-path);}.cls-3{fill:#f1f3f2;}.cls-4{clip-path:url(#clip-path-2);}.cls-5{fill:#f63;}.cls-10,.cls-11,.cls-6{fill:#fff;}.cls-7{fill:#3cc;}.cls-10,.cls-11,.cls-12,.cls-13,.cls-8,.cls-9{stroke:#3cc;}.cls-12,.cls-8{stroke-miterlimit:10;}.cls-8{stroke-width:1.61px;}.cls-10,.cls-11,.cls-13,.cls-9{stroke-linecap:round;stroke-linejoin:round;}.cls-9{stroke-width:16px;}.cls-10{stroke-width:0.73px;}.cls-11{stroke-width:0.72px;}.cls-12{stroke-width:0.3px;}.cls-13{stroke-width:0.75px;}</style><clipPath id="clip-path"><rect class="cls-1" y="-0.37" width="1024" height="170"/></clipPath><clipPath id="clip-path-2"><rect class="cls-1" y="-0.44" width="1027" height="170.94"/></clipPath></defs><title>header_vn</title><g class="cls-2"><rect class="cls-3" y="-0.44" width="1147" height="170.94"/><g class="cls-4"><rect class="cls-5" x="613.44" y="-0.5" width="24.19" height="117.48"/><rect class="cls-5" x="660.19" y="-0.5" width="24.19" height="117.48"/><rect class="cls-5" x="706.95" y="-0.5" width="24.19" height="117.48"/><rect class="cls-5" x="753.71" y="-0.5" width="24.19" height="117.48"/><circle class="cls-6" cx="777.89" cy="38.01" r="11.85"/><circle class="cls-5" cx="802.6" cy="70.4" r="11.85"/><circle class="cls-6" cx="848.36" cy="96.21" r="11.85"/><circle class="cls-6" cx="894.4" cy="23.37" r="11.85"/><rect class="cls-3" x="170.1" y="54.5" width="82.59" height="106.06"/><path class="cls-7" d="M163,174.49V33.39h88.36V59.26h-60.9V91.5h55.13V116H190.46v32.64h60.9v25.87Z"/><path class="cls-7" d="M874.52,96.7H823.18l-10.52,28.88h-26L835.12-.83h28.53l48.14,126.41H885ZM831.37,74.23h34.95L848.85,26.45Z"/><path class="cls-8" d="M928.57,112.3a11.36,11.36,0,0,1-2.17.24c-5.5,0-10.48-4.15-10.48-11.44,0-7,4.63-11.29,10.09-11.29,4.06,0,7.34,2.22,9.7,6.08l3.67,6a6.38,6.38,0,0,0,2.85,2.7v-15H948v23.17c-5.5,0-10-1.78-13.37-7.39l-3.09-5.17c-1.59-2.65-3.23-3.71-5.41-3.71s-4.3,1.6-4.3,4.73c0,3.33,2.27,5,5.21,5a7.13,7.13,0,0,0,1.74-.24Z"/><path class="cls-8" d="M921.19,83.38A11.85,11.85,0,0,1,915.93,73a11.7,11.7,0,0,1,5.26-10.28c3.23-2.12,7.14-2.8,11.15-2.8s7.92.68,11.15,2.8A11.7,11.7,0,0,1,948.75,73a11.85,11.85,0,0,1-5.26,10.34c-3.23,2.12-7.14,2.75-11.15,2.75S924.42,85.51,921.19,83.38Zm19.12-5.6A5.23,5.23,0,0,0,942.86,73a5.09,5.09,0,0,0-2.56-4.68c-1.88-1.26-4.68-1.74-8-1.74s-6.08.48-8,1.74A5.09,5.09,0,0,0,921.82,73a5.23,5.23,0,0,0,2.56,4.73c1.88,1.21,4.68,1.69,8,1.69S938.42,79,940.31,77.78Z"/><path class="cls-8" d="M948,49.48H927V57h-4.49c0-4.58-2.61-7.78-5.89-8.4V42.86H948Z"/><path class="cls-8" d="M922.78,14.71a13.44,13.44,0,0,0-1.11,5.17c0,5.31,3.09,9.66,9,10.38a8.87,8.87,0,0,1-3.48-7.44c0-6.42,4.06-10.81,10.52-10.81s11,5.21,11,12.12-4.92,12.69-14.39,12.69c-11.25,0-18.39-7-18.39-17.38a13.65,13.65,0,0,1,1.45-6.57Zm20.32,9.46a5.22,5.22,0,0,0-5.26-5.55c-3.23,0-5.21,2.51-5.21,5.55a5.17,5.17,0,0,0,5.21,5.5A5.3,5.3,0,0,0,943.11,24.18Z"/><rect class="cls-7" x="954.4" y="12.01" width="12.32" height="104.72"/><rect class="cls-3" x="453.24" y="23.64" width="108.35" height="93.01"/><rect class="cls-7" x="-1.56" y="-7.18" width="54.7" height="179.82"/><rect class="cls-5" x="163" y="-0.83" width="95.47" height="34.22"/><rect class="cls-3" x="410.14" y="134.45" width="51.59" height="56.37"/><path class="cls-9" d="M480.51,114.57h0a28.39,28.39,0,0,1,56.73,0h0"/><rect class="cls-5" x="453.24" y="116.64" width="452.28" height="8.94"/><path class="cls-6" d="M53.14,7.58H-.15V84.7L23.67,65.62a4.81,4.81,0,0,1,6,0l23.44,19Z"/><polygon class="cls-6" points="53.29 -0.89 27.74 -0.89 26.51 -0.89 0 -0.89 0 76.23 26.85 54.73 53.29 76.23 53.29 -0.89"/><circle class="cls-3" cx="26.45" cy="85" r="6.61"/><rect class="cls-3" x="455.21" y="134.43" width="449.85" height="36.9"/><rect class="cls-6" x="905.05" y="116.27" width="75.49" height="54.94"/><polygon class="cls-6" points="1025.77 104.69 1002.33 104.69 1001.28 104.69 979.77 104.69 979.77 171.21 1002.94 152.74 1025.77 171.21 1025.77 104.69"/><polygon class="cls-5" points="1024.7 89.07 1002.33 89.07 1001.28 89.07 978.59 89.07 978.59 155.37 1001.82 136.91 1024.7 155.37 1024.7 89.07"/><polygon class="cls-6" points="1025.77 71.69 1002.33 71.69 1001.28 71.69 979.77 71.69 979.77 139.54 1002.94 121.08 1025.77 139.54 1025.77 71.69"/><polygon class="cls-5" points="1024.7 57.41 1002.33 57.41 1001.28 57.41 978.59 57.41 978.59 123.71 1001.82 105.25 1024.7 123.71 1024.7 57.41"/><polygon class="cls-6" points="1025.77 41.69 1002.33 41.69 1001.28 41.69 979.77 41.69 979.77 107.88 1002.94 89.41 1025.77 107.88 1025.77 41.69"/><polygon class="cls-5" points="1024.7 25.74 1002.33 25.74 1001.28 25.74 978.59 25.74 978.59 92.04 1001.82 73.58 1024.7 92.04 1024.7 25.74"/><polygon class="cls-6" points="1025.77 9.69 1002.33 9.69 1001.28 9.69 979.77 9.69 979.77 76.21 1002.94 57.75 1025.77 76.21 1025.77 9.69"/><polygon class="cls-5" points="1024.7 -5.92 1002.33 -5.92 1001.28 -5.92 978.59 -5.92 978.59 60.38 1001.82 41.91 1024.7 60.38 1024.7 -5.92"/><rect class="cls-7" x="455.67" y="125.6" width="449.67" height="8.83"/><path class="cls-6" d="M882.14,116.19l-19.66,22.47a7.55,7.55,0,0,0,0,9.9l19.7,22.85h-85.9V177H968.47V116.19Z"/><circle class="cls-3" cx="886.22" cy="143.76" r="7.34"/><polygon class="cls-7" points="455.73 134.25 437.89 152.79 455.94 171.34 402.99 171.34 402.94 134.38 455.73 134.25"/><path class="cls-5" d="M375.87,275.48V176.58l-40.6,98.91H312.38l-40.6-98.11v98.11H245.52V134.38h36.22l42.39,101.89,41.39-101.89h37.42v141.1Z"/><rect class="cls-1" y="0.5" width="1027" height="170.84"/><rect class="cls-6" x="245.55" y="-0.83" width="210.12" height="135.26"/></g><path class="cls-7" d="M602,12.72A16.28,16.28,0,1,1,585.54-3.56,16.27,16.27,0,0,1,602,12.72ZM455.85-.39h97.71V26H455.85Z"/></g><path class="cls-5" d="M132.84,84.78H84.46v69.56l22.24-17.67a3.41,3.41,0,0,1,4.26,0l21.89,17.66Z"/><circle class="cls-10" cx="109" cy="58.77" r="43.53"/><path class="cls-11" d="M70.56,60.72c0-.57,0-1.14,0-1.71a38.84,38.84,0,0,1,74.62-15.12"/><path class="cls-11" d="M71.69,70.51a38.85,38.85,0,0,0,74.05.49"/><path class="cls-10" d="M76.42,72.67a35.36,35.36,0,0,0,31.69,21.48h1.1a35.31,35.31,0,0,0,32.15-21.48"/><path class="cls-10" d="M73.65,60.6a35.33,35.33,0,0,1,30.7-36.74"/><path class="cls-10" d="M137,37.55a35.28,35.28,0,0,1,7.13,23.06"/><path class="cls-10" d="M109.17,23.49a35.09,35.09,0,0,1,7.43,1"/><line class="cls-10" x1="94.94" y1="76.76" x2="85.34" y2="76.76"/><line class="cls-10" x1="132.84" y1="77.22" x2="123.24" y2="77.22"/><path class="cls-7" d="M99.82,74.41h1L99.05,79.1h-.94l-1.73-4.68h1L98.6,77.9Z"/><path class="cls-7" d="M101.76,74.24a.54.54,0,1,1-.54.55A.54.54,0,0,1,101.76,74.24Zm-.44,4.86V75.85h.88V79.1Z"/><path class="cls-7" d="M106,78.17a1.46,1.46,0,0,1-1.48,1,1.73,1.73,0,0,1-.08-3.45,1.52,1.52,0,0,1,1.61,1.68c0,.13,0,.26,0,.27h-2.33a.79.79,0,0,0,.82.74.72.72,0,0,0,.74-.5Zm-.82-1.06a.65.65,0,0,0-.73-.64.7.7,0,0,0-.73.64Z"/><path class="cls-7" d="M107.87,75.85h.65v.78h-.65V78c0,.28.13.38.38.38a1.31,1.31,0,0,0,.27,0v.73a1.3,1.3,0,0,1-.5.08.94.94,0,0,1-1-1V76.63h-.59v-.78h.17a.47.47,0,0,0,.5-.52v-.46h.79Z"/><path class="cls-7" d="M110.1,79.1h-.88V75.85h.85v.4a1.08,1.08,0,0,1,.94-.49,1.14,1.14,0,0,1,1.18,1.29v2h-.88V77.2a.57.57,0,0,0-.6-.65.61.61,0,0,0-.61.67Z"/><path class="cls-7" d="M113.85,77.23l.8-.12c.19,0,.24-.12.24-.23s-.18-.42-.55-.42a.58.58,0,0,0-.62.53l-.78-.17a1.29,1.29,0,0,1,1.39-1.07c1,0,1.41.58,1.41,1.24v1.6a3.62,3.62,0,0,0,0,.52H115a2.23,2.23,0,0,1,0-.39,1.09,1.09,0,0,1-1,.48,1,1,0,0,1-1.12-1A1,1,0,0,1,113.85,77.23Zm1,.55v-.14l-.73.11a.41.41,0,0,0-.4.41.38.38,0,0,0,.42.38A.66.66,0,0,0,114.89,77.78Z"/><path class="cls-7" d="M116.63,79.1V75.85h.84v.4a1.12,1.12,0,0,1,1-.49,1,1,0,0,1,1,.54,1.2,1.2,0,0,1,2.21.69V79.1h-.85V77.17a.54.54,0,0,0-.57-.61.6.6,0,0,0-.6.64v1.9h-.87V77.17a.55.55,0,0,0-.57-.61.59.59,0,0,0-.61.64v1.9Z"/><path class="cls-7" d="M85.51,40a1.72,1.72,0,1,1-1.72,1.74A1.72,1.72,0,0,1,85.51,40ZM84.12,55.42V45.09h2.79V55.42Z"/><path class="cls-7" d="M90.11,55.42V40.54h9.32v2.73H93v3.4h5.82v2.58H93v3.44h6.42v2.73Z"/><path class="cls-7" d="M116.08,55.42V45L111.8,55.42h-2.41L105.1,45.07V55.42h-2.77V40.54h3.82l4.47,10.75L115,40.54h3.95V55.42Z"/><path class="cls-7" d="M131.2,52h-6l-1.24,3.4h-3.07l5.71-14.89h3.36l5.67,14.89h-3.15Zm-5.08-2.65h4.12l-2.06-5.63Z"/><path class="cls-7" d="M84.44,57.84a.48.48,0,1,1-.48.49A.48.48,0,0,1,84.44,57.84ZM84,62.16V59.27h.78v2.89Z"/><path class="cls-7" d="M86.53,60.59v1.57h-.81V58h1.56a1.3,1.3,0,1,1,0,2.6Zm.65-.7a.6.6,0,1,0,0-1.19h-.64v1.19Z"/><path class="cls-7" d="M90.91,60l-.24,0c-.4,0-.75.19-.75.82v1.32h-.78V59.27h.76v.43a.86.86,0,0,1,.82-.45h.18Z"/><path class="cls-7" d="M91.85,57.84a.48.48,0,1,1-.48.49A.48.48,0,0,1,91.85,57.84Zm-.39,4.32V59.27h.78v2.89Z"/><path class="cls-7" d="M93.64,60.71a.74.74,0,0,0,.74.82A.66.66,0,0,0,95,61l.69.23a1.34,1.34,0,0,1-1.35,1,1.5,1.5,0,0,1-1.52-1.53,1.48,1.48,0,0,1,1.5-1.53,1.32,1.32,0,0,1,1.36,1l-.7.24a.63.63,0,0,0-.64-.49A.74.74,0,0,0,93.64,60.71Z"/><path class="cls-7" d="M98.86,61.33a1.3,1.3,0,0,1-1.32.92,1.54,1.54,0,0,1-.07-3.07,1.35,1.35,0,0,1,1.43,1.5c0,.11,0,.23,0,.24H96.82a.7.7,0,0,0,.73.66.64.64,0,0,0,.66-.44Zm-.73-.95a.58.58,0,0,0-.65-.57.63.63,0,0,0-.65.57Z"/><path class="cls-7" d="M101,62.16V58h2.61v.76h-1.8v1h1.63v.72h-1.63v1h1.8v.76Z"/><path class="cls-7" d="M104.21,60.76v-.69h1.7v.69Z"/><path class="cls-7" d="M106.41,60.08a2.1,2.1,0,0,1,2.12-2.17,1.83,1.83,0,0,1,1.91,1.38l-.76.24a1.09,1.09,0,0,0-1.15-.84,1.39,1.39,0,0,0,0,2.77,1.16,1.16,0,0,0,1.17-.85l.76.23a1.89,1.89,0,0,1-1.93,1.42A2.08,2.08,0,0,1,106.41,60.08Z"/><path class="cls-7" d="M113.79,60.71a1.52,1.52,0,1,1-1.52-1.53A1.48,1.48,0,0,1,113.79,60.71Zm-.78,0a.74.74,0,1,0-.73.82A.74.74,0,0,0,113,60.71Z"/><path class="cls-7" d="M114.41,62.16V59.27h.75v.35a1,1,0,0,1,.85-.43.89.89,0,0,1,.86.48,1.07,1.07,0,0,1,2,.62v1.87h-.76V60.44a.48.48,0,0,0-.51-.55.53.53,0,0,0-.53.57v1.69h-.78V60.44a.48.48,0,0,0-.51-.55.53.53,0,0,0-.54.57v1.69Z"/><path class="cls-7" d="M119.6,62.16V59.27h.75v.35a1,1,0,0,1,.85-.43.89.89,0,0,1,.86.48,1.07,1.07,0,0,1,2,.62v1.87h-.76V60.44a.48.48,0,0,0-.51-.55.53.53,0,0,0-.53.57v1.69h-.78V60.44a.48.48,0,0,0-.51-.55.53.53,0,0,0-.54.57v1.69Z"/><path class="cls-7" d="M127.39,61.33a1.3,1.3,0,0,1-1.32.92,1.54,1.54,0,0,1-.07-3.07,1.35,1.35,0,0,1,1.43,1.5c0,.11,0,.23,0,.24h-2.07a.7.7,0,0,0,.73.66.64.64,0,0,0,.66-.44Zm-.73-.95a.58.58,0,0,0-.65-.57.63.63,0,0,0-.65.57Z"/><path class="cls-7" d="M129.81,60l-.24,0c-.4,0-.75.19-.75.82v1.32H128V59.27h.76v.43a.86.86,0,0,1,.82-.45h.18Z"/><path class="cls-7" d="M130.89,60.71a.74.74,0,0,0,.74.82.66.66,0,0,0,.66-.49l.69.23a1.34,1.34,0,0,1-1.35,1,1.5,1.5,0,0,1-1.52-1.53,1.48,1.48,0,0,1,1.5-1.53,1.32,1.32,0,0,1,1.36,1l-.7.24a.63.63,0,0,0-.64-.49A.74.74,0,0,0,130.89,60.71Z"/><path class="cls-7" d="M136.12,61.33a1.3,1.3,0,0,1-1.32.92,1.54,1.54,0,0,1-.07-3.07,1.35,1.35,0,0,1,1.43,1.5c0,.11,0,.23,0,.24h-2.07a.7.7,0,0,0,.73.66.64.64,0,0,0,.66-.44Zm-.73-.95a.58.58,0,0,0-.65-.57.63.63,0,0,0-.65.57Z"/><path class="cls-7" d="M82.2,68.9V66L81,68.9h-.68L79.12,66v2.9h-.78V64.73h1.07l1.25,3,1.22-3H83V68.9Z"/><path class="cls-7" d="M86.46,68.07a1.3,1.3,0,0,1-1.32.92,1.54,1.54,0,0,1-.07-3.07,1.35,1.35,0,0,1,1.43,1.5c0,.11,0,.23,0,.24H84.42a.7.7,0,0,0,.73.66.64.64,0,0,0,.66-.44Zm-.73-.95a.58.58,0,0,0-.65-.57.63.63,0,0,0-.65.57Z"/><path class="cls-7" d="M88.87,66.78l-.24,0c-.4,0-.75.19-.75.82V68.9h-.78V66h.76v.43a.86.86,0,0,1,.82-.45h.18Z"/><path class="cls-7" d="M90,67.45a.74.74,0,0,0,.74.82.66.66,0,0,0,.66-.49L92,68a1.34,1.34,0,0,1-1.35,1,1.5,1.5,0,0,1-1.52-1.53,1.48,1.48,0,0,1,1.5-1.53,1.32,1.32,0,0,1,1.36,1l-.7.24a.63.63,0,0,0-.64-.49A.74.74,0,0,0,90,67.45Z"/><path class="cls-7" d="M93.4,68.9h-.78V64.64h.78v1.6a1.09,1.09,0,0,1,1.86.83V68.9h-.78V67.21a.51.51,0,0,0-.53-.58.54.54,0,0,0-.54.56Z"/><path class="cls-7" d="M96.73,67.23l.71-.11c.16,0,.22-.11.22-.21s-.16-.38-.49-.38a.51.51,0,0,0-.55.47l-.69-.15a1.15,1.15,0,0,1,1.24-1c.92,0,1.26.52,1.26,1.1v1.42a3.26,3.26,0,0,0,0,.46h-.72a2,2,0,0,1,0-.35,1,1,0,0,1-.85.43.91.91,0,0,1-1-.87A.89.89,0,0,1,96.73,67.23Zm.93.49V67.6l-.65.1a.36.36,0,0,0-.36.36.34.34,0,0,0,.38.33A.59.59,0,0,0,97.66,67.73Z"/><path class="cls-7" d="M100,68.9h-.78V66H100v.36a1,1,0,0,1,.83-.43,1,1,0,0,1,1,1.15V68.9h-.78V67.21a.51.51,0,0,0-.53-.58.54.54,0,0,0-.54.6Z"/><path class="cls-7" d="M103.6,66h.58v.69h-.58v1.21c0,.25.12.33.34.33l.24,0v.65a1.16,1.16,0,0,1-.44.07.84.84,0,0,1-.92-.89V66.7h-.52V66h.15a.42.42,0,0,0,.45-.46v-.41h.7Z"/><path class="cls-7" d="M108.81,67.94h-1.69l-.35,1h-.86l1.6-4.17h.94L110,68.9h-.88Zm-1.42-.74h1.15L108,65.63Z"/><path class="cls-7" d="M112.79,66l.62,1.86.53-1.86h.78l-.9,2.89H113l-.68-2-.66,2h-.79L110,66h.82l.53,1.86L112,66Z"/><path class="cls-7" d="M115.88,67.23l.71-.11c.16,0,.22-.11.22-.21s-.16-.38-.49-.38a.51.51,0,0,0-.55.47l-.69-.15a1.15,1.15,0,0,1,1.24-1c.92,0,1.26.52,1.26,1.1v1.42a3.26,3.26,0,0,0,0,.46h-.72a2,2,0,0,1,0-.35A1,1,0,0,1,116,69a.91.91,0,0,1-1-.87A.89.89,0,0,1,115.88,67.23Zm.93.49V67.6l-.65.1a.36.36,0,0,0-.36.36.34.34,0,0,0,.38.33A.59.59,0,0,0,116.81,67.73Z"/><path class="cls-7" d="M120.12,66.78l-.24,0c-.4,0-.75.19-.75.82V68.9h-.78V66h.76v.43a.86.86,0,0,1,.82-.45h.18Z"/><path class="cls-7" d="M123.4,68.37c0,.19,0,.41,0,.52h-.75a2,2,0,0,1,0-.33.91.91,0,0,1-.81.41,1.52,1.52,0,0,1,0-3,.87.87,0,0,1,.82.36V64.64h.77Zm-1.47-.11a.73.73,0,0,0,.71-.83.72.72,0,0,0-.71-.8.82.82,0,0,0,0,1.63Z"/><path class="cls-7" d="M124.66,67.94a.48.48,0,0,0,.53.44c.26,0,.38-.13.38-.29s-.09-.24-.31-.28l-.38-.09c-.56-.12-.81-.46-.81-.86a1.14,1.14,0,0,1,2.21-.11l-.65.15a.44.44,0,0,0-.48-.39.33.33,0,0,0-.37.29c0,.14.11.23.26.26l.41.09c.57.12.86.46.86.89a1,1,0,0,1-1.12,1,1.09,1.09,0,0,1-1.2-.89Z"/><path class="cls-12" d="M128.22,66.53a1.44,1.44,0,0,1,0-.26A1.29,1.29,0,0,1,129.58,65,1.26,1.26,0,0,1,131,66.22a1.37,1.37,0,0,1-.74,1.18l-.73.45a.78.78,0,0,0-.33.35H131v.7h-2.82a1.74,1.74,0,0,1,.9-1.63l.63-.38a.74.74,0,0,0,.45-.66.52.52,0,0,0-.58-.52.58.58,0,0,0-.6.63.85.85,0,0,0,0,.21Z"/><path class="cls-12" d="M131.73,65.64A1.44,1.44,0,0,1,133,65a1.42,1.42,0,0,1,1.25.64,2.87,2.87,0,0,1,0,2.71A1.42,1.42,0,0,1,133,69a1.44,1.44,0,0,1-1.26-.64,2.92,2.92,0,0,1,0-2.71Zm.68,2.33a.63.63,0,0,0,.58.31.62.62,0,0,0,.57-.31,2.33,2.33,0,0,0,0-1.94.62.62,0,0,0-.57-.31.64.64,0,0,0-.58.31,2.39,2.39,0,0,0,0,1.94Z"/><path class="cls-12" d="M135.85,68.9V66.35h-.92V65.8a1,1,0,0,0,1-.72h.7V68.9Z"/><path class="cls-12" d="M140.08,65.83a1.62,1.62,0,0,0-.63-.14,1.19,1.19,0,0,0-1.26,1.09,1.08,1.08,0,0,1,.9-.42,1.22,1.22,0,0,1,1.32,1.28A1.37,1.37,0,0,1,138.94,69a1.56,1.56,0,0,1-1.55-1.75A2.05,2.05,0,0,1,139.51,65a1.66,1.66,0,0,1,.8.18Zm-1.15,2.47a.64.64,0,1,0,0-1.27.63.63,0,0,0-.67.63A.64.64,0,0,0,138.93,68.3Z"/><path class="cls-10" d="M70.52,64.32s-.82,12,12.84,24"/><path class="cls-10" d="M146.07,46.93s4.49,14.7-1.88,28.09"/><path class="cls-13" d="M120.65,25.42a33.58,33.58,0,0,1,14,9.21"/><path class="cls-7" d="M263.92,33.2a1.68,1.68,0,1,1-1.68,1.7A1.68,1.68,0,0,1,263.92,33.2Zm-1.35,15V38.19h2.72V48.24Z"/><path class="cls-7" d="M271.22,42.79v5.46H268.4V33.75h5.42a4.52,4.52,0,1,1,0,9Zm2.25-2.43a2.08,2.08,0,1,0,0-4.15h-2.23v4.15Z"/><path class="cls-7" d="M286.47,40.88a4.11,4.11,0,0,0-.82-.08c-1.39,0-2.6.67-2.6,2.84v4.6h-2.72V38.19H283v1.49a3,3,0,0,1,2.86-1.57,6.21,6.21,0,0,1,.63,0Z"/><path class="cls-7" d="M289.74,33.2a1.68,1.68,0,1,1-1.68,1.7A1.68,1.68,0,0,1,289.74,33.2Zm-1.35,15V38.19h2.72V48.24Z"/><path class="cls-7" d="M296,43.21a2.59,2.59,0,0,0,2.58,2.84,2.3,2.3,0,0,0,2.31-1.7l2.39.8a4.67,4.67,0,0,1-4.7,3.39,5.2,5.2,0,0,1-5.29-5.33,5.15,5.15,0,0,1,5.21-5.33,4.6,4.6,0,0,1,4.72,3.39l-2.43.82a2.19,2.19,0,0,0-2.23-1.7A2.56,2.56,0,0,0,296,43.21Z"/><path class="cls-7" d="M314.17,45.36a4.53,4.53,0,0,1-4.58,3.19,5.09,5.09,0,0,1-5.19-5.38,5,5,0,0,1,4.95-5.29c3.11,0,5,2,5,5.21,0,.39,0,.8,0,.84h-7.2a2.45,2.45,0,0,0,2.53,2.29,2.22,2.22,0,0,0,2.29-1.53Zm-2.53-3.29a2,2,0,0,0-2.25-2,2.18,2.18,0,0,0-2.25,2Z"/><path class="cls-7" d="M321.72,48.24V33.75h9.08v2.66h-6.25v3.31h5.66v2.51h-5.66v3.35h6.25v2.66Z"/><path class="cls-7" d="M332.84,43.38V41h5.93v2.41Z"/><path class="cls-7" d="M340.48,41a7.31,7.31,0,0,1,7.38-7.56c4,0,6.07,2.45,6.64,4.8l-2.66.84a3.79,3.79,0,0,0-4-2.92A4.46,4.46,0,0,0,343.4,41a4.47,4.47,0,0,0,4.5,4.78,4,4,0,0,0,4.07-3l2.64.8a6.59,6.59,0,0,1-6.7,4.93A7.24,7.24,0,0,1,340.48,41Z"/><path class="cls-7" d="M366.2,43.21a5.27,5.27,0,1,1-5.27-5.33A5.16,5.16,0,0,1,366.2,43.21Zm-2.72,0a2.57,2.57,0,1,0-5.11,0,2.57,2.57,0,1,0,5.11,0Z"/><path class="cls-7" d="M368.35,48.24V38.19h2.6v1.23a3.46,3.46,0,0,1,2.94-1.51,3.11,3.11,0,0,1,3,1.68,3.72,3.72,0,0,1,6.83,2.15v6.52h-2.64v-6a1.68,1.68,0,0,0-1.78-1.9,1.85,1.85,0,0,0-1.86,2v5.89h-2.7v-6a1.69,1.69,0,0,0-1.78-1.9,1.84,1.84,0,0,0-1.88,2v5.89Z"/><path class="cls-7" d="M386.46,48.24V38.19h2.6v1.23A3.46,3.46,0,0,1,392,37.9a3.11,3.11,0,0,1,3,1.68,3.72,3.72,0,0,1,6.83,2.15v6.52h-2.64v-6a1.68,1.68,0,0,0-1.78-1.9,1.85,1.85,0,0,0-1.86,2v5.89h-2.7v-6a1.69,1.69,0,0,0-1.78-1.9,1.84,1.84,0,0,0-1.88,2v5.89Z"/><path class="cls-7" d="M413.58,45.36A4.53,4.53,0,0,1,409,48.55a5.09,5.09,0,0,1-5.19-5.38,5,5,0,0,1,4.95-5.29c3.11,0,5,2,5,5.21,0,.39,0,.8,0,.84h-7.2A2.45,2.45,0,0,0,409,46.22a2.22,2.22,0,0,0,2.29-1.53ZM411,42.07a2,2,0,0,0-2.25-2,2.18,2.18,0,0,0-2.25,2Z"/><path class="cls-7" d="M422,40.88a4.11,4.11,0,0,0-.82-.08c-1.39,0-2.6.67-2.6,2.84v4.6h-2.72V38.19h2.64v1.49a3,3,0,0,1,2.86-1.57,6.21,6.21,0,0,1,.63,0Z"/><path class="cls-7" d="M425.79,43.21a2.59,2.59,0,0,0,2.58,2.84,2.3,2.3,0,0,0,2.31-1.7l2.39.8a4.67,4.67,0,0,1-4.7,3.39,5.2,5.2,0,0,1-5.29-5.33,5.15,5.15,0,0,1,5.21-5.33A4.6,4.6,0,0,1,433,41.27l-2.43.82a2.19,2.19,0,0,0-2.23-1.7A2.56,2.56,0,0,0,425.79,43.21Z"/><path class="cls-7" d="M444,45.36a4.53,4.53,0,0,1-4.58,3.19,5.09,5.09,0,0,1-5.19-5.38,5,5,0,0,1,4.95-5.29c3.11,0,5,2,5,5.21,0,.39,0,.8,0,.84h-7.2a2.45,2.45,0,0,0,2.53,2.29,2.22,2.22,0,0,0,2.29-1.53Zm-2.53-3.29a2,2,0,0,0-2.25-2,2.18,2.18,0,0,0-2.25,2Z"/><path class="cls-7" d="M276.17,68.22V58.06L272,68.22h-2.35l-4.17-10.08V68.22h-2.7V53.73h3.72l4.35,10.47,4.25-10.47h3.84V68.22Z"/><path class="cls-7" d="M291,65.34a4.53,4.53,0,0,1-4.58,3.19,5.34,5.34,0,0,1-.25-10.67c3.11,0,5,2,5,5.21,0,.39,0,.8,0,.84h-7.2a2.45,2.45,0,0,0,2.53,2.29,2.22,2.22,0,0,0,2.29-1.53ZM288.48,62a2,2,0,0,0-2.25-2A2.18,2.18,0,0,0,284,62Z"/><path class="cls-7" d="M299.43,60.86a4.11,4.11,0,0,0-.82-.08c-1.39,0-2.6.67-2.6,2.84v4.6H293.3V58.16h2.64v1.49a3,3,0,0,1,2.86-1.57,6.21,6.21,0,0,1,.63,0Z"/><path class="cls-7" d="M303.22,63.19A2.59,2.59,0,0,0,305.79,66a2.3,2.3,0,0,0,2.31-1.7l2.39.8a4.67,4.67,0,0,1-4.7,3.39,5.2,5.2,0,0,1-5.29-5.33,5.15,5.15,0,0,1,5.21-5.33,4.6,4.6,0,0,1,4.72,3.39l-2.43.82a2.19,2.19,0,0,0-2.23-1.7A2.56,2.56,0,0,0,303.22,63.19Z"/><path class="cls-7" d="M315.21,68.22H312.5V53.42h2.72V59a3.59,3.59,0,0,1,2.72-1.1c2.55,0,3.74,1.78,3.74,4v6.34H319V62.36a1.77,1.77,0,0,0-1.86-2,1.88,1.88,0,0,0-1.88,2Z"/><path class="cls-7" d="M326.83,62.44l2.47-.37c.57-.08.76-.37.76-.72,0-.72-.55-1.31-1.7-1.31a1.79,1.79,0,0,0-1.92,1.64L324,61.17c.16-1.57,1.61-3.31,4.31-3.31,3.19,0,4.37,1.8,4.37,3.82v4.95a11.3,11.3,0,0,0,.12,1.59h-2.49a6.8,6.8,0,0,1-.1-1.21,3.36,3.36,0,0,1-3,1.49,3.18,3.18,0,0,1-3.45-3C323.82,63.68,325.15,62.68,326.83,62.44Zm3.23,1.72V63.7l-2.27.35a1.27,1.27,0,0,0-1.25,1.27,1.18,1.18,0,0,0,1.31,1.16A2,2,0,0,0,330.06,64.15Z"/><path class="cls-7" d="M338.17,68.22h-2.72V58.16h2.64v1.25A3.34,3.34,0,0,1,341,57.9c2.49,0,3.64,1.78,3.64,4v6.34h-2.72V62.36a1.77,1.77,0,0,0-1.86-2,1.89,1.89,0,0,0-1.88,2.08Z"/><path class="cls-7" d="M350.74,58.16h2v2.41h-2v4.21c0,.88.41,1.17,1.19,1.17a4,4,0,0,0,.84-.08v2.25a4,4,0,0,1-1.53.25A2.91,2.91,0,0,1,348,65.26V60.58h-1.82V58.16h.51a1.45,1.45,0,0,0,1.55-1.59V55.16h2.45Z"/><path class="cls-7" d="M271.41,84.89h-5.89l-1.21,3.31h-3l5.56-14.49h3.27l5.52,14.49h-3.07Zm-4.95-2.58h4l-2-5.48Z"/><path class="cls-7" d="M285.29,78.14l2.17,6.48,1.86-6.48H292L288.86,88.2h-2.72l-2.35-6.87-2.31,6.87h-2.76l-3.21-10.06h2.86l1.86,6.46,2.19-6.46Z"/><path class="cls-7" d="M296.06,82.42l2.47-.37c.57-.08.76-.37.76-.72,0-.72-.55-1.31-1.7-1.31a1.79,1.79,0,0,0-1.92,1.64l-2.41-.51c.16-1.57,1.61-3.31,4.31-3.31,3.19,0,4.37,1.8,4.37,3.82v4.95a11.3,11.3,0,0,0,.12,1.59h-2.49a6.8,6.8,0,0,1-.1-1.21,3.36,3.36,0,0,1-3,1.49,3.18,3.18,0,0,1-3.45-3C293.06,83.66,294.38,82.66,296.06,82.42Zm3.23,1.72v-.45L297,84a1.27,1.27,0,0,0-1.25,1.27,1.18,1.18,0,0,0,1.31,1.16A2,2,0,0,0,299.29,84.13Z"/><path class="cls-7" d="M310.82,80.84a4.11,4.11,0,0,0-.82-.08c-1.39,0-2.6.67-2.6,2.84v4.6h-2.72V78.14h2.64v1.49a3,3,0,0,1,2.86-1.57,6.21,6.21,0,0,1,.63,0Z"/><path class="cls-7" d="M322.23,86.38c0,.67,0,1.41.08,1.82h-2.6a7,7,0,0,1-.1-1.16,3.15,3.15,0,0,1-2.82,1.41c-2.86,0-4.91-2.25-4.91-5.29s2-5.25,4.82-5.25c1.74,0,2.55.72,2.84,1.25V73.4h2.68ZM317.12,86c1.39,0,2.47-1.06,2.47-2.88a2.49,2.49,0,0,0-2.47-2.8,2.52,2.52,0,0,0-2.49,2.82C314.62,85,315.69,86,317.12,86Z"/><path class="cls-7" d="M326.64,84.89a1.67,1.67,0,0,0,1.84,1.53c.9,0,1.33-.47,1.33-1s-.31-.82-1.08-1l-1.33-.31c-1.94-.43-2.82-1.59-2.82-3a3.51,3.51,0,0,1,3.76-3.29c2.86,0,3.82,1.82,3.95,2.9l-2.27.51a1.53,1.53,0,0,0-1.66-1.35,1.16,1.16,0,0,0-1.29,1c0,.49.37.8.92.9l1.43.31c2,.41,3,1.61,3,3.09,0,1.64-1.27,3.31-3.9,3.31-3,0-4.07-2-4.19-3.11Z"/><path class="cls-7" d="M339.05,80a5,5,0,0,1-.1-.92c0-2.33,1.76-4.44,4.84-4.44s4.78,2,4.78,4.27A4.76,4.76,0,0,1,346,83l-2.56,1.55a2.7,2.7,0,0,0-1.14,1.21h6.36V88.2h-9.81A6.06,6.06,0,0,1,342,82.54l2.19-1.31a2.59,2.59,0,0,0,1.57-2.29,1.81,1.81,0,0,0-2-1.82,2,2,0,0,0-2.11,2.21,2.9,2.9,0,0,0,.1.74Z"/><path class="cls-7" d="M351.3,76.86a5,5,0,0,1,4.37-2.23A5,5,0,0,1,360,76.86a10,10,0,0,1,0,9.44,5,5,0,0,1-4.35,2.23,5,5,0,0,1-4.37-2.23,8.46,8.46,0,0,1-1.16-4.72A8.46,8.46,0,0,1,351.3,76.86ZM353.67,85a2.21,2.21,0,0,0,2,1.08,2.16,2.16,0,0,0,2-1.08,6.21,6.21,0,0,0,.74-3.37,6.21,6.21,0,0,0-.74-3.37,2.16,2.16,0,0,0-2-1.08,2.21,2.21,0,0,0-2,1.08,8.31,8.31,0,0,0,0,6.75Z"/><path class="cls-7" d="M365.65,88.2V79.33h-3.19v-1.9A3.39,3.39,0,0,0,366,74.93h2.43V88.2Z"/><path class="cls-7" d="M380.37,77.53a5.67,5.67,0,0,0-2.19-.47,4.16,4.16,0,0,0-4.39,3.8,3.75,3.75,0,0,1,3.15-1.47,4.25,4.25,0,0,1,4.58,4.46c0,2.72-2.21,4.66-5.13,4.66S371,86.42,371,82.42c0-4.76,3-7.79,7.36-7.79a5.77,5.77,0,0,1,2.78.61Zm-4,8.61a2.22,2.22,0,1,0,0-4.44A2.19,2.19,0,0,0,374,83.91,2.24,2.24,0,0,0,376.36,86.14Z"/><path class="cls-5" d="M269.58,93.86h2.32l-4.19,11.29h-2.26l-4.17-11.29h2.4l2.94,8.39Z"/><path class="cls-5" d="M274.24,93.43a1.31,1.31,0,1,1-1.31,1.32A1.3,1.3,0,0,1,274.24,93.43Zm-1.05,11.72V97.32h2.12v7.83Z"/><path class="cls-5" d="M284.59,102.9a3.53,3.53,0,0,1-3.57,2.48,4.16,4.16,0,0,1-.19-8.31c2.42,0,3.87,1.54,3.87,4.06,0,.3,0,.62,0,.65h-5.6a1.91,1.91,0,0,0,2,1.78,1.73,1.73,0,0,0,1.78-1.19Zm-2-2.56a1.57,1.57,0,0,0-1.75-1.54,1.69,1.69,0,0,0-1.75,1.54Z"/><path class="cls-5" d="M289,97.32h1.58v1.88H289v3.28c0,.68.32.91.92.91a3.07,3.07,0,0,0,.65-.06v1.75a3.14,3.14,0,0,1-1.19.19,2.27,2.27,0,0,1-2.48-2.42V99.19h-1.42V97.32h.4a1.13,1.13,0,0,0,1.21-1.24V95H289Z"/><path class="cls-5" d="M294.36,105.15h-2.12V97.32h2.05v1a2.6,2.6,0,0,1,2.26-1.18c1.94,0,2.83,1.38,2.83,3.1v4.93h-2.12v-4.57A1.38,1.38,0,0,0,295.83,99a1.47,1.47,0,0,0-1.46,1.62Z"/><path class="cls-5" d="M303.41,100.64l1.93-.29c.45-.06.59-.29.59-.56,0-.56-.43-1-1.32-1a1.39,1.39,0,0,0-1.5,1.27l-1.88-.4a3.11,3.11,0,0,1,3.36-2.58c2.48,0,3.41,1.4,3.41,3v3.85a8.77,8.77,0,0,0,.1,1.24h-1.94a5.3,5.3,0,0,1-.08-.94,2.62,2.62,0,0,1-2.31,1.16,2.47,2.47,0,0,1-2.69-2.36A2.41,2.41,0,0,1,303.41,100.64Zm2.51,1.34v-.35l-1.77.27a1,1,0,0,0-1,1,.92.92,0,0,0,1,.91A1.59,1.59,0,0,0,305.92,102Z"/><path class="cls-5" d="M310.13,105.15V97.32h2v1a2.69,2.69,0,0,1,2.29-1.18,2.42,2.42,0,0,1,2.32,1.31,2.9,2.9,0,0,1,5.32,1.67v5.08H320V100.5A1.31,1.31,0,0,0,318.64,99a1.44,1.44,0,0,0-1.45,1.54v4.58h-2.1V100.5A1.31,1.31,0,0,0,313.71,99a1.43,1.43,0,0,0-1.46,1.54v4.58Z"/></svg>