<svg id="Layer_1" data-name="Layer 1" xmlns="http://www.w3.org/2000/svg" xmlns:xlink="http://www.w3.org/1999/xlink" viewBox="0 0 320 51.36"><defs><style>.cls-1{fill:none;}.cls-2{fill:#f1f3f2;}.cls-3{clip-path:url(#clip-path);}.cls-4{clip-path:url(#clip-path-2);}.cls-5{fill:#fff;}.cls-6{fill:#f63;}.cls-7{fill:#3cc;}</style><clipPath id="clip-path"><rect class="cls-1" x="-27.92" y="-151.81" width="1160.24" height="73.52"/></clipPath><clipPath id="clip-path-2"><rect class="cls-1" width="810.9" height="51.36"/></clipPath></defs><title>Artboard 69 copy 3</title><rect class="cls-2" width="320.64" height="51.36"/><g class="cls-3"><rect class="cls-1" x="90.61" y="-150.61" width="285.94" height="237.78"/></g><g class="cls-4"><circle class="cls-5" cx="41.93" cy="40.14" r="3.99"/><circle class="cls-6" cx="49.09" cy="51.15" r="3.99"/><circle class="cls-5" cx="67.35" cy="51.15" r="3.99"/><circle class="cls-5" cx="80.92" cy="35.42" r="3.99"/><path class="cls-7" d="M-5.34,51.36V24.6H11.42v4.91H-.13v6.11H10.32v4.64H-.13v6.19H11.42v4.91Z"/><polygon class="cls-7" points="9.67 11.24 4.84 7.01 0 11.29 0 0 9.64 0 9.67 11.24"/><path class="cls-5" d="M17.46,18.25a2.08,2.08,0,1,1-2.11-2.08A2.08,2.08,0,0,1,17.46,18.25ZM-1.22,16.58H11.27V20H-1.22Z"/><rect class="cls-1" x="83.15" y="0.84" width="199.76" height="166.11"/><rect class="cls-6" x="303.37" y="8.51" width="3.94" height="30.53" transform="translate(329.11 -281.57) rotate(90)"/><rect class="cls-6" x="305.85" y="18.6" width="3.94" height="25.57" transform="translate(339.19 -276.43) rotate(90)"/><rect class="cls-6" x="305.85" y="26.21" width="3.94" height="25.57" transform="translate(346.8 -268.82) rotate(90)"/><circle class="cls-5" cx="272.63" cy="22.3" r="2.51"/><circle class="cls-6" cx="277.14" cy="29.24" r="2.51"/><circle class="cls-5" cx="288.66" cy="34.72" r="2.51"/><circle class="cls-5" cx="297.22" cy="19.32" r="2.51"/><path class="cls-7" d="M292.41,34.82h-10.9L279.28,41h-5.52L284,14.13h6.05L300.32,41h-5.67Zm-9.16-4.77h7.42L287,19.92Z"/></g><path class="cls-6" d="M39.34,22.44h-2V14.79H34.85V13.16h7v1.64H39.34Z"/><path class="cls-6" d="M43.86,14.56q-.4-.28-1.17-.9t-1.21-1v-.13h2.17a18.07,18.07,0,0,0,1.49,1.91v.17Zm1.21,7.88H43.13v-7.1h1.94Z"/><path class="cls-6" d="M53.46,22.44H51.52V18.29a2.09,2.09,0,0,0-.26-1.15.9.9,0,0,0-.81-.38,1.17,1.17,0,0,0-1.08.55A3.58,3.58,0,0,0,49,19.1v3.34H47.1v-7.1h1.48l.26.91h.11a2,2,0,0,1,.82-.77A2.69,2.69,0,0,1,51,15.21a2.23,2.23,0,0,1,2.16,1h.17a1.91,1.91,0,0,1,.84-.77,2.8,2.8,0,0,1,1.25-.27,2.48,2.48,0,0,1,1.83.62,2.72,2.72,0,0,1,.62,2v4.63H55.94V18.29a2.09,2.09,0,0,0-.26-1.15.9.9,0,0,0-.81-.38,1.21,1.21,0,0,0-1.06.51,2.88,2.88,0,0,0-.35,1.61Z"/><path class="cls-6" d="M69.8,22.44H67.86V18.29q0-1.54-1.14-1.54a1.3,1.3,0,0,0-1.17.55,3.37,3.37,0,0,0-.36,1.79v3.34H63.24V12.56h1.94v2q0,.24,0,1.1l0,.57h.1a2.24,2.24,0,0,1,2.06-1,2.51,2.51,0,0,1,1.9.67,2.67,2.67,0,0,1,.65,1.93Z"/><path class="cls-6" d="M71.71,13.51q0-.95,1.05-.95t1.05.95a.92.92,0,0,1-.26.7,1.11,1.11,0,0,1-.79.25Q71.71,14.46,71.71,13.51Zm2,8.93H71.79v-7.1h1.94Z"/><path class="cls-6" d="M79,22.56a3.66,3.66,0,0,1-2.68-.95,3.58,3.58,0,0,1-1-2.68,3.94,3.94,0,0,1,.89-2.76,3.18,3.18,0,0,1,2.47-1,3.13,3.13,0,0,1,2.34.86,3.24,3.24,0,0,1,.84,2.37v.94H77.29a1.87,1.87,0,0,0,.49,1.29,1.72,1.72,0,0,0,1.28.46A5.33,5.33,0,0,0,80.27,21a6.06,6.06,0,0,0,1.19-.43v1.5a4.53,4.53,0,0,1-1.09.38A6.8,6.8,0,0,1,79,22.56Zm2.08-8H80a11.21,11.21,0,0,1-1.34-1.05,12.86,12.86,0,0,1-1.34,1.05h-1v-.17a20.71,20.71,0,0,0,1.37-1.78h2q.34.5.76,1t.61.74Zm-2.35,2a1.23,1.23,0,0,0-1,.39,1.8,1.8,0,0,0-.4,1.11H80A1.61,1.61,0,0,0,79.67,17,1.26,1.26,0,0,0,78.7,16.58Zm3.62-4.51a.85.85,0,0,1-.79.88l0,.39h-.81l-.06-.74a1.45,1.45,0,0,0,.56-.11.31.31,0,0,0,.21-.28.29.29,0,0,0-.12-.23.62.62,0,0,0-.39-.1,1.74,1.74,0,0,0-.46.06v-.81a2.77,2.77,0,0,1,.58,0,1.76,1.76,0,0,1,1,.23A.81.81,0,0,1,82.32,12.08Z"/><path class="cls-6" d="M88.46,22.44l-.26-.91h-.1a2.05,2.05,0,0,1-.88.77,3,3,0,0,1-1.3.27A2.48,2.48,0,0,1,84,21.89,2.7,2.7,0,0,1,83.4,20V15.34h1.94v4.15a2,2,0,0,0,.27,1.15,1,1,0,0,0,.87.38,1.31,1.31,0,0,0,1.17-.54,3.37,3.37,0,0,0,.36-1.8V15.34h1.94v7.1Z"/><path class="cls-6" d="M98.35,21a4.21,4.21,0,0,0,1.22-.22v1.44a4.35,4.35,0,0,1-1.78.32A2.18,2.18,0,0,1,96.1,22a2.56,2.56,0,0,1-.53-1.76V16.79h-.93V16l1.07-.65.56-1.5H97.5v1.51h2v1.45h-2v3.42a.76.76,0,0,0,.23.61A.92.92,0,0,0,98.35,21Z"/><path class="cls-6" d="M107.55,22.44h-1.94V18.29q0-1.54-1.14-1.54a1.3,1.3,0,0,0-1.17.55,3.37,3.37,0,0,0-.36,1.79v3.34H101V12.56h1.94v2q0,.24,0,1.1l0,.57h.1a2.24,2.24,0,0,1,2.06-1,2.51,2.51,0,0,1,1.9.67,2.67,2.67,0,0,1,.65,1.93Z"/><path class="cls-6" d="M112.76,22.56a3.66,3.66,0,0,1-2.68-.95,3.58,3.58,0,0,1-1-2.68,3.94,3.94,0,0,1,.89-2.76,3.18,3.18,0,0,1,2.47-1,3.13,3.13,0,0,1,2.34.86,3.24,3.24,0,0,1,.84,2.37v.94h-4.58a1.87,1.87,0,0,0,.49,1.29,1.72,1.72,0,0,0,1.28.46,5.33,5.33,0,0,0,1.21-.13,6.06,6.06,0,0,0,1.19-.43v1.5a4.53,4.53,0,0,1-1.09.38A6.8,6.8,0,0,1,112.76,22.56Zm1.23-8a6.74,6.74,0,0,1-1.49-1.12A7.83,7.83,0,0,1,111,14.56h-1.29v-.17a11.18,11.18,0,0,0,1.63-1.91h2.27a7.18,7.18,0,0,0,.68.9q.49.57.94,1v.17Zm-1.5,2a1.23,1.23,0,0,0-1,.39,1.8,1.8,0,0,0-.4,1.11h2.72a1.61,1.61,0,0,0-.37-1.11A1.26,1.26,0,0,0,112.48,16.58Z"/><path class="cls-6" d="M123.58,22.44h-1.94V18.29a2.09,2.09,0,0,0-.26-1.15.9.9,0,0,0-.81-.38,1.17,1.17,0,0,0-1.08.55,3.58,3.58,0,0,0-.34,1.8v3.34h-1.94v-7.1h1.48l.26.91h.11a2,2,0,0,1,.82-.77,2.69,2.69,0,0,1,1.24-.28,2.23,2.23,0,0,1,2.16,1h.17a1.91,1.91,0,0,1,.84-.77,2.8,2.8,0,0,1,1.25-.27,2.48,2.48,0,0,1,1.83.62,2.72,2.72,0,0,1,.62,2v4.63h-1.94V18.29a2.09,2.09,0,0,0-.26-1.15.9.9,0,0,0-.81-.38,1.21,1.21,0,0,0-1.06.51,2.88,2.88,0,0,0-.35,1.61Z"/><path class="cls-6" d="M133.29,13.51q0-.95,1.05-.95t1.05.95a.92.92,0,0,1-.26.7,1.11,1.11,0,0,1-.79.25Q133.29,14.46,133.29,13.51Zm2,8.93h-1.94v-7.1h1.94Z"/><path class="cls-6" d="M143.9,16.05a2.84,2.84,0,0,1-.94,2.29,4,4,0,0,1-2.66.79h-.84v3.3h-2V13.16h3a3.94,3.94,0,0,1,2.57.73A2.65,2.65,0,0,1,143.9,16.05Zm-4.44,1.47h.65a2.16,2.16,0,0,0,1.36-.36,1.25,1.25,0,0,0,.45-1,1.29,1.29,0,0,0-.38-1,1.77,1.77,0,0,0-1.18-.33h-.9Z"/><path class="cls-6" d="M149.46,15.21a3.13,3.13,0,0,1,.65.06L150,17.08a2.21,2.21,0,0,0-.57-.06,2.05,2.05,0,0,0-1.44.48,1.72,1.72,0,0,0-.52,1.33v3.61H145.5v-7.1H147l.29,1.19h.1a2.66,2.66,0,0,1,.89-1A2.2,2.2,0,0,1,149.46,15.21Z"/><path class="cls-6" d="M151.32,13.51q0-.95,1.05-.95t1.05.95a.92.92,0,0,1-.26.7,1.11,1.11,0,0,1-.79.25Q151.32,14.46,151.32,13.51Zm2,8.93H151.4v-7.1h1.94Z"/><path class="cls-6" d="M158.25,22.56q-3.31,0-3.31-3.64a3.88,3.88,0,0,1,.9-2.76,3.38,3.38,0,0,1,2.58-1,4.92,4.92,0,0,1,2.21.48l-.57,1.5q-.46-.18-.85-.3a2.72,2.72,0,0,0-.79-.12q-1.51,0-1.51,2.15T158.42,21a3.46,3.46,0,0,0,1-.15,3.75,3.75,0,0,0,1-.47V22a3.13,3.13,0,0,1-.95.41A5.34,5.34,0,0,1,158.25,22.56Z"/><path class="cls-6" d="M165.26,22.56a3.66,3.66,0,0,1-2.68-.95,3.58,3.58,0,0,1-1-2.68,3.94,3.94,0,0,1,.89-2.76,3.18,3.18,0,0,1,2.47-1,3.13,3.13,0,0,1,2.34.86,3.24,3.24,0,0,1,.84,2.37v.94h-4.58a1.87,1.87,0,0,0,.49,1.29,1.72,1.72,0,0,0,1.28.46,5.33,5.33,0,0,0,1.21-.13,6.06,6.06,0,0,0,1.19-.43v1.5a4.53,4.53,0,0,1-1.09.38A6.8,6.8,0,0,1,165.26,22.56Zm-.27-6a1.23,1.23,0,0,0-1,.39,1.8,1.8,0,0,0-.4,1.11h2.72A1.61,1.61,0,0,0,166,17,1.26,1.26,0,0,0,165,16.58Z"/><path class="cls-6" d="M178.61,22.44h-5.34V13.16h5.34v1.61h-3.38v2h3.14v1.61h-3.14v2.39h3.38Z"/><path class="cls-6" d="M179.76,19.75V18.16h3.41v1.59Z"/><path class="cls-6" d="M188.67,14.66a2,2,0,0,0-1.72.83,3.88,3.88,0,0,0-.61,2.33q0,3.1,2.33,3.1a7.37,7.37,0,0,0,2.37-.49v1.65a6.58,6.58,0,0,1-2.55.48,3.89,3.89,0,0,1-3.1-1.23,5.2,5.2,0,0,1-1.07-3.53,5.75,5.75,0,0,1,.53-2.54,3.81,3.81,0,0,1,1.51-1.67,4.48,4.48,0,0,1,2.31-.58,6.24,6.24,0,0,1,2.72.65l-.63,1.6a10.4,10.4,0,0,0-1-.43A3.13,3.13,0,0,0,188.67,14.66Z"/><path class="cls-6" d="M199.31,18.88a3.81,3.81,0,0,1-.91,2.71,3.31,3.31,0,0,1-2.54,1,3.56,3.56,0,0,1-1.8-.45,3,3,0,0,1-1.2-1.29,4.32,4.32,0,0,1-.42-2,3.79,3.79,0,0,1,.91-2.7,3.33,3.33,0,0,1,2.55-1,3.58,3.58,0,0,1,1.8.44,3,3,0,0,1,1.2,1.28A4.28,4.28,0,0,1,199.31,18.88Zm-4.91,0a3,3,0,0,0,.35,1.59,1.24,1.24,0,0,0,1.13.54,1.22,1.22,0,0,0,1.11-.54,3,3,0,0,0,.34-1.6,2.93,2.93,0,0,0-.34-1.58,1.46,1.46,0,0,0-2.24,0A2.93,2.93,0,0,0,194.4,18.88Z"/><path class="cls-6" d="M207.26,22.44h-1.94V18.29a2.09,2.09,0,0,0-.26-1.15.9.9,0,0,0-.81-.38,1.17,1.17,0,0,0-1.08.55,3.58,3.58,0,0,0-.34,1.8v3.34H200.9v-7.1h1.48l.26.91h.11a2,2,0,0,1,.82-.77,2.69,2.69,0,0,1,1.24-.28,2.23,2.23,0,0,1,2.16,1h.17a1.91,1.91,0,0,1,.84-.77,2.8,2.8,0,0,1,1.25-.27,2.48,2.48,0,0,1,1.83.62,2.72,2.72,0,0,1,.62,2v4.63h-1.94V18.29a2.09,2.09,0,0,0-.26-1.15.9.9,0,0,0-.81-.38,1.21,1.21,0,0,0-1.06.51,2.88,2.88,0,0,0-.35,1.61Z"/><path class="cls-6" d="M220,22.44h-1.94V18.29a2.09,2.09,0,0,0-.26-1.15.9.9,0,0,0-.81-.38,1.17,1.17,0,0,0-1.08.55,3.58,3.58,0,0,0-.34,1.8v3.34h-1.94v-7.1h1.48l.26.91h.11a2,2,0,0,1,.82-.77,2.69,2.69,0,0,1,1.24-.28,2.23,2.23,0,0,1,2.16,1h.17a1.91,1.91,0,0,1,.84-.77,2.8,2.8,0,0,1,1.25-.27,2.48,2.48,0,0,1,1.83.62,2.72,2.72,0,0,1,.62,2v4.63h-1.94V18.29a2.09,2.09,0,0,0-.26-1.15.9.9,0,0,0-.81-.38,1.21,1.21,0,0,0-1.06.51,2.88,2.88,0,0,0-.35,1.61Z"/><path class="cls-6" d="M229.65,22.56a3.66,3.66,0,0,1-2.68-.95,3.58,3.58,0,0,1-1-2.68,3.94,3.94,0,0,1,.89-2.76,3.18,3.18,0,0,1,2.47-1,3.13,3.13,0,0,1,2.34.86,3.24,3.24,0,0,1,.84,2.37v.94H228a1.87,1.87,0,0,0,.49,1.29,1.72,1.72,0,0,0,1.28.46,5.33,5.33,0,0,0,1.21-.13,6.06,6.06,0,0,0,1.19-.43v1.5a4.53,4.53,0,0,1-1.09.38A6.8,6.8,0,0,1,229.65,22.56Zm-.27-6a1.23,1.23,0,0,0-1,.39,1.8,1.8,0,0,0-.4,1.11h2.72a1.61,1.61,0,0,0-.37-1.11A1.26,1.26,0,0,0,229.38,16.58Z"/><path class="cls-6" d="M238.08,15.21a3.13,3.13,0,0,1,.65.06l-.15,1.82A2.21,2.21,0,0,0,238,17a2.05,2.05,0,0,0-1.44.48,1.72,1.72,0,0,0-.52,1.33v3.61h-1.94v-7.1h1.47l.29,1.19h.1a2.66,2.66,0,0,1,.89-1A2.2,2.2,0,0,1,238.08,15.21Z"/><path class="cls-6" d="M242.78,22.56q-3.31,0-3.31-3.64a3.88,3.88,0,0,1,.9-2.76,3.38,3.38,0,0,1,2.58-1,4.92,4.92,0,0,1,2.21.48l-.57,1.5q-.46-.18-.85-.3a2.72,2.72,0,0,0-.79-.12q-1.51,0-1.51,2.15T242.95,21a3.46,3.46,0,0,0,1-.15,3.75,3.75,0,0,0,1-.47V22a3.13,3.13,0,0,1-.95.41A5.34,5.34,0,0,1,242.78,22.56Z"/><path class="cls-6" d="M249.79,22.56a3.66,3.66,0,0,1-2.68-.95,3.58,3.58,0,0,1-1-2.68,3.94,3.94,0,0,1,.89-2.76,3.18,3.18,0,0,1,2.47-1,3.13,3.13,0,0,1,2.34.86,3.24,3.24,0,0,1,.84,2.37v.94h-4.58a1.87,1.87,0,0,0,.49,1.29,1.72,1.72,0,0,0,1.28.46,5.33,5.33,0,0,0,1.21-.13,6.06,6.06,0,0,0,1.19-.43v1.5a4.53,4.53,0,0,1-1.09.38A6.8,6.8,0,0,1,249.79,22.56Zm-.27-6a1.23,1.23,0,0,0-1,.39,1.8,1.8,0,0,0-.4,1.11h2.72a1.61,1.61,0,0,0-.37-1.11A1.26,1.26,0,0,0,249.52,16.58Z"/><path class="cls-6" d="M39.69,36.44l-2.23-7.28H37.4q.12,2.22.12,3v4.32H35.76V27.16h2.68l2.2,7.1h0L43,27.16h2.68v9.28H43.85V32q0-.31,0-.72t.08-2.16h-.06l-2.39,7.27Z"/><path class="cls-6" d="M51.08,36.56a3.66,3.66,0,0,1-2.68-.95,3.58,3.58,0,0,1-1-2.68,3.94,3.94,0,0,1,.89-2.76,3.18,3.18,0,0,1,2.47-1,3.13,3.13,0,0,1,2.34.86A3.24,3.24,0,0,1,54,32.43v.94H49.39a1.87,1.87,0,0,0,.49,1.29,1.72,1.72,0,0,0,1.28.46A5.33,5.33,0,0,0,52.38,35a6.06,6.06,0,0,0,1.19-.43v1.5a4.53,4.53,0,0,1-1.09.38A6.8,6.8,0,0,1,51.08,36.56Zm-.27-6a1.23,1.23,0,0,0-1,.39,1.8,1.8,0,0,0-.4,1.11h2.72A1.61,1.61,0,0,0,51.78,31,1.26,1.26,0,0,0,50.8,30.58Z"/><path class="cls-6" d="M59.51,29.21a3.13,3.13,0,0,1,.65.06L60,31.08a2.21,2.21,0,0,0-.57-.06,2.05,2.05,0,0,0-1.44.48,1.72,1.72,0,0,0-.52,1.33v3.61H55.54v-7.1H57l.29,1.19h.1a2.66,2.66,0,0,1,.89-1A2.2,2.2,0,0,1,59.51,29.21Z"/><path class="cls-6" d="M64.2,36.56q-3.31,0-3.31-3.64a3.88,3.88,0,0,1,.9-2.76,3.38,3.38,0,0,1,2.58-1,4.92,4.92,0,0,1,2.21.48L66,31.19q-.46-.18-.85-.3a2.72,2.72,0,0,0-.79-.12q-1.51,0-1.51,2.15T64.37,35a3.46,3.46,0,0,0,1-.15,3.75,3.75,0,0,0,1-.47V36a3.13,3.13,0,0,1-.95.41A5.34,5.34,0,0,1,64.2,36.56Z"/><path class="cls-6" d="M74.56,36.44H72.62V32.29q0-1.54-1.14-1.54a1.3,1.3,0,0,0-1.17.55,3.37,3.37,0,0,0-.36,1.79v3.34H68V26.56h1.94v2q0,.24,0,1.1l0,.57H70a2.24,2.24,0,0,1,2.06-1,2.51,2.51,0,0,1,1.9.67,2.67,2.67,0,0,1,.65,1.93Z"/><path class="cls-6" d="M81.06,36.44l-.37-1h-.05a2.86,2.86,0,0,1-1,.85,3.24,3.24,0,0,1-1.35.24A2.18,2.18,0,0,1,76.67,36a2.24,2.24,0,0,1-.59-1.66,1.87,1.87,0,0,1,.79-1.67,4.58,4.58,0,0,1,2.38-.59l1.23,0v-.31a1,1,0,0,0-1.1-1.08,5,5,0,0,0-2,.51l-.64-1.31a5.77,5.77,0,0,1,2.72-.64,3.39,3.39,0,0,1,2.19.62,2.3,2.3,0,0,1,.76,1.89v4.73Zm-.57-3.29-.75,0a2.4,2.4,0,0,0-1.26.3,1,1,0,0,0-.41.85q0,.82.94.82a1.49,1.49,0,0,0,1.08-.39,1.36,1.36,0,0,0,.4-1Z"/><path class="cls-6" d="M91,36.44H89V32.29a2,2,0,0,0-.27-1.15,1,1,0,0,0-.87-.38,1.31,1.31,0,0,0-1.17.54,3.37,3.37,0,0,0-.36,1.8v3.34H84.4v-7.1h1.48l.26.91h.11a2,2,0,0,1,.89-.78,3,3,0,0,1,1.29-.26,2.48,2.48,0,0,1,1.88.67A2.69,2.69,0,0,1,91,31.81Z"/><path class="cls-6" d="M95.94,35a4.21,4.21,0,0,0,1.22-.22v1.44a4.35,4.35,0,0,1-1.78.32A2.18,2.18,0,0,1,93.68,36a2.56,2.56,0,0,1-.53-1.76V30.79h-.93V30l1.07-.65.56-1.5h1.24v1.51h2v1.45h-2v3.42a.76.76,0,0,0,.23.61A.92.92,0,0,0,95.94,35Z"/><path class="cls-6" d="M107.8,36.44l-.67-2.21h-3.38l-.67,2.21h-2.12l3.28-9.32h2.41l3.29,9.32Zm-1.14-3.86q-.93-3-1.05-3.4c-.08-.26-.13-.47-.17-.62q-.21.81-1.2,4Z"/><path class="cls-6" d="M116.77,36.44,116.22,34l-.72-3.14h-.06l-1.29,5.62h-2.08l-2-7.1H112l.82,3.14q.14.56.39,2.33h.05a13,13,0,0,1,.22-1.53l.1-.54.88-3.4h2.13l.83,3.4q.08.35.19,1a8.83,8.83,0,0,1,.12,1h.05q.07-.56.2-1.29t.22-1l.85-3.14h1.9l-2,7.1Z"/><path class="cls-6" d="M126.57,36.44l-.37-1h-.05a2.86,2.86,0,0,1-1,.85,3.24,3.24,0,0,1-1.35.24,2.18,2.18,0,0,1-1.61-.58,2.24,2.24,0,0,1-.59-1.66,1.87,1.87,0,0,1,.79-1.67,4.58,4.58,0,0,1,2.38-.59L126,32v-.31a1,1,0,0,0-1.1-1.08,5,5,0,0,0-2,.51l-.64-1.31a5.77,5.77,0,0,1,2.72-.64,3.39,3.39,0,0,1,2.19.62,2.3,2.3,0,0,1,.76,1.89v4.73ZM126,33.15l-.75,0a2.4,2.4,0,0,0-1.26.3,1,1,0,0,0-.41.85q0,.82.94.82a1.49,1.49,0,0,0,1.08-.39,1.36,1.36,0,0,0,.4-1Z"/><path class="cls-6" d="M133.87,29.21a3.13,3.13,0,0,1,.65.06l-.15,1.82a2.21,2.21,0,0,0-.57-.06,2.05,2.05,0,0,0-1.44.48,1.72,1.72,0,0,0-.52,1.33v3.61h-1.94v-7.1h1.47l.29,1.19h.1a2.66,2.66,0,0,1,.89-1A2.2,2.2,0,0,1,133.87,29.21Z"/><path class="cls-6" d="M137.94,36.56a2.31,2.31,0,0,1-2-1,4.47,4.47,0,0,1-.71-2.69,4.47,4.47,0,0,1,.73-2.72,2.36,2.36,0,0,1,2-1,2.32,2.32,0,0,1,2,1h.06a7.88,7.88,0,0,1-.15-1.42V26.56h1.94v9.88h-1.48l-.37-.92h-.08A2.22,2.22,0,0,1,137.94,36.56Zm.68-1.54a1.31,1.31,0,0,0,1.09-.43,2.51,2.51,0,0,0,.38-1.47v-.21a2.9,2.9,0,0,0-.35-1.64,1.31,1.31,0,0,0-1.15-.5,1.14,1.14,0,0,0-1,.55,2.93,2.93,0,0,0-.36,1.6,2.77,2.77,0,0,0,.36,1.57A1.18,1.18,0,0,0,138.61,35Z"/><path class="cls-6" d="M148.87,34.33a2,2,0,0,1-.76,1.66,3.75,3.75,0,0,1-2.27.57,7.16,7.16,0,0,1-1.32-.1,5,5,0,0,1-1-.31v-1.6a6.72,6.72,0,0,0,1.22.43,4.92,4.92,0,0,0,1.19.17q1.05,0,1.05-.61a.51.51,0,0,0-.14-.37,2,2,0,0,0-.48-.32q-.34-.18-.91-.42a5.75,5.75,0,0,1-1.2-.63,1.79,1.79,0,0,1-.56-.67,2.21,2.21,0,0,1-.17-.93,1.69,1.69,0,0,1,.73-1.46,3.57,3.57,0,0,1,2.08-.52,5.9,5.9,0,0,1,2.49.56l-.58,1.4q-.53-.23-1-.37a3.14,3.14,0,0,0-.95-.15q-.86,0-.86.46a.55.55,0,0,0,.28.45,7.55,7.55,0,0,0,1.21.56,5.59,5.59,0,0,1,1.22.63,1.86,1.86,0,0,1,.57.67A2.08,2.08,0,0,1,148.87,34.33Z"/><path class="cls-6" d="M159.75,36.44h-6.49V35.07l2.33-2.35q1-1.06,1.35-1.47a3.2,3.2,0,0,0,.46-.76,1.94,1.94,0,0,0,.14-.72,1.05,1.05,0,0,0-.31-.83,1.19,1.19,0,0,0-.82-.27,2.37,2.37,0,0,0-1,.25,5.42,5.42,0,0,0-1.06.7l-1.07-1.26a7,7,0,0,1,1.14-.83,4.17,4.17,0,0,1,1-.37,5,5,0,0,1,1.19-.13,3.53,3.53,0,0,1,1.54.32,2.45,2.45,0,0,1,1,.89,2.36,2.36,0,0,1,.37,1.31,3.2,3.2,0,0,1-.23,1.2,4.61,4.61,0,0,1-.7,1.15,17.17,17.17,0,0,1-1.67,1.68L155.7,34.7v.09h4Z"/><path class="cls-6" d="M167.13,31.8a6.47,6.47,0,0,1-.8,3.6,2.76,2.76,0,0,1-2.45,1.17,2.73,2.73,0,0,1-2.42-1.21,6.38,6.38,0,0,1-.82-3.56,6.53,6.53,0,0,1,.79-3.62,3.09,3.09,0,0,1,4.87.05A6.39,6.39,0,0,1,167.13,31.8Zm-4.54,0a7.2,7.2,0,0,0,.3,2.45,1,1,0,0,0,1,.74,1,1,0,0,0,1-.75,7,7,0,0,0,.3-2.44,7,7,0,0,0-.31-2.45,1,1,0,0,0-2,0A7.2,7.2,0,0,0,162.59,31.8Z"/><path class="cls-6" d="M173,36.44h-2V31.07l0-.88,0-1q-.49.49-.68.64l-1.07.86-.95-1.18,3-2.38H173Z"/><path class="cls-6" d="M175.5,32.49a6.14,6.14,0,0,1,1.17-4.1A4.36,4.36,0,0,1,180.15,27a6.32,6.32,0,0,1,1.24.1v1.57a5.08,5.08,0,0,0-1.12-.13,3.83,3.83,0,0,0-1.65.3,2,2,0,0,0-1,.9,4.13,4.13,0,0,0-.37,1.69h.08a2.16,2.16,0,0,1,2-1.08,2.49,2.49,0,0,1,1.95.78,3.1,3.1,0,0,1,.71,2.16,3.24,3.24,0,0,1-.84,2.35,3.08,3.08,0,0,1-2.32.87,3.32,3.32,0,0,1-1.79-.48,3.09,3.09,0,0,1-1.18-1.39A5.29,5.29,0,0,1,175.5,32.49Zm3.35,2.5a1.16,1.16,0,0,0,1-.42,1.89,1.89,0,0,0,.34-1.2,1.66,1.66,0,0,0-.31-1.07,1.15,1.15,0,0,0-.95-.39,1.45,1.45,0,0,0-1,.39,1.19,1.19,0,0,0-.42.9,2,2,0,0,0,.4,1.28A1.21,1.21,0,0,0,178.85,35Z"/><path class="cls-6" d="M189.86,35a4.21,4.21,0,0,0,1.22-.22v1.44a4.35,4.35,0,0,1-1.78.32,2.18,2.18,0,0,1-1.69-.59,2.56,2.56,0,0,1-.53-1.76V30.79h-.93V30l1.07-.65.56-1.5H189v1.51h2v1.45h-2v3.42a.76.76,0,0,0,.23.61A.92.92,0,0,0,189.86,35Z"/><path class="cls-6" d="M197,36.44l-.37-1h-.05a2.86,2.86,0,0,1-1,.85,3.24,3.24,0,0,1-1.35.24,2.18,2.18,0,0,1-1.61-.58,2.24,2.24,0,0,1-.59-1.66,1.87,1.87,0,0,1,.79-1.67,4.58,4.58,0,0,1,2.38-.59l1.23,0v-.31a1,1,0,0,0-1.1-1.08,5,5,0,0,0-2,.51l-.64-1.31a5.77,5.77,0,0,1,2.72-.64,3.39,3.39,0,0,1,2.19.62,2.3,2.3,0,0,1,.76,1.89v4.73Zm-.57-3.29-.75,0a2.4,2.4,0,0,0-1.26.3,1,1,0,0,0-.41.85q0,.82.94.82a1.49,1.49,0,0,0,1.08-.39,1.36,1.36,0,0,0,.4-1Zm-2.31,5.07q0-1,1.05-1t1.05,1a.91.91,0,0,1-.27.7,1.12,1.12,0,0,1-.79.25Q194.13,39.17,194.13,38.22Z"/><path class="cls-6" d="M200.28,27.51q0-.95,1.05-.95t1.05.95a.92.92,0,0,1-.26.7,1.11,1.11,0,0,1-.79.25Q200.28,28.46,200.28,27.51Zm2,8.93h-1.94v-7.1h1.94Z"/><path class="cls-6" d="M210,36.56a2.34,2.34,0,0,1-2-.93,4.08,4.08,0,0,1-.71-2.54,4,4,0,0,1,.73-2.58,2.41,2.41,0,0,1,2-.92,2.29,2.29,0,0,1,2,1h.06a8.59,8.59,0,0,1-.15-1.47v-.32h-2V27.58h2v-1h1.94v1h1v1.26h-1v7.59h-1.48l-.37-.92H212A2.22,2.22,0,0,1,210,36.56Zm.68-1.54a1.38,1.38,0,0,0,1.09-.4,2.1,2.1,0,0,0,.38-1.34v-.18a2.4,2.4,0,0,0-.36-1.49,1.37,1.37,0,0,0-1.14-.45,1.17,1.17,0,0,0-1,.5,2.46,2.46,0,0,0-.36,1.45,2.33,2.33,0,0,0,.36,1.42A1.22,1.22,0,0,0,210.63,35Z"/><path class="cls-6" d="M220.65,36.44l-.37-1h-.05a2.86,2.86,0,0,1-1,.85,3.24,3.24,0,0,1-1.35.24,2.18,2.18,0,0,1-1.61-.58,2.24,2.24,0,0,1-.59-1.66,1.87,1.87,0,0,1,.79-1.67,4.58,4.58,0,0,1,2.38-.59l1.23,0v-.31a1,1,0,0,0-1.1-1.08,5,5,0,0,0-2,.51l-.64-1.31a5.77,5.77,0,0,1,2.72-.64,3.39,3.39,0,0,1,2.19.62,2.3,2.3,0,0,1,.76,1.89v4.73Zm-.17-7.87A6.73,6.73,0,0,1,219,27.45a7.85,7.85,0,0,1-1.45,1.12h-1.29v-.17a11.13,11.13,0,0,0,1.63-1.91h2.27a7.14,7.14,0,0,0,.68.9q.48.57.94,1v.17Zm-.4,4.58-.75,0a2.4,2.4,0,0,0-1.26.3,1,1,0,0,0-.41.85q0,.82.94.82a1.49,1.49,0,0,0,1.08-.39,1.36,1.36,0,0,0,.4-1Z"/><path class="cls-6" d="M223,29.34h2.12l1.34,4a5.46,5.46,0,0,1,.24,1.23h0a5.44,5.44,0,0,1,.27-1.23l1.31-4h2.08l-3,8A3.47,3.47,0,0,1,226.19,39a3,3,0,0,1-1.79.55,4.5,4.5,0,0,1-1-.11V37.92a3.3,3.3,0,0,0,.76.08,1.37,1.37,0,0,0,.9-.31,2,2,0,0,0,.6-.95l.11-.35Z"/><path class="cls-6" d="M231.11,35.53a1.06,1.06,0,0,1,.29-.81,1.16,1.16,0,0,1,.83-.27,1.13,1.13,0,0,1,.82.28,1.23,1.23,0,0,1,0,1.59,1.1,1.1,0,0,1-.81.29,1.13,1.13,0,0,1-.82-.28A1.05,1.05,0,0,1,231.11,35.53Zm1.9-2.17h-1.55l-.32-6.2h2.2Z"/></svg>