<svg id="Layer_1" data-name="Layer 1" xmlns="http://www.w3.org/2000/svg" xmlns:xlink="http://www.w3.org/1999/xlink" viewBox="0 0 1160 73.7"><defs><style>.cls-1{fill:none;}.cls-2{fill:#f1f3f2;}.cls-3{fill:#f63;}.cls-4{clip-path:url(#clip-path);}.cls-5{fill:#fff;}.cls-6{fill:#3cc;}.cls-7{clip-path:url(#clip-path-2);}.cls-8{clip-path:url(#clip-path-3);}</style><clipPath id="clip-path"><rect class="cls-1" y="-0.04" width="1160.24" height="73.52"/></clipPath><clipPath id="clip-path-2"><rect class="cls-1" x="10.03" y="-200.72" width="1160.24" height="73.52"/></clipPath><clipPath id="clip-path-3"><rect class="cls-1" x="10.03" y="-95.02" width="810.9" height="51.36"/></clipPath></defs><title>Artboard 68 copy 3</title><rect class="cls-2" y="0.11" width="1161.06" height="73.5" transform="translate(-0.06 0.88) rotate(-0.09)"/><path class="cls-3" d="M297,44.86h-3.48V31.34h-4.46v-2.9h12.4v2.9H297Z"/><path class="cls-3" d="M305,30.92q-.71-.49-2.08-1.6t-2.13-1.85v-.24h3.84a31.42,31.42,0,0,0,2.64,3.38v.3Zm2.15,13.94h-3.43V32.3h3.43Z"/><path class="cls-3" d="M322,44.86h-3.43V37.52a3.69,3.69,0,0,0-.46-2,1.6,1.6,0,0,0-1.43-.68,2.07,2.07,0,0,0-1.91,1,6.34,6.34,0,0,0-.59,3.18v5.91h-3.43V32.3h2.62l.46,1.61H314a3.48,3.48,0,0,1,1.46-1.35,4.73,4.73,0,0,1,2.19-.49q2.82,0,3.82,1.84h.3a3.4,3.4,0,0,1,1.49-1.36,5,5,0,0,1,2.22-.48,4.38,4.38,0,0,1,3.23,1.1,4.81,4.81,0,0,1,1.09,3.51v8.19h-3.44V37.52a3.69,3.69,0,0,0-.46-2,1.6,1.6,0,0,0-1.43-.68,2.13,2.13,0,0,0-1.88.9,5.09,5.09,0,0,0-.62,2.85Z"/><path class="cls-3" d="M350.89,44.86h-3.43V37.52q0-2.72-2-2.72a2.3,2.3,0,0,0-2.08,1,6,6,0,0,0-.64,3.17v5.91H339.3V27.38h3.43v3.56q0,.42-.08,2l-.08,1h.18a4,4,0,0,1,3.64-1.84,4.45,4.45,0,0,1,3.36,1.19,4.73,4.73,0,0,1,1.15,3.41Z"/><path class="cls-3" d="M354.27,29.06q0-1.67,1.87-1.67T358,29.06a1.63,1.63,0,0,1-.47,1.24,2,2,0,0,1-1.4.44Q354.28,30.74,354.27,29.06Zm3.57,15.8h-3.43V32.3h3.43Z"/><path class="cls-3" d="M367.12,45.08a6.48,6.48,0,0,1-4.74-1.67,6.34,6.34,0,0,1-1.71-4.74,7,7,0,0,1,1.58-4.88,5.62,5.62,0,0,1,4.36-1.72,5.53,5.53,0,0,1,4.14,1.52,5.74,5.74,0,0,1,1.48,4.19v1.66h-8.1a3.3,3.3,0,0,0,.86,2.28,3,3,0,0,0,2.27.82,9.42,9.42,0,0,0,2.14-.24,10.74,10.74,0,0,0,2.11-.75v2.65a8.06,8.06,0,0,1-1.92.67A12.15,12.15,0,0,1,367.12,45.08Zm3.68-14.16H369a19.57,19.57,0,0,1-2.37-1.86,22.65,22.65,0,0,1-2.37,1.86h-1.82v-.3a36,36,0,0,0,2.41-3.14h3.54q.59.88,1.35,1.84t1.07,1.31Zm-4.17,3.58a2.18,2.18,0,0,0-1.71.69,3.2,3.2,0,0,0-.71,2H369a2.86,2.86,0,0,0-.66-2A2.25,2.25,0,0,0,366.64,34.5Zm6.41-8a1.5,1.5,0,0,1-1.4,1.56l-.07.69h-1.43l-.11-1.3a2.58,2.58,0,0,0,1-.2.54.54,0,0,0,.37-.5.5.5,0,0,0-.21-.4,1.11,1.11,0,0,0-.69-.17,3.1,3.1,0,0,0-.81.11V24.89a4.91,4.91,0,0,1,1-.07,3.11,3.11,0,0,1,1.69.4A1.43,1.43,0,0,1,373.05,26.53Z"/><path class="cls-3" d="M383.92,44.86l-.46-1.61h-.18a3.61,3.61,0,0,1-1.56,1.35,5.33,5.33,0,0,1-2.3.48,4.39,4.39,0,0,1-3.33-1.18A4.77,4.77,0,0,1,375,40.49V32.3h3.42v7.33a3.52,3.52,0,0,0,.48,2,1.76,1.76,0,0,0,1.54.68,2.31,2.31,0,0,0,2.08-1,6,6,0,0,0,.64-3.18V32.3h3.42V44.86Z"/><path class="cls-3" d="M401.41,42.35a7.41,7.41,0,0,0,2.16-.39v2.55a7.69,7.69,0,0,1-3.14.57,3.85,3.85,0,0,1-3-1,4.52,4.52,0,0,1-.94-3.12V34.87h-1.64V33.42l1.89-1.15,1-2.65h2.19V32.3h3.51v2.57h-3.51v6.05a1.34,1.34,0,0,0,.41,1.08A1.62,1.62,0,0,0,401.41,42.35Z"/><path class="cls-3" d="M417.69,44.86h-3.43V37.52q0-2.72-2-2.72a2.3,2.3,0,0,0-2.08,1,6,6,0,0,0-.64,3.17v5.91H406.1V27.38h3.43v3.56q0,.42-.08,2l-.08,1h.18a4,4,0,0,1,3.64-1.84,4.45,4.45,0,0,1,3.36,1.19,4.73,4.73,0,0,1,1.15,3.41Z"/><path class="cls-3" d="M426.9,45.08a6.48,6.48,0,0,1-4.74-1.67,6.34,6.34,0,0,1-1.71-4.74A7,7,0,0,1,422,33.79a5.62,5.62,0,0,1,4.36-1.72,5.53,5.53,0,0,1,4.14,1.52A5.74,5.74,0,0,1,432,37.77v1.66h-8.1a3.3,3.3,0,0,0,.86,2.28,3,3,0,0,0,2.27.82,9.42,9.42,0,0,0,2.14-.24,10.74,10.74,0,0,0,2.11-.75v2.65a8.06,8.06,0,0,1-1.92.67A12.15,12.15,0,0,1,426.9,45.08Zm2.18-14.16a11.87,11.87,0,0,1-2.63-2,13.92,13.92,0,0,1-2.57,2H421.6v-.3a19.83,19.83,0,0,0,2.88-3.38h4a12.81,12.81,0,0,0,1.21,1.59q.86,1,1.67,1.79v.3Zm-2.66,3.58a2.18,2.18,0,0,0-1.71.69,3.2,3.2,0,0,0-.71,2h4.81a2.86,2.86,0,0,0-.66-2A2.25,2.25,0,0,0,426.42,34.5Z"/><path class="cls-3" d="M446.05,44.86h-3.43V37.52a3.69,3.69,0,0,0-.46-2,1.6,1.6,0,0,0-1.43-.68,2.07,2.07,0,0,0-1.91,1,6.34,6.34,0,0,0-.59,3.18v5.91h-3.43V32.3h2.62l.46,1.61h.19a3.48,3.48,0,0,1,1.46-1.35,4.73,4.73,0,0,1,2.19-.49q2.82,0,3.82,1.84h.3a3.4,3.4,0,0,1,1.49-1.36,5,5,0,0,1,2.22-.48,4.38,4.38,0,0,1,3.23,1.1,4.81,4.81,0,0,1,1.09,3.51v8.19h-3.44V37.52a3.69,3.69,0,0,0-.46-2,1.6,1.6,0,0,0-1.43-.68,2.13,2.13,0,0,0-1.88.9,5.09,5.09,0,0,0-.62,2.85Z"/><path class="cls-3" d="M463.22,29.06q0-1.67,1.87-1.67t1.86,1.67a1.63,1.63,0,0,1-.47,1.24,2,2,0,0,1-1.4.44Q463.22,30.74,463.22,29.06Zm3.57,15.8h-3.43V32.3h3.43Z"/><path class="cls-3" d="M482,33.56a5,5,0,0,1-1.66,4.05,7.08,7.08,0,0,1-4.71,1.4h-1.49v5.84h-3.48V28.44h5.24a7,7,0,0,1,4.54,1.29A4.69,4.69,0,0,1,482,33.56Zm-7.86,2.61h1.15a3.81,3.81,0,0,0,2.4-.63,2.22,2.22,0,0,0,.8-1.85,2.28,2.28,0,0,0-.67-1.81,3.13,3.13,0,0,0-2.09-.58h-1.58Z"/><path class="cls-3" d="M491.84,32.07a5.52,5.52,0,0,1,1.16.1l-.26,3.21a3.93,3.93,0,0,0-1-.11,3.63,3.63,0,0,0-2.55.84,3,3,0,0,0-.92,2.36v6.39h-3.43V32.3h2.59l.51,2.11h.17a4.73,4.73,0,0,1,1.58-1.7A3.89,3.89,0,0,1,491.84,32.07Z"/><path class="cls-3" d="M495.13,29.06q0-1.67,1.87-1.67t1.86,1.67a1.63,1.63,0,0,1-.47,1.24,2,2,0,0,1-1.4.44Q495.13,30.74,495.13,29.06Zm3.57,15.8h-3.43V32.3h3.43Z"/><path class="cls-3" d="M507.39,45.08q-5.86,0-5.86-6.44a6.86,6.86,0,0,1,1.59-4.89,6,6,0,0,1,4.57-1.69,8.72,8.72,0,0,1,3.91.85l-1,2.65q-.81-.33-1.5-.53a4.86,4.86,0,0,0-1.39-.21q-2.67,0-2.67,3.8t2.67,3.68a6.08,6.08,0,0,0,1.83-.26,6.6,6.6,0,0,0,1.68-.83v2.93a5.51,5.51,0,0,1-1.68.73A9.44,9.44,0,0,1,507.39,45.08Z"/><path class="cls-3" d="M519.8,45.08a6.48,6.48,0,0,1-4.74-1.67,6.34,6.34,0,0,1-1.71-4.74,7,7,0,0,1,1.58-4.88,5.62,5.62,0,0,1,4.36-1.72,5.53,5.53,0,0,1,4.14,1.52,5.74,5.74,0,0,1,1.48,4.19v1.66h-8.1a3.3,3.3,0,0,0,.86,2.28,3,3,0,0,0,2.27.82,9.42,9.42,0,0,0,2.14-.24,10.74,10.74,0,0,0,2.11-.75v2.65a8.06,8.06,0,0,1-1.92.67A12.15,12.15,0,0,1,519.8,45.08Zm-.48-10.58a2.18,2.18,0,0,0-1.71.69,3.2,3.2,0,0,0-.71,2h4.81a2.86,2.86,0,0,0-.66-2A2.25,2.25,0,0,0,519.32,34.5Z"/><path class="cls-3" d="M543.41,44.86H534V28.44h9.46v2.85h-6v3.6H543v2.85h-5.56V42h6Z"/><path class="cls-3" d="M545.45,40.1V37.29h6V40.1Z"/><path class="cls-3" d="M561.21,31.1a3.55,3.55,0,0,0-3,1.48,6.87,6.87,0,0,0-1.08,4.12q0,5.49,4.12,5.49a13,13,0,0,0,4.19-.86v2.92a11.63,11.63,0,0,1-4.51.84,6.89,6.89,0,0,1-5.48-2.17,9.2,9.2,0,0,1-1.9-6.24,10.19,10.19,0,0,1,.93-4.49,6.73,6.73,0,0,1,2.68-3,7.92,7.92,0,0,1,4.09-1A11.06,11.06,0,0,1,566,29.36l-1.12,2.83a18.7,18.7,0,0,0-1.85-.76A5.52,5.52,0,0,0,561.21,31.1Z"/><path class="cls-3" d="M580,38.56a6.75,6.75,0,0,1-1.62,4.8,5.86,5.86,0,0,1-4.5,1.73,6.3,6.3,0,0,1-3.19-.79A5.27,5.27,0,0,1,568.6,42a7.64,7.64,0,0,1-.74-3.46,6.71,6.71,0,0,1,1.61-4.78A5.9,5.9,0,0,1,574,32.07a6.34,6.34,0,0,1,3.19.79,5.25,5.25,0,0,1,2.12,2.26A7.57,7.57,0,0,1,580,38.56Zm-8.68,0a5.27,5.27,0,0,0,.61,2.82,2.19,2.19,0,0,0,2,1,2.16,2.16,0,0,0,2-.95,5.35,5.35,0,0,0,.6-2.82,5.19,5.19,0,0,0-.61-2.8,2.58,2.58,0,0,0-4,0A5.18,5.18,0,0,0,571.35,38.56Z"/><path class="cls-3" d="M594.1,44.86h-3.43V37.52a3.69,3.69,0,0,0-.46-2,1.6,1.6,0,0,0-1.43-.68,2.07,2.07,0,0,0-1.91,1,6.34,6.34,0,0,0-.59,3.18v5.91h-3.43V32.3h2.62l.46,1.61h.19a3.48,3.48,0,0,1,1.46-1.35,4.73,4.73,0,0,1,2.19-.49q2.82,0,3.82,1.84h.3a3.4,3.4,0,0,1,1.49-1.36,5,5,0,0,1,2.22-.48,4.38,4.38,0,0,1,3.23,1.1,4.81,4.81,0,0,1,1.09,3.51v8.19h-3.44V37.52a3.69,3.69,0,0,0-.46-2,1.6,1.6,0,0,0-1.43-.68,2.13,2.13,0,0,0-1.88.9,5.09,5.09,0,0,0-.62,2.85Z"/><path class="cls-3" d="M616.69,44.86h-3.43V37.52a3.69,3.69,0,0,0-.46-2,1.6,1.6,0,0,0-1.43-.68,2.07,2.07,0,0,0-1.91,1,6.34,6.34,0,0,0-.59,3.18v5.91h-3.43V32.3h2.62l.46,1.61h.19a3.48,3.48,0,0,1,1.46-1.35,4.73,4.73,0,0,1,2.19-.49q2.82,0,3.82,1.84h.3A3.4,3.4,0,0,1,618,32.55a5,5,0,0,1,2.22-.48,4.38,4.38,0,0,1,3.23,1.1,4.81,4.81,0,0,1,1.09,3.51v8.19h-3.44V37.52a3.69,3.69,0,0,0-.46-2,1.6,1.6,0,0,0-1.43-.68,2.13,2.13,0,0,0-1.88.9,5.09,5.09,0,0,0-.62,2.85Z"/><path class="cls-3" d="M633.71,45.08A6.48,6.48,0,0,1,629,43.41a6.34,6.34,0,0,1-1.71-4.74,7,7,0,0,1,1.58-4.88,5.62,5.62,0,0,1,4.36-1.72,5.53,5.53,0,0,1,4.14,1.52,5.74,5.74,0,0,1,1.48,4.19v1.66h-8.1a3.3,3.3,0,0,0,.86,2.28,3,3,0,0,0,2.27.82A9.42,9.42,0,0,0,636,42.3a10.74,10.74,0,0,0,2.11-.75v2.65a8.06,8.06,0,0,1-1.92.67A12.15,12.15,0,0,1,633.71,45.08Zm-.48-10.58a2.18,2.18,0,0,0-1.71.69,3.2,3.2,0,0,0-.71,2h4.81a2.86,2.86,0,0,0-.66-2A2.25,2.25,0,0,0,633.23,34.5Z"/><path class="cls-3" d="M648.63,32.07a5.52,5.52,0,0,1,1.16.1l-.26,3.21a3.93,3.93,0,0,0-1-.11,3.63,3.63,0,0,0-2.55.84,3,3,0,0,0-.92,2.36v6.39h-3.43V32.3h2.59l.51,2.11h.17a4.73,4.73,0,0,1,1.58-1.7A3.89,3.89,0,0,1,648.63,32.07Z"/><path class="cls-3" d="M656.94,45.08q-5.86,0-5.86-6.44a6.86,6.86,0,0,1,1.59-4.89,6,6,0,0,1,4.57-1.69,8.72,8.72,0,0,1,3.91.85l-1,2.65q-.81-.33-1.5-.53a4.86,4.86,0,0,0-1.39-.21q-2.67,0-2.67,3.8t2.67,3.68a6.08,6.08,0,0,0,1.83-.26,6.6,6.6,0,0,0,1.68-.83v2.93a5.51,5.51,0,0,1-1.68.73A9.44,9.44,0,0,1,656.94,45.08Z"/><path class="cls-3" d="M669.35,45.08a6.48,6.48,0,0,1-4.74-1.67,6.34,6.34,0,0,1-1.71-4.74,7,7,0,0,1,1.58-4.88,5.62,5.62,0,0,1,4.36-1.72A5.53,5.53,0,0,1,673,33.58a5.74,5.74,0,0,1,1.48,4.19v1.66h-8.1a3.3,3.3,0,0,0,.86,2.28,3,3,0,0,0,2.27.82,9.42,9.42,0,0,0,2.14-.24,10.74,10.74,0,0,0,2.11-.75v2.65a8.06,8.06,0,0,1-1.92.67A12.15,12.15,0,0,1,669.35,45.08Zm-.48-10.58a2.18,2.18,0,0,0-1.71.69,3.2,3.2,0,0,0-.71,2h4.81a2.86,2.86,0,0,0-.66-2A2.25,2.25,0,0,0,668.86,34.5Z"/><path class="cls-3" d="M690.45,44.86,686.5,32h-.1q.21,3.93.21,5.24v7.64H683.5V28.44h4.74L692.12,41h.07l4.12-12.56H701V44.86H697.8V37.09q0-.55,0-1.27T698,32h-.1l-4.23,12.86Z"/><path class="cls-3" d="M710.6,45.08a6.48,6.48,0,0,1-4.74-1.67,6.34,6.34,0,0,1-1.71-4.74,7,7,0,0,1,1.58-4.88,5.62,5.62,0,0,1,4.36-1.72,5.53,5.53,0,0,1,4.14,1.52,5.74,5.74,0,0,1,1.48,4.19v1.66h-8.1a3.3,3.3,0,0,0,.86,2.28,3,3,0,0,0,2.27.82,9.42,9.42,0,0,0,2.14-.24,10.74,10.74,0,0,0,2.11-.75v2.65a8.06,8.06,0,0,1-1.92.67A12.15,12.15,0,0,1,710.6,45.08Zm-.48-10.58a2.18,2.18,0,0,0-1.71.69,3.2,3.2,0,0,0-.71,2h4.81a2.86,2.86,0,0,0-.66-2A2.25,2.25,0,0,0,710.11,34.5Z"/><path class="cls-3" d="M725.51,32.07a5.52,5.52,0,0,1,1.16.1l-.26,3.21a3.93,3.93,0,0,0-1-.11,3.63,3.63,0,0,0-2.55.84,3,3,0,0,0-.92,2.36v6.39H718.5V32.3h2.59l.51,2.11h.17a4.73,4.73,0,0,1,1.58-1.7A3.89,3.89,0,0,1,725.51,32.07Z"/><path class="cls-3" d="M733.82,45.08q-5.86,0-5.86-6.44a6.86,6.86,0,0,1,1.59-4.89,6,6,0,0,1,4.57-1.69,8.72,8.72,0,0,1,3.91.85l-1,2.65q-.81-.33-1.5-.53a4.86,4.86,0,0,0-1.39-.21q-2.67,0-2.67,3.8t2.67,3.68A6.08,6.08,0,0,0,736,42a6.6,6.6,0,0,0,1.68-.83v2.93a5.51,5.51,0,0,1-1.68.73A9.44,9.44,0,0,1,733.82,45.08Z"/><path class="cls-3" d="M752.14,44.86h-3.43V37.52q0-2.72-2-2.72a2.3,2.3,0,0,0-2.08,1,6,6,0,0,0-.64,3.17v5.91h-3.43V27.38H744v3.56q0,.42-.08,2l-.08,1H744a4,4,0,0,1,3.64-1.84A4.45,4.45,0,0,1,751,33.26a4.73,4.73,0,0,1,1.15,3.41Z"/><path class="cls-3" d="M763.64,44.86,763,43.15h-.09a5.06,5.06,0,0,1-1.78,1.51,5.76,5.76,0,0,1-2.39.42,3.86,3.86,0,0,1-2.85-1,4,4,0,0,1-1-2.94,3.31,3.31,0,0,1,1.4-2.95,8.1,8.1,0,0,1,4.22-1l2.18-.07v-.55a1.71,1.71,0,0,0-2-1.91,8.91,8.91,0,0,0-3.54.91L756,33.18A10.21,10.21,0,0,1,760.81,32a6,6,0,0,1,3.87,1.1A4.07,4.07,0,0,1,766,36.49v8.37Zm-1-5.82-1.33,0a4.24,4.24,0,0,0-2.22.54,1.69,1.69,0,0,0-.73,1.5q0,1.45,1.66,1.45a2.63,2.63,0,0,0,1.9-.69,2.4,2.4,0,0,0,.71-1.82Z"/><path class="cls-3" d="M781.15,44.86h-3.43V37.52a3.52,3.52,0,0,0-.48-2,1.76,1.76,0,0,0-1.54-.68,2.31,2.31,0,0,0-2.08,1,6,6,0,0,0-.64,3.18v5.91h-3.43V32.3h2.62l.46,1.61h.19a3.63,3.63,0,0,1,1.58-1.38,5.37,5.37,0,0,1,2.29-.47A4.39,4.39,0,0,1,780,33.25a4.75,4.75,0,0,1,1.13,3.42Z"/><path class="cls-3" d="M790,42.35a7.41,7.41,0,0,0,2.16-.39v2.55a7.69,7.69,0,0,1-3.14.57,3.85,3.85,0,0,1-3-1,4.52,4.52,0,0,1-.94-3.12V34.87H783.4V33.42l1.89-1.15,1-2.65h2.19V32.3H792v2.57h-3.51v6.05a1.34,1.34,0,0,0,.41,1.08A1.62,1.62,0,0,0,790,42.35Z"/><path class="cls-3" d="M811,44.86l-1.19-3.91h-6l-1.19,3.91h-3.75l5.79-16.49h4.26l5.82,16.49Zm-2-6.83q-1.65-5.31-1.86-6t-.3-1.1q-.37,1.44-2.12,7.11Z"/><path class="cls-3" d="M826.82,44.86l-1-4.39-1.28-5.55h-.1l-2.29,9.94H818.5L814.93,32.3h3.41l1.45,5.56q.25,1,.68,4.12h.09a23.11,23.11,0,0,1,.39-2.71l.18-1,1.55-6h3.77l1.47,6q.13.62.33,1.81a15.54,15.54,0,0,1,.22,1.85h.09q.12-1,.35-2.27t.38-1.85l1.5-5.56h3.36l-3.62,12.56Z"/><path class="cls-3" d="M844.16,44.86l-.66-1.71h-.09a5.06,5.06,0,0,1-1.78,1.51,5.76,5.76,0,0,1-2.39.42,3.86,3.86,0,0,1-2.85-1,4,4,0,0,1-1-2.94,3.31,3.31,0,0,1,1.4-2.95,8.1,8.1,0,0,1,4.22-1l2.18-.07v-.55a1.71,1.71,0,0,0-2-1.91,8.91,8.91,0,0,0-3.54.91l-1.13-2.31A10.21,10.21,0,0,1,841.33,32a6,6,0,0,1,3.87,1.1,4.07,4.07,0,0,1,1.35,3.35v8.37Zm-1-5.82-1.33,0a4.24,4.24,0,0,0-2.22.54,1.69,1.69,0,0,0-.73,1.5q0,1.45,1.66,1.45a2.63,2.63,0,0,0,1.9-.69,2.4,2.4,0,0,0,.71-1.82Z"/><path class="cls-3" d="M857.09,32.07a5.52,5.52,0,0,1,1.16.1L858,35.38a3.93,3.93,0,0,0-1-.11,3.63,3.63,0,0,0-2.55.84,3,3,0,0,0-.92,2.36v6.39h-3.43V32.3h2.59l.51,2.11h.17a4.73,4.73,0,0,1,1.58-1.7A3.89,3.89,0,0,1,857.09,32.07Z"/><path class="cls-3" d="M864.28,45.08a4.08,4.08,0,0,1-3.48-1.72,7.9,7.9,0,0,1-1.26-4.76,7.9,7.9,0,0,1,1.29-4.81,4.18,4.18,0,0,1,3.54-1.72A4.1,4.1,0,0,1,868,33.91h.11a14,14,0,0,1-.26-2.5v-4h3.44V44.86h-2.63L868,43.23h-.15A3.92,3.92,0,0,1,864.28,45.08Zm1.2-2.73a2.32,2.32,0,0,0,1.93-.76,4.44,4.44,0,0,0,.67-2.59v-.37a5.14,5.14,0,0,0-.62-2.9,2.32,2.32,0,0,0-2-.88,2,2,0,0,0-1.78,1,5.19,5.19,0,0,0-.63,2.82,4.91,4.91,0,0,0,.64,2.78A2.09,2.09,0,0,0,865.48,42.35Z"/><path class="cls-3" d="M883.61,41.13a3.46,3.46,0,0,1-1.34,2.94,6.63,6.63,0,0,1-4,1,12.57,12.57,0,0,1-2.34-.19,8.8,8.8,0,0,1-1.81-.54V41.52a12,12,0,0,0,2.15.75,8.71,8.71,0,0,0,2.11.3q1.86,0,1.86-1.08a.9.9,0,0,0-.25-.66,3.59,3.59,0,0,0-.85-.57q-.61-.32-1.62-.75a10.15,10.15,0,0,1-2.13-1.12,3.16,3.16,0,0,1-1-1.19,3.91,3.91,0,0,1-.31-1.65,3,3,0,0,1,1.3-2.59,6.32,6.32,0,0,1,3.68-.92,10.44,10.44,0,0,1,4.41,1l-1,2.47q-.94-.4-1.76-.66A5.52,5.52,0,0,0,879,34.6q-1.52,0-1.52.82a1,1,0,0,0,.49.8,13.24,13.24,0,0,0,2.14,1,10,10,0,0,1,2.16,1.11,3.29,3.29,0,0,1,1,1.19A3.65,3.65,0,0,1,883.61,41.13Z"/><path class="cls-3" d="M902.86,44.86H891.39V42.44l4.12-4.17q1.83-1.88,2.39-2.6a5.75,5.75,0,0,0,.81-1.34,3.41,3.41,0,0,0,.25-1.28,1.87,1.87,0,0,0-.54-1.47A2.11,2.11,0,0,0,897,31.1a4.18,4.18,0,0,0-1.85.44,9.55,9.55,0,0,0-1.88,1.25l-1.89-2.23a12.28,12.28,0,0,1,2-1.46,7.38,7.38,0,0,1,1.74-.66,8.93,8.93,0,0,1,2.11-.23,6.25,6.25,0,0,1,2.72.56,4.34,4.34,0,0,1,1.83,1.57,4.18,4.18,0,0,1,.65,2.31,5.67,5.67,0,0,1-.4,2.13,8.18,8.18,0,0,1-1.24,2,30.1,30.1,0,0,1-2.95,3l-2.11,2v.16h7.15Z"/><path class="cls-3" d="M915.92,36.65q0,4.3-1.41,6.37a4.89,4.89,0,0,1-4.34,2.07,4.83,4.83,0,0,1-4.28-2.13,11.28,11.28,0,0,1-1.44-6.3q0-4.35,1.4-6.41a5.46,5.46,0,0,1,8.62.1A11.3,11.3,0,0,1,915.92,36.65Zm-8,0a12.79,12.79,0,0,0,.52,4.33,1.83,1.83,0,0,0,3.51,0,12.42,12.42,0,0,0,.54-4.31,12.38,12.38,0,0,0-.54-4.34,1.82,1.82,0,0,0-3.5,0A12.76,12.76,0,0,0,907.89,36.65Z"/><path class="cls-3" d="M926.27,44.86H922.8v-9.5l0-1.56.06-1.71q-.87.86-1.2,1.13l-1.89,1.52-1.67-2.09,5.29-4.21h2.85Z"/><path class="cls-3" d="M930.72,37.88q0-4.87,2.06-7.25T939,28.25a11.2,11.2,0,0,1,2.2.17v2.77a9,9,0,0,0-2-.22,6.79,6.79,0,0,0-2.92.54,3.63,3.63,0,0,0-1.69,1.59,7.33,7.33,0,0,0-.66,3h.15a3.81,3.81,0,0,1,3.56-1.91,4.41,4.41,0,0,1,3.45,1.38,5.5,5.5,0,0,1,1.25,3.82,5.73,5.73,0,0,1-1.48,4.16,5.45,5.45,0,0,1-4.11,1.53,5.88,5.88,0,0,1-3.17-.84,5.47,5.47,0,0,1-2.09-2.46A9.37,9.37,0,0,1,930.72,37.88Zm5.93,4.42a2.06,2.06,0,0,0,1.71-.75,3.35,3.35,0,0,0,.6-2.13,2.93,2.93,0,0,0-.56-1.89,2,2,0,0,0-1.68-.69,2.57,2.57,0,0,0-1.8.69,2.1,2.1,0,0,0-.75,1.59,3.62,3.62,0,0,0,.7,2.26A2.15,2.15,0,0,0,936.65,42.31Z"/><path class="cls-3" d="M956.13,42.35a7.41,7.41,0,0,0,2.16-.39v2.55a7.69,7.69,0,0,1-3.14.57,3.85,3.85,0,0,1-3-1,4.52,4.52,0,0,1-.94-3.12V34.87h-1.64V33.42l1.89-1.15,1-2.65h2.19V32.3h3.51v2.57h-3.51v6.05A1.34,1.34,0,0,0,955,42,1.62,1.62,0,0,0,956.13,42.35Z"/><path class="cls-3" d="M968.8,44.86l-.66-1.71H968a5.06,5.06,0,0,1-1.78,1.51,5.76,5.76,0,0,1-2.39.42A3.86,3.86,0,0,1,961,44a4,4,0,0,1-1-2.94,3.31,3.31,0,0,1,1.4-2.95,8.1,8.1,0,0,1,4.22-1l2.18-.07v-.55a1.71,1.71,0,0,0-2-1.91,8.91,8.91,0,0,0-3.54.91l-1.13-2.31A10.21,10.21,0,0,1,966,32a6,6,0,0,1,3.87,1.1,4.07,4.07,0,0,1,1.35,3.35v8.37Zm-1-5.82-1.33,0a4.24,4.24,0,0,0-2.22.54,1.69,1.69,0,0,0-.73,1.5q0,1.45,1.66,1.45a2.63,2.63,0,0,0,1.9-.69,2.4,2.4,0,0,0,.71-1.82Zm-4.09,9q0-1.68,1.86-1.68T967.43,48a1.6,1.6,0,0,1-.47,1.24,2,2,0,0,1-1.39.44Q963.7,49.69,963.7,48Z"/><path class="cls-3" d="M974.57,29.06q0-1.67,1.87-1.67t1.86,1.67a1.63,1.63,0,0,1-.47,1.24,2,2,0,0,1-1.4.44Q974.57,30.74,974.57,29.06Zm3.57,15.8h-3.43V32.3h3.43Z"/><path class="cls-3" d="M991.68,45.08a4.14,4.14,0,0,1-3.48-1.64,7.21,7.21,0,0,1-1.26-4.49,7.17,7.17,0,0,1,1.29-4.57,4.28,4.28,0,0,1,3.54-1.62,4,4,0,0,1,3.62,1.84h.11a15.31,15.31,0,0,1-.26-2.61v-.57h-3.54V29.19h3.54V27.38h3.44v1.81h1.74v2.23h-1.74V44.86h-2.63l-.66-1.63h-.15A3.92,3.92,0,0,1,991.68,45.08Zm1.2-2.73a2.45,2.45,0,0,0,1.93-.7,3.74,3.74,0,0,0,.66-2.36V39a4.26,4.26,0,0,0-.63-2.63,2.43,2.43,0,0,0-2-.79,2.07,2.07,0,0,0-1.78.88,4.37,4.37,0,0,0-.63,2.57,4.12,4.12,0,0,0,.64,2.52A2.16,2.16,0,0,0,992.89,42.35Z"/><path class="cls-3" d="M1010.61,44.86l-.66-1.71h-.09a5.06,5.06,0,0,1-1.78,1.51,5.76,5.76,0,0,1-2.39.42,3.86,3.86,0,0,1-2.85-1,4,4,0,0,1-1-2.94,3.31,3.31,0,0,1,1.4-2.95,8.1,8.1,0,0,1,4.22-1l2.18-.07v-.55a1.71,1.71,0,0,0-2-1.91,8.91,8.91,0,0,0-3.54.91L1003,33.18a10.21,10.21,0,0,1,4.81-1.13,6,6,0,0,1,3.87,1.1,4.07,4.07,0,0,1,1.35,3.35v8.37Zm-.3-13.93a11.89,11.89,0,0,1-2.63-2,13.9,13.9,0,0,1-2.57,2h-2.28v-.3a19.88,19.88,0,0,0,2.88-3.38h4a12.85,12.85,0,0,0,1.21,1.59q.86,1,1.67,1.79v.3ZM1009.6,39l-1.33,0a4.24,4.24,0,0,0-2.22.54,1.69,1.69,0,0,0-.73,1.5q0,1.45,1.66,1.45a2.63,2.63,0,0,0,1.9-.69,2.4,2.4,0,0,0,.71-1.82Z"/><path class="cls-3" d="M1014.73,32.3h3.75l2.37,7.06a9.88,9.88,0,0,1,.42,2.18h.07a9.63,9.63,0,0,1,.48-2.18l2.33-7.06h3.67l-5.31,14.16a6.13,6.13,0,0,1-2.08,2.94,5.26,5.26,0,0,1-3.16,1,7.94,7.94,0,0,1-1.74-.19V47.47a5.87,5.87,0,0,0,1.35.15,2.44,2.44,0,0,0,1.59-.56,3.61,3.61,0,0,0,1.06-1.68l.2-.62Z"/><path class="cls-3" d="M1029.13,43.25a1.88,1.88,0,0,1,.5-1.43,2.05,2.05,0,0,1,1.47-.48,2,2,0,0,1,1.44.49,2.18,2.18,0,0,1,0,2.81,2,2,0,0,1-1.44.51,2,2,0,0,1-1.46-.5A1.87,1.87,0,0,1,1029.13,43.25Zm3.36-3.84h-2.74l-.57-11h3.88Z"/><g class="cls-4"><circle class="cls-5" cx="60.8" cy="57.78" r="5.7"/><circle class="cls-3" cx="71.06" cy="73.54" r="5.7"/><circle class="cls-5" cx="97.19" cy="73.54" r="5.7"/><circle class="cls-5" cx="116.62" cy="51.02" r="5.7"/><path class="cls-6" d="M-16.14,112.83V54H20.68V64.81H-4.7V78.24h23v10.2h-23V102H20.68v10.78Z"/><polygon class="cls-6" points="21.06 24.66 10.43 15.35 -0.2 24.77 -0.2 -0.04 20.98 -0.04 21.06 24.66"/><path class="cls-5" d="M34.45,40.07a4.57,4.57,0,1,1-4.63-4.57A4.57,4.57,0,0,1,34.45,40.07ZM-6.61,36.38H20.84V43.8H-6.61Z"/><rect class="cls-1" x="118.52" y="1.16" width="285.94" height="237.78"/><rect class="cls-3" x="1141.19" y="-11.28" width="8.48" height="65.73" transform="translate(1167.01 -1123.85) rotate(90)"/><rect class="cls-3" x="1146.53" y="10.44" width="8.48" height="55.06" transform="translate(1188.73 -1112.8) rotate(90)"/><rect class="cls-3" x="1146.53" y="26.82" width="8.48" height="55.06" transform="translate(1205.12 -1096.42) rotate(90)"/><circle class="cls-5" cx="1075" cy="18.42" r="5.41"/><circle class="cls-3" cx="1084.73" cy="33.37" r="5.41"/><circle class="cls-5" cx="1109.53" cy="45.16" r="5.41"/><circle class="cls-5" cx="1127.97" cy="12" r="5.41"/><path class="cls-6" d="M1117.6,45.38h-23.46l-4.81,13.2h-11.89L1099.59.82h13l22,57.76H1122.4Zm-19.72-10.27h16l-8-21.83Z"/></g><path class="cls-6" d="M115.61,8.53a1.27,1.27,0,1,1-1.27,1.29A1.27,1.27,0,0,1,115.61,8.53Zm-1,11.4V12.31h2.06v7.62Z"/><path class="cls-6" d="M121.14,15.8v4.13H119V9h4.1a3.36,3.36,0,0,1,3.61,3.42,3.35,3.35,0,0,1-3.61,3.42Zm1.7-1.84a1.58,1.58,0,1,0,0-3.14h-1.69V14Z"/><path class="cls-6" d="M132.69,14.36a3.11,3.11,0,0,0-.62-.06c-1.05,0-2,.51-2,2.15v3.48H128V12.31h2v1.13a2.27,2.27,0,0,1,2.17-1.19,4.7,4.7,0,0,1,.48,0Z"/><path class="cls-6" d="M135.17,8.53a1.27,1.27,0,1,1-1.27,1.29A1.27,1.27,0,0,1,135.17,8.53Zm-1,11.4V12.31h2.06v7.62Z"/><path class="cls-6" d="M139.89,16.12a2,2,0,0,0,2,2.15A1.74,1.74,0,0,0,143.59,17l1.81.6a3.54,3.54,0,0,1-3.56,2.57,3.94,3.94,0,0,1-4-4,3.9,3.9,0,0,1,3.95-4,3.49,3.49,0,0,1,3.58,2.57l-1.84.62A1.66,1.66,0,0,0,141.83,14,1.94,1.94,0,0,0,139.89,16.12Z"/><path class="cls-6" d="M153.67,17.75a3.43,3.43,0,0,1-3.47,2.42,3.86,3.86,0,0,1-3.93-4.07,3.82,3.82,0,0,1,3.75-4c2.35,0,3.76,1.5,3.76,3.95,0,.29,0,.6,0,.63H148.3a1.86,1.86,0,0,0,1.92,1.73A1.68,1.68,0,0,0,152,17.24Zm-1.92-2.49a1.53,1.53,0,0,0-1.7-1.5,1.65,1.65,0,0,0-1.7,1.5Z"/><path class="cls-6" d="M159.39,19.93V9h6.87v2h-4.74v2.51h4.29v1.9h-4.29v2.54h4.74v2Z"/><path class="cls-6" d="M167.81,16.24V14.42h4.49v1.83Z"/><path class="cls-6" d="M173.6,14.45a5.54,5.54,0,0,1,5.59-5.73,4.83,4.83,0,0,1,5,3.64l-2,.63a2.87,2.87,0,0,0-3-2.21,3.38,3.38,0,0,0-3.38,3.67,3.39,3.39,0,0,0,3.41,3.62,3.05,3.05,0,0,0,3.08-2.25l2,.6a5,5,0,0,1-5.08,3.73A5.48,5.48,0,0,1,173.6,14.45Z"/><path class="cls-6" d="M193.08,16.12a4,4,0,1,1-8,0,4,4,0,1,1,8,0Zm-2.06,0a1.95,1.95,0,1,0-3.87,0,1.95,1.95,0,1,0,3.87,0Z"/><path class="cls-6" d="M194.71,19.93V12.31h2v.93a2.62,2.62,0,0,1,2.23-1.15,2.36,2.36,0,0,1,2.26,1.27A2.82,2.82,0,0,1,206.33,15v4.94h-2V15.41A1.27,1.27,0,0,0,203,14a1.4,1.4,0,0,0-1.41,1.5v4.46h-2V15.41A1.28,1.28,0,0,0,198.19,14a1.39,1.39,0,0,0-1.42,1.5v4.46Z"/><path class="cls-6" d="M208.42,19.93V12.31h2v.93a2.62,2.62,0,0,1,2.23-1.15,2.36,2.36,0,0,1,2.26,1.27A2.82,2.82,0,0,1,220.05,15v4.94h-2V15.41A1.27,1.27,0,0,0,216.71,14a1.4,1.4,0,0,0-1.41,1.5v4.46h-2V15.41A1.28,1.28,0,0,0,211.91,14a1.39,1.39,0,0,0-1.42,1.5v4.46Z"/><path class="cls-6" d="M229,17.75a3.43,3.43,0,0,1-3.47,2.42,3.86,3.86,0,0,1-3.93-4.07,3.82,3.82,0,0,1,3.75-4c2.35,0,3.76,1.5,3.76,3.95,0,.29,0,.6,0,.63H223.6a1.86,1.86,0,0,0,1.92,1.73,1.68,1.68,0,0,0,1.73-1.16Zm-1.92-2.49a1.53,1.53,0,0,0-1.7-1.5,1.65,1.65,0,0,0-1.7,1.5Z"/><path class="cls-6" d="M235.35,14.36a3.11,3.11,0,0,0-.62-.06c-1.05,0-2,.51-2,2.15v3.48h-2.06V12.31h2v1.13a2.27,2.27,0,0,1,2.17-1.19,4.7,4.7,0,0,1,.48,0Z"/><path class="cls-6" d="M238.22,16.12a2,2,0,0,0,2,2.15A1.74,1.74,0,0,0,241.92,17l1.81.6a3.54,3.54,0,0,1-3.56,2.57,3.94,3.94,0,0,1-4-4,3.9,3.9,0,0,1,3.95-4,3.49,3.49,0,0,1,3.58,2.57l-1.84.62A1.66,1.66,0,0,0,240.15,14,1.94,1.94,0,0,0,238.22,16.12Z"/><path class="cls-6" d="M252,17.75a3.43,3.43,0,0,1-3.47,2.42,3.86,3.86,0,0,1-3.93-4.07,3.82,3.82,0,0,1,3.75-4c2.35,0,3.76,1.5,3.76,3.95,0,.29,0,.6,0,.63h-5.45a1.86,1.86,0,0,0,1.92,1.73,1.68,1.68,0,0,0,1.73-1.16Zm-1.92-2.49a1.53,1.53,0,0,0-1.7-1.5,1.65,1.65,0,0,0-1.7,1.5Z"/><path class="cls-6" d="M124.89,35.06V27.37l-3.16,7.69h-1.78l-3.16-7.63v7.63h-2v-11h2.82l3.3,7.93,3.22-7.93H127v11Z"/><path class="cls-6" d="M136.13,32.88a3.43,3.43,0,0,1-3.47,2.42,3.86,3.86,0,0,1-3.93-4.07,3.82,3.82,0,0,1,3.75-4c2.35,0,3.76,1.5,3.76,3.95,0,.29,0,.6,0,.63h-5.45a1.86,1.86,0,0,0,1.92,1.73,1.68,1.68,0,0,0,1.73-1.16Zm-1.92-2.49a1.53,1.53,0,0,0-1.7-1.5,1.65,1.65,0,0,0-1.7,1.5Z"/><path class="cls-6" d="M142.51,29.49a3.11,3.11,0,0,0-.62-.06c-1.05,0-2,.51-2,2.15v3.48h-2.06V27.44h2v1.13A2.26,2.26,0,0,1,142,27.38a4.7,4.7,0,0,1,.48,0Z"/><path class="cls-6" d="M145.37,31.25a2,2,0,0,0,2,2.15,1.74,1.74,0,0,0,1.75-1.29l1.81.6a3.54,3.54,0,0,1-3.56,2.57,3.94,3.94,0,0,1-4-4,3.9,3.9,0,0,1,3.95-4,3.49,3.49,0,0,1,3.58,2.57L149,30.4a1.66,1.66,0,0,0-1.69-1.29A1.94,1.94,0,0,0,145.37,31.25Z"/><path class="cls-6" d="M154.46,35.06H152.4V23.85h2.06v4.23a2.87,2.87,0,0,1,4.89,2.18v4.8h-2.06V30.62a1.34,1.34,0,0,0-1.41-1.52,1.43,1.43,0,0,0-1.42,1.49Z"/><path class="cls-6" d="M163.26,30.68l1.87-.28c.43-.06.57-.28.57-.54,0-.54-.42-1-1.29-1A1.35,1.35,0,0,0,163,30.11l-1.83-.39a3,3,0,0,1,3.27-2.51c2.42,0,3.31,1.36,3.31,2.9v3.75a8.56,8.56,0,0,0,.09,1.21h-1.89a5.15,5.15,0,0,1-.08-.91,2.55,2.55,0,0,1-2.25,1.13A2.41,2.41,0,0,1,161,33,2.35,2.35,0,0,1,163.26,30.68ZM165.7,32v-.34L164,31.9a1,1,0,0,0-.94,1,.89.89,0,0,0,1,.88A1.55,1.55,0,0,0,165.7,32Z"/><path class="cls-6" d="M171.85,35.06h-2.06V27.44h2v.94a2.53,2.53,0,0,1,2.2-1.15c1.89,0,2.76,1.35,2.76,3v4.8h-2.06V30.62a1.34,1.34,0,0,0-1.41-1.52,1.43,1.43,0,0,0-1.42,1.58Z"/><path class="cls-6" d="M181.37,27.44h1.53v1.83h-1.53v3.19c0,.67.31.88.9.88a3,3,0,0,0,.63-.06V35a3.05,3.05,0,0,1-1.16.19,2.21,2.21,0,0,1-2.42-2.35V29.27H178V27.44h.39a1.1,1.1,0,0,0,1.18-1.21V25.17h1.86Z"/><path class="cls-6" d="M121.28,47.69h-4.46l-.91,2.51h-2.26l4.21-11h2.48l4.18,11h-2.32Zm-3.75-2h3L119,41.59Z"/><path class="cls-6" d="M131.79,42.58l1.64,4.91,1.41-4.91h2l-2.38,7.62h-2.06L130.66,45l-1.75,5.2h-2.09l-2.43-7.62h2.17L128,47.47l1.66-4.89Z"/><path class="cls-6" d="M140,45.81l1.87-.28c.43-.06.57-.28.57-.54,0-.54-.42-1-1.29-1a1.35,1.35,0,0,0-1.46,1.24l-1.83-.39a3,3,0,0,1,3.27-2.51c2.42,0,3.31,1.36,3.31,2.9V49a8.56,8.56,0,0,0,.09,1.21h-1.89a5.15,5.15,0,0,1-.08-.91,2.55,2.55,0,0,1-2.25,1.13,2.41,2.41,0,0,1-2.62-2.29A2.35,2.35,0,0,1,140,45.81Zm2.45,1.3v-.34l-1.72.26a1,1,0,0,0-.94,1,.89.89,0,0,0,1,.88A1.55,1.55,0,0,0,142.4,47.11Z"/><path class="cls-6" d="M151.13,44.62a3.11,3.11,0,0,0-.62-.06c-1.05,0-2,.51-2,2.15v3.48h-2.06V42.58h2v1.13a2.27,2.27,0,0,1,2.17-1.19,4.7,4.7,0,0,1,.48,0Z"/><path class="cls-6" d="M159.77,48.82c0,.51,0,1.07.06,1.38h-2a5.27,5.27,0,0,1-.08-.88,2.39,2.39,0,0,1-2.14,1.07,3.75,3.75,0,0,1-3.72-4,3.72,3.72,0,0,1,3.65-4,2.28,2.28,0,0,1,2.15.94V39h2Zm-3.87-.28a1.93,1.93,0,0,0,1.87-2.18,1.89,1.89,0,0,0-1.87-2.12A1.91,1.91,0,0,0,154,46.37,1.92,1.92,0,0,0,155.9,48.54Z"/><path class="cls-6" d="M163.12,47.69a1.27,1.27,0,0,0,1.39,1.16c.68,0,1-.36,1-.76s-.23-.62-.82-.74l-1-.23c-1.47-.32-2.14-1.21-2.14-2.28a2.66,2.66,0,0,1,2.85-2.49c2.17,0,2.9,1.38,3,2.2l-1.72.39a1.16,1.16,0,0,0-1.25-1,.88.88,0,0,0-1,.76c0,.37.28.6.7.68l1.08.23c1.5.31,2.26,1.22,2.26,2.34s-1,2.51-3,2.51c-2.29,0-3.08-1.49-3.17-2.35Z"/><path class="cls-6" d="M172.52,44a3.8,3.8,0,0,1-.08-.7,3.39,3.39,0,0,1,3.67-3.36,3.32,3.32,0,0,1,3.62,3.24,3.61,3.61,0,0,1-2,3.11l-1.94,1.18a2,2,0,0,0-.87.91h4.82v1.84h-7.43a4.59,4.59,0,0,1,2.37-4.29l1.66-1a2,2,0,0,0,1.19-1.73,1.37,1.37,0,0,0-1.52-1.38,1.52,1.52,0,0,0-1.59,1.67,2.2,2.2,0,0,0,.08.56Z"/><path class="cls-6" d="M181.79,41.6a3.8,3.8,0,0,1,3.31-1.69,3.75,3.75,0,0,1,3.3,1.69,6.42,6.42,0,0,1,.9,3.58,6.42,6.42,0,0,1-.9,3.58,3.75,3.75,0,0,1-3.3,1.69,3.8,3.8,0,0,1-3.31-1.69,6.41,6.41,0,0,1-.88-3.58A6.41,6.41,0,0,1,181.79,41.6Zm1.8,6.13a1.68,1.68,0,0,0,1.52.82,1.63,1.63,0,0,0,1.5-.82,4.7,4.7,0,0,0,.56-2.55,4.71,4.71,0,0,0-.56-2.55,1.63,1.63,0,0,0-1.5-.82,1.68,1.68,0,0,0-1.52.82,4.86,4.86,0,0,0-.54,2.55A4.86,4.86,0,0,0,183.59,47.73Z"/><path class="cls-6" d="M192.66,50.19V43.47h-2.42V42a2.56,2.56,0,0,0,2.69-1.89h1.84v10Z"/><path class="cls-6" d="M203.81,42.11a4.29,4.29,0,0,0-1.66-.36,3.15,3.15,0,0,0-3.33,2.88,2.84,2.84,0,0,1,2.38-1.11,3.22,3.22,0,0,1,3.47,3.38,3.61,3.61,0,0,1-3.89,3.53c-2.2,0-4.07-1.58-4.07-4.61,0-3.61,2.26-5.9,5.57-5.9a4.37,4.37,0,0,1,2.11.46Zm-3,6.52a1.68,1.68,0,1,0,0-3.36A1.66,1.66,0,0,0,199,46.94,1.7,1.7,0,0,0,200.77,48.63Z"/><path class="cls-3" d="M119.89,54.48h1.76L118.48,63h-1.71l-3.16-8.55h1.82l2.23,6.35Z"/><path class="cls-3" d="M123.43,54.16a1,1,0,1,1-1,1A1,1,0,0,1,123.43,54.16Zm-.8,8.87V57.1h1.6V63Z"/><path class="cls-3" d="M131.26,61.33a2.67,2.67,0,0,1-2.7,1.88,3.15,3.15,0,0,1-.14-6.29A2.77,2.77,0,0,1,131.35,60c0,.23,0,.47,0,.49h-4.24a1.44,1.44,0,0,0,1.5,1.35,1.31,1.31,0,0,0,1.35-.9Zm-1.5-1.94a1.19,1.19,0,0,0-1.33-1.17,1.28,1.28,0,0,0-1.33,1.17Z"/><path class="cls-3" d="M134.59,57.1h1.19v1.42h-1.19V61c0,.52.24.69.7.69a2.33,2.33,0,0,0,.49,0V63a2.38,2.38,0,0,1-.9.14A1.72,1.72,0,0,1,133,61.28V58.52h-1.07V57.1h.3a.85.85,0,0,0,.92-.94v-.83h1.45Z"/><path class="cls-3" d="M138.67,63h-1.6V57.1h1.56v.74a2,2,0,0,1,1.71-.89,2.09,2.09,0,0,1,2.15,2.35V63h-1.6V59.57a1,1,0,0,0-1.1-1.18,1.12,1.12,0,0,0-1.11,1.23Z"/><path class="cls-3" d="M145.52,59.62,147,59.4c.34,0,.45-.22.45-.42,0-.42-.33-.77-1-.77a1.05,1.05,0,0,0-1.13,1l-1.42-.3a2.36,2.36,0,0,1,2.54-2c1.88,0,2.58,1.06,2.58,2.25v2.92a6.64,6.64,0,0,0,.07.94h-1.47a4,4,0,0,1-.06-.71,2,2,0,0,1-1.75.88,1.87,1.87,0,0,1-2-1.78A1.83,1.83,0,0,1,145.52,59.62Zm1.9,1v-.27l-1.34.2a.75.75,0,0,0-.74.75.7.7,0,0,0,.77.69A1.2,1.2,0,0,0,147.42,60.63Z"/><path class="cls-3" d="M150.61,63V57.1h1.53v.72a2,2,0,0,1,1.74-.89,1.84,1.84,0,0,1,1.76,1,2.19,2.19,0,0,1,4,1.27V63h-1.56V59.51a1,1,0,0,0-1-1.12,1.09,1.09,0,0,0-1.1,1.17V63h-1.59V59.51a1,1,0,0,0-1-1.12,1.09,1.09,0,0,0-1.11,1.17V63Z"/><g class="cls-7"><rect class="cls-1" x="128.55" y="-199.52" width="285.94" height="237.78"/></g><g class="cls-8"><rect class="cls-1" x="93.18" y="-94.18" width="199.76" height="166.11"/></g></svg>